<svg xmlns="http://www.w3.org/2000/svg" viewBox="0 0 100.57 125.41"><defs><style>.cls-1{fill:#0d45db;}.cls-2{fill:#fff;}.cls-3{fill:#0064e6;}.cls-4{fill:#2e89ff;}</style></defs><title>char-2Asset 45</title><g id="Layer_2" data-name="Layer 2"><g id="Layer_1-2" data-name="Layer 1"><path class="cls-1" d="M85.94,65.57A28.15,28.15,0,0,0,94.2,51.2c3.41-15-4.86-34.52-21-38.19L42,5.91c-3.6-.81-12.64-1.23-18.79,12.61L23,19l-17,74.9C4,102.29,10.63,109.71,18,111.39l37,8.38.54,0c18.76.54,33.26-9.57,36.93-25.74C94.51,85.18,92.68,73.67,85.94,65.57ZM56.76,84.4l-.39,1.73a16.7,16.7,0,0,1-2.77-.44l-8.1-1.85.91-4,10,2.27A4.62,4.62,0,0,1,56.76,84.4ZM54,46.66l.44-1.95,3.9.89a5.54,5.54,0,0,1-.11,2,.07.07,0,0,1,0,0Z"/><path class="cls-2" d="M16.76,116.85C6.75,114.57-2.18,104.32.47,92.68L17.62,17.24l.45-1C26.12-1.88,39.35-.42,43.21.45l31.2,7.1c19.87,4.51,29.25,27.28,25.25,44.89A33.6,33.6,0,0,1,93.13,66,40.38,40.38,0,0,1,98,95.29C93.66,114.19,77,126,55.4,125.38l-1.09,0ZM28.3,20.79,11.39,95.16c-1.14,5,3.22,9.71,7.85,10.77l36.48,8.26c16,.46,28.26-7.94,31.31-21.38,1.53-6.72.45-16.63-5.4-23.65l-3.39-4.08,3.88-3.61A22.43,22.43,0,0,0,88.74,50c2.76-12.17-4-28.57-16.82-31.49L40.73,11.38c-4.83-1.1-9.24,2.24-12.43,9.41ZM52.35,91.15,38.79,88.06l3.4-14.94,18.28,4.16,1.11,2.65a10.21,10.21,0,0,1,.64,5.71L60.77,92,56,91.72A23.86,23.86,0,0,1,52.35,91.15Zm4.58-38.07-9.68-2.2L50.18,38l13.16,3,.51,3.87a11.47,11.47,0,0,1-.21,4L62.4,54.28Z"/><path class="cls-3" d="M85.94,65.57A28.15,28.15,0,0,0,94.2,51.2c3.41-15-4.86-34.52-21-38.19L42,5.91c-3.6-.81-12.64-1.23-18.79,12.61L23,19l-17,74.9C4,102.29,10.63,109.71,18,111.39l37,8.38.54,0c18.76.54,33.26-9.57,36.93-25.74C94.51,85.18,92.68,73.67,85.94,65.57ZM56.76,84.4l-.39,1.73a16.7,16.7,0,0,1-2.77-.44l-8.1-1.85.91-4,10,2.27A4.62,4.62,0,0,1,56.76,84.4ZM54,46.66l.44-1.95,3.9.89a5.54,5.54,0,0,1-.11,2,.07.07,0,0,1,0,0Z"/><path class="cls-4" d="M75.36,62.35A22.6,22.6,0,0,0,87.05,47.28c2.76-12.17-4-28.57-16.81-31.49L39,8.69c-2.79-.63-8.11-.3-12.43,9.42L9.71,92.48c-1.15,5,3.21,9.71,7.83,10.76L54,111.51c16,.46,28.26-7.94,31.32-21.39C87.54,80.48,84.3,68.26,75.36,62.35ZM39.83,73.41a3,3,0,0,1,3.64-2.29L57,74.18c2.68.61,4.31,5.55,3.57,8.78l-.42,1.86c-.71,3.12-1.85,5.37-9.44,3.65l-10.6-2.41a3,3,0,0,1-2.29-3.64Zm17.23-22.6-8.53-1.94a3,3,0,0,1-2.29-3.64l1.57-6.94A3,3,0,0,1,51.45,36L59,37.7c2.93.67,3.83,4.81,3,8.44C61.58,47.79,60.35,51.56,57.06,50.81Z"/></g></g></svg>