<svg xmlns="http://www.w3.org/2000/svg" viewBox="0 0 101.45 126.06"><defs><style>.cls-1{fill:#fff;}.cls-2{fill:#a426de;}.cls-3{fill:#d069ff;}</style></defs><title>char-25Asset 68</title><g id="Layer_2" data-name="Layer 2"><g id="Layer_1-2" data-name="Layer 1"><path class="cls-1" d="M73.18,5.87A18.1,18.1,0,0,0,60.11,16.5l-8.3,18.78L36.56,20.1c-3.62-4.32-9-6.08-15.09-5-10.83,2-17.19,12.9-15.64,21.34A17.14,17.14,0,0,0,9.26,44l.25.34L41,74.66,47,106.91c1.69,9.21,10.68,15,20.47,13.22s16-9.78,14.43-18.54l-6.1-33.27L94.76,29l.2-.46A16,16,0,0,0,95.55,20C93.91,11.12,82.83,4.1,73.18,5.87Z"/><path class="cls-1" d="M68.44,125.63c-12.88,2.37-24.73-5.41-27-17.71L35.86,77.45,5.33,48.11l-.51-.66a22.67,22.67,0,0,1-4.5-10c-2-11.06,5.74-25.22,20.14-27.86,8-1.47,15.32,1,20.21,6.66L50,25.56l5-11.32A23.66,23.66,0,0,1,72.17.37C84.83-2,98.87,7.11,101.06,19a21.64,21.64,0,0,1-.86,11.48l-.4.92L81.59,69.11l5.78,31.47C89.55,112.48,81.41,123.26,68.44,125.63Zm-54.75-85L46.23,71.87l6.24,34c1.12,6.12,7.25,9.95,14,8.72s11-6.31,9.93-12L69.92,67.53,89.75,26.45A10.41,10.41,0,0,0,90,21C89,15.13,80.81,10.17,74.19,11.38a12.58,12.58,0,0,0-8.94,7.34L53.64,45,32.26,23.69c-2.33-2.78-5.62-3.8-9.78-3C14.92,22,10.29,29.76,11.34,35.48A11.58,11.58,0,0,0,13.69,40.62Z"/><path class="cls-2" d="M73.18,5.87A18.1,18.1,0,0,0,60.11,16.5l-8.3,18.78L36.56,20.1c-3.62-4.32-9-6.08-15.09-5-10.83,2-17.19,12.9-15.64,21.34A17.14,17.14,0,0,0,9.26,44l.25.34L41,74.66,47,106.91c1.69,9.21,10.68,15,20.47,13.22s16-9.78,14.43-18.54l-6.1-33.27L94.76,29l.2-.46A16,16,0,0,0,95.55,20C93.91,11.12,82.83,4.1,73.18,5.87Z"/><path class="cls-3" d="M71.58,9.58a12.46,12.46,0,0,0-9,7.39L51.88,41.28a1.45,1.45,0,0,1-2.35.44L29.8,22.07c-2.33-2.91-5.68-4-9.93-3.22C12.32,20.24,7.68,28,8.73,33.68a11.79,11.79,0,0,0,2.35,5.14L43.62,70.07l6.24,34c1.14,6.22,7.14,10,14,8.72,5.83-1.07,11.12-5.54,9.93-12L67.31,65.73l19.8-41a10.44,10.44,0,0,0,.32-5.51C86.35,13.33,78.2,8.37,71.58,9.58Z"/></g></g></svg>