<svg xmlns="http://www.w3.org/2000/svg" viewBox="0 0 134.85 131.7"><defs><style>.cls-1{fill:#fff;}.cls-2{fill:#f7c00a;}.cls-3{fill:#fff737;}</style></defs><title>char-13Asset 56</title><g id="Layer_2" data-name="Layer 2"><g id="Layer_1-2" data-name="Layer 1"><path class="cls-1" d="M129.19,106.22a6.4,6.4,0,0,0,.06-.88l-1.42-70v0c-.31-11.65-7.18-19.86-17.94-21.41A22.76,22.76,0,0,0,86.54,26L74.79,48.76l-4-24.67A21.7,21.7,0,0,0,52.62,5.82,22.29,22.29,0,0,0,28.52,21L7.74,87a18.37,18.37,0,0,0-2,6.18c-1.37,9.4,5.72,18.55,15.47,20a18.89,18.89,0,0,0,14.14-3.42,18.37,18.37,0,0,0,7-11.82L46,86l3.2,17.65c1.62,8.48,7.93,14.73,16.07,15.91a18.92,18.92,0,0,0,20.47-10.88l7.53-16,.19,11.83c-.3,11,6.51,20,16.26,21.46,7.91,1.15,17.23-4,19-15.86Z"/><path class="cls-1" d="M108.91,131.49C99.41,130.11,92,123.26,89.15,114a24.89,24.89,0,0,1-44.63-6.08,23.67,23.67,0,0,1-5.79,6.27,24.45,24.45,0,0,1-18.3,4.48C7.68,116.82-1.57,104.78.22,92.36a24.21,24.21,0,0,1,2.32-7.51L23.18,19.31A28,28,0,0,1,53.43.27a27.42,27.42,0,0,1,22.94,23l1.25,7.8,3.94-7.63a28.42,28.42,0,0,1,29.13-15.1c13.44,2,22.36,12.47,22.73,26.82l1.43,70.06a11.72,11.72,0,0,1-.11,1.76l-.53,3.85C132,126.32,119.5,133,108.91,131.49Zm-10.45-63,.59,36.19c-.23,8.14,4.6,14.77,11.46,15.76,4.33.63,11.26-1.82,12.61-11.13l.53-3.81-1.42-70c-.23-8.87-5.15-14.85-13.15-16a17.09,17.09,0,0,0-17.54,9.09L72,66.44l-6.7-41.62A16,16,0,0,0,51.82,11.36a16.64,16.64,0,0,0-18,11.36L12.92,89.17l-.24.45A13.06,13.06,0,0,0,11.31,94c-.91,6.29,4.1,12.65,10.73,13.62a13.32,13.32,0,0,0,10-2.37A12.79,12.79,0,0,0,36.9,97l.16-.69,10.26-34.4,7.38,40.72A13.71,13.71,0,0,0,66.07,114a13.34,13.34,0,0,0,14.6-7.72Z"/><path class="cls-2" d="M129.19,106.22a6.4,6.4,0,0,0,.06-.88l-1.42-70v0c-.31-11.65-7.18-19.86-17.94-21.41A22.76,22.76,0,0,0,86.54,26L74.79,48.76l-4-24.67A21.7,21.7,0,0,0,52.62,5.82,22.29,22.29,0,0,0,28.52,21L7.74,87a18.37,18.37,0,0,0-2,6.18c-1.37,9.4,5.72,18.55,15.47,20a18.89,18.89,0,0,0,14.14-3.42,18.37,18.37,0,0,0,7-11.82L46,86l3.2,17.65c1.62,8.48,7.93,14.73,16.07,15.91a18.92,18.92,0,0,0,20.47-10.88l7.53-16,.19,11.83c-.3,11,6.51,20,16.26,21.46,7.91,1.15,17.23-4,19-15.86Z"/><path class="cls-3" d="M120.33,32.92c-.23-8.87-5.14-14.86-13.14-16a17.15,17.15,0,0,0-17.57,9.15l-18,34.81a1.13,1.13,0,0,1-2.11-.34L63.39,22.36A16,16,0,0,0,49.92,8.82,16.63,16.63,0,0,0,32,20.13L11,86.68a12.89,12.89,0,0,0-1.6,4.75c-.92,6.4,4,12.64,10.73,13.62,7.58,1.09,13.87-3.61,14.91-10.93l9.54-32a.69.69,0,0,1,1.35.07L52.79,100c1.19,6.2,5.55,10.57,11.38,11.42a13.34,13.34,0,0,0,14.6-7.72l16.52-35.1a.69.69,0,0,1,1.32.29L97.16,102c-.28,8.2,4.54,14.88,11.46,15.88,5.35.78,11.39-2.78,12.6-11.09l.53-3.85Z"/></g></g></svg>