<svg xmlns="http://www.w3.org/2000/svg" viewBox="0 0 97.12 125.64"><defs><style>.cls-1{fill:#f7c00a;}.cls-2{fill:#fff;}.cls-3{fill:#fff737;}</style></defs><title>char-5Asset 48</title><g id="Layer_2" data-name="Layer 2"><g id="Layer_1-2" data-name="Layer 1"><path class="cls-1" d="M69,78.06,54.18,81.72l-.73-3,16.09-4c9.06-2.23,11.92-11.68,10-19.43C77.49,47,69.68,39.73,60.18,42.07L45.32,45.72l-.48-1.94,16.91-4.16c9.12-2.25,12.53-11.83,10.57-19.79-2.42-9.85-11.85-16-21-13.76L18.4,14.17C9.16,16.45,3.88,25,6.13,34.16l18.49,75.08c1.7,6.91,10.57,12.19,17.58,10.46l38.06-9.37c8.28-2,13-10.93,10.67-20.25C88.92,81.92,80.76,75.18,69,78.06Z"/><path class="cls-2" d="M81.6,115.77l-38.06,9.37c-10.07,2.48-21.9-4.59-24.36-14.56L.69,35.5c-3-12.22,4-23.73,16.37-26.77L50,.63c12.16-3,24.63,5,27.79,17.86a23.26,23.26,0,0,1-4.22,20.09A24.54,24.54,0,0,1,85,54c1.57,6.35.65,13.58-3.18,18.94A22.4,22.4,0,0,1,96.37,88.74C99.41,101.11,92.93,113,81.6,115.77ZM19.74,19.61c-6.24,1.53-9.68,7.09-8.17,13.21l18.49,75.09c1,3.89,6.81,7.34,10.8,6.35l38.06-9.37c5.23-1.28,8.12-7.2,6.57-13.47-1.3-5.29-6.58-10-15.11-7.92l-20.3,5L46.67,74.65l21.53-5.3c6.24-1.54,7-8.41,5.91-12.65-1.19-4.82-5.88-10.85-12.6-9.2l-20.29,5L38.06,39.68l22.35-5.5c6.3-1.55,7.58-8.54,6.47-13C65.2,14.32,58.81,10,52.65,11.5Z"/><path class="cls-1" d="M69,78.06,54.18,81.72l-.73-3,16.09-4c9.06-2.23,11.92-11.68,10-19.43C77.49,47,69.68,39.73,60.18,42.07L45.32,45.72l-.48-1.94,16.91-4.16c9.12-2.25,12.53-11.83,10.57-19.79-2.42-9.85-11.85-16-21-13.76L18.4,14.17C9.16,16.45,3.88,25,6.13,34.16l18.49,75.08c1.7,6.91,10.57,12.19,17.58,10.46l38.06-9.37c8.28-2,13-10.93,10.67-20.25C88.92,81.92,80.76,75.18,69,78.06Z"/><path class="cls-3" d="M67.67,81.86,49.59,86.31a2.28,2.28,0,0,1-2.76-1.67l-2.32-9.41a2.29,2.29,0,0,1,1.67-2.76l19.31-4.76c5.53-1.36,7.17-7.53,5.91-12.65-1.41-5.7-6.5-10.7-12.6-9.2L40.72,50.32A2.29,2.29,0,0,1,38,48.64L35.9,40.26a2.28,2.28,0,0,1,1.67-2.76l20.14-5c5.7-1.41,7.77-7.72,6.46-13C62.49,12.68,56.1,8.35,49.94,9.86L17,18c-6.24,1.54-9.68,7.09-8.17,13.21l18.49,75.09c1,3.89,6.82,7.34,10.8,6.36l38.06-9.38c5.23-1.28,8.12-7.2,6.57-13.47C81.48,84.49,76.2,79.76,67.67,81.86Z"/></g></g></svg>