<svg xmlns="http://www.w3.org/2000/svg" viewBox="0 0 119.02 125.15"><defs><style>.cls-1{fill:#fff;}.cls-2{fill:#96130b;}.cls-3{fill:#ff2114;}</style></defs><title>char-15Asset 58</title><g id="Layer_2" data-name="Layer 2"><g id="Layer_1-2" data-name="Layer 1"><path class="cls-1" d="M108.39,34.59C102.32,22,91.37,13,76.72,8.37,61.7,3.68,47.31,5,35.12,12.14,23.09,19.2,14.06,31.5,9,47.71c-.05.17-.09.34-.13.51l-.4,1.88c-9.27,30.11,4.82,57.54,34.35,66.77s57-6.28,66.78-37.68l.63-2C115,61.76,114.4,47,108.39,34.59ZM74.08,68.1c-3,9.5-10,18.46-20.74,15.09-3.61-1.13-14.6-4.56-8.46-24.22a8.78,8.78,0,0,0,.37-2c0-.19,0-.47.07-.79C49,45,57.63,39.16,66.46,41.92l1.61.5C71.24,43.41,80.86,46.42,74.08,68.1Z"/><path class="cls-1" d="M41.15,122.22C8.59,112-7,81.84,3,48.7l.34-1.63a9.17,9.17,0,0,1,.27-1C9.13,28.48,19,15.09,32.28,7.31,45.88-.67,61.82-2.15,78.39,3c16.16,5.05,28.28,15.12,35.05,29.12,6.63,13.75,7.37,29.89,2.12,46.68l-.63,2C104.14,115.41,73.79,132.42,41.15,122.22Zm33.9-108.5C61.58,9.51,48.75,10.63,38,17S19,34.52,14.34,49.38l-.52,2.37c-8.44,27.38,3.88,51.41,30.67,59.77,26.35,8.24,50.92-5.74,59.75-34l.63-2c4.39-14,3.86-27.33-1.52-38.48h0C98,25.88,88.18,17.82,75.05,13.72ZM51.67,88.54c-12.86-4-17.17-15.12-12.13-31.24a4.22,4.22,0,0,0,.13-.85c0-.25,0-.56.08-.9l.07-.59.18-.57c4.68-14.2,16.25-21.53,28.13-17.82l1.62.51C78,39.66,86.41,47.43,79.43,69.76,74.68,85,63.79,92.32,51.67,88.54Zm-.83-31.21v.05a15.13,15.13,0,0,1-.6,3.26C45.75,75,51.77,76.84,55,77.85c8.36,2.61,12.39-7.12,13.73-11.43,3.17-10.15,2.08-14.53,1.15-16.24a5.12,5.12,0,0,0-3.49-2.41l-1.61-.51C58.31,45.23,53.17,50.78,50.84,57.33Z"/><path class="cls-2" d="M108.39,34.59C102.32,22,91.37,13,76.72,8.37,61.7,3.68,47.31,5,35.12,12.14,23.09,19.2,14.06,31.5,9,47.71c-.05.17-.09.34-.13.51l-.4,1.88c-9.27,30.11,4.82,57.54,34.35,66.77s57-6.28,66.78-37.68l.63-2C115,61.76,114.4,47,108.39,34.59ZM74.08,68.1c-3,9.5-10,18.46-20.74,15.09-3.61-1.13-14.6-4.56-8.46-24.22a8.78,8.78,0,0,0,.37-2c0-.19,0-.47.07-.79C49,45,57.63,39.16,66.46,41.92l1.61.5C71.24,43.41,80.86,46.42,74.08,68.1Z"/><path class="cls-3" d="M73.57,10.91c-27.43-8.57-51.24,5.36-60.7,35.66l-.45,2.13C4,75.77,16.55,100.45,43,108.72s50.92-5.75,59.75-34l.63-2C112.34,44.1,100.35,19.28,73.57,10.91ZM78,67C73.21,82.15,62.32,89.52,50.2,85.73,37.34,81.71,33,70.62,38.06,54.49a3.34,3.34,0,0,0,.14-.84c0-.35.08-.91.15-1.51,4.5-14.37,16.4-22.1,28.31-18.38l1.61.51C83.26,39,81.81,54.63,78,67Z"/></g></g></svg>