<svg xmlns="http://www.w3.org/2000/svg" viewBox="0 0 101.05 118.36"><defs><style>.cls-1{fill:#fff;}.cls-2{fill:#36a300;}.cls-3{fill:#49d800;}</style></defs><title>char-12Asset 55</title><g id="Layer_2" data-name="Layer 2"><g id="Layer_1-2" data-name="Layer 1"><path class="cls-1" d="M74.4,67.73,57.54,72.87,40.42,16.69C37.45,7,26.73,3.86,18.09,6.49,8.57,9.4,3.47,19.39,6.47,29.26L28.7,102.21C31,109.79,41,114.59,49.16,112.09l35.47-10.81C93.43,98.6,97.48,89.83,94.47,80,91.55,70.39,82.93,65.14,74.4,67.73Z"/><path class="cls-1" d="M86.26,106.64,50.8,117.45c-11.16,3.4-24.25-3.09-27.45-13.61L1.11,30.89C-2.81,18,3.93,5,16.46,1.14,27.74-2.3,41.79,2,45.77,15.06L61.26,65.88l11.51-3.5C84.35,58.85,96,65.7,99.82,78.32,103.73,91.14,98,103.06,86.26,106.64ZM19.72,11.85c-6.51,2-10,8.92-7.89,15.77l22.23,72.95c1.42,4.66,8.22,7.77,13.47,6.17L83,95.93c5.83-1.78,8.23-7.41,6.12-14.35C87.09,75,81.59,71.4,76,73.09L53.81,79.86,35.06,18.33C32.92,11.29,24.8,10.3,19.72,11.85Z"/><path class="cls-2" d="M74.4,67.73,57.54,72.87,40.42,16.69C37.45,7,26.73,3.86,18.09,6.49,8.57,9.4,3.47,19.39,6.47,29.26L28.7,102.21C31,109.79,41,114.59,49.16,112.09l35.47-10.81C93.43,98.6,97.48,89.83,94.47,80,91.55,70.39,82.93,65.14,74.4,67.73Z"/><path class="cls-3" d="M73.24,71.6,54,77.48a3.08,3.08,0,0,1-3.83-2L32.27,16.84c-2-6.39-9.33-8.31-15.34-6.48-6.63,2-10,8.8-7.9,15.77l22.23,73c1.29,4.23,7.76,7.91,13.47,6.17L80.2,94.44C86,92.66,88.43,87,86.31,80.09,84.33,73.58,78.71,69.93,73.24,71.6Z"/></g></g></svg>