<svg xmlns="http://www.w3.org/2000/svg" viewBox="0 0 90.23 119.32"><defs><style>.cls-1{fill:#ff7817;}.cls-2{fill:#fff;}.cls-3{fill:#ff9f31;}</style></defs><title>char-6Asset 49</title><g id="Layer_2" data-name="Layer 2"><g id="Layer_1-2" data-name="Layer 1"><path class="cls-1" d="M64.14,46.64,48.8,44.34l.29-2,18.49,2.78C75.92,46.39,83,40.54,84.4,31.22c1.48-9.84-4.61-18.64-13.86-20L34.92,5.83c-5.77-.86-15.77-.2-17.9,14L5.68,95.22a7.69,7.69,0,0,0-.06,1.67,17.84,17.84,0,0,0,15.26,16.64c8.24,1.24,18-3.42,19.48-13.09L43.74,78l15.34,2.3c9.63,1.45,16.17-6.71,17.44-15.11C77.72,57.16,73.42,48,64.14,46.64Z"/><path class="cls-2" d="M20,119.07A23.34,23.34,0,0,1,0,97.32a13,13,0,0,1,.1-2.93L11.48,19C13.9,2.88,25.6-1.23,35.75.3L71.37,5.65C83.73,7.51,91.89,19.1,89.94,32.05,88.75,40,84.2,46.12,78.09,49a23.43,23.43,0,0,1,4,17c-1.66,11.09-10.57,21.81-23.8,19.82l-9.8-1.47L45.9,101.27C43.93,114.37,31,120.71,20,119.07ZM34.09,11.37c-6.86-1-10.42,1.83-11.54,9.27L11.22,96.06a1.51,1.51,0,0,0,0,.43A12.15,12.15,0,0,0,21.71,108c5.58.84,12.18-2.13,13.12-8.39l4.21-28,20.87,3.13c6.77,1,10.38-5.84,11.07-10.4s-1.27-11.2-7.68-12.16L42.43,49l2-13,24,3.61c5.22.79,9.52-3,10.46-9.21,1-6.74-3-12.74-9.16-13.67Z"/><path class="cls-1" d="M64.14,46.64,48.8,44.34l.29-2,18.49,2.78C75.92,46.39,83,40.54,84.4,31.22c1.48-9.84-4.61-18.64-13.86-20L34.92,5.83c-5.77-.86-15.77-.2-17.9,14L5.68,95.22a7.69,7.69,0,0,0-.06,1.67,17.84,17.84,0,0,0,15.26,16.64c8.24,1.24,18-3.42,19.48-13.09L43.74,78l15.34,2.3c9.63,1.45,16.17-6.71,17.44-15.11C77.72,57.16,73.42,48,64.14,46.64Z"/><path class="cls-3" d="M67.82,14.18,32.21,8.82c-8.79-1.32-10.79,4.26-11.54,9.27L9.34,93.51a1.76,1.76,0,0,0,0,.4,12.17,12.17,0,0,0,10.51,11.53c5.6.84,12.2-2.33,13.12-8.38l4.2-28L58,72.2c6,.9,10.2-4.69,11.06-10.41.8-5.29-1.85-11.28-7.67-12.16L42.1,46.73a1.57,1.57,0,0,1-1.32-1.79L42.27,35a1.58,1.58,0,0,1,1.8-1.32l22.46,3.37c5.22.79,9.52-3,10.45-9.21C78,21,74.07,15.12,67.82,14.18Z"/></g></g></svg>