<svg xmlns="http://www.w3.org/2000/svg" viewBox="0 0 105.86 123.52"><defs><style>.cls-1{fill:#fff;}.cls-2{fill:#ff7817;}.cls-3{fill:#ff9f31;}</style></defs><title>char-22Asset 65</title><g id="Layer_2" data-name="Layer 2"><g id="Layer_1-2" data-name="Layer 1"><path class="cls-1" d="M84.45,14.34C76.07,13,68,16.7,64.82,23.32L48.45,51.9,41.68,19.32C39.78,11,31.9,6.86,25.73,5.88,15.86,4.31,7.37,9.68,6,18.36l-.3,1.88a7.2,7.2,0,0,0,0,2.27l0,.34a15.66,15.66,0,0,0,.64,2.84l6.23,29.94,10.44,46.54c2.78,12,10.43,14.88,14.74,15.57,6.92,1.1,16.56-2.55,20.27-10.36L98.24,38.89a7.9,7.9,0,0,0,.65-1.48l.36-1.15a19,19,0,0,0,.8-3C101.65,23.24,93.37,15.76,84.45,14.34Z"/><path class="cls-1" d="M36.91,123.27c-4.59-.73-15.66-4.12-19.31-19.83L7.15,56.85,1,27.14A20.7,20.7,0,0,1,.2,23.68l-.05-.34a13,13,0,0,1,0-4l.3-1.88C2.34,5.64,13.58-1.72,26.61.35c7.9,1.25,18,6.65,20.53,17.73L50.93,36.3l8.94-15.62C64.22,12,74.65,7.12,85.32,8.81,97,10.66,107.73,20.65,105.58,34.17a24.8,24.8,0,0,1-1,3.83l-.35,1.1a13.62,13.62,0,0,1-1.13,2.58L63,110C58.05,120.13,45.89,124.7,36.91,123.27ZM24.85,11.41C18,10.32,12.41,13.62,11.52,19.24l-.3,1.88a1.57,1.57,0,0,0,0,.49l.06.42a9.67,9.67,0,0,0,.4,1.85l.18.67L18.1,54.48l10.42,46.46c1.92,8.28,6.58,10.7,10.14,11.27,4.8.76,11.87-2,14.34-7.23l.23-.43L93.41,36.06a2.82,2.82,0,0,0,.15-.36l.35-1.12a16,16,0,0,0,.61-2.17c1.15-7.26-5.71-11.7-11-12.53-5.93-.95-11.57,1.48-13.72,5.89l-.17.33L46,67.49l-9.79-47C34.94,14.93,29.3,12.12,24.85,11.41Z"/><path class="cls-2" d="M84.45,14.34C76.07,13,68,16.7,64.82,23.32L48.45,51.9,41.68,19.32C39.78,11,31.9,6.86,25.73,5.88,15.86,4.31,7.37,9.68,6,18.36l-.3,1.88a7.2,7.2,0,0,0,0,2.27l0,.34a15.66,15.66,0,0,0,.64,2.84l6.23,29.94,10.44,46.54c2.78,12,10.43,14.88,14.74,15.57,6.92,1.1,16.56-2.55,20.27-10.36L98.24,38.89a7.9,7.9,0,0,0,.65-1.48l.36-1.15a19,19,0,0,0,.8-3C101.65,23.24,93.37,15.76,84.45,14.34Z"/><path class="cls-3" d="M81.71,17.31c-6-.95-11.72,1.59-13.79,6.05L45.62,62.3A1.15,1.15,0,0,1,43.5,62L34.35,18C33.08,12.37,27.43,9.55,23,8.85c-6.83-1.09-12.44,2.2-13.33,7.82l-.3,1.89a1.75,1.75,0,0,0,0,.56l.06.36a8.77,8.77,0,0,0,.5,2.11l6.3,30.25,10.43,46.5c1.55,6.68,5,10.48,10.15,11.3,4.9.78,12.06-2.15,14.43-7.42L91.52,33.54a1.84,1.84,0,0,0,.17-.38l.38-1.2a16.24,16.24,0,0,0,.59-2.11C93.71,23.25,87.91,18.3,81.71,17.31Z"/></g></g></svg>