<svg xmlns="http://www.w3.org/2000/svg" viewBox="0 0 110.25 129.1"><defs><style>.cls-1{fill:#fff;}.cls-2{fill:#0064e6;}.cls-3{fill:#2e89ff;}</style></defs><title>char-26Asset 69</title><g id="Layer_2" data-name="Layer 2"><g id="Layer_1-2" data-name="Layer 1"><path class="cls-1" d="M78.48,89.79,57.37,85.33,98.59,48.89a7.3,7.3,0,0,0,1.11-1.23,23.57,23.57,0,0,0,4.53-10.29c.85-4,2.18-17.47-16.44-21.4L40.33,6C30.89,4,23.47,11.17,21.75,19.3c-1.76,8.33,2.35,18,15.49,20.76l16.12,3.41L11.12,80.76c-.14.13-.28.26-.41.4l-.26.29c-.13.15-.26.3-.37.45A22.71,22.71,0,0,0,6,90.68C3.85,101,10.1,110.11,20.88,112.39l51.54,10.88.42.07a17,17,0,0,0,5.64-33.55Z"/><path class="cls-1" d="M19.72,117.87C6,115-2.26,102.78.54,89.52a28.41,28.41,0,0,1,5-10.94c.23-.31.49-.62.75-.91l.27-.3c.26-.28.54-.55.82-.8L41.3,46.64l-5.22-1.1C19.24,42,14,28.84,16.27,18.14S28.61-2.25,41.48.47L89,10.49c18.85,4,23,17.59,20.76,28a28.9,28.9,0,0,1-5.46,12.39,12.78,12.78,0,0,1-1.94,2.17L69.42,82.15l10.22,2.16A22.37,22.37,0,0,1,97,111.18c-2.1,9.9-11.52,19.47-24.86,17.71a7.93,7.93,0,0,1-.85-.14ZM39.17,11.43c-6.62-1.4-11,4.43-11.94,9-1.15,5.45,1.18,12,11.17,14.13l27,5.71L14.57,85.24a17.2,17.2,0,0,0-3.07,6.6C10,99.08,14.3,105.28,22,106.91l51.53,10.88c7.48,1,11.6-5,12.44-8.92a11.29,11.29,0,0,0-8.68-13.6l-32-6.76L94.88,44.69a2.85,2.85,0,0,0,.21-.22,18.07,18.07,0,0,0,3.66-8.26c1.13-5.33-.06-12.21-12.11-14.76Z"/><path class="cls-2" d="M78.48,89.79,57.37,85.33,98.59,48.89a7.3,7.3,0,0,0,1.11-1.23,23.57,23.57,0,0,0,4.53-10.29c.85-4,2.18-17.47-16.44-21.4L40.33,6C30.89,4,23.47,11.17,21.75,19.3c-1.76,8.33,2.35,18,15.49,20.76l16.12,3.41L11.12,80.76c-.14.13-.28.26-.41.4l-.26.29c-.13.15-.26.3-.37.45A22.71,22.71,0,0,0,6,90.68C3.85,101,10.1,110.11,20.88,112.39l51.54,10.88.42.07a17,17,0,0,0,5.64-33.55Z"/><path class="cls-3" d="M75.6,92.61,46,86.36a1.23,1.23,0,0,1-.56-2.12L93.14,42a1.82,1.82,0,0,0,.27-.29A17.92,17.92,0,0,0,97,33.56C98.15,28.23,97,21.34,84.91,18.8l-47.47-10c-6-1.27-10.79,3.6-11.94,9s1.18,12,11.17,14.13l24.64,5.2a1.22,1.22,0,0,1,.56,2.11L13.1,82.31l-.25.27a17,17,0,0,0-3.07,6.6c-1.54,7.24,2.8,13.44,10.53,15.07l51.53,10.88a11.07,11.07,0,0,0,12.44-8.92A11.3,11.3,0,0,0,75.6,92.61Z"/></g></g></svg>