<svg xmlns="http://www.w3.org/2000/svg" viewBox="0 0 116.96 125.76"><defs><style>.cls-1{fill:#36a300;}.cls-2{fill:#fff;}.cls-3{fill:#49d800;}</style></defs><title>char-4Asset 47</title><g id="Layer_2" data-name="Layer 2"><g id="Layer_1-2" data-name="Layer 1"><path class="cls-1" d="M71.27,12.92,43.08,6C37.67,4.68,30,5.75,24.27,18.38l-.22.47L6,92.41c-2.06,8.39,3.9,16.83,13.57,19.2l28,6.86c29.05,7.13,54.54-9.12,62-39.5S100.56,20.1,71.27,12.92Zm-.83,56c-2.62,10.69-10.15,16.71-19.21,15.4L45.54,83l9.3-38,9.38,2.29C70.14,50.09,72.81,59.3,70.44,69Z"/><path class="cls-2" d="M46.23,123.91l-28-6.86C5.53,113.93-2.23,102.52.57,91.07L18.74,17l.43-1C27.19-1.55,39.49-.64,44.41.56L72.6,7.48C105,15.42,123.22,46.73,115,80.31S78.48,131.82,46.23,123.91ZM29.36,20.7l-17.91,73c-1.31,5.35,2.85,10.81,9.46,12.43l28,6.86c25.85,6.34,48.56-8.21,55.22-35.39,6.71-27.37-8-52.86-34.18-59.28L41.74,11.44C39.93,11,34.4,9.64,29.36,20.7Zm20.8,69.15-11.4-2.79,12-48.83L66.1,42l.52.24C75,46.2,78.89,58,75.88,70.28c-3.3,13.45-13.53,21.33-25.45,19.61ZM59,51.76,52.31,78.84c6,.73,10.78-3.45,12.69-11.23,1.73-7,0-13.28-2.8-15.06Z"/><path class="cls-1" d="M71.27,12.92,43.08,6C37.67,4.68,30,5.75,24.27,18.38l-.22.47L6,92.41c-2.06,8.39,3.9,16.83,13.57,19.2l28,6.86c29.05,7.13,54.54-9.12,62-39.5S100.56,20.1,71.27,12.92Zm-.83,56c-2.62,10.69-10.15,16.71-19.21,15.4L45.54,83l9.3-38,9.38,2.29C70.14,50.09,72.81,59.3,70.44,69Z"/><path class="cls-3" d="M68.29,15.65,40.1,8.73C32.85,7,29.08,15,27.72,18L9.81,91c-1.31,5.35,2.84,10.81,9.46,12.43l28,6.86c25.85,6.34,48.55-8.21,55.22-35.39C109.18,47.56,94.49,22.07,68.29,15.65Zm5.95,51.92C70.9,81.18,60.56,89,48.5,87.14l-6.77-1.66a4.75,4.75,0,0,1-3.48-5.74L48,40.12a4.74,4.74,0,0,1,5.73-3.48l10.69,2.61C73.21,43,77.35,54.88,74.24,67.57Z"/></g></g></svg>