<svg xmlns="http://www.w3.org/2000/svg" viewBox="0 0 99 124.32"><defs><style>.cls-1{fill:#fff;}.cls-2{fill:#0064e6;}.cls-3{fill:#2e89ff;}</style></defs><title>char-18Asset 61</title><g id="Layer_2" data-name="Layer 2"><g id="Layer_1-2" data-name="Layer 1"><path class="cls-1" d="M86.21,91.88,73.27,74.57l7-3.17c.21-.09.4-.2.6-.31l.4-.25a4.49,4.49,0,0,0,.57-.4c6.48-5.2,10.2-13,11.38-23.83,2-18.24-11-35.24-28.3-37.13l-35-3.81c-8.41-.91-15.48,7.58-16.16,13.76L5.63,94.48a5.78,5.78,0,0,0,0,.93c.58,10.13,7,17.6,15.94,18.58,9.91,1.08,19.17-6.19,20.22-15.87l.8-7.31,12.77,19.57a16.57,16.57,0,0,0,12.59,8.23c9.94,1.09,20.28-6.67,21.3-16A14.23,14.23,0,0,0,86.21,91.88Zm-38.31-50,7.24.79c2,1,1.9,2.28,1.84,2.8a3.64,3.64,0,0,1-1.38,2.45L47.34,47Z"/><path class="cls-1" d="M20.94,119.56C9.16,118.27.76,108.7,0,95.72a10.29,10.29,0,0,1,.05-1.84L8.22,18.82C9.14,10.3,18.3-1.23,30.54.11l35,3.8C85.85,6.13,101.08,26,98.77,47.22,97.42,59.61,93,68.63,85.32,74.81a11.68,11.68,0,0,1-1.13.8l-.43.26a11.53,11.53,0,0,1-1.2.64l-.63.28,8.73,11.67a20,20,0,0,1,4.13,14.8c-1.34,12.37-14.44,22.34-27.47,20.92a22.27,22.27,0,0,1-16.71-10.8l-5.13-7.86A24.34,24.34,0,0,1,20.94,119.56ZM29.33,11.24c-5.06-.55-9.62,5.54-10,8.79L11.2,95.09c.42,7.42,4.72,12.65,11,13.33,6.89.75,13.32-4.24,14.05-10.9L38.7,74.64l21.4,32.8a11.08,11.08,0,0,0,8.44,5.61c6.81.74,14.44-4.81,15.12-11a8.76,8.76,0,0,0-1.83-6.69l-.1-.13L64.61,72.34l13.33-6,.39-.24c5.24-4.21,8.29-10.77,9.3-20.05,1.66-15.23-9-29.4-23.34-31ZM56.25,53.6,41.17,52l1.77-16.28,13.76,1.5.86.41a8.21,8.21,0,0,1,5,8.47c-.3,2.69-2.18,6.11-5.1,7.13Z"/><path class="cls-2" d="M86.21,91.88,73.27,74.57l7-3.17c.21-.09.4-.2.6-.31l.4-.25a4.49,4.49,0,0,0,.57-.4c6.48-5.2,10.2-13,11.38-23.83,2-18.24-11-35.24-28.3-37.13l-35-3.81c-8.41-.91-15.48,7.58-16.16,13.76L5.63,94.48a5.78,5.78,0,0,0,0,.93c.58,10.13,7,17.6,15.94,18.58,9.91,1.08,19.17-6.19,20.22-15.87l.8-7.31,12.77,19.57a16.57,16.57,0,0,0,12.59,8.23c9.94,1.09,20.28-6.67,21.3-16A14.23,14.23,0,0,0,86.21,91.88Zm-38.31-50,7.24.79c2,1,1.9,2.28,1.84,2.8a3.64,3.64,0,0,1-1.38,2.45L47.34,47Z"/><path class="cls-3" d="M64.12,69.19,76,63.83l.38-.23c5.26-4.22,8.31-10.78,9.32-20.06,1.66-15.23-9-29.4-23.34-31l-35-3.81c-4.75-.52-9.58,5.12-10,8.79L9.22,92.62c.42,7.42,4.72,12.65,11,13.33,6.89.75,13.33-4.24,14-10.9L36,78.46a2.26,2.26,0,0,1,4.14-1l17.91,27.44a11.07,11.07,0,0,0,8.47,5.67c6.82.74,14.45-4.81,15.12-11a8.78,8.78,0,0,0-1.87-6.75L63.61,71.18A1.31,1.31,0,0,1,64.12,69.19ZM60.56,43.58C60.14,47.43,56.94,51.42,53,51L41.43,49.73a2.26,2.26,0,0,1-2-2.5l1.28-11.77a2.26,2.26,0,0,1,2.5-2l11.36,1.24C58.76,36.26,61,39.57,60.56,43.58Z"/></g></g></svg>