<svg xmlns="http://www.w3.org/2000/svg" viewBox="0 0 73.78 126.46"><defs><style>.cls-1{fill:#fff;}.cls-2{fill:#0064e6;}.cls-3{fill:#2e89ff;}</style></defs><title>char-10Asset 53</title><g id="Layer_2" data-name="Layer 2"><g id="Layer_1-2" data-name="Layer 1"><path class="cls-1" d="M47.29,18A18.17,18.17,0,1,0,12.81,29.51l.09.27c0,.08,0,.17.08.26l17.6,52.87a4.17,4.17,0,0,1,.28,1.74c-.81.26-1.39.16-3.26-.35-2.44-.65-5.78-1.55-9.85-.2C7.56,87.49,3.68,98.69,6.45,107c3.48,10.47,16.87,17.78,35.71,11.51C62.61,111.72,72.58,94,66.4,75.45L47.47,18.56c0-.08-.06-.17-.1-.26A2,2,0,0,0,47.29,18Z"/><path class="cls-1" d="M43.93,123.84c-22.33,7.43-38.43-2-42.8-15.06C-2.49,97.89,2.61,83.24,16,78.78a19.38,19.38,0,0,1,7-1l-15.31-46-.09-.27-.09-.26a23.78,23.78,0,0,1,45.12-15l.08.26.09.27L71.71,73.68C78.82,95,67.13,116.11,43.93,123.84ZM19.52,89.41c-7,2.34-9.68,10.07-7.76,15.83,2.61,7.83,13.28,13.08,28.63,8,17.6-5.86,25.91-20.32,20.7-36L42,19.8a12.57,12.57,0,0,0-23.86,8l.1.25.08.27L35.89,81.14a9.69,9.69,0,0,1,.54,4.1l-.38,3.6L32.61,90c-2.5.81-4.43.29-6.47-.26S22,88.59,19.52,89.41Z"/><path class="cls-2" d="M47.29,18A18.17,18.17,0,1,0,12.81,29.51l.09.27c0,.08,0,.17.08.26l17.6,52.87a4.17,4.17,0,0,1,.28,1.74c-.81.26-1.39.16-3.26-.35-2.44-.65-5.78-1.55-9.85-.2C7.56,87.49,3.68,98.69,6.45,107c3.48,10.47,16.87,17.78,35.71,11.51C62.61,111.72,72.58,94,66.4,75.45L47.47,18.56c0-.08-.06-.17-.1-.26A2,2,0,0,0,47.29,18Z"/><path class="cls-3" d="M39.15,18.39a12.57,12.57,0,0,0-23.86,7.94c0,.1.09.18.13.28s0,.16,0,.25l17.6,52.86c1.43,4.3.19,7.67-3.24,8.82-2.51.83-4.46.31-6.52-.25s-4.15-1.12-6.61-.3C9.77,90.3,7.05,98.18,8.93,103.83c2.6,7.82,13.27,13.07,28.63,8,17.59-5.85,25.91-20.32,20.69-36L39.32,18.92c0-.1-.08-.17-.11-.26S39.18,18.48,39.15,18.39Z"/></g></g></svg>