<svg xmlns="http://www.w3.org/2000/svg" viewBox="0 0 98.6 123.95"><defs><style>.cls-1{fill:#fff;}.cls-2{fill:#00aade;}.cls-3{fill:#2eddff;}</style></defs><title>char-19Asset 62</title><g id="Layer_2" data-name="Layer 2"><g id="Layer_1-2" data-name="Layer 1"><path class="cls-1" d="M59.43,42.75a16.68,16.68,0,0,0,2.93-.34A17.47,17.47,0,0,0,75.2,31.94a16.62,16.62,0,0,0-5.46-20.66c-6.3-5.11-17.26-7-28-4.74l-2.91.6C16.15,11.84,2.18,30.53,6.34,50.61l.35,1.66c3,14.31,14.36,23.48,31.25,25.15l11.37,1.13.33,0c3.93.16,5.6.8,6.17,1.1l0,.42c-.13.53-.66,1.33-3.26,1.87a16.21,16.21,0,0,1-4.29.27h-.15L40.21,82c-.2,0-.75-.17-1.18-.28l-2.85-.75-.32-.08A19.27,19.27,0,0,0,28,81c-7.53,1.56-14.21,9.52-11.79,21.21,3.22,15.51,24.44,18.47,42.81,14.67l2.07-.43c22.57-4.68,35.61-24.2,31-46.41C88.3,51.9,77.2,45.31,59.43,42.75Zm-9.52-1-2-.13h-.31A18.76,18.76,0,0,1,49.91,41.77Z"/><path class="cls-1" d="M62.19,121.94l-2.08.43c-21,4.36-45.43.26-49.42-19-2.45-11.82,2.47-20.78,9.55-25.19A35.22,35.22,0,0,1,1.2,53.4L.86,51.74C-3.95,28.54,11.88,7,37.69,1.66l2.9-.6C53-1.52,65.45.69,73.12,6.81a22.18,22.18,0,0,1,7.21,27.36,22.34,22.34,0,0,1-4.52,7C85.74,45.21,94.24,53,97.54,68.92,102.81,94.3,87.94,116.6,62.19,121.94ZM29.09,86.49c-4,.84-9.34,5.41-7.43,14.6,2.32,11.21,20,13.68,36.18,10.31l2.07-.43c19.4-4,30.61-20.75,26.67-39.78C83.64,57,76.06,50.8,58.64,48.3l.6-11.14a12.35,12.35,0,0,0,2-.23A11.93,11.93,0,0,0,70,29.85l.12-.28A11,11,0,0,0,66.5,15.84l-.29-.21c-5-4-14.34-5.47-23.35-3.61l-2.9.61c-19.55,4-31.65,19.89-28.13,36.84l.34,1.66C14.64,63.05,24,70.41,38.49,71.84L49.87,73c3.76.15,6.63.73,8.53,1.72L61,76.08l.5,4.33-.22.94c-.73,3.15-3.28,5.2-7.57,6.09a21.78,21.78,0,0,1-5.77.38l-8.44-.31a14.93,14.93,0,0,1-1.91-.42l-2.87-.76A14,14,0,0,0,29.09,86.49ZM49.52,47.36l-1.82-.12-.36,0L47.61,36a27.28,27.28,0,0,1,3,.19Z"/><path class="cls-2" d="M59.43,42.75a16.68,16.68,0,0,0,2.93-.34A17.47,17.47,0,0,0,75.2,31.94a16.62,16.62,0,0,0-5.46-20.66c-6.3-5.11-17.26-7-28-4.74l-2.91.6C16.15,11.84,2.18,30.53,6.34,50.61l.35,1.66c3,14.31,14.36,23.48,31.25,25.15l11.37,1.13.33,0c3.93.16,5.6.8,6.17,1.1l0,.42c-.13.53-.66,1.33-3.26,1.87a16.21,16.21,0,0,1-4.29.27h-.15L40.21,82c-.2,0-.75-.17-1.18-.28l-2.85-.75-.32-.08A19.27,19.27,0,0,0,28,81c-7.53,1.56-14.21,9.52-11.79,21.21,3.22,15.51,24.44,18.47,42.81,14.67l2.07-.43c22.57-4.68,35.61-24.2,31-46.41C88.3,51.9,77.2,45.31,59.43,42.75Zm-9.52-1-2-.13h-.31A18.76,18.76,0,0,1,49.91,41.77Z"/><path class="cls-3" d="M44.93,45.49c-.91,0-1.83-.11-2.74-.19h0s-3.65.29-6.14-1.23c-.15-.07-.31-.1-.46-.18a1.94,1.94,0,0,1-1-1.19,4.38,4.38,0,0,1-.72-1.82c-.76-5.11,7.82-7.74,15.93-6.12h0l1.53.2a21.59,21.59,0,0,0,7.27.22A11.83,11.83,0,0,0,67.41,28,11,11,0,0,0,63.7,14c-5.09-4.25-14.84-5.51-23.49-3.71l-2.9.6c-19.55,4-31.65,19.89-28.13,36.84l.34,1.66C12,61.31,21.34,68.67,35.85,70.11l11.37,1.13c9.33.38,11,3.26,11.41,5.22l.21,1.85c-.24,4.83-4.35,6.69-7.75,7.39a21.74,21.74,0,0,1-5.77.38l-8-.27A11.36,11.36,0,0,1,35,85.34l-2.85-.75a14,14,0,0,0-5.66.16c-4.86,1-9.12,6.47-7.43,14.6,2.32,11.21,20,13.68,36.18,10.31l2.08-.42c19.39-4,30.6-20.76,26.66-39.79C80.5,52.89,71,47.07,44.93,45.49Z"/></g></g></svg>