<svg xmlns="http://www.w3.org/2000/svg" viewBox="0 0 57.42 122.32"><defs><style>.cls-1{fill:#a426de;}.cls-2{fill:#fff;}.cls-3{fill:#d069ff;}</style></defs><title>char-9Asset 52</title><g id="Layer_2" data-name="Layer 2"><g id="Layer_1-2" data-name="Layer 1"><path class="cls-1" d="M36.7,5.78a17.66,17.66,0,0,0-20,15L5.78,96.55a17.65,17.65,0,0,0,34.93,5L51.64,25.76A17.66,17.66,0,0,0,36.7,5.78Z"/><path class="cls-2" d="M19.93,122.08A23.27,23.27,0,0,1,.24,95.75L11.17,19.93a23.24,23.24,0,1,1,46,6.63L46.25,102.39A23.27,23.27,0,0,1,19.93,122.08Zm16-110.75a12.05,12.05,0,0,0-13.64,10.2L11.33,97.35a12,12,0,0,0,23.84,3.44L46.1,25A12,12,0,0,0,35.9,11.33Z"/><path class="cls-1" d="M36.7,5.78a17.66,17.66,0,0,0-20,15L5.78,96.55a17.65,17.65,0,0,0,34.93,5L51.64,25.76A17.66,17.66,0,0,0,36.7,5.78Z"/><path class="cls-3" d="M19.63,108.45h0A12,12,0,0,1,9.43,94.81L20.36,19A12,12,0,0,1,34,8.79h0A12,12,0,0,1,44.2,22.43L33.27,98.25A12,12,0,0,1,19.63,108.45Z"/></g></g></svg>