<svg xmlns="http://www.w3.org/2000/svg" viewBox="0 0 123.71 125.23"><defs><style>.cls-1{fill:#fff;}.cls-2{fill:#a426de;}.cls-3{fill:#d069ff;}</style></defs><title>char-17Asset 60</title><g id="Layer_2" data-name="Layer 2"><g id="Layer_1-2" data-name="Layer 1"><path class="cls-1" d="M109,45.16c-5-15.35-14.08-27-26.19-33.62s-26.42-7.75-41-3c-15,4.89-25.92,14.3-31.7,27.2-5.7,12.73-5.93,28-.64,44.13l.95,2.25c9.91,29.91,37.31,44.08,66.72,34.46A54.29,54.29,0,0,0,93.57,108l2.07,1.28a14.73,14.73,0,0,0,15.49-25.07l-.66-.41c3.59-11.28,3.31-23.82-.87-36.58ZM61.75,71A14.77,14.77,0,0,0,60.57,84.1c-4.79,0-11.11-2.75-15.4-15.86a9.51,9.51,0,0,0-.88-1.87l-.4-.68c-3.48-11.21.17-21,9-23.86l1.61-.52c3.15-1,12.73-4.17,19.79,17.42A35.72,35.72,0,0,1,75.56,64,14.78,14.78,0,0,0,61.75,71Z"/><path class="cls-1" d="M109.71,116a20.27,20.27,0,0,1-15.86-1.36,60.61,60.61,0,0,1-15,7.27c-32.43,10.61-62.7-4.93-73.7-37.8l-1-2.49c-5.72-17.49-5.42-34.14.86-48.16C11.39,19.09,23.51,8.63,40,3.24,56.11-2,71.82-.85,85.45,6.63,98.84,14,108.8,26.7,114.27,43.42l.66,2c4,12.35,4.7,24.74,2,36.08a20.33,20.33,0,0,1-7.2,34.5Zm-16.5-14.87,5.38,3.33a9.13,9.13,0,1,0,9.59-15.54l-4.37-2.71,1.32-4.16c3.23-10.13,2.93-21.59-.85-33.15l-.66-2c-4.57-14-12.71-24.5-23.56-30.45S56.57,9.61,43.49,13.88C30.08,18.27,20.28,26.63,15.16,38.05s-5.27,25.16-.5,39.87l1,2.46c9,27.2,33,39.62,59.66,30.9a49,49,0,0,0,14.8-7.76ZM68.79,89.72l-8.23,0C54,89.67,45.16,86.24,39.85,70a3.92,3.92,0,0,0-.39-.76L39,68.43l-.29-.52-.18-.57c-4.43-14.28.74-27,12.57-30.83L52.72,36C61,33.29,72.3,34.75,79.57,57a39.75,39.75,0,0,1,1.51,6.16l1.15,7.08-7.15-.61a9.1,9.1,0,0,0-8.56,4.3h0a9.07,9.07,0,0,0-.73,8.14ZM49.07,63.46a.05.05,0,0,1,0,0,14.12,14.12,0,0,1,1.4,3,29.85,29.85,0,0,0,3.89,8.15A20.17,20.17,0,0,1,57,68h0A20.28,20.28,0,0,1,68.5,59.21c-3.17-9.09-6.38-11.82-8.06-12.64-1.51-.73-2.76-.42-4.24.06l-1.61.53C48.14,49.27,47.17,56.76,49.07,63.46Z"/><path class="cls-2" d="M109,45.16c-5-15.35-14.08-27-26.19-33.62s-26.42-7.75-41-3c-15,4.89-25.92,14.3-31.7,27.2-5.7,12.73-5.93,28-.64,44.13l.95,2.25c9.91,29.91,37.31,44.08,66.72,34.46A54.29,54.29,0,0,0,93.57,108l2.07,1.28a14.73,14.73,0,0,0,15.49-25.07l-.66-.41c3.59-11.28,3.31-23.82-.87-36.58ZM61.75,71A14.77,14.77,0,0,0,60.57,84.1c-4.79,0-11.11-2.75-15.4-15.86a9.51,9.51,0,0,0-.88-1.87l-.4-.68c-3.48-11.21.17-21,9-23.86l1.61-.52c3.15-1,12.73-4.17,19.79,17.42A35.72,35.72,0,0,1,75.56,64,14.78,14.78,0,0,0,61.75,71Z"/><path class="cls-3" d="M100.8,45.47C91.49,17,67.32,3.73,40.66,12.45,13.34,21.38,2,46.55,11.9,76.71l.87,2c8.82,27,33.38,39.75,59.74,31.14A48.27,48.27,0,0,0,90.24,99.62L95.76,103a9.13,9.13,0,0,0,9.6-15.54l-4.56-2.81c4.58-10.75,5.08-23.68.66-37.2Zm-24.54,24a9.13,9.13,0,1,0-9.6,15.54l1.19.73A22.34,22.34,0,0,1,65,87c-12.8,4.19-22.75-2.34-28-18.4a3.59,3.59,0,0,0-.38-.76c-.18-.31-.46-.79-.75-1.32-4.68-14.31.54-27.52,12.4-31.39l1.6-.53c14.93-4.88,22.84,8.73,26.86,21a33.69,33.69,0,0,1,1.67,15.29Z"/></g></g></svg>