<svg xmlns="http://www.w3.org/2000/svg" viewBox="0 0 108.51 123.35"><defs><style>.cls-1{fill:#00aade;}.cls-2{fill:#fff;}.cls-3{fill:#2eddff;}</style></defs><title>char-3Asset 46</title><g id="Layer_2" data-name="Layer 2"><g id="Layer_1-2" data-name="Layer 1"><path class="cls-1" d="M82,73.16C78.33,74,74.75,75.92,71,78c-2.67,1.46-5.7,3.12-7.48,3.5-3.64.79-14.74,3.19-19.77-20-1.92-8.85,3.06-17.18,11.32-19A35,35,0,0,1,63.91,42l7.42.22h.56c.46,0,.85-.05,1.25-.07a16.3,16.3,0,0,0,2.78-.3A15.66,15.66,0,0,0,87.38,23l-.27-1.24c-2.4-11.1-16-19.89-41-14.48C17.55,13.42.4,42.25,7,72.88c3.35,15.48,11,27.86,22.09,35.8s24.93,10.81,39.63,8l9-1.72.57-.12C85,113.39,94.44,108,99.36,100.62A19.11,19.11,0,0,0,102.5,85.8C100.52,76.66,91.53,71.1,82,73.16Z"/><path class="cls-2" d="M79.46,120.32l-.7.15-9,1.72c-16.25,3.09-31.44,0-43.95-9C13.61,104.47,5.21,90.92,1.55,74.06-5.74,40.37,13.3,8.61,44.91,1.77,73.68-4.46,89.59,6.71,92.58,20.54l.27,1.24A21.27,21.27,0,0,1,77.1,47.35a21.65,21.65,0,0,1-3.71.41l-1.1.06-1.13,0-7.42-.22a30.7,30.7,0,0,0-7.53.34c-5.2,1.13-8.29,6.53-7,12.32C53,78.05,59.51,76.64,62.29,76a45.86,45.86,0,0,0,6-2.94c4-2.19,8.11-4.44,12.6-5.42C93.42,65,105.33,72.4,108,84.62a24.61,24.61,0,0,1-4,19.1C98,112.77,87.07,118.67,79.46,120.32ZM47.28,12.72c-25.47,5.51-40.75,31.42-34.78,59,3.05,14.1,9.93,25.31,19.88,32.44s22.17,9.56,35.32,7.06l9.39-1.81c5.51-1.2,13.55-5.76,17.6-11.86A13.46,13.46,0,0,0,97,87c-1.32-6.08-7.38-9.75-13.8-8.36-2.92.63-6.16,2.41-9.59,4.28C69.88,85,67,86.47,64.66,87c-13.23,2.87-22.37-5.54-26.44-24.32C35.64,50.74,42.5,39.48,53.84,37a40.52,40.52,0,0,1,10.25-.59l7.55.21,1.19-.06a12.38,12.38,0,0,0,1.9-.18,10.08,10.08,0,0,0,7.18-12.25l-.27-1.24C79.82,14.52,68.49,8.12,47.28,12.72Z"/><path class="cls-1" d="M82,73.16C78.33,74,74.75,75.92,71,78c-2.67,1.46-5.7,3.12-7.48,3.5-3.64.79-14.74,3.19-19.77-20-1.92-8.85,3.06-17.18,11.32-19A35,35,0,0,1,63.91,42l7.42.22h.56c.46,0,.85-.05,1.25-.07a16.3,16.3,0,0,0,2.78-.3A15.66,15.66,0,0,0,87.38,23l-.27-1.24c-2.4-11.1-16-19.89-41-14.48C17.55,13.42.4,42.25,7,72.88c3.35,15.48,11,27.86,22.09,35.8s24.93,10.81,39.63,8l9-1.72.57-.12C85,113.39,94.44,108,99.36,100.62A19.11,19.11,0,0,0,102.5,85.8C100.52,76.66,91.53,71.1,82,73.16Z"/><path class="cls-3" d="M80.56,76.91c-2.92.64-6.16,2.41-9.59,4.29-3.15,1.73-6.4,3.51-9,4.07C45.28,88.89,38.39,74,35.56,60.94,33,49,39.84,37.76,51.18,35.31a39.44,39.44,0,0,1,10.23-.59l7.42.21,1.41-.07a12.05,12.05,0,0,0,1.83-.18c4.51-1,8.54-5.93,7.17-12.25L79,21.19C77.16,12.81,65.83,6.41,44.61,11,19.15,16.52,3.87,42.42,9.84,70c6.22,28.73,28.4,44.6,55.19,39.49L74,107.75l.45-.09c5.67-1.23,13.65-5.9,17.61-11.85a13.64,13.64,0,0,0,2.34-10.54C93,79.09,87.09,75.5,80.56,76.91Z"/></g></g></svg>