<svg xmlns="http://www.w3.org/2000/svg" viewBox="0 0 144.86 135.02"><defs><style>.cls-1{fill:#fff;}.cls-2{fill:#96130b;}.cls-3{fill:#ff2114;}</style></defs><title>char-23Asset 66</title><g id="Layer_2" data-name="Layer 2"><g id="Layer_1-2" data-name="Layer 1"><path class="cls-1" d="M131.69,9A19.33,19.33,0,0,0,117.33,5.9a17.77,17.77,0,0,0-14.64,17.78l-.77,23.82L93.67,31.13C88.11,18.8,79.17,12.48,69.75,14.21,60.91,15.83,53.89,25.54,53,37.32L50.46,58.06,41,35.42c-2.64-8.85-11.64-12.07-19.3-10.67C13,26.36,4.11,35.4,5.81,44.64l.27,1.46a7.71,7.71,0,0,0,.53,1.71l31.54,69.64.06.13A20.53,20.53,0,0,0,60.89,129c9.78-1.8,17.68-9.72,18.77-18.78L82.8,85.72l13,23.59c3.56,7.2,12.5,11,21.82,9.32,10.23-1.88,17.63-9.8,18-19.21l3.72-77.14V22l-.12-1.33A17.89,17.89,0,0,0,131.69,9Z"/><path class="cls-1" d="M118.58,124.14c-11.69,2.15-23.1-2.88-27.79-12.23l-4.62-8.41-1,7.47C83.84,122.38,74,132.32,61.9,134.54A26,26,0,0,1,33.17,120l-.09-.18L1.51,50.12a12.71,12.71,0,0,1-.94-3L.3,45.65C-2,33.1,9.17,21.36,20.7,19.24c10-1.83,21.9,2.5,25.58,14.28l1.19,2.85C48.72,22.12,57.41,10.78,68.74,8.7c11.12-2,21.49,4.13,28.29,16.62l.06-1.7A23.37,23.37,0,0,1,116.32.4a24.91,24.91,0,0,1,18.56,4,23.44,23.44,0,0,1,9.79,15.22l.07.48.12,2.44-3.72,77.14C140.69,111.71,131.41,121.78,118.58,124.14ZM79.43,68l21.34,38.88c2.45,5,8.94,7.55,15.79,6.29,7.63-1.4,13.14-7.12,13.39-13.91l3.72-77.13-.06-.67a12.39,12.39,0,0,0-5.1-7.79h0a13.72,13.72,0,0,0-10.17-2.21,12.21,12.21,0,0,0-10,12.19v.26l-1.48,45.8L88.57,33.43c-4.43-9.82-11.09-14.94-17.81-13.71-6.26,1.15-11.48,8.89-12.16,18l0,.27L53.44,79.72,35.64,37c-1.77-6-7.94-7.68-12.91-6.76-6,1.11-12.49,7.49-11.41,13.37l.27,1.46a1.61,1.61,0,0,0,.12.39l31.56,69.71a14.86,14.86,0,0,0,16.61,8.34c7.31-1.35,13.42-7.34,14.21-13.94Z"/><path class="cls-2" d="M131.69,9A19.33,19.33,0,0,0,117.33,5.9a17.77,17.77,0,0,0-14.64,17.78l-.77,23.82L93.67,31.13C88.11,18.8,79.17,12.48,69.75,14.21,60.91,15.83,53.89,25.54,53,37.32L50.46,58.06,41,35.42c-2.64-8.85-11.64-12.07-19.3-10.67C13,26.36,4.11,35.4,5.81,44.64l.27,1.46a7.71,7.71,0,0,0,.53,1.71l31.54,69.64.06.13A20.53,20.53,0,0,0,60.89,129c9.78-1.8,17.68-9.72,18.77-18.78L82.8,85.72l13,23.59c3.56,7.2,12.5,11,21.82,9.32,10.23-1.88,17.63-9.8,18-19.21l3.72-77.14V22l-.12-1.33A17.89,17.89,0,0,0,131.69,9Z"/><path class="cls-3" d="M115.73,9.61a12.25,12.25,0,0,0-10,12.31L104.4,61.64a1.58,1.58,0,0,1-3,.66L86,31.74C81.57,21.85,74.9,16.68,68.15,17.92c-6.3,1.16-11.53,9-12.17,18.14L51.56,72a1.58,1.58,0,0,1-3,.41L33.11,35.48c-1.68-6.15-7.91-7.95-13-7-5.91,1.08-12.47,7.6-11.41,13.37L9,43.29a2,2,0,0,0,.13.41l31.53,69.64a15,15,0,0,0,16.63,8.39c7.43-1.36,13.42-7.25,14.22-14L76.2,71a1.59,1.59,0,0,1,3-.56l19,34.53c2.41,5,8.92,7.65,15.83,6.39,7.63-1.41,13.14-7.16,13.4-14l3.72-77.14,0-.38C129.63,12.05,122,8.47,115.73,9.61Z"/></g></g></svg>