<svg xmlns="http://www.w3.org/2000/svg" viewBox="0 0 97.16 123.83"><defs><style>.cls-1{fill:#fff;}.cls-2{fill:#d11d5b;}.cls-3{fill:#ff4f8c;}</style></defs><title>char-16Asset 59</title><g id="Layer_2" data-name="Layer 2"><g id="Layer_1-2" data-name="Layer 1"><path class="cls-1" d="M48.06,6,19.27,9.63c-8,1-14.57,9.4-13.57,17.26l9.58,75.66c1.31,10.32,9.93,16.85,20.5,15.51,8.6-1.09,17-9,15.69-19L49.69,84.91l12.23-1.55C81.74,80.84,94,62.42,91.13,39.56,88.27,16.94,70.55,3.13,48.06,6Zm6.49,39.07c.17,1.29-.06,4.75-3,5.12L45.38,51,44.09,40.77,50.23,40C52.9,39.65,54.23,42.5,54.55,45.05Z"/><path class="cls-1" d="M36.48,123.61c-13.56,1.72-25.06-7-26.75-20.36L.14,27.59C-1.24,16.68,7.54,5.47,18.56,4.07L47.35.43C73.12-2.84,93.41,13,96.69,38.85,100,64.94,85.67,86,62.62,88.91l-6.68.85L57,98.33C58.72,111.68,47.77,122.18,36.48,123.61ZM20,15.18c-4.93.63-9.33,6.18-8.71,11l9.58,75.66c.92,7.22,6.77,11.6,14.24,10.65,5.8-.73,11.68-6.16,10.84-12.76L43.43,80.05,61.22,77.8c16.6-2.1,26.84-17.89,24.36-37.54S68.29,9.06,48.76,11.54ZM52.23,55.73l-11.7,1.48-2.7-21.29,11.7-1.48c5.4-.69,9.75,3.39,10.58,9.9C60.73,49.3,58.19,55,52.23,55.73Z"/><path class="cls-2" d="M48.06,6,19.27,9.63c-8,1-14.57,9.4-13.57,17.26l9.58,75.66c1.31,10.32,9.93,16.85,20.5,15.51,8.6-1.09,17-9,15.69-19L49.69,84.91l12.23-1.55C81.74,80.84,94,62.42,91.13,39.56,88.27,16.94,70.55,3.13,48.06,6Zm6.49,39.07c.17,1.29-.06,4.75-3,5.12L45.38,51,44.09,40.77,50.23,40C52.9,39.65,54.23,42.5,54.55,45.05Z"/><path class="cls-3" d="M46.26,9.6,17.47,13.24c-4.84.62-9.32,6.27-8.72,11l9.59,75.66c.92,7.33,6.65,11.61,14.23,10.65,5.8-.73,11.68-6.16,10.84-12.77L40.92,78.11l17.79-2.25C75.32,73.76,85.56,58,83.07,38.32S65.79,7.12,46.26,9.6ZM57.6,42.4c.63,5-1.92,10.63-7.88,11.39L39.53,55.08a1.51,1.51,0,0,1-1.69-1.32L35.52,35.48a1.5,1.5,0,0,1,1.31-1.69L47,32.5C52.43,31.81,56.78,35.88,57.6,42.4Z"/></g></g></svg>