<svg xmlns="http://www.w3.org/2000/svg" viewBox="0 0 108.59 121.56"><defs><style>.cls-1{fill:#fff;}.cls-2{fill:#36a300;}.cls-3{fill:#49d800;}</style></defs><title>char-20Asset 63</title><g id="Layer_2" data-name="Layer 2"><g id="Layer_1-2" data-name="Layer 1"><path class="cls-1" d="M100,22.61a16.74,16.74,0,0,0-11.14-7L25.42,5.81c-9.1-1.4-17.65,4.28-19.46,13A16.51,16.51,0,0,0,8.57,31.65a16.74,16.74,0,0,0,11.14,7l14.5,2.24L25.4,97.8c-1.55,10,6.36,16.59,15,17.92,10.29,1.59,18.88-4.54,20.43-14.59L69.29,46.3l13.88,2.15c9.1,1.41,17.65-4.28,19.46-12.94A16.52,16.52,0,0,0,100,22.61Z"/><path class="cls-1" d="M39.52,121.25c-11.09-1.71-21.74-10.82-19.65-24.31l8-51.39-9-1.39A22.26,22.26,0,0,1,.48,17.61C2.9,6,14.23-1.58,26.28.28L89.73,10.1a22.32,22.32,0,0,1,14.89,9.32h0a22.08,22.08,0,0,1,3.49,17.23C105.69,48.23,94.36,55.85,82.31,54L74,52.69,66.34,102C64.32,115,52.79,123.31,39.52,121.25Zm-15-109.9c-6.16-.95-11.93,2.8-13.12,8.55a11,11,0,0,0,1.72,8.56,11.08,11.08,0,0,0,7.4,4.63l20,3.1L30.94,98.65c-1.19,7.68,6.21,10.9,10.29,11.53,7.19,1.12,13-3,14-9.9l9.34-60.37,19.41,3c6.16,1,11.93-2.8,13.12-8.55a11,11,0,0,0-1.72-8.56A11.11,11.11,0,0,0,88,21.17Z"/><path class="cls-2" d="M100,22.61a16.74,16.74,0,0,0-11.14-7L25.42,5.81c-9.1-1.4-17.65,4.28-19.46,13A16.51,16.51,0,0,0,8.57,31.65a16.74,16.74,0,0,0,11.14,7l14.5,2.24L25.4,97.8c-1.55,10,6.36,16.59,15,17.92,10.29,1.59,18.88-4.54,20.43-14.59L69.29,46.3l13.88,2.15c9.1,1.41,17.65-4.28,19.46-12.94A16.52,16.52,0,0,0,100,22.61Z"/><path class="cls-3" d="M86.15,18.61,22.7,8.79c-5.92-.91-11.9,2.7-13.13,8.55a11.06,11.06,0,0,0,9.13,13.2l19,2.94a1,1,0,0,1,.85,1.17L29.07,96.1c-1,6.66,4.61,10.65,10.29,11.53,7.3,1.13,13-2.85,14-9.91l9.18-59.35a1,1,0,0,1,1.17-.86l18.4,2.85c5.92.91,11.9-2.7,13.12-8.55A11,11,0,0,0,86.15,18.61Z"/></g></g></svg>