<svg xmlns="http://www.w3.org/2000/svg" viewBox="0 0 115.74 131.31"><defs><style>.cls-1{fill:#fff;}.cls-2{fill:#d11d5b;}.cls-3{fill:#ff4f8c;}</style></defs><title>char-24Asset 67</title><g id="Layer_2" data-name="Layer 2"><g id="Layer_1-2" data-name="Layer 1"><path class="cls-1" d="M96,96.83,81.69,66.66l22.9-19a8.32,8.32,0,0,0,1.07-1.07,20.81,20.81,0,0,0,4.07-9.14C112,27,104.29,17.86,95.62,16c-5-1.09-10.72.18-13.89,3.05L67.14,31.77l-8.07-17.5c-1-2.53-3.64-6.69-10.72-8.25-9-2-20.09,2.81-22.33,13.06-.75,3.4.2,8.86,1,11.71a8,8,0,0,0,.5,1.29l12,24.4L14.16,78.76c-5.58,4.31-7.5,10.77-8.07,13.37-2.12,9.65,3,18.4,12,20.36,5,1.1,11.19-.32,16.57-3.8a5.15,5.15,0,0,0,.7-.53l18.9-16.93,11.14,25.18c.8,2.84,3.27,7.18,10.84,8.84,10,2.19,20-3.53,22-12.48C99.32,107.63,98.61,102.43,96,96.83Z"/><path class="cls-1" d="M75,130.72c-10.22-2.24-13.71-8.54-14.91-12.37l-7.87-17.81L39.05,112.33a10.18,10.18,0,0,1-1.4,1.07c-6.59,4.27-14.37,6-20.79,4.56-12.06-2.64-19-14.26-16.24-27,.69-3.16,3-11.05,10-16.49l22-19.34L22.51,34.55a13.62,13.62,0,0,1-.85-2.2c-.91-3.14-2.16-9.71-1.11-14.47C23.51,4.36,37.94-2,49.55.55c9.55,2.1,13.28,8,14.67,11.52l4.87,10.55,9-7.83c4.47-4,12-5.78,18.78-4.3,11.32,2.48,21.4,14.38,18.38,28.15A26.3,26.3,0,0,1,110,50.18a13.77,13.77,0,0,1-1.8,1.78L88.61,68.19l12.46,26.27c3.15,6.75,4,13.13,2.59,19.51C101.05,125.89,87.93,133.56,75,130.72ZM56.23,81.92l14.41,32.59.11.39c.68,2.42,2.92,4.06,6.65,4.88,6.87,1.51,14-2.33,15.32-8.21.87-3.94.3-7.87-1.79-12.36L74.77,65.13,101,43.34a2.41,2.41,0,0,0,.36-.35,15.6,15.6,0,0,0,2.89-6.75c1.56-7.11-3.93-13.52-9.84-14.81-3.53-.78-7.32.27-8.94,1.74L65.19,40.91,53.84,16.29c-.64-1.66-2.32-3.84-6.69-4.8C41,10.13,33,13.41,31.49,20.28c-.43,1.94.13,6.2.93,9a1.81,1.81,0,0,0,.16.41L46.42,57.86,17.58,83.19c-4.13,3.19-5.59,8.16-6,10.14-1.46,6.64,1.78,12.4,7.7,13.69,3.51.78,8.23-.39,12.32-3Z"/><path class="cls-2" d="M96,96.83,81.69,66.66l22.9-19a8.32,8.32,0,0,0,1.07-1.07,20.81,20.81,0,0,0,4.07-9.14C112,27,104.29,17.86,95.62,16c-5-1.09-10.72.18-13.89,3.05L67.14,31.77l-8.07-17.5c-1-2.53-3.64-6.69-10.72-8.25-9-2-20.09,2.81-22.33,13.06-.75,3.4.2,8.86,1,11.71a8,8,0,0,0,.5,1.29l12,24.4L14.16,78.76c-5.58,4.31-7.5,10.77-8.07,13.37-2.12,9.65,3,18.4,12,20.36,5,1.1,11.19-.32,16.57-3.8a5.15,5.15,0,0,0,.7-.53l18.9-16.93,11.14,25.18c.8,2.84,3.27,7.18,10.84,8.84,10,2.19,20-3.53,22-12.48C99.32,107.63,98.61,102.43,96,96.83Z"/><path class="cls-3" d="M74.38,61.36,99.31,40.67a2.89,2.89,0,0,0,.35-.35,15.48,15.48,0,0,0,2.89-6.75c1.59-7.22-3.81-13.49-9.84-14.81-3.22-.71-7.09.07-9,1.8l-18,15.74a2.22,2.22,0,0,1-3.47-.74L52.19,13.76c-.61-1.71-2.28-3.95-6.75-4.94-6.33-1.39-14.13,1.81-15.66,8.79-.41,1.87.09,6.06.93,9a2.62,2.62,0,0,0,.15.39L44,53.68a2.2,2.2,0,0,1-.52,2.63L16,80.42c-4.34,3.28-5.81,8.67-6.15,10.24-1.46,6.64,1.78,12.4,7.7,13.7,3.5.77,8.14-.33,12.32-3l22.38-20a2.22,2.22,0,0,1,3.5.75L69,111.91c.39,1.84,1.9,4.14,6.72,5.2,6.88,1.51,14-2.33,15.33-8.21.86-4,.29-7.87-1.79-12.34L73.79,64A2.22,2.22,0,0,1,74.38,61.36Z"/></g></g></svg>