<svg xmlns="http://www.w3.org/2000/svg" viewBox="0 0 123.39 133.55"><defs><style>.cls-1{fill:#fff;}.cls-2{fill:#ff7817;}.cls-3{fill:#ff9f31;}</style></defs><title>char-14Asset 57</title><g id="Layer_2" data-name="Layer 2"><g id="Layer_1-2" data-name="Layer 1"><path class="cls-1" d="M79.5,6.09c-8.71,2-16.31,9.28-14,19.42l5.87,25.85-34-27A18.25,18.25,0,0,0,20.5,19.91C11.81,21.89,3.77,29.25,6,39l17.42,76.67a6.59,6.59,0,0,0,.22.72,17.4,17.4,0,0,0,20.21,11.07c8.42-1.91,16.14-10,13.91-19.83l-6-26.42,33.69,27.19A18,18,0,0,0,103.34,114c9.33-2.12,15.94-10.91,14.14-18.81L99.71,16.87C97.63,7.72,87.8,4.2,79.5,6.09Z"/><path class="cls-1" d="M104.58,119.44a23.52,23.52,0,0,1-23-6.92L60.78,95.72l2.43,10.69c3,13.17-7.08,24-18.13,26.54-12.85,2.91-23.15-5.13-26.7-14.57a11.71,11.71,0,0,1-.43-1.46L.53,40.26c-3-13.32,7.4-23.24,18.73-25.81A23.92,23.92,0,0,1,41,20.1l21.37,17L60,26.75C56.94,13.17,67.12,3.16,78.26.63c11-2.5,24.06,2.43,26.91,15L123,93.93C125.44,104.93,117,116.61,104.58,119.44ZM42.73,66.75l46.58,37.59.3.33a12.49,12.49,0,0,0,12.49,3.85c6.19-1.41,11-7.29,9.92-12.11L94.25,18.11c-1.44-6.31-8.77-7.64-13.51-6.56-4.17.95-11.58,4.82-9.79,12.72l9.39,41.38L33.63,28.54a12.69,12.69,0,0,0-11.89-3.17c-4.82,1.1-11.87,5.43-10.29,12.41l17.42,76.67A11.84,11.84,0,0,0,42.6,122c5.79-1.31,11.15-6.71,9.69-13.13Z"/><path class="cls-2" d="M79.5,6.09c-8.71,2-16.31,9.28-14,19.42l5.87,25.85-34-27A18.25,18.25,0,0,0,20.5,19.91C11.81,21.89,3.77,29.25,6,39l17.42,76.67a6.59,6.59,0,0,0,.22.72,17.4,17.4,0,0,0,20.21,11.07c8.42-1.91,16.14-10,13.91-19.83l-6-26.42,33.69,27.19A18,18,0,0,0,103.34,114c9.33-2.12,15.94-10.91,14.14-18.81L99.71,16.87C97.63,7.72,87.8,4.2,79.5,6.09Z"/><path class="cls-3" d="M78.06,9.86c-5.81,1.32-11.35,5.86-9.79,12.72L76.69,59.7a1.53,1.53,0,0,1-2.45,1.54L31.08,27a12.69,12.69,0,0,0-12-3.27c-6,1.37-11.7,6.18-10.29,12.4l17.42,76.67C28,117.5,33,121.9,39.92,120.34c5.82-1.33,11.1-6.92,9.69-13.14l-9-39.55a.92.92,0,0,1,1.48-.92l44.55,35.94a12.46,12.46,0,0,0,12.76,4.16c6.19-1.41,11-7.29,9.92-12.1L91.57,16.43C90.27,10.69,83.68,8.58,78.06,9.86Z"/></g></g></svg>