<svg xmlns="http://www.w3.org/2000/svg" viewBox="0 0 115.53 123.58"><defs><style>.cls-1{fill:#96130b;}.cls-2{fill:#fff;}.cls-3{fill:#ff2114;}</style></defs><title>char-7Asset 50</title><g id="Layer_2" data-name="Layer 2"><g id="Layer_1-2" data-name="Layer 1"><path class="cls-1" d="M91.39,39.28a17.52,17.52,0,0,0,4.1-15.41C91,5,67,3.26,47.88,7.5l-1.66.36A51.75,51.75,0,0,0,13.45,31.54C6,43.91,3.69,59.71,7.25,74.88S20,103.23,32.38,110.75c11.11,6.75,26.39,8.94,40.39,5.84,11.37-2.52,21.89-8.51,28.66-18.35,7.86-11.43,10.47-27.67,7-43.44C105.28,40.62,96.76,38.86,91.39,39.28ZM50.13,65.53C52.2,74.9,60.44,80.78,68.88,78.91l2.52-.56A13,13,0,0,1,64.35,82c-14.6,3.23-19.23-10.19-20.54-16.12C41.2,54,45.83,43.65,54.58,41.72c8.21-1.82,12.47-.08,16.59,1.61l.38.15-10,2.22C53.09,47.57,48.08,56.28,50.13,65.53Z"/><path class="cls-2" d="M74,122.06c-15.51,3.43-32.15,1-44.51-6.52C15.82,107.25,5.73,92.89,1.8,76.16S.4,42.25,8.67,28.64A57.33,57.33,0,0,1,45,2.39L46.66,2C68.3-2.76,95.5-.25,100.94,22.57A22.25,22.25,0,0,1,100.23,35c5.37,2.08,11.11,7.09,13.65,18.6,3.82,17.25.89,35.13-7.83,47.81C99,111.72,87.57,119.05,74,122.06ZM47.43,13.33A46.12,46.12,0,0,0,18.24,34.45C11.49,45.58,9.47,59.84,12.7,73.6S24.18,99.22,35.29,106c9.8,6,23.71,7.93,36.27,5.15,10.81-2.39,19.78-8.09,25.26-16.06,7-10.17,9.29-24.76,6.13-39.05-2.62-11.81-9-11.32-11.12-11.15a5.6,5.6,0,0,1-4.68-9.24A12,12,0,0,0,90,25.16c-4.67-19.63-37.25-13-41-12.2Zm18.13,74.1c-13.35,2.95-23.78-4.85-27.22-20.38-3.3-14.93,3.16-28.17,15-30.8,9.92-2.2,15.47.07,19.93,1.9l.29.11A5.6,5.6,0,0,1,72.76,49l-10,2.22c-5.37,1.18-8.51,7-7.14,13.15s6.7,10.31,12.07,9.12l2.52-.56a5.6,5.6,0,0,1,5.34,9.25A18.32,18.32,0,0,1,65.56,87.43Z"/><path class="cls-1" d="M91.39,39.28a17.52,17.52,0,0,0,4.1-15.41C91,5,67,3.26,47.88,7.5l-1.66.36A51.75,51.75,0,0,0,13.45,31.54C6,43.91,3.69,59.71,7.25,74.88S20,103.23,32.38,110.75c11.11,6.75,26.39,8.94,40.39,5.84,11.37-2.52,21.89-8.51,28.66-18.35,7.86-11.43,10.47-27.67,7-43.44C105.28,40.62,96.76,38.86,91.39,39.28ZM50.13,65.53C52.2,74.9,60.44,80.78,68.88,78.91l2.52-.56A13,13,0,0,1,64.35,82c-14.6,3.23-19.23-10.19-20.54-16.12C41.2,54,45.83,43.65,54.58,41.72c8.21-1.82,12.47-.08,16.59,1.61l.38.15-10,2.22C53.09,47.57,48.08,56.28,50.13,65.53Z"/><path class="cls-3" d="M87.38,43.42l-27.31,6c-5.46,1.21-8.53,6.87-7.14,13.16S59.63,72.93,65,71.74l9.92-2.2a1.65,1.65,0,0,1,2,1.89c-1.11,7.68-5.8,12.48-14,14.29-13.35,3-23.78-4.85-27.22-20.37-3.3-14.94,3.16-28.18,15-30.8,9.92-2.2,15.47.07,19.92,1.89s8.9,2.1,12.55-1.19c3.26-2.92,5.24-7.42,4.2-11.79-3.55-14.9-24.23-15.9-41-12.2l-1.65.37A46,46,0,0,0,15.57,32.75C1.46,56,9.23,90.06,32.62,104.26,51.1,115.49,81.36,112,94.15,93.36c7.65-11.12,9-26.17,6.13-39C99.56,51.07,97.38,41.21,87.38,43.42Z"/></g></g></svg>