<svg xmlns="http://www.w3.org/2000/svg" viewBox="0 0 106.48 130.65"><defs><style>.cls-1{fill:#fff;}.cls-2{fill:#00aade;}.cls-3{fill:#2eddff;}</style></defs><title>char-11Asset 54</title><g id="Layer_2" data-name="Layer 2"><g id="Layer_1-2" data-name="Layer 1"><path class="cls-1" d="M92.05,95.74,70.57,64.83,94.3,46.77l.44-.37a19.23,19.23,0,0,0,6-11.61C102.12,24.29,93,15.65,84,14.47a15.59,15.59,0,0,0-13,3.86L49.66,36.39,51,26.52c0-.18,0-.34,0-.48s.06-.31.08-.49a17.64,17.64,0,1,0-35-4.61c0,.18,0,.34-.05.49s0,.31-.08.47L5.74,99.61a15.33,15.33,0,0,0,.6,6.78,18.38,18.38,0,0,0,32.77,4.83l.14-.21c.19-.3.36-.61.53-.93l0-.07a15,15,0,0,0,2-5.64l1.79-13.61L62.07,118a14.38,14.38,0,0,0,11,6.93c9.39,1.24,20.93-5.17,22.31-15.6A19.11,19.11,0,0,0,92.05,95.74Z"/><path class="cls-1" d="M20.76,124.69A23.77,23.77,0,0,1,1,108.05a20.71,20.71,0,0,1-.81-9.17L10.43,21.17c0-.16.05-.32.07-.48l.06-.48A23.24,23.24,0,0,1,56.84,23L67.3,14.15A21.22,21.22,0,0,1,84.74,8.91c11.89,1.57,23.39,12.63,21.54,26.61a24.7,24.7,0,0,1-7.71,15l-.88.74L78.23,66,96.65,92.55A24.57,24.57,0,0,1,101,110c-1.85,14-16.55,22-28.6,20.42a20,20,0,0,1-15-9.45L47.18,106a20.52,20.52,0,0,1-2.46,6.68c-.24.47-.49.9-.75,1.31l-.21.31A23.89,23.89,0,0,1,20.76,124.69ZM35.18,11.31A12.06,12.06,0,0,0,21.66,21.67l0,.41-.09.48L11.29,100.35a9.65,9.65,0,0,0,.38,4.29l.05.16a12.78,12.78,0,0,0,22.71,3.35l.12-.18c.09-.16.18-.32.26-.48l.17-.3a9.36,9.36,0,0,0,1.24-3.56l3.71-28.16,26.93,39.61a8.84,8.84,0,0,0,7,4.27c6.64.87,15.08-3.65,16-10.78a13.59,13.59,0,0,0-2.39-9.64L62.91,63.62,91,42.22a13.62,13.62,0,0,0,4.18-8.17c.92-7-5.52-13.19-11.9-14a10,10,0,0,0-8.37,2.35l-.26.23L42.22,50,45.53,24.9A12.07,12.07,0,0,0,35.18,11.31Z"/><path class="cls-2" d="M92.05,95.74,70.57,64.83,94.3,46.77l.44-.37a19.23,19.23,0,0,0,6-11.61C102.12,24.29,93,15.65,84,14.47a15.59,15.59,0,0,0-13,3.86L49.66,36.39,51,26.52c0-.18,0-.34,0-.48s.06-.31.08-.49a17.64,17.64,0,1,0-35-4.61c0,.18,0,.34-.05.49s0,.31-.08.47L5.74,99.61a15.33,15.33,0,0,0,.6,6.78,18.38,18.38,0,0,0,32.77,4.83l.14-.21c.19-.3.36-.61.53-.93l0-.07a15,15,0,0,0,2-5.64l1.79-13.61L62.07,118a14.38,14.38,0,0,0,11,6.93c9.39,1.24,20.93-5.17,22.31-15.6A19.11,19.11,0,0,0,92.05,95.74Z"/><path class="cls-3" d="M85.52,96.42,62.3,63a2.41,2.41,0,0,1,.52-3.3L89,39.8a13.46,13.46,0,0,0,4.27-8.26c.93-7-5.52-13.2-11.9-14A10,10,0,0,0,72.87,20L40.29,47.51l3.2-24.24c0-.16,0-.3,0-.46s.1-.33.12-.51a12,12,0,1,0-23.88-3.14c0,.16,0,.32,0,.48s-.09.31-.11.48L9.36,97.83a9.78,9.78,0,0,0,.4,4.38,12.58,12.58,0,0,0,10.54,8.86,12.59,12.59,0,0,0,12.27-5.54l0,0c.15-.24.26-.48.4-.73a9.42,9.42,0,0,0,1.29-3.64L38,73l26.86,39.49a8.81,8.81,0,0,0,7,4.39c6.64.88,15.08-3.64,16-10.78A13.57,13.57,0,0,0,85.52,96.42Z"/></g></g></svg>