<svg xmlns="http://www.w3.org/2000/svg" viewBox="0 0 120.9 129.47"><defs><style>.cls-1{fill:#fff;}.cls-2{fill:#f7c00a;}.cls-3{fill:#fff737;}</style></defs><title>char-21Asset 64</title><g id="Layer_2" data-name="Layer 2"><g id="Layer_1-2" data-name="Layer 1"><path class="cls-1" d="M77.55,6.38a18.51,18.51,0,0,0-12.44,23L77.84,72c1.77,5.95-2,12.35-8.41,14.26S56.35,84.93,54.58,79L41.85,36.35A18.51,18.51,0,0,0,6.38,46.94L19.1,89.58C26.72,115.08,54,129.52,80,121.77S120.92,87,113.31,61.46L100.58,18.81A18.53,18.53,0,0,0,77.55,6.38Z"/><path class="cls-1" d="M81.62,127.14c-28.93,8.63-59.39-7.5-67.88-36L1,48.54a24.11,24.11,0,1,1,46.2-13.79L59.94,77.39c.89,3,4.43,4.58,7.89,3.55s5.53-4.31,4.64-7.29L59.74,31A24.11,24.11,0,0,1,106,17.21l12.73,42.64C127.17,88.32,110.55,118.5,81.62,127.14ZM20.42,29.27a12.94,12.94,0,0,0-8.68,16.07L24.47,88c6.73,22.55,30.93,35.3,53.94,28.43s36.26-30.8,29.53-53.34L95.22,20.42A12.91,12.91,0,0,0,70.48,27.8L83.21,70.44C85.86,79.35,80.4,88.87,71,91.67S51.87,89.5,49.21,80.59L36.48,38A12.93,12.93,0,0,0,20.42,29.27Z"/><path class="cls-2" d="M77.55,6.38a18.51,18.51,0,0,0-12.44,23L77.84,72c1.77,5.95-2,12.35-8.41,14.26S56.35,84.93,54.58,79L41.85,36.35A18.51,18.51,0,0,0,6.38,46.94L19.1,89.58C26.72,115.08,54,129.52,80,121.77S120.92,87,113.31,61.46L100.58,18.81A18.53,18.53,0,0,0,77.55,6.38Z"/><path class="cls-3" d="M75.63,114.9c-23,6.87-47.22-5.89-53.95-28.43L9,43.83a12.91,12.91,0,1,1,24.73-7.39L46.42,79.08C49.08,88,58.87,93,68.24,90.16S83.08,77.84,80.42,68.94L67.69,26.3a12.91,12.91,0,0,1,24.74-7.39l12.73,42.64C111.89,84.1,98.64,108,75.63,114.9Z"/></g></g></svg>