<svg xmlns="http://www.w3.org/2000/svg" viewBox="0 0 93.66 111.29"><defs><style>.cls-1{fill:#d11d5b;}.cls-2{fill:#fff;}.cls-3{fill:#ff4f8c;}</style></defs><title>char-8Asset 51</title><g id="Layer_2" data-name="Layer 2"><g id="Layer_1-2" data-name="Layer 1"><path class="cls-1" d="M88.74,23.8a15.45,15.45,0,0,0-30.83-2l-1,19.31-18.46-1,1-19.68A5.27,5.27,0,0,0,39.34,19a15.41,15.41,0,0,0-30.73.19L5,87.49a3.08,3.08,0,0,0,0,.43l0,.77,0,.37c0,.22.06.44.1.66a15.37,15.37,0,0,0,26.38,9.33,13.83,13.83,0,0,0,4.35-9.33l1.06-19.85,18.45,1L54.23,90.71a13.66,13.66,0,0,0,5.91,12.34,15.41,15.41,0,0,0,25-11.27l3.53-66.1a9,9,0,0,0,0-.92A9.55,9.55,0,0,0,88.74,23.8Z"/><path class="cls-2" d="M68.6,111.26A20.16,20.16,0,0,1,57.24,107a18.43,18.43,0,0,1-7.9-16.55l.79-15L41.47,75l-.79,15a18.65,18.65,0,0,1-5.79,12.54A20.26,20.26,0,0,1,.2,90.42a8.51,8.51,0,0,1-.13-.86L0,88.81l.05-1c0-.2,0-.4,0-.6L3.72,18.8A20.46,20.46,0,0,1,25.09,0,20.16,20.16,0,0,1,44.2,18.25a10.16,10.16,0,0,1,.17,2.46l-.79,14.78,8.66.46L53,21.43a20.35,20.35,0,0,1,40.61,2.63c0,.31,0,.63-.08,1s0,.62,0,.93L90,92A20.38,20.38,0,0,1,68.6,111.26ZM32.2,64.71l28.25,1.5L59.13,91a8.77,8.77,0,0,0,3.77,8l.28.21a10.52,10.52,0,0,0,17-7.69l3.52-66.11a2.79,2.79,0,0,0,0-.29l0-.59.1-.59a3.62,3.62,0,0,0,0-.4,10.55,10.55,0,0,0-21-1.42L61.51,46.27,33.27,44.76l1.31-24.57s0-.07,0-.11l-.11-.67a10.42,10.42,0,0,0-9.89-9.59A10.61,10.61,0,0,0,13.5,19.5L9.86,87.75l0,.83s0,.11,0,.18l.08.52a10.46,10.46,0,0,0,18,6.35l.11-.11a8.87,8.87,0,0,0,2.85-6.06Z"/><path class="cls-1" d="M88.74,23.8a15.45,15.45,0,0,0-30.83-2l-1,19.31-18.46-1,1-19.68A5.27,5.27,0,0,0,39.34,19a15.41,15.41,0,0,0-30.73.19L5,87.49a3.08,3.08,0,0,0,0,.43l0,.77,0,.37c0,.22.06.44.1.66a15.37,15.37,0,0,0,26.38,9.33,13.83,13.83,0,0,0,4.35-9.33l1.06-19.85,18.45,1L54.23,90.71a13.66,13.66,0,0,0,5.91,12.34,15.41,15.41,0,0,0,25-11.27l3.53-66.1a9,9,0,0,0,0-.92A9.55,9.55,0,0,0,88.74,23.8Z"/><path class="cls-3" d="M82,21.48a10.55,10.55,0,0,0-21.06-1.13v0h0L59.66,44.21,31.41,42.7l1.31-24.57a1.12,1.12,0,0,0-.09-.36,10.51,10.51,0,0,0-21,0h0L8,85.51a1.13,1.13,0,0,1,0,.18c0,.06,0,.12,0,.18l0,.64c0,.17.06.32.09.48a10.46,10.46,0,0,0,18.05,6.52A9,9,0,0,0,29,87.4l1.32-24.75,28.24,1.5L57.27,88.91A8.77,8.77,0,0,0,61.19,97a10.4,10.4,0,0,0,6.08,2.38,10.54,10.54,0,0,0,11.09-10,1,1,0,0,0,0-.17,1,1,0,0,0,0-.17l3.51-65.75c0-.31,0-.59-.06-.89S82,21.81,82,21.48Z"/></g></g></svg>