<svg xmlns="http://www.w3.org/2000/svg" viewBox="0 0 106.05 127.83"><defs><style>.cls-1{fill:#a426de;}.cls-2{fill:#fff;}.cls-3{fill:#d069ff;}</style></defs><title>char-1Asset 44</title><g id="Layer_2" data-name="Layer 2"><g id="Layer_1-2" data-name="Layer 1"><path class="cls-1" d="M96.46,76.36,55.55,16.87C50,8.75,38.88,4,30.21,6.09c-8.49,2-14.2,8.9-17,20.4l-.09.37L6.19,94.41a35.63,35.63,0,0,0,.17,13.85c2.4,10,10.7,15.68,19.75,13.52,8.83-2.12,15.17-11,14.83-20.7L41,98.61,64.38,93l2.37,3.7c4.79,7.48,13.56,11.65,20.86,9.9,9-2.16,14.66-12.27,12.31-22.07A27.44,27.44,0,0,0,96.46,76.36ZM47.79,63.26l-5.18,1.4.57-8.46Z"/><path class="cls-2" d="M27.42,127.22c-12,2.88-23.4-4.71-26.5-17.66A40.81,40.81,0,0,1,.63,93.69l7-67.78.18-.74C11.91,8.09,21.55,2.4,28.9.64c11-2.62,24.41,3,31.28,13.08l41,59.67a33.39,33.39,0,0,1,4.16,9.85c3.06,12.75-4.48,26-16.45,28.82-9.71,2.32-20.76-2.75-26.89-12.34l-.22-.34L46.53,103C46,114.49,38.08,124.67,27.42,127.22ZM18.66,27.81l-6.94,67.5A30,30,0,0,0,11.81,107c1.66,7,7,10.81,13,9.38,6.25-1.5,10.78-8,10.54-15.06V101l.15-6.78,31.45-7.54,4.53,7.05c3.49,5.46,9.86,8.68,14.84,7.48,6-1.42,9.78-8.58,8.17-15.32a22.12,22.12,0,0,0-2.71-6.42L50.93,20c-4.25-6.24-13-10-19.42-8.5S21,18.38,18.66,27.81Zm17.83,44.3,2.24-33,18,27.56Z"/><path class="cls-1" d="M96.46,76.36,55.55,16.87C50,8.75,38.88,4,30.21,6.09c-8.49,2-14.2,8.9-17,20.4l-.09.37L6.19,94.41a35.63,35.63,0,0,0,.17,13.85c2.4,10,10.7,15.68,19.75,13.52,8.83-2.12,15.17-11,14.83-20.7L41,98.61,64.38,93l2.37,3.7c4.79,7.48,13.56,11.65,20.86,9.9,9-2.16,14.66-12.27,12.31-22.07A27.44,27.44,0,0,0,96.46,76.36ZM47.79,63.26l-5.18,1.4.57-8.46Z"/><path class="cls-3" d="M48.23,18.38c-4.18-6.13-13.07-10-19.42-8.5S18.23,16.77,16,26.15L9,93.5a30.12,30.12,0,0,0,.07,11.8c1.69,7.06,6.91,10.83,13,9.37,6.32-1.51,10.85-8.1,10.53-15.2l.15-7L64.24,85l4.53,7c3.48,5.46,9.86,8.67,14.84,7.48,6-1.43,9.78-8.59,8.17-15.32A22.09,22.09,0,0,0,89,77.66Zm2.29,47.56L37.31,69.5A2.6,2.6,0,0,1,34,66.81L35.5,45.22A2.6,2.6,0,0,1,40.28,44L52,62A2.61,2.61,0,0,1,50.52,65.94Z"/></g></g></svg>