<svg xmlns="http://www.w3.org/2000/svg" viewBox="0 0 103.43 117.89"><defs><style>.cls-1{opacity:0.15;}.cls-2{fill:#d069ff;}.cls-3{fill:#a426de;}.cls-4{fill:#d17efc;}.cls-5{fill:#d38fff;}</style></defs><title>char6Asset 17</title><g id="Layer_2" data-name="Layer 2"><g id="Layer_1-2" data-name="Layer 1"><path class="cls-1" d="M85.65,56.93c-16.21-2.37-29.38,13.5-32.42,10.12s-2.1-40.27-.76-48.95c1.78-11.45-22.06-14.7-24.9-7.9C20.15,28,38.38,84.72,33.31,89.39S6,88.18,2.25,93.15s.26,19.49,12.12,22.52,50.14,4.63,70.26-6.74C113.33,92.71,102.74,59.41,85.65,56.93ZM53.73,90.11c2.75-5.58,22.46-13.94,23.48-5.84S52.08,93.46,53.73,90.11Z"/><path class="cls-2" d="M85.65,51.17C69.44,48.81,56.27,64.67,53.23,61.3s-2.1-40.28-.76-49C54.25.89,30.41-2.36,27.57,4.44,20.15,22.27,38.38,79,33.31,83.64S6,82.43,2.25,87.39s.26,19.49,12.12,22.53,50.14,4.62,70.26-6.75C113.33,87,102.74,53.66,85.65,51.17ZM53.73,84.35c2.75-5.57,22.46-13.93,23.48-5.83S52.08,87.71,53.73,84.35Z"/><path class="cls-3" d="M38.65,113.05h0c-9.73,0-19.12-.86-24.51-2.25a19.09,19.09,0,0,1-13-12.44c-1.6-4.52-1.43-9,.43-11.51,1.32-1.76,4.27-2.52,9.89-2.52,1.95,0,4.08.09,6.14.17s4.23.17,6.21.17c3,0,7.28-.18,8.93-1.7S32.09,68.1,30,56.45c-3.39-18.66-7.6-41.89-3.24-52.36C27.79,1.53,31.35,0,36.25,0,41.35,0,48,1.76,51.39,5.7a8.26,8.26,0,0,1,2,6.78c-1.43,9.25-2.06,45.33.53,48.21a.6.6,0,0,0,.48.17c1.23,0,3.58-1.42,6.3-3.06C66.15,54.51,73.63,50,82.3,50a25.12,25.12,0,0,1,3.48.25c8.16,1.19,15.19,9.2,17.11,19.48,2.56,13.69-4.1,26.48-17.81,34.23C71.1,111.87,50,113.05,38.65,113.05ZM11.41,86.16c-3.05,0-7.23.19-8.43,1.78-1.47,2-1.54,5.92-.17,9.81A17.32,17.32,0,0,0,14.59,109c5.18,1.33,14.62,2.18,24.06,2.18h0c11.17,0,31.92-1.14,45.53-8.83C97.18,95,103.5,83,101.1,70.08c-1.78-9.53-8.19-16.93-15.58-18a23,23,0,0,0-3.22-.23c-8.16,0-15.39,4.35-20.66,7.53-3.2,1.92-5.52,3.32-7.25,3.32a2.41,2.41,0,0,1-1.84-.78c-3.45-3.84-2.27-41.4-1-49.71A6.37,6.37,0,0,0,50,6.9c-2.56-3-8.21-5.07-13.75-5.07-4.07,0-7.07,1.14-7.83,3-4.16,10,0,32.91,3.35,51.33,3.09,17,4.58,26,2.16,28.19-1.66,1.54-4.7,2.19-10.17,2.19-2,0-4.19-.09-6.28-.17S13.32,86.16,11.41,86.16Zm48.23.89c-3.76,0-6-.55-6.67-1.62A1.5,1.5,0,0,1,52.91,84c2.15-4.36,12.82-9.71,19.35-9.71,4.64,0,5.66,2.61,5.85,4.16a4.55,4.55,0,0,1-1.22,3.7C73.89,85.5,65.84,87.05,59.64,87.05Zm-5-2.5c.46.25,1.87.67,5,.67,5.84,0,13.39-1.52,15.87-4.33a2.78,2.78,0,0,0,.79-2.26c-.08-.63-.32-2.56-4-2.56C66.16,76.07,56.63,81.12,54.66,84.55Z"/><path class="cls-3" d="M36.7,109.34h0q-1.61,0-3.15-.06a.66.66,0,0,1-.64-.68.65.65,0,0,1,.67-.63c1,0,2.07,0,3.13.06a.66.66,0,0,1,0,1.31Zm3.66,0a.66.66,0,0,1-.65-.65.65.65,0,0,1,.64-.66l3.13-.09a.66.66,0,0,1,.05,1.31l-3.15.09Zm-10.45-.2h0c-1.07-.06-2.13-.14-3.15-.23a.65.65,0,0,1,.11-1.3c1,.09,2.06.16,3.12.22a.66.66,0,0,1,0,1.31ZM47.16,109a.65.65,0,0,1,0-1.3c1-.07,2.07-.14,3.11-.23a.65.65,0,0,1,.71.59.66.66,0,0,1-.6.71c-1.05.09-2.1.17-3.14.23Zm-24-.53h-.09c-1.11-.14-2.17-.3-3.13-.47a.66.66,0,0,1-.53-.76.64.64,0,0,1,.76-.53c.94.17,2,.32,3.07.46a.65.65,0,0,1-.08,1.3Zm30.79-.05a.66.66,0,0,1-.07-1.31c1-.11,2.08-.24,3.1-.38a.65.65,0,0,1,.18,1.29c-1,.14-2.08.27-3.14.39Zm6.74-.94A.66.66,0,0,1,60,107a.65.65,0,0,1,.54-.75c1-.18,2.07-.37,3.06-.56a.65.65,0,1,1,.26,1.28c-1,.2-2.05.39-3.1.57Zm-44.21-.27a.57.57,0,0,1-.18,0c-.33-.09-.64-.18-.92-.28a16,16,0,0,1-2.11-.89.64.64,0,0,1-.3-.87.66.66,0,0,1,.88-.3,14.61,14.61,0,0,0,1.94.82l.87.27a.65.65,0,0,1,.45.81A.66.66,0,0,1,16.46,107.25Zm50.87-1.09a.66.66,0,0,1-.64-.5.65.65,0,0,1,.49-.78c1-.25,2-.52,3-.79a.65.65,0,0,1,.81.45.67.67,0,0,1-.46.81c-1,.28-2,.55-3.06.8Zm6.53-1.88a.65.65,0,0,1-.21-1.27c1-.34,2-.71,2.91-1.08a.65.65,0,0,1,.85.36.66.66,0,0,1-.36.85c-1,.38-2,.76-3,1.11A.76.76,0,0,1,73.86,104.28Zm-63.41-.12a.61.61,0,0,1-.4-.14,20.77,20.77,0,0,1-2.39-2.19.66.66,0,0,1,1-.89,17.29,17.29,0,0,0,2.22,2,.66.66,0,0,1,.12.92A.67.67,0,0,1,10.45,104.16Zm69.69-2.48a.65.65,0,0,1-.29-1.23c.55-.28,1.1-.57,1.61-.86L82.55,99a.65.65,0,0,1,.67,1.12c-.36.22-.73.44-1.11.65q-.81.47-1.68.9A.72.72,0,0,1,80.14,101.68ZM6,99.1a.65.65,0,0,1-.57-.32,12.07,12.07,0,0,1-1.27-3.06.65.65,0,0,1,.48-.79.64.64,0,0,1,.79.47,10.71,10.71,0,0,0,1.13,2.72.65.65,0,0,1-.24.9A.61.61,0,0,1,6,99.1Zm80-1A.65.65,0,0,1,85.54,97c.84-.61,1.65-1.26,2.41-1.92a.65.65,0,1,1,.86,1c-.78.69-1.62,1.36-2.49,2A.69.69,0,0,1,85.93,98.14ZM91,93.63a.66.66,0,0,1-.44-.17.64.64,0,0,1,0-.92c.69-.77,1.35-1.56,2-2.37a.65.65,0,1,1,1,.78c-.63.84-1.31,1.67-2,2.47A.64.64,0,0,1,91,93.63Zm-86.12-1a.59.59,0,0,1-.23,0,.65.65,0,0,1-.38-.84A5.39,5.39,0,0,1,5,90.42a3.72,3.72,0,0,1,1.8-1.22.65.65,0,1,1,.43,1.23A2.56,2.56,0,0,0,6,91.2a4.76,4.76,0,0,0-.54,1A.66.66,0,0,1,4.88,92.61Zm54.64-1.1a.66.66,0,0,1,0-1.31c1,0,2,0,3.08-.14a.65.65,0,1,1,.12,1.3c-1.08.1-2.15.15-3.2.15Zm-3.65-.23h-.08a18,18,0,0,1-3.19-.72A.66.66,0,0,1,53,89.32,15.16,15.16,0,0,0,56,90a.65.65,0,0,1-.09,1.3Zm10.41-.44a.65.65,0,0,1-.12-1.29c1-.21,2-.45,3-.73a.64.64,0,0,1,.81.44.65.65,0,0,1-.44.81c-1,.29-2,.55-3.11.76Zm-41.67-.16h-.42a.66.66,0,1,1,0-1.31h.41c1,0,1.85,0,2.68-.09a.66.66,0,0,1,.09,1.31C26.52,90.65,25.61,90.68,24.61,90.68Zm-4.07-.14h0c-1.06-.06-2.11-.14-3.14-.21a.66.66,0,0,1,.1-1.31l3.12.22a.65.65,0,0,1,0,1.3ZM31,90.08a.66.66,0,0,1-.63-.51.65.65,0,0,1,.49-.78,12.85,12.85,0,0,0,2.81-1,.65.65,0,0,1,.88.3.64.64,0,0,1-.3.87,14.08,14.08,0,0,1-3.1,1.08Zm-17.19,0h0C12.64,90,11.78,90,11,90h-.39a.66.66,0,0,1,0-1.31H11c.79,0,1.68,0,2.78.09a.66.66,0,0,1,.62.69A.65.65,0,0,1,13.76,90.07Zm59-1.24a.66.66,0,0,1-.6-.38.67.67,0,0,1,.33-.87,19.2,19.2,0,0,0,2.67-1.44.65.65,0,1,1,.71,1.1A21.74,21.74,0,0,1,73,88.78.65.65,0,0,1,72.77,88.83Zm-22.86-.31a.66.66,0,0,1-.59-.37,2.81,2.81,0,0,1-.27-1.21,8.46,8.46,0,0,1,.73-3.29.66.66,0,0,1,1.21.52A7.21,7.21,0,0,0,50.35,87a1.39,1.39,0,0,0,.15.63.64.64,0,0,1-.31.87A.55.55,0,0,1,49.91,88.52ZM95,88.14a.72.72,0,0,1-.32-.08.66.66,0,0,1-.25-.89,28,28,0,0,0,1.33-2.76.65.65,0,0,1,.85-.35.66.66,0,0,1,.36.85,28.48,28.48,0,0,1-1.4,2.89A.64.64,0,0,1,95,88.14Zm-58.2-1.32a.63.63,0,0,1-.41-.15.65.65,0,0,1-.1-.91l.16-.2a5.52,5.52,0,0,0,.84-2.38.65.65,0,1,1,1.29.21,6.72,6.72,0,0,1-1.09,3l-.18.23A.65.65,0,0,1,36.78,86.82ZM78.34,85a.7.7,0,0,1-.45-.17.67.67,0,0,1,0-.93A9.66,9.66,0,0,0,79.5,81.5a.65.65,0,0,1,.87-.32.66.66,0,0,1,.31.87,11.3,11.3,0,0,1-1.86,2.75A.66.66,0,0,1,78.34,85ZM97.5,81.85l-.17,0a.66.66,0,0,1-.47-.8,25.22,25.22,0,0,0,.58-3,.64.64,0,0,1,.73-.56.65.65,0,0,1,.57.73,27.81,27.81,0,0,1-.61,3.15A.66.66,0,0,1,97.5,81.85Zm-45.22-.41a.61.61,0,0,1-.4-.14.64.64,0,0,1-.11-.91A21.65,21.65,0,0,1,54,78a.65.65,0,0,1,.92,0,.66.66,0,0,1,0,.93,22,22,0,0,0-2.05,2.24A.64.64,0,0,1,52.28,81.44ZM38.16,80.29a.65.65,0,0,1-.65-.65c0-.93,0-2-.11-3.1a.65.65,0,1,1,1.3-.08c.08,1.15.12,2.22.12,3.18a.66.66,0,0,1-.66.65ZM81,78.9h0a.64.64,0,0,1-.62-.68c0-.14,0-.28,0-.42,0-.32,0-.64,0-1A8.74,8.74,0,0,0,80,75.31.66.66,0,0,1,81.26,75a11.33,11.33,0,0,1,.3,1.73,10.28,10.28,0,0,1,.06,1.1c0,.16,0,.32,0,.48A.66.66,0,0,1,81,78.9ZM57.2,76.77a.65.65,0,0,1-.52-.26.66.66,0,0,1,.13-.92c.84-.62,1.73-1.22,2.65-1.78a.65.65,0,0,1,.69,1.11c-.89.55-1.75,1.13-2.56,1.72A.63.63,0,0,1,57.2,76.77Zm41.11-1.65a.66.66,0,0,1-.66-.65,25.9,25.9,0,0,0-.21-3,.64.64,0,0,1,.56-.73.65.65,0,0,1,.74.56A26.49,26.49,0,0,1,99,74.46a.66.66,0,0,1-.65.66ZM37.73,73.5a.66.66,0,0,1-.65-.58c-.1-1-.23-2-.37-3.11a.67.67,0,0,1,.57-.73.66.66,0,0,1,.73.57c.14,1.1.27,2.15.37,3.13a.65.65,0,0,1-.58.72ZM63,73.28A.66.66,0,0,1,62.75,72c1-.46,2-.88,3-1.23a.65.65,0,0,1,.84.39.67.67,0,0,1-.39.84c-.94.34-1.9.74-2.84,1.18A.58.58,0,0,1,63,73.28Zm15.83-.63a.68.68,0,0,1-.46-.19A5.9,5.9,0,0,0,76,71.06a.65.65,0,1,1,.39-1.25,7.32,7.32,0,0,1,3,1.71.65.65,0,0,1,0,.93A.63.63,0,0,1,78.86,72.65Zm-9.42-1.6a.65.65,0,0,1-.13-1.29,19.05,19.05,0,0,1,3.22-.41.65.65,0,0,1,.67.64.64.64,0,0,1-.63.67,17.59,17.59,0,0,0-3,.38ZM97.36,68.4a.64.64,0,0,1-.63-.47,23.46,23.46,0,0,0-1-2.89.65.65,0,0,1,1.2-.51,24.42,24.42,0,0,1,1.06,3,.65.65,0,0,1-.46.8A.47.47,0,0,1,97.36,68.4ZM53,67.35a4.11,4.11,0,0,1-1.55-.29,1.8,1.8,0,0,1-.67-.53.66.66,0,0,1,.1-.92.65.65,0,0,1,.92.1.82.82,0,0,0,.15.14,3.4,3.4,0,0,0,2.14.05.67.67,0,0,1,.79.49.65.65,0,0,1-.49.78A5.89,5.89,0,0,1,53,67.35Zm-16.15-.6a.64.64,0,0,1-.64-.55c-.15-1-.31-2-.48-3.1a.65.65,0,0,1,.54-.75.66.66,0,0,1,.75.54c.17,1.06.33,2.1.48,3.11a.66.66,0,0,1-.55.75Zm20.76-1a.66.66,0,0,1-.58-.34.65.65,0,0,1,.27-.88C58,64.15,58.89,63.65,60,63a.65.65,0,0,1,.9.21.66.66,0,0,1-.2.9c-1.1.69-2,1.2-2.74,1.62A.58.58,0,0,1,57.61,65.78Zm-7.55-2.43a.66.66,0,0,1-.64-.52c-.19-.89-.38-1.95-.56-3.13a.67.67,0,0,1,.56-.75.65.65,0,0,1,.74.56c.17,1.15.35,2.18.54,3a.65.65,0,0,1-.5.78ZM63.39,62.2a.68.68,0,0,1-.55-.3A.66.66,0,0,1,63,61q1.29-.84,2.67-1.68a.65.65,0,1,1,.68,1.11c-.91.56-1.79,1.12-2.64,1.67A.68.68,0,0,1,63.39,62.2Zm31.27,0a.67.67,0,0,1-.56-.31,19.67,19.67,0,0,0-1.79-2.44.65.65,0,1,1,1-.86,20.43,20.43,0,0,1,1.92,2.61.65.65,0,0,1-.21.9A.61.61,0,0,1,94.66,62.19ZM35.78,60a.65.65,0,0,1-.65-.54c-.17-1-.34-2.05-.53-3.1a.65.65,0,0,1,1.29-.22c.18,1,.36,2.08.53,3.1a.65.65,0,0,1-.53.75Zm33.44-1.34a.65.65,0,0,1-.31-1.23c1-.53,1.92-1,2.85-1.42a.65.65,0,0,1,.54,1.19c-.9.41-1.8.86-2.77,1.38A.58.58,0,0,1,69.22,58.69Zm20.9-1.51a.6.6,0,0,1-.38-.13,12,12,0,0,0-2.59-1.45.65.65,0,0,1,.49-1.21A12.84,12.84,0,0,1,90.51,56a.64.64,0,0,1,.14.91A.66.66,0,0,1,90.12,57.18Zm-41.07-.56a.64.64,0,0,1-.64-.59c-.11-1-.21-2.05-.3-3.14a.65.65,0,0,1,1.3-.11c.09,1.08.19,2.12.3,3.11a.66.66,0,0,1-.58.72ZM75.44,56a.65.65,0,0,1-.62-.46.64.64,0,0,1,.42-.82,25.42,25.42,0,0,1,3.11-.8.63.63,0,0,1,.76.51.65.65,0,0,1-.52.77,23.4,23.4,0,0,0-3,.77ZM85.23,55h-.1a18,18,0,0,0-2.85-.23h-.17a.66.66,0,1,1,0-1.31h.18a19.44,19.44,0,0,1,3.06.25.65.65,0,0,1-.11,1.3ZM34.62,53.33a.67.67,0,0,1-.65-.54l-.54-3.1a.65.65,0,1,1,1.28-.22l.55,3.09a.66.66,0,0,1-.53.76Zm13.86-3.49a.65.65,0,0,1-.65-.61c-.07-1-.13-2.08-.19-3.15a.65.65,0,0,1,1.3-.07c.06,1.06.13,2.11.19,3.13a.65.65,0,0,1-.61.7Zm-15-3.22a.66.66,0,0,1-.65-.54L32.24,43a.66.66,0,0,1,.54-.76.65.65,0,0,1,.75.54q.27,1.53.54,3.09a.64.64,0,0,1-.53.75ZM48.12,43a.66.66,0,0,1-.66-.62c0-1.05-.08-2.1-.11-3.15a.65.65,0,1,1,1.3,0l.12,3.13a.66.66,0,0,1-.63.68ZM32.27,39.92a.66.66,0,0,1-.65-.55l-.51-3.1a.65.65,0,0,1,1.29-.21c.17,1,.34,2.06.51,3.1a.65.65,0,0,1-.53.75ZM47.9,36.24a.66.66,0,0,1-.66-.64c0-1.06,0-2.11-.05-3.14a.66.66,0,0,1,.64-.67h0a.65.65,0,0,1,.65.65c0,1,0,2.08.06,3.13a.66.66,0,0,1-.64.67Zm-16.71-3a.66.66,0,0,1-.65-.56c-.16-1.05-.31-2.09-.45-3.11a.65.65,0,0,1,.56-.74.64.64,0,0,1,.73.56c.15,1,.3,2,.45,3.1a.65.65,0,0,1-.54.74Zm16.62-3.76a.65.65,0,0,1-.65-.66V25.64a.66.66,0,0,1,.66-.65h0a.66.66,0,0,1,.65.66c0,.72,0,1.46,0,2.21v.92a.65.65,0,0,1-.65.66Zm-17.54-3a.66.66,0,0,1-.65-.58c-.13-1.09-.25-2.14-.34-3.14a.65.65,0,1,1,1.3-.12c.09,1,.21,2,.34,3.1a.66.66,0,0,1-.58.73Zm17.6-3.82h0a.66.66,0,0,1-.64-.67c0-1.13.06-2.19.1-3.15a.66.66,0,0,1,.68-.63.65.65,0,0,1,.63.69c0,.95-.08,2-.1,3.12A.66.66,0,0,1,47.87,22.64Zm-18.23-3a.66.66,0,0,1-.65-.62c-.07-1.12-.1-2.19-.11-3.17a.66.66,0,0,1,.65-.66h0a.66.66,0,0,1,.66.65c0,1,0,2,.1,3.11a.64.64,0,0,1-.61.69Zm18.58-3.83h-.07a.64.64,0,0,1-.58-.71c0-.42.09-.79.14-1.1a8.53,8.53,0,0,0,.1-1.31c0-.2,0-.4,0-.6a.65.65,0,0,1,1.3-.1c0,.23,0,.46,0,.7A9.8,9.8,0,0,1,49,14.23c0,.3-.09.64-.13,1A.65.65,0,0,1,48.22,15.85Zm-18.55-3h-.06a.65.65,0,0,1-.59-.71A17.21,17.21,0,0,1,29.59,9a.65.65,0,0,1,.81-.44.64.64,0,0,1,.44.81,16.2,16.2,0,0,0-.52,3A.65.65,0,0,1,29.67,12.88ZM47.26,9.31A.67.67,0,0,1,46.72,9a7.37,7.37,0,0,0-2-2,.66.66,0,0,1,.73-1.09,9,9,0,0,1,2.4,2.37.66.66,0,0,1-.18.91A.7.7,0,0,1,47.26,9.31ZM32.17,6.79a.64.64,0,0,1-.52-.26.65.65,0,0,1,.12-.92A8.47,8.47,0,0,1,34.83,4.2a.65.65,0,1,1,.33,1.26,7.52,7.52,0,0,0-2.6,1.19A.64.64,0,0,1,32.17,6.79Zm9.55-1.18a.5.5,0,0,1-.17,0,13.24,13.24,0,0,0-2.95-.46A.67.67,0,0,1,38,4.44a.65.65,0,0,1,.69-.62,14.69,14.69,0,0,1,3.24.51.66.66,0,0,1,.45.81A.64.64,0,0,1,41.72,5.61Z"/><path class="cls-4" d="M84.2,57.56C70.43,54.73,56.15,72.44,50.67,69.91c-7.47-3.46-4.5-48.67-4.65-55.8-.11-5.36-10.18-8.86-13.08-3.24-3.37,6.52,10.75,70,6.88,75.59C31.38,98.61,10.2,87.64,7.74,92.37c-1.23,2.36,2.11,8.62,9,10.94,10,3.36,46,3,63.23-6.8C104.58,82.59,95,59.79,84.2,57.56ZM46.14,88.24c.1-14.5,35.67-32.52,37.65-12.26S46.07,97.23,46.14,88.24Z"/><path class="cls-5" d="M25.12,94.32c-7.83-.85-7.84,10.2,7.09,11.22s28.21-3.9,25.08-7S34.8,95.36,25.12,94.32Z"/><path class="cls-5" d="M42.47,10.5c-7.93-6.57-8.31,12.11-3.64,19.23S49.45,16.29,42.47,10.5Z"/></g></g></svg>