<svg xmlns="http://www.w3.org/2000/svg" viewBox="0 0 68.62 129.29"><defs><style>.cls-1{opacity:0.15;}.cls-2{fill:#ff4f8c;}.cls-3{fill:#d11d5b;}.cls-4{fill:#f970a5;}.cls-5{fill:#fc83b5;}</style></defs><title>char5Asset 13</title><g id="Layer_2" data-name="Layer 2"><g id="Layer_1-2" data-name="Layer 1"><path class="cls-1" d="M36.17,7.2c-10.44,3.07-11.34,17.87-4.93,22.37,10.1,7.08,21.62,4.12,23.33-7C55.8,14.56,46.32,4.21,36.17,7.2Z"/><path class="cls-1" d="M38.05,67.57c3.38,10.37,9.21,29.45-6.76,39.27S.91,108.27.91,114.5c0,12.09,21.27,19.7,40.52,11.14,24.31-10.8,30.05-35.55,24.12-56.76C63.27,60.71,58.69,52,55.61,51,47.87,48.63,36.46,62.65,38.05,67.57Z"/><path class="cls-2" d="M36.17,1.44C25.73,4.51,24.83,19.31,31.24,23.81c10.1,7.08,21.62,4.12,23.33-7C55.8,8.8,46.32-1.54,36.17,1.44Z"/><path class="cls-3" d="M42.32,28.56h0a20.36,20.36,0,0,1-11.6-4c-3.38-2.37-5.08-7.48-4.22-12.73C27.42,6.24,30.94,2,35.91.56A13.84,13.84,0,0,1,39.79,0,15.91,15.91,0,0,1,51.73,5.86c2.9,3.37,4.3,7.5,3.75,11.06C54.37,24.1,49.33,28.56,42.32,28.56ZM39.79,1.83a12.16,12.16,0,0,0-3.37.49c-4.28,1.26-7.31,4.93-8.11,9.81-.75,4.56.64,9,3.46,10.93a18.55,18.55,0,0,0,10.55,3.67h0c6,0,10.39-3.87,11.35-10.09.47-3-.78-6.62-3.33-9.59A14.1,14.1,0,0,0,39.79,1.83Z"/><path class="cls-4" d="M38.31,6.91c-7.77.66-9,15.75,4,13.91C52.14,19.42,52,5.74,38.31,6.91Z"/><path class="cls-3" d="M40.49,26.24a11.12,11.12,0,0,1-1.16-.06.65.65,0,0,1-.58-.72.65.65,0,0,1,.72-.58,10.39,10.39,0,0,0,2.93-.12.64.64,0,0,1,.76.52.65.65,0,0,1-.52.76A12.29,12.29,0,0,1,40.49,26.24Zm-4.57-1.13a.63.63,0,0,1-.3-.07A11.12,11.12,0,0,1,33,23a.66.66,0,1,1,.94-.92,9.53,9.53,0,0,0,2.33,1.76.66.66,0,0,1,.27.89A.65.65,0,0,1,35.92,25.11ZM46,24.91a.65.65,0,0,1-.29-1.24A10.24,10.24,0,0,0,48.12,22,.65.65,0,1,1,49,23a11.89,11.89,0,0,1-2.73,1.87A.79.79,0,0,1,46,24.91ZM31.31,20.27a.64.64,0,0,1-.58-.36,13.58,13.58,0,0,1-1.14-3.08.65.65,0,0,1,1.27-.31,12.46,12.46,0,0,0,1,2.79.66.66,0,0,1-.28.88A.67.67,0,0,1,31.31,20.27Zm19.47,0a.63.63,0,0,1-.3-.07.66.66,0,0,1-.28-.89,9.87,9.87,0,0,0,.95-2.77.66.66,0,0,1,1.29.24,11.45,11.45,0,0,1-1.08,3.14A.67.67,0,0,1,50.78,20.26ZM29.9,13.7h0a.65.65,0,0,1-.61-.69A10.7,10.7,0,0,1,30,9.75a.65.65,0,0,1,.85-.37.66.66,0,0,1,.37.85,9,9,0,0,0-.62,2.85A.66.66,0,0,1,29.9,13.7Zm22,0a.66.66,0,0,1-.65-.56,10.13,10.13,0,0,0-.82-2.83.65.65,0,0,1,.33-.86.64.64,0,0,1,.86.32,11.54,11.54,0,0,1,.93,3.18.65.65,0,0,1-.56.74Zm-3-6a.65.65,0,0,1-.46-.18,8.86,8.86,0,0,0-2.39-1.67.65.65,0,0,1-.3-.87.64.64,0,0,1,.87-.31,10.4,10.4,0,0,1,2.73,1.91.66.66,0,0,1,0,.93A.65.65,0,0,1,48.93,7.67Zm-16.32,0a.64.64,0,0,1-.49-.22.65.65,0,0,1,.05-.92,8.94,8.94,0,0,1,2.89-1.73c.3-.11.6-.22.9-.31a.66.66,0,0,1,.83.42.65.65,0,0,1-.42.82c-.29.09-.57.19-.86.3a7.49,7.49,0,0,0-2.46,1.47A.7.7,0,0,1,32.61,7.65Zm7.12-2.71a.65.65,0,0,1-.08-1.3,14.45,14.45,0,0,1,3.28,0,.65.65,0,1,1-.14,1.3,13,13,0,0,0-3,0Z"/><path class="cls-2" d="M38.05,61.81c3.38,10.37,9.21,29.45-6.76,39.27S.91,102.51.91,108.74c0,12.09,21.27,19.7,40.52,11.14,24.31-10.8,30.05-35.55,24.12-56.76-2.28-8.17-6.86-16.9-9.94-17.85C47.87,42.88,36.46,56.9,38.05,61.81Z"/><path class="cls-3" d="M24.39,124.45h0C10.71,124.45,0,117.55,0,108.74c0-3.49,3.59-3.49,5.74-3.49.73,0,1.54,0,2.41,0,1,0,2.09.06,3.25.06a35.42,35.42,0,0,0,19.41-5c15.68-9.64,9.39-28.93,6.37-38.21-.67-2.07.48-5.44,3.08-9,3-4.15,8.35-9,13.5-9a7.39,7.39,0,0,1,2.12.31c3.64,1.13,8.31,10.47,10.55,18.48,3.15,11.28,2.89,22.94-.74,32.85-4.12,11.24-12.38,19.89-23.89,25A43.22,43.22,0,0,1,24.39,124.45ZM5.74,107.08c-3.64,0-3.91.66-3.91,1.66,0,7.78,9.91,13.88,22.56,13.88h0a41.32,41.32,0,0,0,16.67-3.57c25.72-11.43,28.79-37.14,23.61-55.68-2.51-9-7-16.51-9.33-17.23a5.44,5.44,0,0,0-1.58-.23c-4.18,0-9,4.14-12,8.23-2.19,3-3.29,5.92-2.82,7.39,3.17,9.72,9.75,29.94-7.16,40.33a37.1,37.1,0,0,1-20.36,5.32c-1.19,0-2.31,0-3.3-.06S6.46,107.08,5.74,107.08Z"/><path class="cls-3" d="M25,120.7a.66.66,0,0,1-.66-.65.66.66,0,0,1,.64-.66c1,0,2.06-.09,3.08-.19a.65.65,0,0,1,.72.58.67.67,0,0,1-.59.72c-1,.11-2.12.18-3.18.2Zm-3.66-.11h-.05c-1.07-.09-2.14-.22-3.17-.4a.65.65,0,1,1,.22-1.29c1,.17,2,.3,3.05.38a.66.66,0,0,1-.05,1.31ZM31.7,120a.65.65,0,0,1-.12-1.29c1-.2,2-.45,3-.73a.66.66,0,0,1,.81.44.65.65,0,0,1-.45.81c-1,.3-2,.55-3.1.76Zm-17.08-.57-.19,0a25.51,25.51,0,0,1-3-1.09.65.65,0,0,1,.52-1.2,25.46,25.46,0,0,0,2.87,1,.65.65,0,0,1-.18,1.28ZM38.21,118a.66.66,0,0,1-.24-1.27c.45-.18.91-.37,1.36-.57s1-.44,1.46-.68a.66.66,0,0,1,.88.3.67.67,0,0,1-.3.88l-1.51.7c-.47.21-.94.4-1.41.59A.69.69,0,0,1,38.21,118ZM8.46,116.56a.7.7,0,0,1-.37-.11,12.18,12.18,0,0,1-2.46-2.22.66.66,0,0,1,.1-.92.65.65,0,0,1,.92.09,10.56,10.56,0,0,0,2.18,2,.65.65,0,0,1,.17.91A.66.66,0,0,1,8.46,116.56ZM44.3,115A.65.65,0,0,1,44,113.8c.89-.53,1.76-1.09,2.59-1.68a.65.65,0,1,1,.75,1.07c-.86.61-1.76,1.19-2.67,1.73A.66.66,0,0,1,44.3,115ZM4.76,111.16a.65.65,0,0,1-.66-.63v-.18a3.24,3.24,0,0,1,0-.44c.14-1.65,2-1.84,2.55-1.9a.65.65,0,0,1,.72.58.65.65,0,0,1-.58.72c-1.34.14-1.37.52-1.39.72s0,.21,0,.32v.13a.66.66,0,0,1-.63.68Zm45.07-.08a.65.65,0,0,1-.42-1.15c.78-.67,1.55-1.37,2.28-2.08a.65.65,0,0,1,.92.93c-.75.74-1.55,1.46-2.36,2.15A.66.66,0,0,1,49.83,111.08Zm-36.29-1.7h0c-1.07,0-2.07,0-3-.07h-.19a.64.64,0,0,1-.63-.67.65.65,0,0,1,.67-.64h.2c.88,0,1.87.06,2.92.07a.66.66,0,0,1,.65.66A.66.66,0,0,1,13.54,109.38Zm3.66-.09a.65.65,0,0,1,0-1.3c1.05-.07,2.08-.17,3.07-.31a.66.66,0,0,1,.74.56.65.65,0,0,1-.56.74c-1,.14-2.09.24-3.17.31Zm6.71-1a.65.65,0,0,1-.15-1.29c1-.24,2-.53,2.95-.86a.64.64,0,0,1,.83.41.65.65,0,0,1-.4.83c-1,.34-2,.64-3.07.89Zm30.73-2a.61.61,0,0,1-.42-.16.65.65,0,0,1-.08-.92c.66-.78,1.3-1.6,1.9-2.43a.66.66,0,1,1,1.06.77c-.62.85-1.28,1.7-2,2.51A.67.67,0,0,1,54.64,106.29Zm-24.32-.23a.65.65,0,0,1-.59-.37.64.64,0,0,1,.31-.87c.77-.36,1.54-.76,2.29-1.18l.43-.25a.65.65,0,0,1,.9.23.66.66,0,0,1-.23.9l-.46.26c-.78.44-1.57.85-2.37,1.22A.71.71,0,0,1,30.32,106.06Zm5.81-3.5a.64.64,0,0,1-.52-.25.65.65,0,0,1,.12-.92,26.12,26.12,0,0,0,2.29-2,.66.66,0,0,1,.93,0,.67.67,0,0,1,0,.93,29.13,29.13,0,0,1-2.42,2.12A.66.66,0,0,1,36.13,102.56Zm22.45-1.8a.65.65,0,0,1-.56-1c.52-.88,1-1.79,1.47-2.71a.65.65,0,1,1,1.17.58c-.47,1-1,1.89-1.52,2.8A.66.66,0,0,1,58.58,100.76Zm-17.72-3a.66.66,0,0,1-.38-.12.67.67,0,0,1-.15-.92A20.72,20.72,0,0,0,42,94.1a.66.66,0,0,1,.89-.26.65.65,0,0,1,.26.88,21.93,21.93,0,0,1-1.71,2.73A.65.65,0,0,1,40.86,97.72Zm20.7-3.06a.69.69,0,0,1-.24,0,.66.66,0,0,1-.37-.85c.38-1,.72-1.93,1-2.91a.64.64,0,0,1,.82-.43.66.66,0,0,1,.43.82c-.32,1-.67,2-1.06,3A.66.66,0,0,1,61.56,94.66ZM44,91.72a.52.52,0,0,1-.21,0,.65.65,0,0,1-.4-.83,29.47,29.47,0,0,0,.83-2.94.64.64,0,0,1,.77-.5.65.65,0,0,1,.5.78,25.57,25.57,0,0,1-.87,3.09A.65.65,0,0,1,44,91.72Zm19.55-3.56-.14,0a.65.65,0,0,1-.5-.78c.23-1,.41-2,.57-3a.65.65,0,0,1,.74-.55.66.66,0,0,1,.55.75c-.16,1-.35,2.1-.58,3.13A.66.66,0,0,1,63.54,88.16ZM45.4,85.08h-.06a.65.65,0,0,1-.59-.71c.09-1,.14-2,.14-3.07a.67.67,0,0,1,.66-.66h0a.66.66,0,0,1,.65.66c0,1.09-.05,2.16-.15,3.19A.64.64,0,0,1,45.4,85.08Zm19.11-3.64h-.05a.64.64,0,0,1-.6-.69c.06-1,.1-2,.1-3a.67.67,0,0,1,.65-.68.63.63,0,0,1,.66.63c0,1.09,0,2.14-.11,3.18A.65.65,0,0,1,64.51,81.44ZM45.39,78.3a.66.66,0,0,1-.65-.6c-.08-1-.21-2-.36-3.08a.65.65,0,0,1,1.29-.19c.16,1.07.29,2.13.38,3.16a.65.65,0,0,1-.6.7Zm19.07-3.66a.65.65,0,0,1-.65-.6c-.08-1-.2-2.06-.36-3.07a.65.65,0,0,1,.55-.74.64.64,0,0,1,.74.54c.16,1,.29,2.11.37,3.17a.65.65,0,0,1-.59.7Zm-20.1-3.06a.66.66,0,0,1-.64-.52c-.21-1-.45-2-.72-3a.66.66,0,0,1,1.27-.33c.27,1.05.52,2.08.73,3.08a.64.64,0,0,1-.5.77Zm19-3.65a.65.65,0,0,1-.63-.5c-.14-.57-.28-1.13-.44-1.69s-.24-.86-.38-1.3a.65.65,0,0,1,1.25-.38q.21.68.39,1.32c.16.58.31,1.17.45,1.75a.66.66,0,0,1-.49.79ZM42.63,65a.66.66,0,0,1-.63-.47c-.33-1.1-.66-2.1-.94-3a.64.64,0,0,1,.41-.82.66.66,0,0,1,.83.42c.29.88.61,1.89,1,3a.66.66,0,0,1-.43.82A.63.63,0,0,1,42.63,65Zm18.78-3.58A.65.65,0,0,1,60.8,61c-.36-1-.74-2-1.14-2.89a.66.66,0,1,1,1.21-.51c.4.95.79,1.95,1.16,2.95a.66.66,0,0,1-.39.84A.62.62,0,0,1,61.41,61.43ZM42.63,58.68a.58.58,0,0,1-.26-.06.66.66,0,0,1-.34-.86,26.77,26.77,0,0,1,1.48-2.86.66.66,0,0,1,.9-.23.65.65,0,0,1,.22.9,25,25,0,0,0-1.4,2.72A.67.67,0,0,1,42.63,58.68Zm16.1-3.5a.66.66,0,0,1-.58-.35,28.55,28.55,0,0,0-1.51-2.68.65.65,0,0,1,.19-.9.66.66,0,0,1,.91.19c.51.8,1,1.74,1.58,2.8a.65.65,0,0,1-.29.87A.66.66,0,0,1,58.73,55.18ZM46.19,52.9a.66.66,0,0,1-.5-1.08,15,15,0,0,1,2.37-2.26.65.65,0,1,1,.78,1,13.25,13.25,0,0,0-2.15,2.06A.67.67,0,0,1,46.19,52.9Zm8.61-3.19a.69.69,0,0,1-.36-.11,1.55,1.55,0,0,0-.45-.22,5.11,5.11,0,0,0-2.13-.13.66.66,0,0,1-.75-.54.66.66,0,0,1,.55-.75,6.38,6.38,0,0,1,2.68.16,3.21,3.21,0,0,1,.82.39.66.66,0,0,1,.19.9A.68.68,0,0,1,54.8,49.71Z"/><path class="cls-4" d="M45.06,62.55c1,8.67,11.76,29.24-10.38,43.91-12.5,8.29-23.93,2.39-23.95,5.83,0,4,13,8.22,28.39,1.38C58.57,105,63.24,84.72,60.25,67.36c-1.4-8.13-5.39-15-8-15.2C47.7,51.73,44.67,59.06,45.06,62.55Z"/><path class="cls-5" d="M47,64.47c1.58,6.93,3.9,22.68,7.18,23.5s7.76-16.58,4.33-24.92S45.41,57.58,47,64.47Z"/><path class="cls-5" d="M43.25,7.06c-5.17-1-9.73,5.55-2.37,7.51S48.42,8.06,43.25,7.06Z"/></g></g></svg>