<svg xmlns="http://www.w3.org/2000/svg" viewBox="0 0 56.61 74.76"><defs><style>.cls-1{opacity:0.15;}.cls-2{fill:#d069ff;}.cls-3{fill:#a426de;}.cls-4{fill:#d17efc;}.cls-5{fill:#d38fff;}</style></defs><title>char4Asset 10</title><g id="Layer_2" data-name="Layer 2"><g id="Layer_1-2" data-name="Layer 1"><path class="cls-1" d="M21.36,6.69c-5.24.2-8.26,13.34-5.09,17.47s19.8,8.39,18.12,18.12c-1,5.78-19.07,6.23-26.38,4.32S-2.4,70.24,5.67,73.73c8.7,3.78,43.79-2.63,49.11-22.87C60.22,30.17,40.61,6,21.36,6.69Z"/><path class="cls-2" d="M21.36.93c-5.24.2-8.26,13.35-5.09,17.48s19.8,8.38,18.12,18.11c-1,5.78-19.07,6.23-26.38,4.33S-2.4,64.48,5.67,68c8.7,3.77,43.79-2.64,49.11-22.88C60.22,24.41,40.61.19,21.36.93Z"/><path class="cls-3" d="M12.58,69.92h0a19.36,19.36,0,0,1-7.28-1.1c-5.53-2.4-6-13-4.64-19.77,1.2-5.77,3.66-9.22,6.58-9.22a3.81,3.81,0,0,1,1,.13,41.59,41.59,0,0,0,9.66,1c8.71,0,15.12-1.88,15.58-4.58,1-6-5.92-9.86-11.52-13-2.83-1.58-5.28-2.94-6.41-4.41-2.34-3-1.69-9.8.37-14.21,1.4-3,3.32-4.66,5.4-4.74,9.51-.36,19.57,5.11,26.81,14.5s10.12,21,7.54,30.81-11.3,15.55-18.2,18.78A62.72,62.72,0,0,1,12.58,69.92ZM7.24,41.66c-1.93,0-3.81,3.05-4.79,7.76C1,56.59,2.05,65.41,6,67.14a18,18,0,0,0,6.55,1c12.28,0,37-6.81,41.32-23.22,2.44-9.28-.26-20.21-7.22-29.23S30.31,1.5,21.39,1.85c-1.35,0-2.74,1.39-3.81,3.69-2,4.25-2.27,10.11-.58,12.31.9,1.17,3.31,2.51,5.85,3.93,5.78,3.23,13.7,7.64,12.44,14.9-1,5.65-13.56,6.09-17.39,6.09a43.19,43.19,0,0,1-10.12-1A2,2,0,0,0,7.24,41.66Z"/><path class="cls-3" d="M14.57,65.68a.66.66,0,0,1,0-1.31c1,0,2-.07,3.08-.18a.65.65,0,1,1,.13,1.3c-1.12.11-2.19.18-3.19.19Zm-3.65-.24h-.11a9.12,9.12,0,0,1-2.14-.6,5.93,5.93,0,0,1-1-.59.66.66,0,0,1,.76-1.07,3.77,3.77,0,0,0,.8.46,8,8,0,0,0,1.84.51.65.65,0,0,1,.54.75A.66.66,0,0,1,10.92,65.44ZM21.33,65a.65.65,0,0,1-.64-.54.66.66,0,0,1,.53-.76c1-.18,2-.39,3-.64a.65.65,0,0,1,.31,1.27c-1,.25-2.09.47-3.11.66Zm6.61-1.63a.65.65,0,0,1-.2-1.27c1-.31,2-.65,2.94-1a.66.66,0,0,1,.84.39.65.65,0,0,1-.38.84c-1,.36-2,.71-3,1A.42.42,0,0,1,27.94,63.35ZM5.84,61.47a.64.64,0,0,1-.6-.4,12.86,12.86,0,0,1-.86-3.18.65.65,0,0,1,.55-.74.64.64,0,0,1,.74.55,12.18,12.18,0,0,0,.77,2.86.65.65,0,0,1-.35.86A.74.74,0,0,1,5.84,61.47Zm28.45-.53A.66.66,0,0,1,34,59.69c.95-.43,1.89-.89,2.78-1.37a.65.65,0,0,1,.88.27.66.66,0,0,1-.26.89c-.92.49-1.88,1-2.86,1.4A.63.63,0,0,1,34.29,60.94Zm6-3.25a.68.68,0,0,1-.55-.3.65.65,0,0,1,.19-.9c.88-.58,1.72-1.19,2.5-1.8a.65.65,0,0,1,.92.1.66.66,0,0,1-.11.92c-.81.64-1.68,1.27-2.59,1.87A.69.69,0,0,1,40.26,57.69ZM4.89,54.79h0a.66.66,0,0,1-.61-.69,19.7,19.7,0,0,1,.47-3.21.65.65,0,1,1,1.27.3,18.25,18.25,0,0,0-.43,3A.65.65,0,0,1,4.89,54.79Zm40.64-1.37a.65.65,0,0,1-.45-.19.66.66,0,0,1,0-.93,22.39,22.39,0,0,0,2-2.3.65.65,0,0,1,.92-.12.64.64,0,0,1,.12.91A25,25,0,0,1,46,53.22.67.67,0,0,1,45.53,53.42ZM6.6,48.27a.79.79,0,0,1-.32-.08A.67.67,0,0,1,6,47.3a6.23,6.23,0,0,1,2.36-2.54.65.65,0,0,1,.88.27.64.64,0,0,1-.26.88,5.09,5.09,0,0,0-1.84,2A.63.63,0,0,1,6.6,48.27ZM49.55,48A.67.67,0,0,1,49,47a17.21,17.21,0,0,0,1.14-2.79.65.65,0,0,1,.82-.42.64.64,0,0,1,.43.81,18.92,18.92,0,0,1-1.23,3A.66.66,0,0,1,49.55,48ZM19,46.53a.65.65,0,0,1-.65-.65.66.66,0,0,1,.65-.66c1,0,2.07,0,3.09-.11a.65.65,0,1,1,.1,1.3c-1.05.08-2.12.12-3.18.12Zm-3.65-.13h-.06c-1.15-.1-2.22-.23-3.17-.4a.66.66,0,1,1,.23-1.29,30.2,30.2,0,0,0,3.05.38.66.66,0,0,1-.05,1.31ZM25.8,46a.66.66,0,0,1-.65-.55.66.66,0,0,1,.54-.75c1.07-.18,2.08-.4,3-.65a.67.67,0,0,1,.81.46.66.66,0,0,1-.46.8A31.91,31.91,0,0,1,25.9,46Zm6.5-1.93a.66.66,0,0,1-.59-.37.64.64,0,0,1,.3-.87,10.74,10.74,0,0,0,2.45-1.62.65.65,0,1,1,.88,1A11.51,11.51,0,0,1,32.58,44,.58.58,0,0,1,32.3,44.06ZM51.49,41.5h-.07a.66.66,0,0,1-.58-.72,22.27,22.27,0,0,0,.16-2.6c0-.15,0-.3,0-.44a.66.66,0,0,1,1.31,0v.47a22.58,22.58,0,0,1-.16,2.75A.66.66,0,0,1,51.49,41.5ZM36.82,39.27a.65.65,0,0,1-.62-.85,9.6,9.6,0,0,0,.46-2.86.66.66,0,0,1,.65-.67.65.65,0,0,1,.66.64v0a10.69,10.69,0,0,1-.53,3.26A.65.65,0,0,1,36.82,39.27Zm14.49-4.55a.65.65,0,0,1-.65-.54,29.82,29.82,0,0,0-.65-3,.64.64,0,0,1,.46-.8.65.65,0,0,1,.8.45A28,28,0,0,1,52,34a.65.65,0,0,1-.54.75Zm-14.69-2.1a.64.64,0,0,1-.61-.41,12.5,12.5,0,0,0-1.43-2.61.66.66,0,0,1,.16-.91.65.65,0,0,1,.91.16,13.41,13.41,0,0,1,1.57,2.88.65.65,0,0,1-.37.85A.66.66,0,0,1,36.62,32.62Zm12.86-4.43a.66.66,0,0,1-.61-.41c-.37-.94-.79-1.89-1.25-2.82a.66.66,0,0,1,1.18-.58c.47,1,.91,1.95,1.29,2.92a.65.65,0,0,1-.37.84A.52.52,0,0,1,49.48,28.19ZM32.74,27.1a.63.63,0,0,1-.46-.19c-.68-.67-1.44-1.34-2.3-2a.66.66,0,0,1,.83-1c.89.73,1.67,1.43,2.39,2.13a.66.66,0,0,1,0,.93A.63.63,0,0,1,32.74,27.1Zm-5.28-4.29a.63.63,0,0,1-.37-.12c-.91-.64-1.81-1.24-2.59-1.76a.65.65,0,0,1-.18-.9.66.66,0,0,1,.91-.18c.78.52,1.69,1.13,2.61,1.77a.66.66,0,0,1,.16.91A.64.64,0,0,1,27.46,22.81Zm19-.7a.65.65,0,0,1-.56-.31c-.53-.88-1.1-1.75-1.7-2.59a.65.65,0,0,1,.16-.91.65.65,0,0,1,.91.15c.61.87,1.2,1.77,1.75,2.67a.66.66,0,0,1-.22.9A.72.72,0,0,1,46.45,22.11ZM21.83,19a.62.62,0,0,1-.38-.13,9.26,9.26,0,0,1-1.93-1.71,6.36,6.36,0,0,1-.46-.69.65.65,0,1,1,1.14-.64,5.41,5.41,0,0,0,.35.53,8.74,8.74,0,0,0,1.67,1.46.65.65,0,0,1,.14.91A.64.64,0,0,1,21.83,19Zm20.66-2.4a.62.62,0,0,1-.5-.23c-.66-.79-1.36-1.56-2.07-2.3a.65.65,0,0,1,.94-.91c.73.76,1.45,1.56,2.13,2.37a.65.65,0,0,1-.5,1.07ZM18.71,13.27a.64.64,0,0,1-.65-.62c0-.16,0-.32,0-.48a11.67,11.67,0,0,1,.35-2.83.66.66,0,0,1,.8-.46.65.65,0,0,1,.47.79,10,10,0,0,0-.32,2.5c0,.14,0,.28,0,.42a.64.64,0,0,1-.62.68Zm19-1.54a.61.61,0,0,1-.42-.16c-.8-.69-1.61-1.33-2.41-1.92a.65.65,0,1,1,.76-1.06c.84.61,1.68,1.28,2.5,2a.64.64,0,0,1,.07.92A.66.66,0,0,1,37.73,11.73ZM32.2,7.8a.72.72,0,0,1-.32-.08,22,22,0,0,0-2.76-1.3.65.65,0,0,1,.47-1.22,23.87,23.87,0,0,1,2.92,1.37.66.66,0,0,1,.26.89A.64.64,0,0,1,32.2,7.8ZM20.67,6.92a.64.64,0,0,1-.43-.16.66.66,0,0,1,0-.93,4.83,4.83,0,0,1,3.12-1.66,11.51,11.51,0,0,1,2.61.06.66.66,0,0,1,.56.74.67.67,0,0,1-.74.56,10,10,0,0,0-2.3-.06,3.49,3.49,0,0,0-2.28,1.24A.67.67,0,0,1,20.67,6.92Z"/><path class="cls-4" d="M25.86,8.67c-4.06.24-5.49,3.53-3,6.74S44.36,24.24,39.46,39.6c-3.18,10-21,9.24-26.84,8.44-5.12-.69-8.12,9.7-1.87,12.41,6.75,2.93,33.68-1.76,37.06-17.64C51.77,24.22,34.06,8.19,25.86,8.67Z"/><path class="cls-5" d="M31.8,51.2c-.2-3.48-21.09-3-19.87,3S32.15,57.3,31.8,51.2Z"/></g></g></svg>