<svg xmlns="http://www.w3.org/2000/svg" viewBox="0 0 68.62 85.21"><defs><style>.cls-1{opacity:0.15;}.cls-2{fill:#ff9f31;}.cls-3{fill:#ff7817;}.cls-4{fill:#fca95e;}.cls-5{fill:#fcb783;}</style></defs><title>char4Asset 12</title><g id="Layer_2" data-name="Layer 2"><g id="Layer_1-2" data-name="Layer 1"><path class="cls-1" d="M38.05,23.49c3.38,10.37,9.21,29.45-6.76,39.27S.92,64.19.92,70.42c0,12.09,21.26,19.7,40.51,11.14C65.74,70.76,71.48,46,65.55,24.8c-2.28-8.17-6.86-16.91-9.94-17.86C47.87,4.55,36.45,18.57,38.05,23.49Z"/><path class="cls-2" d="M38.05,17.73C41.43,28.11,47.26,47.18,31.29,57S.92,58.43.92,64.66c0,12.09,21.26,19.7,40.51,11.15C65.74,65,71.48,40.25,65.55,19c-2.28-8.17-6.86-16.9-9.94-17.85C47.87-1.2,36.45,12.82,38.05,17.73Z"/><path class="cls-3" d="M24.39,80.37C10.71,80.37,0,73.47,0,64.66c0-3.49,3.59-3.49,5.74-3.49.73,0,1.54,0,2.41,0,1,0,2.09.06,3.25.06a35.42,35.42,0,0,0,19.41-5.05C46.49,46.58,40.2,27.29,37.18,18c-.67-2.08.48-5.45,3.08-9,3-4.15,8.35-9,13.5-9a7.39,7.39,0,0,1,2.12.31c3.64,1.13,8.31,10.47,10.55,18.48,3.15,11.28,2.89,22.94-.74,32.85-4.12,11.24-12.38,19.89-23.89,25A43.22,43.22,0,0,1,24.39,80.37ZM5.74,63c-3.64,0-3.91.66-3.91,1.66,0,7.78,9.91,13.88,22.56,13.88A41.32,41.32,0,0,0,41.06,75C66.78,63.54,69.85,37.83,64.67,19.29c-2.51-9-7-16.51-9.33-17.23a5.44,5.44,0,0,0-1.58-.23c-4.18,0-9,4.13-12,8.23-2.19,3-3.29,5.92-2.82,7.39,3.17,9.72,9.75,29.94-7.16,40.33A37.1,37.1,0,0,1,11.4,63.1c-1.19,0-2.31,0-3.3-.05S6.46,63,5.74,63Z"/><path class="cls-3" d="M25,76.62a.66.66,0,0,1,0-1.31c1,0,2.06-.08,3.08-.19a.65.65,0,0,1,.72.58.67.67,0,0,1-.59.72c-1,.11-2.12.18-3.18.2Zm-3.66-.11h-.05c-1.07-.09-2.14-.22-3.18-.4a.65.65,0,1,1,.23-1.28c1,.17,2,.29,3.05.37a.66.66,0,0,1-.05,1.31Zm10.4-.64a.65.65,0,0,1-.13-1.29c1-.2,2-.45,3-.73a.66.66,0,0,1,.81.44.65.65,0,0,1-.45.81c-1,.3-2.06.55-3.1.76ZM14.62,75.3l-.19,0a25.51,25.51,0,0,1-3-1.09.65.65,0,1,1,.52-1.2,25.46,25.46,0,0,0,2.87,1,.65.65,0,0,1-.18,1.28ZM38.21,74A.66.66,0,0,1,38,72.68c.45-.18.91-.37,1.36-.57s1-.44,1.46-.68a.66.66,0,0,1,.57,1.18c-.49.24-1,.47-1.5.7s-.94.4-1.41.59A.69.69,0,0,1,38.21,74ZM8.46,72.48a.7.7,0,0,1-.37-.11,12.18,12.18,0,0,1-2.46-2.22.66.66,0,0,1,1-.83,10.56,10.56,0,0,0,2.18,2,.65.65,0,0,1-.37,1.19ZM44.3,70.93A.65.65,0,0,1,44,69.72c.89-.53,1.76-1.09,2.59-1.68a.65.65,0,0,1,.91.16.65.65,0,0,1-.16.91c-.86.61-1.76,1.19-2.67,1.73A.66.66,0,0,1,44.3,70.93ZM4.76,67.08a.65.65,0,0,1-.66-.63v-.18c0-.15,0-.29,0-.44.14-1.65,2-1.84,2.55-1.9a.65.65,0,1,1,.14,1.3c-1.34.14-1.37.52-1.39.72s0,.21,0,.32v.13a.66.66,0,0,1-.63.68ZM49.83,67a.65.65,0,0,1-.42-1.15c.78-.67,1.55-1.37,2.28-2.08a.65.65,0,0,1,.92.93c-.76.74-1.55,1.46-2.36,2.15A.66.66,0,0,1,49.83,67ZM13.54,65.3h0c-1.08,0-2.1,0-3-.07h-.15a.65.65,0,0,1-.63-.67.66.66,0,0,1,.67-.64h.15c.89,0,1.9.06,3,.07a.66.66,0,0,1,.65.66A.65.65,0,0,1,13.54,65.3Zm3.66-.09a.65.65,0,0,1,0-1.3c1.05-.07,2.08-.17,3.07-.31a.67.67,0,0,1,.74.56.66.66,0,0,1-.56.74c-1,.14-2.09.25-3.17.31Zm6.71-1a.65.65,0,0,1-.15-1.29c1-.24,2-.53,2.95-.86a.66.66,0,0,1,.43,1.24c-1,.34-2,.64-3.07.89Zm30.73-2a.66.66,0,0,1-.43-.16.65.65,0,0,1-.07-.92c.66-.78,1.3-1.6,1.9-2.43a.66.66,0,1,1,1.06.77c-.62.85-1.28,1.7-2,2.51A.67.67,0,0,1,54.64,62.21ZM30.32,62a.65.65,0,0,1-.59-.37.64.64,0,0,1,.31-.87c.77-.36,1.54-.76,2.29-1.18l.44-.25a.64.64,0,0,1,.89.23.66.66,0,0,1-.24.9L33,60.7c-.78.44-1.57.85-2.37,1.22A.71.71,0,0,1,30.32,62Zm5.81-3.5a.64.64,0,0,1-.52-.25.65.65,0,0,1,.12-.92,26.12,26.12,0,0,0,2.29-2,.65.65,0,0,1,.93,0,.66.66,0,0,1,0,.93,26.07,26.07,0,0,1-2.41,2.12A.66.66,0,0,1,36.13,58.48Zm22.45-1.8a.63.63,0,0,1-.33-.09.65.65,0,0,1-.23-.9c.52-.88,1-1.79,1.47-2.71a.65.65,0,1,1,1.17.58c-.47.95-1,1.89-1.52,2.8A.66.66,0,0,1,58.58,56.68Zm-17.72-3a.6.6,0,0,1-.38-.13.65.65,0,0,1-.15-.91A20.72,20.72,0,0,0,42,50a.65.65,0,0,1,1.15.62,21.93,21.93,0,0,1-1.71,2.73A.65.65,0,0,1,40.86,53.64Zm20.7-3.06a.69.69,0,0,1-.24,0,.66.66,0,0,1-.37-.85c.38-1,.72-1.93,1-2.91a.64.64,0,0,1,.81-.43.65.65,0,0,1,.43.82c-.31,1-.66,2-1,3A.66.66,0,0,1,61.56,50.58ZM44,47.64a.52.52,0,0,1-.21,0,.65.65,0,0,1-.4-.83,27,27,0,0,0,.82-2.94.65.65,0,0,1,.78-.5.64.64,0,0,1,.5.78,25.57,25.57,0,0,1-.87,3.09A.65.65,0,0,1,44,47.64Zm19.55-3.56-.14,0a.65.65,0,0,1-.5-.78c.22-1,.41-2,.57-3a.65.65,0,0,1,.74-.55.66.66,0,0,1,.55.75c-.16,1.05-.35,2.1-.58,3.13A.66.66,0,0,1,63.54,44.08ZM45.4,41h-.06a.65.65,0,0,1-.59-.71c.09-1,.14-2,.14-3.07a.67.67,0,0,1,.66-.66h0a.66.66,0,0,1,.65.66c0,1.09-.05,2.16-.15,3.19A.65.65,0,0,1,45.4,41Zm19.11-3.64h-.05a.64.64,0,0,1-.6-.69c.06-1,.1-2,.1-3a.67.67,0,0,1,.65-.67.64.64,0,0,1,.66.63c0,1.08,0,2.14-.11,3.18A.65.65,0,0,1,64.51,37.36ZM45.39,34.21a.65.65,0,0,1-.65-.59c-.08-1-.21-2-.36-3.08a.65.65,0,0,1,.55-.74.65.65,0,0,1,.74.55c.16,1.07.29,2.13.37,3.16a.64.64,0,0,1-.59.7Zm19.07-3.65a.65.65,0,0,1-.65-.6c-.08-1-.2-2.06-.36-3.07a.65.65,0,0,1,.55-.74.66.66,0,0,1,.75.55c.15,1,.28,2.1.36,3.16a.65.65,0,0,1-.6.7ZM44.36,27.5a.66.66,0,0,1-.64-.52c-.21-1-.45-2-.72-3a.66.66,0,0,1,.47-.8.65.65,0,0,1,.79.47c.28,1.05.53,2.08.74,3.08a.64.64,0,0,1-.5.77A.34.34,0,0,1,44.36,27.5Zm19-3.65a.65.65,0,0,1-.63-.5c-.14-.57-.28-1.14-.44-1.69s-.24-.86-.38-1.3A.65.65,0,0,1,63.2,20q.21.68.39,1.32c.16.58.31,1.16.45,1.75a.66.66,0,0,1-.49.79ZM42.63,20.93a.67.67,0,0,1-.63-.47c-.33-1.1-.66-2.1-.94-3a.64.64,0,0,1,.41-.82.65.65,0,0,1,.83.42c.28.88.61,1.89,1,3a.66.66,0,0,1-.43.82Zm18.78-3.58a.65.65,0,0,1-.61-.43c-.36-1-.74-2-1.14-2.89a.65.65,0,0,1,.35-.85.66.66,0,0,1,.86.34c.4,1,.79,2,1.16,3a.65.65,0,0,1-.39.83A.62.62,0,0,1,61.41,17.35ZM42.63,14.6a.58.58,0,0,1-.26-.06.66.66,0,0,1-.34-.86,26.77,26.77,0,0,1,1.48-2.86.66.66,0,0,1,.9-.23.65.65,0,0,1,.22.9,25,25,0,0,0-1.4,2.72A.67.67,0,0,1,42.63,14.6Zm16.1-3.5a.67.67,0,0,1-.58-.35,28.55,28.55,0,0,0-1.51-2.68.65.65,0,1,1,1.1-.7,32,32,0,0,1,1.58,2.79A.65.65,0,0,1,59,11,.66.66,0,0,1,58.73,11.1ZM46.19,8.82a.7.7,0,0,1-.43-.15.67.67,0,0,1-.07-.93,15,15,0,0,1,2.37-2.26.67.67,0,0,1,.92.14.65.65,0,0,1-.14.91,13.25,13.25,0,0,0-2.15,2.06A.67.67,0,0,1,46.19,8.82ZM54.8,5.63a.69.69,0,0,1-.36-.11A1.55,1.55,0,0,0,54,5.3a5.12,5.12,0,0,0-2.13-.13.66.66,0,0,1-.75-.54.66.66,0,0,1,.55-.75A6.38,6.38,0,0,1,54.34,4a3.21,3.21,0,0,1,.82.39.66.66,0,0,1,.19.9A.68.68,0,0,1,54.8,5.63Z"/><path class="cls-4" d="M45.06,18.47c1,8.67,11.76,29.24-10.38,43.91-12.5,8.29-23.93,2.39-23.95,5.83,0,4.05,13,8.22,28.4,1.38C58.57,61,63.24,40.64,60.25,23.28c-1.4-8.13-5.39-14.95-8-15.2C47.7,7.65,44.67,15,45.06,18.47Z"/><path class="cls-5" d="M45.69,17.9c2.37,6.71,6.47,22.08,9.82,22.52S61.32,23.07,57,15.17,43.35,11.23,45.69,17.9Z"/></g></g></svg>