<svg xmlns="http://www.w3.org/2000/svg" viewBox="0 0 130.82 100.9"><defs><style>.cls-1{opacity:0.15;}.cls-2{fill:#2eddff;}.cls-3{fill:#00aade;}.cls-4{fill:#6bebfc;}.cls-5{fill:#95f2f9;}</style></defs><title>char-12Asset 32</title><g id="Layer_2" data-name="Layer 2"><g id="Layer_1-2" data-name="Layer 1"><path class="cls-1" d="M10.92,47.09c5.3-6.15,15.58-5.16,12.5,4.73-1.81,5.78-6.76,21.27,10.46,23.63s27-5.24,29.41-16c1.92-8.72-1.38-11.2-3.75-16.33S62.92,26.5,68,25.82s9.46,6.75,9.46,6.75,8.44,1.69,9.45-6.41,2.26-11.89,7.43-12.83c5-.91,8.78,3,8.44,6.75s4,6,7.32,4.83c4.4-1.52,3.94-8.54,0-11.58s1.63-8.44,9.14-6.08,16,15.29,6.41,31.4c-8.32,13.93-21.93,10.18-26.23,5.9-2.38,9-12.57,12.08-18.25,8.62,4.29,23.9-8.78,51.66-49.63,47.27S-1.57,61.61,10.92,47.09Z"/><path class="cls-2" d="M10.92,41.34c5.3-6.16,15.58-5.16,12.5,4.72-1.81,5.79-6.76,21.27,10.46,23.64s27-5.25,29.41-16c1.92-8.72-1.38-11.2-3.75-16.34S62.92,20.74,68,20.07s9.46,6.75,9.46,6.75,8.44,1.69,9.45-6.42S89.15,8.51,94.32,7.57c5-.9,8.78,3,8.44,6.76s4,6,7.32,4.83c4.4-1.53,3.94-8.55,0-11.59s1.63-8.44,9.14-6.07,16,15.29,6.41,31.4c-8.32,13.92-21.93,10.17-26.23,5.9-2.38,9-12.57,12.07-18.25,8.61,4.29,23.9-8.78,51.66-49.63,47.27S-1.57,55.86,10.92,41.34Z"/><path class="cls-3" d="M39.81,96.06a79.07,79.07,0,0,1-8.39-.47C12,93.51,4.61,84.72,1.84,77.73c-4.85-12.25.55-27.88,8.39-37a11.63,11.63,0,0,1,8.46-4.16,6,6,0,0,1,5.06,2.31c.92,1.24,1.76,3.55.54,7.45l0,.1c-1.19,3.8-3.66,11.7-.28,17,1.82,2.87,5.2,4.67,10,5.33a44,44,0,0,0,5.92.43C52,69.22,60.2,63.49,62.4,53.5c1.42-6.48-.11-9.19-2-12.62-.55-1-1.12-2-1.65-3.14-1.58-3.43.06-8.63,1.93-12,2.08-3.77,4.78-6.22,7.22-6.54a5.11,5.11,0,0,1,.78-.05C73.25,19.11,77,24.47,78,26a11.72,11.72,0,0,0,1.23.07c2.76,0,6.17-1,6.76-5.76.94-7.5,2-12.49,8.17-13.62a8.32,8.32,0,0,1,7.63,2.48,7,7,0,0,1,1.89,5.26,3.28,3.28,0,0,0,.89,2.57,5.14,5.14,0,0,0,3.71,1.56,4.43,4.43,0,0,0,1.51-.25,3.81,3.81,0,0,0,2.43-3.16,7.55,7.55,0,0,0-2.69-6.83,3.65,3.65,0,0,1-1.46-4.21C108.88,1.68,112,0,115.57,0a13.14,13.14,0,0,1,3.92.62c4.21,1.33,8,5.3,10,10.36,2.59,6.82,1.52,14.77-3,22.39-3.94,6.6-9.73,10.24-16.31,10.24a17.44,17.44,0,0,1-10.25-3.22,14.41,14.41,0,0,1-13.42,9.32,11.89,11.89,0,0,1-4.1-.71C84.16,61.62,81.15,73.66,74,82.26,66.4,91.29,54.6,96.06,39.81,96.06ZM18.69,38.41a9.77,9.77,0,0,0-7.07,3.52C4.14,50.63-1,65.48,3.54,77.05,7.24,86.42,17,92.2,31.62,93.77a75.22,75.22,0,0,0,8.19.46c14.23,0,25.55-4.55,32.74-13.15s10-20.79,7.7-33.5a.92.92,0,0,1,1.38-.95,9.13,9.13,0,0,0,4.8,1.25,12.55,12.55,0,0,0,12.08-9.32.91.91,0,0,1,.65-.64.9.9,0,0,1,.88.23,15,15,0,0,0,10.06,3.63c4.18,0,10.13-1.62,14.74-9.35,4.26-7.13,5.28-14.52,2.89-20.8-1.71-4.48-5.16-8.12-8.79-9.26a11.13,11.13,0,0,0-3.37-.54c-3.12,0-5.31,1.47-5.78,2.85a1.86,1.86,0,0,0,.84,2.17A9.35,9.35,0,0,1,114,15.42a5.6,5.6,0,0,1-3.64,4.6,6.49,6.49,0,0,1-2.11.35,6.91,6.91,0,0,1-5.06-2.15,5,5,0,0,1-1.36-4,5.11,5.11,0,0,0-1.43-3.85,6.45,6.45,0,0,0-5.94-1.92c-4.5.82-5.66,3.87-6.68,12-.59,4.68-3.71,7.36-8.58,7.36a11.91,11.91,0,0,1-2-.16.91.91,0,0,1-.61-.43c0-.07-3.81-6.35-8-6.35a4.58,4.58,0,0,0-.53,0c-1.85.25-4.09,2.4-5.86,5.61-2.17,3.94-2.92,8.12-1.88,10.4.5,1.08,1.05,2.06,1.59,3,1.95,3.48,3.8,6.75,2.22,13.91C61.82,64.63,52.75,71.05,39.93,71.05a44.5,44.5,0,0,1-6.17-.45c-5.39-.73-9.2-2.81-11.33-6.16-3.83-6-1.19-14.48.08-18.54l0-.11c.79-2.51.69-4.52-.26-5.82A4.28,4.28,0,0,0,18.69,38.41Z"/><path class="cls-3" d="M38.8,91.87h-.52a.66.66,0,0,1-.65-.66.65.65,0,0,1,.65-.65h.48c.88,0,1.77,0,2.63,0a.64.64,0,0,1,.68.62.65.65,0,0,1-.62.69C40.58,91.85,39.68,91.87,38.8,91.87Zm-4.17-.13h0c-1-.06-2.09-.15-3.16-.26a.64.64,0,0,1-.58-.71.66.66,0,0,1,.71-.59c1.05.11,2.1.2,3.11.26a.65.65,0,0,1,0,1.3Zm10.44-.19A.66.66,0,0,1,45,90.24c1-.11,2.07-.25,3.07-.42a.65.65,0,0,1,.21,1.29c-1,.17-2.08.32-3.14.43ZM27.87,91h-.11c-1.07-.18-2.11-.39-3.11-.63A.65.65,0,1,1,25,89.1c1,.23,2,.44,3,.61a.65.65,0,0,1,.54.75A.66.66,0,0,1,27.87,91Zm23.88-.63a.65.65,0,0,1-.15-1.29c1-.25,2-.54,3-.85a.65.65,0,1,1,.4,1.24c-1,.33-2,.62-3.06.88Zm-30.46-1a.57.57,0,0,1-.22,0c-1-.35-2-.75-3-1.18A.65.65,0,0,1,18.64,87,27.89,27.89,0,0,0,21.5,88.1a.65.65,0,0,1,.4.83A.64.64,0,0,1,21.29,89.38Zm36.9-1.15A.66.66,0,0,1,57.93,87c1-.41,1.89-.86,2.78-1.33a.65.65,0,1,1,.61,1.15c-.92.49-1.89,1-2.87,1.38A.58.58,0,0,1,58.19,88.23Zm-43-1.74a.64.64,0,0,1-.35-.1,25.14,25.14,0,0,1-2.61-1.88.66.66,0,0,1-.08-.92A.65.65,0,0,1,13,83.5a21.67,21.67,0,0,0,2.47,1.79.64.64,0,0,1,.2.9A.63.63,0,0,1,15.15,86.49Zm49-1.51a.64.64,0,0,1-.54-.29.65.65,0,0,1,.17-.91,29.7,29.7,0,0,0,2.46-1.84.65.65,0,0,1,.83,1,30.39,30.39,0,0,1-2.56,1.91A.62.62,0,0,1,64.15,85ZM10,82.1a.67.67,0,0,1-.5-.23A22.09,22.09,0,0,1,7.6,79.26a.66.66,0,0,1,1.12-.69A20.2,20.2,0,0,0,10.51,81a.65.65,0,0,1-.08.92A.67.67,0,0,1,10,82.1Zm59.33-1.49a.67.67,0,0,1-.46-.18.65.65,0,0,1,0-.93c.7-.73,1.38-1.51,2-2.31a.66.66,0,0,1,1,.81c-.66.84-1.37,1.65-2.1,2.41A.63.63,0,0,1,69.34,80.61ZM6.51,76.3a.63.63,0,0,1-.6-.41,23.8,23.8,0,0,1-1-3.06.67.67,0,0,1,.48-.8.66.66,0,0,1,.79.48,22.85,22.85,0,0,0,.94,2.9.66.66,0,0,1-.36.85A.73.73,0,0,1,6.51,76.3Zm67-1a.59.59,0,0,1-.34-.1.64.64,0,0,1-.22-.89,30.71,30.71,0,0,0,1.48-2.7.67.67,0,0,1,.88-.3.66.66,0,0,1,.3.88c-.47,1-1,1.9-1.54,2.8A.67.67,0,0,1,73.49,75.25Zm-34.31-.14h-.33a.66.66,0,1,1,0-1.31h.32c.91,0,1.83,0,2.75-.12a.66.66,0,0,1,.71.59.65.65,0,0,1-.59.71C41.09,75.07,40.13,75.11,39.18,75.11Zm-4-.26h-.09a27,27,0,0,1-3.15-.6A.65.65,0,0,1,32.29,73a26.26,26.26,0,0,0,3,.58.65.65,0,0,1-.09,1.3Zm10.4-.4a.66.66,0,0,1-.14-1.3c1-.21,2-.47,3-.77a.65.65,0,0,1,.39,1.24c-1,.32-2.06.59-3.1.81Zm-17-1.33a.79.79,0,0,1-.25-.05,22.18,22.18,0,0,1-2.89-1.43.65.65,0,0,1,.66-1.13,21,21,0,0,0,2.73,1.35.65.65,0,0,1,.36.86A.66.66,0,0,1,28.65,73.12Zm23.41-.77a.66.66,0,0,1-.6-.38.67.67,0,0,1,.33-.87,26.9,26.9,0,0,0,2.72-1.41.67.67,0,0,1,.9.24.65.65,0,0,1-.24.89,28.2,28.2,0,0,1-2.84,1.47A.66.66,0,0,1,52.06,72.35ZM4.93,69.72a.65.65,0,0,1-.65-.59,28.75,28.75,0,0,1-.15-3v-.25a.65.65,0,0,1,.65-.64h0a.66.66,0,0,1,.65.66v.23A26.29,26.29,0,0,0,5.58,69a.65.65,0,0,1-.59.71Zm17.94-.11a.64.64,0,0,1-.43-.16c-.54-.47-1.06-1-1.55-1.49-.25-.27-.49-.56-.72-.84a.66.66,0,0,1,1-.82c.2.26.42.52.65.77a18.9,18.9,0,0,0,1.44,1.39.64.64,0,0,1,.07.92A.65.65,0,0,1,22.87,69.61Zm53.55-.47a.85.85,0,0,1-.22,0,.66.66,0,0,1-.39-.84c.34-1,.65-1.94.91-2.94a.65.65,0,0,1,.79-.47.66.66,0,0,1,.47.8c-.27,1-.59,2.06-.94,3A.66.66,0,0,1,76.42,69.14Zm-18.55-.28a.68.68,0,0,1-.52-.25.65.65,0,0,1,.12-.92,26.16,26.16,0,0,0,2.3-2,.65.65,0,0,1,.92,0,.66.66,0,0,1,0,.93,27.15,27.15,0,0,1-2.41,2.11A.67.67,0,0,1,57.87,68.86Zm-39-4.64a.65.65,0,0,1-.6-.4,14.19,14.19,0,0,1-.89-3.16.65.65,0,0,1,1.29-.21,13.37,13.37,0,0,0,.81,2.87.65.65,0,0,1-.36.85A.53.53,0,0,1,18.83,64.22Zm43.81-.17a.61.61,0,0,1-.39-.13.66.66,0,0,1-.13-.92,23.91,23.91,0,0,0,1.7-2.54.66.66,0,0,1,.9-.23.65.65,0,0,1,.23.89,25.37,25.37,0,0,1-1.79,2.67A.65.65,0,0,1,62.64,64.05ZM5,62.93H5a.65.65,0,0,1-.57-.73c.12-1,.3-2.1.52-3.15a.67.67,0,0,1,.78-.51.65.65,0,0,1,.5.78c-.21,1-.38,2-.51,3A.65.65,0,0,1,5,62.93Zm73.06-.37H78a.66.66,0,0,1-.55-.75c.16-1,.28-2,.36-3.06a.65.65,0,1,1,1.3.1C79,59.9,78.9,61,78.74,62A.66.66,0,0,1,78.09,62.56ZM66,58.17a.74.74,0,0,1-.25-.05.66.66,0,0,1-.36-.85c.15-.37.3-.74.43-1.12.21-.58.39-1.18.54-1.76a.64.64,0,0,1,.79-.48.66.66,0,0,1,.48.79,18.66,18.66,0,0,1-.58,1.89q-.21.6-.45,1.17A.64.64,0,0,1,66,58.17Zm-48.23-.61h0a.64.64,0,0,1-.62-.68,25.5,25.5,0,0,1,.32-3.19.64.64,0,0,1,.74-.55.65.65,0,0,1,.55.74,27.66,27.66,0,0,0-.31,3A.65.65,0,0,1,17.78,57.56ZM6.48,56.3a.69.69,0,0,1-.2,0,.66.66,0,0,1-.42-.83c.32-1,.68-2,1.09-3a.65.65,0,0,1,.85-.35.66.66,0,0,1,.36.85c-.39.94-.75,1.92-1.06,2.9A.65.65,0,0,1,6.48,56.3Zm72.07-.52a.64.64,0,0,1-.65-.64c0-1-.08-2-.17-3.08a.66.66,0,0,1,.6-.71.65.65,0,0,1,.7.59c.1,1.06.16,2.13.17,3.18a.64.64,0,0,1-.64.66Zm-11-4.2h0a.65.65,0,0,1-.63-.68c0-.23,0-.45,0-.67a19.06,19.06,0,0,0-.15-2.36.65.65,0,0,1,1.3-.16,21.73,21.73,0,0,1,.16,2.52c0,.24,0,.48,0,.72A.65.65,0,0,1,67.51,51.58Zm-48.72-.74h-.14a.65.65,0,0,1-.5-.78l.19-.86c.17-.77.34-1.51.47-2.19a.66.66,0,0,1,.77-.52.66.66,0,0,1,.52.77c-.14.7-.31,1.44-.48,2.23l-.19.85A.65.65,0,0,1,18.79,50.84ZM9.12,50A.68.68,0,0,1,8.81,50a.66.66,0,0,1-.27-.89,30.4,30.4,0,0,1,1.68-2.73.65.65,0,1,1,1.08.74A27.21,27.21,0,0,0,9.69,49.7.65.65,0,0,1,9.12,50Zm68.79-1a.64.64,0,0,1-.64-.54c-.18-1-.39-2-.63-3a.66.66,0,0,1,.48-.79.65.65,0,0,1,.79.48c.25,1,.47,2.09.64,3.12A.64.64,0,0,1,78,49Zm9-2.75a13.75,13.75,0,0,1-3.12-.4.65.65,0,0,1-.49-.78.66.66,0,0,1,.79-.49,12.73,12.73,0,0,0,2.82.36H87a.66.66,0,0,1,0,1.31Zm3.65-.87a.65.65,0,0,1-.31-1.23,8.72,8.72,0,0,0,2.28-1.81.65.65,0,0,1,1,.89,9.9,9.9,0,0,1-2.62,2.07A.68.68,0,0,1,90.53,45.4Zm-23.91-.53a.65.65,0,0,1-.63-.48c-.27-.92-.6-1.87-1-2.9A.65.65,0,1,1,66.2,41c.42,1.06.76,2.05,1,3a.65.65,0,0,1-.44.81Zm13.79,0a.57.57,0,0,1-.22,0c-1-.35-2-.75-3-1.12a.65.65,0,0,1-.37-.85.66.66,0,0,1,.85-.37c.94.37,2,.76,2.91,1.11a.66.66,0,0,1,.4.84A.67.67,0,0,1,80.41,44.82ZM13.1,44.56a.67.67,0,0,1-.47-.2.66.66,0,0,1,0-.93,9.34,9.34,0,0,1,2.74-1.93.65.65,0,0,1,.52,1.2,8.09,8.09,0,0,0-2.35,1.67A.63.63,0,0,1,13.1,44.56Zm6.58-.41a.66.66,0,0,1-.64-.51c-.13-.59-.43-1.15-1.69-1.23a.66.66,0,0,1-.62-.69.67.67,0,0,1,.7-.62,2.8,2.8,0,0,1,2.89,2.25.65.65,0,0,1-.5.78Zm75.45-3.64a.66.66,0,0,1-.33-.09.66.66,0,0,1-.23-.9c.48-.8,1-1.71,1.44-2.71a.65.65,0,1,1,1.18.56c-.49,1-1,2-1.49,2.83A.67.67,0,0,1,95.13,40.51Zm-31-2a.65.65,0,0,1-.59-.38l-.47-1a9.64,9.64,0,0,1-.66-2.07.66.66,0,1,1,1.29-.25,7.63,7.63,0,0,0,.56,1.77l.47,1a.66.66,0,0,1-.32.87A.69.69,0,0,1,64.13,38.54Zm46.44-.1a.66.66,0,0,1,0-1.31,16.11,16.11,0,0,0,3-.32.65.65,0,0,1,.77.51.64.64,0,0,1-.5.77,18.06,18.06,0,0,1-3.24.35Zm-3.65-.29h-.11a22.69,22.69,0,0,1-3.13-.77.64.64,0,0,1-.42-.82.65.65,0,0,1,.82-.42,21.15,21.15,0,0,0,3,.72.65.65,0,0,1-.11,1.3Zm10.22-1.22a.66.66,0,0,1-.59-.36.67.67,0,0,1,.3-.88,12.14,12.14,0,0,0,2.49-1.63.66.66,0,0,1,.92.08.65.65,0,0,1-.08.92,13.62,13.62,0,0,1-2.75,1.81A.72.72,0,0,1,117.14,36.93Zm-16.63-1a.71.71,0,0,1-.31-.08A12.6,12.6,0,0,1,98,34.38a.65.65,0,0,1-.19,0,.66.66,0,0,1-.38-.85l.06-.15a.67.67,0,0,1,.48-.4.65.65,0,0,1,.59.18,10.46,10.46,0,0,0,2.27,1.62.66.66,0,0,1-.32,1.23ZM122.2,32.5a.62.62,0,0,1-.37-.11.66.66,0,0,1-.17-.91c.22-.32.43-.66.63-1,.32-.55.61-1.1.89-1.64a.66.66,0,0,1,1.17.59c-.29.56-.6,1.13-.93,1.7-.21.38-.44.74-.68,1.09A.64.64,0,0,1,122.2,32.5ZM63,32H62.9a.65.65,0,0,1-.56-.74,12.62,12.62,0,0,1,.9-3.18.65.65,0,1,1,1.2.52,10.85,10.85,0,0,0-.8,2.85A.66.66,0,0,1,63,32Zm13.69-.12a.66.66,0,0,1-.61-.42s-.16-.42-.46-1a.65.65,0,1,1,1.17-.58c.14.29.25.53.33.71.33,0,.84,0,1.46-.11a.66.66,0,0,1,.72.59.65.65,0,0,1-.59.71c-1.2.13-2,.14-2,.14Zm5.57-.73a.65.65,0,0,1-.63-.51.64.64,0,0,1,.48-.78,19,19,0,0,0,2.9-.92.66.66,0,0,1,.85.36.64.64,0,0,1-.36.85,19.7,19.7,0,0,1-3.09,1Zm6.14-2.79a.67.67,0,0,1-.5-.23.65.65,0,0,1,.08-.92,6.24,6.24,0,0,0,1.71-2.24.65.65,0,0,1,.86-.33.66.66,0,0,1,.34.86,7.64,7.64,0,0,1-2.06,2.7A.66.66,0,0,1,88.39,28.33ZM74.3,27.62a.65.65,0,0,1-.52-.26,9.17,9.17,0,0,0-2.06-2.07.65.65,0,0,1,.74-1.08,10.53,10.53,0,0,1,2.36,2.36.66.66,0,0,1-.12.92A.73.73,0,0,1,74.3,27.62Zm50.9-1.2a.76.76,0,0,1-.21,0,.67.67,0,0,1-.41-.84,20.71,20.71,0,0,0,.81-2.93.66.66,0,0,1,1.29.26,22.68,22.68,0,0,1-.86,3.11A.65.65,0,0,1,125.2,26.42ZM65.9,26a.73.73,0,0,1-.49-.21.67.67,0,0,1,0-.93,6,6,0,0,1,3.08-1.58.65.65,0,1,1,.23,1.28,4.85,4.85,0,0,0-2.42,1.26A.66.66,0,0,1,65.9,26Zm42.69-2.07a.65.65,0,0,1-.16-1.28l.11,0a22.05,22.05,0,0,0,2.7-1,.65.65,0,1,1,.56,1.18,21.58,21.58,0,0,1-2.86,1.11l-.19.05A.41.41,0,0,1,108.59,23.89ZM105,23.38a.7.7,0,0,1-.25-.05,12.68,12.68,0,0,1-2.86-1.66.65.65,0,0,1-.12-.92.66.66,0,0,1,.92-.12,11.39,11.39,0,0,0,2.56,1.49.65.65,0,0,1,.35.85A.64.64,0,0,1,105,23.38ZM91,22.29h-.06a.66.66,0,0,1-.59-.71c.09-1.11.15-2.14.19-3.11a.66.66,0,1,1,1.31.07c0,1-.1,2-.2,3.15A.65.65,0,0,1,91,22.29Zm23.65-1.48a.65.65,0,0,1-.5-.22.66.66,0,0,1,.07-.92A7.62,7.62,0,0,0,116,17.43a.65.65,0,0,1,.88-.28.66.66,0,0,1,.29.88,9,9,0,0,1-2.1,2.62A.66.66,0,0,1,114.6,20.81Zm11.79-1a.66.66,0,0,1-.66-.65,14.63,14.63,0,0,0-.33-3,.66.66,0,1,1,1.28-.28,15.86,15.86,0,0,1,.36,3.25.66.66,0,0,1-.65.66Zm-26.51-.66a.64.64,0,0,1-.57-.35,4.38,4.38,0,0,1-.57-2.07c0-.1,0-.2,0-.31,0-.34.06-.68.08-1a.64.64,0,0,1,.69-.61.67.67,0,0,1,.62.7l-.09,1.05c0,.07,0,.13,0,.19a3,3,0,0,0,.42,1.45.66.66,0,0,1-.27.89A.68.68,0,0,1,99.88,19.11Zm-8.45-3.6h-.1a.65.65,0,0,1-.54-.75,5,5,0,0,1,1.48-3.17.65.65,0,0,1,.87,1A3.82,3.82,0,0,0,92.08,15,.66.66,0,0,1,91.43,15.51Zm25.88-.67a.64.64,0,0,1-.65-.63,9,9,0,0,0-.61-2.84.66.66,0,0,1,.38-.85.68.68,0,0,1,.85.38,10.17,10.17,0,0,1,.68,3.27.64.64,0,0,1-.63.67Zm7.51-1.63a.64.64,0,0,1-.58-.36,14.52,14.52,0,0,0-1.62-2.51.64.64,0,0,1,.1-.92.65.65,0,0,1,.92.1,16.3,16.3,0,0,1,1.77,2.75.65.65,0,0,1-.29.87A.66.66,0,0,1,124.82,13.21Zm-25.88-.7a.66.66,0,0,1-.53-.28c-.22-.29-.63-.69-1.82-.69l-.44,0a.66.66,0,0,1-.7-.61.65.65,0,0,1,.6-.7l.54,0a3.32,3.32,0,0,1,2.88,1.24.67.67,0,0,1-.15.92A.68.68,0,0,1,98.94,12.51Zm16.07-4a.67.67,0,0,1-.59-.35,6.47,6.47,0,0,1-.89-2.64A1.38,1.38,0,0,1,114,4.46a.66.66,0,0,1,.87,1s0,0,0,.1a5.2,5.2,0,0,0,.75,2,.65.65,0,0,1-.58.95ZM120.52,8a.61.61,0,0,1-.4-.14,14.26,14.26,0,0,0-2.06-1.32c-.17-.08-.33-.17-.5-.24a.66.66,0,0,1-.3-.88.65.65,0,0,1,.87-.3l.53.26a14.83,14.83,0,0,1,2.26,1.45.65.65,0,0,1,.12.92A.68.68,0,0,1,120.52,8Z"/><path class="cls-4" d="M121.49,28.48c6-9.28-1.92-20.6-1.92-15.42,0,5.43-3,13.22-13.06,12.69-3.59-.19-7.85-2.68-8.52-6-.74-3.63-.79-5.68-3.17-5.15S94,17.41,93.05,24.69,81.49,35.15,76.46,32.24c-5.93-3.43-2.56-4.73-6.67-5.43-3.88-.66-5.78,5.85-3.66,10.46s5.09,10.8,1.94,20.65C61.58,78.18,31,81,20.18,69.74,8.4,57.44,20.07,47.84,16.26,46,10.47,43.23-7.16,83.47,32.77,87.86c15.09,1.66,37-4.06,41.87-21.61s-.51-22.29-2-24.82,1.61-4.68,5.07-2.19c5.4,3.88,16.2,2.19,17.55-6.42.74-4.69,6-2.25,7.09-.67C104.48,35.42,114.94,38.58,121.49,28.48Z"/><path class="cls-5" d="M20.22,71.63c-9.54-7-11.57,5.89,3,11.79s26.13-2,17.32-4.14C33.44,77.56,26.94,76.55,20.22,71.63Z"/></g></g></svg>