<svg xmlns="http://www.w3.org/2000/svg" viewBox="0 0 45.86 85.26"><defs><style>.cls-1{opacity:0.15;}.cls-2{fill:#2e89ff;}.cls-3{fill:#0064e6;}.cls-4{fill:#58a5f9;}.cls-5{fill:#69b3f7;}</style></defs><title>char4Asset 11</title><g id="Layer_2" data-name="Layer 2"><g id="Layer_1-2" data-name="Layer 1"><path class="cls-1" d="M17.7,5.42C8.83,7.82,7.63,18.6,13.09,22.11c8.59,5.53,18,2.83,19.41-5.88C33.55,10,26.33,3.09,17.7,5.42Z"/><path class="cls-1" d="M17.3,34.64c-4.24.15-6.69,9.92-4.12,13s16,6.24,14.67,13.47C27,65.41,12.41,65.74,6.49,64.32S-1.94,81.9,4.59,84.5c7.05,2.8,35.47-2,39.79-17C48.79,52.1,32.9,34.09,17.3,34.64Z"/><path class="cls-2" d="M17.7,1.14C8.83,3.54,7.63,14.32,13.09,17.83c8.59,5.53,18,2.83,19.41-5.88C33.55,5.72,26.33-1.19,17.7,1.14Z"/><path class="cls-3" d="M22.08,21.39h0a17.6,17.6,0,0,1-9.42-3C9.9,16.61,8.55,13,9.22,9.28A11,11,0,0,1,17.49.49,13.74,13.74,0,0,1,21.12,0a12.82,12.82,0,0,1,9.37,4,9.57,9.57,0,0,1,2.75,8.05A10.83,10.83,0,0,1,22.08,21.39Zm-1-20a12.23,12.23,0,0,0-3.21.44,9.63,9.63,0,0,0-7.22,7.7c-.58,3.24.53,6.3,2.82,7.78A16,16,0,0,0,22.08,20a9.34,9.34,0,0,0,9.69-8.18,8.3,8.3,0,0,0-2.4-7A11.34,11.34,0,0,0,21.12,1.36Z"/><path class="cls-4" d="M19.28,5.09c-6.09.48-7,11.32,3.12,10C30.1,14.08,30,4.25,19.28,5.09Z"/><path class="cls-3" d="M21,19h-.13a.5.5,0,0,1-.52-.49.51.51,0,0,1,.53-.48H21a9,9,0,0,0,1.62-.15l.64-.13a.52.52,0,0,1,.64.34.48.48,0,0,1-.37.6l-.7.14A9.62,9.62,0,0,1,21,19Zm-3-.56a.78.78,0,0,1-.21,0,8.82,8.82,0,0,1-2.27-1.34.46.46,0,0,1,0-.69.55.55,0,0,1,.74,0,7.44,7.44,0,0,0,2,1.17.48.48,0,0,1,.28.64A.54.54,0,0,1,18,18.45Zm8.11-.81a.53.53,0,0,1-.45-.23.46.46,0,0,1,.16-.67,7.43,7.43,0,0,0,1.8-1.42.55.55,0,0,1,.74-.06.47.47,0,0,1,.07.69,9,9,0,0,1-2,1.61A.6.6,0,0,1,26.09,17.64ZM14,15.07a.51.51,0,0,1-.46-.24,9.6,9.6,0,0,1-1-2.26.48.48,0,0,1,.37-.6.53.53,0,0,1,.65.34,8.73,8.73,0,0,0,.93,2,.47.47,0,0,1-.2.66A.62.62,0,0,1,14,15.07Zm15.47-1.3a.55.55,0,0,1-.18,0,.48.48,0,0,1-.32-.63A6.77,6.77,0,0,0,29.44,11a.52.52,0,0,1,.56-.46.5.5,0,0,1,.5.51A7.7,7.7,0,0,1,30,13.45.54.54,0,0,1,29.48,13.77ZM12.67,10.23h0a.5.5,0,0,1-.51-.5,7.21,7.21,0,0,1,.5-2.43A.53.53,0,0,1,13.32,7a.48.48,0,0,1,.32.62,6.22,6.22,0,0,0-.44,2.13A.5.5,0,0,1,12.67,10.23Zm17-1.43a.52.52,0,0,1-.51-.34,6.94,6.94,0,0,0-1-2,.45.45,0,0,1,.13-.67.55.55,0,0,1,.74.12,7.55,7.55,0,0,1,1.15,2.24.46.46,0,0,1-.35.6A.39.39,0,0,1,29.63,8.8ZM14.75,5.69a.54.54,0,0,1-.39-.15.46.46,0,0,1,0-.69,7.11,7.11,0,0,1,2.34-1.3.53.53,0,0,1,.68.29.47.47,0,0,1-.31.62,6,6,0,0,0-2,1.1A.57.57,0,0,1,14.75,5.69Zm11.69-.88a.51.51,0,0,1-.29-.08A7.76,7.76,0,0,0,24,3.86a.48.48,0,0,1-.38-.59.54.54,0,0,1,.65-.35,9,9,0,0,1,2.47,1,.46.46,0,0,1,.15.67A.54.54,0,0,1,26.44,4.81ZM18.68,4a.52.52,0,0,1-.52-.36A.48.48,0,0,1,18.55,3a14.38,14.38,0,0,1,2.61-.37.51.51,0,0,1,.55.46.51.51,0,0,1-.5.51A13.18,13.18,0,0,0,18.8,4Z"/><path class="cls-2" d="M17.3,30.35c-4.24.15-6.69,9.93-4.12,13s16,6.24,14.67,13.47C27,61.13,12.41,61.46,6.49,60s-8.43,17.58-1.9,20.18c7.05,2.8,35.47-2,39.79-17C48.79,47.82,32.9,29.8,17.3,30.35Z"/><path class="cls-3" d="M10.19,81.66h0a16.75,16.75,0,0,1-5.89-.82C-.19,79.06-.6,71.17.54,66.14c1-4.29,3-6.86,5.33-6.86a3.82,3.82,0,0,1,.81.1,36.5,36.5,0,0,0,7.82.73c7.05,0,12.24-1.4,12.62-3.4.84-4.45-4.8-7.34-9.33-9.66-2.3-1.17-4.28-2.19-5.2-3.28-1.89-2.26-1.37-7.29.31-10.56C14,31,15.58,29.73,17.27,29.67H18c7.47,0,15.31,4,21,10.8,5.92,7,8.2,15.61,6.1,22.92s-9.15,11.56-14.74,14A54.47,54.47,0,0,1,10.19,81.66Zm-4.32-21c-1.57,0-3.09,2.26-3.88,5.77C.78,71.75,1.66,78.31,4.88,79.59a15.57,15.57,0,0,0,5.31.71c10,0,30-5.07,33.47-17.27,2-6.9-.21-15-5.84-21.74C32.42,34.86,25,31,18,31l-.67,0c-1.09,0-2.22,1-3.09,2.74-1.61,3.16-1.84,7.53-.47,9.16.73.87,2.68,1.87,4.74,2.92,4.68,2.4,11.09,5.68,10.08,11.08-.8,4.21-11,4.53-14.09,4.53a38,38,0,0,1-8.2-.77A1.63,1.63,0,0,0,5.87,60.65Z"/><path class="cls-3" d="M11.8,78.51a.49.49,0,1,1,0-1c.78,0,1.62-.05,2.49-.13a.51.51,0,0,1,.58.43.5.5,0,0,1-.47.54c-.91.08-1.78.12-2.59.13Zm-3-.18H8.76A7.86,7.86,0,0,1,7,77.88a5.16,5.16,0,0,1-.84-.44.46.46,0,0,1-.12-.68.56.56,0,0,1,.74-.11,3.92,3.92,0,0,0,.64.34,7.64,7.64,0,0,0,1.5.37.49.49,0,0,1,.43.56A.52.52,0,0,1,8.85,78.33ZM17.28,78a.52.52,0,0,1-.52-.4.49.49,0,0,1,.43-.56c.81-.13,1.64-.29,2.47-.47a.53.53,0,0,1,.63.37.48.48,0,0,1-.39.58c-.85.18-1.7.34-2.52.48Zm5.36-1.17a.51.51,0,0,1-.5-.35.46.46,0,0,1,.35-.6c.8-.23,1.61-.47,2.39-.73a.54.54,0,0,1,.67.29.47.47,0,0,1-.31.62c-.8.27-1.62.52-2.44.75ZM4.73,75.38a.53.53,0,0,1-.49-.3,8.79,8.79,0,0,1-.69-2.36A.49.49,0,0,1,4,72.16a.53.53,0,0,1,.6.41,8.18,8.18,0,0,0,.63,2.13.47.47,0,0,1-.28.64A.52.52,0,0,1,4.73,75.38Zm23.08-.3a.53.53,0,0,1-.48-.29.46.46,0,0,1,.27-.64c.77-.32,1.54-.65,2.26-1a.55.55,0,0,1,.71.21.45.45,0,0,1-.22.65c-.75.36-1.53.7-2.33,1A.78.78,0,0,1,27.81,75.08Zm4.87-2.37a.55.55,0,0,1-.45-.22.46.46,0,0,1,.16-.67c.72-.42,1.41-.86,2.06-1.31a.57.57,0,0,1,.74.09.48.48,0,0,1-.1.69c-.67.46-1.39.92-2.13,1.35A.58.58,0,0,1,32.68,72.71ZM4,70.41h0a.49.49,0,0,1-.49-.51,12.54,12.54,0,0,1,.38-2.39.53.53,0,0,1,.63-.36.49.49,0,0,1,.4.58A12.64,12.64,0,0,0,4.49,70,.51.51,0,0,1,4,70.41ZM37,69.62a.54.54,0,0,1-.38-.15.46.46,0,0,1,0-.69,18.87,18.87,0,0,0,1.67-1.68.55.55,0,0,1,.74-.07.45.45,0,0,1,.08.68,19.42,19.42,0,0,1-1.75,1.77A.59.59,0,0,1,37,69.62Zm3.36-4a.54.54,0,0,1-.25-.06.47.47,0,0,1-.21-.66,13.76,13.76,0,0,0,1-2.05.54.54,0,0,1,.67-.31.48.48,0,0,1,.33.62,13.6,13.6,0,0,1-1.07,2.21A.52.52,0,0,1,40.38,65.64Zm-35-.08a.58.58,0,0,1-.26-.06.46.46,0,0,1-.2-.66A4.79,4.79,0,0,1,6.8,63a.55.55,0,0,1,.71.2.46.46,0,0,1-.21.66,4,4,0,0,0-1.49,1.5A.53.53,0,0,1,5.35,65.56Zm10.06-1.29a.49.49,0,1,1,0-1c.84,0,1.68,0,2.5-.09a.52.52,0,0,1,.57.45.5.5,0,0,1-.49.52c-.85,0-1.72.08-2.58.09Zm-3-.1h0c-.93-.07-1.8-.17-2.57-.3a.49.49,0,0,1-.43-.56.54.54,0,0,1,.62-.4c.74.13,1.57.22,2.47.29a.49.49,0,0,1,.48.52A.51.51,0,0,1,12.45,64.17Zm8.45-.31a.51.51,0,0,1-.52-.4.48.48,0,0,1,.43-.56c.86-.13,1.68-.3,2.43-.48a.53.53,0,0,1,.65.34.47.47,0,0,1-.37.59c-.78.2-1.64.37-2.54.51Zm5.26-1.43a.53.53,0,0,1-.47-.27.47.47,0,0,1,.24-.65,8.26,8.26,0,0,0,2-1.21.56.56,0,0,1,.75,0,.46.46,0,0,1,0,.69,9.85,9.85,0,0,1-2.23,1.36A.69.69,0,0,1,26.16,62.43Zm15.93-1.56H42a.49.49,0,0,1-.45-.55,14,14,0,0,0,.16-2.17v-.08a.51.51,0,0,1,.53-.49h0a.51.51,0,0,1,.53.48v.09a14.7,14.7,0,0,1-.17,2.31A.51.51,0,0,1,42.09,60.87Zm-12.26-2-.17,0a.48.48,0,0,1-.34-.61,6.47,6.47,0,0,0,.38-2.13.51.51,0,0,1,.53-.5.5.5,0,0,1,.52.48v0a7.38,7.38,0,0,1-.42,2.42A.52.52,0,0,1,29.83,58.87Zm12.18-3a.52.52,0,0,1-.52-.41A17.91,17.91,0,0,0,41,53.19a.48.48,0,0,1,.37-.6.54.54,0,0,1,.65.34,20.7,20.7,0,0,1,.54,2.34.5.5,0,0,1-.44.55Zm-12.35-1.9a.53.53,0,0,1-.49-.31A9.21,9.21,0,0,0,28,51.68a.47.47,0,0,1,.13-.68.56.56,0,0,1,.74.12,9.79,9.79,0,0,1,1.27,2.14.47.47,0,0,1-.3.63A.58.58,0,0,1,29.66,53.93Zm10.9-3a.53.53,0,0,1-.49-.31c-.3-.7-.64-1.4-1-2.1a.47.47,0,0,1,.25-.65.55.55,0,0,1,.71.23c.38.71.73,1.45,1,2.17a.48.48,0,0,1-.3.63A.69.69,0,0,1,40.56,51Zm-14-1.14a.57.57,0,0,1-.37-.14c-.56-.5-1.16-1-1.86-1.52a.47.47,0,0,1-.08-.69A.55.55,0,0,1,25,47.4,22.37,22.37,0,0,1,26.89,49a.45.45,0,0,1,0,.68A.55.55,0,0,1,26.52,49.82Zm-4.27-3.19a.59.59,0,0,1-.31-.09c-.73-.48-1.46-.92-2.09-1.31a.46.46,0,0,1-.15-.67.56.56,0,0,1,.74-.14c.63.39,1.37.84,2.11,1.32a.46.46,0,0,1,.13.68A.53.53,0,0,1,22.25,46.63Zm15.87-.19a.56.56,0,0,1-.46-.24c-.43-.65-.89-1.3-1.37-1.92a.46.46,0,0,1,.13-.68.56.56,0,0,1,.74.12c.49.64,1,1.31,1.41,2a.47.47,0,0,1-.18.67A.68.68,0,0,1,38.12,46.44ZM17.69,43.78a.5.5,0,0,1-.31-.1,7.2,7.2,0,0,1-1.57-1.27,4.74,4.74,0,0,1-.37-.51.48.48,0,0,1,.2-.67.55.55,0,0,1,.72.19,4,4,0,0,0,.29.39A6.78,6.78,0,0,0,18,42.9a.46.46,0,0,1,.12.68A.57.57,0,0,1,17.69,43.78Zm17.23-1.46a.55.55,0,0,1-.41-.17c-.54-.59-1.1-1.17-1.67-1.72a.45.45,0,0,1,0-.68.56.56,0,0,1,.75,0c.59.56,1.17,1.16,1.72,1.77a.45.45,0,0,1-.07.68A.49.49,0,0,1,34.92,42.32ZM15.15,39.53a.5.5,0,0,1-.52-.46c0-.12,0-.24,0-.36a7.83,7.83,0,0,1,.29-2.1.54.54,0,0,1,.65-.35.48.48,0,0,1,.37.6,7.18,7.18,0,0,0-.25,1.85V39a.5.5,0,0,1-.5.51Zm15.93-.83a.57.57,0,0,1-.35-.12c-.63-.52-1.29-1-1.94-1.45a.47.47,0,0,1-.11-.68.56.56,0,0,1,.74-.1q1,.69,2,1.5a.45.45,0,0,1,.05.68A.56.56,0,0,1,31.08,38.7Zm-4.45-3a.58.58,0,0,1-.26-.06,20.5,20.5,0,0,0-2.21-1,.47.47,0,0,1-.28-.64.54.54,0,0,1,.69-.26,21.89,21.89,0,0,1,2.33,1.08.46.46,0,0,1,.19.66A.52.52,0,0,1,26.63,35.72Zm-9.88-.91a.6.6,0,0,1-.36-.12.47.47,0,0,1,0-.69,4,4,0,0,1,2.53-1.23H19a10.7,10.7,0,0,1,2.68.14.5.5,0,0,1,.42.57.53.53,0,0,1-.62.39,9.28,9.28,0,0,0-2.38-.13H19a2.91,2.91,0,0,0-1.84.92A.53.53,0,0,1,16.75,34.81Z"/><path class="cls-4" d="M21,36.11c-3.29.18-4.45,2.63-2.45,5s17.43,6.57,13.46,18c-2.57,7.42-17,6.86-21.74,6.27-4.14-.52-6.58,7.22-1.51,9.23,5.46,2.18,27.28-1.31,30-13.12C41.94,47.68,27.59,35.75,21,36.11Z"/><path class="cls-5" d="M14.08,67.05c-8.94-.8-4.68,6.12,5.61,5.4s16.2-10.4,10-8.21C25.17,65.82,19.57,67.54,14.08,67.05Z"/><path class="cls-5" d="M23.18,5.5c-4.19-.74-7.89,4.13-1.92,5.59S27.36,6.24,23.18,5.5Z"/></g></g></svg>