<svg xmlns="http://www.w3.org/2000/svg" viewBox="0 0 55.34 69.64"><defs><style>.cls-1{opacity:0.15;}.cls-2{fill:#2e89ff;}.cls-3{fill:#0064e6;}.cls-4{fill:#58a5f9;}.cls-5{fill:#69b3f7;}</style></defs><title>char6Asset 27</title><g id="Layer_2" data-name="Layer 2"><g id="Layer_1-2" data-name="Layer 1"><path class="cls-1" d="M24.07,6.8C2.69,9-6.56,39.64,8,59.82,19.62,76,44.67,72.4,52.85,47.42,59.55,27,43.91,4.8,24.07,6.8ZM18.8,43.6C14.43,39.72,16.17,30.91,21,29.32c4.45-1.48,14.82,3.58,13,11.06C32.68,45.81,22.3,46.71,18.8,43.6Z"/><path class="cls-2" d="M24.07,1C2.69,3.19-6.56,33.89,8,54.06c11.65,16.19,36.7,12.59,44.88-12.4C59.55,21.2,43.91-1,24.07,1ZM18.8,37.84C14.43,34,16.17,25.15,21,23.56c4.45-1.48,14.82,3.59,13,11.06C32.68,40.06,22.3,41,18.8,37.84Z"/><path class="cls-3" d="M26.58,64.8h0A23.74,23.74,0,0,1,7.23,54.6,39.19,39.19,0,0,1,3.3,16.2C7.49,6.89,15,1,24,.13A25,25,0,0,1,26.57,0c8.64,0,16.8,4.41,22.37,12.09A33.34,33.34,0,0,1,53.72,42C48.21,58.8,36.08,64.8,26.58,64.8Zm0-63c-.8,0-1.61,0-2.41.12C15.88,2.79,8.88,8.25,5,17A37.36,37.36,0,0,0,8.71,53.53,22,22,0,0,0,26.58,63C35.44,63,46.77,57.3,52,41.38a31.54,31.54,0,0,0-4.52-28.21C42.24,6,34.62,1.83,26.57,1.83Zm-1.7,38.71a10.22,10.22,0,0,1-6.68-2,9.7,9.7,0,0,1-2.57-9.25c.67-3.25,2.61-5.77,5.05-6.58a6.38,6.38,0,0,1,2.07-.31,14.4,14.4,0,0,1,10.4,5.18,8.3,8.3,0,0,1,1.73,7.26C33.93,38.78,29.17,40.54,24.87,40.54ZM22.74,24.22a4.74,4.74,0,0,0-1.49.21C19.42,25,18,27,17.41,29.65c-.48,2.34-.21,5.55,2,7.51a8.56,8.56,0,0,0,5.46,1.55c3.46,0,7.52-1.35,8.22-4.3a6.42,6.42,0,0,0-1.39-5.7A12.59,12.59,0,0,0,22.74,24.22Z"/><path class="cls-3" d="M26.72,60.57a20.32,20.32,0,0,1-2.21-.12.65.65,0,1,1,.14-1.3,18,18,0,0,0,3,.09.64.64,0,0,1,.68.62.66.66,0,0,1-.62.69C27.4,60.57,27.06,60.57,26.72,60.57ZM31.33,60a.65.65,0,0,1-.64-.5.67.67,0,0,1,.49-.79,21.05,21.05,0,0,0,2.89-.91.64.64,0,0,1,.85.36.66.66,0,0,1-.36.85,22.93,22.93,0,0,1-3.08,1ZM21,59.71a.62.62,0,0,1-.19,0,20.57,20.57,0,0,1-3-1.21.65.65,0,0,1,.58-1.17,19.4,19.4,0,0,0,2.81,1.13.65.65,0,0,1,.44.81A.66.66,0,0,1,21,59.71Zm16.58-2.26a.65.65,0,0,1-.56-.32.67.67,0,0,1,.22-.9,23.41,23.41,0,0,0,2.5-1.75.65.65,0,0,1,.92.1.66.66,0,0,1-.1.92,23.65,23.65,0,0,1-2.64,1.85A.59.59,0,0,1,37.58,57.45ZM15,56.63a.67.67,0,0,1-.39-.14,21.18,21.18,0,0,1-2.43-2.13.66.66,0,1,1,.94-.92,19.64,19.64,0,0,0,2.28,2,.65.65,0,0,1,.12.92A.64.64,0,0,1,15,56.63Zm27.84-3.48a.66.66,0,0,1-.45-.18.65.65,0,0,1,0-.92,28.09,28.09,0,0,0,1.95-2.36.65.65,0,0,1,.91-.14.64.64,0,0,1,.14.91,27.75,27.75,0,0,1-2,2.48A.66.66,0,0,1,42.82,53.15ZM10.3,51.74a.66.66,0,0,1-.54-.28q-.91-1.3-1.71-2.7a.66.66,0,0,1,1.14-.65,29.15,29.15,0,0,0,1.64,2.6.65.65,0,0,1-.15.91A.68.68,0,0,1,10.3,51.74Zm36.5-4.08a.72.72,0,0,1-.32-.08.66.66,0,0,1-.24-.9c.49-.87,1-1.79,1.38-2.74a.66.66,0,0,1,.87-.33.67.67,0,0,1,.33.87c-.45,1-.93,1.94-1.45,2.85A.65.65,0,0,1,46.8,47.66ZM7,45.81a.63.63,0,0,1-.6-.39c-.42-1-.8-2-1.12-3a.65.65,0,0,1,.43-.82.65.65,0,0,1,.82.42C6.84,43,7.2,44,7.6,44.9a.65.65,0,0,1-.35.86A.56.56,0,0,1,7,45.81Zm19.35-1.08a.66.66,0,0,1,0-1.31A10.34,10.34,0,0,0,29.26,43a.65.65,0,0,1,.38,1.25,11.83,11.83,0,0,1-3.28.49Zm-3.61-.49-.18,0a15.17,15.17,0,0,1-3-1.21.65.65,0,1,1,.62-1.15A13.67,13.67,0,0,0,22.91,43a.66.66,0,0,1-.17,1.29Zm10-1.63a.67.67,0,0,1-.52-.25.65.65,0,0,1,.12-.92,10.46,10.46,0,0,0,2-2.12.65.65,0,0,1,.91-.16.66.66,0,0,1,.16.92,11.62,11.62,0,0,1-2.3,2.39A.57.57,0,0,1,32.69,42.61Zm16.86-1.15a.65.65,0,0,1-.2,0,.65.65,0,0,1-.42-.83l.13-.37c.27-.85.51-1.71.7-2.58a.67.67,0,0,1,.78-.5.66.66,0,0,1,.5.78,27.6,27.6,0,0,1-.74,2.7l-.13.39A.65.65,0,0,1,49.55,41.46ZM16.84,41a.67.67,0,0,1-.44-.17c-.22-.2-.43-.41-.64-.63a10.26,10.26,0,0,1-1.89-2.75.65.65,0,0,1,.31-.87.66.66,0,0,1,.87.31,8.9,8.9,0,0,0,1.65,2.4c.19.2.38.39.58.57a.65.65,0,0,1,0,.93A.63.63,0,0,1,16.84,41ZM5,39.33a.64.64,0,0,1-.63-.52c-.21-1-.38-2.1-.49-3.16a.65.65,0,0,1,1.3-.14c.11,1,.26,2,.47,3a.66.66,0,0,1-.51.77Zm31.54-2.22a.62.62,0,0,1-.23,0,.65.65,0,0,1-.38-.84c.1-.28.19-.56.28-.86a10.65,10.65,0,0,0,.41-2,.66.66,0,0,1,.72-.59.65.65,0,0,1,.58.72,11.58,11.58,0,0,1-.46,2.27c-.09.32-.2.63-.31.93A.66.66,0,0,1,36.52,37.11ZM51,34.82H50.9a.66.66,0,0,1-.6-.71c.07-.78.1-1.57.1-2.35,0-.24,0-.47,0-.71a.66.66,0,0,1,1.31,0c0,.25,0,.5,0,.75,0,.82,0,1.65-.11,2.46A.65.65,0,0,1,51,34.82Zm-37.5-.52a.66.66,0,0,1-.65-.57A14.59,14.59,0,0,1,12.69,32c0-.5,0-1,.08-1.52a.65.65,0,0,1,1.3.14A12.75,12.75,0,0,0,14,32a12.06,12.06,0,0,0,.1,1.6.66.66,0,0,1-.57.73ZM4.3,32.58a.65.65,0,0,1-.65-.65v-.09c0-1,0-2.08.14-3.1a.65.65,0,1,1,1.3.11c-.09,1-.13,2-.13,3v.09A.66.66,0,0,1,4.3,32.58ZM37,30.44a.66.66,0,0,1-.64-.5,10.6,10.6,0,0,0-1.11-2.72.65.65,0,0,1,.23-.89.66.66,0,0,1,.9.23,11.68,11.68,0,0,1,1.25,3.06.66.66,0,0,1-.47.8ZM50.72,28a.66.66,0,0,1-.65-.55,27.57,27.57,0,0,0-.64-3,.66.66,0,0,1,1.27-.34,30.17,30.17,0,0,1,.66,3.14.65.65,0,0,1-.54.74Zm-36.44-.41a.69.69,0,0,1-.24-.05.65.65,0,0,1-.37-.84,13.23,13.23,0,0,1,1.56-2.9.66.66,0,0,1,.91-.16.67.67,0,0,1,.15.92,12.31,12.31,0,0,0-1.4,2.61A.66.66,0,0,1,14.28,27.63ZM5,25.82H4.83A.65.65,0,0,1,4.31,25a31.93,31.93,0,0,1,.78-3.1.65.65,0,1,1,1.25.38c-.29,1-.54,2-.74,3A.66.66,0,0,1,5,25.82Zm28.59-1.14a.69.69,0,0,1-.46-.18,13.87,13.87,0,0,0-2.36-1.85.66.66,0,0,1-.2-.9.64.64,0,0,1,.9-.2,15.31,15.31,0,0,1,2.57,2,.65.65,0,0,1,0,.92A.63.63,0,0,1,33.55,24.68Zm-15.23-2.4a.68.68,0,0,1-.53-.27.67.67,0,0,1,.15-.92,11.19,11.19,0,0,1,2.9-1.48l.09,0a.66.66,0,1,1,.36,1.26,9.67,9.67,0,0,0-2.58,1.32A.69.69,0,0,1,18.32,22.28Zm30.57-.78a.64.64,0,0,1-.6-.4A27.06,27.06,0,0,0,47,18.33a.66.66,0,1,1,1.15-.63,30.78,30.78,0,0,1,1.38,2.9.66.66,0,0,1-.36.85A.56.56,0,0,1,48.89,21.5Zm-21.1-.33a.76.76,0,0,1-.21,0,12.07,12.07,0,0,0-2.91-.63.65.65,0,0,1-.59-.71.67.67,0,0,1,.71-.6,14,14,0,0,1,3.21.7.65.65,0,0,1-.21,1.27ZM7,19.35a.62.62,0,0,1-.26-.06.66.66,0,0,1-.34-.86,30.75,30.75,0,0,1,1.44-2.87A.66.66,0,0,1,9,16.21,29.24,29.24,0,0,0,7.57,19,.66.66,0,0,1,7,19.35ZM45.6,15.57a.62.62,0,0,1-.53-.27,30,30,0,0,0-1.94-2.38.65.65,0,0,1,1-.88,29,29,0,0,1,2,2.49.67.67,0,0,1-.15.92A.68.68,0,0,1,45.6,15.57ZM10.41,13.5a.64.64,0,0,1-.51-1.05A24.85,24.85,0,0,1,12,10a.66.66,0,0,1,.93,0A.67.67,0,0,1,13,11a21,21,0,0,0-2,2.27A.64.64,0,0,1,10.41,13.5ZM41,10.61a.6.6,0,0,1-.41-.15,26.34,26.34,0,0,0-2.48-1.79.65.65,0,1,1,.7-1.1,24.66,24.66,0,0,1,2.61,1.89.65.65,0,0,1,.09.92A.68.68,0,0,1,41,10.61ZM15.31,8.83a.65.65,0,0,1-.37-1.19A20.1,20.1,0,0,1,17.73,6a.66.66,0,1,1,.57,1.18,19.23,19.23,0,0,0-2.62,1.53A.7.7,0,0,1,15.31,8.83ZM35.19,7.07A.6.6,0,0,1,34.93,7a21.21,21.21,0,0,0-2.87-1,.65.65,0,0,1-.46-.8.66.66,0,0,1,.8-.46,23,23,0,0,1,3.05,1.06.65.65,0,0,1,.34.86A.67.67,0,0,1,35.19,7.07ZM21.44,6a.67.67,0,0,1-.63-.49.66.66,0,0,1,.47-.8,19.78,19.78,0,0,1,3.18-.57A.67.67,0,0,1,25,4.3a.65.65,0,0,1,.48-.25c.42,0,.84,0,1.27,0,.65,0,1.31,0,2,.09a.65.65,0,0,1,.59.71.65.65,0,0,1-.71.59c-.62-.05-1.24-.06-1.86-.08l-1.17,0a.65.65,0,0,1-.49-.18.67.67,0,0,1-.46.26,18.61,18.61,0,0,0-3,.54Z"/><path class="cls-4" d="M24.43,7C8.17,8.68.61,33.09,11.66,48.79c9.17,13,29.18,10.24,35.7-10.17C52.46,22.69,39.52,5.44,24.43,7ZM14.13,40.69c-6-7-2.77-20.63,6.83-23S42.73,24,39,36.56C35,50.12,21.17,48.92,14.13,40.69Z"/><path class="cls-5" d="M36,9.55c-8.35-2.65-11.6,1.77-3.67,8.6S43.13,30.27,45.61,28.61,43.43,11.89,36,9.55Z"/></g></g></svg>