<svg xmlns="http://www.w3.org/2000/svg" viewBox="0 0 148.62 102.88"><defs><style>.cls-1{opacity:0.15;}.cls-2{fill:#49d800;}.cls-3{fill:#36a300;}.cls-4{fill:#89ea49;}.cls-5{fill:#acea83;}</style></defs><title>char6Asset 15</title><g id="Layer_2" data-name="Layer 2"><g id="Layer_1-2" data-name="Layer 1"><path class="cls-1" d="M125.56,6.82c-27.77,3.48-40.77,28.62-42,30.85s-9.11,2.07-10.67.81-2.24-7.09-6-8.23S55.16,41,55.92,46.08s3.29,9.11,2,18.48S48.58,81,30,78.34,17.94,61,20.47,54.29s-5.76-8-10.89-3.55C7,53-2.57,68.36,2.24,83.81c6.1,19.59,35.45,24,53.24,13.54C76.69,84.82,75.42,64.81,75.42,64.81s3,11.4,9.88,10.39S88.59,57.47,89.6,57s25.15,5.23,46.34-7C157.3,37.59,147.06,4.13,125.56,6.82Zm1.77,23.55c-1.15,5.74-26.84,11.3-26.33,7.3C101.81,31.24,128.48,24.64,127.33,30.37Z"/><path class="cls-2" d="M125.56,1.07c-27.77,3.47-40.77,28.61-42,30.84s-9.11,2.08-10.67.81-2.24-7.09-6-8.23S55.16,35.25,55.92,40.32s3.29,9.11,2,18.48S48.58,75.26,30,72.59s-12-17.33-9.48-24.06-5.76-8-10.89-3.54C7,47.24-2.57,62.61,2.24,78.05c6.1,19.59,35.45,24.06,53.24,13.54C76.69,79.06,75.42,59.06,75.42,59.06s3,11.39,9.88,10.38,3.29-17.73,4.3-18.23,25.15,5.23,46.34-7C157.3,31.84,147.06-1.62,125.56,1.07Zm1.77,23.55c-1.15,5.73-26.84,11.29-26.33,7.29C101.81,25.48,128.48,18.89,127.33,24.62Z"/><path class="cls-3" d="M34,98C17.92,98,5.1,90.3,1.37,78.32c-5-16,5.08-31.84,7.61-34a11.57,11.57,0,0,1,7.26-2.82,5.69,5.69,0,0,1,4.84,2.14c.66,1,1.23,2.63.25,5.25l-.39,1c-1.75,4.54-4.38,11.4-1.54,16.25,1.71,2.91,5.31,4.78,10.68,5.55a52.37,52.37,0,0,0,7.32.56c11.48,0,18.46-4.81,19.64-13.56a31.77,31.77,0,0,0-1.06-14,38.93,38.93,0,0,1-1-4.28c-.54-3.55,2.51-9.58,5.75-13.35,1.42-1.64,3.52-3.6,5.5-3.6a2.63,2.63,0,0,1,.8.12c2.86.85,4.16,3.87,5.11,6.07A8.11,8.11,0,0,0,73.43,32a8.89,8.89,0,0,0,4.2.71c2.88,0,4.74-.63,5.1-1.26l.17-.3c4.59-8.29,17.93-27.92,42.55-31A19.8,19.8,0,0,1,128,0c9.25,0,17,6.58,19.72,16.78C150,25.43,148.46,38,136.4,45,127.16,50.32,116.15,53,103.69,53h0a100.42,100.42,0,0,1-11.78-.75l-1.59-.17c0,.61,0,1.64.09,2.58.29,5.54.77,14.8-5,15.66a8.22,8.22,0,0,1-1,.07c-4.15,0-6.86-3.9-8.38-7.08-.91,6.75-4.69,19.93-20.12,29A43.65,43.65,0,0,1,34,98ZM16.24,43.3a9.63,9.63,0,0,0-6.06,2.38c-2.37,2-11.79,16.94-7.07,32.1C6.6,89,18.73,96.21,34,96.21a41.78,41.78,0,0,0,21-5.4c20.45-12.08,19.51-31.5,19.5-31.7a.91.91,0,0,1,.76-1,.92.92,0,0,1,1,.66c0,.1,2.67,9.77,8.14,9.77a4.34,4.34,0,0,0,.71-.06c4.1-.6,3.66-9.15,3.42-13.74-.16-3.07-.21-4,.61-4.4a1.42,1.42,0,0,1,.68-.13c.43,0,1.15.08,2.24.2a97.77,97.77,0,0,0,11.58.74h0c12.13,0,22.83-2.63,31.79-7.81C146.65,36.94,148.1,25.27,146,17.25c-2.52-9.37-9.57-15.42-18-15.42a18.31,18.31,0,0,0-2.32.15C101.89,5,89,24,84.5,32.05l-.18.31c-1.12,2-5,2.19-6.69,2.19-1.92,0-4.34-.29-5.36-1.12a8,8,0,0,1-1.77-3c-.85-2-1.91-4.44-4-5.05a.82.82,0,0,0-.28,0c-1,0-2.51,1.11-4.11,3-3.28,3.81-5.73,9.25-5.33,11.88a38.64,38.64,0,0,0,.92,4.09,33.38,33.38,0,0,1,1.1,14.66c-1.3,9.62-9.12,15.14-21.45,15.14a53,53,0,0,1-7.58-.58c-5.95-.85-10-3-12-6.43-3.29-5.61-.36-13.26,1.4-17.84.13-.35.27-.69.39-1a3.85,3.85,0,0,0,0-3.55A4,4,0,0,0,16.24,43.3Zm88.13-9.12c-2,0-3.24-.32-3.87-1a1.7,1.7,0,0,1-.41-1.35c.7-5.53,16-10.29,23.17-10.29,2.3,0,3.78.44,4.52,1.35a2.26,2.26,0,0,1,.45,1.94C127.16,30.12,110.74,34.18,104.37,34.18ZM101.91,32a4.88,4.88,0,0,0,2.46.38c7.6,0,21.38-4.49,22.07-7.91a.45.45,0,0,0-.07-.42c-.27-.33-1.23-.68-3.11-.68C115.78,23.34,102.52,28.23,101.91,32Z"/><path class="cls-3" d="M33.74,93.74a.65.65,0,1,1,0-1.3c1,0,2.06,0,3.09-.12a.65.65,0,0,1,.7.6.66.66,0,0,1-.6.7c-1.06.08-2.14.12-3.19.12Zm-3.65-.14H30c-1.07-.09-2.13-.23-3.16-.4a.65.65,0,0,1,.21-1.29c1,.17,2,.3,3.06.38a.66.66,0,0,1-.05,1.31Zm10.42-.4a.65.65,0,0,1-.1-1.3c1-.16,2-.36,3-.59a.66.66,0,0,1,.29,1.28c-1,.23-2.08.44-3.13.6ZM23.4,92.43l-.17,0c-1.05-.29-2.07-.62-3.05-1a.66.66,0,0,1-.37-.85.65.65,0,0,1,.84-.38c.94.36,1.92.68,2.92,1A.64.64,0,0,1,24,92,.65.65,0,0,1,23.4,92.43Zm23.72-.79a.66.66,0,0,1-.62-.45.65.65,0,0,1,.43-.82c1-.32,2-.67,2.9-1.05a.66.66,0,0,1,.49,1.22c-1,.39-2,.75-3,1.07A.64.64,0,0,1,47.12,91.64Zm-30-1.7a.58.58,0,0,1-.31-.08A25.13,25.13,0,0,1,14,88.17a.65.65,0,0,1-.15-.91.65.65,0,0,1,.91-.16,24.16,24.16,0,0,0,2.6,1.61.65.65,0,0,1,.26.89A.63.63,0,0,1,17.09,89.94Zm36.32-.87a.65.65,0,0,1-.29-1.23c.68-.35,1.36-.73,2-1.11l.66-.4a.65.65,0,1,1,.69,1.11l-.69.41c-.68.4-1.38.79-2.09,1.15A.66.66,0,0,1,53.41,89.07ZM11.62,86a.63.63,0,0,1-.46-.19A23.06,23.06,0,0,1,9,83.34a.66.66,0,0,1,.13-.92.64.64,0,0,1,.91.13,20.5,20.5,0,0,0,2,2.28.65.65,0,0,1,0,.92A.63.63,0,0,1,11.62,86Zm47.51-.52a.63.63,0,0,1-.51-.25.65.65,0,0,1,.11-.92c.8-.63,1.57-1.31,2.31-2a.66.66,0,0,1,.91,1c-.77.73-1.58,1.44-2.41,2.1A.7.7,0,0,1,59.13,85.43ZM64,80.7a.61.61,0,0,1-.42-.16.65.65,0,0,1-.08-.92c.65-.77,1.28-1.6,1.87-2.44a.65.65,0,1,1,1.07.75c-.61.87-1.27,1.73-1.94,2.53A.63.63,0,0,1,64,80.7ZM7.61,80.5A.64.64,0,0,1,7,80.14a21.18,21.18,0,0,1-1.26-3,.66.66,0,0,1,.41-.83.65.65,0,0,1,.83.41,21.75,21.75,0,0,0,1.18,2.8.65.65,0,0,1-.28.88A.66.66,0,0,1,7.61,80.5Zm29.23-3c-.64,0-1.31,0-2,0a.67.67,0,0,1-.63-.69.64.64,0,0,1,.68-.62c1.06,0,2.1,0,3.09,0a.63.63,0,0,1,.67.63.65.65,0,0,1-.63.67Zm4.84-.3a.65.65,0,0,1-.08-1.3c1-.13,2-.31,3-.53a.65.65,0,0,1,.29,1.27c-1,.23-2.08.42-3.15.56Zm-10.43-.06h-.08c-.73-.09-1.47-.2-2.2-.32L28,76.66a.65.65,0,0,1,.24-1.28l.92.16c.71.12,1.43.22,2.14.31a.65.65,0,0,1-.08,1.3ZM24.6,75.81a.58.58,0,0,1-.19,0,26,26,0,0,1-3-1.11.65.65,0,0,1,.53-1.19,25.81,25.81,0,0,0,2.86,1,.65.65,0,0,1,.44.82A.64.64,0,0,1,24.6,75.81Zm23.68-.16a.67.67,0,0,1-.62-.43.66.66,0,0,1,.4-.84,26.07,26.07,0,0,0,2.81-1.2.65.65,0,0,1,.58,1.17,27.82,27.82,0,0,1-3,1.26A.57.57,0,0,1,48.28,75.65Zm19.56-.54a.62.62,0,0,1-.32-.09.66.66,0,0,1-.25-.89c.5-.88,1-1.8,1.42-2.74a.65.65,0,1,1,1.18.55c-.45,1-.94,1.92-1.46,2.84A.65.65,0,0,1,67.84,75.11Zm-62.39-1a.67.67,0,0,1-.64-.53,26.42,26.42,0,0,1-.44-3.18.65.65,0,0,1,.6-.7.64.64,0,0,1,.7.59,26.47,26.47,0,0,0,.43,3,.67.67,0,0,1-.52.77Zm13-1.14a.68.68,0,0,1-.38-.12,14.7,14.7,0,0,1-2.44-2.18.66.66,0,0,1,0-.93.67.67,0,0,1,.93.06,12.9,12.9,0,0,0,2.22,2,.65.65,0,0,1,.15.91A.63.63,0,0,1,18.47,72.94Zm35.82-.41a.68.68,0,0,1-.53-.27.67.67,0,0,1,.15-.92,19.18,19.18,0,0,0,2.33-1.94.65.65,0,1,1,.91.94,21.93,21.93,0,0,1-2.48,2.07A.66.66,0,0,1,54.29,72.53ZM70.7,69a.68.68,0,0,1-.23,0,.64.64,0,0,1-.38-.84c.36-1,.69-1.94,1-2.93a.65.65,0,0,1,.81-.44.67.67,0,0,1,.44.82c-.31,1-.66,2-1,3A.65.65,0,0,1,70.7,69ZM14.18,67.79a.64.64,0,0,1-.6-.4,12.41,12.41,0,0,1-.89-3.17A.65.65,0,0,1,14,64a11.06,11.06,0,0,0,.8,2.84.67.67,0,0,1-.6.92Zm44.88-.06a.7.7,0,0,1-.37-.11.65.65,0,0,1-.17-.91A15.81,15.81,0,0,0,60,64.08a.65.65,0,1,1,1.2.51,16.93,16.93,0,0,1-1.57,2.85A.66.66,0,0,1,59.06,67.73ZM5,67.32h0a.63.63,0,0,1-.61-.68,26.55,26.55,0,0,1,.36-3.2A.66.66,0,0,1,6,63.66a25.71,25.71,0,0,0-.35,3A.66.66,0,0,1,5,67.32ZM84.1,65a.66.66,0,0,1-.65-.56.65.65,0,0,1,.55-.74l.11,0c.6-.17.92-1.1,1.07-1.85a.65.65,0,0,1,.78-.5.64.64,0,0,1,.5.77c-.33,1.61-1,2.56-2,2.84l-.27,0Zm-3-1.84a.63.63,0,0,1-.5-.24,19.5,19.5,0,0,1-1.81-2.69.64.64,0,0,1,.24-.89.65.65,0,0,1,.89.24,19.21,19.21,0,0,0,1.69,2.52.65.65,0,0,1-.09.92A.73.73,0,0,1,81.11,63.14Zm-8.45-.7-.15,0a.65.65,0,0,1-.48-.79c.23-1,.43-2,.62-3a.66.66,0,0,1,1.29.23c-.19,1-.4,2.1-.64,3.11A.66.66,0,0,1,72.66,62.44Zm-11.1-1h-.1a.65.65,0,0,1-.54-.75c.17-1.06.31-2.09.42-3.07a.67.67,0,0,1,.72-.59.65.65,0,0,1,.58.72c-.11,1-.25,2.07-.43,3.15A.66.66,0,0,1,61.56,61.48Zm-48.27-.36h-.07a.65.65,0,0,1-.58-.72,18.1,18.1,0,0,1,.64-3.18.65.65,0,1,1,1.25.36,16.86,16.86,0,0,0-.59,3A.65.65,0,0,1,13.29,61.12Zm-7.1-.47a.48.48,0,0,1-.2,0,.64.64,0,0,1-.42-.81,27.22,27.22,0,0,1,1.12-3,.66.66,0,0,1,.87-.33.64.64,0,0,1,.33.86,30.11,30.11,0,0,0-1.08,2.87A.65.65,0,0,1,6.19,60.65ZM86.09,59a.64.64,0,0,1-.65-.64c0-.9-.06-1.91-.14-3.1a.65.65,0,0,1,.6-.7.66.66,0,0,1,.7.61c.09,1.21.13,2.25.14,3.17a.64.64,0,0,1-.64.66Zm-8.41-1.67a.64.64,0,0,1-.59-.38c-.42-.9-.85-1.87-1.28-2.9A.66.66,0,1,1,77,53.49c.42,1,.84,2,1.25,2.86a.66.66,0,0,1-.31.87A.71.71,0,0,1,77.68,57.28Zm-3.86-1.55h-.08a.66.66,0,0,1-.57-.73c.12-1,.21-2.07.28-3.09a.67.67,0,0,1,.69-.62.67.67,0,0,1,.61.7c-.06,1-.16,2.11-.28,3.16A.65.65,0,0,1,73.82,55.73Zm-11.6-1h0a.66.66,0,0,1-.64-.67c0-.26,0-.51,0-.76,0-.78,0-1.56-.08-2.32a.65.65,0,0,1,1.3-.09c.06.79.09,1.6.09,2.41,0,.26,0,.52,0,.79A.66.66,0,0,1,62.22,54.72Zm-47.11-.13-.21,0a.66.66,0,0,1-.41-.83c.38-1.12.68-2.11.88-2.95a.64.64,0,0,1,.79-.48.66.66,0,0,1,.48.79c-.21.87-.52,1.9-.91,3.06A.66.66,0,0,1,15.11,54.59ZM9,54.46a.61.61,0,0,1-.34-.1.64.64,0,0,1-.22-.89A28.87,28.87,0,0,1,10.2,50.8a.66.66,0,0,1,.92-.12.65.65,0,0,1,.12.92,26.17,26.17,0,0,0-1.71,2.54A.66.66,0,0,1,9,54.46Zm76.66-2.29a.66.66,0,0,1-.65-.6c-.11-1.25-.18-2.16-.18-2.81,0-.16,0-.3,0-.42a.67.67,0,0,1,.7-.61.65.65,0,0,1,.61.69c0,.1,0,.21,0,.34,0,.6.07,1.48.18,2.7a.67.67,0,0,1-.6.71ZM75.07,51a.65.65,0,0,1-.61-.43c-.26-.69-.47-1.28-.62-1.72a.65.65,0,0,1-.3-.54c0-.29,0-.45,0-.45a.65.65,0,0,1,1.27-.24s.34,1,.89,2.5a.66.66,0,0,1-.39.84A.59.59,0,0,1,75.07,51Zm-61.85-1.8a.65.65,0,0,1-.51-.24A.66.66,0,0,1,12.8,48a4.91,4.91,0,0,1,2.74-1.4,1.3,1.3,0,0,1,.82.27.65.65,0,1,1-.78,1c-.19,0-.7.08-1.95,1.1A.65.65,0,0,1,13.22,49.18Zm89.05-.07a.65.65,0,1,1,0-1.3c1.06,0,2.11,0,3.12-.07a.66.66,0,0,1,.68.63.65.65,0,0,1-.63.67c-1,0-2.09.06-3.16.07Zm-3.66,0h0q-1.65,0-3.15-.09a.66.66,0,0,1-.63-.68.65.65,0,0,1,.68-.63l3.13.1a.65.65,0,0,1,0,1.3Zm10.46-.24a.65.65,0,0,1,0-1.3c1.06-.08,2.1-.17,3.11-.27a.64.64,0,0,1,.71.58.65.65,0,0,1-.58.72c-1,.1-2.07.2-3.14.27Zm-17.25,0h0c-1.2-.07-2.25-.15-3.14-.21a.66.66,0,0,1,.09-1.31c.89.07,1.94.14,3.13.21a.67.67,0,0,1,.61.7A.65.65,0,0,1,91.82,48.81Zm24-.69a.65.65,0,0,1-.09-1.3c1-.16,2.07-.34,3.06-.53a.65.65,0,1,1,.25,1.28c-1,.2-2.06.38-3.12.54ZM61.69,48a.64.64,0,0,1-.64-.53c-.22-1.15-.47-2.17-.69-3a.65.65,0,1,1,1.26-.33c.23.86.49,1.91.71,3.1a.64.64,0,0,1-.52.76Zm60.8-1.19a.66.66,0,0,1-.17-1.29c1-.26,2-.56,3-.88a.66.66,0,0,1,.83.42.65.65,0,0,1-.42.82c-1,.33-2,.63-3,.91Zm6.42-2.2a.67.67,0,0,1-.6-.39.66.66,0,0,1,.34-.86c1-.42,1.9-.88,2.76-1.36a.66.66,0,0,1,.64,1.15c-.91.5-1.87,1-2.87,1.41A.86.86,0,0,1,128.91,44.56ZM60.1,41.35a.67.67,0,0,1-.64-.53c-.06-.31-.12-.63-.17-.94a7.63,7.63,0,0,1-.07-1,7.44,7.44,0,0,1,.15-1.45.65.65,0,1,1,1.28.25,6.34,6.34,0,0,0-.12,1.2,4.72,4.72,0,0,0,.06.77c0,.3.09.59.15.88a.64.64,0,0,1-.51.77Zm74.72-.14a.67.67,0,0,1-.53-.26.64.64,0,0,1,.14-.91,24.49,24.49,0,0,0,2.33-2,.65.65,0,1,1,.91.94,24.69,24.69,0,0,1-2.47,2.08A.66.66,0,0,1,134.82,41.21ZM75.56,38.55a.66.66,0,0,1,0-1.31c.91,0,2-.16,3.06-.32a.64.64,0,0,1,.74.54.66.66,0,0,1-.54.75c-1.14.17-2.24.29-3.19.34Zm-3.48-.7a.73.73,0,0,1-.4-.13,10,10,0,0,1-2.24-2.48.65.65,0,0,1,1.08-.73,8.75,8.75,0,0,0,2,2.16.66.66,0,0,1-.39,1.18Zm10.2-.36a.65.65,0,0,1-.63-.49.64.64,0,0,1,.46-.8,15.73,15.73,0,0,0,2.85-1,.65.65,0,0,1,.57,1.17,17,17,0,0,1-3.09,1.07A.45.45,0,0,1,82.28,37.49Zm24.07-.4a.66.66,0,0,1-.65-.62.67.67,0,0,1,.63-.69c1,0,2-.13,3.07-.27a.66.66,0,0,1,.73.57.65.65,0,0,1-.57.73c-1.1.14-2.17.24-3.18.28ZM102.7,37h-.07a11.54,11.54,0,0,1-3.23-.76.65.65,0,1,1,.5-1.2,10.58,10.58,0,0,0,2.87.66.66.66,0,0,1,.58.72A.65.65,0,0,1,102.7,37Zm37-.53a.67.67,0,0,1-.4-.14.65.65,0,0,1-.12-.91,23.23,23.23,0,0,0,1.68-2.54.65.65,0,0,1,.89-.25.66.66,0,0,1,.25.89,24.07,24.07,0,0,1-1.78,2.69A.65.65,0,0,1,139.65,36.47Zm-26.56-.26a.65.65,0,0,1-.13-1.29c1-.21,2-.45,3-.72a.65.65,0,1,1,.34,1.26c-1,.28-2.06.52-3.09.74ZM61.35,34.85a.63.63,0,0,1-.33-.09.67.67,0,0,1-.24-.9,15.52,15.52,0,0,1,1.94-2.63.65.65,0,0,1,.92-.05.64.64,0,0,1,0,.92,15.48,15.48,0,0,0-1.77,2.42A.65.65,0,0,1,61.35,34.85Zm58.3-.45a.65.65,0,0,1-.21-1.27c1-.35,2-.72,2.88-1.12a.65.65,0,0,1,.52,1.2c-1,.41-2,.8-3,1.16A.83.83,0,0,1,119.65,34.4Zm-32.14-.69a.71.71,0,0,1-.31-.08.66.66,0,0,1-.26-.89c.53-.94,1-1.84,1.6-2.74a.66.66,0,0,1,1.12.68c-.55.89-1.06,1.77-1.57,2.69A.66.66,0,0,1,87.51,33.71Zm9.92-.06a.66.66,0,0,1-.65-.62v-.17a5.89,5.89,0,0,1,1-3.15.65.65,0,0,1,.9-.19.66.66,0,0,1,.2.9,4.53,4.53,0,0,0-.84,2.44V33a.66.66,0,0,1-.62.68ZM68.14,32.36a.64.64,0,0,1-.57-.34c-.66-1.18-1.1-1.81-1.32-1.86a.68.68,0,0,1-.77-.54.64.64,0,0,1,.54-.74,1.18,1.18,0,0,1,.46,0c.87.16,1.5,1.19,2.23,2.51a.65.65,0,0,1-.25.89A.61.61,0,0,1,68.14,32.36Zm57.72-.72a.65.65,0,0,1-.33-1.22,20.35,20.35,0,0,0,2.54-1.69.66.66,0,0,1,.81,1,21.8,21.8,0,0,1-2.7,1.79A.62.62,0,0,1,125.86,31.64Zm17.07-1.1a.62.62,0,0,1-.23,0,.65.65,0,0,1-.38-.84,23.72,23.72,0,0,0,.86-2.92.66.66,0,0,1,1.28.28,22,22,0,0,1-.92,3.09A.65.65,0,0,1,142.93,30.54ZM100.81,28a.66.66,0,0,1-.43-1.15A25.87,25.87,0,0,1,103,24.92a.65.65,0,0,1,.72,1.09,25.84,25.84,0,0,0-2.44,1.84A.64.64,0,0,1,100.81,28Zm-9.72-.1a.72.72,0,0,1-.37-.11.66.66,0,0,1-.17-.91c.59-.87,1.21-1.74,1.83-2.59a.66.66,0,0,1,.92-.13.64.64,0,0,1,.13.91c-.61.83-1.22,1.68-1.8,2.54A.65.65,0,0,1,91.09,27.91ZM131,27.26a.58.58,0,0,1-.35-.11.64.64,0,0,1-.2-.9,4.59,4.59,0,0,0,.81-2.49v-.08a4.6,4.6,0,0,0-.27-1.49.65.65,0,0,1,1.22-.46,5.65,5.65,0,0,1,.35,1.92v.11a5.93,5.93,0,0,1-1,3.2A.68.68,0,0,1,131,27.26Zm-24.5-3a.63.63,0,0,1-.58-.35.65.65,0,0,1,.27-.88c.91-.48,1.88-.94,2.87-1.38a.66.66,0,0,1,.53,1.2c-1,.42-1.9.87-2.79,1.34A.66.66,0,0,1,106.48,24.26Zm37.84-.35h0a.67.67,0,0,1-.62-.69c0-.35,0-.7,0-1a18.67,18.67,0,0,0-.1-2,.67.67,0,0,1,.59-.72.66.66,0,0,1,.71.59,21.19,21.19,0,0,1,.11,2.12q0,.55,0,1.11A.66.66,0,0,1,144.32,23.91ZM95.16,22.46a.66.66,0,0,1-.5-1.07c.68-.82,1.38-1.63,2.07-2.4a.66.66,0,0,1,.93,0,.67.67,0,0,1,0,.93c-.68.75-1.37,1.54-2,2.35A.65.65,0,0,1,95.16,22.46Zm17.55-.91a.63.63,0,0,1-.61-.43.66.66,0,0,1,.4-.84c1-.35,2-.68,3-1a.65.65,0,0,1,.81.45.67.67,0,0,1-.46.81c-1,.28-2,.59-2.95.94A.78.78,0,0,1,112.71,21.55Zm16.36-1.46a.66.66,0,0,1-.27-.06,9.3,9.3,0,0,0-2.83-.7.65.65,0,0,1-.58-.72.66.66,0,0,1,.72-.58,10.46,10.46,0,0,1,3.23.81.65.65,0,0,1-.27,1.25Zm-9.8-.33a.65.65,0,0,1-.12-1.29,29.85,29.85,0,0,1,3.18-.44.65.65,0,0,1,.7.6.64.64,0,0,1-.59.7,30,30,0,0,0-3,.42ZM99.76,17.44a.65.65,0,0,1-.46-1.12c.77-.75,1.56-1.47,2.34-2.15a.65.65,0,0,1,.86,1c-.77.67-1.54,1.37-2.28,2.11A.69.69,0,0,1,99.76,17.44Zm43.77-.25a.64.64,0,0,1-.62-.47,17,17,0,0,0-1.12-2.8.66.66,0,0,1,1.17-.59,18.1,18.1,0,0,1,1.2,3,.65.65,0,0,1-.44.81A.58.58,0,0,1,143.53,17.19ZM104.91,13a.66.66,0,0,1-.52-.26.66.66,0,0,1,.13-.92c.86-.64,1.74-1.25,2.61-1.82a.67.67,0,0,1,.91.2.65.65,0,0,1-.2.9c-.84.55-1.7,1.14-2.54,1.77A.61.61,0,0,1,104.91,13Zm35.46-1.78a.68.68,0,0,1-.51-.23,14.65,14.65,0,0,0-2.14-2.1.66.66,0,0,1-.11-.92.65.65,0,0,1,.92-.1,15.76,15.76,0,0,1,2.34,2.28.66.66,0,0,1-.5,1.07ZM110.65,9.37a.66.66,0,0,1-.58-.35.64.64,0,0,1,.27-.88c1-.5,1.92-1,2.89-1.37a.65.65,0,0,1,.51,1.2c-.93.4-1.87.84-2.79,1.32A.64.64,0,0,1,110.65,9.37ZM135,7.12a.55.55,0,0,1-.28-.07,16.72,16.72,0,0,0-2.83-1,.65.65,0,1,1,.33-1.26,17.83,17.83,0,0,1,3.05,1.11.66.66,0,0,1,.32.87A.65.65,0,0,1,135,7.12Zm-18.11-.34a.66.66,0,0,1-.63-.47.65.65,0,0,1,.44-.81c1-.31,2.06-.58,3.1-.79a.66.66,0,0,1,.77.51.65.65,0,0,1-.51.77c-1,.21-2,.46-3,.76A.63.63,0,0,1,116.92,6.78Zm6.65-1.3a.66.66,0,0,1-.06-1.31c1-.09,2-.13,3-.13h.21c.62,0,1.23,0,1.83.08a.65.65,0,1,1-.11,1.3c-.56,0-1.15-.07-1.73-.07h-.2c-1,0-1.92,0-2.87.12Z"/><path class="cls-4" d="M129.19,41c15.7-7.43,14.7-35.3-3.5-34.3-25,1.37-31.28,22.63-38.11,29.61-3.56,3.63-14,3.75-15.7,2.9-3.55-1.77-4-5.86-5.51-6.15s-4.81,3.38-4.09,8.16,3,4.83,1.24,19.51c-1.09,8.86-12.15,22.56-34.44,18.51C11.6,76.05,10,65.32,12.37,59s-8.67.84-4.13,15.42c5.76,18.5,30.58,20,47.23,9.86C77.36,70.87,68.84,48,71.88,45.53S103.24,53.28,129.19,41Zm5.74-17.33c1,5.19-9.24,11.78-19.3,13.75-9.19,1.81-19.53,1.38-20.46-2.5-1.88-7.84,13.06-16.24,23.11-18.75C126.17,14.19,133.59,17,134.93,23.66Z"/><path class="cls-5" d="M80.74,46.9c-2.53,1.54-1,14.52,2.7,13.17C86,59.13,83.27,45.36,80.74,46.9Z"/><path class="cls-5" d="M111,10.48c-6.7,2.95-4,7,2.56,5.1a63.56,63.56,0,0,1,14.4-2.66C131.51,12.66,127.6,3.16,111,10.48Z"/><path class="cls-5" d="M22.63,78.64c-10.13-4.5-8.08,6,4.28,9.08s23.39-7,15.16-6.59C36.14,81.4,28.85,81.41,22.63,78.64Z"/></g></g></svg>