<svg xmlns="http://www.w3.org/2000/svg" viewBox="0 0 96.68 121.49"><defs><style>.cls-1{opacity:0.15;}.cls-2{fill:#49d800;}.cls-3{fill:#36a300;}.cls-4{fill:#89ea49;}.cls-5{fill:#acea83;}</style></defs><title>char6Asset 30</title><g id="Layer_2" data-name="Layer 2"><g id="Layer_1-2" data-name="Layer 1"><path class="cls-1" d="M14.14,9.44C9,12.23,8.85,29.34,13.32,30.76c6.42,2.05,15.35-1.75,15.81.54S13.36,37.62,4.42,58.92s-.78,45.8,24.19,56.9c18.93,8.42,46.39,5.53,53,3.45,8.26-2.57,19-22.63,11.74-24.43s-49.13,9.59-64.48-11,6.5-42,23.21-46.14C67.13,34,76.31,35,80,32.45S88.91,15.4,82.5,11.73,24.67,3.71,14.14,9.44Z"/><path class="cls-1" d="M52,55.21c-10.75,3.17-11.69,18.43-5.07,23.08C57.32,85.59,69.2,82.53,71,71,72.24,62.81,62.45,52.13,52,55.21Z"/><path class="cls-2" d="M14.14,3.69C9,6.47,8.85,23.59,13.32,25c6.42,2,15.35-1.76,15.81.53S13.36,31.86,4.42,53.16,3.64,99,28.61,110.07c18.93,8.42,46.39,5.52,53,3.45,8.26-2.58,19-22.64,11.74-24.43s-49.13,9.58-64.48-11S35.4,36.1,52.11,32c15-3.72,24.2-2.75,27.87-5.27S88.91,9.64,82.5,6,24.67-2,14.14,3.69Z"/><path class="cls-3" d="M60.55,116.65c-8.85,0-21.64-1-32.32-5.75C16.07,105.5,7.33,96.81,3,85.78a43.38,43.38,0,0,1,.63-33A52.59,52.59,0,0,1,25.42,27.57a23.73,23.73,0,0,0,2.63-1.82,3.28,3.28,0,0,0-.67-.05,28.39,28.39,0,0,0-3.33.33,46.89,46.89,0,0,1-6.08.52A16.2,16.2,0,0,1,13,25.88C10.36,25,9.56,20.7,9.33,18.2c-.57-6,.77-13.36,4.37-15.32C18.08.5,28.5,0,36.47,0,55,0,78.46,2.62,83,5.18,85.08,6.4,86.28,8.75,86.41,12c.25,5.87-3.1,13.54-5.91,15.47-2,1.41-5.33,1.79-10.28,2.36a134.41,134.41,0,0,0-17.89,3.05C42.67,35.24,30.16,44.08,26,55.76c-2.68,7.47-1.42,15,3.64,21.78,6.11,8.2,17.28,12.18,34.16,12.18,6.71,0,13.23-.62,18.46-1.12,3.57-.34,6.64-.63,8.81-.63a11.14,11.14,0,0,1,2.54.23c1.92.48,3,2,3.08,4.39.19,6.57-7.83,19.64-14.76,21.8C78.33,115.51,69.84,116.65,60.55,116.65ZM27.38,23.87c1.55,0,2.44.5,2.64,1.49.26,1.28-1,2.11-3.61,3.76C21.2,32.44,11.5,38.64,5.27,53.52-4,75.57,6,99,29,109.23c10.38,4.62,22.89,5.59,31.57,5.59,10.18,0,18-1.3,20.82-2.17,6-1.88,13.65-14.2,13.48-20-.06-2-1-2.49-1.69-2.66a9.06,9.06,0,0,0-2.1-.18c-2.08,0-5.12.29-8.63.62-5.28.51-11.84,1.13-18.64,1.13-17.49,0-29.15-4.22-35.63-12.91-5.44-7.3-6.79-15.42-3.9-23.5,4.4-12.28,17.51-21.56,27.63-24.07A136.19,136.19,0,0,1,70,28c4.52-.53,7.79-.91,9.46-2.06,2.14-1.47,5.35-8.42,5.12-13.89-.1-2.59-1-4.37-2.54-5.27C78.27,4.61,55.49,1.83,36.47,1.83c-11,0-18.74.94-21.89,2.66C11.89,6,10.64,12.67,11.15,18c.32,3.34,1.28,5.73,2.45,6.11a14.46,14.46,0,0,0,4.37.58,44.23,44.23,0,0,0,5.84-.51A30.93,30.93,0,0,1,27.38,23.87Z"/><path class="cls-3" d="M63,112.87h-.28a.66.66,0,0,1-.65-.66.65.65,0,0,1,.65-.65H63c1,0,1.91,0,2.84,0a.65.65,0,0,1,.66.63.64.64,0,0,1-.63.67C64.9,112.86,63.94,112.87,63,112.87ZM59,112.8h0c-1,0-2.11-.08-3.15-.14a.65.65,0,0,1-.62-.68.66.66,0,0,1,.69-.62c1,.06,2.08.1,3.12.14a.65.65,0,1,1,0,1.3Zm10.46-.11a.65.65,0,0,1-.65-.62.66.66,0,0,1,.61-.69c1.07,0,2.12-.13,3.11-.21a.65.65,0,1,1,.12,1.3c-1,.09-2.07.16-3.15.22Zm-17.24-.29h-.06c-1.06-.1-2.12-.2-3.15-.33a.65.65,0,1,1,.16-1.29c1,.12,2.06.22,3.1.31a.66.66,0,0,1,0,1.31Zm24-.34a.65.65,0,0,1-.09-1.3c1.18-.16,2.2-.34,3-.54a.65.65,0,0,1,.78.49.64.64,0,0,1-.48.78c-.87.21-1.93.4-3.15.57Zm-30.77-.48h-.1c-1.06-.17-2.11-.35-3.11-.54a.66.66,0,0,1,.24-1.29c1,.19,2,.37,3.07.54a.65.65,0,0,1-.1,1.29Zm-6.67-1.3-.15,0c-1-.25-2.07-.52-3.06-.81A.65.65,0,1,1,36,108.2c1,.28,2,.55,3,.79a.65.65,0,0,1-.15,1.29Zm43.9-.16a.65.65,0,0,1-.35-1.21,15.41,15.41,0,0,0,2.38-1.84.65.65,0,0,1,.89,1,17,17,0,0,1-2.58,2A.72.72,0,0,1,82.71,110.12Zm-50.42-1.76a.93.93,0,0,1-.22,0c-1-.37-2-.76-2.95-1.17a.65.65,0,0,1-.34-.86.66.66,0,0,1,.86-.34c.91.4,1.88.78,2.88,1.14a.65.65,0,0,1,.39.83A.66.66,0,0,1,32.29,108.36Zm-6.22-2.73a.67.67,0,0,1-.3-.08c-.95-.5-1.88-1-2.77-1.56a.66.66,0,0,1,.68-1.12c.87.53,1.77,1,2.7,1.52a.66.66,0,0,1,.27.89A.65.65,0,0,1,26.07,105.63Zm61.56-.15a.65.65,0,0,1-.52-1,23.91,23.91,0,0,0,1.7-2.54.65.65,0,0,1,1.13.66,24.51,24.51,0,0,1-1.79,2.68A.64.64,0,0,1,87.63,105.48ZM20.3,102.06a.69.69,0,0,1-.39-.12c-.86-.63-1.7-1.29-2.51-2a.66.66,0,0,1-.08-.92.65.65,0,0,1,.92-.08c.78.65,1.6,1.29,2.44,1.9a.64.64,0,0,1,.14.91A.62.62,0,0,1,20.3,102.06Zm70.63-2.49a.93.93,0,0,1-.22,0,.66.66,0,0,1-.39-.84,9.58,9.58,0,0,0,.6-2.85.66.66,0,0,1,.67-.64.65.65,0,0,1,.64.66,10.73,10.73,0,0,1-.68,3.27A.66.66,0,0,1,90.93,99.57Zm-75.8-1.92a.63.63,0,0,1-.46-.19c-.75-.75-1.48-1.54-2.16-2.35a.65.65,0,1,1,1-.84c.66.78,1.36,1.54,2.08,2.27a.65.65,0,0,1,0,.93A.67.67,0,0,1,15.13,97.65Zm51.12-2.44a.65.65,0,1,1,0-1.3c1,0,2.06,0,3.11-.1a.65.65,0,0,1,.68.63.64.64,0,0,1-.62.68c-1.07,0-2.13.08-3.16.09Zm-3.66,0h0c-1.07,0-2.13-.06-3.16-.13a.65.65,0,1,1,.08-1.3c1,.06,2.06.1,3.11.13a.64.64,0,0,1,.64.66A.66.66,0,0,1,62.59,95.2Zm10.46-.29a.65.65,0,0,1-.65-.61.64.64,0,0,1,.6-.69l3.12-.25a.65.65,0,0,1,.71.59.66.66,0,0,1-.6.71l-3.14.25Zm-17.24-.14h-.07c-1.07-.11-2.13-.25-3.14-.41a.65.65,0,1,1,.21-1.29c1,.15,2,.29,3.07.4a.66.66,0,0,1,.58.73A.65.65,0,0,1,55.81,94.77Zm24-.46a.65.65,0,0,1-.07-1.3l1.17-.12,2-.2A.66.66,0,0,1,83,94l-2,.19-1.16.12Zm9.9-.54H89.6a13.13,13.13,0,0,0-3-.06.66.66,0,0,1-.69-.62.65.65,0,0,1,.62-.69,14.54,14.54,0,0,1,3.28.08.66.66,0,0,1-.12,1.3Zm-40.61-.09-.14,0c-1-.23-2.09-.49-3.08-.77a.65.65,0,0,1,.35-1.26c1,.28,2,.53,3,.76a.65.65,0,0,1-.14,1.29ZM10.79,92.44a.65.65,0,0,1-.54-.28c-.61-.87-1.18-1.78-1.71-2.7a.65.65,0,1,1,1.13-.65c.51.89,1.07,1.76,1.65,2.61a.64.64,0,0,1-.16.9A.68.68,0,0,1,10.79,92.44Zm31.8-.66a.59.59,0,0,1-.23,0c-1-.36-2-.77-3-1.2A.65.65,0,0,1,40,89.35c.93.42,1.89.81,2.86,1.17a.65.65,0,0,1-.22,1.26ZM36.42,89a.61.61,0,0,1-.32-.08c-.94-.52-1.85-1.09-2.72-1.68a.65.65,0,0,1-.18-.9.66.66,0,0,1,.91-.18c.84.57,1.73,1.11,2.63,1.62A.65.65,0,0,1,36.42,89Zm-29-2.41a.67.67,0,0,1-.6-.39c-.43-1-.83-2-1.19-3a.66.66,0,0,1,1.24-.43c.34,1,.73,1.92,1.15,2.85a.67.67,0,0,1-.33.87A.66.66,0,0,1,7.44,86.54Zm23.38-1.42A.66.66,0,0,1,30.4,85c-.82-.68-1.61-1.4-2.37-2.14a.65.65,0,0,1,.91-.93c.73.72,1.5,1.41,2.29,2.06a.65.65,0,0,1-.41,1.16ZM26,80.33a.64.64,0,0,1-.5-.23c-.27-.32-.54-.65-.8-1-.4-.52-.78-1-1.14-1.57a.65.65,0,0,1,.17-.9.65.65,0,0,1,.91.17c.34.5.71,1,1.09,1.49.25.32.51.64.77,1a.65.65,0,0,1-.5,1.07ZM5.22,80.12a.65.65,0,0,1-.63-.49c-.25-1-.47-2.08-.63-3.13a.65.65,0,0,1,.54-.75.66.66,0,0,1,.75.54c.16,1,.37,2,.61,3a.65.65,0,0,1-.48.79A.41.41,0,0,1,5.22,80.12Zm17.05-5.45a.65.65,0,0,1-.59-.37,23.86,23.86,0,0,1-1.19-3,.64.64,0,0,1,.42-.82.65.65,0,0,1,.82.42,23.5,23.5,0,0,0,1.13,2.83.65.65,0,0,1-.3.87A.75.75,0,0,1,22.27,74.67ZM4.19,73.41a.65.65,0,0,1-.65-.61c-.06-.86-.08-1.74-.08-2.61v-.58a.66.66,0,0,1,1.31,0c0,.19,0,.37,0,.56,0,.84,0,1.69.09,2.53a.65.65,0,0,1-.61.69ZM20.27,68.2a.64.64,0,0,1-.64-.55,23,23,0,0,1-.26-3.22.65.65,0,1,1,1.3,0,23.36,23.36,0,0,0,.25,3,.66.66,0,0,1-.55.75ZM4.33,66.62H4.26a.65.65,0,0,1-.58-.72c.11-1.05.26-2.11.45-3.15A.65.65,0,1,1,5.41,63C5.23,64,5.09,65,5,66A.65.65,0,0,1,4.33,66.62Zm15.92-5.19h-.09a.64.64,0,0,1-.56-.73,27.37,27.37,0,0,1,.62-3.15.66.66,0,1,1,1.27.33,24.83,24.83,0,0,0-.59,3A.66.66,0,0,1,20.25,61.43ZM5.57,60l-.17,0a.65.65,0,0,1-.46-.8c.27-1,.59-2,.93-3a.67.67,0,0,1,.84-.41.66.66,0,0,1,.4.84c-.34,1-.64,2-.91,3A.65.65,0,0,1,5.57,60ZM22,54.88a.69.69,0,0,1-.24-.05.65.65,0,0,1-.37-.84c.39-1,.83-2,1.32-2.92a.66.66,0,0,1,.88-.29.65.65,0,0,1,.28.88c-.47.93-.89,1.87-1.26,2.8A.66.66,0,0,1,22,54.88ZM7.83,53.54a.66.66,0,0,1-.27-.06.64.64,0,0,1-.33-.86c.42-1,.89-1.93,1.39-2.86a.66.66,0,0,1,.89-.27.65.65,0,0,1,.26.88c-.48.91-.93,1.84-1.35,2.78A.64.64,0,0,1,7.83,53.54Zm17.27-4.7a.62.62,0,0,1-.35-.1.64.64,0,0,1-.2-.9c.56-.88,1.17-1.76,1.82-2.62a.65.65,0,1,1,1,.79c-.62.83-1.22,1.68-1.76,2.53A.65.65,0,0,1,25.1,48.84Zm-14-1.26a.66.66,0,0,1-.55-1c.57-.87,1.19-1.75,1.84-2.59a.66.66,0,0,1,.92-.13.66.66,0,0,1,.12.92c-.63.82-1.23,1.67-1.79,2.52A.65.65,0,0,1,11.07,47.58Zm18.15-4.13a.66.66,0,0,1-.49-1.1c.71-.78,1.45-1.55,2.21-2.29a.67.67,0,0,1,.93,0,.66.66,0,0,1,0,.93c-.74.72-1.46,1.47-2.14,2.23A.68.68,0,0,1,29.22,43.45Zm-14-1.25a.66.66,0,0,1-.49-1.09c.69-.77,1.43-1.55,2.19-2.3a.66.66,0,0,1,.93,0,.65.65,0,0,1,0,.92c-.74.74-1.46,1.49-2.14,2.24A.64.64,0,0,1,15.22,42.2Zm18.9-3.46a.65.65,0,0,1-.42-1.16c.8-.67,1.65-1.33,2.51-1.95a.64.64,0,0,1,.91.14.65.65,0,0,1-.14.91c-.84.61-1.66,1.25-2.45,1.91A.65.65,0,0,1,34.12,38.74Zm-14-1.29a.65.65,0,0,1-.43-1.15c.77-.67,1.59-1.34,2.45-2a.65.65,0,1,1,.8,1c-.83.66-1.64,1.33-2.4,2A.61.61,0,0,1,20.08,37.45Zm19.55-2.69a.65.65,0,0,1-.35-1.21C40.18,33,41.11,32.46,42,32a.65.65,0,1,1,.61,1.15c-.9.48-1.8,1-2.68,1.55A.67.67,0,0,1,39.63,34.76Zm-14.2-1.5A.68.68,0,0,1,24.9,33a.67.67,0,0,1,.15-.92c.78-.55,1.6-1.13,2.59-1.8a.65.65,0,1,1,.73,1.08c-1,.67-1.79,1.23-2.56,1.79A.66.66,0,0,1,25.43,33.26ZM45.64,31.6a.67.67,0,0,1-.6-.39.66.66,0,0,1,.34-.86c1-.43,2-.82,3-1.18a.65.65,0,0,1,.83.4.66.66,0,0,1-.39.84c-1,.34-1.93.72-2.88,1.14A.75.75,0,0,1,45.64,31.6ZM31,29.41a.68.68,0,0,1-.54-.28.67.67,0,0,1,.17-.91c1.16-.79,1.91-1.33,2.52-1.81a.64.64,0,0,1,.91.11.65.65,0,0,1-.1.92c-.63.5-1.41,1-2.59,1.86A.62.62,0,0,1,31,29.41Zm21-.05a.65.65,0,0,1-.16-1.28c1-.27,2-.52,3.06-.76a.65.65,0,1,1,.3,1.27c-1,.24-2,.49-3,.75A.47.47,0,0,1,52.05,29.36Zm6.63-1.5a.65.65,0,0,1-.12-1.29c1-.19,2-.37,3.11-.53a.64.64,0,0,1,.75.54.66.66,0,0,1-.54.75c-1.07.16-2.07.34-3.08.52Zm6.72-1a.65.65,0,0,1-.65-.57.66.66,0,0,1,.57-.73l3.13-.36a.65.65,0,1,1,.14,1.3c-1,.11-2,.22-3.11.36Zm6.75-.76a.66.66,0,0,1-.08-1.31,26.19,26.19,0,0,0,3-.52.65.65,0,1,1,.31,1.27,26.32,26.32,0,0,1-3.16.55ZM35.69,24.75a.65.65,0,0,1-.65-.61A.5.5,0,0,0,35,24a2.23,2.23,0,0,0-1.57-1.49.65.65,0,1,1,.45-1.22,3.48,3.48,0,0,1,2.39,2.38,2.38,2.38,0,0,1,.06.37.65.65,0,0,1-.62.69Zm42.79-.83a.67.67,0,0,1-.49-.21.66.66,0,0,1,0-.92,12.2,12.2,0,0,0,1.88-2.3.65.65,0,0,1,1.1.71,14.19,14.19,0,0,1-2.09,2.55A.7.7,0,0,1,78.48,23.92ZM20.14,22.5a.66.66,0,0,1-.65-.65.66.66,0,0,1,.65-.66c1.06,0,2.21-.08,3.1-.13a.64.64,0,0,1,.69.61.65.65,0,0,1-.61.69c-.9.06-2.07.13-3.17.14Zm-3.63-.32-.17,0a7.73,7.73,0,0,1-.77-.25,3.52,3.52,0,0,1-1.68-2.36.66.66,0,0,1,1.25-.4c.31,1,.68,1.45.92,1.55a4.39,4.39,0,0,0,.61.19.66.66,0,0,1-.16,1.29Zm10.42-.06a.66.66,0,0,1-.65-.62.65.65,0,0,1,.62-.68c1.29-.08,2.26-.1,3.18-.08a.65.65,0,1,1,0,1.3c-.89,0-1.83,0-3.09.08Zm55.18-3.89a.62.62,0,0,1-.23,0,.66.66,0,0,1-.39-.84,11.66,11.66,0,0,0,.69-2.88.65.65,0,0,1,1.3.12,13.12,13.12,0,0,1-.76,3.22A.66.66,0,0,1,82.11,18.23ZM13.93,16.4a.66.66,0,0,1-.65-.62q0-.57,0-1.17a19.88,19.88,0,0,1,.1-2.06.65.65,0,1,1,1.3.12c-.06.63-.09,1.29-.09,1.94,0,.37,0,.74,0,1.1a.67.67,0,0,1-.62.69Zm68.34-4.78a.65.65,0,0,1-.59-.36,4.68,4.68,0,0,0-1.88-2,.65.65,0,0,1,.66-1.13,6,6,0,0,1,2.39,2.51.65.65,0,0,1-.3.88A.58.58,0,0,1,82.27,11.62ZM14.76,9.69a.59.59,0,0,1-.23,0,.66.66,0,0,1-.39-.84A5,5,0,0,1,16.26,6a.66.66,0,0,1,.89.26.66.66,0,0,1-.26.89,3.85,3.85,0,0,0-1.52,2.13A.66.66,0,0,1,14.76,9.69ZM76.67,8.21l-.15,0c-.88-.21-1.9-.43-3-.64A.65.65,0,0,1,73,6.79a.66.66,0,0,1,.77-.52c1.16.21,2.2.43,3.1.65a.64.64,0,0,1,.49.78A.67.67,0,0,1,76.67,8.21ZM70,7h-.09c-1-.15-2-.29-3.1-.43A.65.65,0,1,1,67,5.24c1.09.14,2.13.28,3.13.43a.65.65,0,0,1,.55.74A.66.66,0,0,1,70,7ZM19.44,6.16a.66.66,0,0,1-.17-1.29c.92-.24,2-.45,3.14-.64a.66.66,0,0,1,.75.55.65.65,0,0,1-.54.74c-1.13.18-2.14.39-3,.62Zm43.79,0h-.07l-3.11-.32a.65.65,0,0,1-.59-.71.65.65,0,0,1,.71-.59l3.13.32a.66.66,0,0,1-.07,1.31Zm-6.77-.64h-.05l-3.13-.23a.66.66,0,0,1,.09-1.31l3.14.24a.66.66,0,0,1,0,1.31ZM26.15,5.09a.66.66,0,0,1-.06-1.31c1-.09,2-.17,3.15-.23a.65.65,0,1,1,.07,1.3c-1.08.07-2.13.14-3.1.23ZM49.67,5h0l-3.13-.15a.66.66,0,0,1,.05-1.31l3.15.16a.65.65,0,0,1,.61.69A.64.64,0,0,1,49.67,5Zm-6.79-.28h0l-3.13-.06A.66.66,0,0,1,39.08,4a.66.66,0,0,1,.66-.65l3.15.06a.66.66,0,0,1,0,1.31Zm-9.94,0a.66.66,0,0,1,0-1.31c1,0,2.08,0,3.15-.05h0a.66.66,0,0,1,0,1.31c-1.06,0-2.11,0-3.13,0Z"/><path class="cls-4" d="M19.16,8.14c-3.44,1.86-1.65,9.79.71,10.74,4.65,1.87,15.76-1.78,18.57,2.19,4.29,6.08-20,13.9-27.86,32.69S7.92,94.16,29.94,104c16.7,7.43,37.37,6.25,45.68,3,7.1-2.78,13.81-10.37,9.16-11.5C78.4,93.91,42.73,106.66,22.3,78.69,8.94,60.4,23.42,35.25,51.64,26.18c13-4.18,19.52-2.38,22.76-4.6s8.69-8.19,3-11.43S28.45,3.08,19.16,8.14Z"/><path class="cls-2" d="M52,49.46c-10.75,3.16-11.69,18.43-5.07,23.07C57.32,79.84,69.2,76.78,71,65.28,72.24,57.05,62.45,46.38,52,49.46Z"/><path class="cls-3" d="M58.33,77.4h0a21,21,0,0,1-11.95-4.12c-3.48-2.44-5.22-7.71-4.34-13.1,1-5.76,4.57-10.1,9.69-11.6a13.91,13.91,0,0,1,4-.58A16.43,16.43,0,0,1,68,54c3,3.47,4.42,7.73,3.85,11.39C70.74,72.8,65.55,77.4,58.33,77.4ZM55.72,49.83a12.51,12.51,0,0,0-3.48.5c-4.42,1.31-7.56,5.1-8.39,10.14-.77,4.72.67,9.27,3.58,11.31a19.17,19.17,0,0,0,10.9,3.79c6.25,0,10.75-4,11.74-10.43.48-3.14-.81-6.85-3.44-9.92A14.59,14.59,0,0,0,55.72,49.83Z"/><path class="cls-4" d="M54.61,54.24c-7.07.71-8.15,16.84,3.62,14.87C67.17,67.62,67,53,54.61,54.24Z"/><path class="cls-3" d="M56.59,74.08l-.58,0a.65.65,0,0,1-.61-.7.64.64,0,0,1,.69-.61l.53,0a8.87,8.87,0,0,0,1.82-.19c.19,0,.38-.08.56-.12a.65.65,0,0,1,.32,1.27l-.62.13A11,11,0,0,1,56.59,74.08Zm-4-1a.7.7,0,0,1-.31-.07,10,10,0,0,1-2.61-2.09.65.65,0,1,1,1-.87,8.62,8.62,0,0,0,2.27,1.81.65.65,0,0,1-.32,1.22Zm10-.7a.65.65,0,0,1-.34-1.21,8.73,8.73,0,0,0,2.18-1.92.65.65,0,1,1,1,.83,10.14,10.14,0,0,1-2.5,2.2A.64.64,0,0,1,62.52,72.35ZM48.15,68a.66.66,0,0,1-.6-.38,14.62,14.62,0,0,1-1-3.13.66.66,0,0,1,1.29-.25,13,13,0,0,0,.89,2.84.66.66,0,0,1-.32.87A.86.86,0,0,1,48.15,68Zm18.43-1-.2,0a.65.65,0,0,1-.42-.82,10.34,10.34,0,0,0,.46-2.9.66.66,0,0,1,.66-.65.67.67,0,0,1,.65.67,11.48,11.48,0,0,1-.53,3.27A.64.64,0,0,1,66.58,67.08ZM47,61.41h-.06a.66.66,0,0,1-.6-.71,11.63,11.63,0,0,1,.74-3.23A.66.66,0,1,1,48.3,58a10.13,10.13,0,0,0-.65,2.86A.65.65,0,0,1,47,61.41Zm19.56-1a.64.64,0,0,1-.62-.46,10.91,10.91,0,0,0-1.24-2.68.66.66,0,0,1,.2-.9.65.65,0,0,1,.9.19,12.31,12.31,0,0,1,1.39,3,.65.65,0,0,1-.44.81A.63.63,0,0,1,66.56,60.38Zm-16.85-5a.66.66,0,0,1-.48-.21.65.65,0,0,1,0-.92,8,8,0,0,1,2.9-1.73.66.66,0,0,1,.55,0,.63.63,0,0,1,.41-.35,14.12,14.12,0,0,1,3.24-.53.65.65,0,0,1,.06,1.3,12.46,12.46,0,0,0-2.94.49.65.65,0,0,1-.51-.07.63.63,0,0,1-.38.35,6.83,6.83,0,0,0-2.44,1.45A.7.7,0,0,1,49.71,55.35Zm13.07-.48a.73.73,0,0,1-.39-.13,8.69,8.69,0,0,0-2.58-1.34.65.65,0,0,1,.4-1.24,10,10,0,0,1,3,1.53.65.65,0,0,1-.39,1.18Z"/><path class="cls-5" d="M30.55,89.1C20.13,81.46,19.06,95.53,35,102s27.37-1.62,17.76-4C45,96.14,37.88,94.47,30.55,89.1Z"/><path class="cls-5" d="M76.47,12.88C77.89,8.15,46.94,4.13,47,11.18,47,16.39,73.09,24.21,76.47,12.88Z"/><path class="cls-5" d="M59.05,54.47c-5.16-1-9.72,5.55-2.37,7.51S64.22,55.47,59.05,54.47Z"/></g></g></svg>