<svg xmlns="http://www.w3.org/2000/svg" viewBox="0 0 75.3 105.3"><defs><style>.cls-1{opacity:0.15;}.cls-2{fill:#ff9f31;}.cls-3{fill:#ff7817;}.cls-4{fill:#fca95e;}.cls-5{fill:#ffa4c7;}.cls-6{fill:#e57fa8;}.cls-7{fill:#fcb783;}</style></defs><title>char6Asset 26</title><g id="Layer_2" data-name="Layer 2"><g id="Layer_1-2" data-name="Layer 1"><path class="cls-1" d="M28.94,7.18c-10.08,3-11,17.28-4.75,21.62,9.76,6.85,20.89,4,22.55-6.79C47.92,14.3,38.76,4.29,28.94,7.18Z"/><path class="cls-1" d="M9.84,51.79c-7.75,9.14-14.94,29.57-1.27,44s50.32,13.42,61.5-9.88-1.74-57.48-12.2-57.63c-5.75-.09-12.43,10.79-9,16.19,4.56,7.26,9.37,16.63,4.31,27.26C48.67,81.1,25.26,84.9,20.62,75.54c-4.57-9.2,2.89-19.25,2.38-24.06S13.89,47,9.84,51.79Z"/><path class="cls-1" d="M9.84,51.79c-7.75,9.14-14.94,29.57-1.27,44s50.32,13.42,61.5-9.88-1.74-57.48-12.2-57.63c-5.75-.09-12.43,10.79-9,16.19,4.56,7.26,9.37,16.63,4.31,27.26C48.67,81.1,25.26,84.9,20.62,75.54c-4.57-9.2,2.89-19.25,2.38-24.06S13.89,47,9.84,51.79Z"/><path class="cls-2" d="M28.94,1.42c-10.08,3-11,17.28-4.75,21.63,9.76,6.84,20.89,4,22.55-6.8C47.92,8.54,38.76-1.46,28.94,1.42Z"/><path class="cls-3" d="M34.89,27.67h0A19.74,19.74,0,0,1,23.66,23.8c-3.28-2.3-4.92-7.26-4.09-12.34C20.46,6,23.87,2,28.69.54A13.34,13.34,0,0,1,32.44,0,15.46,15.46,0,0,1,44,5.67c2.81,3.27,4.16,7.27,3.63,10.72C46.57,23.35,41.69,27.67,34.89,27.67ZM32.44,1.83a11.6,11.6,0,0,0-3.24.47c-4.13,1.22-7,4.75-7.82,9.46-.72,4.4.62,8.63,3.33,10.54a18,18,0,0,0,10.18,3.54c5.83,0,10-3.73,10.94-9.73.45-2.92-.75-6.38-3.21-9.25A13.6,13.6,0,0,0,32.44,1.83Z"/><path class="cls-4" d="M31,6.18c-7.51.64-8.67,16.8,3.86,15C44.38,19.85,44.24,5.05,31,6.18Z"/><path class="cls-3" d="M33.12,25.42H33a.66.66,0,0,1-.65-.66.66.66,0,0,1,.65-.65h.15a10.68,10.68,0,0,0,2-.2l.79-.18a.65.65,0,0,1,.8.46.66.66,0,0,1-.47.8l-.86.2A11.71,11.71,0,0,1,33.12,25.42Zm-3.7-.75a.58.58,0,0,1-.26-.06,10.21,10.21,0,0,1-2.8-1.8.65.65,0,0,1-.06-.92.66.66,0,0,1,.93-.05,8.89,8.89,0,0,0,2.45,1.57.66.66,0,0,1-.26,1.26Zm10-1.09a.67.67,0,0,1-.56-.31.65.65,0,0,1,.21-.9,9.66,9.66,0,0,0,2.21-1.91.66.66,0,0,1,1,.85,11.12,11.12,0,0,1-2.51,2.17A.64.64,0,0,1,39.43,23.58ZM24.51,20.13A.63.63,0,0,1,24,19.8a13.12,13.12,0,0,1-1.27-3,.66.66,0,0,1,.46-.8.65.65,0,0,1,.8.45,12.09,12.09,0,0,0,1.14,2.75.65.65,0,0,1-.24.89A.62.62,0,0,1,24.51,20.13Zm19.1-1.74a.85.85,0,0,1-.22,0,.65.65,0,0,1-.39-.84,10,10,0,0,0,.57-2.88.66.66,0,0,1,1.31.07A11.51,11.51,0,0,1,44.23,18,.66.66,0,0,1,43.61,18.39ZM22.87,13.62h0a.66.66,0,0,1-.64-.67,10.67,10.67,0,0,1,.62-3.28.65.65,0,0,1,1.23.45A9,9,0,0,0,23.52,13,.65.65,0,0,1,22.87,13.62ZM43.8,11.7a.65.65,0,0,1-.63-.47,9.28,9.28,0,0,0-1.25-2.64A.65.65,0,0,1,43,7.86a10.74,10.74,0,0,1,1.42,3,.64.64,0,0,1-.44.81ZM25.43,7.52A.65.65,0,0,1,25,6.39a8.52,8.52,0,0,1,2.88-1.76.66.66,0,0,1,.46,1.23,7.3,7.3,0,0,0-2.45,1.48A.62.62,0,0,1,25.43,7.52ZM39.86,6.33a.64.64,0,0,1-.35-.1,8.89,8.89,0,0,0-2.67-1.17.65.65,0,1,1,.33-1.26,10.17,10.17,0,0,1,3,1.33.66.66,0,0,1,.19.91A.64.64,0,0,1,39.86,6.33ZM30.28,5.22a.65.65,0,0,1-.16-1.29,17.12,17.12,0,0,1,3.22-.49.65.65,0,1,1,.07,1.3,16.13,16.13,0,0,0-3,.46A.47.47,0,0,1,30.28,5.22Z"/><path class="cls-5" d="M9.84,46C2.09,55.18-5.1,75.6,8.57,90s50.32,13.42,61.5-9.87-1.74-57.49-12.2-57.64c-5.75-.08-12.43,10.79-9,16.19C53.39,46,58.2,55.34,53.14,66c-4.47,9.37-27.88,13.17-32.52,3.81S23.51,50.53,23,45.72,13.89,41.25,9.84,46Z"/><path class="cls-6" d="M34.87,100.46c-11.07,0-21.15-3.66-27-9.8C-5.6,76.41.5,55.64,9.14,45.44A12.09,12.09,0,0,1,18,41.36c3.35,0,5.61,1.63,5.88,4.26.2,1.87-.61,4.24-1.54,7-1.67,4.93-3.75,11.07-.93,16.76,1.54,3.11,5.71,4.89,11.44,4.89,7.52,0,16.84-3.25,19.43-8.69C57,55.78,53,47.11,48.06,39.2c-1.69-2.69-1.36-6.71.88-10.76s5.78-6.83,8.87-6.83h.08c3.16,0,6.56,2.76,9.59,7.64,6.56,10.59,12,33.51,3.42,51.3C63.86,95.23,47.67,100.46,34.87,100.46ZM18,43.19a10.22,10.22,0,0,0-7.5,3.43C2.33,56.3-3.49,76,9.23,89.41c5.48,5.77,15.06,9.22,25.64,9.22,12.24,0,27.7-5,34.38-18.87,8.23-17.17,3-39.31-3.33-49.55-2.64-4.27-5.58-6.74-8.06-6.77h0c-2.4,0-5.32,2.36-7.26,5.88s-2.25,6.82-.94,8.91c5,8,9.41,17.51,4.35,28.14-3,6.32-13.11,9.73-21.08,9.73-6.45,0-11.22-2.15-13.08-5.91-3.16-6.36-.95-12.9.84-18.16.86-2.55,1.61-4.75,1.45-6.21C21.84,43.38,18.91,43.19,18,43.19Z"/><path class="cls-2" d="M9.84,46C2.09,55.18-5.1,75.6,8.57,90s50.32,13.42,61.5-9.87-1.74-57.49-12.2-57.64c-5.75-.08-12.43,10.79-9,16.19C53.39,46,58.2,55.34,53.14,66c-4.47,9.37-27.88,13.17-32.52,3.81S23.51,50.53,23,45.72,13.89,41.25,9.84,46Z"/><path class="cls-3" d="M34.87,100.46c-11.07,0-21.15-3.66-27-9.8C-5.6,76.41.5,55.64,9.14,45.44A12.09,12.09,0,0,1,18,41.36c3.35,0,5.61,1.63,5.88,4.26.2,1.87-.61,4.24-1.54,7-1.67,4.93-3.75,11.07-.93,16.76,1.54,3.11,5.71,4.89,11.44,4.89,7.52,0,16.84-3.25,19.43-8.69C57,55.78,53,47.11,48.06,39.2c-1.69-2.69-1.36-6.71.88-10.76s5.78-6.83,8.87-6.83h.08c3.16,0,6.56,2.76,9.59,7.64,6.56,10.59,12,33.51,3.42,51.3C63.86,95.23,47.67,100.46,34.87,100.46ZM18,43.19a10.22,10.22,0,0,0-7.5,3.43C2.33,56.3-3.49,76,9.23,89.41c5.48,5.77,15.06,9.22,25.64,9.22,12.24,0,27.7-5,34.38-18.87,8.23-17.17,3-39.31-3.33-49.55-2.64-4.27-5.58-6.74-8.06-6.77h0c-2.4,0-5.32,2.36-7.26,5.88s-2.25,6.82-.94,8.91c5,8,9.41,17.51,4.35,28.14-3,6.32-13.11,9.73-21.08,9.73-6.45,0-11.22-2.15-13.08-5.91-3.16-6.36-.95-12.9.84-18.16.86-2.55,1.61-4.75,1.45-6.21C21.84,43.38,18.91,43.19,18,43.19Z"/><path class="cls-3" d="M35.17,96.49l-1.43,0a.65.65,0,1,1,0-1.3c1,0,2.05,0,3.09,0a.65.65,0,0,1,0,1.3C36.34,96.47,35.76,96.49,35.17,96.49Zm-5.05-.3H30c-1.06-.13-2.12-.29-3.15-.49a.67.67,0,0,1-.52-.77.66.66,0,0,1,.77-.51c1,.19,2,.35,3.05.47a.65.65,0,0,1,.57.73A.64.64,0,0,1,30.12,96.19Zm10.43,0a.65.65,0,0,1-.08-1.3c1-.13,2.05-.29,3.05-.49a.65.65,0,1,1,.25,1.28c-1,.2-2.09.37-3.14.5ZM23.46,94.84a.57.57,0,0,1-.18,0,31.74,31.74,0,0,1-3-1,.66.66,0,0,1-.36-.85.65.65,0,0,1,.85-.37c.93.38,1.91.71,2.91,1a.65.65,0,0,1-.19,1.28Zm23.74,0A.65.65,0,0,1,47,93.51c1-.29,2-.62,2.92-1a.66.66,0,0,1,.85.38.65.65,0,0,1-.38.84c-1,.38-2,.72-3,1A.65.65,0,0,1,47.2,94.79Zm6.33-2.47a.66.66,0,0,1-.3-1.24,30.33,30.33,0,0,0,2.68-1.51.66.66,0,0,1,.7,1.11c-.9.56-1.83,1.09-2.79,1.57A.59.59,0,0,1,53.53,92.32Zm-36.34-.06a.61.61,0,0,1-.32-.08,26.11,26.11,0,0,1-2.72-1.7.66.66,0,0,1,.76-1.07A23.68,23.68,0,0,0,17.5,91a.66.66,0,0,1,.26.89A.64.64,0,0,1,17.19,92.26Zm42.05-3.6a.65.65,0,0,1-.51-.24.66.66,0,0,1,.1-.92,29.74,29.74,0,0,0,2.29-2,.64.64,0,0,1,.92,0,.65.65,0,0,1,0,.92,28.7,28.7,0,0,1-2.39,2.14A.68.68,0,0,1,59.24,88.66Zm-47.5-.42a.67.67,0,0,1-.47-.2l-.34-.35a26.52,26.52,0,0,1-1.77-2.07.64.64,0,0,1,.11-.91.65.65,0,0,1,.92.11,24.09,24.09,0,0,0,1.69,2l.32.33a.67.67,0,0,1,0,.93A.7.7,0,0,1,11.74,88.24ZM64,83.83a.67.67,0,0,1-.4-.14.66.66,0,0,1-.12-.92,23.93,23.93,0,0,0,1.73-2.52.65.65,0,0,1,.89-.23.66.66,0,0,1,.23.9,29.51,29.51,0,0,1-1.81,2.65A.65.65,0,0,1,64,83.83Zm-56.34-1a.65.65,0,0,1-.57-.33,24.93,24.93,0,0,1-1.4-2.9A.66.66,0,0,1,6,78.75a.64.64,0,0,1,.85.36,24,24,0,0,0,1.33,2.75.67.67,0,0,1-.25.89A.72.72,0,0,1,7.65,82.83ZM33.38,79.4h-.11a26,26,0,0,1-3.09-.18.65.65,0,1,1,.15-1.3,23.58,23.58,0,0,0,2.94.17h.11a.66.66,0,0,1,.66.66A.65.65,0,0,1,33.38,79.4ZM37,79.15a.65.65,0,0,1-.08-1.3,29.72,29.72,0,0,0,3-.55.65.65,0,0,1,.78.49.67.67,0,0,1-.49.79c-1.05.24-2.11.43-3.15.57ZM26.67,78.5a.57.57,0,0,1-.18,0,18.6,18.6,0,0,1-3-1.15.66.66,0,0,1-.31-.87.65.65,0,0,1,.87-.31,18.81,18.81,0,0,0,2.83,1.08.65.65,0,0,1,.45.81A.66.66,0,0,1,26.67,78.5ZM67.43,78a.58.58,0,0,1-.26-.06.66.66,0,0,1-.34-.86c.41-.93.79-1.89,1.12-2.87a.65.65,0,0,1,1.24.42c-.35,1-.74,2-1.16,3A.67.67,0,0,1,67.43,78Zm-23.79-.42a.65.65,0,0,1-.22-1.27c1-.34,1.93-.73,2.85-1.15a.66.66,0,1,1,.55,1.19c-1,.44-2,.84-3,1.2A.76.76,0,0,1,43.64,77.57Zm-38.46-1a.65.65,0,0,1-.64-.5A27.46,27.46,0,0,1,4,72.86a.66.66,0,0,1,.58-.73.65.65,0,0,1,.72.58,27,27,0,0,0,.53,3,.64.64,0,0,1-.48.78A.39.39,0,0,1,5.18,76.52Zm15.45-1a.66.66,0,0,1-.4-.13,16.42,16.42,0,0,1-2.4-2.2.65.65,0,1,1,1-.87,16.19,16.19,0,0,0,2.22,2,.65.65,0,0,1,.13.91A.66.66,0,0,1,20.63,75.47Zm29.14-.8a.65.65,0,0,1-.34-1.21,26.76,26.76,0,0,0,2.49-1.76.65.65,0,1,1,.82,1,24.93,24.93,0,0,1-2.62,1.86A.64.64,0,0,1,49.77,74.67Zm19.82-3.12-.15,0a.65.65,0,0,1-.48-.79c.23-1,.44-2,.61-3a.65.65,0,0,1,.75-.53.64.64,0,0,1,.54.75c-.17,1-.39,2.1-.63,3.12A.66.66,0,0,1,69.59,71.55ZM16.3,70.32a.65.65,0,0,1-.59-.37,12.36,12.36,0,0,1-1-3.16A.65.65,0,0,1,16,66.57a11.16,11.16,0,0,0,.88,2.82.65.65,0,0,1-.59.93Zm38.64,0a.73.73,0,0,1-.42-.14.65.65,0,0,1-.09-.92A10.89,10.89,0,0,0,56,66.72a.66.66,0,0,1,.86-.34.65.65,0,0,1,.34.86,11.54,11.54,0,0,1-1.74,2.81A.63.63,0,0,1,54.94,70.29ZM4.46,69.78h0a.65.65,0,0,1-.65-.66c0-1.05.09-2.12.21-3.2a.65.65,0,1,1,1.3.16,28.92,28.92,0,0,0-.2,3.06A.65.65,0,0,1,4.46,69.78Zm66.22-4.94h-.06a.66.66,0,0,1-.6-.71c.09-1,.15-2,.18-3.09a.66.66,0,0,1,.66-.64h0a.66.66,0,0,1,.63.68c0,1.06-.09,2.13-.18,3.17A.65.65,0,0,1,70.68,64.84Zm-12.89-.66a.57.57,0,0,1-.18,0,.65.65,0,0,1-.45-.81,29.33,29.33,0,0,0,.73-3,.65.65,0,0,1,.77-.52.66.66,0,0,1,.52.76,31.92,31.92,0,0,1-.76,3.11A.66.66,0,0,1,57.79,64.18Zm-42.54-.49h-.06A.66.66,0,0,1,14.6,63a19.35,19.35,0,0,1,.57-3.19.66.66,0,0,1,1.27.34,18.88,18.88,0,0,0-.54,3A.66.66,0,0,1,15.25,63.69Zm-10-.64-.15,0a.65.65,0,0,1-.49-.78c.24-1,.52-2.06.85-3.08a.66.66,0,0,1,1.25.4c-.32,1-.6,2-.82,3A.66.66,0,0,1,5.29,63.05Zm65.55-5a.65.65,0,0,1-.65-.63c0-1-.1-2.07-.2-3.1a.66.66,0,0,1,1.31-.12c.09,1.06.16,2.13.19,3.17a.65.65,0,0,1-.62.68ZM59,57.5h0a.66.66,0,0,1-.63-.68c0-.34,0-.66,0-1a19.81,19.81,0,0,0-.11-2,.66.66,0,0,1,1.31-.13c.07.72.1,1.45.1,2.18,0,.34,0,.69,0,1.05A.66.66,0,0,1,59,57.5Zm-42-.37a.67.67,0,0,1-.24,0,.66.66,0,0,1-.37-.85c.35-.86.69-1.62,1-2.3l.27-.6a.65.65,0,0,1,.86-.34.66.66,0,0,1,.34.86l-.28.62c-.29.66-.63,1.41-1,2.24A.66.66,0,0,1,17,57.13ZM7.41,56.6a.66.66,0,0,1-.6-.91c.43-1,.89-1.95,1.39-2.88a.65.65,0,0,1,.88-.27.66.66,0,0,1,.27.89c-.48.89-.93,1.83-1.34,2.77A.65.65,0,0,1,7.41,56.6Zm62.8-5.32a.64.64,0,0,1-.64-.56c-.15-1-.33-2-.53-3.06a.65.65,0,1,1,1.28-.25c.2,1,.39,2.08.54,3.12a.65.65,0,0,1-.55.74Zm-12-.5a.66.66,0,0,1-.63-.48,21,21,0,0,0-1-2.87.65.65,0,0,1,.35-.86.65.65,0,0,1,.85.34,22.14,22.14,0,0,1,1.08,3,.64.64,0,0,1-.45.8A.57.57,0,0,1,58.21,50.78Zm-39,0h-.07a.65.65,0,0,1-.58-.72c0-.22,0-.44,0-.65a4.33,4.33,0,0,0-.45-2,.65.65,0,1,1,1.14-.62,5.39,5.39,0,0,1,.62,2.64,6.79,6.79,0,0,1,0,.78A.66.66,0,0,1,19.24,50.75Zm-8.58-.12a.64.64,0,0,1-.37-.11.65.65,0,0,1-.17-.9,31.3,31.3,0,0,1,1.93-2.57.61.61,0,0,1,.29-.19.68.68,0,0,1,.18-.32,5.51,5.51,0,0,1,3.07-1.67.65.65,0,0,1,.74.55.65.65,0,0,1-.55.74,4.32,4.32,0,0,0-2.34,1.31.67.67,0,0,1-.25.16.7.7,0,0,1-.14.27,27,27,0,0,0-1.85,2.45A.65.65,0,0,1,10.66,50.63Zm58.2-6a.66.66,0,0,1-.63-.49c-.26-1-.55-2-.86-3a.67.67,0,0,1,.43-.82.66.66,0,0,1,.82.43c.31,1,.61,2,.88,3a.66.66,0,0,1-.47.8Zm-13.35-.06a.65.65,0,0,1-.56-.33c-.56-1-1.13-1.88-1.62-2.65a.65.65,0,1,1,1.1-.7c.5.78,1.08,1.71,1.65,2.7a.66.66,0,0,1-.57,1ZM52,38.77a.64.64,0,0,1-.59-.38,8.73,8.73,0,0,1-.79-3.28.66.66,0,0,1,.63-.68.64.64,0,0,1,.68.62,7.33,7.33,0,0,0,.66,2.79.67.67,0,0,1-.31.87A.71.71,0,0,1,52,38.77Zm14.82-.63a.66.66,0,0,1-.61-.41c-.38-1-.79-1.95-1.21-2.85a.65.65,0,0,1,.31-.87.66.66,0,0,1,.87.32c.43.92.86,1.91,1.25,2.92a.65.65,0,0,1-.37.85A.67.67,0,0,1,66.78,38.14Zm-15-6a.78.78,0,0,1-.21,0,.65.65,0,0,1-.4-.83,10.07,10.07,0,0,1,1.6-2.94.65.65,0,0,1,1,.82A8.84,8.84,0,0,0,52.4,31.7.65.65,0,0,1,51.78,32.14Zm12-.11a.67.67,0,0,1-.56-.31,20.46,20.46,0,0,0-1.75-2.48.65.65,0,0,1,.08-.92.64.64,0,0,1,.92.08A21.22,21.22,0,0,1,64.38,31a.64.64,0,0,1-.22.89A.59.59,0,0,1,63.82,32Zm-7.66-4.82A.65.65,0,0,1,55.94,26,5.76,5.76,0,0,1,58,25.58h0a3.68,3.68,0,0,1,1.48.33.65.65,0,0,1,.34.86.66.66,0,0,1-.86.34,2.4,2.4,0,0,0-1-.23h0a4.66,4.66,0,0,0-1.6.29A.59.59,0,0,1,56.16,27.21Z"/><path class="cls-4" d="M11.72,52.42c-4.65,4.35-8.84,20.9.12,31.81,11.38,13.85,43.72,12.93,54-8.25,11.44-23.68-4.72-48.8-10.37-45.49-5.3,3.11,15,20.32,1.84,39.87-4.83,7.19-24.17,15.36-36.33,7.17-10.3-6.93-8.65-18.1-7.1-21.83C16.46,49.38,15.54,48.84,11.72,52.42Z"/><path class="cls-7" d="M18.28,77.55c-5.85-4.17-8,3.88.87,9.59s21.94,3.83,22.39,0S31,86.61,18.28,77.55Z"/><path class="cls-7" d="M34.89,6.52c-5.17-1-9.73,5.55-2.38,7.51S40.05,7.52,34.89,6.52Z"/></g></g></svg>