<svg xmlns="http://www.w3.org/2000/svg" viewBox="0 0 96.63 121.51"><defs><style>.cls-1{opacity:0.15;}.cls-2{fill:#2e89ff;}.cls-3{fill:#0064e6;}.cls-4{fill:#58a5f9;}.cls-5{fill:#69b3f7;}</style></defs><title>char6Asset 31</title><g id="Layer_2" data-name="Layer 2"><g id="Layer_1-2" data-name="Layer 1"><path class="cls-1" d="M14.17,9.47C9,12.26,8.88,29.37,13.35,30.79c6.41,2,15.34-1.75,15.8.54S13.38,37.64,4.45,59s-.78,45.8,24.18,56.9c18.93,8.42,46.4,5.53,53,3.45,8.25-2.58,19-22.63,11.74-24.43s-49.14,9.58-64.49-11,6.51-42,23.21-46.13C67.16,34,76.34,35,80,32.47s8.94-17,2.52-20.71S24.7,3.74,14.17,9.47Z"/><path class="cls-2" d="M14.28,3.64C9.15,6.42,9,23.53,13.42,25c6.41,2.06,15.35-1.72,15.8.57S13.44,31.81,4.46,53.1s-.88,45.79,24.06,57c18.91,8.46,46.39,5.63,53,3.57,8.26-2.56,19-22.6,11.79-24.41S44.18,98.69,28.88,78.08s6.6-42,23.31-46.09c15-3.69,24.21-2.69,27.88-5.21s9-17,2.57-20.7S24.83-2.07,14.28,3.64Z"/><path class="cls-3" d="M60.45,116.7c-8.85,0-21.64-1-32.3-5.81C16,105.45,7.28,96.75,2.92,85.71a43.39,43.39,0,0,1,.7-33A52.53,52.53,0,0,1,25.51,27.55a22.72,22.72,0,0,0,2.64-1.82,3.35,3.35,0,0,0-.67-.05,30.12,30.12,0,0,0-3.33.32,45.41,45.41,0,0,1-6.09.51,15.85,15.85,0,0,1-4.92-.68c-2.68-.86-3.47-5.18-3.7-7.69-.56-6,.8-13.36,4.41-15.31C18.23.46,28.66,0,36.63,0c18.53,0,42,2.71,46.46,5.28,2.13,1.22,3.32,3.57,3.45,6.8.23,5.86-3.14,13.53-6,15.46-2,1.4-5.33,1.77-10.29,2.34a133.28,133.28,0,0,0-17.89,3C42.75,35.25,30.22,44.07,26,55.74c-2.69,7.46-1.45,15,3.6,21.79,6.09,8.21,17.25,12.21,34.13,12.25,6.71,0,13.23-.59,18.47-1.08,3.56-.33,6.64-.62,8.8-.61a11,11,0,0,1,2.54.23c1.92.48,3,2,3.07,4.4.18,6.57-7.87,19.62-14.81,21.77C78.24,115.6,69.74,116.72,60.45,116.7Zm-33-92.85c1.55,0,2.44.51,2.64,1.5.25,1.28-1,2.1-3.62,3.74-5.22,3.32-14.93,9.5-21.2,24.36-9.3,22,.63,45.49,23.59,55.77,10.38,4.63,22.89,5.63,31.56,5.65,10.18,0,18-1.26,20.83-2.13,6-1.86,13.68-14.17,13.52-20-.06-2-1-2.5-1.68-2.67a9.12,9.12,0,0,0-2.1-.18c-2.08,0-5.12.28-8.63.6-5.28.49-11.84,1.1-18.65,1.09-17.49,0-29.13-4.29-35.59-13-5.43-7.3-6.76-15.43-3.85-23.5C28.72,42.85,41.85,33.59,52,31.1a136.82,136.82,0,0,1,18.13-3c4.52-.52,7.78-.89,9.46-2,2.14-1.47,5.37-8.41,5.15-13.88-.1-2.6-.95-4.38-2.53-5.28-3.77-2.17-26.54-5-45.56-5-11,0-18.74.91-21.9,2.61C12,5.9,10.76,12.61,11.26,18c.31,3.34,1.27,5.74,2.44,6.12a14.39,14.39,0,0,0,4.37.59,44.32,44.32,0,0,0,5.84-.49A28.84,28.84,0,0,1,27.48,23.85Z"/><path class="cls-3" d="M63,112.89h-.28a.65.65,0,1,1,0-1.3H63c1,0,1.92,0,2.84,0a.66.66,0,0,1,.67.64.66.66,0,0,1-.64.67C64.93,112.88,64,112.89,63,112.89Zm-3.94-.06h0c-1.05,0-2.11-.08-3.16-.14a.65.65,0,1,1,.08-1.3c1,0,2.08.1,3.12.13a.66.66,0,0,1,.63.68A.65.65,0,0,1,59.05,112.83Zm10.45-.11a.66.66,0,0,1,0-1.31c1.07-.06,2.11-.13,3.11-.22a.67.67,0,0,1,.71.6.65.65,0,0,1-.6.7c-1,.09-2.07.17-3.15.23Zm-17.24-.29H52.2c-1.06-.09-2.12-.2-3.14-.32a.65.65,0,0,1,.15-1.3c1,.12,2.06.23,3.11.32a.66.66,0,0,1-.06,1.31Zm24-.34a.65.65,0,0,1-.64-.56.65.65,0,0,1,.55-.74c1.19-.17,2.21-.35,3-.54a.65.65,0,1,1,.3,1.27c-.86.2-1.92.39-3.15.57Zm-30.76-.48h-.1c-1.06-.16-2.11-.34-3.12-.54a.65.65,0,1,1,.25-1.28c1,.19,2,.37,3.07.53a.65.65,0,0,1-.1,1.3Zm-6.67-1.3-.16,0c-1-.25-2.07-.52-3.06-.81a.66.66,0,0,1,.37-1.26c1,.29,2,.55,3,.8a.64.64,0,0,1,.48.78A.66.66,0,0,1,38.84,110.31Zm43.89-.16a.67.67,0,0,1-.56-.31.65.65,0,0,1,.22-.9,15.35,15.35,0,0,0,2.37-1.84.65.65,0,1,1,.89,1,16.39,16.39,0,0,1-2.58,2A.59.59,0,0,1,82.73,110.15Zm-50.41-1.77a.57.57,0,0,1-.22,0c-1-.36-2-.76-3-1.16a.66.66,0,0,1-.34-.86.64.64,0,0,1,.86-.34c.92.39,1.89.77,2.88,1.13a.65.65,0,0,1-.22,1.27Zm-6.22-2.73a.63.63,0,0,1-.3-.07c-.95-.5-1.88-1-2.77-1.56a.66.66,0,1,1,.68-1.12c.86.52,1.77,1,2.69,1.52a.65.65,0,0,1-.3,1.23Zm61.56-.14a.65.65,0,0,1-.52-1.05,23.91,23.91,0,0,0,1.7-2.54.64.64,0,0,1,.89-.23.65.65,0,0,1,.24.89,27.77,27.77,0,0,1-1.79,2.68A.68.68,0,0,1,87.66,105.51Zm-67.34-3.42a.6.6,0,0,1-.38-.13c-.87-.62-1.71-1.28-2.51-2a.65.65,0,0,1-.08-.92.66.66,0,0,1,.92-.08c.78.66,1.6,1.3,2.43,1.9a.66.66,0,0,1,.15.92A.68.68,0,0,1,20.32,102.09ZM91,99.59a.83.83,0,0,1-.22,0,.67.67,0,0,1-.4-.84A9.63,9.63,0,0,0,91,95.87a.65.65,0,0,1,1.3,0,10.69,10.69,0,0,1-.67,3.27A.66.66,0,0,1,91,99.59Zm-75.8-1.91a.66.66,0,0,1-.47-.19c-.75-.76-1.47-1.55-2.15-2.35a.64.64,0,0,1,.08-.92.65.65,0,0,1,.92.07c.65.78,1.35,1.55,2.08,2.28a.66.66,0,0,1,0,.92A.65.65,0,0,1,15.16,97.68Zm51.12-2.44a.65.65,0,0,1-.65-.64.66.66,0,0,1,.64-.67c1,0,2.06,0,3.12-.09a.66.66,0,0,1,.06,1.31c-1.07,0-2.13.08-3.16.09Zm-3.66,0h0c-1.07,0-2.13-.07-3.16-.13a.66.66,0,0,1-.62-.69.65.65,0,0,1,.69-.61c1,.06,2.07.1,3.12.12a.66.66,0,0,1,0,1.31Zm10.45-.29a.65.65,0,0,1-.65-.61.67.67,0,0,1,.61-.7c1.07-.07,2.11-.16,3.11-.25a.66.66,0,0,1,.71.6.65.65,0,0,1-.59.71l-3.14.25ZM55.84,94.8h-.07c-1.07-.12-2.13-.26-3.14-.42a.65.65,0,0,1-.55-.74.67.67,0,0,1,.75-.55c1,.16,2,.3,3.08.41a.66.66,0,0,1-.07,1.31Zm24-.46a.65.65,0,0,1-.65-.59.64.64,0,0,1,.58-.71L81,92.92l2-.2A.65.65,0,0,1,83,94l-2,.2-1.17.12Zm9.9-.55h-.12a9,9,0,0,0-1.52-.1c-.42,0-.9,0-1.45,0a.65.65,0,0,1-.08-1.3c.59,0,1.09,0,1.54,0a9.4,9.4,0,0,1,1.75.13.64.64,0,0,1,.52.76A.65.65,0,0,1,89.75,93.79Zm-40.62-.08-.14,0c-1-.23-2.08-.49-3.08-.78a.65.65,0,1,1,.36-1.25c1,.27,2,.53,3,.75a.66.66,0,0,1-.15,1.3ZM10.81,92.47a.65.65,0,0,1-.54-.29c-.6-.87-1.18-1.77-1.7-2.69a.65.65,0,1,1,1.13-.65c.51.88,1.06,1.76,1.65,2.6a.66.66,0,0,1-.17.91A.63.63,0,0,1,10.81,92.47Zm31.8-.66a.57.57,0,0,1-.22,0c-1-.37-2-.77-3-1.2a.65.65,0,0,1-.33-.86.66.66,0,0,1,.87-.33c.92.41,1.89.81,2.86,1.16a.65.65,0,0,1-.23,1.27ZM36.44,89a.72.72,0,0,1-.32-.08c-.93-.53-1.84-1.09-2.71-1.68a.65.65,0,0,1-.18-.9.66.66,0,0,1,.91-.18c.84.57,1.72,1.11,2.62,1.62a.64.64,0,0,1,.25.89A.65.65,0,0,1,36.44,89Zm-29-2.42a.66.66,0,0,1-.6-.38c-.44-1-.84-2-1.19-3a.66.66,0,0,1,.4-.84.65.65,0,0,1,.83.4c.34,1,.73,1.93,1.15,2.86a.65.65,0,0,1-.33.86A.62.62,0,0,1,7.47,86.56Zm23.37-1.41a.61.61,0,0,1-.41-.16c-.82-.67-1.62-1.39-2.37-2.13a.65.65,0,1,1,.91-.93c.73.71,1.5,1.41,2.29,2.06a.65.65,0,0,1,.09.92A.69.69,0,0,1,30.84,85.15ZM26,80.36a.66.66,0,0,1-.5-.23c-.27-.32-.54-.65-.8-1-.4-.51-.79-1-1.14-1.56a.65.65,0,0,1,.17-.91.66.66,0,0,1,.91.18c.34.5.7,1,1.09,1.48.25.33.51.65.77,1a.65.65,0,0,1-.5,1.07ZM5.25,80.15a.65.65,0,0,1-.63-.5c-.26-1-.47-2.08-.64-3.13a.65.65,0,0,1,1.29-.2c.16,1,.37,2,.61,3a.65.65,0,0,1-.47.79ZM22.3,74.7a.64.64,0,0,1-.59-.37,23.92,23.92,0,0,1-1.2-3,.66.66,0,0,1,1.25-.4,22.72,22.72,0,0,0,1.13,2.82.66.66,0,0,1-.31.88A.67.67,0,0,1,22.3,74.7ZM4.22,73.44a.65.65,0,0,1-.65-.61q-.09-1.31-.09-2.61c0-.19,0-.39,0-.58a.65.65,0,0,1,1.3,0v.56c0,.84,0,1.69.08,2.52a.67.67,0,0,1-.61.7ZM20.3,68.23a.66.66,0,0,1-.65-.56,24.38,24.38,0,0,1-.26-3.21A.66.66,0,0,1,20,63.8h0a.66.66,0,0,1,.65.64,21.87,21.87,0,0,0,.24,3,.64.64,0,0,1-.54.74ZM4.36,66.65H4.29a.65.65,0,0,1-.58-.72c.11-1.05.26-2.11.44-3.16a.65.65,0,0,1,.76-.52.64.64,0,0,1,.53.76c-.18,1-.33,2-.43,3.05A.66.66,0,0,1,4.36,66.65Zm15.92-5.19h-.09a.65.65,0,0,1-.56-.73,26.56,26.56,0,0,1,.62-3.15.65.65,0,0,1,1.27.32,27,27,0,0,0-.6,3A.65.65,0,0,1,20.28,61.46ZM5.6,60l-.17,0a.64.64,0,0,1-.46-.8c.27-1,.58-2,.93-3a.65.65,0,0,1,.83-.41.66.66,0,0,1,.41.83c-.34,1-.65,2-.91,3A.65.65,0,0,1,5.6,60ZM22,54.91a.69.69,0,0,1-.24,0,.65.65,0,0,1-.37-.85c.38-1,.82-1.95,1.31-2.91a.66.66,0,0,1,1.17.59,30.11,30.11,0,0,0-1.26,2.8A.67.67,0,0,1,22,54.91ZM7.85,53.56a.58.58,0,0,1-.26-.05.66.66,0,0,1-.34-.86c.43-1,.9-1.93,1.4-2.87a.66.66,0,0,1,.88-.26.65.65,0,0,1,.27.88c-.48.9-.94,1.84-1.35,2.77A.65.65,0,0,1,7.85,53.56Zm17.27-4.69a.64.64,0,0,1-.35-.1.67.67,0,0,1-.2-.91c.57-.88,1.18-1.76,1.83-2.61a.64.64,0,0,1,.91-.13.66.66,0,0,1,.13.92c-.63.82-1.22,1.68-1.77,2.53A.65.65,0,0,1,25.12,48.87Zm-14-1.27a.61.61,0,0,1-.36-.11.64.64,0,0,1-.18-.9c.57-.88,1.19-1.75,1.84-2.6a.65.65,0,0,1,1,.79c-.63.83-1.23,1.67-1.79,2.53A.65.65,0,0,1,11.09,47.6Zm18.15-4.13a.64.64,0,0,1-.43-.16.66.66,0,0,1,0-.93c.7-.78,1.44-1.55,2.21-2.29a.65.65,0,0,1,.92,0,.66.66,0,0,1,0,.93c-.74.72-1.47,1.47-2.15,2.23A.65.65,0,0,1,29.24,43.47Zm-14-1.24a.65.65,0,0,1-.43-.17.64.64,0,0,1-.05-.92c.69-.78,1.43-1.55,2.19-2.3a.65.65,0,1,1,.92.93c-.75.73-1.47,1.49-2.14,2.24A.68.68,0,0,1,15.24,42.23Zm18.9-3.47a.65.65,0,0,1-.42-1.15c.81-.68,1.66-1.33,2.51-2A.66.66,0,0,1,37,36.71c-.83.6-1.65,1.25-2.44,1.9A.66.66,0,0,1,34.14,38.76Zm-14-1.28a.66.66,0,0,1-.43-1.15c.78-.67,1.6-1.35,2.45-2a.66.66,0,0,1,.81,1q-1.26,1-2.4,2A.69.69,0,0,1,20.1,37.48Zm19.55-2.69a.64.64,0,0,1-.55-.31.65.65,0,0,1,.21-.9c.9-.56,1.82-1.09,2.75-1.59a.66.66,0,0,1,.62,1.16c-.91.48-1.81,1-2.68,1.54A.64.64,0,0,1,39.65,34.79ZM25.46,33.28a.62.62,0,0,1-.53-.27.65.65,0,0,1,.15-.91c.77-.56,1.6-1.13,2.59-1.8a.64.64,0,0,1,.9.17.65.65,0,0,1-.17.91c-1,.66-1.79,1.23-2.56,1.78A.68.68,0,0,1,25.46,33.28Zm20.21-1.65a.64.64,0,0,1-.6-.4.65.65,0,0,1,.33-.86c1-.42,2-.82,3-1.17a.66.66,0,0,1,.84.4.65.65,0,0,1-.4.83c-1,.35-1.93.73-2.87,1.14A.65.65,0,0,1,45.67,31.63Zm-14.6-2.19a.65.65,0,0,1-.54-.29.66.66,0,0,1,.17-.91c1.16-.78,1.91-1.32,2.51-1.8a.65.65,0,1,1,.82,1c-.64.5-1.41,1.06-2.59,1.86A.63.63,0,0,1,31.07,29.44Zm21-.05a.66.66,0,0,1-.17-1.29c1-.27,2.05-.52,3.07-.75a.65.65,0,0,1,.29,1.27c-1,.23-2,.48-3,.75Zm6.63-1.5a.64.64,0,0,1-.64-.53.64.64,0,0,1,.52-.76c1-.2,2-.37,3.11-.54a.66.66,0,0,1,.75.55.65.65,0,0,1-.55.74c-1.06.17-2.07.34-3.07.53Zm6.71-1a.65.65,0,0,1-.07-1.3c1.1-.14,2.15-.25,3.12-.36a.65.65,0,0,1,.14,1.3c-1,.11-2,.22-3.1.36Zm6.76-.77a.65.65,0,0,1-.08-1.3,26.35,26.35,0,0,0,3-.52.65.65,0,0,1,.32,1.27,31.35,31.35,0,0,1-3.17.55ZM35.72,24.78a.66.66,0,0,1-.65-.62.52.52,0,0,0,0-.11,2.21,2.21,0,0,0-1.57-1.49.65.65,0,0,1-.39-.84.66.66,0,0,1,.84-.39,3.53,3.53,0,0,1,2.39,2.39,1.5,1.5,0,0,1,0,.37.64.64,0,0,1-.61.69ZM78.5,24a.64.64,0,0,1-.48-.21.65.65,0,0,1,0-.93,12.93,12.93,0,0,0,1.88-2.29.65.65,0,1,1,1.09.71,13.37,13.37,0,0,1-2.09,2.54A.62.62,0,0,1,78.5,24ZM20.17,22.53a.66.66,0,0,1,0-1.31c1.07,0,2.22-.08,3.1-.13a.65.65,0,1,1,.09,1.3c-.91.06-2.08.13-3.17.14Zm-3.64-.32a.45.45,0,0,1-.16,0,5,5,0,0,1-.77-.25,3.44,3.44,0,0,1-1.68-2.36.65.65,0,0,1,.43-.82.66.66,0,0,1,.82.43c.31,1,.68,1.45.92,1.54a4,4,0,0,0,.61.2.65.65,0,0,1,.47.79A.67.67,0,0,1,16.53,22.21ZM27,22.15a.66.66,0,0,1,0-1.31c1.3-.07,2.27-.09,3.19-.08a.66.66,0,1,1,0,1.31c-.89,0-1.82,0-3.09.08Zm55.17-3.89a.57.57,0,0,1-.22,0,.66.66,0,0,1-.39-.84,11.19,11.19,0,0,0,.68-2.88.66.66,0,0,1,.71-.59.65.65,0,0,1,.59.71,12.48,12.48,0,0,1-.75,3.21A.66.66,0,0,1,82.13,18.26ZM14,16.43a.64.64,0,0,1-.65-.62c0-.39,0-.78,0-1.17q0-1.05.09-2.07a.65.65,0,0,1,1.3.13c-.06.63-.09,1.28-.09,1.94,0,.37,0,.74,0,1.1a.64.64,0,0,1-.62.68Zm68.33-4.78a.65.65,0,0,1-.58-.37,4.71,4.71,0,0,0-1.88-2,.65.65,0,0,1,.66-1.13,6,6,0,0,1,2.39,2.51.65.65,0,0,1-.3.88A.73.73,0,0,1,82.29,11.65ZM14.78,9.72a1,1,0,0,1-.23,0,.65.65,0,0,1-.38-.84A5.09,5.09,0,0,1,16.29,6a.65.65,0,0,1,.88.27.64.64,0,0,1-.26.88,3.94,3.94,0,0,0-1.52,2.13A.63.63,0,0,1,14.78,9.72ZM76.7,8.23a.39.39,0,0,1-.15,0c-.88-.21-1.91-.42-3-.63a.66.66,0,0,1,.23-1.29c1.16.22,2.21.44,3.11.65a.65.65,0,0,1-.15,1.29ZM70,7h-.1c-1-.15-2-.29-3.09-.43a.65.65,0,0,1-.57-.73A.66.66,0,0,1,67,5.26l3.13.43a.67.67,0,0,1,.55.75A.66.66,0,0,1,70,7ZM19.47,6.18A.65.65,0,0,1,19.3,4.9a30.84,30.84,0,0,1,3.14-.64.65.65,0,1,1,.2,1.29c-1.12.18-2.14.38-3,.61A.44.44,0,0,1,19.47,6.18Zm43.79,0h-.07l-3.12-.32a.65.65,0,0,1,.13-1.3l3.13.32a.65.65,0,0,1-.07,1.3Zm-6.77-.64h-.06l-3.12-.23A.66.66,0,1,1,53.4,4c1.06.07,2.1.15,3.14.24a.65.65,0,0,1,.6.7A.66.66,0,0,1,56.49,5.49ZM26.17,5.11a.66.66,0,0,1-.65-.59.65.65,0,0,1,.59-.71c1-.09,2.05-.17,3.16-.24a.67.67,0,0,1,.69.62.66.66,0,0,1-.62.69c-1.09.06-2.13.14-3.1.23ZM49.7,5h0q-1.56-.09-3.12-.15a.66.66,0,0,1,.05-1.31l3.15.15A.66.66,0,0,1,49.7,5Zm-6.8-.28h0l-3.13-.07A.64.64,0,0,1,39.11,4a.66.66,0,0,1,.66-.64l3.15.06a.66.66,0,0,1,.64.67A.66.66,0,0,1,42.9,4.75ZM33,4.73a.66.66,0,0,1,0-1.31c1,0,2.08,0,3.16,0h0a.65.65,0,0,1,0,1.3C35,4.68,34,4.7,33,4.73Z"/><path class="cls-4" d="M19.18,8.16C15.75,10,17.53,18,19.9,18.91c4.65,1.86,15.76-1.78,18.57,2.19,4.29,6.08-20,13.89-27.86,32.68S7.94,94.19,30,104c16.7,7.42,37.36,6.24,45.67,3,7.11-2.78,13.81-10.38,9.16-11.5-6.37-1.54-42,11.21-62.48-16.76C9,60.43,23.44,35.28,51.66,26.21c13-4.18,19.53-2.38,22.76-4.61s8.7-8.18,3-11.42S28.48,3.11,19.18,8.16Z"/><path class="cls-5" d="M30.12,88.59C19.71,81,18.64,95,34.52,101.47s27.37-1.62,17.76-4C44.55,95.64,37.45,94,30.12,88.59Z"/><path class="cls-5" d="M77.89,13.64C79.3,8.9,48.35,4.89,48.37,11.93,48.38,17.15,74.5,25,77.89,13.64Z"/></g></g></svg>