<svg xmlns="http://www.w3.org/2000/svg" viewBox="0 0 35.29 150.54"><defs><style>.cls-1{opacity:0.15;}.cls-2{fill:#ff4f8c;}.cls-3{fill:#d11d5b;}.cls-4{fill:#f970a5;}.cls-5{fill:#fc83b5;}</style></defs><title>char1Asset 5</title><g id="Layer_2" data-name="Layer 2"><g id="Layer_1-2" data-name="Layer 1"><path class="cls-1" d="M23.89,56C16.8,50.27,5.48,63.84,7.44,76.45s5.43,61.27,8.91,69.46,13.27,5.84,17-9.7S30,60.94,23.89,56Z"/><path class="cls-1" d="M30.44,24.2c2.35.84,2.81,4.44,1.28,7.91-2.48,5.65-21.54,16.4-26.87,17.27-3.09.5-5.33-5.16-2.9-8.85C3.29,38.48,9,35,9.71,34.41c2.53-2-5.27,1-7.77-4.72C.31,26,1.6,13.82,14.94,8.08S32,15.71,29.62,20.23c-2,3.72-4.26,1.42-7.27.15S15.71,25,20.54,25.47,28,23.32,30.44,24.2Z"/><path class="cls-2" d="M23.89,50.23C16.8,44.51,5.48,58.09,7.44,70.7s5.43,61.26,8.91,69.46,13.27,5.83,17-9.7S30,55.18,23.89,50.23Z"/><path class="cls-3" d="M22.2,145.7h0c-2.85,0-5.29-1.89-6.69-5.19C13.16,135,10.85,111.77,9,93.12c-1-9.67-1.79-18-2.46-22.28a23.63,23.63,0,0,1,5.34-18.2c2.58-3,5.53-4.67,8.31-4.67a6.65,6.65,0,0,1,4.28,1.55c3.61,2.91,6.89,20.89,8.76,36.75,1.77,15,3.09,35.68,1,44.4C31.58,141.76,26.09,145.7,22.2,145.7Zm-2-95.9c-2.2,0-4.72,1.47-6.92,4A21.73,21.73,0,0,0,8.34,70.56c.67,4.3,1.51,12.68,2.47,22.37,1.85,18.53,4.14,41.59,6.39,46.87,1.1,2.59,2.92,4.07,5,4.07h0c3.48,0,8-4.21,10.25-13.62,1.9-7.94.84-27.7-1.05-43.77C29.17,67.61,25.85,53,23.31,50.94A4.87,4.87,0,0,0,20.18,49.8Z"/><path class="cls-3" d="M22.7,142a3.57,3.57,0,0,1-2.81-1.64.66.66,0,0,1,.13-.92.64.64,0,0,1,.91.12c.66.86,1.33,1.23,2,1.12a.65.65,0,0,1,.75.53.66.66,0,0,1-.54.76A3.44,3.44,0,0,1,22.7,142Zm3.17-2.22a.66.66,0,0,1-.38-.12.67.67,0,0,1-.15-.92,17.21,17.21,0,0,0,1.52-2.6.65.65,0,0,1,.87-.31.67.67,0,0,1,.31.88,18.52,18.52,0,0,1-1.64,2.8A.65.65,0,0,1,25.87,139.8Zm-7.08-2.44a.64.64,0,0,1-.61-.44l-.06-.17a25.38,25.38,0,0,1-.74-2.95.65.65,0,1,1,1.28-.26,25.51,25.51,0,0,0,.7,2.8l.05.16a.65.65,0,0,1-.4.83A.78.78,0,0,1,18.79,137.36Zm10.07-3.64a.62.62,0,0,1-.23,0,.66.66,0,0,1-.39-.84c.33-.91.66-1.9,1-2.94a.66.66,0,0,1,1.26.37c-.33,1.07-.66,2.09-1,3A.67.67,0,0,1,28.86,133.72Zm-11.5-3a.65.65,0,0,1-.64-.55q-.24-1.46-.48-3.12a.65.65,0,0,1,.55-.74.65.65,0,0,1,.74.55c.17,1.1.32,2.14.48,3.1a.65.65,0,0,1-.54.75Zm13.36-3.52h-.11a.65.65,0,0,1-.53-.76c.15-.9.28-1.93.39-3.06a.65.65,0,0,1,1.3.12c-.11,1.16-.24,2.23-.4,3.17A.67.67,0,0,1,30.72,127.19ZM16.38,124a.65.65,0,0,1-.64-.57c-.14-1-.27-2.05-.41-3.12a.66.66,0,0,1,1.3-.17c.13,1.07.27,2.11.4,3.12a.65.65,0,0,1-.56.73Zm15-3.55h0a.64.64,0,0,1-.63-.67c0-1,0-2,.06-3.12a.66.66,0,0,1,.65-.65h0a.66.66,0,0,1,.65.66c0,1.1,0,2.16-.07,3.15A.64.64,0,0,1,31.34,120.42Zm-15.81-3.21a.67.67,0,0,1-.65-.58c-.12-1-.24-2.07-.37-3.12a.66.66,0,0,1,.58-.73.65.65,0,0,1,.72.58c.13,1,.25,2.09.37,3.11a.65.65,0,0,1-.57.73Zm15.84-3.59a.65.65,0,0,1-.65-.64c0-1,0-2.06-.1-3.13a.66.66,0,0,1,.63-.68.65.65,0,0,1,.68.63c0,1.07.08,2.13.1,3.15a.66.66,0,0,1-.64.67Zm-16.62-3.18a.65.65,0,0,1-.65-.58c-.12-1-.24-2.08-.35-3.12a.65.65,0,1,1,1.3-.15c.11,1,.23,2.09.35,3.12a.66.66,0,0,1-.58.73Zm16.35-3.62a.66.66,0,0,1-.65-.62c-.06-1-.12-2.07-.2-3.12a.66.66,0,0,1,.61-.7.65.65,0,0,1,.7.6c.07,1.06.14,2.11.19,3.15a.64.64,0,0,1-.61.69ZM14,103.67a.66.66,0,0,1-.65-.58L13,100a.65.65,0,0,1,.58-.72.66.66,0,0,1,.72.58l.34,3.12a.65.65,0,0,1-.58.72ZM30.62,100a.66.66,0,0,1-.65-.6q-.12-1.56-.27-3.12a.66.66,0,0,1,.59-.72.67.67,0,0,1,.71.6c.1,1,.19,2.09.28,3.13a.66.66,0,0,1-.6.71ZM13.27,96.9a.65.65,0,0,1-.65-.58l-.34-3.13a.66.66,0,0,1,.58-.72.65.65,0,0,1,.72.58l.34,3.13a.65.65,0,0,1-.58.72ZM30,93.25a.65.65,0,0,1-.65-.58c-.11-1-.22-2.09-.34-3.12a.66.66,0,0,1,.57-.73.67.67,0,0,1,.73.58c.11,1,.23,2.09.34,3.13a.66.66,0,0,1-.58.72ZM12.54,90.13a.66.66,0,0,1-.65-.59l-.34-3.12a.65.65,0,0,1,.58-.72.65.65,0,0,1,.72.58l.34,3.12a.65.65,0,0,1-.58.72Zm16.67-3.64a.67.67,0,0,1-.65-.58c-.12-1-.26-2.08-.4-3.11a.66.66,0,0,1,1.3-.17c.14,1,.27,2.07.4,3.12a.65.65,0,0,1-.57.73ZM11.8,83.36a.66.66,0,0,1-.65-.59q-.18-1.63-.36-3.12a.65.65,0,0,1,1.3-.15c.11,1,.23,2,.36,3.13a.65.65,0,0,1-.58.72Zm16.51-3.62a.66.66,0,0,1-.65-.56c-.15-1.05-.31-2.09-.46-3.1a.65.65,0,0,1,.54-.75.66.66,0,0,1,.75.55c.16,1,.31,2.06.46,3.11a.64.64,0,0,1-.55.74ZM11,76.59a.65.65,0,0,1-.64-.57c-.16-1.21-.3-2.23-.43-3a.68.68,0,0,1,.54-.77.63.63,0,0,1,.75.52v.06c.13.82.28,1.85.43,3.07a.64.64,0,0,1-.56.73ZM27.26,73a.65.65,0,0,1-.65-.54q-.27-1.59-.54-3.09a.66.66,0,0,1,1.29-.23c.18,1,.36,2,.54,3.1a.65.65,0,0,1-.53.75ZM10.34,69.82h0a.65.65,0,0,1-.63-.67A25.43,25.43,0,0,1,10,65.94a.67.67,0,0,1,.76-.54.66.66,0,0,1,.53.76,22.34,22.34,0,0,0-.29,3A.65.65,0,0,1,10.34,69.82ZM26,66.32a.65.65,0,0,1-.64-.53c-.22-1.08-.44-2.11-.65-3.06A.65.65,0,1,1,26,62.45c.22.95.44,2,.66,3.08a.65.65,0,0,1-.51.77ZM11.51,63.15l-.2,0a.66.66,0,0,1-.42-.83,24.49,24.49,0,0,1,1.19-3A.64.64,0,0,1,13,59a.66.66,0,0,1,.31.87,22.06,22.06,0,0,0-1.12,2.84A.67.67,0,0,1,11.51,63.15Zm13-3.47a.65.65,0,0,1-.63-.48C23.55,58,23.24,57,23,56.26a.65.65,0,0,1,1.22-.46c.31.81.63,1.84,1,3.06a.65.65,0,0,1-.46.8A.5.5,0,0,1,24.5,59.68Zm-10-2.6a.7.7,0,0,1-.38-.13A.64.64,0,0,1,14,56a12.88,12.88,0,0,1,2.22-2.43.65.65,0,1,1,.83,1,12.69,12.69,0,0,0-2,2.19A.63.63,0,0,1,14.51,57.08Zm8.09-2.31a.63.63,0,0,1-.5-.24,2.88,2.88,0,0,0-2.19-1.18.65.65,0,1,1,0-1.3h0A4.13,4.13,0,0,1,23.1,53.7a.64.64,0,0,1-.08.92A.66.66,0,0,1,22.6,54.77Z"/><path class="cls-4" d="M21.83,56.85c-4-5.53-10.1,5.94-8.45,16.68s4.24,50.88,6.61,58.23c2.45,7.59,5.92,5.82,8.12-6.44C30.54,111.82,25.44,61.89,21.83,56.85Z"/><path class="cls-2" d="M30.44,18.45c2.35.83,2.81,4.43,1.28,7.9C29.24,32,10.18,42.76,4.85,43.63c-3.09.5-5.33-5.17-2.9-8.86,1.34-2,7-5.51,7.76-6.11,2.53-2-5.27,1-7.77-4.73C.31,20.19,1.6,8.06,14.94,2.32S32,10,29.62,14.48c-2,3.71-4.26,1.41-7.27.14s-6.64,4.59-1.81,5.09S28,17.56,30.44,18.45Z"/><path class="cls-3" d="M4.46,44.57A4.15,4.15,0,0,1,.92,42.09a7.84,7.84,0,0,1,.26-7.82C2.23,32.67,5.27,30.55,8,28.7l.08-.05c-2.11-.17-5.46-.78-7-4.35-.88-2-1-6,.7-10.33,1.52-3.84,5-9.13,12.78-12.49A16.4,16.4,0,0,1,21,0a9.54,9.54,0,0,1,8.46,4.8c1.93,3.2,2.35,7.55,1,10.11-.89,1.69-2,2.5-3.38,2.5a8,8,0,0,1-3.44-1.17c-.53-.26-1.07-.54-1.62-.77a1.4,1.4,0,0,0-.53-.11,2.76,2.76,0,0,0-2.36,2.31c0,.24-.05,1,1.54,1.13a10.69,10.69,0,0,0,1.13.06A14.38,14.38,0,0,0,26.32,18a10.35,10.35,0,0,1,3-.64,4.27,4.27,0,0,1,1.39.23A3.92,3.92,0,0,1,33,19.81a9,9,0,0,1-.47,6.91C29.91,32.77,10.54,43.63,5,44.53A3.08,3.08,0,0,1,4.46,44.57ZM21,1.83A14.68,14.68,0,0,0,15.3,3.16c-7.23,3.11-10.4,8-11.8,11.48s-1.45,7.25-.72,8.93c1.31,3,4.38,3.19,6.21,3.3,1,.06,1.83.1,2.08.89s-.46,1.34-.79,1.61-.61.44-1.22.85C7.3,31.4,3.65,33.85,2.71,35.27a6.06,6.06,0,0,0-.18,5.95c.57,1.07,1.36,1.64,2.17,1.5C10.17,41.83,28.64,31.09,30.89,26a7.31,7.31,0,0,0,.46-5.45,2.08,2.08,0,0,0-1.22-1.23,5.57,5.57,0,0,0-3.26.43,16.32,16.32,0,0,1-5.1,1h0a12,12,0,0,1-1.33-.07c-2.44-.25-3.24-1.74-3.17-3.05a4.52,4.52,0,0,1,4.19-4,3.12,3.12,0,0,1,1.24.25c.62.26,1.19.55,1.74.83a6.94,6.94,0,0,0,2.61,1c.28,0,.95,0,1.77-1.53.91-1.72.81-5.39-.95-8.31A7.69,7.69,0,0,0,21,1.83Z"/><path class="cls-3" d="M8,40.44A.65.65,0,0,1,7.38,40a.64.64,0,0,1,.42-.82A28.12,28.12,0,0,0,10.63,38a.65.65,0,1,1,.56,1.18,26.72,26.72,0,0,1-3,1.22ZM4.7,39.9a.62.62,0,0,1-.57-.35,2.92,2.92,0,0,1-.33-1.42A5.72,5.72,0,0,1,4.29,36a.65.65,0,0,1,1.21.5,4.36,4.36,0,0,0-.39,1.67,1.77,1.77,0,0,0,.17.81.66.66,0,0,1-.27.89A.67.67,0,0,1,4.7,39.9Zm9.47-2.32a.63.63,0,0,1-.57-.34.65.65,0,0,1,.25-.89c.88-.49,1.79-1,2.69-1.57a.66.66,0,1,1,.68,1.12c-.92.56-1.84,1.1-2.74,1.6A.71.71,0,0,1,14.17,37.58Zm-7-3.47a.65.65,0,0,1-.37-1.19c.69-.47,1.51-1,2.37-1.48l.33-.2a.65.65,0,0,1,.9.22.67.67,0,0,1-.22.9l-.33.2c-.85.51-1.65,1-2.32,1.44A.61.61,0,0,1,7.2,34.11ZM20,34a.66.66,0,0,1-.54-.29.65.65,0,0,1,.18-.9c.89-.62,1.74-1.23,2.52-1.82a.66.66,0,0,1,.92.13.64.64,0,0,1-.13.91c-.79.61-1.66,1.23-2.58,1.86A.7.7,0,0,1,20,34Zm-7-3.55a.65.65,0,0,1-.52-.26.66.66,0,0,1,.13-.92c1.3-1,1.43-1.42,1.44-1.53v-.32a.64.64,0,0,1,.57-.72.66.66,0,0,1,.73.57c0,.1,0,.21,0,.32a1.93,1.93,0,0,1,0,.24c0,.75-.65,1.52-2,2.49A.61.61,0,0,1,12.94,30.46Zm12.4-.62a.66.66,0,0,1-.48-.21.65.65,0,0,1,0-.92A17.15,17.15,0,0,0,27,26.51a.66.66,0,0,1,.92-.13.64.64,0,0,1,.13.91,18.52,18.52,0,0,1-2.22,2.38A.65.65,0,0,1,25.34,29.84ZM11.7,26.44h0l-.49,0A18.13,18.13,0,0,1,8.43,26,.66.66,0,0,1,8,25.25a.65.65,0,0,1,.79-.48,16.24,16.24,0,0,0,2.52.33l.49,0a.66.66,0,0,1-.05,1.31Zm17.39-2.17a.78.78,0,0,1-.22,0,.65.65,0,0,1-.4-.83,3,3,0,0,0,.18-.83c0-.19,0-.42-.91-.75l-.09,0h-.09a1.53,1.53,0,0,0-.3,0h0a3.59,3.59,0,0,0-1.59.6l-.58.32a.66.66,0,0,1-.88-.29.65.65,0,0,1,.28-.88l.55-.29a4.63,4.63,0,0,1,2.22-.77h0a2.38,2.38,0,0,1,.59.07.44.44,0,0,1,.16.06.51.51,0,0,1,.17,0c.83.3,1.78.79,1.78,2a3.81,3.81,0,0,1-.26,1.25A.63.63,0,0,1,29.09,24.27ZM5.65,24.06a.66.66,0,0,1-.56-.32,5,5,0,0,1-.31-.61,8.33,8.33,0,0,1-.61-2.67.64.64,0,0,1,.6-.7.64.64,0,0,1,.7.59A7.18,7.18,0,0,0,6,22.61a4.93,4.93,0,0,0,.23.46A.64.64,0,0,1,6,24,.61.61,0,0,1,5.65,24.06Zm15.62-.5h0l-.52,0A7.88,7.88,0,0,1,18,22.78a.65.65,0,1,1,.58-1.17,6.68,6.68,0,0,0,2.33.61l.43,0a.66.66,0,0,1,0,1.31ZM16,20.13a.65.65,0,0,1-.63-.49,5.36,5.36,0,0,1-.19-1.46,6.55,6.55,0,0,1,.31-2,.65.65,0,0,1,1.25.38,5.35,5.35,0,0,0-.25,1.61,4.52,4.52,0,0,0,.14,1.12.64.64,0,0,1-.46.8A.51.51,0,0,1,16,20.13ZM5.07,17.42H4.94a.67.67,0,0,1-.51-.78,14.46,14.46,0,0,1,1.06-3.11.67.67,0,0,1,.88-.31.66.66,0,0,1,.3.88,13.4,13.4,0,0,0-1,2.82A.64.64,0,0,1,5.07,17.42ZM18,14a.65.65,0,0,1-.42-1.15,5.14,5.14,0,0,1,2.07-1.1,6.58,6.58,0,0,1,1.18-.17.65.65,0,1,1,.07,1.3A5.92,5.92,0,0,0,20,13a3.89,3.89,0,0,0-1.54.83A.66.66,0,0,1,18,14Zm7.86-.05a5.26,5.26,0,0,1-1.65-.37.66.66,0,0,1,.43-1.24,4.27,4.27,0,0,0,1.22.31c.18,0,.32,0,.47-.34l.12-.24a.64.64,0,0,1,.85-.35.65.65,0,0,1,.35.85l-.15.33A1.73,1.73,0,0,1,25.89,13.94ZM8.06,11.39a.7.7,0,0,1-.42-.15.66.66,0,0,1-.08-.92A17.44,17.44,0,0,1,9.9,8a.65.65,0,0,1,.82,1,15.94,15.94,0,0,0-2.16,2.1A.64.64,0,0,1,8.06,11.39Zm19.35-2a.65.65,0,0,1-.64-.53,5.07,5.07,0,0,0-1.22-2.46.65.65,0,0,1,1-.88,6.21,6.21,0,0,1,1.54,3.09.66.66,0,0,1-.51.77Zm-14-2.17a.67.67,0,0,1-.58-.35A.65.65,0,0,1,13.05,6c.61-.33,1.26-.65,1.93-.94.34-.14.67-.28,1-.4a.65.65,0,1,1,.46,1.22l-.94.39c-.64.27-1.25.57-1.83.88A.71.71,0,0,1,13.36,7.2Zm6.37-2.27a.65.65,0,0,1-.1-1.3,9.84,9.84,0,0,1,3.34,0,.65.65,0,1,1-.23,1.28,8.88,8.88,0,0,0-2.91,0Z"/><path class="cls-4" d="M18.15,6.42c5.44-1.26,8.83,3.67,2.77,3.92s-8.33,4.81-7.07,9.12,5.32,5.32,8.48,5.13,3.66,2.34-1.41,6.26S9.78,38.39,9,36.27s5.89-4.53,6.53-8.46c.59-3.64-4.05-2.71-6.84-5.65C6.64,20,4,9.71,18.15,6.42Z"/><path class="cls-5" d="M19.35,59.25c-4.94,1.67-7.92,15-1,25.44s7.16-8.17,5.89-15.53S21.49,58.53,19.35,59.25Z"/><path class="cls-5" d="M13.1,8.19c-6.31,4.85-3.29,12-1.4,11.06s3-5.55,6.28-8S17,5.17,13.1,8.19Z"/></g></g></svg>