<svg xmlns="http://www.w3.org/2000/svg" viewBox="0 0 97.55 177.83"><defs><style>.cls-1{opacity:0.15;}.cls-2{fill:#ff4f8c;}.cls-3{fill:#d11d5b;}.cls-4{fill:#f970a5;}.cls-5{fill:#fc83b5;}</style></defs><title>char6Asset 20</title><g id="Layer_2" data-name="Layer 2"><g id="Layer_1-2" data-name="Layer 1"><path class="cls-1" d="M50,57.75c1.81-13.1-15.4-16.88-24.7-12.06-9.95,5.16-22.8,24-20.61,34.66S15.76,88.7,16.31,94s-12,13.64-14.93,35,8.48,43.91,32.44,47.76,51.69-3.52,57.37-11.26,8.7-18.43,0-15.49-47.89,9.22-58.71-3.31S26.82,111,42.67,99.52s20.83-8.3,26-18.62S68.84,63.76,61.47,66s-16.88,10.14-28,10.94S24.5,70.39,31,65.6,48.94,65.75,50,57.75Z"/><path class="cls-1" d="M15.15,7.2C4.72,10.27,3.81,25.07,10.23,29.57c10.1,7.08,21.61,4.12,23.33-7C34.79,14.56,25.3,4.21,15.15,7.2Z"/><path class="cls-2" d="M50,52c1.81-13.1-15.4-16.87-24.7-12.05-9.95,5.16-22.8,24-20.61,34.65s11,8.36,11.58,13.64-12,13.64-14.93,35S9.86,167.17,33.82,171s51.69-3.53,57.37-11.27,8.7-18.43,0-15.48S43.3,153.49,32.48,141s-5.66-35.76,10.19-47.19,20.83-8.29,26-18.61S68.84,58,61.47,60.21s-16.88,10.15-28,10.94-9-6.51-2.45-11.3S48.94,60,50,52Z"/><path class="cls-3" d="M47.63,173a87.9,87.9,0,0,1-14-1.07A38,38,0,0,1,6.73,154.19,46.64,46.64,0,0,1,.47,123.13C2.35,109.51,8.09,101,11.88,95.4c2.06-3.05,3.69-5.46,3.52-7.07S14.09,86,11.92,84.89c-2.84-1.47-6.74-3.48-8.09-10.12C1.63,64,14.32,44.62,24.92,39.12A20.85,20.85,0,0,1,34.32,37c5.77,0,11,2,14,5.44A11.82,11.82,0,0,1,51,52.12c-.74,5.34-5.5,5.71-10.11,6.06-3.32.26-6.75.53-9.29,2.4-3.47,2.56-5.54,5.79-4.91,7.68.5,1.53,2.94,2.25,6.75,2,6.88-.49,13.19-3.82,18.75-6.75a54.4,54.4,0,0,1,9.07-4.15,10.39,10.39,0,0,1,2.95-.46,7.06,7.06,0,0,1,6.24,3.37c2,3.26,1.68,8.11-.92,13.3-3.18,6.36-6.34,7.87-11.58,10.37A85.3,85.3,0,0,0,43.2,94.5a38.11,38.11,0,0,0-15.3,26c-.92,7.8,1,14.84,5.27,19.84,4.07,4.71,13.11,7.2,26.17,7.2,13.65,0,27.29-2.7,31.55-4.15a9.34,9.34,0,0,1,2.87-.55,3.43,3.43,0,0,1,3.31,1.85c1.68,3.33-1.31,10.37-5.14,15.59C86.79,167.29,66.92,173,47.63,173ZM34.32,38.84a19,19,0,0,0-8.56,1.91C15.9,45.86,3.59,64.47,5.62,74.41c1.18,5.77,4.35,7.41,7.14,8.85,2.15,1.12,4.18,2.17,4.46,4.88.24,2.27-1.47,4.8-3.82,8.29-3.7,5.48-9.29,13.76-11.11,26.95C-.44,143.13,9.74,166.22,34,170.11a86.6,86.6,0,0,0,13.66,1c20.37,0,38.59-6.18,42.82-11.95,3.89-5.3,6.12-11.44,5-13.68-.18-.37-.55-.85-1.67-.85a7.46,7.46,0,0,0-2.28.46c-5.25,1.78-19.34,4.24-32.14,4.24-13.8,0-23.07-2.63-27.56-7.83-4.65-5.39-6.68-12.94-5.7-21.25A39.9,39.9,0,0,1,42.13,93a87.15,87.15,0,0,1,15-8.75c5-2.42,7.84-3.75,10.73-9.53,2.31-4.62,2.67-8.82,1-11.53a5.29,5.29,0,0,0-4.68-2.5,8.57,8.57,0,0,0-2.43.38,53.82,53.82,0,0,0-8.73,4c-5.73,3-12.22,6.45-19.48,7-.58,0-1.14.07-1.66.07-4.86,0-6.47-1.79-7-3.3-.89-2.71,1.34-6.62,5.56-9.72,3-2.19,6.83-2.49,10.24-2.75,5-.39,7.92-.79,8.44-4.49a9.9,9.9,0,0,0-2.25-8.21C44.27,40.64,39.57,38.84,34.32,38.84Z"/><path class="cls-3" d="M51.15,169.12c-.92,0-1.84,0-2.74,0a.65.65,0,0,1-.63-.67.64.64,0,0,1,.67-.63c.89,0,1.79,0,2.7,0h.42a.65.65,0,1,1,0,1.3Zm4.08-.09a.65.65,0,0,1,0-1.3c1,0,2.07-.11,3.11-.19a.65.65,0,1,1,.1,1.3c-1.05.08-2.11.15-3.16.19Zm-10.46-.13h-.05c-1.06-.08-2.12-.18-3.15-.29a.65.65,0,0,1-.57-.72.64.64,0,0,1,.72-.58c1,.11,2.05.21,3.1.28a.66.66,0,0,1,0,1.31ZM62,168.49a.64.64,0,0,1-.64-.57.65.65,0,0,1,.57-.73c1-.12,2.07-.26,3.09-.41a.65.65,0,0,1,.2,1.29c-1,.16-2.09.3-3.14.42Zm-24-.37h-.11c-1-.17-2.1-.36-3.11-.57a.66.66,0,0,1-.51-.78.65.65,0,0,1,.77-.5c1,.2,2,.39,3.06.56a.65.65,0,0,1-.1,1.3Zm30.72-.67a.65.65,0,0,1-.64-.53.64.64,0,0,1,.51-.76c1-.21,2.06-.43,3-.67a.65.65,0,0,1,.31,1.27c-1,.24-2,.47-3.1.68Zm-37.37-.75a.47.47,0,0,1-.17,0c-1-.28-2.07-.59-3-.92a.65.65,0,0,1,.41-1.24c1,.32,2,.62,3,.9a.66.66,0,0,1-.17,1.29Zm44-.88a.66.66,0,0,1-.63-.46.67.67,0,0,1,.44-.82q1.55-.47,2.94-1a.65.65,0,1,1,.45,1.23c-.94.35-2,.69-3,1A.63.63,0,0,1,75.34,165.82Zm-50.4-1.33a.57.57,0,0,1-.25-.06c-1-.42-2-.87-2.89-1.35a.65.65,0,1,1,.6-1.16c.89.46,1.83.9,2.8,1.31a.66.66,0,0,1,.34.86A.64.64,0,0,1,24.94,164.49Zm56.74-1.12a.66.66,0,0,1-.59-.36.66.66,0,0,1,.3-.88A21.19,21.19,0,0,0,84,160.59a.65.65,0,1,1,.76,1.06A20.36,20.36,0,0,1,82,163.3.59.59,0,0,1,81.68,163.37Zm-62.74-2.06a.69.69,0,0,1-.36-.11A31.92,31.92,0,0,1,16,159.31a.65.65,0,1,1,.83-1c.77.62,1.61,1.23,2.48,1.81a.66.66,0,0,1,.19.9A.68.68,0,0,1,18.94,161.31Zm68.23-1.91a.65.65,0,0,1-.46-1.12,18.41,18.41,0,0,0,2-2.27.66.66,0,0,1,.92-.13.64.64,0,0,1,.13.91,20.17,20.17,0,0,1-2.15,2.43A.66.66,0,0,1,87.17,159.4ZM13.73,157a.64.64,0,0,1-.48-.21c-.46-.49-.91-1-1.32-1.51-.25-.32-.5-.63-.74-.95a.66.66,0,0,1,1.05-.79c.23.31.47.61.71.92.39.49.81,1,1.25,1.44a.64.64,0,0,1,0,.92A.62.62,0,0,1,13.73,157Zm77.19-3.15a.5.5,0,0,1-.17,0,.64.64,0,0,1-.46-.8,4.58,4.58,0,0,0,.16-1.12,2.63,2.63,0,0,0-.37-1.4.65.65,0,1,1,1.11-.69,3.91,3.91,0,0,1,.56,2.09,5.51,5.51,0,0,1-.2,1.46A.65.65,0,0,1,90.92,153.82Zm-30.21-.35h-.06c-1,0-2.08,0-3.1-.06a.65.65,0,0,1-.63-.67.66.66,0,0,1,.68-.63c1,0,2,0,3,0h.06a.66.66,0,1,1,0,1.31Zm3.66-.08a.66.66,0,0,1-.65-.63.65.65,0,0,1,.63-.67c1-.05,2.08-.11,3.11-.18a.65.65,0,0,1,.7.6.64.64,0,0,1-.6.7c-1,.08-2.11.14-3.16.18Zm-10.45-.19h-.06c-1.07-.09-2.13-.21-3.15-.34a.64.64,0,0,1-.56-.73.63.63,0,0,1,.73-.56c1,.13,2,.24,3.09.32a.66.66,0,0,1,0,1.31Zm17.24-.32a.65.65,0,0,1-.07-1.3c1-.12,2.08-.25,3.09-.39a.65.65,0,0,1,.74.55.65.65,0,0,1-.55.74c-1,.15-2.08.28-3.14.4Zm-24-.59h-.13c-1.06-.2-2.11-.43-3.1-.68a.66.66,0,0,1-.47-.8.65.65,0,0,1,.79-.47c1,.24,2,.47,3,.67a.65.65,0,0,1,.52.76A.64.64,0,0,1,47.18,152.29Zm30.71-.4a.64.64,0,0,1-.64-.53.65.65,0,0,1,.52-.77c1.08-.2,2.1-.42,3-.64a.65.65,0,0,1,.79.48.67.67,0,0,1-.49.79c-1,.23-2,.45-3.1.66Zm-68.22-.36a.66.66,0,0,1-.56-.32c-.55-.91-1.07-1.86-1.53-2.81a.65.65,0,0,1,.3-.87.66.66,0,0,1,.88.3c.44.92.94,1.83,1.47,2.71a.65.65,0,0,1-.23.89A.58.58,0,0,1,9.67,151.53Zm30.93-1a.76.76,0,0,1-.21,0c-1-.35-2-.74-3-1.16a.65.65,0,0,1-.33-.86.66.66,0,0,1,.86-.34c.91.41,1.88.78,2.87,1.12a.65.65,0,0,1-.21,1.27Zm43.87-.38a.65.65,0,0,1-.24-1.26c.19-.07.36-.15.51-.22a7.05,7.05,0,0,1,2.7-.69.66.66,0,1,1,0,1.31,5.53,5.53,0,0,0-2.19.57l-.59.25A.67.67,0,0,1,84.47,150.19Zm-50.06-2.42a.67.67,0,0,1-.33-.08A29.84,29.84,0,0,1,31.59,146l-.18-.14a.66.66,0,0,1-.13-.92.66.66,0,0,1,.92-.12l.17.13a27,27,0,0,0,2.37,1.57.65.65,0,0,1,.24.89A.66.66,0,0,1,34.41,147.77ZM6.75,145.4a.67.67,0,0,1-.62-.43c-.36-1-.68-2-1-3.06a.67.67,0,0,1,.47-.8.65.65,0,0,1,.79.47c.27,1,.58,2,.92,2.94a.66.66,0,0,1-.39.84A.85.85,0,0,1,6.75,145.4Zm22.36-1.84a.67.67,0,0,1-.49-.21,22.54,22.54,0,0,1-2-2.55.66.66,0,1,1,1.09-.73,19.94,19.94,0,0,0,1.86,2.4.66.66,0,0,1,0,.92A.64.64,0,0,1,29.11,143.56Zm-24-4.74a.66.66,0,0,1-.65-.55c-.16-1-.29-2.1-.37-3.17a.65.65,0,0,1,.6-.7.64.64,0,0,1,.7.6c.08,1,.2,2.06.36,3.06a.65.65,0,0,1-.54.75Zm20.36-.93a.67.67,0,0,1-.6-.39,25.49,25.49,0,0,1-1.14-3,.65.65,0,0,1,1.25-.39A23,23,0,0,0,26,137a.65.65,0,0,1-.59.93ZM4.56,132.05h0a.66.66,0,0,1-.65-.66c0-1,.06-2.12.14-3.18a.65.65,0,0,1,1.3.1c-.08,1-.12,2.07-.13,3.09A.66.66,0,0,1,4.56,132.05Zm18.88-.65a.64.64,0,0,1-.64-.54c-.19-1-.32-2.1-.41-3.18a.65.65,0,1,1,1.3-.1c.09,1,.22,2.06.39,3a.64.64,0,0,1-.53.76ZM5.13,125.28H5a.66.66,0,0,1-.55-.75c.16-1,.36-2.08.58-3.12a.66.66,0,0,1,1.28.28c-.22,1-.41,2-.57,3A.65.65,0,0,1,5.13,125.28Zm17.81-.65h0a.66.66,0,0,1-.64-.67c0-1,.09-2.12.19-3.18a.66.66,0,1,1,1.31.13c-.11,1-.17,2.06-.19,3.08A.66.66,0,0,1,22.94,124.63Zm-16.34-6a.57.57,0,0,1-.18,0,.64.64,0,0,1-.45-.8c.28-1,.61-2,1-3a.66.66,0,0,1,.83-.41.65.65,0,0,1,.41.84c-.34,1-.65,2-.94,3A.65.65,0,0,1,6.6,118.64Zm17-.77h-.12a.66.66,0,0,1-.53-.76c.2-1,.43-2.08.7-3.11a.66.66,0,0,1,1.27.33c-.26,1-.49,2-.68,3A.65.65,0,0,1,23.65,117.87ZM8.84,112.22a.56.56,0,0,1-.25,0,.65.65,0,0,1-.35-.85c.4-1,.84-1.95,1.29-2.9a.64.64,0,0,1,.87-.31.66.66,0,0,1,.31.87c-.44.93-.87,1.88-1.27,2.84A.64.64,0,0,1,8.84,112.22Zm16.57-.91a.52.52,0,0,1-.21,0,.65.65,0,0,1-.4-.83c.35-1,.74-2,1.16-3a.65.65,0,0,1,.86-.33.64.64,0,0,1,.34.85c-.41.94-.79,1.91-1.13,2.88A.65.65,0,0,1,25.41,111.31ZM11.8,106.1a.62.62,0,0,1-.32-.09.63.63,0,0,1-.25-.88c.53-.95,1.07-1.87,1.63-2.73a.65.65,0,1,1,1.1.7c-.54.85-1.08,1.74-1.59,2.66A.64.64,0,0,1,11.8,106.1Zm16.36-1a.7.7,0,0,1-.31-.07.66.66,0,0,1-.26-.89c.51-.94,1.05-1.87,1.62-2.75a.66.66,0,0,1,.91-.19.65.65,0,0,1,.19.9c-.55.85-1.08,1.75-1.57,2.66A.65.65,0,0,1,28.16,105.09ZM15.51,100.4a.65.65,0,0,1-.53-1c.63-.9,1.23-1.76,1.75-2.57a.66.66,0,0,1,.91-.19.65.65,0,0,1,.19.9c-.54.83-1.14,1.71-1.79,2.62A.68.68,0,0,1,15.51,100.4Zm16.38-1a.61.61,0,0,1-.4-.14.65.65,0,0,1-.11-.92c.67-.84,1.38-1.66,2.1-2.41a.65.65,0,0,1,.94.9c-.69.73-1.37,1.51-2,2.32A.62.62,0,0,1,31.89,99.41ZM19.17,94.67a.7.7,0,0,1-.31-.07.66.66,0,0,1-.26-.89A27,27,0,0,0,19.92,91a.65.65,0,0,1,.85-.37.66.66,0,0,1,.36.85,28.62,28.62,0,0,1-1.38,2.9A.66.66,0,0,1,19.17,94.67Zm17.42-.16a.62.62,0,0,1-.48-.22.64.64,0,0,1,0-.92c.79-.72,1.58-1.42,2.37-2.09a.65.65,0,0,1,.92.07.66.66,0,0,1-.07.92c-.78.66-1.56,1.36-2.34,2.07A.66.66,0,0,1,36.59,94.51Zm5.19-4.39a.67.67,0,0,1-.52-.25.65.65,0,0,1,.12-.92c.83-.65,1.69-1.29,2.54-1.89a.65.65,0,0,1,.91.15.65.65,0,0,1-.16.91c-.83.6-1.67,1.22-2.49,1.86A.67.67,0,0,1,41.78,90.12ZM21.46,88.31h-.07a.64.64,0,0,1-.58-.71c0-.23,0-.46,0-.68a5,5,0,0,0-.41-2.06.65.65,0,1,1,1.19-.54,6.29,6.29,0,0,1,.53,2.6c0,.26,0,.53,0,.8A.66.66,0,0,1,21.46,88.31ZM47.33,86.2A.66.66,0,0,1,47,85c.89-.57,1.77-1.1,2.7-1.64a.65.65,0,0,1,.89.23.66.66,0,0,1-.23.9c-.92.53-1.79,1.06-2.66,1.61A.66.66,0,0,1,47.33,86.2Zm5.88-3.41a.65.65,0,0,1-.3-1.23l2.19-1.14.59-.31a.67.67,0,0,1,.89.28.65.65,0,0,1-.29.88l-.59.31-2.18,1.14A.7.7,0,0,1,53.21,82.79Zm-34.68-.14a.68.68,0,0,1-.33-.09,10.63,10.63,0,0,0-1.91-.84l-.89-.31a.65.65,0,1,1,.47-1.22c.27.1.54.2.83.29a12,12,0,0,1,2.16,1,.65.65,0,0,1-.33,1.22Zm-6.18-2.81a.64.64,0,0,1-.35-.1,11.65,11.65,0,0,1-2.52-2.15.66.66,0,0,1,.07-.93.65.65,0,0,1,.92.08,10.34,10.34,0,0,0,2.24,1.9.65.65,0,0,1,.19.9A.63.63,0,0,1,12.35,79.84Zm46.86-.24a.64.64,0,0,1-.56-.32.65.65,0,0,1,.23-.89,21.69,21.69,0,0,0,2.51-1.7.65.65,0,0,1,.83,1,21.05,21.05,0,0,1-2.68,1.81A.57.57,0,0,1,59.21,79.6Zm-26-4.39H32.7a.66.66,0,0,1-.63-.68.64.64,0,0,1,.67-.63,19,19,0,0,0,3-.17A.65.65,0,1,1,35.94,75,20.2,20.2,0,0,1,33.22,75.21Zm31.07,0a.69.69,0,0,1-.36-.11.66.66,0,0,1-.18-.91,8.48,8.48,0,0,0,1.18-2.65.66.66,0,0,1,.8-.47.65.65,0,0,1,.47.79,9.91,9.91,0,0,1-1.36,3A.68.68,0,0,1,64.29,75.19Zm-56-.58a.65.65,0,0,1-.63-.47,10.55,10.55,0,0,1-.35-2.74c0-.19,0-.38,0-.58A.66.66,0,0,1,8,70.2a.66.66,0,0,1,.63.68c0,.18,0,.35,0,.52a9.15,9.15,0,0,0,.31,2.39.65.65,0,0,1-.45.8A.55.55,0,0,1,8.26,74.61Zm20.87,0a.57.57,0,0,1-.22,0,8.42,8.42,0,0,1-2.51-1.4L26,72.81a.65.65,0,0,1-.07-.92.66.66,0,0,1,.93-.06l.34.29a7.31,7.31,0,0,0,2.12,1.19.65.65,0,0,1-.22,1.26Zm10.32-.25A.66.66,0,0,1,39.29,73c.94-.24,1.94-.53,3-.88a.66.66,0,0,1,.41,1.25c-1.06.35-2.09.65-3.06.9Zm6.45-2.16a.65.65,0,0,1-.24-1.26c.92-.36,1.88-.77,2.87-1.21a.65.65,0,0,1,.53,1.19c-1,.45-2,.86-2.92,1.24A.64.64,0,0,1,45.9,72.16Zm-21.77-2a.65.65,0,0,1-.57-.33,8.45,8.45,0,0,1-1.06-3.21.64.64,0,0,1,.57-.72.65.65,0,0,1,.73.57,7.1,7.1,0,0,0,.9,2.72.67.67,0,0,1-.25.89A.79.79,0,0,1,24.13,70.17Zm28-.78a.65.65,0,0,1-.59-.37.64.64,0,0,1,.3-.87l2.79-1.41a.66.66,0,0,1,.88.28.65.65,0,0,1-.28.88c-1,.52-1.93,1-2.82,1.42A.58.58,0,0,1,52.12,69.39Zm13.57-.69a.64.64,0,0,1-.64-.52,5,5,0,0,0-1.19-2.47.64.64,0,0,1,0-.92.65.65,0,0,1,.92,0,6.33,6.33,0,0,1,1.52,3.11.66.66,0,0,1-.51.77ZM8.58,67.91l-.19,0A.65.65,0,0,1,8,67.07a27.12,27.12,0,0,1,1.08-3,.66.66,0,0,1,1.21.51,24.69,24.69,0,0,0-1,2.87A.65.65,0,0,1,8.58,67.91Zm49.59-1.64a.67.67,0,0,1-.58-.35.66.66,0,0,1,.27-.88c.8-.42,1.51-.79,2-1.05a5.18,5.18,0,0,1,.94-.36.66.66,0,0,1,.33,1.27,4,4,0,0,0-.7.26c-.51.25-1.24.63-2,1A.6.6,0,0,1,58.17,66.27ZM23.59,63.61a.57.57,0,0,1-.22,0,.66.66,0,0,1-.4-.84,11.48,11.48,0,0,1,1.61-2.91.66.66,0,0,1,.92-.12.65.65,0,0,1,.12.92,9.69,9.69,0,0,0-1.42,2.56A.65.65,0,0,1,23.59,63.61Zm-12.37-2a.71.71,0,0,1-.31-.08.66.66,0,0,1-.26-.89c.46-.87,1-1.8,1.57-2.75a.65.65,0,0,1,1.12.67c-.57.94-1.09,1.85-1.54,2.7A.66.66,0,0,1,11.22,61.66Zm16.49-3.34a.65.65,0,0,1-.52-.26.66.66,0,0,1,.13-.92,16.88,16.88,0,0,1,2.78-1.69.66.66,0,1,1,.57,1.18,16.09,16.09,0,0,0-2.57,1.55A.64.64,0,0,1,27.71,58.32Zm-13-2.48a.69.69,0,0,1-.36-.11.66.66,0,0,1-.18-.91c.6-.9,1.22-1.77,1.84-2.59a.65.65,0,0,1,1,.78c-.6.8-1.2,1.66-1.79,2.54A.69.69,0,0,1,14.74,55.84Zm19.09-.39a.65.65,0,0,1-.16-1.29l1.14-.24c.67-.13,1.32-.27,1.93-.42a.65.65,0,0,1,.79.47.66.66,0,0,1-.47.8c-.64.16-1.32.3-2,.43-.36.07-.71.14-1.06.23Zm6.53-1.84a.65.65,0,0,1-.27-1.25,8.5,8.5,0,0,0,2.43-1.57.65.65,0,1,1,.92.93,10,10,0,0,1-2.81,1.83A.66.66,0,0,1,40.36,53.61Zm-21.5-3.18a.64.64,0,0,1-.43-.16.66.66,0,0,1-.06-.93c.72-.82,1.46-1.6,2.19-2.31a.65.65,0,1,1,.92.93c-.71.69-1.43,1.45-2.13,2.25A.68.68,0,0,1,18.86,50.43Zm25.23-1.82a.65.65,0,0,1-.63-.5A5,5,0,0,0,42,45.82a.65.65,0,0,1,.91-.94,6.29,6.29,0,0,1,1.86,2.92.66.66,0,0,1-.48.79Zm-20.3-2.86a.64.64,0,0,1-.52-.25.65.65,0,0,1,.12-.92,22.66,22.66,0,0,1,2.7-1.77.65.65,0,0,1,.89.25.67.67,0,0,1-.25.89,21.79,21.79,0,0,0-2.55,1.67A.63.63,0,0,1,23.79,45.75Zm15.68-1.9a.63.63,0,0,1-.33-.09L39,43.7a12.53,12.53,0,0,0-2.74-1.18.66.66,0,0,1-.44-.81.65.65,0,0,1,.81-.45,14.42,14.42,0,0,1,3,1.3l.12.07a.66.66,0,0,1-.33,1.22Zm-9.7-1.25a.67.67,0,0,1-.63-.47.65.65,0,0,1,.45-.81,12.75,12.75,0,0,1,3.24-.53.63.63,0,0,1,.68.63.65.65,0,0,1-.63.67,12.71,12.71,0,0,0-2.93.48A.57.57,0,0,1,29.77,42.6Z"/><path class="cls-4" d="M14.33,105c-12.74,21.9-7.86,48.63,14.2,57s57.69-1.7,57.59-8.31c-.1-6.82-15.75,6.19-45.37-1.33-19.69-5-23.85-23.89-19-39,5.89-18.26,21.32-29.42,31.12-33.48s8.78-13.8.82-9.38-15.86,7-22.88,6c-9-1.26-12.17-6.8-8.73-15.48C26.58,49.72,42,49.83,38.91,46c-6.4-8-23.95,6.66-27.83,18.44C8,73.71,15.76,79.63,22.39,81.1S25.24,86.23,14.33,105Z"/><path class="cls-2" d="M15.15,1.44C4.72,4.51,3.81,19.31,10.23,23.81c10.1,7.08,21.61,4.12,23.33-7C34.79,8.8,25.3-1.54,15.15,1.44Z"/><path class="cls-3" d="M21.3,28.56h0a20.43,20.43,0,0,1-11.6-4c-3.38-2.37-5.07-7.48-4.21-12.73C6.4,6.24,9.92,2,14.89.56A13.9,13.9,0,0,1,18.77,0a15.94,15.94,0,0,1,12,5.86c2.89,3.37,4.29,7.5,3.74,11.06C33.36,24.1,28.32,28.56,21.3,28.56ZM18.77,1.83a11.68,11.68,0,0,0-3.36.49c-4.28,1.26-7.32,4.93-8.12,9.81-.75,4.56.64,9,3.46,10.93A18.58,18.58,0,0,0,21.3,26.73h0c6.05,0,10.4-3.87,11.35-10.09.47-3-.77-6.62-3.32-9.59A14.12,14.12,0,0,0,18.77,1.83Z"/><path class="cls-4" d="M17.3,6.91c-7.78.66-9,15.75,4,13.91C31.13,19.42,31,5.74,17.3,6.91Z"/><path class="cls-3" d="M19.47,26.24a11.12,11.12,0,0,1-1.16-.06.65.65,0,0,1-.58-.72.65.65,0,0,1,.72-.58,10.12,10.12,0,0,0,2.94-.13A.66.66,0,1,1,21.62,26,12.12,12.12,0,0,1,19.47,26.24Zm-4.56-1.13A.58.58,0,0,1,14.6,25,11,11,0,0,1,12,23a.65.65,0,1,1,.93-.92,9.58,9.58,0,0,0,2.34,1.76.68.68,0,0,1,.27.89A.66.66,0,0,1,14.91,25.11ZM25,24.91a.65.65,0,0,1-.29-1.24A10.31,10.31,0,0,0,27.11,22,.65.65,0,0,1,28,23a11.89,11.89,0,0,1-2.73,1.87A.72.72,0,0,1,25,24.91ZM10.29,20.27a.65.65,0,0,1-.58-.36,13.89,13.89,0,0,1-1.14-3.08A.66.66,0,0,1,9.06,16a.64.64,0,0,1,.78.48,13,13,0,0,0,1,2.79.67.67,0,0,1-.58,1Zm19.47,0a.66.66,0,0,1-.3-.07.67.67,0,0,1-.28-.89,10.22,10.22,0,0,0,1-2.77.65.65,0,0,1,1.28.24,11.45,11.45,0,0,1-1.08,3.14A.65.65,0,0,1,29.76,20.26ZM8.88,13.7h0A.65.65,0,0,1,8.23,13a10.41,10.41,0,0,1,.71-3.25.65.65,0,0,1,.84-.37.65.65,0,0,1,.37.85,9.34,9.34,0,0,0-.62,2.85A.66.66,0,0,1,8.88,13.7Zm22,0a.66.66,0,0,1-.65-.56,10.48,10.48,0,0,0-.82-2.83.65.65,0,0,1,.32-.86.65.65,0,0,1,.87.32,11.19,11.19,0,0,1,.92,3.18.65.65,0,0,1-.55.74Zm-3-6a.69.69,0,0,1-.46-.18,8.6,8.6,0,0,0-2.38-1.67.66.66,0,1,1,.57-1.18,10.4,10.4,0,0,1,2.73,1.91.65.65,0,0,1-.46,1.12Zm-16.32,0a.62.62,0,0,1-.48-.22.65.65,0,0,1,0-.92A8.94,8.94,0,0,1,14,4.78c.31-.11.61-.22.91-.31a.65.65,0,0,1,.4,1.24l-.86.3A7.49,7.49,0,0,0,12,7.48.66.66,0,0,1,11.59,7.65Zm7.13-2.71a.65.65,0,0,1-.65-.58.64.64,0,0,1,.57-.72,14.45,14.45,0,0,1,3.28,0,.66.66,0,0,1,.58.72.65.65,0,0,1-.72.58,13.64,13.64,0,0,0-3,0Z"/><path class="cls-5" d="M23,146c-10.56-5.33-8.84,6.53,5.71,12.43s26,1.49,16.73-2.05C38.65,153.79,29.38,149.22,23,146Z"/><path class="cls-5" d="M23.27,7.71c-5.17-1-9.73,5.55-2.37,7.51S28.44,8.71,23.27,7.71Z"/></g></g></svg>