<svg xmlns="http://www.w3.org/2000/svg" viewBox="0 0 130.82 161.34"><defs><style>.cls-1{opacity:0.15;}.cls-2{fill:#2e89ff;}.cls-3{fill:#0064e6;}.cls-4{fill:#58a5f9;}.cls-5{fill:#69b3f7;}</style></defs><title>char6Asset 14</title><g id="Layer_2" data-name="Layer 2"><g id="Layer_1-2" data-name="Layer 1"><path class="cls-1" d="M75.68,33.17C64.92,36.33,64,51.6,70.61,56.24,81,63.55,92.9,60.49,94.67,49,95.93,40.76,86.15,30.09,75.68,33.17Z"/><path class="cls-1" d="M105,28.85C94.2,32,93.27,47.28,99.89,51.92c10.41,7.3,22.29,4.25,24.06-7.25C125.21,36.44,115.43,25.77,105,28.85Z"/><path class="cls-1" d="M85,7.21C74.27,10.38,73.33,25.65,80,30.29,90.37,37.59,102.24,34.53,104,23,105.28,14.81,95.49,4.13,85,7.21Z"/><path class="cls-1" d="M10.92,107.54c5.3-6.16,15.58-5.16,12.5,4.72-1.81,5.79-6.76,21.27,10.46,23.64s27-5.25,29.41-16c1.92-8.72-1.38-11.2-3.75-16.34S62.92,86.94,68,86.26,77.44,93,77.44,93s8.44,1.68,9.45-6.42,2.26-11.89,7.43-12.83c5-.9,8.78,3,8.44,6.75s4,6,7.32,4.84c4.4-1.53,3.94-8.55,0-11.59s1.63-8.44,9.14-6.07,16,15.28,6.41,31.39C117.31,113,103.7,109.27,99.4,105c-2.38,9-12.57,12.07-18.25,8.61,4.29,23.9-8.78,51.66-49.63,47.27S-1.57,122.05,10.92,107.54Z"/><path class="cls-2" d="M75.68,27.41C64.92,30.58,64,45.84,70.61,50.49,81,57.79,92.9,54.73,94.67,43.23,95.93,35,86.15,24.33,75.68,27.41Z"/><path class="cls-3" d="M82,55.35h0a20.94,20.94,0,0,1-11.94-4.12c-3.48-2.44-5.22-7.7-4.34-13.1,1-5.76,4.57-10.09,9.68-11.6a14.33,14.33,0,0,1,4-.58,16.43,16.43,0,0,1,12.3,6c3,3.47,4.42,7.73,3.85,11.39C94.44,50.76,89.24,55.35,82,55.35Zm-2.6-27.57a12.16,12.16,0,0,0-3.48.51c-4.43,1.3-7.56,5.09-8.39,10.14-.78,4.72.66,9.26,3.58,11.31A19.22,19.22,0,0,0,82,53.52c6.26,0,10.75-4,11.74-10.43.49-3.14-.8-6.84-3.43-9.91A14.6,14.6,0,0,0,79.42,27.78Z"/><path class="cls-4" d="M78,32.74c-6.27.62-7.24,14.94,3.22,13.2C89.1,44.61,89,31.62,78,32.74Z"/><path class="cls-3" d="M80.31,52l-.6,0a.65.65,0,1,1,.08-1.3,9.51,9.51,0,0,0,2.35-.17l.56-.13a.66.66,0,0,1,.79.48.65.65,0,0,1-.48.79l-.62.14A10.64,10.64,0,0,1,80.31,52Zm-4-1a.58.58,0,0,1-.31-.08,9.73,9.73,0,0,1-2.61-2.08.65.65,0,0,1,0-.93.66.66,0,0,1,.93,0,8.58,8.58,0,0,0,2.26,1.81.65.65,0,0,1,.26.89A.63.63,0,0,1,76.26,51Zm10-.7a.64.64,0,0,1-.55-.31.65.65,0,0,1,.2-.9,9.19,9.19,0,0,0,2.19-1.92.65.65,0,1,1,1,.82,10.39,10.39,0,0,1-2.5,2.21A.74.74,0,0,1,86.22,50.31ZM71.85,46a.65.65,0,0,1-.6-.39,13.92,13.92,0,0,1-1-3.13.65.65,0,0,1,1.28-.25,13.71,13.71,0,0,0,.9,2.85.65.65,0,0,1-.33.86A.58.58,0,0,1,71.85,46Zm18.43-1a.69.69,0,0,1-.2,0,.65.65,0,0,1-.42-.82,10.66,10.66,0,0,0,.46-2.9.65.65,0,0,1,1.3,0,11.59,11.59,0,0,1-.52,3.28A.64.64,0,0,1,90.28,45ZM70.69,39.37h0a.66.66,0,0,1-.6-.71,11.55,11.55,0,0,1,.74-3.23.65.65,0,0,1,.85-.37.66.66,0,0,1,.37.85,9.65,9.65,0,0,0-.65,2.86A.66.66,0,0,1,70.69,39.37Zm19.57-1a.67.67,0,0,1-.63-.47,10.69,10.69,0,0,0-1.23-2.68.65.65,0,0,1,1.1-.7,11.86,11.86,0,0,1,1.38,3,.66.66,0,0,1-.43.82A.63.63,0,0,1,90.26,38.34Zm-16.85-5a.64.64,0,0,1-.48-.21.66.66,0,0,1,0-.93,8.46,8.46,0,0,1,2.91-1.73.63.63,0,0,1,.54.06.69.69,0,0,1,.42-.36,14.5,14.5,0,0,1,3.24-.53.66.66,0,0,1,.68.63.66.66,0,0,1-.63.68,13.15,13.15,0,0,0-2.94.48.67.67,0,0,1-.5-.06.67.67,0,0,1-.38.34,7,7,0,0,0-2.45,1.45A.62.62,0,0,1,73.41,33.31Zm13.07-.49a.63.63,0,0,1-.39-.13,9,9,0,0,0-2.58-1.33.66.66,0,1,1,.4-1.25,10.41,10.41,0,0,1,3,1.53.66.66,0,0,1,.13.92A.65.65,0,0,1,86.48,32.82Z"/><path class="cls-2" d="M105,23.09C94.2,26.26,93.27,41.52,99.89,46.16c10.41,7.31,22.29,4.25,24.06-7.25C125.21,30.68,115.43,20,105,23.09Z"/><path class="cls-3" d="M111.31,51h0a21,21,0,0,1-12-4.12c-3.48-2.44-5.22-7.7-4.34-13.1,1-5.76,4.57-10.09,9.68-11.6a14.39,14.39,0,0,1,4-.58,16.43,16.43,0,0,1,12.3,6c3,3.47,4.42,7.73,3.85,11.39C123.72,46.44,118.52,51,111.31,51ZM108.7,23.46a12.16,12.16,0,0,0-3.48.51c-4.43,1.3-7.56,5.09-8.39,10.14-.78,4.72.66,9.26,3.58,11.31a19.23,19.23,0,0,0,10.9,3.78c6.25,0,10.74-4,11.74-10.43.48-3.14-.81-6.84-3.44-9.92A14.62,14.62,0,0,0,108.7,23.46Z"/><path class="cls-4" d="M107.55,28c-7.13.68-8.23,16.22,3.65,14.33C120.22,40.9,120.08,26.81,107.55,28Z"/><path class="cls-3" d="M109.57,47.71l-.58,0a.65.65,0,1,1,.08-1.3,4.64,4.64,0,0,0,.53,0,9.59,9.59,0,0,0,1.82-.18l.56-.13a.65.65,0,1,1,.31,1.27l-.61.14A11.7,11.7,0,0,1,109.57,47.71Zm-4-1a.71.71,0,0,1-.31-.08,9.73,9.73,0,0,1-2.61-2.08.65.65,0,1,1,1-.88,8.46,8.46,0,0,0,2.27,1.81.66.66,0,0,1-.32,1.23Zm10-.71a.64.64,0,0,1-.55-.3.65.65,0,0,1,.21-.9,9.16,9.16,0,0,0,2.18-1.93.65.65,0,0,1,1,.83,10.14,10.14,0,0,1-2.5,2.2A.64.64,0,0,1,115.5,46Zm-14.37-4.3a.67.67,0,0,1-.6-.39,14.45,14.45,0,0,1-1-3.13.65.65,0,0,1,1.28-.25,13.71,13.71,0,0,0,.9,2.85.65.65,0,0,1-.33.86A.58.58,0,0,1,101.13,41.68Zm18.43-1a.69.69,0,0,1-.2,0,.65.65,0,0,1-.42-.82,10.34,10.34,0,0,0,.46-2.9.65.65,0,0,1,1.3,0,11.13,11.13,0,0,1-.52,3.27A.64.64,0,0,1,119.56,40.71ZM100,35.05h-.06a.65.65,0,0,1-.6-.7,11.7,11.7,0,0,1,.74-3.24.65.65,0,0,1,.85-.36.66.66,0,0,1,.37.85,9.65,9.65,0,0,0-.65,2.86A.66.66,0,0,1,100,35.05Zm19.56-1a.66.66,0,0,1-.63-.46,10.53,10.53,0,0,0-1.23-2.68.65.65,0,0,1,.2-.9.64.64,0,0,1,.9.2,11.86,11.86,0,0,1,1.38,3,.65.65,0,0,1-.43.82Zm-16.85-5a.68.68,0,0,1-.48-.21.65.65,0,0,1,0-.93,8.18,8.18,0,0,1,2.9-1.73.63.63,0,0,1,.54.06.69.69,0,0,1,.42-.36,14.12,14.12,0,0,1,3.24-.53.66.66,0,0,1,.05,1.31,13,13,0,0,0-2.93.48A.69.69,0,0,1,106,27a.67.67,0,0,1-.38.34,7,7,0,0,0-2.45,1.45A.62.62,0,0,1,102.69,29Zm13.07-.49a.63.63,0,0,1-.39-.13A8.66,8.66,0,0,0,112.79,27a.66.66,0,0,1,.4-1.25,10.41,10.41,0,0,1,3,1.53.66.66,0,0,1,.13.92A.64.64,0,0,1,115.76,28.5Z"/><path class="cls-2" d="M85,1.46C74.27,4.62,73.33,19.89,80,24.53c10.42,7.3,22.29,4.25,24.06-7.25C105.28,9.05,95.49-1.62,85,1.46Z"/><path class="cls-3" d="M91.37,29.4h0a21,21,0,0,1-12-4.12c-3.48-2.44-5.22-7.71-4.34-13.1,1-5.76,4.57-10.1,9.69-11.6a13.91,13.91,0,0,1,4-.58,16.43,16.43,0,0,1,12.3,6c3,3.47,4.42,7.73,3.86,11.39C103.78,24.81,98.59,29.4,91.37,29.4ZM88.76,1.83a12.16,12.16,0,0,0-3.48.51c-4.42,1.3-7.56,5.09-8.39,10.13-.77,4.72.67,9.27,3.58,11.31a19.17,19.17,0,0,0,10.9,3.79h0c6.25,0,10.75-4,11.74-10.43.48-3.14-.81-6.85-3.44-9.92A14.59,14.59,0,0,0,88.76,1.83Z"/><path class="cls-4" d="M87.45,7.7c-7.38.63-8.51,15,3.79,13.21C100.58,19.58,100.44,6.58,87.45,7.7Z"/><path class="cls-3" d="M89.66,26.08l-.61,0a.64.64,0,0,1-.61-.69.66.66,0,0,1,.69-.62,9,9,0,0,0,2.35-.17c.19,0,.38-.08.56-.12a.65.65,0,0,1,.32,1.27l-.62.14A10.64,10.64,0,0,1,89.66,26.08Zm-4.06-1a.71.71,0,0,1-.31-.08,10.14,10.14,0,0,1-2.61-2.09.65.65,0,1,1,1-.87,8.62,8.62,0,0,0,2.27,1.81.66.66,0,0,1,.26.89A.68.68,0,0,1,85.6,25.06Zm10-.71a.65.65,0,0,1-.34-1.21,8.73,8.73,0,0,0,2.18-1.92.65.65,0,1,1,1,.83,10.14,10.14,0,0,1-2.5,2.2A.64.64,0,0,1,95.56,24.35ZM81.19,20a.66.66,0,0,1-.6-.38,14.62,14.62,0,0,1-1-3.13.66.66,0,1,1,1.29-.25,13,13,0,0,0,.89,2.84.65.65,0,0,1-.32.87A.86.86,0,0,1,81.19,20Zm18.43-1a.63.63,0,0,1-.19,0,.65.65,0,0,1-.43-.82,10.34,10.34,0,0,0,.46-2.9.66.66,0,0,1,.66-.65.67.67,0,0,1,.65.67,11.83,11.83,0,0,1-.52,3.27A.66.66,0,0,1,99.62,19.08ZM80,13.41H80a.65.65,0,0,1-.59-.71,11.2,11.2,0,0,1,.73-3.23A.67.67,0,0,1,81,9.1a.66.66,0,0,1,.37.85,9.79,9.79,0,0,0-.65,2.86A.65.65,0,0,1,80,13.41Zm19.56-1a.64.64,0,0,1-.62-.46,10.91,10.91,0,0,0-1.24-2.68.66.66,0,0,1,.2-.9.65.65,0,0,1,.9.19,12,12,0,0,1,1.39,3,.65.65,0,0,1-.44.81A.63.63,0,0,1,99.6,12.38Zm-16.85-5a.66.66,0,0,1-.48-.21.65.65,0,0,1,0-.92,8.08,8.08,0,0,1,2.91-1.73.64.64,0,0,1,.54,0,.65.65,0,0,1,.42-.35,14,14,0,0,1,3.23-.53A.65.65,0,0,1,89.47,5a13,13,0,0,0-2.94.49A.65.65,0,0,1,86,5.38a.66.66,0,0,1-.38.35A6.83,6.83,0,0,0,83.2,7.18.7.7,0,0,1,82.75,7.35Zm13.07-.48a.65.65,0,0,1-.39-.13,8.44,8.44,0,0,0-2.58-1.33.67.67,0,0,1-.42-.83.65.65,0,0,1,.82-.42,10,10,0,0,1,3,1.53.65.65,0,0,1-.39,1.18Z"/><path class="cls-2" d="M10.92,101.78c5.3-6.15,15.58-5.16,12.5,4.73-1.81,5.78-6.76,21.27,10.46,23.63s27-5.25,29.41-16c1.92-8.72-1.38-11.2-3.75-16.34S62.92,81.18,68,80.51s9.46,6.75,9.46,6.75,8.44,1.69,9.45-6.41S89.15,69,94.32,68c5-.91,8.78,3,8.44,6.75s4,6,7.32,4.83c4.4-1.53,3.94-8.54,0-11.58s1.63-8.44,9.14-6.08,16,15.29,6.41,31.4c-8.32,13.92-21.93,10.17-26.23,5.9-2.38,9-12.57,12.08-18.25,8.62,4.29,23.9-8.78,51.65-49.63,47.27S-1.57,116.3,10.92,101.78Z"/><path class="cls-3" d="M39.82,156.5a79,79,0,0,1-8.4-.46C12,154,4.61,145.17,1.84,138.17c-4.85-12.25.55-27.88,8.39-37A11.66,11.66,0,0,1,18.69,97a6,6,0,0,1,5.06,2.31c.92,1.25,1.76,3.55.54,7.45l0,.1c-1.19,3.8-3.66,11.71-.28,17,1.82,2.88,5.2,4.67,10,5.34a43.84,43.84,0,0,0,5.92.42c12.08,0,20.27-5.73,22.47-15.72,1.42-6.47-.11-9.18-2-12.61-.55-1-1.12-2-1.65-3.15-1.58-3.43.06-8.63,1.93-12,2.08-3.78,4.78-6.22,7.22-6.55a6.81,6.81,0,0,1,.78,0c4.61,0,8.38,5.37,9.35,6.87a11.72,11.72,0,0,0,1.23.07c2.76,0,6.17-1,6.76-5.76.94-7.49,2-12.49,8.18-13.61a8.28,8.28,0,0,1,7.62,2.48,6.92,6.92,0,0,1,1.89,5.25,3.29,3.29,0,0,0,.89,2.58A5.13,5.13,0,0,0,108.27,79a4.68,4.68,0,0,0,1.51-.24,3.84,3.84,0,0,0,2.43-3.17,7.55,7.55,0,0,0-2.69-6.83,3.64,3.64,0,0,1-1.46-4.2c.82-2.41,3.91-4.1,7.51-4.1a12.84,12.84,0,0,1,3.92.63c4.21,1.32,8,5.29,10,10.35,2.59,6.82,1.52,14.77-3,22.39-3.94,6.6-9.73,10.24-16.31,10.24a17.37,17.37,0,0,1-10.25-3.22,14.41,14.41,0,0,1-13.42,9.32,11.56,11.56,0,0,1-4.09-.71c1.82,12.62-1.19,24.66-8.38,33.26C66.4,151.73,54.6,156.5,39.82,156.5ZM18.69,98.85a9.75,9.75,0,0,0-7.07,3.53C4.14,111.07-1,125.92,3.54,137.49c3.7,9.37,13.41,15.15,28.08,16.73a77.78,77.78,0,0,0,8.2.45c14.22,0,25.54-4.54,32.73-13.15s10-20.79,7.7-33.5a.94.94,0,0,1,.38-.92.93.93,0,0,1,1,0,9.22,9.22,0,0,0,4.8,1.24A12.55,12.55,0,0,0,98.51,99a.91.91,0,0,1,.65-.65.9.9,0,0,1,.88.23,15,15,0,0,0,10.06,3.63c4.18,0,10.13-1.62,14.74-9.35,4.26-7.13,5.28-14.51,2.89-20.79C126,67.59,122.57,64,119,62.81a11.24,11.24,0,0,0-3.38-.54c-3.12,0-5.31,1.47-5.78,2.86a1.85,1.85,0,0,0,.84,2.16A9.34,9.34,0,0,1,114,75.86a5.62,5.62,0,0,1-3.64,4.61,6.48,6.48,0,0,1-2.11.34,6.91,6.91,0,0,1-5.06-2.15,5,5,0,0,1-1.36-4,5.12,5.12,0,0,0-1.43-3.86,6.44,6.44,0,0,0-5.94-1.91c-4.5.82-5.66,3.86-6.68,12-.58,4.68-3.71,7.36-8.58,7.36a10.72,10.72,0,0,1-2-.16.91.91,0,0,1-.61-.43c0-.07-3.81-6.35-8-6.35a3.08,3.08,0,0,0-.53,0c-1.85.24-4.09,2.39-5.86,5.61-2.17,3.93-2.92,8.11-1.87,10.39.49,1.09,1,2.06,1.58,3,1.95,3.47,3.8,6.75,2.22,13.91-2.36,10.74-11.43,17.15-24.25,17.15a46,46,0,0,1-6.17-.44c-5.39-.74-9.2-2.82-11.33-6.17-3.83-6-1.19-14.48.08-18.54l0-.1c.79-2.51.69-4.52-.26-5.82A4.29,4.29,0,0,0,18.69,98.85Z"/><path class="cls-3" d="M38.76,152.31h-1a.66.66,0,0,1-.64-.67.65.65,0,0,1,.65-.64h0c1,0,2.08,0,3.1,0a.64.64,0,0,1,.68.63.66.66,0,0,1-.63.68C40.22,152.3,39.48,152.31,38.76,152.31Zm-4.65-.16h0c-1-.07-2.1-.16-3.15-.28a.65.65,0,1,1,.14-1.3c1,.12,2.08.21,3.1.28a.65.65,0,0,1,0,1.3ZM44.56,152a.64.64,0,0,1-.65-.59.64.64,0,0,1,.58-.71c1-.11,2.08-.24,3.08-.39a.64.64,0,0,1,.74.54.65.65,0,0,1-.54.75c-1,.16-2.08.29-3.15.4Zm-17.19-.68h-.12c-1.06-.19-2.11-.41-3.11-.66a.65.65,0,0,1,.32-1.27c1,.25,2,.46,3,.65a.65.65,0,0,1-.11,1.29Zm23.89-.42a.65.65,0,0,1-.64-.5.66.66,0,0,1,.49-.79c1-.24,2-.51,3-.81a.65.65,0,0,1,.4,1.24c-1,.31-2,.6-3.07.84A.39.39,0,0,1,51.26,150.94ZM20.8,149.65a.57.57,0,0,1-.22,0,31.61,31.61,0,0,1-3-1.23.65.65,0,0,1-.3-.87.66.66,0,0,1,.87-.31A28.91,28.91,0,0,0,21,148.38a.66.66,0,0,1,.4.84A.67.67,0,0,1,20.8,149.65Zm36.92-.78a.65.65,0,0,1-.25-1.26c1-.4,1.89-.83,2.79-1.3a.66.66,0,0,1,.88.28.65.65,0,0,1-.28.88c-.93.48-1.9.94-2.89,1.35A.74.74,0,0,1,57.72,148.87Zm-43-2.21a.69.69,0,0,1-.36-.11,25.05,25.05,0,0,1-2.57-1.94.66.66,0,0,1-.06-.93.65.65,0,0,1,.92-.06,23.81,23.81,0,0,0,2.43,1.84.66.66,0,0,1,.19.9A.68.68,0,0,1,14.72,146.66Zm49-1a.65.65,0,0,1-.36-1.2c.86-.56,1.69-1.17,2.49-1.8a.65.65,0,1,1,.81,1c-.82.66-1.69,1.29-2.58,1.88A.68.68,0,0,1,63.72,145.7Zm-54-3.56a.65.65,0,0,1-.51-.24,22,22,0,0,1-1.84-2.65.66.66,0,0,1,.24-.9.65.65,0,0,1,.89.24,20.13,20.13,0,0,0,1.73,2.49.65.65,0,0,1-.1.92A.62.62,0,0,1,9.68,142.14Zm59.3-.72a.62.62,0,0,1-.46-.19.65.65,0,0,1,0-.92c.72-.73,1.41-1.49,2.06-2.28a.65.65,0,1,1,1,.82,30.25,30.25,0,0,1-2.14,2.38A.65.65,0,0,1,69,141.42ZM6.33,136.27a.66.66,0,0,1-.62-.43,24,24,0,0,1-.92-3.09.66.66,0,1,1,1.28-.28,22.8,22.8,0,0,0,.87,2.91.67.67,0,0,1-.38.85A1,1,0,0,1,6.33,136.27Zm66.89-.14a.65.65,0,0,1-.36-.1.67.67,0,0,1-.2-.91c.55-.85,1.06-1.75,1.53-2.66a.66.66,0,0,1,.88-.29.65.65,0,0,1,.28.88c-.48.95-1,1.88-1.58,2.78A.68.68,0,0,1,73.22,136.13Zm-34-.58h-.33a.66.66,0,0,1,0-1.31h.32c.91,0,1.84-.05,2.75-.13a.66.66,0,0,1,.71.59.65.65,0,0,1-.59.71C41.09,135.51,40.13,135.55,39.18,135.55Zm-4-.26h-.09a29.23,29.23,0,0,1-3.15-.61.65.65,0,0,1,.32-1.26,28.61,28.61,0,0,0,3,.57.65.65,0,0,1-.09,1.3Zm10.4-.4a.64.64,0,0,1-.64-.52.65.65,0,0,1,.5-.78,27.12,27.12,0,0,0,3-.77.65.65,0,0,1,.82.43.67.67,0,0,1-.43.82,30,30,0,0,1-3.1.8Zm-17-1.33a.52.52,0,0,1-.24-.05,21.7,21.7,0,0,1-2.9-1.43.65.65,0,1,1,.67-1.12,21.48,21.48,0,0,0,2.72,1.34.65.65,0,0,1-.25,1.26Zm23.41-.77a.66.66,0,0,1-.6-.38.67.67,0,0,1,.33-.87,27.86,27.86,0,0,0,2.72-1.4.65.65,0,1,1,.67,1.12,32,32,0,0,1-2.85,1.48A.86.86,0,0,1,52.06,132.79Zm24.19-2.73a.65.65,0,0,1-.62-.88c.36-1,.68-1.94,1-2.93a.66.66,0,0,1,1.27.35c-.29,1-.62,2.05-1,3A.66.66,0,0,1,76.25,130.06Zm-53.38,0a.66.66,0,0,1-.43-.16,19.72,19.72,0,0,1-1.54-1.49c-.26-.27-.5-.55-.73-.84a.66.66,0,0,1,.11-.92.65.65,0,0,1,.92.11c.2.26.42.51.65.76a17.45,17.45,0,0,0,1.45,1.4.65.65,0,0,1,.06.92A.64.64,0,0,1,22.87,130.05Zm-18-.4a.65.65,0,0,1-.65-.6c-.07-.79-.1-1.61-.1-2.43,0-.26,0-.52,0-.78a.66.66,0,0,1,1.31,0c0,.25,0,.5,0,.75,0,.78,0,1.56.09,2.32a.66.66,0,0,1-.6.71Zm53-.35a.68.68,0,0,1-.52-.25.65.65,0,0,1,.12-.92,26.06,26.06,0,0,0,2.3-2,.64.64,0,0,1,.92,0,.67.67,0,0,1,0,.93,28.79,28.79,0,0,1-2.42,2.11A.61.61,0,0,1,57.87,129.3Zm-39-4.64a.65.65,0,0,1-.6-.4,14.19,14.19,0,0,1-.89-3.16.65.65,0,1,1,1.29-.21,13.21,13.21,0,0,0,.81,2.87.65.65,0,0,1-.36.86A.69.69,0,0,1,18.83,124.66Zm43.81-.17a.61.61,0,0,1-.39-.13.66.66,0,0,1-.13-.92,23.91,23.91,0,0,0,1.7-2.54.66.66,0,0,1,.9-.23.64.64,0,0,1,.23.89,25.37,25.37,0,0,1-1.79,2.67A.65.65,0,0,1,62.64,124.49Zm15.37-1H77.9a.66.66,0,0,1-.54-.76c.18-1,.31-2,.4-3.06a.65.65,0,0,1,.7-.59.66.66,0,0,1,.6.71c-.09,1.06-.23,2.13-.41,3.16A.64.64,0,0,1,78,123.5Zm-72.92-.64H5a.65.65,0,0,1-.56-.74c.15-1,.34-2.1.58-3.14a.65.65,0,0,1,.78-.5.66.66,0,0,1,.49.79c-.23,1-.41,2-.55,3A.66.66,0,0,1,5.09,122.86ZM66,118.61a.74.74,0,0,1-.25,0,.66.66,0,0,1-.36-.85c.15-.37.3-.74.43-1.12.21-.58.39-1.17.54-1.76a.65.65,0,0,1,.79-.48.66.66,0,0,1,.48.79,18.66,18.66,0,0,1-.58,1.89q-.21.6-.45,1.17A.63.63,0,0,1,66,118.61ZM17.78,118h0a.64.64,0,0,1-.63-.68,25.5,25.5,0,0,1,.32-3.19.65.65,0,0,1,.74-.55.66.66,0,0,1,.55.75,27.25,27.25,0,0,0-.31,3A.64.64,0,0,1,17.78,118Zm60.77-1.26a.66.66,0,0,1-.65-.65c0-1-.05-2.06-.13-3.09a.66.66,0,0,1,1.31-.1c.08,1.06.12,2.13.13,3.18a.66.66,0,0,1-.65.66Zm-71.91-.49a.76.76,0,0,1-.21,0,.66.66,0,0,1-.41-.83c.33-1,.71-2,1.13-3a.65.65,0,0,1,1.2.52c-.4.93-.77,1.9-1.09,2.88A.65.65,0,0,1,6.64,116.25ZM67.51,112h0a.65.65,0,0,1-.63-.68c0-.22,0-.45,0-.67a18.78,18.78,0,0,0-.15-2.35.66.66,0,0,1,1.3-.17,21.73,21.73,0,0,1,.16,2.52c0,.24,0,.48,0,.72A.65.65,0,0,1,67.51,112Zm-48.72-.73-.14,0a.65.65,0,0,1-.5-.78l.19-.86c.18-.77.34-1.5.47-2.19a.66.66,0,0,1,.77-.51.64.64,0,0,1,.52.76c-.14.7-.31,1.44-.48,2.23l-.19.85A.66.66,0,0,1,18.79,111.29ZM9.37,110a.72.72,0,0,1-.32-.08.65.65,0,0,1-.25-.89,26.88,26.88,0,0,1,1.73-2.71.65.65,0,0,1,.91-.15.67.67,0,0,1,.15.92,25.44,25.44,0,0,0-1.65,2.58A.65.65,0,0,1,9.37,110ZM78,110a.65.65,0,0,1-.64-.55c-.16-1-.36-2-.59-3a.65.65,0,1,1,1.27-.29c.24,1,.44,2.09.61,3.12a.66.66,0,0,1-.54.75Zm8.29-3.67a15,15,0,0,1-2.93-.31.65.65,0,0,1,.25-1.28,13.4,13.4,0,0,0,3,.27.66.66,0,0,1,0,1.31Zm3.86-.81a.64.64,0,0,1-.59-.38.65.65,0,0,1,.32-.87,8.77,8.77,0,0,0,2.39-1.65.67.67,0,0,1,.93,0,.66.66,0,0,1,0,.93,10.6,10.6,0,0,1-2.75,1.88A.63.63,0,0,1,90.14,105.49Zm-23.52-.18a.65.65,0,0,1-.63-.47c-.27-.93-.6-1.88-1-2.91a.65.65,0,1,1,1.21-.48c.42,1.07.76,2,1,3a.65.65,0,0,1-.44.81A.57.57,0,0,1,66.62,105.31ZM80,105a.52.52,0,0,1-.21,0c-.87-.29-1.85-.64-3-1.08a.65.65,0,1,1,.47-1.22c1.11.43,2.06.78,2.92,1.06a.66.66,0,0,1,.41.83A.66.66,0,0,1,80,105Zm-66.47-.39a.68.68,0,0,1-.49-.22.65.65,0,0,1,.06-.92,8,8,0,0,1,2.89-1.77.66.66,0,0,1,.8.38.64.64,0,0,1,.69-.57,2.79,2.79,0,0,1,2.89,2.24.64.64,0,0,1-.49.78.66.66,0,0,1-.79-.49c-.13-.59-.42-1.15-1.69-1.23a.65.65,0,0,1-.57-.4.66.66,0,0,1-.45.54,6.88,6.88,0,0,0-2.41,1.49A.67.67,0,0,1,13.48,104.65ZM95,100.9a.66.66,0,0,1-.35-.11.64.64,0,0,1-.19-.9A25,25,0,0,0,96,97.23a.66.66,0,0,1,.88-.3.65.65,0,0,1,.29.88,26.43,26.43,0,0,1-1.58,2.79A.63.63,0,0,1,95,100.9ZM64.13,99a.67.67,0,0,1-.59-.38l-.47-1a9.64,9.64,0,0,1-.66-2.07.66.66,0,1,1,1.29-.25A7.48,7.48,0,0,0,64.26,97l.47,1a.65.65,0,0,1-.6.93Zm46.44-.11a.66.66,0,0,1,0-1.31,16.11,16.11,0,0,0,3-.32.65.65,0,0,1,.77.51.64.64,0,0,1-.51.77,17.85,17.85,0,0,1-3.23.35Zm-3.65-.29h-.11a22.31,22.31,0,0,1-3.13-.76.66.66,0,0,1,.4-1.25,19.83,19.83,0,0,0,3,.72.65.65,0,0,1-.11,1.3Zm10.22-1.21a.67.67,0,0,1-.59-.37.66.66,0,0,1,.3-.87,12.87,12.87,0,0,0,2.49-1.63.65.65,0,0,1,.92.07.66.66,0,0,1-.08.93,14,14,0,0,1-2.75,1.8A.73.73,0,0,1,117.14,97.38Zm-16.63-1a.6.6,0,0,1-.31-.08A12.44,12.44,0,0,1,98,94.82a.71.71,0,0,1-.2,0,.65.65,0,0,1-.36-.85l0-.14a.66.66,0,0,1,.48-.41.65.65,0,0,1,.59.18,10.82,10.82,0,0,0,2.27,1.63.65.65,0,0,1,.26.88A.66.66,0,0,1,100.51,96.41ZM122.2,93a.63.63,0,0,1-.37-.12.66.66,0,0,1-.17-.91c.22-.32.43-.65.63-1,.32-.55.61-1.1.89-1.64a.66.66,0,0,1,.88-.29.65.65,0,0,1,.28.88c-.28.56-.59,1.14-.92,1.7-.21.38-.44.74-.68,1.09A.65.65,0,0,1,122.2,93ZM63,92.41H62.9a.65.65,0,0,1-.56-.74,12.62,12.62,0,0,1,.9-3.18.65.65,0,1,1,1.2.52,11,11,0,0,0-.8,2.85A.66.66,0,0,1,63,92.41Zm13.69-.12a.66.66,0,0,1-.61-.42c0-.1-.2-.49-.46-1a.65.65,0,1,1,1.17-.57c.14.28.25.52.33.71.33,0,.84,0,1.46-.11a.65.65,0,0,1,.72.58.67.67,0,0,1-.59.72c-1.2.12-2,.13-2,.13Zm5.57-.73a.65.65,0,0,1-.15-1.29,20.22,20.22,0,0,0,2.9-.91.65.65,0,0,1,.85.35.66.66,0,0,1-.35.86,20.19,20.19,0,0,1-3.1,1Zm6.14-2.79A.65.65,0,0,1,88,87.62a6.19,6.19,0,0,0,1.71-2.23.65.65,0,0,1,1.2.52,7.56,7.56,0,0,1-2.06,2.7A.64.64,0,0,1,88.39,88.77ZM74.3,88.06a.66.66,0,0,1-.52-.26,9.17,9.17,0,0,0-2.06-2.07.65.65,0,1,1,.75-1.07A10.44,10.44,0,0,1,74.82,87a.65.65,0,0,1-.52,1Zm50.9-1.19a.52.52,0,0,1-.21,0,.64.64,0,0,1-.4-.83,22.94,22.94,0,0,0,.8-2.93.66.66,0,0,1,.77-.52.66.66,0,0,1,.52.77,23.76,23.76,0,0,1-.86,3.11A.66.66,0,0,1,125.2,86.87ZM65.9,86.4a.64.64,0,0,1-.48-.21.66.66,0,0,1,0-.93,6.09,6.09,0,0,1,3.08-1.58A.66.66,0,1,1,68.76,85a4.76,4.76,0,0,0-2.42,1.25A.64.64,0,0,1,65.9,86.4Zm42.7-2.06a.66.66,0,0,1-.64-.5.65.65,0,0,1,.48-.79l.1,0a20.55,20.55,0,0,0,2.7-1,.66.66,0,0,1,.87.31.64.64,0,0,1-.31.87,22.6,22.6,0,0,1-2.87,1.12l-.17,0ZM105,83.82a.56.56,0,0,1-.25,0,13.26,13.26,0,0,1-2.86-1.65.66.66,0,0,1-.12-.92.65.65,0,0,1,.92-.12,11.57,11.57,0,0,0,2.56,1.48.66.66,0,0,1,.35.86A.65.65,0,0,1,105,83.82ZM91,82.73h-.06A.65.65,0,0,1,90.3,82c.09-1.11.15-2.14.2-3.11a.64.64,0,0,1,.68-.62.66.66,0,0,1,.62.69c0,1-.1,2-.2,3.15A.65.65,0,0,1,91,82.73Zm23.65-1.47a.67.67,0,0,1-.5-.23.66.66,0,0,1,.07-.92A7.62,7.62,0,0,0,116,77.87a.66.66,0,0,1,1.17.6A9.06,9.06,0,0,1,115,81.1.72.72,0,0,1,114.6,81.26Zm11.79-1.05a.66.66,0,0,1-.66-.65,14.71,14.71,0,0,0-.33-3,.65.65,0,0,1,1.28-.27,15.69,15.69,0,0,1,.36,3.24.66.66,0,0,1-.65.66Zm-26.5-.66a.66.66,0,0,1-.58-.35,4.38,4.38,0,0,1-.57-2.07c0-.1,0-.2,0-.3,0-.35.06-.69.08-1a.64.64,0,0,1,.69-.61.65.65,0,0,1,.62.69c0,.34,0,.7-.09,1.06,0,.06,0,.12,0,.18a3.11,3.11,0,0,0,.42,1.46.65.65,0,0,1-.27.88A.67.67,0,0,1,99.89,79.55ZM91.43,76h-.1a.64.64,0,0,1-.54-.75A5.06,5.06,0,0,1,92.27,72a.65.65,0,1,1,.87,1,3.9,3.9,0,0,0-1.06,2.41A.66.66,0,0,1,91.43,76Zm25.88-.66a.65.65,0,0,1-.65-.63,9,9,0,0,0-.61-2.85.65.65,0,1,1,1.22-.46,10.09,10.09,0,0,1,.69,3.26.65.65,0,0,1-.62.68Zm7.51-1.63a.64.64,0,0,1-.58-.36,14.6,14.6,0,0,0-1.62-2.52.64.64,0,0,1,.1-.92.66.66,0,0,1,.92.1,16.3,16.3,0,0,1,1.77,2.75.66.66,0,0,1-.29.88A.82.82,0,0,1,124.82,73.66ZM98.94,73a.65.65,0,0,1-.53-.27c-.22-.3-.64-.7-1.82-.7l-.44,0a.65.65,0,1,1-.1-1.3,5.06,5.06,0,0,1,.54,0,3.3,3.3,0,0,1,2.88,1.24.65.65,0,0,1-.53,1ZM115,69a.65.65,0,0,1-.58-.35,6.28,6.28,0,0,1-.9-2.64,1.34,1.34,0,0,1,.44-1.07.65.65,0,0,1,.92.06.64.64,0,0,1,0,.91s0,0,0,.1a5.2,5.2,0,0,0,.75,2,.65.65,0,0,1-.58,1Zm5.51-.51a.66.66,0,0,1-.4-.13A12.73,12.73,0,0,0,118.06,67l-.49-.25a.65.65,0,0,1-.31-.87.66.66,0,0,1,.87-.31l.53.26a14.83,14.83,0,0,1,2.26,1.45.65.65,0,0,1-.4,1.17Z"/><path class="cls-4" d="M121.49,88.92c6-9.27-1.92-20.6-1.92-15.42,0,5.44-3,13.22-13.06,12.69-3.59-.19-7.85-2.68-8.52-6-.73-3.64-.79-5.69-3.18-5.16S94,77.86,93.05,85.14,81.49,95.59,76.46,92.68c-5.93-3.43-2.56-4.73-6.67-5.43-3.88-.66-5.78,5.85-3.66,10.46s5.09,10.8,1.94,20.66c-6.49,20.25-37.1,23.09-47.89,11.82-11.78-12.31-.11-21.91-3.92-23.74-5.79-2.78-23.42,37.47,16.51,41.85,15.09,1.67,37-4.05,41.87-21.61s-.51-22.28-2-24.82,1.61-4.68,5.07-2.19c5.4,3.88,16.2,2.19,17.55-6.42.74-4.69,6-2.25,7.09-.67C104.48,95.86,114.94,99,121.49,88.92Z"/><path class="cls-5" d="M91.38,7.73c-5.16-1-9.73,5.55-2.37,7.51S96.55,8.73,91.38,7.73Z"/></g></g></svg>