<svg xmlns="http://www.w3.org/2000/svg" viewBox="0 0 90.66 116.65"><defs><style>.cls-1{opacity:0.15;}.cls-2{fill:#2eddff;}.cls-3{fill:#00aade;}.cls-4{fill:#6bebfc;}.cls-5{fill:#95f2f9;}</style></defs><title>char6Asset 22</title><g id="Layer_2" data-name="Layer 2"><g id="Layer_1-2" data-name="Layer 1"><path class="cls-1" d="M14.2,56.68C19.1,53.86,27,54,23.68,61.77S10.57,95,35.74,94.72s32.54-14,32.42-17.54c-1.68-3.28-5.93,5.69-18.26-2s-6.79-37.74,12.84-39c18.81-1.23,32.57,32.69,14.64,60.58-15.76,24.51-63.95,27-73.19,4.14S7.53,60.54,14.2,56.68Z"/><path class="cls-1" d="M41,9.57c-10.1,3-11,17.29-4.77,21.65,9.78,6.85,20.92,4,22.58-6.81C60,16.69,50.83,6.68,41,9.57Z"/><path class="cls-1" d="M71.83,7.18c-10.09,3-11,17.29-4.76,21.65,9.77,6.85,20.91,4,22.57-6.81C90.83,14.3,81.65,4.29,71.83,7.18Z"/><path class="cls-2" d="M14.2,50.93C19.1,48.1,27,48.26,23.68,56S10.57,89.22,35.74,89,68.28,75,68.16,71.42c-1.68-3.28-5.93,5.7-18.26-2s-6.79-37.74,12.84-39C81.55,29.17,95.31,63.08,77.38,91c-15.76,24.52-63.95,27-73.19,4.14S7.53,54.78,14.2,50.93Z"/><path class="cls-3" d="M35.18,111.81c-15.79,0-27.7-6.12-31.84-16.36-5.17-12.78-3.39-23.3-1-29.87,2.86-7.78,7.77-13.36,11.39-15.44a13.39,13.39,0,0,1,6.39-1.81,5.23,5.23,0,0,1,4.58,2c1,1.46.9,3.49-.2,6-5.06,11.74-6,21.07-2.55,26.25,2.37,3.59,6.87,5.42,13.39,5.42h.37C52,87.88,60,82,63.35,78.47c2.74-2.86,3.81-5.58,3.89-6.8a.17.17,0,0,0-.16-.08,6.16,6.16,0,0,0-1.6.53,14.66,14.66,0,0,1-6.05,1.43c-3.12,0-6.4-1.1-10-3.36-6-3.74-8.47-13-6.07-22.54,2.1-8.31,8.28-17.45,19.34-18.17C70.11,29,77,33.64,81.63,42.05c6.47,11.84,7.9,31.71-3.48,49.42C70.21,103.82,53.34,111.81,35.18,111.81Zm-15-61.65a11.6,11.6,0,0,0-5.48,1.56c-3.32,1.92-7.89,7.14-10.58,14.49-2.3,6.27-4,16.31,1,28.56C8.83,104.15,20.38,110,35.18,110c17.56,0,33.82-7.66,41.43-19.5,11-17.08,9.62-36.19,3.42-47.56-4-7.4-10-11.64-16.3-11.64q-.46,0-.93,0C52.72,32,47.05,40.41,45.12,48.1c-2.21,8.77,0,17.22,5.26,20.53,3.32,2.08,6.28,3.09,9,3.09a12.91,12.91,0,0,0,5.34-1.28,6.28,6.28,0,0,1,2.31-.68A2,2,0,0,1,69,71a.87.87,0,0,1,.11.38c.06,1.8-1.28,5.08-4.41,8.35-3.55,3.71-12,10-28.92,10.13h-.39c-7.17,0-12.19-2.1-14.92-6.24-4.82-7.33-1.36-19.26,2.4-28,.82-1.91.95-3.4.35-4.31S21,50.16,20.14,50.16Z"/><path class="cls-3" d="M62,46.73c-3.89,0-6.47,7.46-1.22,8S69.9,46.76,62,46.73Z"/><path class="cls-3" d="M34.18,107.66l-1.29,0a.65.65,0,0,1-.63-.67.67.67,0,0,1,.67-.64c1,0,2,0,3.09,0a.63.63,0,0,1,.68.63.65.65,0,0,1-.63.67C35.44,107.65,34.81,107.66,34.18,107.66Zm-4.92-.25h-.07c-1.07-.11-2.13-.26-3.16-.45a.65.65,0,0,1,.24-1.28c1,.18,2,.32,3.06.43a.67.67,0,0,1,.58.72A.66.66,0,0,1,29.26,107.41Zm10.44,0a.65.65,0,0,1-.07-1.3c1-.11,2-.24,3.07-.41a.65.65,0,0,1,.21,1.29c-1,.17-2.1.31-3.14.42Zm6.7-1.11a.66.66,0,0,1-.14-1.3c1-.23,2-.49,3-.77a.66.66,0,1,1,.36,1.26c-1,.29-2,.55-3.07.79Zm-23.81-.12-.18,0c-1.05-.3-2.07-.65-3-1a.66.66,0,0,1-.37-.85.65.65,0,0,1,.85-.37q1.39.56,2.91,1a.65.65,0,0,1-.18,1.28Zm30.34-1.79a.67.67,0,0,1-.62-.43.66.66,0,0,1,.4-.84c1-.35,1.95-.73,2.89-1.13a.65.65,0,0,1,.85.35.66.66,0,0,1-.34.86c-1,.4-2,.79-3,1.15A.57.57,0,0,1,52.93,104.34Zm-36.62-.79a.71.71,0,0,1-.31-.08,23.28,23.28,0,0,1-2.7-1.77.64.64,0,0,1-.13-.91.66.66,0,0,1,.92-.13,22,22,0,0,0,2.55,1.67.65.65,0,0,1-.33,1.22Zm42.86-1.9a.65.65,0,0,1-.3-1.23c.93-.48,1.84-1,2.72-1.49a.65.65,0,1,1,.66,1.12c-.89.53-1.83,1-2.78,1.53A.66.66,0,0,1,59.17,101.65ZM11,99.38a.67.67,0,0,1-.49-.21,19.27,19.27,0,0,1-2-2.57.65.65,0,1,1,1.09-.71,17.65,17.65,0,0,0,1.85,2.4.65.65,0,0,1,0,.92A.67.67,0,0,1,11,99.38Zm54-1.22a.66.66,0,0,1-.53-.28.65.65,0,0,1,.16-.91c.85-.59,1.67-1.22,2.46-1.86a.65.65,0,0,1,.83,1c-.81.66-1.67,1.31-2.54,1.92A.68.68,0,0,1,65,98.16Zm5.22-4.34a.62.62,0,0,1-.46-.19.65.65,0,0,1,0-.93q1.11-1.1,2.1-2.25a.65.65,0,1,1,1,.84c-.68.8-1.41,1.59-2.17,2.34A.63.63,0,0,1,70.21,93.82ZM7.42,93.65a.67.67,0,0,1-.61-.42c-.4-1-.76-2-1.09-3A.65.65,0,0,1,7,89.84c.32,1,.68,1.94,1.07,2.91a.66.66,0,0,1-.37.85A.69.69,0,0,1,7.42,93.65Zm27.74-.48h-.74c-.3,0-.59,0-.88,0a.65.65,0,0,1-.63-.67.66.66,0,0,1,.68-.63l.85,0c.76,0,1.5,0,2.24,0a.68.68,0,0,1,.67.64.65.65,0,0,1-.63.67Zm5.19-.24a.65.65,0,0,1-.06-1.3c1-.1,2.06-.23,3.07-.39a.66.66,0,0,1,.75.54.66.66,0,0,1-.55.75c-1,.16-2.09.3-3.15.4ZM29.92,92.8h-.1a22.89,22.89,0,0,1-3.14-.71.65.65,0,0,1-.44-.81.66.66,0,0,1,.82-.44,21.74,21.74,0,0,0,3,.67.66.66,0,0,1,.55.75A.66.66,0,0,1,29.92,92.8Zm17.13-1a.65.65,0,0,1-.64-.5.66.66,0,0,1,.49-.79c1-.24,2-.52,3-.82A.65.65,0,1,1,50.27,91c-1,.32-2,.6-3.07.85ZM23.49,90.72a.6.6,0,0,1-.31-.08,15.57,15.57,0,0,1-2.69-1.84.66.66,0,0,1,.85-1,13.47,13.47,0,0,0,2.47,1.69.67.67,0,0,1,.26.89A.65.65,0,0,1,23.49,90.72Zm30-1a.66.66,0,0,1-.25-1.26c1-.39,1.9-.83,2.8-1.29a.65.65,0,0,1,.88.29.64.64,0,0,1-.28.87c-.94.48-1.92.93-2.9,1.34A.74.74,0,0,1,53.51,89.75Zm21.05-1.14a.62.62,0,0,1-.37-.11.66.66,0,0,1-.18-.91c.1-.13.19-.27.28-.41.46-.71.92-1.46,1.34-2.21a.65.65,0,0,1,.89-.25.66.66,0,0,1,.25.89c-.44.78-.91,1.55-1.39,2.29l-.28.42A.65.65,0,0,1,74.56,88.61ZM5.31,87.19a.65.65,0,0,1-.63-.5c-.26-1-.48-2.09-.66-3.11a.66.66,0,0,1,1.29-.23c.17,1,.39,2,.64,3a.66.66,0,0,1-.48.8Zm54.23-.57a.68.68,0,0,1-.56-.3.67.67,0,0,1,.2-.91c.87-.55,1.72-1.14,2.52-1.76a.66.66,0,0,1,.92.11.65.65,0,0,1-.12.92c-.83.64-1.71,1.26-2.61,1.84A.64.64,0,0,1,59.54,86.62Zm-41.06-.38a.65.65,0,0,1-.54-.29,16.1,16.1,0,0,1-1.55-2.87.65.65,0,1,1,1.21-.5A14.4,14.4,0,0,0,19,85.21a.66.66,0,0,1-.17.91A.63.63,0,0,1,18.48,86.24Zm59.36-3.57a.86.86,0,0,1-.27,0,.66.66,0,0,1-.32-.87c.41-.93.8-1.89,1.15-2.86a.65.65,0,0,1,.84-.39.64.64,0,0,1,.39.83c-.36,1-.76,2-1.19,3A.66.66,0,0,1,77.84,82.67Zm-13-.24a.67.67,0,0,1-.47-.2.66.66,0,0,1,0-.93,29.35,29.35,0,0,0,2.1-2.24.66.66,0,0,1,1,.85q-1,1.2-2.19,2.34A.67.67,0,0,1,64.87,82.43ZM4.21,80.49a.66.66,0,0,1-.65-.61c-.06-.86-.09-1.72-.09-2.56v-.63A.66.66,0,0,1,4.12,76h0a.66.66,0,0,1,.64.67c0,.2,0,.41,0,.61,0,.81,0,1.64.1,2.47a.67.67,0,0,1-.61.7ZM15.94,80a.66.66,0,0,1-.64-.52,24.73,24.73,0,0,1-.41-3.2.65.65,0,0,1,.61-.69.64.64,0,0,1,.69.61,22,22,0,0,0,.4,3,.66.66,0,0,1-.52.77Zm53.24-2.79a.64.64,0,0,1-.35-.1.66.66,0,0,1-.2-.9,21.89,21.89,0,0,0,1.43-2.68.65.65,0,1,1,1.2.52,22.69,22.69,0,0,1-1.53,2.85A.64.64,0,0,1,69.18,77.19Zm10.94-.91a.51.51,0,0,1-.17,0,.65.65,0,0,1-.46-.8c.27-1,.51-2,.71-3a.65.65,0,1,1,1.28.26c-.21,1-.45,2.08-.73,3.09A.66.66,0,0,1,80.12,76.28ZM4.41,73.71H4.32A.65.65,0,0,1,3.76,73a29.54,29.54,0,0,1,.62-3.14.65.65,0,0,1,.79-.48.66.66,0,0,1,.47.8,26.94,26.94,0,0,0-.58,3A.66.66,0,0,1,4.41,73.71Zm11.13-.5h0a.65.65,0,0,1-.61-.69c.06-1,.17-2.11.33-3.18a.67.67,0,0,1,.74-.55.66.66,0,0,1,.55.75c-.15,1-.26,2.06-.32,3.06A.65.65,0,0,1,15.54,73.21Zm56.18-2.28h-.1a.65.65,0,0,1-.55-.74,9.11,9.11,0,0,0,.1-1.23,5.1,5.1,0,0,0-.23-1.58.65.65,0,0,1,.42-.82.64.64,0,0,1,.82.42,6.11,6.11,0,0,1,.29,2,8.83,8.83,0,0,1-.11,1.42A.65.65,0,0,1,71.72,70.93Zm9.7-1.32h-.08a.66.66,0,0,1-.57-.72c.13-1,.22-2.06.28-3.09a.66.66,0,0,1,1.31.08C82.3,66.93,82.2,68,82.07,69A.65.65,0,0,1,81.42,69.61Zm-22-.11a.66.66,0,0,1,0-1.31,12.08,12.08,0,0,0,2.94-.43A.65.65,0,1,1,62.73,69a13.18,13.18,0,0,1-3.25.48Zm-3.62-.45a.47.47,0,0,1-.17,0,16,16,0,0,1-3-1.18.66.66,0,0,1,.59-1.17A15,15,0,0,0,56,67.77a.65.65,0,0,1-.17,1.28ZM66,67.73a.63.63,0,0,1-.59-.37.65.65,0,0,1,.31-.87l1-.49a20.62,20.62,0,0,1,1.89-.86.65.65,0,0,1,.84.38.64.64,0,0,1-.38.84,19.5,19.5,0,0,0-1.77.82l-1,.49A.57.57,0,0,1,66,67.73ZM6.14,67.15a.52.52,0,0,1-.24-.05.65.65,0,0,1-.37-.85,27.5,27.5,0,0,1,1.38-2.9A.65.65,0,1,1,8.05,64a25.81,25.81,0,0,0-1.3,2.76A.66.66,0,0,1,6.14,67.15Zm10.44-.65a.47.47,0,0,1-.16,0,.64.64,0,0,1-.47-.79c.26-1.07.57-2.1.9-3.06a.66.66,0,0,1,.83-.41.66.66,0,0,1,.41.83c-.32.93-.62,1.92-.87,3A.66.66,0,0,1,16.58,66.5ZM50,65.82a.67.67,0,0,1-.49-.21,10.61,10.61,0,0,1-1.76-2.84.65.65,0,0,1,1.2-.51,9.18,9.18,0,0,0,1.53,2.47.65.65,0,0,1,0,.93A.64.64,0,0,1,50,65.82Zm31.81-3a.66.66,0,0,1-.65-.65c0-1-.07-2.07-.15-3.09a.64.64,0,0,1,.59-.7.66.66,0,0,1,.71.6c.09,1,.14,2.11.16,3.17a.66.66,0,0,1-.64.67ZM9.46,61.24a.63.63,0,0,1-.39-.13.64.64,0,0,1-.13-.91A25.85,25.85,0,0,1,11,57.75a.66.66,0,0,1,.93,0,.64.64,0,0,1,0,.92A26.16,26.16,0,0,0,10,61,.64.64,0,0,1,9.46,61.24Zm9.36-1.15a.67.67,0,0,1-.24,0,.65.65,0,0,1-.36-.85,29.65,29.65,0,0,0,1-2.9.65.65,0,1,1,1.26.34,25.71,25.71,0,0,1-1,3A.65.65,0,0,1,18.82,60.09Zm28.47-.43a.64.64,0,0,1-.64-.54,22,22,0,0,1-.32-3.21.65.65,0,1,1,1.3,0,22,22,0,0,0,.31,3,.66.66,0,0,1-.53.76ZM14.23,56.42a.64.64,0,0,1-.52-.26.65.65,0,0,1,.12-.91A24.15,24.15,0,0,1,16,53.82a6.22,6.22,0,0,1,3.3-1.14.65.65,0,0,1,.59.71.66.66,0,0,1-.7.59,5,5,0,0,0-2.53,1,20.05,20.05,0,0,0-2,1.34A.65.65,0,0,1,14.23,56.42Zm66.94-.36a.65.65,0,0,1-.64-.55q-.25-1.55-.6-3a.65.65,0,0,1,.48-.79.66.66,0,0,1,.79.49c.24,1,.45,2.06.62,3.12a.65.65,0,0,1-.54.75Zm-34-3.17h-.07a.65.65,0,0,1-.58-.72A28.12,28.12,0,0,1,47,49a.66.66,0,0,1,1.28.28,28.38,28.38,0,0,0-.5,3A.66.66,0,0,1,47.13,52.89Zm32.43-3.43a.65.65,0,0,1-.62-.44c-.33-1-.7-2-1.1-2.88a.65.65,0,0,1,.33-.86.66.66,0,0,1,.86.34c.42,1,.8,2,1.15,3a.66.66,0,0,1-.41.83A.76.76,0,0,1,79.56,49.46ZM48.68,46.28a.62.62,0,0,1-.23,0,.64.64,0,0,1-.38-.84,27,27,0,0,1,1.3-2.94.66.66,0,1,1,1.16.61,22.86,22.86,0,0,0-1.24,2.79A.66.66,0,0,1,48.68,46.28Zm28.1-3a.66.66,0,0,1-.57-.32,23.73,23.73,0,0,0-1.7-2.53.66.66,0,0,1,.11-.92.65.65,0,0,1,.92.12,25.38,25.38,0,0,1,1.8,2.67.65.65,0,0,1-.56,1ZM51.92,40.33a.65.65,0,0,1-.52-1,17.44,17.44,0,0,1,2.21-2.39.65.65,0,0,1,.87,1,16.74,16.74,0,0,0-2,2.22A.68.68,0,0,1,51.92,40.33ZM72.54,38a.65.65,0,0,1-.43-.17,15.25,15.25,0,0,0-2.42-1.77.65.65,0,0,1,.66-1.13A16.25,16.25,0,0,1,73,36.85a.65.65,0,0,1,0,.92A.64.64,0,0,1,72.54,38ZM57,35.93a.65.65,0,0,1-.31-1.23,14.73,14.73,0,0,1,3.05-1.19.65.65,0,1,1,.34,1.26,12.94,12.94,0,0,0-2.78,1.09A.63.63,0,0,1,57,35.93Zm9.63-1.2-.17,0a12,12,0,0,0-2.93-.39.66.66,0,0,1,0-1.31h0a13.62,13.62,0,0,1,3.26.43.66.66,0,0,1-.16,1.29Z"/><path class="cls-4" d="M79.2,60.63C78.7,50.17,74.23,35.81,63,36c-13.15.28-16.73,16.85-12.7,24.45s13,5.56,17.21,2.86,9.25.83,5,12.14-26,23.07-44.33,18.2C11.91,89.34,12,75,14,68.57s3.37-10.86,1.62-11C11.46,57.08,2,73.43,8.51,90.39c5,13,28.77,18.42,48.82,8.75S79.71,71.1,79.2,60.63ZM62.47,56.58c-10,0-6.35-11.95-1.35-12.83C69.73,42.23,72.43,56.58,62.47,56.58Z"/><path class="cls-2" d="M41,3.81c-10.1,3-11,17.3-4.77,21.65,9.78,6.85,20.92,4,22.58-6.8C60,10.94,50.83.93,41,3.81Z"/><path class="cls-3" d="M47,30.08h0a19.77,19.77,0,0,1-11.24-3.87c-3.28-2.3-4.93-7.26-4.09-12.35.89-5.42,4.3-9.51,9.12-10.92a13.06,13.06,0,0,1,3.76-.55A15.44,15.44,0,0,1,56.09,8.07c2.81,3.26,4.16,7.28,3.63,10.72C58.65,25.76,53.76,30.08,47,30.08ZM44.51,4.22a11.54,11.54,0,0,0-3.24.47c-4.14,1.22-7.06,4.76-7.84,9.47-.72,4.4.62,8.64,3.34,10.55A17.92,17.92,0,0,0,47,28.25c5.83,0,10-3.73,10.95-9.73.45-2.93-.74-6.39-3.21-9.26A13.63,13.63,0,0,0,44.51,4.22Z"/><path class="cls-4" d="M43.09,9.1c-7.53.64-8.68,15.24,3.85,13.46C56.46,21.21,56.32,8,43.09,9.1Z"/><path class="cls-3" d="M45.19,27.83H45a.65.65,0,0,1-.64-.66.69.69,0,0,1,.67-.65h.16a9.85,9.85,0,0,0,2-.21l.76-.17a.64.64,0,0,1,.8.46.66.66,0,0,1-.47.8c-.27.07-.55.14-.83.19A11,11,0,0,1,45.19,27.83Zm-3.73-.76A.75.75,0,0,1,41.2,27a10.49,10.49,0,0,1-2.8-1.81.65.65,0,0,1,0-.92.64.64,0,0,1,.92-.05,9.32,9.32,0,0,0,2.45,1.58.66.66,0,0,1,.34.86A.67.67,0,0,1,41.46,27.07Zm10-1.06a.64.64,0,0,1-.55-.31.66.66,0,0,1,.2-.9,9.76,9.76,0,0,0,2.23-1.9.64.64,0,0,1,.92-.07.65.65,0,0,1,.07.92,11.38,11.38,0,0,1-2.52,2.16A.64.64,0,0,1,51.47,26Zm-14.9-3.48A.65.65,0,0,1,36,22.2a13.27,13.27,0,0,1-1.26-3A.65.65,0,1,1,36,18.81a12.65,12.65,0,0,0,1.13,2.74.65.65,0,0,1-.24.89A.62.62,0,0,1,36.57,22.53Zm19.11-1.7a.62.62,0,0,1-.23,0,.66.66,0,0,1-.39-.84,9.91,9.91,0,0,0,.59-2.87.66.66,0,0,1,.69-.62.65.65,0,0,1,.61.69,11.19,11.19,0,0,1-.66,3.25A.65.65,0,0,1,55.68,20.83ZM34.93,16h0a.65.65,0,0,1-.63-.67,10.55,10.55,0,0,1,.62-3.27.65.65,0,0,1,.84-.39.66.66,0,0,1,.39.84,8.86,8.86,0,0,0-.54,2.86A.64.64,0,0,1,34.93,16Zm21-1.86a.67.67,0,0,1-.63-.47A9.19,9.19,0,0,0,54,11a.66.66,0,0,1,1.09-.73,10.93,10.93,0,0,1,1.41,3,.65.65,0,0,1-.45.81A.57.57,0,0,1,55.89,14.15ZM37.49,9.91A.65.65,0,0,1,37,8.78,8.39,8.39,0,0,1,39.93,7a.65.65,0,1,1,.45,1.22,7.33,7.33,0,0,0-2.45,1.49A.66.66,0,0,1,37.49,9.91ZM52,8.76a.69.69,0,0,1-.36-.11A9,9,0,0,0,49,7.47a.65.65,0,0,1-.46-.8.64.64,0,0,1,.8-.46,10,10,0,0,1,3,1.35.66.66,0,0,1,.19.91A.67.67,0,0,1,52,8.76ZM42.41,7.6a.65.65,0,0,1-.16-1.29,17.07,17.07,0,0,1,3.22-.48.65.65,0,1,1,.06,1.3,16.34,16.34,0,0,0-3,.45Z"/><path class="cls-2" d="M71.83,1.42c-10.09,3-11,17.3-4.76,21.65,9.77,6.85,20.91,4,22.57-6.8C90.83,8.55,81.65-1.46,71.83,1.42Z"/><path class="cls-3" d="M77.78,27.69h0a19.77,19.77,0,0,1-11.24-3.87c-3.28-2.3-4.92-7.26-4.09-12.35C63.34,6.05,66.75,2,71.57.55A13.13,13.13,0,0,1,75.34,0,15.47,15.47,0,0,1,86.92,5.68C89.72,9,91.08,13,90.55,16.4,89.47,23.37,84.58,27.69,77.78,27.69ZM75.34,1.83a11.61,11.61,0,0,0-3.25.47C68,3.52,65,7.06,64.26,11.77c-.73,4.4.61,8.64,3.33,10.55a17.94,17.94,0,0,0,10.19,3.54c5.84,0,10-3.73,11-9.73.45-2.93-.75-6.39-3.21-9.26A13.65,13.65,0,0,0,75.34,1.83Z"/><path class="cls-4" d="M73.91,6.71c-7.52.64-8.68,15.24,3.86,13.46C87.29,18.82,87.14,5.58,73.91,6.71Z"/><path class="cls-3" d="M76,25.44h-.18a.66.66,0,0,1-.65-.66.69.69,0,0,1,.67-.65H76a9.93,9.93,0,0,0,2-.2l.76-.17a.65.65,0,0,1,.79.46.66.66,0,0,1-.47.8c-.27.07-.54.14-.83.19A11,11,0,0,1,76,25.44Zm-3.73-.76a.74.74,0,0,1-.25-.05,10.54,10.54,0,0,1-2.81-1.81.65.65,0,1,1,.88-1,8.87,8.87,0,0,0,2.44,1.58.65.65,0,0,1-.26,1.25Zm10-1.06a.67.67,0,0,1-.56-.31.65.65,0,0,1,.21-.9,9.92,9.92,0,0,0,2.22-1.9.65.65,0,1,1,1,.85,11,11,0,0,1-2.52,2.16A.63.63,0,0,1,82.3,23.62ZM67.39,20.14a.65.65,0,0,1-.57-.33,13.73,13.73,0,0,1-1.26-3A.67.67,0,0,1,66,16a.64.64,0,0,1,.8.46A12.2,12.2,0,0,0,68,19.16a.65.65,0,0,1-.25.89A.62.62,0,0,1,67.39,20.14Zm19.11-1.7a.57.57,0,0,1-.22,0,.65.65,0,0,1-.39-.84,10,10,0,0,0,.58-2.87.66.66,0,0,1,1.31.07A11.2,11.2,0,0,1,87.11,18,.63.63,0,0,1,86.5,18.44ZM65.75,13.63h0A.64.64,0,0,1,65.1,13a10.26,10.26,0,0,1,.61-3.27.65.65,0,1,1,1.23.45A9.43,9.43,0,0,0,66.4,13,.65.65,0,0,1,65.75,13.63Zm21-1.87a.67.67,0,0,1-.63-.47,9.44,9.44,0,0,0-1.23-2.65A.65.65,0,0,1,85,7.73a.66.66,0,0,1,.91.18,10.65,10.65,0,0,1,1.41,3,.65.65,0,0,1-.44.81ZM68.31,7.52a.66.66,0,0,1-.48-.21.65.65,0,0,1,0-.92,8.35,8.35,0,0,1,2.88-1.75.65.65,0,1,1,.45,1.22,7.18,7.18,0,0,0-2.44,1.49A.7.7,0,0,1,68.31,7.52ZM82.8,6.37a.66.66,0,0,1-.35-.11,9.06,9.06,0,0,0-2.67-1.18.65.65,0,0,1,.34-1.26,10,10,0,0,1,3,1.35.64.64,0,0,1,.19.9A.63.63,0,0,1,82.8,6.37ZM73.23,5.21a.65.65,0,0,1-.16-1.29,17.19,17.19,0,0,1,3.22-.48.66.66,0,0,1,.69.62.65.65,0,0,1-.62.68,16.32,16.32,0,0,0-3,.45Z"/><path class="cls-5" d="M71.18,48.86c4.48,5.44,8-2.1,1.45-8.65s-15.55-2.68-10.75.35A39.23,39.23,0,0,1,71.18,48.86Z"/><path class="cls-5" d="M77.56,6.57c-5.17-1-9.73,5.55-2.38,7.51S82.72,7.57,77.56,6.57Z"/><path class="cls-5" d="M47,9.63c-5.16-1-9.72,5.55-2.37,7.51S52.12,10.63,47,9.63Z"/></g></g></svg>