<svg xmlns="http://www.w3.org/2000/svg" viewBox="0 0 126.99 126.46"><defs><style>.cls-1{opacity:0.15;}.cls-2{fill:#fff737;}.cls-3{fill:#f7c00a;}.cls-4{fill:#fff069;}.cls-5{fill:#fff18f;}</style></defs><title>char6Asset 21</title><g id="Layer_2" data-name="Layer 2"><g id="Layer_1-2" data-name="Layer 1"><path class="cls-1" d="M84.17,7.3C71.65,11,70.55,28.76,78.26,34.16c12.13,8.5,26,4.94,28-8.44C107.75,16.14,96.36,3.72,84.17,7.3Z"/><path class="cls-1" d="M103.48,47.51C88.37,47.15,78,68.13,80.25,80.3S91.63,90.64,91.31,92.83C90.58,98,63.81,105,41.62,103.7s-27-9-23.3-20.08-6-11.43-12.75,3.31S-9,128.2,48.92,126.37s71.49-16.7,75.94-32.8C129.66,76.24,119.7,47.9,103.48,47.51Z"/><path class="cls-2" d="M84.17,1.55C71.65,5.23,70.55,23,78.26,28.41c12.13,8.5,26,4.94,28-8.45C107.75,10.38,96.36-2,84.17,1.55Z"/><path class="cls-3" d="M91.56,33.92h0a24.26,24.26,0,0,1-13.82-4.77c-4-2.8-6-8.87-5-15.1C73.84,7.41,78,2.4,83.91.67A16.48,16.48,0,0,1,88.52,0a18.94,18.94,0,0,1,14.2,7c3.44,4,5.11,8.91,4.46,13.13C105.87,28.62,99.88,33.92,91.56,33.92Zm-3-32.09a14.31,14.31,0,0,0-4.09.6c-5.21,1.53-8.9,6-9.88,11.92-.91,5.55.79,10.89,4.24,13.31a22.46,22.46,0,0,0,12.77,4.43c7.35,0,12.65-4.7,13.81-12.27.57-3.69-.94-8-4-11.66A17.13,17.13,0,0,0,88.52,1.83Z"/><path class="cls-4" d="M87,8.81c-8.59.73-9.92,17.41,4.41,15.38C102.29,22.64,102.12,7.51,87,8.81Z"/><path class="cls-3" d="M91.23,30a.64.64,0,0,1-.64-.56.65.65,0,0,1,.55-.74l.57-.1A15.21,15.21,0,0,0,94,27.91a.65.65,0,1,1,.46,1.22,15.32,15.32,0,0,1-2.52.72c-.22,0-.43.08-.64.11Zm-3.64-.06-.12,0a10,10,0,0,1-3.12-1.17.64.64,0,0,1-.25-.89.66.66,0,0,1,.9-.24,9,9,0,0,0,2.72,1,.66.66,0,0,1-.13,1.3Zm9.85-2.52a.67.67,0,0,1-.52-.25.66.66,0,0,1,.11-.92,10.25,10.25,0,0,0,2-2.13.65.65,0,0,1,.91-.15.65.65,0,0,1,.16.91,11.57,11.57,0,0,1-2.29,2.4A.67.67,0,0,1,97.44,27.39Zm-15.57-.9a.66.66,0,0,1-.5-.23,13.74,13.74,0,0,1-1.84-2.71.65.65,0,1,1,1.15-.61,12.4,12.4,0,0,0,1.68,2.46.66.66,0,0,1-.06.93A.72.72,0,0,1,81.87,26.49Zm19.33-4.64a.69.69,0,0,1-.2,0,.65.65,0,0,1-.43-.81,12.39,12.39,0,0,0,.5-2.93.66.66,0,0,1,1.31.06,13.49,13.49,0,0,1-.56,3.25A.65.65,0,0,1,101.2,21.85ZM78.8,20.48a.65.65,0,0,1-.63-.49,17,17,0,0,1-.49-3.22.65.65,0,0,1,.62-.69.66.66,0,0,1,.69.62,15.13,15.13,0,0,0,.45,3,.65.65,0,0,1-.48.79A.41.41,0,0,1,78.8,20.48Zm22.6-5.35a.65.65,0,0,1-.64-.51,13,13,0,0,0-1-2.81.65.65,0,1,1,1.17-.57A14,14,0,0,1,102,14.33a.66.66,0,0,1-.5.79ZM78.6,13.74h-.14A.64.64,0,0,1,78,13a11.53,11.53,0,0,1,1.1-3.12.65.65,0,0,1,1.16.6,10.77,10.77,0,0,0-1,2.78A.66.66,0,0,1,78.6,13.74ZM98.32,9.16A.63.63,0,0,1,97.84,9a10.72,10.72,0,0,0-2.28-1.88.66.66,0,0,1-.21-.9.65.65,0,0,1,.9-.21,12.14,12.14,0,0,1,2.55,2.1.67.67,0,0,1,0,.93A.7.7,0,0,1,98.32,9.16ZM81.91,8A.65.65,0,0,1,81.5,6.8a9.62,9.62,0,0,1,2.93-1.62c.4-.14.8-.27,1.2-.38a.67.67,0,0,1,.81.46.65.65,0,0,1-.46.8c-.37.11-.75.22-1.12.35a8.13,8.13,0,0,0-2.53,1.41A.71.71,0,0,1,81.91,8ZM92.53,5.8h-.14a11.09,11.09,0,0,0-2.53-.28h-.42a.64.64,0,0,1-.68-.63.66.66,0,0,1,.64-.68h.46a13,13,0,0,1,2.81.31.65.65,0,0,1-.14,1.29Z"/><path class="cls-2" d="M103.48,41.75C88.37,41.39,78,62.38,80.25,74.54S91.63,84.89,91.31,87.08c-.73,5.16-27.5,12.14-49.69,10.86s-27-9-23.3-20.08-6-11.43-12.75,3.32S-9,122.45,48.92,120.62s71.49-16.71,75.94-32.81C129.66,70.49,119.7,42.14,103.48,41.75Z"/><path class="cls-3" d="M43.39,121.62h0c-21.4,0-35-4.36-40.55-13-5.7-8.9-1.64-20.16,1.9-27.85,3.33-7.23,7.89-11.9,11.6-11.9a3.41,3.41,0,0,1,2.83,1.4c1.16,1.62,1.17,4.4,0,7.85-1.59,4.77-1.43,8.47.5,11.31,2.95,4.35,10.34,6.9,22,7.57,1.75.1,3.59.15,5.45.15a122.84,122.84,0,0,0,29.44-3.7c9-2.32,13.39-4.91,13.82-6.41a8.84,8.84,0,0,0-1.33-.55c-2.82-1-8.08-2.9-9.7-11.81-1.38-7.6,2-18.34,8-25.52,3.18-3.81,8.5-8.36,15.77-8.36h.41C108.91,41,114,44,118.19,49.69c7.55,10.16,10.79,26.66,7.55,38.37C121.46,103.54,109,119.63,49,121.53,47.05,121.59,45.18,121.62,43.39,121.62Zm-27-50.89c-2.38,0-6.51,3.39-9.94,10.83s-7.23,18-2,26.11,18.28,12.12,39,12.12h0c1.77,0,3.62,0,5.5-.09,58.85-1.86,71-17.29,75.09-32.13,3-11-.13-27.2-7.26-36.79-2.68-3.62-7.16-8-13.26-8.11h-.37c-6.56,0-11.43,4.19-14.36,7.7-5.68,6.81-8.87,16.91-7.57,24,1.43,7.87,5.86,9.47,8.51,10.42,1.35.48,2.75,1,2.55,2.4-.53,3.72-9.75,6.64-15.2,8A124.58,124.58,0,0,1,47.12,99c-1.9,0-3.77-.05-5.56-.15-12.4-.72-20-3.46-23.38-8.37-2.27-3.35-2.51-7.58-.73-12.92.93-2.79,1-5.11.23-6.2A1.54,1.54,0,0,0,16.34,70.73Z"/><path class="cls-3" d="M44.12,117.09c-.86,0-1.7,0-2.53,0a.65.65,0,0,1,0-1.3l2.51,0h.62v1.3ZM48.4,117a.66.66,0,0,1-.66-.64.66.66,0,0,1,.64-.67l1.35,0,1.78-.06a.65.65,0,1,1,.05,1.3l-1.79.06-1.36,0ZM37.94,117h0c-1.07,0-2.13-.11-3.15-.18a.66.66,0,0,1,.09-1.31c1,.07,2,.13,3.11.18a.66.66,0,0,1,0,1.31Zm17.25-.18a.64.64,0,0,1-.65-.62.66.66,0,0,1,.62-.69c1.06,0,2.1-.1,3.13-.16a.66.66,0,1,1,.07,1.31l-3.14.16Zm-24-.33H31.1c-1.08-.12-2.13-.25-3.14-.4a.66.66,0,0,1,.2-1.3c1,.15,2,.28,3.08.4a.65.65,0,0,1-.07,1.3Zm30.8-.06a.65.65,0,0,1-.65-.61.67.67,0,0,1,.61-.7l3.12-.23a.64.64,0,0,1,.7.6.65.65,0,0,1-.6.7c-1,.09-2.07.17-3.13.24Zm6.78-.56a.64.64,0,0,1-.65-.59.64.64,0,0,1,.58-.71l3.11-.32a.65.65,0,0,1,.73.57.67.67,0,0,1-.58.73l-3.13.32Zm-44.29-.41h-.13c-1.07-.22-2.11-.46-3.09-.72a.66.66,0,0,1,.33-1.27c1,.26,2,.5,3,.71a.65.65,0,0,1-.13,1.29Zm51-.34a.66.66,0,0,1-.09-1.31c1.06-.13,2.09-.28,3.1-.43a.65.65,0,0,1,.74.55.66.66,0,0,1-.55.75c-1,.15-2,.29-3.12.43Zm6.71-1a.65.65,0,0,1-.64-.54.66.66,0,0,1,.53-.76c1-.18,2.07-.37,3.07-.57a.66.66,0,1,1,.25,1.29c-1,.2-2,.39-3.09.57Zm-64.29-.44a.93.93,0,0,1-.23,0c-1-.38-2-.8-3-1.24a.66.66,0,0,1,.57-1.18c.88.42,1.83.82,2.83,1.19a.65.65,0,0,1,.39.84A.67.67,0,0,1,17.92,113.62Zm71-.9a.65.65,0,0,1-.15-1.29q1.55-.36,3-.75a.65.65,0,1,1,.33,1.26c-1,.27-2,.52-3.06.76A.39.39,0,0,1,88.87,112.72ZM95.43,111a.65.65,0,0,1-.2-1.28c1-.31,2-.65,2.94-1a.65.65,0,0,1,.45,1.23c-1,.35-2,.69-3,1A.63.63,0,0,1,95.43,111Zm-83.56-.37a.68.68,0,0,1-.38-.12A19,19,0,0,1,9,108.4a.65.65,0,1,1,.92-.93,17.91,17.91,0,0,0,2.33,1.92.65.65,0,0,1,.16.91A.65.65,0,0,1,11.87,110.58Zm89.92-2a.67.67,0,0,1-.6-.39.66.66,0,0,1,.34-.86c1-.43,1.9-.87,2.79-1.33a.65.65,0,0,1,.6,1.16c-.91.47-1.87.93-2.87,1.37A.8.8,0,0,1,101.79,108.59ZM7.2,105.72a.64.64,0,0,1-.56-.32,14.57,14.57,0,0,1-1.33-3,.64.64,0,0,1,.43-.82.65.65,0,0,1,.82.42,12.53,12.53,0,0,0,1.21,2.72.66.66,0,0,1-.23.9A.69.69,0,0,1,7.2,105.72Zm100.58-.3a.65.65,0,0,1-.55-.3.66.66,0,0,1,.2-.9c.88-.56,1.73-1.16,2.51-1.77a.66.66,0,0,1,.92.11.65.65,0,0,1-.12.92,31.7,31.7,0,0,1-2.6,1.84A.65.65,0,0,1,107.78,105.42ZM46,103H45a.64.64,0,0,1-.64-.66.66.66,0,0,1,.65-.65c1,0,2.08,0,3.13,0a.67.67,0,0,1,.66.64.66.66,0,0,1-.64.67Zm-4.61-.09h0c-1.07,0-2.13-.1-3.15-.17a.66.66,0,0,1-.61-.7.65.65,0,0,1,.7-.6c1,.07,2.06.12,3.11.16a.66.66,0,0,1,0,1.31Zm10.46,0a.66.66,0,0,1,0-1.31c1,0,2.08-.1,3.13-.17a.66.66,0,0,1,.08,1.31c-1.05.07-2.1.12-3.15.17Zm-17.24-.45h-.07c-1.09-.12-2.14-.26-3.14-.41a.66.66,0,1,1,.2-1.3c1,.15,2,.29,3.08.41a.65.65,0,0,1-.07,1.3Zm24,0a.66.66,0,0,1-.05-1.31c1-.09,2.07-.2,3.1-.31a.65.65,0,1,1,.15,1.3c-1,.11-2.09.22-3.14.31Zm6.76-.77a.66.66,0,0,1-.65-.57.65.65,0,0,1,.56-.73c1-.15,2.08-.3,3.09-.47a.66.66,0,0,1,.75.54.64.64,0,0,1-.54.75c-1,.17-2.07.33-3.12.47Zm-37.5-.3-.14,0-.41-.09c-.93-.21-1.83-.45-2.68-.7A.66.66,0,0,1,25,99.3c.82.25,1.69.48,2.6.69l.39.09a.65.65,0,0,1,.5.77A.66.66,0,0,1,27.89,101.37Zm85.19-.17a.62.62,0,0,1-.46-.19.65.65,0,0,1,0-.92,25.59,25.59,0,0,0,2-2.29.66.66,0,0,1,1,.81,28.33,28.33,0,0,1-2.13,2.4A.63.63,0,0,1,113.08,101.2Zm-41-.64A.65.65,0,0,1,72,99.27c1-.2,2.06-.42,3.06-.64a.65.65,0,0,1,.78.5.66.66,0,0,1-.5.78c-1,.22-2,.44-3.09.64ZM21.41,99.34a.65.65,0,0,1-.26-.06,21.3,21.3,0,0,1-2.86-1.5.66.66,0,0,1-.2-.9.64.64,0,0,1,.9-.2,20.48,20.48,0,0,0,2.69,1.41.65.65,0,0,1-.27,1.25ZM5.28,99.27a.65.65,0,0,1-.65-.61c0-.4,0-.81,0-1.22,0-.65,0-1.33.09-2A.66.66,0,0,1,6,95.55c-.06.64-.09,1.28-.09,1.89,0,.38,0,.77,0,1.14a.64.64,0,0,1-.61.69Zm73.46-.22a.65.65,0,0,1-.17-1.28c1-.28,2-.56,3-.86A.65.65,0,0,1,82,98.16c-1,.3-2,.59-3,.87A.52.52,0,0,1,78.74,99.05Zm6.48-2a.66.66,0,0,1-.61-.42.64.64,0,0,1,.38-.84c1-.39,2-.79,2.85-1.2a.65.65,0,0,1,.87.32.65.65,0,0,1-.32.86c-.9.42-1.89.84-2.94,1.24A.59.59,0,0,1,85.22,97Zm32-1.17a.63.63,0,0,1-.33-.09.65.65,0,0,1-.24-.89A25.81,25.81,0,0,0,118,92.12a.66.66,0,0,1,.87-.33.64.64,0,0,1,.33.86,31.89,31.89,0,0,1-1.45,2.86A.66.66,0,0,1,117.2,95.83ZM15.83,95.56a.64.64,0,0,1-.48-.22,11.35,11.35,0,0,1-1.85-2.75A.66.66,0,0,1,14.69,92a9.68,9.68,0,0,0,1.63,2.43.66.66,0,0,1-.49,1.1ZM91.33,94a.68.68,0,0,1-.55-.3.66.66,0,0,1,.2-.9A15,15,0,0,0,93.35,91a.65.65,0,1,1,.91.94,16.51,16.51,0,0,1-2.57,2A.65.65,0,0,1,91.33,94ZM5.94,92.53H5.79a.67.67,0,0,1-.49-.79c.23-1,.52-2,.87-3.07A.65.65,0,0,1,7,88.24a.65.65,0,0,1,.42.82c-.33,1-.61,2-.83,3A.65.65,0,0,1,5.94,92.53Zm114-2.91a.45.45,0,0,1-.2,0,.64.64,0,0,1-.43-.82q.24-.74.45-1.5c.13-.47.25-1,.36-1.46a.66.66,0,0,1,1.28.28c-.12.52-.24,1-.38,1.53s-.3,1-.46,1.55A.66.66,0,0,1,119.9,89.62ZM13.13,89.45a.65.65,0,0,1-.65-.58,16.9,16.9,0,0,1-.1-1.78q0-.7.06-1.47a.66.66,0,0,1,.7-.61.65.65,0,0,1,.6.7c0,.48-.05.94-.05,1.38a14.05,14.05,0,0,0,.09,1.63.66.66,0,0,1-.58.73Zm82.66-.34a.58.58,0,0,1-.19,0,.66.66,0,0,1-.44-.82A4,4,0,0,0,95.35,87a4.47,4.47,0,0,0-.11-1,2.25,2.25,0,0,0-.14-.44.66.66,0,0,1,.36-.85.65.65,0,0,1,.85.35,3.63,3.63,0,0,1,.21.66A5.73,5.73,0,0,1,96.66,87a5.64,5.64,0,0,1-.25,1.62A.64.64,0,0,1,95.79,89.11Zm-87.74-3a.69.69,0,0,1-.25,0,.66.66,0,0,1-.36-.85c.36-.91.77-1.86,1.24-2.91a.65.65,0,0,1,1.19.53c-.46,1-.86,2-1.22,2.86A.64.64,0,0,1,8.05,86.07Zm85-2.32a.58.58,0,0,1-.26,0c-.47-.2-1-.39-1.5-.58s-.94-.35-1.42-.55a.66.66,0,0,1-.36-.85.65.65,0,0,1,.86-.36c.46.19.92.36,1.38.53s1.06.39,1.55.61a.65.65,0,0,1,.35.86A.67.67,0,0,1,93,83.75ZM121.29,83h-.06a.65.65,0,0,1-.59-.71c.11-1,.17-2,.19-3.08a.66.66,0,0,1,1.31,0c0,1.09-.09,2.16-.2,3.19A.65.65,0,0,1,121.29,83ZM13.58,82.69h-.12a.65.65,0,0,1-.53-.75l0-.22a26.54,26.54,0,0,0,.36-2.82.65.65,0,0,1,1.3.08,24.65,24.65,0,0,1-.37,3l0,.21A.65.65,0,0,1,13.58,82.69Zm73.34-1.91a.66.66,0,0,1-.43-.16,7.9,7.9,0,0,1-2-2.74.65.65,0,1,1,1.19-.53,6.58,6.58,0,0,0,1.67,2.29.65.65,0,0,1,0,.92A.64.64,0,0,1,86.92,80.78Zm-76.06-.89a.65.65,0,0,1-.31-.08.66.66,0,0,1-.27-.89,10.32,10.32,0,0,1,1.92-2.74.65.65,0,1,1,.87,1,9.16,9.16,0,0,0-1.64,2.39A.65.65,0,0,1,10.86,79.89Zm110.54-3.7a.67.67,0,0,1-.66-.62c-.06-1-.17-2-.3-3.07a.65.65,0,1,1,1.29-.18c.14,1.06.25,2.13.32,3.17a.65.65,0,0,1-.61.69ZM84.27,74.73a.64.64,0,0,1-.65-.59c-.07-.7-.1-1.42-.1-2.16,0-.35,0-.71,0-1.06a.66.66,0,1,1,1.31,0c0,.34,0,.68,0,1q0,1,.09,2a.66.66,0,0,1-.59.71Zm36.19-5.28a.64.64,0,0,1-.63-.52c-.22-1-.46-2-.74-3a.65.65,0,0,1,1.26-.35c.28,1,.54,2.06.75,3.09a.65.65,0,0,1-.5.78ZM84.59,68h-.11a.66.66,0,0,1-.54-.76c.18-1,.41-2.08.7-3.12a.64.64,0,0,1,.8-.46.65.65,0,0,1,.46.8c-.27,1-.5,2-.67,3A.65.65,0,0,1,84.59,68Zm34-5a.66.66,0,0,1-.62-.43c-.35-1-.74-1.94-1.15-2.87a.65.65,0,0,1,.33-.86.66.66,0,0,1,.87.33c.42,1,.82,2,1.18,3a.64.64,0,0,1-.39.83A.57.57,0,0,1,118.61,62.91ZM86.42,61.42a.62.62,0,0,1-.23,0,.66.66,0,0,1-.37-.85c.39-1,.83-2,1.31-2.92a.66.66,0,0,1,1.17.59c-.46.91-.89,1.85-1.27,2.81A.65.65,0,0,1,86.42,61.42Zm29.38-4.69a.65.65,0,0,1-.57-.33c-.52-.92-1.07-1.8-1.64-2.61a.65.65,0,0,1,1.07-.75,30,30,0,0,1,1.71,2.72.65.65,0,0,1-.25.88A.62.62,0,0,1,115.8,56.73ZM89.57,55.41a.65.65,0,0,1-.37-.12.64.64,0,0,1-.17-.9,26.91,26.91,0,0,1,2-2.56.66.66,0,0,1,1,.86,24.31,24.31,0,0,0-1.86,2.43A.65.65,0,0,1,89.57,55.41Zm22.25-4.18a.67.67,0,0,1-.47-.2,16.54,16.54,0,0,0-2.26-2,.66.66,0,1,1,.78-1.06,19.13,19.13,0,0,1,2.43,2.16.66.66,0,0,1,0,.92A.64.64,0,0,1,111.82,51.23Zm-17.73-.87a.62.62,0,0,1-.5-.24.65.65,0,0,1,.09-.92,17.68,17.68,0,0,1,2.69-1.82.66.66,0,0,1,.89.26.65.65,0,0,1-.26.88,17.08,17.08,0,0,0-2.49,1.69A.68.68,0,0,1,94.09,50.36Zm12.18-2.93a.78.78,0,0,1-.21,0,8.7,8.7,0,0,0-2.86-.5h0a12.28,12.28,0,0,0-3,.36.65.65,0,0,1-.79-.48.66.66,0,0,1,.48-.79,13.35,13.35,0,0,1,3.26-.4h0a9.92,9.92,0,0,1,3.29.58.65.65,0,0,1,.4.83A.65.65,0,0,1,106.27,47.43Z"/><path class="cls-3" d="M103.18,65.51c-3.89,0-6.47,7.46-1.22,8S111.11,65.54,103.18,65.51Z"/><path class="cls-4" d="M93.55,54.2c-6.93,9-7.09,20-2,24.31s16.21,4.3,16.42-2.31c.09-2.7-4.6,2-8.81-1.51a7.32,7.32,0,0,1-1.28-9.58c4.81-6.61,12-3.08,12.84,6.29s-3,22.81-29.55,29.39-54.45,6.8-63.56-1.05-6.11-8.29-9.12-6.8S3.88,109.11,31.12,113s66.72-2.82,80.23-14,6.77-37.48-.58-45.08S96.15,50.83,93.55,54.2Z"/><path class="cls-5" d="M22.66,104.05c-9.35-2.06-6,6.17,6.61,8s21.1-3.27,13.11-4.27C36.49,107,28.3,105.3,22.66,104.05Z"/><path class="cls-5" d="M109.21,64.68c4.48,5.43,8-2.1,1.45-8.66s-15.56-2.68-10.75.35A39.25,39.25,0,0,1,109.21,64.68Z"/><path class="cls-5" d="M92.35,8.83c-5.16-1-9.73,5.55-2.37,7.51S97.52,9.83,92.35,8.83Z"/></g></g></svg>