<svg xmlns="http://www.w3.org/2000/svg" viewBox="0 0 127.17 119.33"><defs><style>.cls-1{opacity:0.15;}.cls-2{fill:#ff2114;}.cls-3{fill:#96130b;}.cls-4{fill:#fc3a35;}.cls-5{fill:#fc5151;}</style></defs><title>char4Asset 8</title><g id="Layer_2" data-name="Layer 2"><g id="Layer_1-2" data-name="Layer 1"><path class="cls-1" d="M43.87,33.17C33.12,36.34,32.18,51.6,38.8,56.25c10.41,7.3,22.29,4.24,24.06-7.26C64.13,40.76,54.34,30.09,43.87,33.17Z"/><path class="cls-1" d="M73.16,28.85C62.4,32,61.46,47.28,68.08,51.92c10.42,7.31,22.29,4.25,24.06-7.25C93.41,36.44,83.63,25.77,73.16,28.85Z"/><path class="cls-1" d="M53.22,7.21c-10.76,3.17-11.7,18.44-5.08,23.08C58.56,37.59,70.43,34.54,72.2,23,73.47,14.81,63.69,4.13,53.22,7.21Z"/><path class="cls-1" d="M9.75,65.81c4.43-4.42,13.83-3,10.79,4.15s-10,15,8.83,21.11,57.31,2.57,70.27-4.18,9.64-16.93,7.43-20.25-.28-13.71,8.84-9.07,17.42,27.59.83,42.8C94.5,120.76,30.92,127.36,8,106.82-5.39,94.82,3.12,72.45,9.75,65.81Z"/><path class="cls-2" d="M43.87,27.41C33.12,30.58,32.18,45.85,38.8,50.49c10.41,7.3,22.29,4.25,24.06-7.25C64.13,35,54.34,24.33,43.87,27.41Z"/><path class="cls-3" d="M50.22,55.35h0a21,21,0,0,1-11.95-4.11c-3.48-2.44-5.22-7.71-4.33-13.11.94-5.75,4.56-10.09,9.68-11.59a13.91,13.91,0,0,1,4-.58,16.4,16.4,0,0,1,12.3,6c3,3.47,4.42,7.73,3.86,11.38C62.63,50.76,57.44,55.35,50.22,55.35ZM47.61,27.79a12.51,12.51,0,0,0-3.48.5c-4.42,1.3-7.56,5.09-8.39,10.14-.77,4.72.67,9.26,3.58,11.31a19.15,19.15,0,0,0,10.9,3.78c6.25,0,10.75-4,11.74-10.42.48-3.14-.81-6.85-3.44-9.92A14.59,14.59,0,0,0,47.61,27.79Z"/><path class="cls-4" d="M46.3,33.65c-7.38.63-8.51,15,3.79,13.22C59.43,45.54,59.29,32.54,46.3,33.65Z"/><path class="cls-3" d="M48.48,52H47.9a.67.67,0,0,1-.61-.7.65.65,0,0,1,.69-.61l.53,0a9.62,9.62,0,0,0,1.82-.19l.56-.12a.66.66,0,0,1,.8.47.67.67,0,0,1-.48.8l-.62.13A10.2,10.2,0,0,1,48.48,52Zm-4-1a.6.6,0,0,1-.31-.08,9.89,9.89,0,0,1-2.61-2.08.65.65,0,1,1,1-.87,8.62,8.62,0,0,0,2.27,1.81.66.66,0,0,1,.26.88A.65.65,0,0,1,44.45,51Zm10-.7a.67.67,0,0,1-.56-.31.65.65,0,0,1,.21-.9,8.93,8.93,0,0,0,2.18-1.92.66.66,0,0,1,.92-.1.65.65,0,0,1,.09.92,10.2,10.2,0,0,1-2.5,2.21A.61.61,0,0,1,54.42,50.31ZM40,46a.66.66,0,0,1-.6-.38,14.62,14.62,0,0,1-1-3.13.66.66,0,0,1,1.29-.25,13,13,0,0,0,.89,2.84.64.64,0,0,1-.32.86A.66.66,0,0,1,40,46Zm18.43-1a.63.63,0,0,1-.19,0,.65.65,0,0,1-.43-.82,10.41,10.41,0,0,0,.46-2.91.66.66,0,0,1,1.31,0,11.89,11.89,0,0,1-.52,3.27A.66.66,0,0,1,58.47,45ZM38.89,39.37h-.06a.65.65,0,0,1-.59-.71A11.2,11.2,0,0,1,39,35.43a.66.66,0,1,1,1.22.48,9.79,9.79,0,0,0-.65,2.86A.66.66,0,0,1,38.89,39.37Zm19.56-1a.66.66,0,0,1-.63-.46,10.53,10.53,0,0,0-1.23-2.68.67.67,0,0,1,.2-.91.66.66,0,0,1,.9.2,12.24,12.24,0,0,1,1.39,3,.66.66,0,0,1-.44.82A.63.63,0,0,1,58.45,38.34Zm-16.85-5a.66.66,0,0,1-.48-.21.65.65,0,0,1,0-.92,8,8,0,0,1,2.91-1.73.64.64,0,0,1,.54.05.6.6,0,0,1,.41-.35,14.12,14.12,0,0,1,3.24-.53.65.65,0,0,1,.68.62.64.64,0,0,1-.62.68,12.46,12.46,0,0,0-2.94.49.65.65,0,0,1-.51-.07.61.61,0,0,1-.38.34,6.85,6.85,0,0,0-2.44,1.46A.7.7,0,0,1,41.6,33.31Zm13.07-.49a.63.63,0,0,1-.39-.13,8.9,8.9,0,0,0-2.58-1.33.65.65,0,1,1,.4-1.24,9.81,9.81,0,0,1,3,1.53.65.65,0,0,1,.14.91A.67.67,0,0,1,54.67,32.82Z"/><path class="cls-2" d="M73.16,23.09c-10.76,3.17-11.7,18.44-5.08,23.08,10.42,7.3,22.29,4.24,24.06-7.25C93.41,30.69,83.63,20,73.16,23.09Z"/><path class="cls-3" d="M79.5,51h0a21,21,0,0,1-12-4.11c-3.48-2.44-5.22-7.71-4.33-13.1.94-5.76,4.56-10.1,9.68-11.61a14.32,14.32,0,0,1,4-.58,16.43,16.43,0,0,1,12.3,6c3,3.48,4.42,7.73,3.86,11.4C91.91,46.44,86.72,51,79.5,51ZM76.89,23.46a12.16,12.16,0,0,0-3.48.51C69,25.27,65.85,29.06,65,34.11c-.77,4.72.67,9.26,3.58,11.31A19.25,19.25,0,0,0,79.5,49.2c6.25,0,10.75-4,11.74-10.42.48-3.14-.8-6.85-3.44-9.93A14.62,14.62,0,0,0,76.89,23.46Z"/><path class="cls-4" d="M75.59,29.33c-7.39.63-8.52,15,3.78,13.21C88.71,41.22,88.57,28.22,75.59,29.33Z"/><path class="cls-3" d="M77.79,47.71c-.21,0-.41,0-.61,0a.65.65,0,0,1-.61-.69.64.64,0,0,1,.69-.61,9,9,0,0,0,2.35-.17l.56-.12a.64.64,0,0,1,.79.47.66.66,0,0,1-.47.8l-.62.13A10.64,10.64,0,0,1,77.79,47.71Zm-4.06-1a.6.6,0,0,1-.31-.08,9.89,9.89,0,0,1-2.61-2.08.65.65,0,0,1,1-.88,8.62,8.62,0,0,0,2.27,1.81.67.67,0,0,1,.26.89A.66.66,0,0,1,73.73,46.69Zm10-.7a.65.65,0,0,1-.34-1.21,8.93,8.93,0,0,0,2.18-1.92.66.66,0,0,1,.92-.1.65.65,0,0,1,.09.92A10,10,0,0,1,84,45.89.64.64,0,0,1,83.69,46ZM69.32,41.68a.65.65,0,0,1-.6-.39,15,15,0,0,1-1-3.13A.66.66,0,0,1,69,37.91a13.12,13.12,0,0,0,.89,2.85.64.64,0,0,1-.32.86A.66.66,0,0,1,69.32,41.68Zm18.43-1a.63.63,0,0,1-.19,0,.65.65,0,0,1-.43-.82,10.4,10.4,0,0,0,.46-2.9.66.66,0,1,1,1.31,0,11.83,11.83,0,0,1-.52,3.27A.66.66,0,0,1,87.75,40.72ZM68.17,35.05h-.06a.65.65,0,0,1-.59-.71,11.2,11.2,0,0,1,.73-3.23.66.66,0,0,1,.85-.37.65.65,0,0,1,.37.85,10.4,10.4,0,0,0-.65,2.86A.66.66,0,0,1,68.17,35.05Zm19.56-1a.64.64,0,0,1-.62-.46,10.89,10.89,0,0,0-1.23-2.68.66.66,0,0,1,.19-.91.67.67,0,0,1,.91.2,12.12,12.12,0,0,1,1.38,3,.65.65,0,0,1-.44.81A.58.58,0,0,1,87.73,34ZM70.88,29a.66.66,0,0,1-.44-1.14,8.2,8.2,0,0,1,2.91-1.72.63.63,0,0,1,.54.05.69.69,0,0,1,.42-.36,14.5,14.5,0,0,1,3.24-.53.66.66,0,0,1,0,1.31,13.15,13.15,0,0,0-2.94.48.69.69,0,0,1-.51-.06.64.64,0,0,1-.38.34,6.83,6.83,0,0,0-2.44,1.45A.66.66,0,0,1,70.88,29ZM84,28.5a.66.66,0,0,1-.4-.13A8.9,8.9,0,0,0,81,27a.65.65,0,0,1-.42-.82.65.65,0,0,1,.82-.42,9.86,9.86,0,0,1,3,1.53.64.64,0,0,1,.13.91A.66.66,0,0,1,84,28.5Z"/><path class="cls-2" d="M53.22,1.46c-10.76,3.16-11.7,18.43-5.08,23.07,10.42,7.31,22.29,4.25,24.06-7.25C73.47,9.05,63.69-1.62,53.22,1.46Z"/><path class="cls-3" d="M59.56,29.4h0a20.94,20.94,0,0,1-11.94-4.12c-3.48-2.44-5.23-7.7-4.34-13.1C44.22,6.42,47.84,2.08,53,.58A14.32,14.32,0,0,1,57,0a16.43,16.43,0,0,1,12.3,6c3,3.47,4.42,7.73,3.86,11.39C72,24.81,66.78,29.4,59.56,29.4ZM57,1.83a12.15,12.15,0,0,0-3.47.51c-4.43,1.3-7.57,5.09-8.4,10.13-.77,4.72.67,9.27,3.59,11.31a19.16,19.16,0,0,0,10.89,3.79c6.25,0,10.75-4,11.74-10.43.48-3.14-.8-6.85-3.44-9.92A14.57,14.57,0,0,0,57,1.83Z"/><path class="cls-4" d="M55.65,7.7c-7.38.63-8.52,15,3.79,13.21C68.78,19.58,68.63,6.58,55.65,7.7Z"/><path class="cls-3" d="M57.85,26.08l-.61,0a.65.65,0,0,1-.61-.69.64.64,0,0,1,.69-.61,9.59,9.59,0,0,0,2.36-.17l.55-.13a.65.65,0,1,1,.32,1.27l-.62.14A10.64,10.64,0,0,1,57.85,26.08Zm-4.06-1a.71.71,0,0,1-.31-.08,10.09,10.09,0,0,1-2.61-2.09.65.65,0,0,1,1-.87,8.62,8.62,0,0,0,2.27,1.81.66.66,0,0,1,.26.89A.67.67,0,0,1,53.79,25.06Zm10-.71a.65.65,0,0,1-.35-1.2,9,9,0,0,0,2.18-1.93.65.65,0,0,1,.92-.09.66.66,0,0,1,.1.92,10,10,0,0,1-2.51,2.2A.59.59,0,0,1,63.76,24.35ZM49.38,20a.66.66,0,0,1-.6-.38,14.43,14.43,0,0,1-1-3.13.65.65,0,0,1,.51-.77.66.66,0,0,1,.77.52,12.53,12.53,0,0,0,.9,2.84.66.66,0,0,1-.33.87A.65.65,0,0,1,49.38,20Zm18.43-1a.63.63,0,0,1-.19,0,.65.65,0,0,1-.43-.82,10,10,0,0,0,.46-2.9.65.65,0,0,1,.67-.64.64.64,0,0,1,.64.66,11.47,11.47,0,0,1-.52,3.27A.66.66,0,0,1,67.81,19.08ZM48.23,13.41h0a.66.66,0,0,1-.6-.7,11.28,11.28,0,0,1,.74-3.24.65.65,0,1,1,1.21.48,10.47,10.47,0,0,0-.65,2.87A.64.64,0,0,1,48.23,13.41Zm19.56-1a.65.65,0,0,1-.62-.46,10.89,10.89,0,0,0-1.23-2.68.65.65,0,1,1,1.1-.7,12.22,12.22,0,0,1,1.38,3,.66.66,0,0,1-.43.82A.68.68,0,0,1,67.79,12.38ZM51,7.35a.63.63,0,0,1-.48-.21.65.65,0,0,1,0-.92,8.16,8.16,0,0,1,2.91-1.73.64.64,0,0,1,.54.06.66.66,0,0,1,.42-.36,14,14,0,0,1,3.24-.53.65.65,0,0,1,.68.63.66.66,0,0,1-.63.68,12.6,12.6,0,0,0-2.94.48.62.62,0,0,1-.5-.07.69.69,0,0,1-.38.35,6.87,6.87,0,0,0-2.45,1.45A.7.7,0,0,1,51,7.35ZM64,6.87a.61.61,0,0,1-.39-.13,8.78,8.78,0,0,0-2.58-1.33.66.66,0,1,1,.4-1.25,10.41,10.41,0,0,1,3,1.53.66.66,0,0,1,.13.92A.65.65,0,0,1,64,6.87Z"/><path class="cls-2" d="M9.75,60.06c4.43-4.43,13.83-3,10.79,4.14s-10,15,8.83,21.12,57.31,2.57,70.27-4.18,9.64-16.94,7.43-20.25-.28-13.72,8.84-9.07,17.42,27.59.83,42.79C94.5,115,30.92,121.6,8,101.07-5.39,89.06,3.12,66.69,9.75,60.06Z"/><path class="cls-3" d="M52.61,114.48c-20,0-36-4.52-45.22-12.73C2.75,97.59.2,91.74,0,84.83c-.27-10,4.41-20.74,9.1-25.42a9.94,9.94,0,0,1,6.9-2.8A6.1,6.1,0,0,1,21.29,59c.68,1,1.25,2.82.09,5.56-.39.92-.85,1.86-1.29,2.77-1.67,3.44-3.24,6.68-2,9.69s5,5.31,11.53,7.42c6.25,2,15.09,3.1,25.56,3.1,17.47,0,36-3,44-7.21,4.78-2.49,7.7-5.67,8.67-9.44a12.38,12.38,0,0,0-1.58-9.5c-1.35-2-1.31-5.77.08-8.37a5.85,5.85,0,0,1,5.33-3.29A10.41,10.41,0,0,1,116.33,51c5.11,2.6,9.45,10.09,10.56,18.2a29.26,29.26,0,0,1-9.53,26.09C104.83,106.77,78.81,114.48,52.61,114.48ZM16,58.44A8.1,8.1,0,0,0,10.4,60.7C6.09,65,1.59,75.45,1.84,84.78,2,91.26,4.3,96.51,8.62,100.38c8.82,7.92,24.45,12.27,44,12.27,25.78,0,51.3-7.52,63.51-18.71a27.42,27.42,0,0,0,8.95-24.49c-1-7.56-5-14.47-9.57-16.82-3.48-1.77-6.12-1.33-7.5,1.25-1.18,2.21-1,5.2-.17,6.5a14.22,14.22,0,0,1,1.83,11c-1.1,4.3-4.33,7.87-9.59,10.61-8.26,4.3-27.13,7.42-44.85,7.42-10.66,0-19.7-1.1-26.13-3.18C22,83.9,17.9,81.13,16.45,77.73c-1.61-3.77.22-7.54,2-11.2.46-.93.88-1.8,1.25-2.68.67-1.58.7-2.91.08-3.84A4.43,4.43,0,0,0,16,58.44Z"/><path class="cls-3" d="M53.39,110.14H52.17a.66.66,0,0,1-.65-.66.69.69,0,0,1,.67-.65c1,0,2.07,0,3.12,0h0a.66.66,0,0,1,0,1.31Zm-4.87-.09h0c-1.05,0-2.11-.1-3.15-.17a.65.65,0,1,1,.09-1.3c1,.07,2.08.13,3.12.17a.64.64,0,0,1,.62.68A.65.65,0,0,1,48.52,110.05ZM59,110a.66.66,0,0,1,0-1.31c1,0,2.08-.1,3.12-.17a.65.65,0,0,1,.7.6.66.66,0,0,1-.61.7L59,110Zm-17.24-.47h-.07c-1.05-.11-2.11-.24-3.14-.38a.66.66,0,0,1,.18-1.3c1,.14,2.06.27,3.1.38a.65.65,0,0,1-.07,1.3Zm24,0a.65.65,0,0,1-.07-1.3c1-.1,2.08-.22,3.11-.34a.64.64,0,0,1,.72.57.65.65,0,0,1-.56.73c-1,.12-2.1.24-3.14.34Zm6.74-.83a.65.65,0,0,1-.64-.55.66.66,0,0,1,.55-.75c1-.15,2.07-.32,3.08-.49a.65.65,0,0,1,.75.53.64.64,0,0,1-.53.76l-3.11.5ZM35,108.6h-.12c-1-.19-2.09-.4-3.1-.63a.65.65,0,1,1,.28-1.27c1,.22,2,.43,3,.61a.66.66,0,0,1-.11,1.3Zm44.2-1.06a.64.64,0,0,1-.64-.52.65.65,0,0,1,.51-.77c1-.21,2-.44,3-.67a.66.66,0,0,1,.29,1.28c-1,.23-2,.46-3.08.67Zm-50.83-.44a.57.57,0,0,1-.18,0c-1-.29-2.05-.6-3-.92a.65.65,0,0,1,.41-1.24c1,.32,2,.62,3,.9a.67.67,0,0,1,.46.81A.65.65,0,0,1,28.38,107.1ZM85.83,106a.66.66,0,0,1-.17-1.29c1-.26,2-.55,3-.84a.66.66,0,0,1,.37,1.26c-1,.29-2,.58-3,.85Zm-63.89-1.09a.52.52,0,0,1-.24,0c-1-.41-2-.84-2.91-1.3a.65.65,0,0,1,.58-1.17c.9.44,1.85.87,2.82,1.27a.64.64,0,0,1,.36.85A.65.65,0,0,1,21.94,104.91Zm70.41-.85a.66.66,0,0,1-.21-1.28c1-.33,2-.68,2.94-1a.66.66,0,0,1,.84.39.65.65,0,0,1-.39.84c-1,.36-2,.72-3,1A.52.52,0,0,1,92.35,104.06Zm-76.47-2.19a.64.64,0,0,1-.35-.1c-.92-.57-1.82-1.17-2.64-1.8a.65.65,0,0,1,.78-1c.8.6,1.65,1.18,2.55,1.73a.66.66,0,0,1-.34,1.21Zm82.83-.21a.64.64,0,0,1-.6-.4.66.66,0,0,1,.34-.86c1-.41,1.92-.84,2.84-1.27a.65.65,0,1,1,.56,1.18c-.93.44-1.9.88-2.89,1.29A.57.57,0,0,1,98.71,101.66Zm6.12-3a.65.65,0,0,1-.57-.33.65.65,0,0,1,.26-.89c.92-.51,1.82-1,2.67-1.57a.65.65,0,0,1,.9.21.66.66,0,0,1-.2.9c-.87.54-1.8,1.08-2.74,1.6A.61.61,0,0,1,104.83,98.7Zm-94.31-1a.66.66,0,0,1-.47-.19A20.38,20.38,0,0,1,8,95.05a.65.65,0,0,1,.15-.91.65.65,0,0,1,.91.15,18.57,18.57,0,0,0,2,2.31.65.65,0,0,1,0,.93A.64.64,0,0,1,10.52,97.71Zm100-2.66a.64.64,0,0,1-.52-.26.64.64,0,0,1,.13-.91c.8-.61,1.57-1.23,2.27-1.85l.11-.1a.66.66,0,0,1,.93,0,.65.65,0,0,1,0,.92l-.13.11c-.72.65-1.52,1.29-2.35,1.91A.63.63,0,0,1,110.56,95.05Zm-54-1.11-2.22,0a.66.66,0,0,1-.64-.67.66.66,0,0,1,.66-.64h0c1,0,2.08,0,3.12,0a.66.66,0,0,1,.66.65.66.66,0,0,1-.65.66Zm4.6-.09a.66.66,0,0,1,0-1.31c1,0,2.08-.09,3.12-.16A.65.65,0,0,1,65,93a.64.64,0,0,1-.61.69c-1.05.07-2.11.12-3.15.16Zm-10.46-.06h0c-1.05-.06-2.11-.13-3.15-.22a.65.65,0,1,1,.11-1.3c1,.08,2.07.15,3.11.21a.66.66,0,0,1,0,1.31ZM68,93.41a.66.66,0,0,1-.65-.6.65.65,0,0,1,.59-.71c1-.09,2.07-.2,3.11-.32a.64.64,0,0,1,.72.57.65.65,0,0,1-.57.73c-1.05.12-2.1.23-3.14.32Zm-24-.21h-.08c-1-.13-2.11-.27-3.13-.44a.65.65,0,1,1,.2-1.29c1,.16,2,.31,3.08.43a.66.66,0,0,1-.07,1.31Zm30.76-.59a.65.65,0,0,1-.09-1.3q1.55-.23,3.09-.48a.65.65,0,1,1,.21,1.29c-1,.17-2.08.33-3.11.48ZM6.63,92.18A.65.65,0,0,1,6,91.8a21.88,21.88,0,0,1-1.15-3,.66.66,0,1,1,1.26-.37,19.62,19.62,0,0,0,1.07,2.83.64.64,0,0,1-.31.87A.68.68,0,0,1,6.63,92.18Zm30.6-.07H37.1c-1.05-.21-2.09-.45-3.09-.7a.65.65,0,0,1,.31-1.27c1,.25,2,.48,3,.69a.65.65,0,0,1-.13,1.29Zm44.18-.64a.66.66,0,0,1-.13-1.3c1-.2,2.06-.42,3.06-.64a.65.65,0,1,1,.28,1.27c-1,.23-2,.45-3.08.65Zm34.16-1a.65.65,0,0,1-.5-1.08A25.32,25.32,0,0,0,117,87a.65.65,0,0,1,.91-.16.66.66,0,0,1,.17.91,31.28,31.28,0,0,1-2,2.52A.64.64,0,0,1,115.57,90.47Zm-84.93,0a.58.58,0,0,1-.19,0c-1-.31-2-.64-3-1a.65.65,0,1,1,.44-1.23c.95.34,1.94.67,2.95,1a.66.66,0,0,1,.43.82A.64.64,0,0,1,30.64,90.45ZM88,90a.65.65,0,0,1-.63-.49.64.64,0,0,1,.46-.8c1-.27,2-.55,3-.83a.65.65,0,1,1,.37,1.25c-1,.29-2,.58-3,.85ZM24.25,88.13a.74.74,0,0,1-.25,0c-1-.44-2-.89-2.89-1.33a.66.66,0,0,1,.59-1.17c.86.43,1.81.87,2.81,1.3a.65.65,0,0,1,.35.85A.66.66,0,0,1,24.25,88.13ZM94.55,88a.65.65,0,0,1-.21-1.27c1-.36,2-.72,2.91-1.09a.66.66,0,0,1,.49,1.22c-.93.37-1.93.74-3,1.1A.6.6,0,0,1,94.55,88ZM4.78,85.66a.66.66,0,0,1-.65-.57A26.6,26.6,0,0,1,4,82v-.09a.65.65,0,0,1,.65-.65h0a.65.65,0,0,1,.65.66V82a24.05,24.05,0,0,0,.18,3,.65.65,0,0,1-.57.73Zm96-.28a.65.65,0,0,1-.3-1.23c.91-.48,1.81-1,2.67-1.54a.66.66,0,0,1,.9.2.65.65,0,0,1-.2.9c-.89.57-1.82,1.1-2.77,1.6A.63.63,0,0,1,100.82,85.38ZM18.21,85a.64.64,0,0,1-.35-.1A20.86,20.86,0,0,1,15.26,83a.65.65,0,0,1-.07-.92.66.66,0,0,1,.92-.07,21.34,21.34,0,0,0,2.45,1.8.64.64,0,0,1,.2.9A.63.63,0,0,1,18.21,85Zm101.17-.16a.65.65,0,0,1-.59-1A24.09,24.09,0,0,0,120,81.11a.65.65,0,1,1,1.23.45,24.8,24.8,0,0,1-1.28,3A.65.65,0,0,1,119.38,84.87Zm-12.85-3.16a.66.66,0,0,1-.4-1.17,30.63,30.63,0,0,0,2.31-2,.65.65,0,0,1,.91.94,29.74,29.74,0,0,1-2.42,2.11A.67.67,0,0,1,106.53,81.71ZM13.28,80.44a.67.67,0,0,1-.56-.31,7.76,7.76,0,0,1-1.11-3.2.64.64,0,0,1,.57-.72.64.64,0,0,1,.72.57,6.49,6.49,0,0,0,.94,2.67.65.65,0,0,1-.22.9A.67.67,0,0,1,13.28,80.44ZM4.85,78.88H4.77a.65.65,0,0,1-.56-.74c.14-1,.34-2.1.59-3.15a.65.65,0,0,1,.79-.48.66.66,0,0,1,.48.79c-.24,1-.43,2-.57,3A.65.65,0,0,1,4.85,78.88Zm116.78-.41h-.14a.64.64,0,0,1-.5-.77,25.74,25.74,0,0,0,.45-3,.65.65,0,0,1,1.3.12,26.51,26.51,0,0,1-.47,3.18A.66.66,0,0,1,121.63,78.47Zm-10.31-1.56a.7.7,0,0,1-.39-.13.66.66,0,0,1-.13-.92,15.44,15.44,0,0,0,1.58-2.56.66.66,0,1,1,1.18.58,17.4,17.4,0,0,1-1.72,2.77A.65.65,0,0,1,111.32,76.91Zm-98.6-3a.76.76,0,0,1-.21,0,.66.66,0,0,1-.41-.83,18.42,18.42,0,0,1,1.35-3,.65.65,0,1,1,1.14.63,17.51,17.51,0,0,0-1.25,2.75A.65.65,0,0,1,12.72,73.91ZM6.49,72.3a.85.85,0,0,1-.22,0,.66.66,0,0,1-.39-.84,31.07,31.07,0,0,1,1.25-3A.66.66,0,0,1,8.31,69a28.6,28.6,0,0,0-1.2,2.83A.67.67,0,0,1,6.49,72.3Zm115.67-.58a.66.66,0,0,1-.65-.63,28.22,28.22,0,0,0-.32-3,.65.65,0,0,1,.53-.75.66.66,0,0,1,.76.54,30.79,30.79,0,0,1,.34,3.19.65.65,0,0,1-.63.68Zm-8.12-1H114a.66.66,0,0,1-.57-.73,6.49,6.49,0,0,0,0-.88,6.78,6.78,0,0,0-.28-2,.66.66,0,0,1,1.26-.37,8.2,8.2,0,0,1,.33,2.33,9.2,9.2,0,0,1-.06,1A.65.65,0,0,1,114,70.76ZM15.83,67.88a.58.58,0,0,1-.26-.06.65.65,0,0,1-.34-.86,6.4,6.4,0,0,0,.53-2.52V64.2a.66.66,0,0,1,.62-.69.65.65,0,0,1,.68.62c0,.11,0,.21,0,.31a7.79,7.79,0,0,1-.64,3A.66.66,0,0,1,15.83,67.88Zm-6.3-1.65a.69.69,0,0,1-.36-.11A.66.66,0,0,1,9,65.21a18.79,18.79,0,0,1,2-2.54.51.51,0,0,1,.21-.15.86.86,0,0,1,.15-.22,4.37,4.37,0,0,1,3.23-1.56.65.65,0,1,1-.1,1.3,3.34,3.34,0,0,0-2.22,1.2.53.53,0,0,1-.2.13.63.63,0,0,1-.13.2,17.67,17.67,0,0,0-1.88,2.37A.64.64,0,0,1,9.53,66.23ZM121,65a.65.65,0,0,1-.62-.46,24.64,24.64,0,0,0-1.11-2.84.65.65,0,1,1,1.18-.56,23.5,23.5,0,0,1,1.17,3,.65.65,0,0,1-.42.82A.69.69,0,0,1,121,65Zm-8.61-.76a.63.63,0,0,1-.6-.41,25.37,25.37,0,0,1-1-3,.65.65,0,1,1,1.26-.33,27.4,27.4,0,0,0,1,2.9.65.65,0,0,1-.37.85A.67.67,0,0,1,112.37,64.28ZM118,59a.67.67,0,0,1-.53-.26,11,11,0,0,0-2-2.14.65.65,0,0,1,.8-1,12.45,12.45,0,0,1,2.28,2.39.64.64,0,0,1-.13.91A.65.65,0,0,1,118,59Zm-7.1-1.27h0a.67.67,0,0,1-.63-.69c.12-2.41,1.44-2.88,2.22-2.95a.65.65,0,1,1,.11,1.3c-.23,0-.94.08-1,1.71A.67.67,0,0,1,110.88,57.7Z"/><path class="cls-4" d="M9.45,67.29c1.37-2.72,4.9-2.2,3.38,1.68S3.71,83.83,27.68,91.09s54,4.39,69.21-1.86,21.78-15.89,18.75-23.73,3.33-7.13,4.89,0c2.12,9.71,2,27.33-38.32,37.26C47.51,111.31-10.93,107.67,9.45,67.29Z"/><path class="cls-5" d="M21.7,89.35c-11.21-5.13-12.55,4.89,2.91,10.73s28.74-1.47,18.48-3.63A102.12,102.12,0,0,1,21.7,89.35Z"/><path class="cls-5" d="M59.58,7.66c-5.17-1-9.73,5.55-2.38,7.51S64.74,8.66,59.58,7.66Z"/><path class="cls-5" d="M50.23,34.87c-5.16-1-9.73,5.54-2.37,7.51S55.4,35.86,50.23,34.87Z"/><path class="cls-5" d="M77.33,29.74c-5.17-1-9.73,5.54-2.38,7.51S82.49,30.73,77.33,29.74Z"/></g></g></svg>