<svg xmlns="http://www.w3.org/2000/svg" viewBox="0 0 77.41 131.12"><defs><style>.cls-1{opacity:0.15;}.cls-2{fill:#49d800;}.cls-3{fill:#36a300;}.cls-4{fill:#89ea49;}.cls-5{fill:#acea83;}</style></defs><title>char6Asset 24</title><g id="Layer_2" data-name="Layer 2"><g id="Layer_1-2" data-name="Layer 1"><path class="cls-1" d="M47.15,8.87C41,14.59,50.33,53.42,52.92,69.46s6.64,26.9-1.74,33.45-27.92,7.49-31.31-2.08c-4.61-13,6.44-18.17.58-22.57C15.42,74.47,1,87.19.92,103.37.85,121.33,12,132.13,34.6,131,62,129.73,78.42,111.33,76.32,93.32s-6-62.43-5.23-68.95C72.66,11.27,54.17,2.32,47.15,8.87Z"/><path class="cls-2" d="M47.15,3.11C41,8.84,50.33,47.66,52.92,63.7s6.64,26.9-1.74,33.45-27.92,7.5-31.31-2.08c-4.61-13,6.44-18.16.58-22.57C15.42,68.71,1,81.43.92,97.62c-.07,18,11.1,28.75,33.68,27.67C62,124,78.42,105.57,76.32,87.56s-6-62.43-5.23-68.95C72.66,5.51,54.17-3.44,47.15,3.11Z"/><path class="cls-3" d="M31.55,126.28h0c-10.63,0-18.77-2.77-24.2-8.22C2.44,113.14,0,106.26,0,97.61A31.6,31.6,0,0,1,6.59,78.83c3.67-4.81,8.26-7.92,11.68-7.92a4.4,4.4,0,0,1,2.73.86c3.3,2.48,2.07,5.38.76,8.45-1.5,3.53-3.37,7.93-1,14.54,1.44,4.07,6.52,6.49,13.59,6.49,6.15,0,12.54-1.89,16.29-4.82,6.5-5.08,5-12.89,2.82-24.71-.47-2.5-1-5.09-1.41-7.87-.53-3.28-1.33-7.43-2.25-12.24C45.13,27.39,41.68,7,46.53,2.45A9.91,9.91,0,0,1,53.46,0,20.53,20.53,0,0,1,68,6.91a15,15,0,0,1,4,11.81c-.77,6.37,3,50,5.22,68.74,1,8.11-1.71,16.34-7.5,23.17C61.8,120,49.34,125.5,34.64,126.2,33.6,126.25,32.56,126.28,31.55,126.28ZM18.27,72.75C12.74,72.75,1.88,84,1.83,97.62c0,8.14,2.26,14.58,6.81,19.15,5.08,5.09,12.79,7.68,22.91,7.68h0c1,0,2,0,3-.08,14.18-.68,26.18-6,33.76-14.93,5.46-6.44,8-14.17,7.09-21.77-2.2-18.8-6-62.68-5.23-69.17A13.16,13.16,0,0,0,66.64,8.13C63.3,4.36,58,1.83,53.46,1.83a8.17,8.17,0,0,0-5.68,1.95C43.28,8,48.27,34,51.57,51.27c.92,4.82,1.72,9,2.26,12.28.44,2.76.93,5.34,1.39,7.83,2.26,12,3.9,20.73-3.48,26.49-4.12,3.21-10.79,5.21-17.42,5.21-7.88,0-13.61-2.88-15.31-7.71-2.58-7.28-.47-12.24,1.07-15.86,1.41-3.31,1.9-4.72-.18-6.28A2.67,2.67,0,0,0,18.27,72.75Z"/><path class="cls-3" d="M32.39,122.76a.66.66,0,1,1,0-1.31c.85,0,1.73,0,2.61-.07l.49,0a.65.65,0,0,1,.69.61.66.66,0,0,1-.62.69l-.5,0c-.9,0-1.8.06-2.67.07Zm-3.66-.1h0c-1.09-.07-2.15-.17-3.16-.31a.65.65,0,1,1,.17-1.29c1,.13,2,.22,3.07.29a.64.64,0,0,1,.61.69A.66.66,0,0,1,28.73,122.66Zm10.44-.32a.65.65,0,0,1-.65-.57.66.66,0,0,1,.57-.73c1-.12,2.06-.28,3.06-.46a.64.64,0,0,1,.76.53.65.65,0,0,1-.52.76c-1,.18-2.09.34-3.14.47ZM22,121.71l-.15,0a30.56,30.56,0,0,1-3.07-.88.64.64,0,0,1-.41-.83.65.65,0,0,1,.83-.4c.93.32,1.93.6,2.95.84a.65.65,0,0,1,.49.78A.66.66,0,0,1,22,121.71Zm23.83-.62a.65.65,0,0,1-.16-1.28c1-.26,2-.56,3-.88a.65.65,0,0,1,.82.42.64.64,0,0,1-.41.82c-1,.33-2,.63-3.05.9A.5.5,0,0,1,45.84,121.09Zm-30.21-1.66a.66.66,0,0,1-.3-.07,24.31,24.31,0,0,1-2.76-1.66.65.65,0,0,1,.75-1.07,21.69,21.69,0,0,0,2.61,1.56.66.66,0,0,1,.28.88A.64.64,0,0,1,15.63,119.43Zm36.65-.51a.66.66,0,0,1-.26-1.26c.95-.4,1.9-.84,2.8-1.3a.65.65,0,0,1,.6,1.16c-.94.48-1.91.93-2.89,1.35A.74.74,0,0,1,52.28,118.92Zm6-3.14a.66.66,0,0,1-.35-1.21c.87-.55,1.73-1.14,2.54-1.76a.65.65,0,0,1,.78,1c-.83.63-1.72,1.24-2.62,1.81A.66.66,0,0,1,58.29,115.78Zm-48.13-.33a.67.67,0,0,1-.47-.2,20.48,20.48,0,0,1-2.06-2.49.66.66,0,0,1,.16-.91.65.65,0,0,1,.91.16,18.8,18.8,0,0,0,1.93,2.33.65.65,0,0,1,0,.92A.63.63,0,0,1,10.16,115.45Zm53.51-3.81a.66.66,0,0,1-.48-.21.65.65,0,0,1,0-.92c.75-.71,1.48-1.45,2.15-2.2a.66.66,0,0,1,.93,0,.65.65,0,0,1,0,.92c-.7.79-1.46,1.55-2.24,2.28A.66.66,0,0,1,63.67,111.64ZM6.36,109.87a.67.67,0,0,1-.6-.39,23.39,23.39,0,0,1-1.13-3,.66.66,0,0,1,.43-.82.67.67,0,0,1,.82.44A23,23,0,0,0,7,108.94a.65.65,0,0,1-.59.93Zm61.79-3.33a.63.63,0,0,1-.37-.12.65.65,0,0,1-.16-.91,29.72,29.72,0,0,0,1.65-2.59.66.66,0,0,1,.89-.25.68.68,0,0,1,.25.9c-.52.91-1.1,1.82-1.72,2.7A.65.65,0,0,1,68.15,106.54Zm-34.71-.11H32.5a.66.66,0,0,1,0-1.31c.3,0,.61,0,.9,0,.71,0,1.44,0,2.17-.07a.65.65,0,0,1,.1,1.3C34.94,106.4,34.18,106.43,33.44,106.43Zm-4.55-.37h-.12a22.37,22.37,0,0,1-3.13-.79.65.65,0,1,1,.41-1.24,19.88,19.88,0,0,0,2.95.74.65.65,0,0,1,.53.75A.66.66,0,0,1,28.89,106.06Zm10.4-.17a.65.65,0,0,1-.11-1.29c1-.18,2-.41,3-.68a.67.67,0,0,1,.81.46.66.66,0,0,1-.46.8c-1,.28-2.08.52-3.12.7Zm6.54-1.82a.65.65,0,0,1-.23-1.26c1-.38,1.92-.8,2.8-1.25a.66.66,0,0,1,.88.29.65.65,0,0,1-.28.88c-.93.47-1.91.9-2.93,1.3A.67.67,0,0,1,45.83,104.07Zm-23.3-.31a.59.59,0,0,1-.34-.1,14,14,0,0,1-2.58-2,.65.65,0,1,1,.92-.92,12.84,12.84,0,0,0,2.34,1.84.65.65,0,0,1,.22.9A.67.67,0,0,1,22.53,103.76Zm-18.09-.39a.65.65,0,0,1-.64-.55c-.16-1-.28-2.09-.35-3.18a.65.65,0,0,1,1.3-.08c.07,1,.18,2.08.34,3a.66.66,0,0,1-.54.75Zm47.4-2.46a.65.65,0,0,1-.38-1.18,17.15,17.15,0,0,0,2-1.67c.1-.1.2-.19.29-.29a.66.66,0,0,1,.93,0,.65.65,0,0,1,0,.92c-.1.11-.21.21-.31.31a17.91,17.91,0,0,1-2.16,1.8A.68.68,0,0,1,51.84,100.91Zm19.59-.3a.69.69,0,0,1-.24,0,.65.65,0,0,1-.36-.85,26.17,26.17,0,0,0,1-2.9.65.65,0,0,1,.81-.45.66.66,0,0,1,.45.81,27.84,27.84,0,0,1-1,3A.66.66,0,0,1,71.43,100.61ZM17.91,98.89a.64.64,0,0,1-.58-.35l-.12-.22a20.74,20.74,0,0,1-1.15-2.76.65.65,0,1,1,1.24-.41,17.58,17.58,0,0,0,1.08,2.57l.1.21a.65.65,0,0,1-.27.88A.54.54,0,0,1,17.91,98.89ZM4.06,96.6H4a.66.66,0,0,1-.62-.69,28.25,28.25,0,0,1,.32-3.19.65.65,0,0,1,.75-.54.66.66,0,0,1,.55.75,25.67,25.67,0,0,0-.32,3A.65.65,0,0,1,4.06,96.6Zm52.48-.54a.69.69,0,0,1-.36-.11A.66.66,0,0,1,56,95a15.78,15.78,0,0,0,1.43-2.64.66.66,0,1,1,1.21.51,17.29,17.29,0,0,1-1.55,2.86A.67.67,0,0,1,56.54,96.06Zm16.67-2h-.09a.65.65,0,0,1-.56-.74,23.92,23.92,0,0,0,.23-3,.66.66,0,0,1,.66-.65h0a.66.66,0,0,1,.64.67,26.5,26.5,0,0,1-.24,3.2A.66.66,0,0,1,73.21,94.06ZM15.94,92.43a.65.65,0,0,1-.65-.6,13.56,13.56,0,0,1-.07-1.43,16.16,16.16,0,0,1,.1-1.83A.64.64,0,0,1,16,88a.65.65,0,0,1,.58.72,15.76,15.76,0,0,0-.09,1.68q0,.66.06,1.32a.66.66,0,0,1-.6.71ZM5.21,89.92a.63.63,0,0,1-.19,0,.65.65,0,0,1-.43-.82,26.49,26.49,0,0,1,1.12-3,.66.66,0,0,1,1.2.53,26.64,26.64,0,0,0-1.08,2.86A.64.64,0,0,1,5.21,89.92Zm53.84-.12h-.11A.66.66,0,0,1,58.4,89a18,18,0,0,0,.26-3,.66.66,0,0,1,.66-.65h0A.64.64,0,0,1,60,86a19.3,19.3,0,0,1-.28,3.22A.65.65,0,0,1,59.05,89.8Zm14.19-2.51a.67.67,0,0,1-.65-.58c-.11-1-.23-2-.35-3.13a.65.65,0,0,1,.58-.72.65.65,0,0,1,.72.58c.12,1.11.24,2.15.35,3.12a.64.64,0,0,1-.57.72ZM16.73,85.72l-.19,0a.65.65,0,0,1-.43-.82c.34-1.13.74-2.15,1.09-3a.65.65,0,0,1,.85-.36.64.64,0,0,1,.36.85c-.34.83-.72,1.82-1.05,2.89A.66.66,0,0,1,16.73,85.72Zm-8.7-2a.64.64,0,0,1-.35-.1.65.65,0,0,1-.21-.9,26.79,26.79,0,0,1,1.89-2.61.65.65,0,0,1,1,.83,22.73,22.73,0,0,0-1.79,2.48A.65.65,0,0,1,8,83.75ZM59.12,83a.64.64,0,0,1-.65-.58c-.11-.93-.25-1.93-.45-3.06a.66.66,0,1,1,1.29-.23c.2,1.16.35,2.19.45,3.15a.64.64,0,0,1-.57.72Zm13.38-2.5a.66.66,0,0,1-.65-.59c-.1-1-.21-2.05-.32-3.13a.65.65,0,0,1,.59-.71.66.66,0,0,1,.72.58c.1,1.08.21,2.12.31,3.13a.65.65,0,0,1-.58.72ZM19.11,79.36a.51.51,0,0,1-.17,0,.64.64,0,0,1-.46-.8,4.1,4.1,0,0,0,.18-1.08,1.25,1.25,0,0,0-.33-.93l-.16-.13a.67.67,0,0,1-.19-.91.66.66,0,0,1,.91-.18,1.8,1.8,0,0,1,.4.33A2.57,2.57,0,0,1,20,77.45a5.36,5.36,0,0,1-.22,1.43A.65.65,0,0,1,19.11,79.36Zm-6.67-.75a.62.62,0,0,1-.5-.24.64.64,0,0,1,.08-.92,14,14,0,0,1,2.73-1.83.66.66,0,1,1,.58,1.18,12.5,12.5,0,0,0-2.47,1.65A.65.65,0,0,1,12.44,78.61ZM58,76.32a.66.66,0,0,1-.64-.52c-.16-.77-.32-1.55-.49-2.35l-.15-.71A.65.65,0,1,1,58,72.47l.15.71c.17.8.33,1.59.49,2.36a.64.64,0,0,1-.5.77Zm13.85-2.58a.66.66,0,0,1-.65-.59c-.09-1-.19-2.07-.29-3.13a.64.64,0,0,1,.58-.71.65.65,0,0,1,.72.59c.1,1.06.2,2.1.3,3.13a.65.65,0,0,1-.59.71ZM56.59,69.67a.65.65,0,0,1-.64-.53c-.22-1.1-.41-2.12-.58-3.1a.65.65,0,0,1,.53-.75.66.66,0,0,1,.76.53c.16,1,.35,2,.57,3.07a.66.66,0,0,1-.51.77ZM71.18,67a.67.67,0,0,1-.65-.6c-.09-1-.19-2.08-.28-3.13a.65.65,0,1,1,1.3-.12c.1,1.05.19,2.1.29,3.13a.66.66,0,0,1-.59.71ZM55.4,63a.64.64,0,0,1-.64-.54c-.17-1-.36-2-.57-3.08a.66.66,0,0,1,1.29-.24c.2,1.09.39,2.13.56,3.1a.64.64,0,0,1-.53.75Zm15.18-2.78a.65.65,0,0,1-.65-.6l-.27-3.13a.65.65,0,1,1,1.3-.11l.27,3.13a.65.65,0,0,1-.59.7ZM54.14,56.28a.65.65,0,0,1-.64-.53l-.6-3.08a.66.66,0,0,1,.52-.76.65.65,0,0,1,.77.51l.6,3.09a.66.66,0,0,1-.52.76ZM70,53.4a.66.66,0,0,1-.66-.6c-.08-1-.17-2.1-.25-3.13a.66.66,0,0,1,1.31-.11c.08,1,.16,2.08.25,3.13a.66.66,0,0,1-.6.71ZM52.85,49.6a.64.64,0,0,1-.64-.53c-.2-1-.4-2-.6-3.08a.66.66,0,0,1,1.29-.25c.19,1,.39,2.07.59,3.09a.65.65,0,0,1-.52.76Zm16.62-3a.65.65,0,0,1-.65-.6c-.08-1.06-.16-2.11-.24-3.14a.66.66,0,0,1,1.31-.09c.07,1,.15,2.07.23,3.13a.64.64,0,0,1-.6.7ZM51.58,42.92a.66.66,0,0,1-.65-.54c-.19-1-.37-2.06-.56-3.09a.66.66,0,0,1,1.29-.23c.18,1,.37,2.06.56,3.09a.65.65,0,0,1-.52.76ZM69,39.82a.65.65,0,0,1-.65-.61c-.08-1.07-.15-2.12-.21-3.14A.66.66,0,0,1,69.43,36c.06,1,.13,2.06.2,3.14a.64.64,0,0,1-.61.69Zm-18.6-3.6a.65.65,0,0,1-.64-.55c-.18-1-.35-2.07-.51-3.1a.65.65,0,0,1,1.29-.21c.16,1,.33,2.06.51,3.1a.65.65,0,0,1-.54.75ZM68.55,33a.66.66,0,0,1-.65-.62c-.06-1.11-.11-2.16-.16-3.15a.66.66,0,0,1,.63-.68.65.65,0,0,1,.68.63c0,1,.1,2,.16,3.13a.66.66,0,0,1-.62.69ZM49.32,29.5a.66.66,0,0,1-.65-.56c-.15-1.06-.29-2.1-.43-3.13a.65.65,0,1,1,1.3-.16c.13,1,.27,2.05.43,3.1a.65.65,0,0,1-.56.74Zm18.95-3.28a.65.65,0,0,1-.65-.64c0-.6,0-1.15,0-1.64s0-1.11,0-1.54a.65.65,0,0,1,1.3.06c0,.41,0,.91,0,1.48s0,1,0,1.62a.65.65,0,0,1-.64.66Zm-19.8-3.47a.65.65,0,0,1-.65-.59c-.12-1.1-.21-2.16-.28-3.15a.65.65,0,0,1,.6-.7.67.67,0,0,1,.7.61c.07,1,.17,2,.28,3.1a.67.67,0,0,1-.58.72Zm19.94-3.32a.65.65,0,0,1-.65-.61,14.69,14.69,0,0,0-.51-3,.65.65,0,0,1,.45-.81.66.66,0,0,1,.81.45,16.07,16.07,0,0,1,.55,3.22.66.66,0,0,1-.6.7ZM48,16a.66.66,0,0,1-.66-.64c0-.37,0-.73,0-1.08,0-.75,0-1.46.06-2.11a.66.66,0,0,1,.69-.62.65.65,0,0,1,.61.69c0,.63-.05,1.31-.05,2,0,.34,0,.69,0,1A.66.66,0,0,1,48,16Zm18.47-3a.67.67,0,0,1-.58-.33,15.33,15.33,0,0,0-1.71-2.47.65.65,0,0,1,.07-.92.66.66,0,0,1,.92.07A16.69,16.69,0,0,1,67,12a.65.65,0,0,1-.25.89A.6.6,0,0,1,66.48,13ZM48.55,9.2l-.16,0a.66.66,0,0,1-.47-.8,5.34,5.34,0,0,1,1.72-3.05.65.65,0,1,1,.79,1,4.22,4.22,0,0,0-1.25,2.34A.65.65,0,0,1,48.55,9.2ZM62,7.89a.63.63,0,0,1-.39-.13A14.57,14.57,0,0,0,59.07,6.2.65.65,0,0,1,59.63,5a15.77,15.77,0,0,1,2.79,1.7A.65.65,0,0,1,62,7.89ZM52.75,5.27A.66.66,0,0,1,52.61,4a8.85,8.85,0,0,1,1.87-.19c.46,0,1,0,1.48.11a.65.65,0,1,1-.19,1.29,9.29,9.29,0,0,0-1.28-.09h0a7.46,7.46,0,0,0-1.59.16Z"/><path class="cls-4" d="M52.24,8.61c-5.76,4.39,3.12,41,5.38,55s8.62,26.31-1.75,36.78C48.56,107.76,24.38,114.56,16,98.9c-5.69-10.62,1.32-17.82-1.24-19.28-2.36-1.35-8.52,6.29-8.6,17.47-.08,12.46,9.6,22.14,29,21.24,23.57-1.1,36.61-18.14,34.77-33.86S65.66,29,66.32,23.35C67.64,11.92,58.24,4,52.24,8.61Z"/><path class="cls-5" d="M18.2,104c-7.91-3.68-9.36,3.81,1.87,10s20.43,3,20.65-1.64S35,111.84,18.2,104Z"/><path class="cls-5" d="M53.72,11.23C49,14.21,53.5,40.57,59,41.42s5.32-19.61,4.25-23.73S57,9.14,53.72,11.23Z"/></g></g></svg>