<svg xmlns="http://www.w3.org/2000/svg" viewBox="0 0 97.55 140.82"><defs><style>.cls-1{opacity:0.15;}.cls-2{fill:#ff2114;}.cls-3{fill:#96130b;}.cls-4{fill:#fc3a35;}</style></defs><title>char6Asset 19</title><g id="Layer_2" data-name="Layer 2"><g id="Layer_1-2" data-name="Layer 1"><path class="cls-1" d="M50,20.74c1.81-13.1-15.4-16.88-24.7-12.06-9.95,5.16-22.8,24-20.61,34.66s11,8.35,11.58,13.64S4.33,70.62,1.38,92s8.48,43.91,32.44,47.76,51.69-3.52,57.37-11.26,8.7-18.43,0-15.48-47.89,9.21-58.71-3.32S26.82,73.94,42.67,62.51s20.83-8.3,26-18.62S68.84,26.75,61.47,29,44.58,39.1,33.45,39.9s-9-6.52-2.45-11.31S48.94,28.74,50,20.74Z"/><path class="cls-2" d="M50,15c1.81-13.1-15.4-16.87-24.7-12-9.95,5.16-22.8,24-20.61,34.65s11,8.36,11.58,13.64-12,13.64-14.93,35S9.86,130.15,33.82,134s51.69-3.53,57.37-11.27,8.7-18.43,0-15.48-47.89,9.22-58.71-3.32S26.82,68.18,42.67,56.75s20.83-8.29,26-18.61S68.84,21,61.47,23.2s-16.89,10.15-28,10.94-9-6.51-2.45-11.3S48.94,23,50,15Z"/><path class="cls-3" d="M47.62,136a87.87,87.87,0,0,1-13.94-1.07A38,38,0,0,1,6.73,117.18,46.64,46.64,0,0,1,.47,86.12C2.35,72.5,8.08,64,11.88,58.39c2.06-3,3.69-5.46,3.52-7.07S14.09,49,11.92,47.88C9.07,46.41,5.18,44.4,3.83,37.76,1.63,27,14.32,7.61,24.92,2.11A20.85,20.85,0,0,1,34.32,0c5.77,0,11,2,14,5.44A11.82,11.82,0,0,1,51,15.11c-.74,5.34-5.5,5.71-10.11,6.06-3.32.26-6.75.53-9.3,2.4-3.46,2.56-5.53,5.79-4.9,7.68.5,1.53,2.94,2.25,6.75,2,6.88-.49,13.19-3.82,18.75-6.75a54.4,54.4,0,0,1,9.07-4.15,10.39,10.39,0,0,1,2.95-.46,7.06,7.06,0,0,1,6.24,3.37c2,3.26,1.68,8.11-.92,13.31C66.3,44.9,63.14,46.41,57.9,48.91A84.83,84.83,0,0,0,43.2,57.5a38,38,0,0,0-15.3,26c-.92,7.8,1,14.84,5.27,19.84,4.07,4.71,13.11,7.2,26.17,7.2,13.65,0,27.28-2.7,31.55-4.15a9.34,9.34,0,0,1,2.87-.55,3.43,3.43,0,0,1,3.31,1.85c1.68,3.33-1.31,10.37-5.15,15.59C86.79,130.28,66.92,136,47.62,136ZM34.32,1.83a19,19,0,0,0-8.56,1.91C15.9,8.85,3.59,27.46,5.62,37.4c1.18,5.77,4.34,7.41,7.14,8.85,2.15,1.12,4.18,2.17,4.46,4.88.24,2.27-1.47,4.8-3.82,8.29-3.7,5.48-9.29,13.76-11.12,27C-.44,106.12,9.74,129.21,34,133.1a86.59,86.59,0,0,0,13.65,1c20.38,0,38.6-6.17,42.83-11.94,3.89-5.3,6.12-11.44,5-13.68-.18-.37-.55-.85-1.67-.85a7.46,7.46,0,0,0-2.28.46c-5.25,1.78-19.34,4.24-32.14,4.24-13.8,0-23.07-2.63-27.56-7.83-4.65-5.39-6.68-12.94-5.7-21.25A39.92,39.92,0,0,1,42.13,56a87.15,87.15,0,0,1,15-8.75c5-2.42,7.84-3.75,10.73-9.53,2.31-4.62,2.67-8.82,1-11.53a5.29,5.29,0,0,0-4.68-2.5,8.57,8.57,0,0,0-2.43.38,53.1,53.1,0,0,0-8.73,4c-5.73,3-12.22,6.44-19.48,6.95-.58.05-1.13.07-1.66.07-4.86,0-6.47-1.79-7-3.3-.89-2.71,1.34-6.61,5.56-9.72,3-2.19,6.83-2.49,10.24-2.75,5-.39,7.92-.79,8.44-4.49a9.9,9.9,0,0,0-2.25-8.21C44.27,3.63,39.57,1.83,34.32,1.83Z"/><path class="cls-3" d="M51.15,132.11h-.5a.65.65,0,0,1-.65-.66.66.66,0,0,1,.66-.64h.49c.87,0,1.76,0,2.63,0h0a.65.65,0,0,1,.66.63.67.67,0,0,1-.64.68ZM47,132h0c-1.06-.05-2.13-.12-3.17-.21a.64.64,0,0,1-.59-.7.66.66,0,0,1,.7-.6c1,.09,2.07.15,3.12.2A.66.66,0,0,1,47,132Zm10.48-.12a.65.65,0,0,1-.65-.61.66.66,0,0,1,.61-.7c1-.06,2.07-.15,3.11-.26a.67.67,0,0,1,.72.59.65.65,0,0,1-.59.71c-1.05.11-2.11.2-3.16.27Zm-17.27-.47h-.09c-1.06-.14-2.12-.3-3.13-.48a.65.65,0,0,1,.22-1.28c1,.17,2,.33,3.08.46a.66.66,0,0,1-.08,1.31Zm24-.23a.66.66,0,0,1-.65-.56.65.65,0,0,1,.56-.74c1-.15,2.08-.32,3.08-.5a.66.66,0,0,1,.23,1.29c-1,.18-2.07.35-3.13.5Zm-30.75-1h-.15c-1.05-.25-2.09-.52-3.08-.81a.65.65,0,0,1-.45-.81.64.64,0,0,1,.81-.44c1,.28,2,.54,3,.78a.65.65,0,0,1-.14,1.29ZM71,130a.66.66,0,0,1-.63-.51.65.65,0,0,1,.49-.78c1-.24,2.06-.49,3-.76a.65.65,0,0,1,.81.45.67.67,0,0,1-.46.81c-1,.27-2,.53-3.08.77Zm-44-1.69a.59.59,0,0,1-.23,0c-1-.38-2-.78-2.95-1.21a.65.65,0,0,1,.53-1.19c.92.41,1.89.81,2.87,1.17a.66.66,0,0,1,.39.84A.65.65,0,0,1,27,128.28Zm50.54-.18a.65.65,0,0,1-.22-1.27c1-.36,2-.74,2.88-1.13a.65.65,0,0,1,.53,1.19c-.92.41-1.92.8-3,1.18Zm-56.73-2.67a.62.62,0,0,1-.32-.09c-.95-.54-1.86-1.12-2.71-1.71a.67.67,0,0,1-.16-.91.65.65,0,0,1,.91-.16c.82.57,1.7,1.13,2.61,1.65a.65.65,0,0,1-.33,1.22Zm62.9-.19a.66.66,0,0,1-.35-1.21c.47-.3.9-.61,1.28-.91s.77-.64,1.12-1a.66.66,0,1,1,.87,1q-.55.5-1.17,1a16.3,16.3,0,0,1-1.4,1A.66.66,0,0,1,83.68,125.24Zm-68.42-3.78a.63.63,0,0,1-.44-.17A30.47,30.47,0,0,1,12.56,119a.67.67,0,0,1,.07-.93.66.66,0,0,1,.92.07,26,26,0,0,0,2.15,2.18.65.65,0,0,1,0,.93A.64.64,0,0,1,15.26,121.46Zm73.47-.76a.66.66,0,0,1-.5-1.07,12.29,12.29,0,0,0,1.63-2.49.65.65,0,1,1,1.18.56,13.63,13.63,0,0,1-1.8,2.76A.65.65,0,0,1,88.73,120.7Zm-31-3.34c-.82,0-1.64,0-2.44,0a.66.66,0,0,1,0-1.31h0c.78,0,1.59,0,2.4,0h.72a.66.66,0,0,1,0,1.31Zm4.39-.12a.64.64,0,0,1-.65-.62.64.64,0,0,1,.61-.68c1-.06,2.07-.13,3.12-.22a.65.65,0,0,1,.71.59.66.66,0,0,1-.6.71c-1.06.09-2.12.17-3.16.22Zm-10.48-.12h-.05c-1.08-.09-2.14-.21-3.17-.35a.65.65,0,0,1,.18-1.29c1,.14,2,.25,3.1.34a.64.64,0,0,1,.59.7A.65.65,0,0,1,51.63,117.12Zm17.27-.49a.65.65,0,0,1-.08-1.3c1-.13,2.06-.27,3.09-.44a.66.66,0,0,1,.2,1.3c-1,.16-2.09.31-3.13.44Zm-58.08-.31a.65.65,0,0,1-.54-.29c-.6-.87-1.18-1.78-1.7-2.7a.65.65,0,1,1,1.13-.65q.77,1.33,1.65,2.61a.66.66,0,0,1-.17.91A.63.63,0,0,1,10.82,116.32Zm34.07-.16-.14,0c-1.07-.22-2.11-.48-3.1-.76a.66.66,0,0,1,.36-1.26c1,.28,2,.53,3,.74a.67.67,0,0,1,.51.78A.66.66,0,0,1,44.89,116.16Zm30.74-.61A.64.64,0,0,1,75,115a.65.65,0,0,1,.51-.77q1.59-.32,3.06-.66a.65.65,0,0,1,.78.49.64.64,0,0,1-.48.78c-1,.24-2,.46-3.1.67Zm15.33-1a.64.64,0,0,1-.62-.47,2.37,2.37,0,0,0-1.72-1.62.65.65,0,0,1,.34-1.26,3.66,3.66,0,0,1,2.63,2.52.66.66,0,0,1-.45.81Zm-52.6-.3a.67.67,0,0,1-.24,0c-1-.41-2-.86-2.93-1.33a.66.66,0,0,1-.27-.89.64.64,0,0,1,.88-.27c.88.45,1.82.88,2.8,1.27a.67.67,0,0,1,.37.85A.66.66,0,0,1,38.36,114.22ZM82.25,114a.64.64,0,0,1-.62-.47.65.65,0,0,1,.43-.81,20.32,20.32,0,0,0,2.68-1l.21-.09a.65.65,0,0,1,.86.34.66.66,0,0,1-.34.86l-.17.07a21.55,21.55,0,0,1-2.86,1A.58.58,0,0,1,82.25,114ZM32.37,111a.64.64,0,0,1-.38-.12l-.4-.29c-.73-.55-1.44-1.13-2.11-1.74a.66.66,0,0,1,.89-1,22.86,22.86,0,0,0,2,1.66l.38.27a.67.67,0,0,1,.15.92A.68.68,0,0,1,32.37,111Zm-24.88-.63a.65.65,0,0,1-.6-.39c-.43-1-.82-2-1.17-3a.66.66,0,0,1,.41-.83.66.66,0,0,1,.83.41c.33,1,.71,1.94,1.12,2.87a.66.66,0,0,1-.33.87A.58.58,0,0,1,7.49,110.38Zm19.93-4a.63.63,0,0,1-.5-.25,24.55,24.55,0,0,1-1.86-2.64.64.64,0,0,1,.22-.89.65.65,0,0,1,.9.21,24.45,24.45,0,0,0,1.75,2.51.66.66,0,0,1-.51,1.06ZM5.33,103.93a.65.65,0,0,1-.64-.5c-.24-1-.44-2.09-.6-3.15a.66.66,0,0,1,.55-.74.65.65,0,0,1,.74.55c.16,1,.35,2,.58,3a.64.64,0,0,1-.48.78Zm18.61-3.41a.64.64,0,0,1-.6-.4,27.82,27.82,0,0,1-1.1-3,.66.66,0,0,1,.44-.82.65.65,0,0,1,.81.44,27.55,27.55,0,0,0,1.05,2.89.66.66,0,0,1-.34.86A.85.85,0,0,1,23.94,100.52ZM4.36,97.19a.64.64,0,0,1-.65-.61c-.06-.86-.08-1.74-.08-2.62v-.57a.67.67,0,0,1,.66-.65.66.66,0,0,1,.65.67V94c0,.85,0,1.71.07,2.54a.65.65,0,0,1-.61.69ZM22,94a.65.65,0,0,1-.64-.55c-.18-1-.3-2.11-.38-3.18a.67.67,0,0,1,.61-.7.65.65,0,0,1,.7.61,30.79,30.79,0,0,0,.36,3.06.65.65,0,0,1-.54.75ZM4.48,90.39H4.42a.67.67,0,0,1-.6-.71c.1-1,.23-2.11.39-3.16a.65.65,0,0,1,1.29.19c-.16,1-.28,2.07-.37,3.08A.66.66,0,0,1,4.48,90.39ZM21.63,87.2h0a.66.66,0,0,1-.63-.68c0-1,.13-2.12.26-3.18a.65.65,0,0,1,1.3.15c-.13,1-.21,2.07-.25,3.08A.65.65,0,0,1,21.63,87.2ZM5.52,83.66l-.14,0a.65.65,0,0,1-.5-.77c.23-1,.48-2.06.77-3.09a.65.65,0,0,1,.8-.46.67.67,0,0,1,.46.81c-.28,1-.53,2-.75,3A.66.66,0,0,1,5.52,83.66Zm17-3.21h-.14a.65.65,0,0,1-.5-.78c.22-1,.49-2.07.8-3.09a.65.65,0,0,1,.81-.44.64.64,0,0,1,.44.81c-.29,1-.56,2-.77,3A.66.66,0,0,1,22.5,80.45ZM7.35,77.1a.78.78,0,0,1-.21,0,.66.66,0,0,1-.41-.83c.34-1,.71-2,1.09-3A.66.66,0,0,1,9,73.73c-.38,1-.74,1.94-1.07,2.92A.65.65,0,0,1,7.35,77.1ZM24.49,74a.69.69,0,0,1-.24,0,.66.66,0,0,1-.37-.85c.39-1,.83-2,1.29-2.92a.66.66,0,0,1,1.18.57c-.45.93-.87,1.88-1.25,2.83A.66.66,0,0,1,24.49,74ZM9.86,70.76a.66.66,0,0,1-.27-.06.65.65,0,0,1-.32-.86c.44-1,.91-1.93,1.39-2.86a.65.65,0,1,1,1.16.6c-.47.91-.93,1.85-1.36,2.8A.66.66,0,0,1,9.86,70.76ZM27.5,67.84a.63.63,0,0,1-.33-.09.66.66,0,0,1-.23-.9c.54-.91,1.12-1.82,1.73-2.68a.65.65,0,0,1,1.07.75c-.59.84-1.15,1.71-1.68,2.6A.66.66,0,0,1,27.5,67.84ZM13,64.72a.66.66,0,0,1-.33-.09.66.66,0,0,1-.23-.9l.27-.44q.72-1.17,1.35-2.25a.66.66,0,0,1,.9-.23.65.65,0,0,1,.23.89c-.43.73-.88,1.48-1.37,2.27l-.26.43A.64.64,0,0,1,13,64.72Zm18.42-2.43a.68.68,0,0,1-.42-.15.66.66,0,0,1-.07-.93c.68-.81,1.41-1.6,2.15-2.35a.66.66,0,0,1,.93,0,.67.67,0,0,1,0,.93c-.72.72-1.42,1.49-2.09,2.28A.66.66,0,0,1,31.44,62.29Zm-15-3.46a.7.7,0,0,1-.31-.07.66.66,0,0,1-.27-.89c.55-1,1-1.94,1.37-2.78a.65.65,0,0,1,.86-.33.66.66,0,0,1,.34.86c-.39.87-.85,1.81-1.41,2.87A.66.66,0,0,1,16.45,58.83Zm19.78-1.38a.62.62,0,0,1-.48-.22.65.65,0,0,1,0-.92c.79-.71,1.59-1.41,2.39-2.08a.65.65,0,0,1,.84,1c-.79.66-1.58,1.35-2.35,2.05A.67.67,0,0,1,36.23,57.45Zm5.23-4.36a.66.66,0,0,1-.52-.26.64.64,0,0,1,.13-.91c.84-.65,1.7-1.28,2.56-1.88a.66.66,0,0,1,.91.17.67.67,0,0,1-.16.91c-.84.58-1.69,1.2-2.52,1.84A.66.66,0,0,1,41.46,53.09ZM19,52.55l-.14,0a.66.66,0,0,1-.51-.77,7.12,7.12,0,0,0,.18-1.52A4.77,4.77,0,0,0,18.39,49a.65.65,0,1,1,1.25-.36,5.8,5.8,0,0,1,.22,1.64,8.38,8.38,0,0,1-.2,1.79A.65.65,0,0,1,19,52.55Zm28-3.34a.64.64,0,0,1-.55-.31.66.66,0,0,1,.2-.9c.89-.55,1.78-1.08,2.73-1.62a.65.65,0,0,1,.89.24.65.65,0,0,1-.25.89c-.93.54-1.81,1.06-2.67,1.6A.64.64,0,0,1,47.06,49.21ZM16.81,46.59a.7.7,0,0,1-.37-.11,11.4,11.4,0,0,0-1.28-.76c-.5-.24-1-.5-1.42-.76a.66.66,0,0,1,.67-1.13c.42.25.86.49,1.33.72a12.92,12.92,0,0,1,1.45.85.66.66,0,0,1,.16.91A.66.66,0,0,1,16.81,46.59ZM53,45.85a.67.67,0,0,1-.58-.35.66.66,0,0,1,.28-.89l2.26-1.16.54-.27a.65.65,0,0,1,.88.28.66.66,0,0,1-.28.88l-.54.27-2.26,1.16A.64.64,0,0,1,53,45.85Zm-41.85-3a.66.66,0,0,1-.45-.18,12.22,12.22,0,0,1-2.1-2.56.65.65,0,0,1,.22-.9.66.66,0,0,1,.9.22,11.05,11.05,0,0,0,1.87,2.29.64.64,0,0,1,0,.92A.62.62,0,0,1,11.13,42.88ZM59,42.69a.65.65,0,0,1-.56-.33.66.66,0,0,1,.24-.9,21.75,21.75,0,0,0,2.55-1.67.65.65,0,0,1,.8,1,24.34,24.34,0,0,1-2.7,1.78A.63.63,0,0,1,59,42.69Zm5.17-4.35a.63.63,0,0,1-.37-.12.66.66,0,0,1-.17-.91,8.7,8.7,0,0,0,1.25-2.63.64.64,0,0,1,.8-.45.65.65,0,0,1,.46.8,10.13,10.13,0,0,1-1.43,3A.66.66,0,0,1,64.18,38.34Zm-31-.14h-.4a.66.66,0,1,1,0-1.31,18,18,0,0,0,3-.19.66.66,0,1,1,.18,1.3A22.16,22.16,0,0,1,33.22,38.2Zm-4-.6a.54.54,0,0,1-.22,0,8.59,8.59,0,0,1-2.61-1.44l-.3-.26a.66.66,0,0,1-.07-.92.65.65,0,0,1,.92-.06,3.11,3.11,0,0,1,.28.23,7.39,7.39,0,0,0,2.21,1.22.65.65,0,0,1,.4.83A.64.64,0,0,1,29.23,37.6Zm10.34-.32A.66.66,0,0,1,39.4,36c1-.24,2-.54,3-.88a.64.64,0,0,1,.82.41.66.66,0,0,1-.41.83c-1.06.35-2.09.66-3.06.91ZM7.84,37.05a.65.65,0,0,1-.64-.54A12.61,12.61,0,0,1,7,34.27c0-.35,0-.71,0-1.06a.66.66,0,0,1,.7-.6.64.64,0,0,1,.6.7q0,.48,0,1a10.86,10.86,0,0,0,.18,2A.65.65,0,0,1,8,37ZM46,35.1a.65.65,0,0,1-.24-1.26c.92-.37,1.88-.78,2.87-1.22a.65.65,0,0,1,.53,1.19c-1,.45-2,.87-2.92,1.25A.67.67,0,0,1,46,35.1ZM24.17,33.24a.65.65,0,0,1-.57-.33,8.69,8.69,0,0,1-1.09-3.2.65.65,0,0,1,.56-.73.66.66,0,0,1,.74.56,7.26,7.26,0,0,0,.92,2.72.64.64,0,0,1-.24.89A.62.62,0,0,1,24.17,33.24Zm28.08-.93A.65.65,0,0,1,52,31.07c1-.48,1.93-1,2.8-1.41a.65.65,0,1,1,.6,1.16c-.87.45-1.82.93-2.82,1.42A.59.59,0,0,1,52.25,32.31Zm13.47-.43a.65.65,0,0,1-.64-.55A5.27,5.27,0,0,0,64,28.81a.64.64,0,0,1,.07-.92A.65.65,0,0,1,65,28a6.53,6.53,0,0,1,1.42,3.16.67.67,0,0,1-.54.76ZM8.36,30.31l-.18,0a.67.67,0,0,1-.45-.81,28,28,0,0,1,1.08-3A.66.66,0,0,1,10,27a25.33,25.33,0,0,0-1,2.89A.65.65,0,0,1,8.36,30.31Zm50-1.13a.64.64,0,0,1-.58-.35A.65.65,0,0,1,58,28c.85-.45,1.43-.75,1.88-1a4.77,4.77,0,0,1,1.15-.4.64.64,0,0,1,.77.5.66.66,0,0,1-.5.78,3.49,3.49,0,0,0-.84.29c-.45.22-1,.52-1.85,1A.66.66,0,0,1,58.32,29.18ZM23.56,26.67a.52.52,0,0,1-.21,0,.65.65,0,0,1-.4-.83,10.77,10.77,0,0,1,1.59-2.93.66.66,0,0,1,.92-.13.67.67,0,0,1,.13.92,9.31,9.31,0,0,0-1.41,2.57A.65.65,0,0,1,23.56,26.67ZM11,24a.66.66,0,0,1-.3-.07.67.67,0,0,1-.28-.89c.47-.88,1-1.81,1.56-2.77a.66.66,0,0,1,1.13.67c-.56.94-1.07,1.85-1.53,2.71A.64.64,0,0,1,11,24Zm16.68-2.69a.65.65,0,0,1-.39-1.17,16.56,16.56,0,0,1,2.78-1.71.66.66,0,1,1,.58,1.18,15.33,15.33,0,0,0-2.57,1.57A.66.66,0,0,1,27.66,21.34Zm6.12-2.89a.66.66,0,0,1-.16-1.29c.39-.09.79-.18,1.19-.25.66-.13,1.29-.26,1.89-.41a.65.65,0,0,1,.79.47.66.66,0,0,1-.47.8c-.62.15-1.29.29-2,.42q-.57.11-1.11.24A.41.41,0,0,1,33.78,18.45Zm-19.3-.27a.59.59,0,0,1-.36-.11.64.64,0,0,1-.19-.9q.9-1.37,1.83-2.61a.66.66,0,0,1,1,.79c-.61.8-1.21,1.66-1.79,2.54A.64.64,0,0,1,14.48,18.18Zm25.85-1.57a.65.65,0,0,1-.27-1.25,8.57,8.57,0,0,0,2.44-1.57.66.66,0,0,1,.92.94,10.1,10.1,0,0,1-2.82,1.82A.66.66,0,0,1,40.33,16.61ZM18.61,12.77a.67.67,0,0,1-.44-.17.65.65,0,0,1-.05-.92c.73-.82,1.49-1.59,2.24-2.3a.65.65,0,0,1,.89,1c-.72.67-1.45,1.42-2.16,2.21A.64.64,0,0,1,18.61,12.77ZM44.1,11.62a.66.66,0,0,1-.64-.51A4.93,4.93,0,0,0,42,8.82a.65.65,0,0,1,.91-.94,6.21,6.21,0,0,1,1.85,2.93.65.65,0,0,1-.48.79ZM23.64,8.19a.66.66,0,0,1-.54-.28A.65.65,0,0,1,23.26,7,22,22,0,0,1,26,5.32a.66.66,0,1,1,.59,1.17A21.35,21.35,0,0,0,24,8.07.63.63,0,0,1,23.64,8.19ZM39.47,6.84a.66.66,0,0,1-.33-.09L39,6.69a14,14,0,0,0-2.74-1.22.65.65,0,1,1,.39-1.24,14.9,14.9,0,0,1,3,1.32l.12.07a.66.66,0,0,1,.23.9A.64.64,0,0,1,39.47,6.84ZM29.75,5.29A.65.65,0,0,1,29.6,4a13.78,13.78,0,0,1,3.16-.38h.12a.65.65,0,0,1,.64.66.68.68,0,0,1-.66.65h-.1a12.13,12.13,0,0,0-2.85.34Z"/><path class="cls-4" d="M13.29,68.5C.93,90.62,6.47,116.61,28.53,125s54.23-.91,54.14-7.53c-.1-6.82-13.34,6.46-43-1-19.7-5-22.13-25.13-18.45-40.61S39,47.41,48.78,43.36s12.91-13.27,4.95-8.85-13.27,6.63-22.36,6-14.14-3.39-10.82-16C24.31,10.17,40.2,12.87,37.14,9c-6.31-8-21,6.63-26.06,18.42-3.85,9,1.74,14.4,7.65,17.76C22.23,47.13,25.18,47.19,13.29,68.5Z"/></g></g></svg>