<svg xmlns="http://www.w3.org/2000/svg" viewBox="0 0 127.17 110"><defs><style>.cls-1{opacity:0.15;}.cls-2{fill:#2eddff;}.cls-3{fill:#00aade;}.cls-4{fill:#6bebfc;}.cls-5{fill:#95f2f9;}</style></defs><title>char2Asset 6</title><g id="Layer_2" data-name="Layer 2"><g id="Layer_1-2" data-name="Layer 1"><path class="cls-1" d="M69.46,83c-10.76,3.17-11.69,18.43-5.07,23.08,10.41,7.3,22.29,4.24,24.06-7.26C89.72,90.57,79.93,79.89,69.46,83Z"/><path class="cls-1" d="M9.75,16.09c4.43-4.43,13.83-3.05,10.79,4.14s-10,15,8.83,21.11,57.31,2.57,70.27-4.17,9.64-16.94,7.43-20.26-.28-13.71,8.84-9.06,17.42,27.59.83,42.79C94.5,71,30.92,77.63,8,57.09-5.39,45.09,3.12,22.72,9.75,16.09Z"/><path class="cls-2" d="M69.46,77.21c-10.76,3.17-11.69,18.44-5.07,23.08,10.41,7.3,22.29,4.24,24.06-7.26C89.72,84.81,79.93,74.14,69.46,77.21Z"/><path class="cls-3" d="M75.81,105.15h0a21,21,0,0,1-12-4.11c-3.48-2.44-5.22-7.71-4.34-13.1.95-5.76,4.57-10.1,9.68-11.6a14,14,0,0,1,4-.58,16.43,16.43,0,0,1,12.3,6c3,3.47,4.42,7.73,3.85,11.38C88.22,100.56,83,105.15,75.81,105.15ZM73.2,77.59a12.51,12.51,0,0,0-3.48.5c-4.42,1.3-7.56,5.09-8.39,10.14-.78,4.72.67,9.26,3.58,11.31a19.15,19.15,0,0,0,10.9,3.78c6.25,0,10.75-4,11.74-10.42.48-3.14-.81-6.85-3.44-9.92A14.59,14.59,0,0,0,73.2,77.59Z"/><path class="cls-4" d="M71.89,83.45c-7.38.64-8.52,15,3.79,13.22C85,95.34,84.88,82.34,71.89,83.45Z"/><path class="cls-3" d="M74.1,101.84l-.61,0a.66.66,0,0,1-.61-.7.65.65,0,0,1,.69-.61,9,9,0,0,0,2.35-.17l.56-.12a.64.64,0,0,1,.79.47.65.65,0,0,1-.47.8l-.62.13A10.66,10.66,0,0,1,74.1,101.84Zm-4.06-1a.6.6,0,0,1-.31-.08,9.73,9.73,0,0,1-2.61-2.08.65.65,0,1,1,1-.87,8.62,8.62,0,0,0,2.27,1.81.65.65,0,0,1-.32,1.22Zm10-.7a.65.65,0,0,1-.34-1.21A8.93,8.93,0,0,0,81.84,97a.66.66,0,0,1,.92-.1.65.65,0,0,1,.09.92,10.18,10.18,0,0,1-2.5,2.21A.64.64,0,0,1,80,100.11ZM65.63,95.8a.66.66,0,0,1-.6-.38,14.62,14.62,0,0,1-1-3.13.65.65,0,0,1,.52-.77.64.64,0,0,1,.76.52,13.62,13.62,0,0,0,.9,2.84.65.65,0,0,1-.32.86A.66.66,0,0,1,65.63,95.8Zm18.43-1-.2,0a.65.65,0,0,1-.42-.82,10.41,10.41,0,0,0,.46-2.91.66.66,0,0,1,1.31,0,11.49,11.49,0,0,1-.53,3.28A.64.64,0,0,1,84.06,94.84ZM64.48,89.17h-.06a.66.66,0,0,1-.6-.71,11.55,11.55,0,0,1,.74-3.23.66.66,0,0,1,1.22.48,9.79,9.79,0,0,0-.65,2.86A.66.66,0,0,1,64.48,89.17Zm19.56-1a.66.66,0,0,1-.63-.46A10.53,10.53,0,0,0,82.18,85a.65.65,0,1,1,1.1-.71,11.86,11.86,0,0,1,1.38,3,.64.64,0,0,1-.43.82A.63.63,0,0,1,84,88.14Zm-16.85-5A.65.65,0,0,1,66.75,82a8,8,0,0,1,2.9-1.73.66.66,0,0,1,.55,0,.6.6,0,0,1,.41-.35,14,14,0,0,1,3.24-.53.64.64,0,0,1,.68.62.66.66,0,0,1-.63.68,12.63,12.63,0,0,0-2.94.49.63.63,0,0,1-.5-.07.61.61,0,0,1-.38.34,7,7,0,0,0-2.45,1.46A.66.66,0,0,1,67.19,83.11Zm13.07-.48a.7.7,0,0,1-.39-.13,8.81,8.81,0,0,0-2.58-1.34.65.65,0,0,1-.43-.82.66.66,0,0,1,.83-.42,10.16,10.16,0,0,1,3,1.53.64.64,0,0,1,.13.91A.62.62,0,0,1,80.26,82.63Z"/><path class="cls-2" d="M9.75,10.33c4.43-4.42,13.83-3,10.79,4.15s-10,15,8.83,21.11,57.31,2.57,70.27-4.18,9.64-16.93,7.43-20.25-.28-13.71,8.84-9.07,17.42,27.59.83,42.8C94.5,65.28,30.92,71.87,8,51.34-5.39,39.33,3.12,17,9.75,10.33Z"/><path class="cls-3" d="M52.61,64.76c-20,0-36-4.53-45.22-12.74C2.75,47.86.2,42,0,35.1c-.27-9.94,4.41-20.73,9.1-25.42A9.93,9.93,0,0,1,16,6.89a6.12,6.12,0,0,1,5.28,2.38c.68,1,1.25,2.82.09,5.56-.39.93-.85,1.87-1.29,2.77-1.67,3.44-3.24,6.68-2,9.69s5,5.31,11.53,7.43c6.24,2,15.08,3.09,25.56,3.09,17.46,0,36-3,44-7.21,4.78-2.49,7.7-5.67,8.67-9.44a12.31,12.31,0,0,0-1.59-9.49c-1.34-2-1.31-5.78.09-8.38A5.86,5.86,0,0,1,111.71,0a10.41,10.41,0,0,1,4.62,1.27c5.11,2.61,9.45,10.09,10.56,18.21a29.24,29.24,0,0,1-9.53,26.08C104.83,57,78.81,64.76,52.61,64.76ZM16,8.72A8.05,8.05,0,0,0,10.4,11C6.08,15.29,1.58,25.72,1.84,35.05,2,41.54,4.3,46.79,8.61,50.66c8.83,7.91,24.46,12.27,44,12.27,25.78,0,51.3-7.52,63.51-18.72a27.42,27.42,0,0,0,8.95-24.49c-1-7.55-5-14.47-9.57-16.81C112,1.14,109.38,1.57,108,4.16c-1.18,2.2-1,5.19-.17,6.49a14.24,14.24,0,0,1,1.83,11c-1.1,4.3-4.33,7.86-9.59,10.6-8.27,4.3-27.13,7.42-44.85,7.42-10.67,0-19.7-1.1-26.13-3.18C22,34.17,17.89,31.41,16.45,28c-1.61-3.77.22-7.55,2-11.21.45-.92.88-1.8,1.25-2.68.67-1.58.7-2.9.08-3.84A4.42,4.42,0,0,0,16,8.72Z"/><path class="cls-3" d="M53.48,60.42H52.17a.66.66,0,0,1,0-1.31h1.29l1.84,0a.67.67,0,0,1,.66.65.64.64,0,0,1-.64.66Zm-5-.1h0c-1.05,0-2.11-.1-3.15-.18a.65.65,0,0,1-.61-.69.67.67,0,0,1,.7-.61c1,.07,2.08.13,3.11.17a.66.66,0,0,1,.63.68A.65.65,0,0,1,48.52,60.32Zm10.46,0a.64.64,0,0,1-.65-.62A.66.66,0,0,1,59,59c1,0,2.08-.1,3.12-.17a.67.67,0,0,1,.7.61.65.65,0,0,1-.61.69L59,60.29Zm-17.24-.46h-.07c-1.05-.11-2.11-.24-3.14-.38a.65.65,0,1,1,.18-1.29c1,.14,2.06.26,3.1.37a.67.67,0,0,1,.58.72A.66.66,0,0,1,41.74,59.83Zm24,0a.66.66,0,0,1-.65-.59.65.65,0,0,1,.59-.71c1-.1,2.07-.21,3.11-.34a.65.65,0,0,1,.15,1.3c-1,.12-2.1.24-3.13.34ZM72.51,59a.65.65,0,0,1-.09-1.3c1-.16,2.07-.32,3.08-.5a.65.65,0,0,1,.22,1.29c-1,.18-2.06.34-3.11.5ZM35,58.87h-.12c-1-.19-2.1-.4-3.1-.62A.66.66,0,0,1,32.07,57c1,.22,2,.43,3,.62A.65.65,0,0,1,35,58.87Zm44.2-1.06a.65.65,0,0,1-.13-1.29c1-.21,2-.43,3-.66a.64.64,0,0,1,.78.49.65.65,0,0,1-.49.78c-1,.23-2,.46-3.08.67Zm-50.83-.44-.18,0c-1-.28-2.05-.59-3-.92a.65.65,0,0,1,.41-1.24c1,.32,2,.62,3,.9a.66.66,0,0,1-.17,1.29Zm57.45-1.1a.65.65,0,0,1-.63-.49.66.66,0,0,1,.46-.8c1-.26,2-.54,3-.83a.65.65,0,0,1,.81.44.66.66,0,0,1-.44.81c-1,.29-2,.58-3,.85ZM21.94,55.19a.69.69,0,0,1-.24,0c-1-.41-2-.85-2.91-1.31A.65.65,0,0,1,18.5,53a.64.64,0,0,1,.87-.3c.9.44,1.85.87,2.82,1.27a.64.64,0,0,1,.36.85A.67.67,0,0,1,21.94,55.19Zm70.41-.86a.65.65,0,0,1-.21-1.27c1-.34,2-.69,2.94-1a.65.65,0,1,1,.45,1.22c-1,.36-2,.72-3,1.06A.69.69,0,0,1,92.35,54.33ZM15.87,52.14a.63.63,0,0,1-.34-.1,30.53,30.53,0,0,1-2.64-1.8.65.65,0,1,1,.78-1c.8.6,1.65,1.18,2.55,1.73a.65.65,0,0,1-.35,1.21Zm82.84-.21a.66.66,0,0,1-.26-1.26c1-.41,1.92-.83,2.84-1.27a.65.65,0,0,1,.87.31.64.64,0,0,1-.31.87c-.93.44-1.9.88-2.89,1.3A.74.74,0,0,1,98.71,51.93Zm6.12-3a.66.66,0,0,1-.31-1.23c.92-.51,1.82-1,2.67-1.57a.66.66,0,0,1,.7,1.11c-.88.55-1.8,1.09-2.74,1.61A.76.76,0,0,1,104.83,49ZM10.51,48a.66.66,0,0,1-.46-.2A20.16,20.16,0,0,1,8,45.33.66.66,0,1,1,9,44.56a18.57,18.57,0,0,0,2,2.31A.66.66,0,0,1,10.51,48Zm100.05-2.66a.66.66,0,0,1-.39-1.18c.8-.6,1.57-1.23,2.27-1.85l.11-.1a.66.66,0,1,1,.87,1l-.12.1c-.72.65-1.51,1.29-2.35,1.91A.67.67,0,0,1,110.56,45.33ZM56.5,44.21l-2.15,0a.66.66,0,0,1,0-1.31h0c.73,0,1.46,0,2.19,0h.94a.65.65,0,0,1,.65.65.66.66,0,0,1-.65.66Zm4.67-.09a.66.66,0,0,1-.66-.63.65.65,0,0,1,.63-.67c1,0,2.08-.1,3.12-.16a.65.65,0,0,1,.69.61.64.64,0,0,1-.61.69c-1.05.07-2.11.12-3.15.16Zm-10.46-.06h0c-1.05-.06-2.11-.13-3.15-.22a.65.65,0,0,1-.6-.7.67.67,0,0,1,.71-.6c1,.09,2.07.16,3.11.21a.66.66,0,0,1,0,1.31ZM68,43.68a.66.66,0,0,1-.06-1.31c1-.09,2.07-.2,3.11-.32a.65.65,0,0,1,.15,1.3L68,43.68Zm-24-.21h-.08c-1-.13-2.11-.28-3.13-.44a.66.66,0,0,1-.55-.75.65.65,0,0,1,.75-.54c1,.16,2,.3,3.08.43a.65.65,0,0,1-.07,1.3Zm30.76-.59a.64.64,0,0,1-.64-.56.65.65,0,0,1,.55-.74q1.55-.22,3.09-.48a.65.65,0,1,1,.21,1.29c-1,.17-2.08.34-3.11.49ZM6.63,42.45A.65.65,0,0,1,6,42.07a21.88,21.88,0,0,1-1.15-3,.65.65,0,0,1,.44-.81.66.66,0,0,1,.82.44,19.75,19.75,0,0,0,1.07,2.84.65.65,0,0,1-.31.87A.71.71,0,0,1,6.63,42.45Zm30.6-.07H37.1c-1-.21-2.08-.45-3.09-.69a.66.66,0,0,1-.48-.8.65.65,0,0,1,.79-.47c1,.24,2,.47,3,.68a.65.65,0,0,1-.13,1.29Zm44.18-.64a.66.66,0,0,1-.13-1.3c1-.2,2-.41,3.06-.64a.65.65,0,1,1,.28,1.27c-1,.23-2.06.45-3.09.66Zm34.15-1a.72.72,0,0,1-.43-.16.66.66,0,0,1-.06-.93A25.32,25.32,0,0,0,117,37.25.66.66,0,0,1,118,38a28.11,28.11,0,0,1-2,2.52A.66.66,0,0,1,115.56,40.75Zm-84.92,0a.58.58,0,0,1-.19,0c-1-.32-2-.65-3-1a.65.65,0,0,1-.4-.83.67.67,0,0,1,.84-.4c.95.34,1.94.67,2.95,1a.65.65,0,0,1-.19,1.27ZM88,40.23a.65.65,0,0,1-.63-.49.64.64,0,0,1,.46-.8c1-.26,2-.54,3-.83a.66.66,0,0,1,.81.44.67.67,0,0,1-.44.82c-1,.28-2,.57-3,.84ZM24.25,38.4a.56.56,0,0,1-.25,0c-1-.43-2-.88-2.89-1.33a.66.66,0,0,1,.59-1.17c.87.44,1.82.87,2.81,1.3a.65.65,0,0,1,.34.86A.63.63,0,0,1,24.25,38.4Zm70.3-.12A.65.65,0,0,1,94.34,37c1-.35,2-.72,2.91-1.08a.65.65,0,0,1,.85.36.66.66,0,0,1-.36.85c-.92.37-1.93.75-3,1.11ZM4.78,35.93a.66.66,0,0,1-.65-.57,26.54,26.54,0,0,1-.19-3.12v-.1a.66.66,0,0,1,.66-.64h0a.64.64,0,0,1,.65.66v.08a24,24,0,0,0,.18,3,.65.65,0,0,1-.57.73Zm96-.28a.65.65,0,0,1-.58-.35.66.66,0,0,1,.28-.88c.91-.48,1.81-1,2.67-1.54a.66.66,0,0,1,.9.2.67.67,0,0,1-.2.91c-.89.56-1.82,1.09-2.76,1.59A.7.7,0,0,1,100.82,35.65Zm-82.61-.34a.66.66,0,0,1-.35-.11,21.9,21.9,0,0,1-2.6-1.9.65.65,0,1,1,.85-1,22.25,22.25,0,0,0,2.45,1.79.66.66,0,0,1-.35,1.21Zm101.17-.17a.65.65,0,0,1-.59-1,24.7,24.7,0,0,0,1.22-2.8.65.65,0,0,1,1.23.44,24.11,24.11,0,0,1-1.28,3A.65.65,0,0,1,119.38,35.14ZM106.53,32a.66.66,0,0,1-.4-1.17,30.63,30.63,0,0,0,2.31-2,.65.65,0,0,1,.91.94,29.74,29.74,0,0,1-2.42,2.11A.67.67,0,0,1,106.53,32ZM13.28,30.72a.63.63,0,0,1-.55-.32,7.75,7.75,0,0,1-1.13-3.2.65.65,0,1,1,1.3-.14,6.5,6.5,0,0,0,.94,2.66.65.65,0,0,1-.22.9A.59.59,0,0,1,13.28,30.72ZM4.86,29.15H4.77a.65.65,0,0,1-.56-.74c.14-1,.34-2.1.59-3.15a.65.65,0,0,1,.79-.48.66.66,0,0,1,.48.79c-.24,1-.43,2-.57,3A.64.64,0,0,1,4.86,29.15Zm116.77-.4-.14,0A.64.64,0,0,1,121,28a25.43,25.43,0,0,0,.45-3,.65.65,0,1,1,1.3.12,25.92,25.92,0,0,1-.47,3.18A.66.66,0,0,1,121.63,28.75Zm-10.31-1.57a.63.63,0,0,1-.39-.13.66.66,0,0,1-.13-.92,15.79,15.79,0,0,0,1.58-2.55.66.66,0,0,1,1.18.57,17.4,17.4,0,0,1-1.72,2.77A.65.65,0,0,1,111.32,27.18Zm-98.6-3a.76.76,0,0,1-.21,0,.66.66,0,0,1-.41-.83,18.42,18.42,0,0,1,1.35-3,.65.65,0,1,1,1.14.63,17.51,17.51,0,0,0-1.25,2.75A.65.65,0,0,1,12.72,24.18ZM6.49,22.57a.57.57,0,0,1-.22,0,.66.66,0,0,1-.39-.84c.37-1,.79-2,1.25-3a.64.64,0,0,1,.87-.3.65.65,0,0,1,.31.87,29.65,29.65,0,0,0-1.2,2.83A.67.67,0,0,1,6.49,22.57ZM122.16,22a.66.66,0,0,1-.65-.62,28.41,28.41,0,0,0-.32-3.05.65.65,0,0,1,.53-.75.67.67,0,0,1,.76.54,31.08,31.08,0,0,1,.34,3.19.67.67,0,0,1-.63.69ZM114,21H114a.66.66,0,0,1-.57-.72,7.27,7.27,0,0,0-.23-2.85.66.66,0,0,1,.44-.81.65.65,0,0,1,.81.44,7.91,7.91,0,0,1,.34,2.33,9.2,9.2,0,0,1-.06,1A.66.66,0,0,1,114,21ZM15.83,18.15a.75.75,0,0,1-.26,0,.67.67,0,0,1-.35-.86,6.33,6.33,0,0,0,.54-2.53v-.24a.65.65,0,0,1,1.3-.06c0,.1,0,.2,0,.3a7.79,7.79,0,0,1-.64,3A.66.66,0,0,1,15.83,18.15ZM9.53,16.5a.65.65,0,0,1-.54-1,18.79,18.79,0,0,1,2-2.54.58.58,0,0,1,.21-.15.86.86,0,0,1,.15-.22A4.41,4.41,0,0,1,14.6,11a.65.65,0,0,1,.6.7.64.64,0,0,1-.7.6,3.39,3.39,0,0,0-2.22,1.2.63.63,0,0,1-.2.13.53.53,0,0,1-.13.2,17.67,17.67,0,0,0-1.88,2.37A.64.64,0,0,1,9.53,16.5ZM121,15.31a.65.65,0,0,1-.62-.45A23.29,23.29,0,0,0,119.25,12a.66.66,0,0,1,.31-.87.64.64,0,0,1,.87.31,22.8,22.8,0,0,1,1.17,3,.65.65,0,0,1-.42.82A.69.69,0,0,1,121,15.31Zm-8.61-.75a.64.64,0,0,1-.6-.42,25.25,25.25,0,0,1-1-3,.65.65,0,0,1,1.26-.34,26.66,26.66,0,0,0,1,2.9.65.65,0,0,1-.37.85A.69.69,0,0,1,112.37,14.56ZM118,9.25a.65.65,0,0,1-.53-.27,11.62,11.62,0,0,0-2-2.14.64.64,0,0,1-.11-.92.65.65,0,0,1,.91-.11A12.45,12.45,0,0,1,118.5,8.2a.66.66,0,0,1-.13.92A.73.73,0,0,1,118,9.25ZM110.88,8h0a.67.67,0,0,1-.62-.69c.12-2.41,1.44-2.88,2.22-2.95a.67.67,0,0,1,.71.6.65.65,0,0,1-.6.7c-.23,0-.94.09-1,1.72A.66.66,0,0,1,110.88,8Z"/><path class="cls-4" d="M9.45,17.56c1.37-2.72,4.9-2.2,3.38,1.69S3.71,34.1,27.68,41.36s54,4.39,69.22-1.86,21.77-15.88,18.74-23.72,3.33-7.14,4.89,0c2.12,9.7,2,27.32-38.32,37.26C47.51,61.58-10.93,57.94,9.45,17.56Z"/><path class="cls-5" d="M19.73,39.24c-7.91-3.68-9.36,3.81,1.87,10s26.92,4.36,27.14-.33S36.55,47.05,19.73,39.24Z"/></g></g></svg>