<svg xmlns="http://www.w3.org/2000/svg" viewBox="0 0 148.62 150.46"><defs><style>.cls-1{opacity:0.15;}.cls-2{fill:#ff9f31;}.cls-3{fill:#ff7817;}.cls-4{fill:#fca95e;}.cls-5{fill:#fcb783;}</style></defs><title>char6Asset 16</title><g id="Layer_2" data-name="Layer 2"><g id="Layer_1-2" data-name="Layer 1"><path class="cls-1" d="M103,7.21c-10.76,3.17-11.7,18.43-5.08,23.07,10.42,7.31,22.29,4.25,24.06-7.25C123.2,14.81,113.42,4.13,103,7.21Z"/><path class="cls-1" d="M125.56,54.41C97.79,57.89,84.79,83,83.52,85.25s-9.11,2.08-10.67.81-2.24-7.09-6-8.23S55.16,88.6,55.92,93.66s3.29,9.12,2,18.48-9.37,16.46-28,13.79-12-17.33-9.49-24.05-5.76-8-10.89-3.55C7,100.58-2.57,116,2.24,131.39c6.1,19.59,35.45,24.06,53.24,13.55,21.21-12.53,19.94-32.54,19.94-32.54s3,11.39,9.88,10.38,3.29-17.72,4.3-18.23,25.14,5.23,46.34-7C157.3,85.18,147.06,51.72,125.56,54.41ZM127.33,78c-1.15,5.73-26.84,11.29-26.33,7.29C101.81,78.82,128.48,72.23,127.33,78Z"/><path class="cls-2" d="M103,1.46c-10.76,3.16-11.7,18.43-5.08,23.07,10.42,7.3,22.29,4.24,24.06-7.25C123.2,9.05,113.42-1.62,103,1.46Z"/><path class="cls-3" d="M109.29,29.39h0a21,21,0,0,1-11.94-4.11c-3.48-2.44-5.23-7.71-4.34-13.1C94,6.42,97.57,2.09,102.69.58a14,14,0,0,1,4-.58A16.41,16.41,0,0,1,119,6c3,3.47,4.42,7.73,3.86,11.39C121.7,24.8,116.51,29.39,109.29,29.39Zm-2.6-27.56a12.51,12.51,0,0,0-3.48.5c-4.43,1.31-7.57,5.1-8.39,10.14-.78,4.72.66,9.26,3.58,11.31a19.22,19.22,0,0,0,10.89,3.78c6.25,0,10.75-4,11.74-10.42.48-3.14-.8-6.85-3.44-9.92A14.59,14.59,0,0,0,106.69,1.83Z"/><path class="cls-4" d="M105.38,7.69c-7.38.64-8.52,15,3.79,13.22C118.51,19.58,118.36,6.58,105.38,7.69Z"/><path class="cls-3" d="M107.58,26.07c-.2,0-.4,0-.6,0a.65.65,0,1,1,.08-1.3,9.05,9.05,0,0,0,2.35-.17l.56-.12a.65.65,0,0,1,.79.47.66.66,0,0,1-.48.8l-.62.13A10.64,10.64,0,0,1,107.58,26.07Zm-4-1a.58.58,0,0,1-.31-.08,9.93,9.93,0,0,1-2.62-2.08.65.65,0,0,1,1-.87,8.79,8.79,0,0,0,2.27,1.81.65.65,0,0,1-.31,1.22Zm10-.7a.64.64,0,0,1-.55-.31.65.65,0,0,1,.2-.9,9,9,0,0,0,2.19-1.92.65.65,0,1,1,1,.82,10.39,10.39,0,0,1-2.5,2.21A.64.64,0,0,1,113.49,24.35ZM99.11,20a.64.64,0,0,1-.59-.38,14.08,14.08,0,0,1-1-3.13.65.65,0,1,1,1.28-.25,13.05,13.05,0,0,0,.9,2.84.66.66,0,0,1-.33.87A.86.86,0,0,1,99.11,20Zm18.44-1a.69.69,0,0,1-.2,0,.65.65,0,0,1-.43-.82,9.94,9.94,0,0,0,.46-2.9.66.66,0,0,1,.67-.64.64.64,0,0,1,.64.66,11.59,11.59,0,0,1-.52,3.28A.64.64,0,0,1,117.55,19.07ZM98,13.41h0a.66.66,0,0,1-.6-.71,11.55,11.55,0,0,1,.74-3.23.65.65,0,1,1,1.21.48,10.47,10.47,0,0,0-.65,2.87A.64.64,0,0,1,98,13.41Zm19.56-1a.66.66,0,0,1-.62-.47,10.82,10.82,0,0,0-1.23-2.67.65.65,0,1,1,1.1-.71,12.22,12.22,0,0,1,1.38,3,.66.66,0,0,1-.43.82A.69.69,0,0,1,117.52,12.38Zm-16.84-5a.63.63,0,0,1-.48-.21.65.65,0,0,1,0-.92,8.16,8.16,0,0,1,2.91-1.73.67.67,0,0,1,.54,0,.65.65,0,0,1,.41-.35,14.12,14.12,0,0,1,3.24-.53A.66.66,0,0,1,107.39,5a12.43,12.43,0,0,0-2.94.48.69.69,0,0,1-.51-.06.65.65,0,0,1-.37.34,6.87,6.87,0,0,0-2.45,1.45A.7.7,0,0,1,100.68,7.35Zm13.06-.49a.65.65,0,0,1-.39-.13,8.9,8.9,0,0,0-2.58-1.33.65.65,0,0,1,.4-1.24,10,10,0,0,1,3,1.53.65.65,0,0,1,.14.91A.67.67,0,0,1,113.74,6.86Z"/><path class="cls-2" d="M125.56,48.65c-27.77,3.48-40.77,28.62-42,30.85s-9.11,2.07-10.67.81-2.24-7.09-6-8.23S55.16,82.84,55.92,87.9s3.29,9.12,2,18.49-9.37,16.46-28,13.78-12-17.33-9.49-24-5.76-8-10.89-3.55C7,94.82-2.57,110.19,2.24,125.64c6.1,19.59,35.45,24,53.24,13.54,21.21-12.53,19.94-32.54,19.94-32.54s3,11.4,9.88,10.39,3.29-17.73,4.3-18.24,25.14,5.23,46.34-7C157.3,79.42,147.06,46,125.56,48.65Zm1.77,23.55c-1.15,5.74-26.84,11.3-26.33,7.3C101.81,73.07,128.48,66.47,127.33,72.2Z"/><path class="cls-3" d="M34,145.62c-16.11,0-28.93-7.74-32.66-19.71-5-16,5.08-31.84,7.61-34a11.53,11.53,0,0,1,7.26-2.82,5.69,5.69,0,0,1,4.84,2.14c.66,1,1.23,2.63.25,5.24-.12.32-.25.67-.39,1-1.74,4.55-4.38,11.41-1.53,16.25,1.71,2.92,5.3,4.79,10.68,5.56a52.12,52.12,0,0,0,7.31.56c11.48,0,18.46-4.82,19.64-13.56a31.75,31.75,0,0,0-1.06-14A38.93,38.93,0,0,1,55,88c-.53-3.56,2.51-9.58,5.75-13.35,1.42-1.64,3.52-3.6,5.5-3.6a3.1,3.1,0,0,1,.81.11c2.85.86,4.15,3.87,5.1,6.08a8.25,8.25,0,0,0,1.25,2.32,9,9,0,0,0,4.2.71c2.88,0,4.74-.64,5.1-1.27l.17-.3c4.59-8.29,17.93-27.91,42.55-31a19.8,19.8,0,0,1,2.54-.16c9.25,0,17,6.58,19.72,16.77,2.32,8.65.75,21.23-11.31,28.2-9.24,5.34-20.25,8-32.71,8h0a100.91,100.91,0,0,1-11.78-.74c-.64-.08-1.2-.14-1.59-.17,0,.61,0,1.64.09,2.58.29,5.53.77,14.8-5,15.65a6.55,6.55,0,0,1-1,.07c-4.15,0-6.86-3.89-8.38-7.07-.91,6.75-4.69,19.92-20.12,29A43.72,43.72,0,0,1,34,145.62ZM16.24,90.89a9.63,9.63,0,0,0-6.06,2.38c-2.37,2-11.79,16.94-7.07,32.09C6.6,136.56,18.73,143.79,34,143.79a41.85,41.85,0,0,0,21-5.4c20.44-12.08,19.5-31.5,19.49-31.69a.92.92,0,0,1,1.8-.29c0,.09,2.68,9.76,8.14,9.76a4.31,4.31,0,0,0,.71,0c4.1-.61,3.66-9.16,3.42-13.75-.16-3.06-.21-4,.61-4.4a1.55,1.55,0,0,1,.68-.13c.43,0,1.15.09,2.25.21a100.29,100.29,0,0,0,11.57.73h0c12.13,0,22.83-2.62,31.79-7.8C146.65,84.52,148.1,72.86,146,64.83c-2.52-9.36-9.57-15.41-18-15.41a18.28,18.28,0,0,0-2.32.14c-23.78,3-36.72,22-41.17,30.07l-.18.32c-1.12,2-5,2.19-6.69,2.19-1.92,0-4.34-.3-5.36-1.12a8.15,8.15,0,0,1-1.77-3c-.85-2-1.91-4.43-4-5a1.2,1.2,0,0,0-.28,0c-1,0-2.51,1.11-4.11,3-3.28,3.82-5.73,9.26-5.33,11.89a37.92,37.92,0,0,0,.92,4.08,33.5,33.5,0,0,1,1.11,14.66c-1.31,9.63-9.13,15.15-21.46,15.15a54.46,54.46,0,0,1-7.58-.58c-5.95-.85-10-3-12-6.44-3.29-5.6-.36-13.26,1.4-17.83l.39-1a3.87,3.87,0,0,0,0-3.56A4,4,0,0,0,16.24,90.89Zm88.13-9.12c-2,0-3.24-.33-3.87-1a1.69,1.69,0,0,1-.41-1.35c.7-5.52,16-10.28,23.17-10.28,2.3,0,3.78.44,4.52,1.35a2.23,2.23,0,0,1,.45,1.93C127.16,77.71,110.74,81.77,104.37,81.77Zm-2.45-2.22a4.58,4.58,0,0,0,2.45.39c7.6,0,21.38-4.5,22.06-7.92.06-.27,0-.36-.06-.41-.27-.33-1.23-.68-3.11-.68C115.79,70.93,102.52,75.81,101.92,79.55Z"/><path class="cls-3" d="M33.74,141.33a.65.65,0,0,1-.65-.65.66.66,0,0,1,.65-.66c1,0,2.06,0,3.09-.12a.66.66,0,0,1,.7.6.64.64,0,0,1-.6.7c-1.06.08-2.13.13-3.18.13Zm-3.65-.15H30c-1.07-.09-2.13-.22-3.16-.39a.65.65,0,0,1,.21-1.29c1,.16,2,.29,3.06.38a.65.65,0,0,1,.6.7A.66.66,0,0,1,30.09,141.18Zm10.42-.4a.65.65,0,0,1-.64-.55.65.65,0,0,1,.54-.75c1-.15,2-.35,3-.58a.65.65,0,0,1,.29,1.27c-1,.24-2.08.44-3.13.61ZM23.4,140a.51.51,0,0,1-.17,0,32,32,0,0,1-3.05-1,.65.65,0,0,1-.37-.84.65.65,0,0,1,.84-.38,30.2,30.2,0,0,0,2.92.95A.66.66,0,0,1,23.4,140Zm23.72-.79a.66.66,0,0,1-.62-.46.65.65,0,0,1,.43-.82c1-.31,2-.66,2.91-1a.65.65,0,1,1,.48,1.21c-1,.39-2,.76-3,1.08A.64.64,0,0,1,47.12,139.23Zm-30-1.7a.71.71,0,0,1-.31-.08,27.31,27.31,0,0,1-2.73-1.69.65.65,0,1,1,.75-1.07,24.16,24.16,0,0,0,2.6,1.61.65.65,0,0,1,.27.88A.67.67,0,0,1,17.09,137.53Zm36.32-.87a.66.66,0,0,1-.29-1.24c.68-.35,1.36-.72,2-1.11l.66-.4a.65.65,0,0,1,.69,1.11l-.69.42c-.67.4-1.38.79-2.09,1.15A.66.66,0,0,1,53.41,136.66Zm-41.79-3.13a.67.67,0,0,1-.46-.18A22.19,22.19,0,0,1,9,130.92a.65.65,0,0,1,1-.79,20.62,20.62,0,0,0,2,2.28.66.66,0,0,1,0,.93A.62.62,0,0,1,11.62,133.53ZM59.13,133a.66.66,0,0,1-.51-.25.65.65,0,0,1,.11-.92c.8-.63,1.57-1.31,2.31-2a.66.66,0,0,1,.93,0,.65.65,0,0,1,0,.92,31.77,31.77,0,0,1-2.41,2.1A.65.65,0,0,1,59.13,133ZM64,128.28a.65.65,0,0,1-.5-1.07c.65-.78,1.28-1.6,1.87-2.45a.66.66,0,0,1,.91-.16.65.65,0,0,1,.16.91c-.61.88-1.26,1.73-1.94,2.54A.66.66,0,0,1,64,128.28Zm-56.38-.2a.65.65,0,0,1-.58-.35,23.15,23.15,0,0,1-1.26-3A.65.65,0,0,1,7,124.33a21.75,21.75,0,0,0,1.18,2.8.65.65,0,0,1-.28.88A.66.66,0,0,1,7.61,128.08Zm29.23-3c-.64,0-1.31,0-2,0a.66.66,0,1,1,.05-1.31c1.06.05,2.1.06,3.09,0a.66.66,0,1,1,0,1.31Zm4.84-.3a.65.65,0,0,1-.65-.57.66.66,0,0,1,.57-.74c1-.13,2-.31,3-.53a.66.66,0,0,1,.29,1.28c-1,.23-2.08.41-3.15.55Zm-10.43-.06h-.08c-.73-.09-1.47-.19-2.2-.32l-.94-.16a.66.66,0,0,1,.24-1.29l.92.17c.71.11,1.43.22,2.14.31a.65.65,0,0,1-.08,1.3ZM24.6,123.4a.58.58,0,0,1-.19,0,28,28,0,0,1-3-1.11.66.66,0,0,1-.33-.87.64.64,0,0,1,.86-.33,25.26,25.26,0,0,0,2.87,1.06.66.66,0,0,1-.19,1.28Zm23.68-.17a.65.65,0,0,1-.22-1.26,26.12,26.12,0,0,0,2.81-1.21.65.65,0,0,1,.87.29.64.64,0,0,1-.29.88,27,27,0,0,1-3,1.27A.83.83,0,0,1,48.28,123.23Zm19.56-.54a.61.61,0,0,1-.32-.08.67.67,0,0,1-.25-.89c.5-.89,1-1.81,1.42-2.75a.66.66,0,0,1,.87-.31.64.64,0,0,1,.31.87c-.45,1-.94,1.92-1.46,2.83A.65.65,0,0,1,67.84,122.69Zm-62.39-1a.65.65,0,0,1-.64-.52A27,27,0,0,1,4.37,118a.66.66,0,0,1,.6-.71.65.65,0,0,1,.7.6,26,26,0,0,0,.43,3,.65.65,0,0,1-.52.77Zm13-1.14a.68.68,0,0,1-.38-.12,14.26,14.26,0,0,1-2.44-2.18.65.65,0,0,1,0-.92.66.66,0,0,1,.93.06,13.33,13.33,0,0,0,2.22,2,.65.65,0,0,1-.38,1.18Zm35.82-.41a.65.65,0,0,1-.38-1.18,19.25,19.25,0,0,0,2.33-2,.66.66,0,0,1,.93,0,.65.65,0,0,1,0,.92A20.92,20.92,0,0,1,54.67,120,.66.66,0,0,1,54.29,120.11Zm16.41-3.58a.66.66,0,0,1-.23,0,.65.65,0,0,1-.38-.84c.36-1,.69-1.94,1-2.94a.65.65,0,0,1,.81-.43.66.66,0,0,1,.44.82c-.31,1-.66,2-1,3A.64.64,0,0,1,70.7,116.53Zm-56.52-1.16a.66.66,0,0,1-.6-.39,12.6,12.6,0,0,1-.89-3.18.65.65,0,0,1,.55-.74.65.65,0,0,1,.74.55,11.25,11.25,0,0,0,.8,2.85.66.66,0,0,1-.34.86A.85.85,0,0,1,14.18,115.37Zm44.88-.06a.62.62,0,0,1-.37-.11.65.65,0,0,1-.17-.91A15.42,15.42,0,0,0,60,111.66a.65.65,0,0,1,1.2.52A17.74,17.74,0,0,1,59.6,115,.65.65,0,0,1,59.06,115.31ZM5,114.9h0a.65.65,0,0,1-.61-.69A28.56,28.56,0,0,1,4.68,111a.64.64,0,0,1,.76-.53.65.65,0,0,1,.53.75,26.21,26.21,0,0,0-.35,3A.66.66,0,0,1,5,114.9Zm79.13-2.34a.66.66,0,0,1-.65-.55.67.67,0,0,1,.55-.75l.11,0c.61-.16.92-1.09,1.07-1.84a.67.67,0,0,1,.78-.51.64.64,0,0,1,.5.77c-.33,1.61-1,2.57-2,2.84l-.27.06Zm-3-1.83a.63.63,0,0,1-.5-.24,19.66,19.66,0,0,1-1.81-2.7.64.64,0,0,1,.24-.89.65.65,0,0,1,.89.24,19.53,19.53,0,0,0,1.69,2.52.65.65,0,0,1-.09.92A.68.68,0,0,1,81.11,110.73ZM72.66,110a.39.39,0,0,1-.15,0,.65.65,0,0,1-.49-.78c.24-1,.45-2,.63-3a.64.64,0,0,1,.76-.53.65.65,0,0,1,.53.75c-.19,1-.4,2.1-.64,3.12A.65.65,0,0,1,72.66,110Zm-11.1-1h-.1a.65.65,0,0,1-.54-.75c.17-1,.31-2.08.42-3.07a.65.65,0,0,1,1.3.14c-.11,1-.25,2.07-.43,3.14A.66.66,0,0,1,61.56,109.06Zm-48.27-.35h-.07a.66.66,0,0,1-.58-.72,18.4,18.4,0,0,1,.64-3.19.65.65,0,0,1,1.25.36,19,19,0,0,0-.59,3A.66.66,0,0,1,13.29,108.71Zm-7.1-.48a.69.69,0,0,1-.2,0,.65.65,0,0,1-.42-.82,27.83,27.83,0,0,1,1.12-3,.67.67,0,0,1,.87-.34.65.65,0,0,1,.33.86c-.41.94-.77,1.91-1.08,2.87A.64.64,0,0,1,6.19,108.23Zm79.9-1.69a.65.65,0,0,1-.65-.65c0-.89-.06-1.9-.14-3.09a.65.65,0,0,1,1.3-.1c.09,1.22.14,2.26.14,3.18a.64.64,0,0,1-.64.66Zm-8.41-1.68a.66.66,0,0,1-.59-.37c-.42-.9-.85-1.88-1.28-2.91a.65.65,0,0,1,.35-.85.66.66,0,0,1,.86.35c.42,1,.84,2,1.25,2.85a.64.64,0,0,1-.31.87A.71.71,0,0,1,77.68,104.86Zm-3.86-1.54h-.07a.65.65,0,0,1-.58-.72c.12-1,.21-2.08.28-3.1a.66.66,0,0,1,.69-.61.65.65,0,0,1,.61.69c-.06,1.05-.16,2.11-.28,3.17A.66.66,0,0,1,73.82,103.32Zm-11.59-1h0a.66.66,0,0,1-.64-.67c0-.25,0-.5,0-.75,0-.79,0-1.57-.08-2.32a.66.66,0,1,1,1.31-.09c0,.78.08,1.59.08,2.41,0,.26,0,.52,0,.78A.65.65,0,0,1,62.23,102.3Zm-47.12-.12a.76.76,0,0,1-.21,0,.66.66,0,0,1-.41-.83c.38-1.12.68-2.12.88-2.95a.65.65,0,1,1,1.27.3c-.21.88-.52,1.91-.91,3.07A.65.65,0,0,1,15.11,102.18ZM9,102a.72.72,0,0,1-.34-.09.65.65,0,0,1-.22-.9,26.9,26.9,0,0,1,1.8-2.66.65.65,0,0,1,1,.79,27.53,27.53,0,0,0-1.72,2.54A.64.64,0,0,1,9,102Zm76.66-2.29a.65.65,0,0,1-.65-.59c-.11-1.26-.18-2.17-.18-2.82,0-.15,0-.29,0-.42a.66.66,0,0,1,1.31.09c0,.1,0,.21,0,.33,0,.61.07,1.48.18,2.7a.66.66,0,0,1-.6.71ZM75.08,98.57a.67.67,0,0,1-.62-.43c-.26-.7-.47-1.29-.62-1.72a.69.69,0,0,1-.3-.54c0-.29,0-.44,0-.46a.66.66,0,0,1,.54-.67.64.64,0,0,1,.73.44s.34,1,.89,2.5a.66.66,0,0,1-.39.84A.85.85,0,0,1,75.08,98.57Zm-61.86-1.8a.65.65,0,0,1-.51-.24.67.67,0,0,1,.09-.92,4.87,4.87,0,0,1,2.74-1.41,1.41,1.41,0,0,1,.82.27.65.65,0,0,1-.78,1c-.18,0-.7.08-1.95,1.1A.63.63,0,0,1,13.22,96.77Zm89.05-.07a.66.66,0,0,1,0-1.31c1.06,0,2.11,0,3.12-.07a.66.66,0,0,1,0,1.31c-1,0-2.09.06-3.16.07Zm-3.66,0h0c-1.1,0-2.15-.06-3.15-.1a.66.66,0,0,1-.63-.68.65.65,0,0,1,.68-.62c1,0,2,.07,3.13.09a.66.66,0,0,1,0,1.31Zm10.46-.24a.66.66,0,0,1,0-1.31c1.06-.07,2.1-.16,3.11-.27a.64.64,0,0,1,.71.58.65.65,0,0,1-.58.72c-1,.11-2.07.2-3.14.28Zm-17.25,0h0c-1.2-.07-2.25-.14-3.14-.21a.65.65,0,1,1,.09-1.3l3.13.21a.66.66,0,0,1,0,1.31Zm24-.7a.66.66,0,0,1-.65-.55.66.66,0,0,1,.55-.75c1-.15,2.07-.33,3.06-.53a.65.65,0,1,1,.26,1.28c-1,.2-2.07.39-3.13.55Zm-54.14-.16a.65.65,0,0,1-.64-.53c-.22-1.16-.47-2.17-.69-3a.65.65,0,0,1,1.26-.33c.23.87.49,1.91.71,3.11a.65.65,0,0,1-.52.76Zm60.8-1.19a.65.65,0,0,1-.63-.49.64.64,0,0,1,.46-.8c1-.27,2-.57,3-.88a.66.66,0,0,1,.83.41.67.67,0,0,1-.42.83c-1,.32-2,.63-3,.9A.45.45,0,0,1,122.49,94.35Zm6.43-2.2a.64.64,0,0,1-.6-.4.65.65,0,0,1,.33-.86c1-.42,1.9-.87,2.76-1.35a.65.65,0,0,1,.64,1.14c-.91.5-1.87,1-2.87,1.41A.65.65,0,0,1,128.92,92.15ZM60.1,88.93a.66.66,0,0,1-.64-.52c-.06-.32-.12-.63-.17-1a7.5,7.5,0,0,1-.06-1A6.74,6.74,0,0,1,59.37,85a.65.65,0,0,1,1.28.25,6.44,6.44,0,0,0-.12,1.21,4.9,4.9,0,0,0,.06.77c0,.29.09.59.15.88a.64.64,0,0,1-.51.77Zm74.72-.13a.65.65,0,0,1-.39-1.18,24.49,24.49,0,0,0,2.33-2,.65.65,0,0,1,.92,0,.67.67,0,0,1,0,.93,26,26,0,0,1-2.47,2.07A.6.6,0,0,1,134.82,88.8ZM75.56,86.14a.66.66,0,0,1,0-1.31c.91,0,2-.16,3.06-.33a.65.65,0,0,1,.2,1.29,31.59,31.59,0,0,1-3.19.35Zm-3.48-.71a.61.61,0,0,1-.39-.13,10,10,0,0,1-2.25-2.47.67.67,0,0,1,.17-.91.66.66,0,0,1,.91.18,8.68,8.68,0,0,0,2,2.15.66.66,0,0,1,.13.92A.65.65,0,0,1,72.08,85.43Zm10.2-.36a.66.66,0,0,1-.17-1.29,15.73,15.73,0,0,0,2.85-1A.66.66,0,0,1,85.53,84a17,17,0,0,1-3.09,1.07Zm24.07-.39a.67.67,0,0,1-.65-.63.65.65,0,0,1,.63-.68c1,0,2-.13,3.07-.27a.65.65,0,1,1,.16,1.3c-1.1.14-2.17.23-3.18.28Zm-3.65-.09h-.07a11.9,11.9,0,0,1-3.23-.76.66.66,0,0,1,.51-1.21,10.38,10.38,0,0,0,2.86.67.65.65,0,0,1,.58.72A.66.66,0,0,1,102.7,84.59Zm37-.54a.65.65,0,0,1-.52-1,22.31,22.31,0,0,0,1.68-2.54.65.65,0,0,1,.89-.24.64.64,0,0,1,.25.89,25,25,0,0,1-1.78,2.69A.67.67,0,0,1,139.65,84.05Zm-26.56-.25a.66.66,0,0,1-.13-1.3c1-.21,2-.45,3-.72a.66.66,0,0,1,.34,1.27c-1,.27-2.06.52-3.09.73ZM61.35,82.43a.66.66,0,0,1-.57-1,15.59,15.59,0,0,1,1.94-2.64.64.64,0,0,1,.92,0,.65.65,0,0,1,0,.92,14.5,14.5,0,0,0-1.78,2.42A.66.66,0,0,1,61.35,82.43Zm58.3-.44a.64.64,0,0,1-.61-.44.65.65,0,0,1,.4-.83c1-.35,2-.73,2.88-1.12a.65.65,0,0,1,.52,1.2c-1,.41-2,.79-3,1.15A.57.57,0,0,1,119.65,82Zm-32.13-.7a.61.61,0,0,1-.32-.08.66.66,0,0,1-.26-.89c.53-.94,1-1.83,1.61-2.74a.65.65,0,0,1,1.11.68c-.54.9-1.06,1.78-1.57,2.7A.67.67,0,0,1,87.52,81.29Zm9.91-.05a.66.66,0,0,1-.65-.62v-.18a5.83,5.83,0,0,1,1-3.14.64.64,0,0,1,.9-.2.66.66,0,0,1,.2.9,4.59,4.59,0,0,0-.84,2.44v.11a.66.66,0,0,1-.62.69ZM68.14,80a.64.64,0,0,1-.57-.34q-1-1.78-1.32-1.86a.68.68,0,0,1-.77-.55.64.64,0,0,1,.54-.74,1.42,1.42,0,0,1,.46,0c.88.17,1.5,1.19,2.23,2.52a.66.66,0,0,1-.25.89A.72.72,0,0,1,68.14,80Zm57.72-.73a.63.63,0,0,1-.57-.33.65.65,0,0,1,.24-.89,20.34,20.34,0,0,0,2.54-1.68.63.63,0,0,1,.91.11.65.65,0,0,1-.1.92,23,23,0,0,1-2.7,1.79A.61.61,0,0,1,125.86,79.22Zm17.07-1.1a.62.62,0,0,1-.23,0,.64.64,0,0,1-.38-.84,21.24,21.24,0,0,0,.86-2.92.65.65,0,0,1,.78-.49.64.64,0,0,1,.5.78,22.77,22.77,0,0,1-.92,3.09A.66.66,0,0,1,142.93,78.12Zm-42.12-2.53a.64.64,0,0,1-.49-.22.65.65,0,0,1,.06-.92A25.87,25.87,0,0,1,103,72.51a.65.65,0,1,1,.72,1.09,22.82,22.82,0,0,0-2.44,1.84A.68.68,0,0,1,100.81,75.59Zm-9.72-.09a.66.66,0,0,1-.54-1c.59-.87,1.21-1.74,1.83-2.58a.67.67,0,0,1,.92-.14.66.66,0,0,1,.13.92c-.61.82-1.22,1.68-1.8,2.54A.66.66,0,0,1,91.09,75.5ZM131,74.84a.65.65,0,0,1-.55-1,4.62,4.62,0,0,0,.81-2.5v-.07a4.6,4.6,0,0,0-.27-1.49.65.65,0,1,1,1.22-.46,5.6,5.6,0,0,1,.35,1.92v.1a6,6,0,0,1-1,3.2A.64.64,0,0,1,131,74.84Zm-24.5-3a.66.66,0,0,1-.58-.35.64.64,0,0,1,.27-.88c.92-.48,1.88-1,2.87-1.38a.65.65,0,0,1,.53,1.19c-1,.43-1.9.88-2.79,1.34A.56.56,0,0,1,106.48,71.85Zm37.84-.36h0a.65.65,0,0,1-.62-.68q0-.53,0-1a18.94,18.94,0,0,0-.1-2,.65.65,0,0,1,.59-.71.64.64,0,0,1,.71.58c.07.7.11,1.41.11,2.12q0,.55,0,1.11A.66.66,0,0,1,144.32,71.49ZM95.16,70a.66.66,0,0,1-.5-1.07c.68-.82,1.38-1.63,2.07-2.4a.67.67,0,0,1,.93,0,.65.65,0,0,1,0,.92c-.68.76-1.37,1.55-2,2.36A.68.68,0,0,1,95.16,70Zm17.55-.9a.65.65,0,0,1-.21-1.27c1-.36,2-.68,3-1a.65.65,0,1,1,.35,1.25c-1,.28-2,.6-2.95.94A.54.54,0,0,1,112.71,69.14Zm16.36-1.46a.66.66,0,0,1-.27-.06,9,9,0,0,0-2.83-.7.65.65,0,0,1,.14-1.3,10.46,10.46,0,0,1,3.23.81.65.65,0,0,1,.33.86A.67.67,0,0,1,129.07,67.68Zm-9.8-.33a.65.65,0,0,1-.64-.53.66.66,0,0,1,.52-.77c1.11-.2,2.17-.35,3.18-.43a.64.64,0,0,1,.7.59.65.65,0,0,1-.59.71,30,30,0,0,0-3,.42ZM99.76,65a.67.67,0,0,1-.47-.2.65.65,0,0,1,0-.92c.77-.75,1.56-1.48,2.34-2.16a.64.64,0,0,1,.92.07.65.65,0,0,1-.06.92c-.77.66-1.53,1.37-2.28,2.1A.63.63,0,0,1,99.76,65Zm43.77-.26a.64.64,0,0,1-.62-.46,16.36,16.36,0,0,0-1.12-2.8.65.65,0,0,1,.29-.88.66.66,0,0,1,.88.28,18.44,18.44,0,0,1,1.2,3,.65.65,0,0,1-.44.82A.58.58,0,0,1,143.53,64.77Zm-38.62-4.18a.66.66,0,0,1-.52-.26.64.64,0,0,1,.13-.91c.86-.65,1.74-1.26,2.62-1.82a.65.65,0,0,1,.9.19.66.66,0,0,1-.2.91c-.84.54-1.7,1.14-2.53,1.76A.66.66,0,0,1,104.91,60.59Zm35.46-1.77a.65.65,0,0,1-.51-.24,14.58,14.58,0,0,0-2.14-2.09.66.66,0,0,1-.11-.92.65.65,0,0,1,.92-.11,16.81,16.81,0,0,1,2.34,2.28.66.66,0,0,1-.08.92A.65.65,0,0,1,140.37,58.82ZM110.65,57a.64.64,0,0,1-.58-.35.65.65,0,0,1,.28-.88c1-.5,1.92-1,2.88-1.36a.64.64,0,0,1,.85.34.65.65,0,0,1-.34.86c-.93.39-1.87.84-2.79,1.32A.63.63,0,0,1,110.65,57ZM135,54.7a.67.67,0,0,1-.28-.06,17.66,17.66,0,0,0-2.83-1,.66.66,0,0,1-.47-.8.67.67,0,0,1,.81-.46,18.5,18.5,0,0,1,3.05,1.12.66.66,0,0,1,.31.87A.67.67,0,0,1,135,54.7Zm-18.11-.34a.65.65,0,0,1-.19-1.28c1-.31,2.06-.57,3.1-.78a.65.65,0,0,1,.26,1.28c-1,.2-2,.46-3,.76Zm6.65-1.3a.65.65,0,0,1-.06-1.3c1-.09,2-.14,3-.14h.21c.62,0,1.23,0,1.83.08a.66.66,0,1,1-.11,1.31c-.56,0-1.15-.07-1.73-.08h-.2c-1,0-1.92,0-2.87.13Z"/><path class="cls-4" d="M129.19,88.58c15.7-7.43,14.7-35.31-3.5-34.31-25,1.38-31.28,22.64-38.11,29.62-3.56,3.62-14,3.74-15.71,2.9-3.54-1.78-4-5.87-5.5-6.15S61.56,84,62.28,88.79s3,4.83,1.24,19.52c-1.08,8.86-12.15,22.55-34.44,18.5C11.6,123.64,10,112.9,12.37,106.56S3.7,107.39,8.24,122c5.77,18.49,30.58,20,47.23,9.85,21.89-13.37,13.37-36.2,16.41-38.72S103.24,100.87,129.19,88.58Zm5.74-17.33c1,5.19-9.24,11.77-19.3,13.75-9.19,1.8-19.53,1.37-20.46-2.5-1.88-7.84,13.06-16.25,23.11-18.75C126.17,61.78,133.59,64.61,134.93,71.25Z"/><path class="cls-4" d="M80.74,94.48c-2.53,1.54-1,14.52,2.7,13.17C86,106.72,83.27,92.94,80.74,94.48Z"/><path class="cls-5" d="M111,58.06c-6.7,2.95-4,7,2.56,5.11a63.7,63.7,0,0,1,14.4-2.67C131.51,60.25,127.59,50.75,111,58.06Z"/><path class="cls-5" d="M109.31,7.54c-5.17-1-9.73,5.55-2.38,7.51S114.47,8.54,109.31,7.54Z"/><path class="cls-5" d="M22.63,126.23c-10.13-4.51-8.08,6,4.28,9.07s23.39-7,15.16-6.59C36.14,129,28.85,129,22.63,126.23Z"/></g></g></svg>