<svg xmlns="http://www.w3.org/2000/svg" viewBox="0 0 96.68 163.87"><defs><style>.cls-1{opacity:0.15;}.cls-2{fill:#fff737;}.cls-3{fill:#f7c00a;}.cls-4{fill:#fff069;}.cls-5{fill:#fff18f;}</style></defs><title>char4Asset 9</title><g id="Layer_2" data-name="Layer 2"><g id="Layer_1-2" data-name="Layer 1"><path class="cls-1" d="M14.14,51.82C9,54.61,8.85,71.72,13.32,73.15c6.42,2,15.35-1.76,15.81.53S13.36,80,4.42,101.3s-.78,45.8,24.19,56.91c18.93,8.41,46.39,5.52,53,3.45,8.26-2.58,19-22.64,11.74-24.43s-49.13,9.58-64.48-11,6.5-42,23.21-46.13c15-3.73,24.2-2.75,27.87-5.27s8.93-17,2.52-20.72S24.67,46.1,14.14,51.82Z"/><path class="cls-1" d="M41.8,7.21C31,10.38,30.1,25.65,36.72,30.29,47.14,37.59,59,34.53,60.78,23,62.05,14.81,52.27,4.14,41.8,7.21Z"/><path class="cls-2" d="M14.14,46.07C9,48.86,8.85,66,13.32,67.39c6.42,2,15.35-1.75,15.81.54S13.36,74.24,4.42,95.54s-.78,45.81,24.19,56.91c18.93,8.42,46.39,5.53,53,3.45,8.26-2.58,19-22.63,11.74-24.43s-49.13,9.58-64.48-11,6.5-42,23.21-46.13c15-3.72,24.2-2.75,27.87-5.27s8.93-17,2.52-20.71S24.67,40.34,14.14,46.07Z"/><path class="cls-3" d="M60.55,159c-8.85,0-21.64-1-32.32-5.74C16.08,147.88,7.33,139.19,3,128.16a43.38,43.38,0,0,1,.63-33A52.55,52.55,0,0,1,25.42,70a22.29,22.29,0,0,0,2.63-1.83,3.35,3.35,0,0,0-.67,0,28.39,28.39,0,0,0-3.33.33,45.19,45.19,0,0,1-6.08.52A16.2,16.2,0,0,1,13,68.26c-2.68-.85-3.47-5.17-3.71-7.67-.57-6,.77-13.37,4.37-15.33,4.38-2.38,14.8-2.88,22.77-2.88C55,42.38,78.46,45,83,47.56c2.13,1.22,3.33,3.57,3.46,6.79.25,5.87-3.1,13.54-5.91,15.48-2,1.4-5.32,1.78-10.28,2.36a132.52,132.52,0,0,0-17.89,3C42.68,77.62,30.16,86.46,26,98.14c-2.68,7.47-1.42,15,3.64,21.79,6.11,8.19,17.28,12.17,34.16,12.17,6.72,0,13.23-.62,18.47-1.12,3.56-.33,6.63-.63,8.8-.63a11.08,11.08,0,0,1,2.54.23c1.92.48,3,2,3.08,4.39.19,6.57-7.83,19.64-14.76,21.81C78.33,157.9,69.84,159,60.55,159ZM27.38,66.25c1.55,0,2.44.5,2.64,1.5.26,1.27-1,2.1-3.61,3.75C21.2,74.83,11.51,81,5.27,95.9-4,118,6,141.39,29,151.61c10.38,4.62,22.9,5.59,31.57,5.59,10.18,0,18-1.3,20.82-2.17,6-1.88,13.65-14.2,13.48-20-.06-2-1-2.49-1.69-2.66a9.06,9.06,0,0,0-2.1-.18c-2.08,0-5.11.29-8.63.63-5.27.5-11.84,1.12-18.64,1.12-17.49,0-29.15-4.22-35.63-12.91-5.44-7.29-6.78-15.42-3.9-23.5C28.66,85.25,41.77,76,51.89,73.45A136.19,136.19,0,0,1,70,70.37c4.52-.53,7.79-.9,9.46-2.05,2.14-1.47,5.35-8.43,5.13-13.89-.11-2.6-1-4.37-2.55-5.28C78.27,47,55.49,44.21,36.47,44.21c-11,0-18.74.95-21.89,2.66-2.69,1.46-3.94,8.18-3.43,13.54.32,3.34,1.28,5.74,2.45,6.11A14.46,14.46,0,0,0,18,67.1a46,46,0,0,0,5.84-.5A29.11,29.11,0,0,1,27.38,66.25Z"/><path class="cls-3" d="M63,155.25h-.29a.66.66,0,0,1,0-1.31H63c1,0,1.91,0,2.84,0a.66.66,0,0,1,0,1.31C64.9,155.24,63.94,155.25,63,155.25ZM59,155.19h0c-1,0-2.11-.08-3.15-.14a.66.66,0,0,1-.62-.69.67.67,0,0,1,.69-.62c1,.06,2.08.11,3.12.14a.64.64,0,0,1,.63.67A.65.65,0,0,1,59,155.19Zm10.46-.12a.65.65,0,0,1,0-1.3c1.07-.06,2.12-.13,3.11-.22a.65.65,0,0,1,.12,1.3c-1,.09-2.07.16-3.15.22Zm-17.25-.29h0c-1.07-.09-2.12-.2-3.15-.32a.66.66,0,0,1-.57-.73.65.65,0,0,1,.73-.57c1,.12,2.05.23,3.1.32a.65.65,0,0,1-.06,1.3Zm24-.33a.66.66,0,0,1-.65-.57.65.65,0,0,1,.56-.73c1.18-.17,2.2-.35,3-.55a.66.66,0,0,1,.3,1.28c-.87.2-1.92.39-3.15.56ZM45.48,154h-.1c-1.06-.17-2.11-.35-3.12-.54a.65.65,0,0,1,.25-1.28c1,.19,2,.37,3.07.53a.65.65,0,0,1-.1,1.3Zm-6.67-1.31a.39.39,0,0,1-.15,0c-1-.25-2.07-.52-3.06-.8a.66.66,0,1,1,.36-1.26c1,.28,2,.55,3,.79a.65.65,0,0,1-.15,1.29Zm43.9-.15a.65.65,0,0,1-.35-1.21,15.9,15.9,0,0,0,2.38-1.84.64.64,0,0,1,.92,0,.65.65,0,0,1,0,.92,17,17,0,0,1-2.58,2A.63.63,0,0,1,82.71,152.51Zm-50.42-1.77a.6.6,0,0,1-.22,0c-1-.37-2-.76-2.95-1.17a.65.65,0,1,1,.52-1.2c.91.4,1.88.78,2.88,1.14a.65.65,0,0,1,.39.83A.66.66,0,0,1,32.29,150.74ZM26.07,148a.67.67,0,0,1-.3-.08c-.95-.49-1.88-1-2.77-1.56a.66.66,0,0,1-.22-.9.67.67,0,0,1,.9-.22q1.3.8,2.7,1.53a.65.65,0,0,1-.31,1.23Zm61.56-.14a.67.67,0,0,1-.4-.14.65.65,0,0,1-.12-.91,25,25,0,0,0,1.7-2.54.65.65,0,1,1,1.13.66,23.46,23.46,0,0,1-1.79,2.67A.65.65,0,0,1,87.63,147.87Zm-67.34-3.43a.68.68,0,0,1-.38-.12c-.86-.62-1.7-1.28-2.51-2a.66.66,0,0,1-.08-.92.65.65,0,0,1,.92-.08c.78.66,1.6,1.3,2.44,1.9a.64.64,0,0,1,.14.91A.62.62,0,0,1,20.29,144.44ZM90.93,142a.6.6,0,0,1-.22,0,.65.65,0,0,1-.39-.83,9.27,9.27,0,0,0,.6-2.86.66.66,0,0,1,.65-.64h0a.66.66,0,0,1,.64.67,10.68,10.68,0,0,1-.68,3.26A.66.66,0,0,1,90.93,142ZM15.13,140a.63.63,0,0,1-.46-.2c-.75-.75-1.48-1.54-2.16-2.35a.65.65,0,1,1,1-.84c.66.78,1.36,1.54,2.08,2.27a.65.65,0,0,1,0,.93A.68.68,0,0,1,15.13,140Zm51.13-2.44a.66.66,0,0,1-.66-.65.65.65,0,0,1,.65-.66l3.12-.09a.65.65,0,0,1,.68.62.66.66,0,0,1-.63.68c-1.07.05-2.13.08-3.15.1Zm-3.66,0h0c-1.06,0-2.13-.07-3.16-.13a.67.67,0,0,1-.61-.7.64.64,0,0,1,.69-.61c1,.06,2.06.1,3.11.13a.65.65,0,0,1,.64.67A.66.66,0,0,1,62.6,137.59Zm10.45-.3a.65.65,0,0,1,0-1.3l3.12-.25a.65.65,0,0,1,.71.59.66.66,0,0,1-.59.71c-1,.09-2.07.18-3.15.25Zm-17.24-.14h-.07c-1.06-.12-2.12-.26-3.14-.42a.65.65,0,1,1,.21-1.29c1,.16,2,.29,3.07.41a.65.65,0,0,1-.07,1.3Zm24-.45a.66.66,0,0,1-.06-1.31l1.16-.12,2-.19a.65.65,0,0,1,.72.58.67.67,0,0,1-.59.72l-2,.19-1.17.12Zm9.91-.55h-.12a13.25,13.25,0,0,0-3-.06.67.67,0,0,1-.69-.62.66.66,0,0,1,.62-.69,14.66,14.66,0,0,1,3.29.08.66.66,0,0,1,.52.76A.65.65,0,0,1,89.73,136.15Zm-40.62-.09H49c-1-.24-2.08-.5-3.08-.78a.65.65,0,0,1-.45-.81.66.66,0,0,1,.81-.45c1,.28,2,.53,3,.76a.65.65,0,0,1-.14,1.29Zm-38.32-1.24a.65.65,0,0,1-.54-.28c-.61-.87-1.18-1.78-1.71-2.69a.66.66,0,0,1,.24-.9.65.65,0,0,1,.89.24c.51.89,1.07,1.76,1.65,2.61a.66.66,0,0,1-.16.91A.75.75,0,0,1,10.79,134.82Zm31.8-.65a.93.93,0,0,1-.23,0c-1-.37-2-.78-2.94-1.2a.66.66,0,0,1,.53-1.2c.93.42,1.89.81,2.86,1.17a.65.65,0,0,1,.39.84A.67.67,0,0,1,42.59,134.17Zm-6.17-2.83a.62.62,0,0,1-.32-.09c-.93-.52-1.85-1.08-2.72-1.67a.66.66,0,0,1,.73-1.09c.85.57,1.73,1.12,2.63,1.62A.67.67,0,0,1,37,131,.64.64,0,0,1,36.42,131.34Zm-29-2.42a.67.67,0,0,1-.6-.39c-.43-1-.83-2-1.18-3a.65.65,0,0,1,.39-.83.66.66,0,0,1,.84.4c.34,1,.72,1.92,1.14,2.85a.65.65,0,0,1-.59.93Zm23.38-1.42a.66.66,0,0,1-.42-.15c-.82-.67-1.61-1.39-2.37-2.13a.66.66,0,0,1,0-.93.65.65,0,0,1,.92,0c.74.72,1.51,1.41,2.29,2.06a.65.65,0,0,1-.41,1.16ZM26,122.72a.67.67,0,0,1-.5-.23l-.8-1q-.6-.77-1.14-1.56a.65.65,0,1,1,1.08-.74c.34.51.71,1,1.09,1.49.25.33.51.64.77,1a.65.65,0,0,1-.5,1.08ZM5.22,122.5a.65.65,0,0,1-.63-.49c-.25-1-.47-2.08-.63-3.13a.65.65,0,0,1,.54-.75.66.66,0,0,1,.75.54c.16,1,.37,2,.61,3a.66.66,0,0,1-.48.8Zm17.05-5.44a.65.65,0,0,1-.58-.37,22.08,22.08,0,0,1-1.2-3,.65.65,0,0,1,.42-.82.65.65,0,0,1,.82.42,22.86,22.86,0,0,0,1.13,2.83.65.65,0,0,1-.3.87A.59.59,0,0,1,22.27,117.06ZM4.19,115.79a.65.65,0,0,1-.65-.61c0-.86-.08-1.74-.08-2.61V112a.66.66,0,0,1,1.31,0c0,.19,0,.38,0,.56,0,.84,0,1.69.09,2.53a.65.65,0,0,1-.61.69Zm16.08-5.2a.64.64,0,0,1-.64-.56,22.78,22.78,0,0,1-.26-3.21.64.64,0,0,1,.64-.66h0a.64.64,0,0,1,.65.64,23.66,23.66,0,0,0,.25,3,.65.65,0,0,1-.55.74ZM4.33,109H4.26a.65.65,0,0,1-.58-.72c.11-1,.26-2.1.45-3.15a.66.66,0,0,1,.76-.53.67.67,0,0,1,.53.76c-.19,1-.33,2-.44,3.06A.64.64,0,0,1,4.33,109Zm15.92-5.19h-.09a.65.65,0,0,1-.56-.74,27.37,27.37,0,0,1,.62-3.15.66.66,0,1,1,1.27.33,24.83,24.83,0,0,0-.59,3A.66.66,0,0,1,20.25,103.81ZM5.57,102.33l-.17,0a.67.67,0,0,1-.46-.81c.27-1,.59-2,.94-3a.65.65,0,1,1,1.23.43c-.34,1-.64,2-.91,3A.64.64,0,0,1,5.57,102.33ZM22,97.26a.64.64,0,0,1-.61-.89c.39-1,.83-2,1.32-2.92a.65.65,0,1,1,1.16.6c-.47.92-.89,1.86-1.26,2.8A.65.65,0,0,1,22,97.26ZM7.83,95.92a.66.66,0,0,1-.27-.06A.64.64,0,0,1,7.23,95c.42-1,.89-1.93,1.39-2.86a.65.65,0,1,1,1.15.62c-.48.9-.93,1.83-1.35,2.77A.64.64,0,0,1,7.83,95.92ZM25.1,91.23a.66.66,0,0,1-.35-.11.64.64,0,0,1-.2-.9c.56-.88,1.17-1.76,1.82-2.61a.65.65,0,1,1,1,.78c-.62.83-1.22,1.68-1.76,2.54A.68.68,0,0,1,25.1,91.23ZM11.07,90a.66.66,0,0,1-.55-1c.57-.87,1.19-1.75,1.84-2.59a.65.65,0,1,1,1,.79c-.63.82-1.23,1.67-1.79,2.52A.65.65,0,0,1,11.07,90Zm18.15-4.13a.67.67,0,0,1-.44-.17.65.65,0,0,1-.05-.92c.71-.78,1.45-1.55,2.21-2.29a.64.64,0,0,1,.92,0,.65.65,0,0,1,0,.92c-.74.72-1.46,1.47-2.14,2.23A.64.64,0,0,1,29.22,85.83Zm-14-1.25a.65.65,0,0,1-.49-1.09c.69-.77,1.43-1.54,2.2-2.3a.65.65,0,0,1,.91.94c-.74.73-1.46,1.48-2.14,2.24A.64.64,0,0,1,15.22,84.58Zm18.9-3.46a.68.68,0,0,1-.51-.23A.66.66,0,0,1,33.7,80c.81-.67,1.65-1.33,2.5-1.95A.66.66,0,0,1,37,79.07c-.84.6-1.66,1.24-2.45,1.9A.65.65,0,0,1,34.12,81.12Zm-14-1.29a.68.68,0,0,1-.5-.22.67.67,0,0,1,.07-.93c.77-.67,1.59-1.34,2.45-2a.63.63,0,0,1,.91.11.65.65,0,0,1-.11.92c-.83.65-1.64,1.32-2.4,2A.61.61,0,0,1,20.08,79.83Zm19.55-2.68a.65.65,0,0,1-.35-1.21c.9-.56,1.83-1.09,2.76-1.59a.65.65,0,0,1,.61,1.15c-.9.49-1.8,1-2.68,1.55A.7.7,0,0,1,39.63,77.15Zm-14.2-1.51a.65.65,0,0,1-.38-1.18c.78-.56,1.6-1.13,2.59-1.81a.65.65,0,1,1,.74,1.08c-1,.67-1.8,1.24-2.57,1.79A.66.66,0,0,1,25.43,75.64ZM45.64,74a.65.65,0,0,1-.6-.39.66.66,0,0,1,.34-.86c1-.42,2-.82,3-1.17a.65.65,0,0,1,.83.39.66.66,0,0,1-.39.84c-1,.34-1.93.73-2.88,1.14A.58.58,0,0,1,45.64,74ZM31.05,71.79a.68.68,0,0,1-.55-.28.66.66,0,0,1,.18-.91c1.15-.79,1.9-1.33,2.51-1.81a.66.66,0,0,1,.81,1c-.63.5-1.41,1.06-2.59,1.86A.61.61,0,0,1,31.05,71.79Zm21,0a.66.66,0,0,1-.16-1.29c1-.27,2-.53,3.06-.76a.66.66,0,1,1,.3,1.28c-1,.23-2,.48-3,.74A.47.47,0,0,1,52.05,71.75Zm6.63-1.5a.66.66,0,0,1-.12-1.3c1-.19,2-.36,3.11-.53a.65.65,0,1,1,.2,1.29c-1.06.17-2.06.34-3.07.53Zm6.72-1a.66.66,0,0,1-.65-.58.65.65,0,0,1,.57-.72c1.11-.14,2.15-.26,3.13-.36a.65.65,0,1,1,.14,1.3l-3.11.35Zm6.75-.77a.65.65,0,0,1-.64-.57.64.64,0,0,1,.56-.73,28.57,28.57,0,0,0,3-.52.65.65,0,0,1,.31,1.27,28.85,28.85,0,0,1-3.16.54ZM35.7,67.13a.66.66,0,0,1-.66-.61.41.41,0,0,0,0-.11,2.22,2.22,0,0,0-1.58-1.49.66.66,0,0,1-.39-.84.65.65,0,0,1,.84-.39,3.5,3.5,0,0,1,2.39,2.38,2.38,2.38,0,0,1,.06.37.65.65,0,0,1-.61.69Zm42.77-.83a.66.66,0,0,1-.48-.21.65.65,0,0,1,0-.92,12.2,12.2,0,0,0,1.88-2.3.66.66,0,1,1,1.1.72,13.76,13.76,0,0,1-2.09,2.54A.65.65,0,0,1,78.47,66.3ZM20.14,64.88a.65.65,0,1,1,0-1.3c1.06,0,2.21-.08,3.1-.14a.65.65,0,0,1,.69.61.67.67,0,0,1-.61.7c-.9,0-2.08.12-3.17.13Zm-3.63-.32-.17,0a5.79,5.79,0,0,1-.77-.25,3.46,3.46,0,0,1-1.68-2.36.66.66,0,0,1,.43-.82.65.65,0,0,1,.82.43c.31,1,.68,1.44.92,1.54a6.25,6.25,0,0,0,.61.2.64.64,0,0,1,.47.79A.65.65,0,0,1,16.51,64.56Zm10.42-.06a.65.65,0,0,1-.65-.61.66.66,0,0,1,.62-.69c1.29-.07,2.26-.1,3.18-.08a.66.66,0,0,1,0,1.31c-.89,0-1.83,0-3.09.07Zm55.18-3.88a.62.62,0,0,1-.23,0,.66.66,0,0,1-.39-.84,11.77,11.77,0,0,0,.69-2.88.65.65,0,1,1,1.3.12,12.52,12.52,0,0,1-.76,3.21A.65.65,0,0,1,82.11,60.62ZM13.93,58.78a.66.66,0,0,1-.65-.62c0-.38,0-.77,0-1.16a20.07,20.07,0,0,1,.1-2.07.65.65,0,0,1,.71-.59.66.66,0,0,1,.59.71q-.09,1-.09,2c0,.37,0,.73,0,1.09a.67.67,0,0,1-.62.69ZM82.27,54a.66.66,0,0,1-.59-.36,4.68,4.68,0,0,0-1.88-2,.65.65,0,1,1,.67-1.12,5.92,5.92,0,0,1,2.38,2.51.65.65,0,0,1-.58.94ZM14.76,52.07a.59.59,0,0,1-.23,0,.66.66,0,0,1-.39-.84,5.07,5.07,0,0,1,2.12-2.82.66.66,0,0,1,.63,1.15,3.85,3.85,0,0,0-1.52,2.13A.66.66,0,0,1,14.76,52.07Zm61.92-1.48-.16,0c-.88-.21-1.9-.42-3-.63a.66.66,0,0,1-.52-.77.65.65,0,0,1,.76-.52c1.16.21,2.21.43,3.11.65a.65.65,0,0,1-.15,1.29ZM70,49.35h-.1c-1-.14-2-.29-3.1-.42a.65.65,0,0,1-.56-.74.65.65,0,0,1,.73-.56c1.08.14,2.13.28,3.12.43a.65.65,0,0,1-.09,1.3Zm-50.55-.81a.65.65,0,0,1-.63-.49.66.66,0,0,1,.47-.8c.91-.23,2-.45,3.13-.63a.64.64,0,0,1,.75.54.66.66,0,0,1-.54.75c-1.13.18-2.14.38-3,.61Zm43.8,0h-.08c-1-.12-2-.22-3.11-.32a.67.67,0,0,1-.59-.72.65.65,0,0,1,.71-.58c1.07.1,2.12.2,3.14.32a.65.65,0,0,1-.07,1.3Zm-6.78-.64h-.05q-1.54-.14-3.12-.24a.65.65,0,1,1,.09-1.3l3.14.23a.66.66,0,0,1,.59.71A.65.65,0,0,1,56.46,47.85Zm-30.31-.38a.65.65,0,0,1-.06-1.3c1-.1,2.05-.18,3.15-.24a.66.66,0,0,1,.69.61.64.64,0,0,1-.61.69c-1.09.07-2.14.15-3.11.24Zm23.53-.08h0l-3.13-.16a.64.64,0,0,1-.62-.68.63.63,0,0,1,.68-.62l3.14.15a.66.66,0,0,1,0,1.31Zm-6.8-.29h0L39.73,47a.66.66,0,1,1,0-1.31l3.14.07a.65.65,0,0,1,0,1.3Zm-9.94,0a.65.65,0,1,1,0-1.3q1.55,0,3.15-.06a.66.66,0,0,1,0,1.31c-1.06,0-2.1,0-3.12,0Z"/><path class="cls-4" d="M19.16,50.52c-3.44,1.87-1.65,9.79.71,10.74,4.66,1.87,15.76-1.78,18.57,2.2,4.29,6.07-21,12.84-28.9,31.63s-1.62,41.46,20.4,51.25c16.7,7.43,37.37,6.25,45.68,3,7.1-2.78,13.81-10.38,9.16-11.5-6.38-1.54-42.05,11.21-62.48-16.77-13.36-18.28,1.12-43.43,29.34-52.5,13-4.18,19.52-2.39,22.76-4.61s8.69-8.19,3-11.42S28.45,45.46,19.16,50.52Z"/><path class="cls-2" d="M41.8,1.46C31,4.62,30.1,19.89,36.72,24.53,47.14,31.84,59,28.78,60.78,17.28,62.05,9.05,52.27-1.62,41.8,1.46Z"/><path class="cls-3" d="M48.14,29.4h0A21,21,0,0,1,36.2,25.28c-3.48-2.44-5.23-7.71-4.34-13.1.94-5.76,4.56-10.1,9.68-11.6a14,14,0,0,1,4-.58,16.43,16.43,0,0,1,12.3,6c3,3.47,4.42,7.73,3.86,11.39C60.55,24.81,55.36,29.4,48.14,29.4ZM45.53,1.83a12.5,12.5,0,0,0-3.47.5c-4.43,1.31-7.57,5.1-8.4,10.14-.77,4.72.67,9.27,3.59,11.31a19.14,19.14,0,0,0,10.89,3.79c6.25,0,10.75-4,11.74-10.43.48-3.14-.8-6.85-3.44-9.92A14.61,14.61,0,0,0,45.53,1.83Z"/><path class="cls-4" d="M44.42,6.24C37.35,7,36.27,23.08,48,21.11,57,19.62,56.85,5,44.42,6.24Z"/><path class="cls-3" d="M46.43,26.08l-.61,0a.67.67,0,0,1-.61-.7.65.65,0,0,1,.69-.61,9.1,9.1,0,0,0,2.36-.17c.19,0,.37-.08.56-.12a.65.65,0,1,1,.31,1.27l-.62.14A10.64,10.64,0,0,1,46.43,26.08Zm-4-1a.72.72,0,0,1-.32-.08,10.09,10.09,0,0,1-2.61-2.09.65.65,0,0,1,1-.87,8.62,8.62,0,0,0,2.27,1.81.66.66,0,0,1,.26.89A.66.66,0,0,1,42.38,25.06Zm10-.71a.67.67,0,0,1-.56-.31.65.65,0,0,1,.21-.9,8.73,8.73,0,0,0,2.18-1.92.66.66,0,0,1,1,.83,10,10,0,0,1-2.51,2.2A.59.59,0,0,1,52.34,24.35ZM38,20a.66.66,0,0,1-.6-.38,14.43,14.43,0,0,1-1-3.13.66.66,0,0,1,.51-.77.67.67,0,0,1,.77.52,12.53,12.53,0,0,0,.9,2.84.67.67,0,0,1-.33.87A.65.65,0,0,1,38,20Zm18.43-1a.63.63,0,0,1-.19,0,.65.65,0,0,1-.43-.82,10.34,10.34,0,0,0,.46-2.9.66.66,0,0,1,.65-.65h0a.66.66,0,0,1,.64.67A11.83,11.83,0,0,1,57,18.62.66.66,0,0,1,56.39,19.08ZM36.81,13.42h-.06a.64.64,0,0,1-.59-.7,11.28,11.28,0,0,1,.74-3.24.65.65,0,0,1,1.21.48,10.47,10.47,0,0,0-.65,2.87A.65.65,0,0,1,36.81,13.42Zm19.56-1a.64.64,0,0,1-.62-.46,10.56,10.56,0,0,0-1.24-2.68.66.66,0,0,1,.2-.9.65.65,0,0,1,.9.19,11.79,11.79,0,0,1,1.39,3,.65.65,0,0,1-.44.81A.58.58,0,0,1,56.37,12.38Zm-16.85-5A.66.66,0,0,1,39,7.14a.65.65,0,0,1,0-.92A8.16,8.16,0,0,1,42,4.49a.67.67,0,0,1,.54,0A.65.65,0,0,1,43,4.19a14,14,0,0,1,3.23-.53A.66.66,0,0,1,46.24,5a12.43,12.43,0,0,0-2.94.48.69.69,0,0,1-.51-.06.64.64,0,0,1-.38.34A6.83,6.83,0,0,0,40,7.18.65.65,0,0,1,39.52,7.35Zm13.07-.48a.73.73,0,0,1-.39-.13,8.44,8.44,0,0,0-2.58-1.33.67.67,0,0,1-.42-.83A.65.65,0,0,1,50,4.16a10,10,0,0,1,3,1.53.65.65,0,0,1-.39,1.18Z"/><path class="cls-5" d="M77.36,55.93c1.42-4.73-29.53-8.75-29.52-1.7C47.85,59.44,74,67.26,77.36,55.93Z"/><path class="cls-5" d="M49.17,7.91c-5.16-1-9.73,5.55-2.37,7.51S54.34,8.91,49.17,7.91Z"/></g></g></svg>