<svg xmlns="http://www.w3.org/2000/svg" viewBox="0 0 102.55 139.56"><defs><style>.cls-1{opacity:0.15;}.cls-2{fill:#49d800;}.cls-3{fill:#36a300;}.cls-4{fill:#89ea49;}.cls-5{fill:#acea83;}</style></defs><title>char6Asset 29</title><g id="Layer_2" data-name="Layer 2"><g id="Layer_1-2" data-name="Layer 1"><path class="cls-1" d="M27.65,28.18C18.9,25.59,2.58,41.6,1.06,59.58c-1.84,21.71,13.93,39,48.37,36S100.08,73,99.06,61.1,91,45.36,78.55,44s-11.14-6.94-3-12.26,11.9-3.8,19.5-3.29,9.37-16.72,1.52-20.77S65.64,12,54,31C43.8,47.58,53.65,56.85,64.88,59.84c7.93,2.11,5.57,6.07-1.78,7.84-9.65,2.33-39.2,5.49-41-10.38S34.49,30.21,27.65,28.18Z"/><path class="cls-1" d="M32.4,112.53C22.16,115.7,21.27,131,27.57,135.61c9.91,7.3,21.21,4.24,22.89-7.26C51.67,120.13,42.36,109.45,32.4,112.53Z"/><path class="cls-1" d="M58.41,109.48c-10.24,3.16-11.13,18.43-4.83,23.07,9.91,7.31,21.21,4.25,22.9-7.25C77.68,117.07,68.37,106.4,58.41,109.48Z"/><path class="cls-2" d="M27.65,22.43C18.9,19.83,2.58,35.85,1.06,53.83c-1.84,21.7,13.93,39,48.37,36s50.65-22.55,49.63-34.45S91,39.6,78.55,38.23s-11.14-6.94-3-12.26,11.9-3.8,19.5-3.29S104.38,6,96.53,1.92,65.64,6.22,54,25.21C43.8,41.82,53.65,51.09,64.88,54.08c7.93,2.11,5.57,6.08-1.78,7.85-9.65,2.33-39.2,5.48-41-10.38S34.49,24.45,27.65,22.43Z"/><path class="cls-3" d="M41.8,91.05C27,91.05,15.34,86.86,8.05,78.93,2,72.39-.69,63.68.15,53.75,1.57,37,15.72,21.23,25.65,21.23a7.86,7.86,0,0,1,2.26.32,3.32,3.32,0,0,1,2.27,1.79c.83,1.88-.45,4.49-2.23,8.09-2.48,5-5.88,11.94-5,20,1.09,9.5,13,11.5,22.74,11.5A80.26,80.26,0,0,0,62.89,61c3.93-.95,6-2.48,6-3.49,0-.7-1.11-1.75-4.27-2.59C57.35,53,52,48.89,49.86,43.63s-1-11.76,3.35-18.9C63.67,7.67,81.91,0,91.51,0A11.91,11.91,0,0,1,97,1.1c5.13,2.65,6.46,10,5.11,15.55C101,21.18,98.3,23.82,95,23.59c-1.23-.08-2.34-.18-3.41-.29C89.85,23.14,88.4,23,87,23c-3.15,0-6.21.64-10.94,3.74-4,2.62-6.14,5.25-5.72,7,.25,1,1.66,2.83,8.36,3.57,12,1.33,20.21,4.88,21.33,17.94.57,6.7-4,14.87-11.86,21.33C81.45,82.06,69.33,89,49.51,90.7,46.87,90.93,44.28,91.05,41.8,91.05Zm-16.15-68C17.52,23.06,3.39,37.18,2,53.9,1.18,63.31,3.74,71.54,9.4,77.69c6.93,7.54,18.13,11.53,32.4,11.53,2.42,0,5-.11,7.55-.34,33-2.92,49.81-21.64,48.8-33.46C97.27,45,91.93,40.63,78.45,39.14c-6-.66-9.31-2.33-9.94-5s1.61-5.77,6.5-9c4.37-2.87,7.83-4,11.94-4,1.53,0,3.1.15,4.77.31,1.06.1,2.15.21,3.35.29,2.4.16,4.33-1.94,5.21-5.55,1.2-4.95,0-11.35-4.17-13.49a10.23,10.23,0,0,0-4.6-.9c-10.63,0-27.7,9.12-36.74,23.86C50.71,32.31,49.63,38.12,51.56,43s6.83,8.46,13.55,10.24c4.68,1.25,5.64,3.07,5.63,4.38,0,2.17-2.8,4.13-7.42,5.25a81.88,81.88,0,0,1-17.59,1.95c-15.08,0-23.58-4.54-24.56-13.12s2.55-15.78,5.14-21c1.44-2.93,2.68-5.45,2.2-6.56-.06-.13-.22-.5-1.12-.77A6.42,6.42,0,0,0,25.65,23.06Z"/><path class="cls-3" d="M42.11,87.47a.66.66,0,0,1,0-1.31c1,0,2.07,0,3.11-.08a.67.67,0,0,1,.69.63.66.66,0,0,1-.63.68c-1.06,0-2.13.07-3.16.08Zm-3.66-.07h0c-1.07,0-2.13-.11-3.16-.21a.65.65,0,0,1-.59-.71.66.66,0,0,1,.71-.59c1,.09,2,.16,3.1.21a.65.65,0,0,1,0,1.3Zm10.45-.24a.66.66,0,0,1-.66-.6.65.65,0,0,1,.6-.7l.67-.06c.82-.07,1.63-.15,2.43-.25a.68.68,0,0,1,.73.58.65.65,0,0,1-.58.72c-.81.1-1.63.18-2.46.25l-.68.06Zm-17.21-.41h-.1c-1.07-.17-2.12-.37-3.12-.59a.65.65,0,1,1,.28-1.27c1,.21,2,.4,3,.56a.66.66,0,0,1,.54.75A.65.65,0,0,1,31.69,86.75Zm24-.39a.65.65,0,0,1-.1-1.3c1-.17,2.07-.35,3.06-.55a.65.65,0,1,1,.26,1.28c-1,.2-2.06.39-3.12.56ZM25.07,85.25a.63.63,0,0,1-.19,0c-1-.32-2.05-.68-3-1.07a.66.66,0,0,1-.36-.85.65.65,0,0,1,.85-.36c.93.37,1.91.72,2.9,1a.65.65,0,0,1-.19,1.28ZM62.3,85a.65.65,0,0,1-.63-.5.64.64,0,0,1,.47-.79c1-.25,2-.53,3-.82a.65.65,0,0,1,.81.44.64.64,0,0,1-.44.81c-1,.3-2,.58-3.05.84Zm6.51-2a.65.65,0,0,1-.62-.44.64.64,0,0,1,.4-.83c1-.35,2-.73,2.89-1.12a.65.65,0,1,1,.5,1.21c-1,.4-2,.78-3,1.14A.78.78,0,0,1,68.81,83.05Zm-50-.4a.68.68,0,0,1-.31-.08,30.71,30.71,0,0,1-2.74-1.67.65.65,0,0,1,.74-1.08,28.59,28.59,0,0,0,2.62,1.6.65.65,0,0,1,.26.88A.65.65,0,0,1,18.81,82.65Zm56.26-2.23a.67.67,0,0,1-.59-.37.65.65,0,0,1,.3-.87c.94-.46,1.87-.94,2.75-1.44a.67.67,0,0,1,.89.25.65.65,0,0,1-.25.89c-.91.51-1.85,1-2.81,1.47A.62.62,0,0,1,75.07,80.42Zm-61.8-1.67a.66.66,0,0,1-.44-.17,25.65,25.65,0,0,1-2.24-2.31.66.66,0,0,1,.07-.92.64.64,0,0,1,.92.07,24.43,24.43,0,0,0,2.13,2.19.66.66,0,0,1,0,.92A.64.64,0,0,1,13.27,78.75ZM81,77.07a.66.66,0,0,1-.55-.3.65.65,0,0,1,.19-.9c.87-.58,1.72-1.18,2.52-1.79a.66.66,0,0,1,.92.13.64.64,0,0,1-.13.91c-.83.63-1.7,1.25-2.59,1.84A.69.69,0,0,1,81,77.07ZM8.93,73.55a.67.67,0,0,1-.56-.31,24.6,24.6,0,0,1-1.53-2.82A.66.66,0,0,1,8,69.87a25.55,25.55,0,0,0,1.45,2.68.65.65,0,0,1-.21.9A.59.59,0,0,1,8.93,73.55Zm77.42-.63a.65.65,0,0,1-.43-1.14c.77-.7,1.51-1.42,2.2-2.16a.65.65,0,1,1,.95.9c-.71.76-1.48,1.51-2.28,2.23A.61.61,0,0,1,86.35,72.92ZM46.21,68c-.9,0-1.8,0-2.68,0a.65.65,0,0,1,0-1.3c.86,0,1.74,0,2.63,0h.49a.65.65,0,0,1,.65.65.66.66,0,0,1-.65.66ZM91,67.92a.61.61,0,0,1-.39-.13.64.64,0,0,1-.13-.91,29.72,29.72,0,0,0,1.7-2.55.65.65,0,1,1,1.12.67,26.81,26.81,0,0,1-1.78,2.66A.65.65,0,0,1,91,67.92Zm-40.59,0a.66.66,0,0,1,0-1.31c1,0,2.07-.13,3.11-.22a.65.65,0,1,1,.11,1.3c-1,.09-2.1.17-3.15.23Zm-10.45-.18h-.07c-1.08-.1-2.14-.24-3.15-.4a.65.65,0,0,1-.54-.75A.64.64,0,0,1,36.9,66c1,.15,2,.29,3.07.39a.66.66,0,0,1-.06,1.31ZM6.12,67.38a.65.65,0,0,1-.63-.46,29.88,29.88,0,0,1-.78-3.1.65.65,0,0,1,.51-.77.66.66,0,0,1,.77.51,28.22,28.22,0,0,0,.75,3,.64.64,0,0,1-.43.81A.42.42,0,0,1,6.12,67.38Zm51-.11A.65.65,0,0,1,57,66c1.07-.15,2.11-.31,3.08-.49a.66.66,0,0,1,.23,1.29c-1,.18-2,.35-3.13.49Zm-23.91-.68-.17,0C32,66.29,30.94,66,30,65.63a.65.65,0,1,1,.45-1.23c.92.33,1.91.64,2.94.9a.65.65,0,0,1,.47.79A.66.66,0,0,1,33.21,66.59ZM63.79,66a.66.66,0,0,1-.63-.47.65.65,0,0,1,.45-.81,25.78,25.78,0,0,0,2.89-1,.65.65,0,1,1,.5,1.2,26.87,26.87,0,0,1-3,1.07ZM26.86,64.19a.71.71,0,0,1-.31-.08,20.5,20.5,0,0,1-2.72-1.76.66.66,0,0,1,.8-1A18.49,18.49,0,0,0,27.17,63a.65.65,0,0,1,.27.88A.67.67,0,0,1,26.86,64.19Zm43.12-1a.67.67,0,0,1-.55-.29.66.66,0,0,1,.18-.91,10.84,10.84,0,0,0,2.23-1.93.65.65,0,1,1,1,.84,12.08,12.08,0,0,1-2.5,2.18A.69.69,0,0,1,70,63.21ZM94.3,62a.69.69,0,0,1-.24,0,.65.65,0,0,1-.36-.85,18.57,18.57,0,0,0,.87-2.89.65.65,0,0,1,.77-.51.67.67,0,0,1,.51.78,19.17,19.17,0,0,1-.94,3.1A.65.65,0,0,1,94.3,62ZM4.83,60.72a.65.65,0,0,1-.65-.59C4.09,59.09,4,58,4,56.94a.66.66,0,0,1,.65-.66h0a.67.67,0,0,1,.66.66c0,1,.05,2.07.13,3.07a.65.65,0,0,1-.59.71Zm16.8-.79a.66.66,0,0,1-.52-.24,15.34,15.34,0,0,1-1.74-2.77.67.67,0,0,1,.31-.88.65.65,0,0,1,.87.31,13,13,0,0,0,1.59,2.52.65.65,0,0,1-.11.92A.61.61,0,0,1,21.63,59.93ZM73.7,57.85a.66.66,0,0,1-.66-.64,3.31,3.31,0,0,0-1.13-2.3.65.65,0,0,1,.91-.94,4.58,4.58,0,0,1,1.53,3.2.65.65,0,0,1-.63.68ZM95.47,55.4a.65.65,0,0,1-.65-.61v-.13a21,21,0,0,0-.43-2.87.66.66,0,0,1,1.28-.29,22.07,22.07,0,0,1,.45,3l0,.15a.67.67,0,0,1-.61.7ZM4.84,53.93h0a.64.64,0,0,1-.6-.7v-.09a31,31,0,0,1,.43-3.09.66.66,0,0,1,.77-.52.67.67,0,0,1,.52.77,28,28,0,0,0-.41,3v.07A.65.65,0,0,1,4.84,53.93Zm14-.1a.65.65,0,0,1-.64-.53l0-.11a23.22,23.22,0,0,1-.41-3.08.65.65,0,0,1,.6-.7A.66.66,0,0,1,19,50a24.62,24.62,0,0,0,.39,2.92l0,.1a.65.65,0,0,1-.51.77Zm50.45-.62a.74.74,0,0,1-.25-.05L68.69,53c-.93-.35-1.79-.69-2.6-1a.64.64,0,0,1-.35-.85.65.65,0,0,1,.86-.35c.8.34,1.63.67,2.55,1l.35.14a.64.64,0,0,1,.36.85A.65.65,0,0,1,69.26,53.21ZM63,50.49a.67.67,0,0,1-.31-.07c-1-.53-1.93-1.07-2.76-1.62a.65.65,0,1,1,.72-1.09c.8.52,1.69,1,2.65,1.55a.66.66,0,0,1,.28.88A.67.67,0,0,1,63,50.49Zm30.74-1.61a.64.64,0,0,1-.57-.34,8.92,8.92,0,0,0-1.78-2.29.65.65,0,0,1,.88-1,10.13,10.13,0,0,1,2,2.62.66.66,0,0,1-.26.89A.61.61,0,0,1,93.77,48.88ZM6.15,47.28a.63.63,0,0,1-.19,0,.65.65,0,0,1-.43-.82c.31-1,.67-2,1.07-3a.66.66,0,0,1,.85-.36.65.65,0,0,1,.36.85c-.39,1-.74,1.94-1,2.91A.66.66,0,0,1,6.15,47.28Zm12.28-.21h-.06a.65.65,0,0,1-.59-.71,25.33,25.33,0,0,1,.51-3.18.66.66,0,0,1,1.28.29,22.72,22.72,0,0,0-.49,3A.65.65,0,0,1,18.43,47.07Zm39-.41a.62.62,0,0,1-.44-.18A15.22,15.22,0,0,1,54.84,44a.65.65,0,1,1,1.07-.75,14.11,14.11,0,0,0,2,2.26.65.65,0,0,1-.45,1.13ZM88.8,44.45a.66.66,0,0,1-.27-.06,19.82,19.82,0,0,0-2.85-1A.66.66,0,1,1,86,42.1a23.28,23.28,0,0,1,3,1.1.65.65,0,0,1-.27,1.25Zm-6.5-1.92h-.13c-1.08-.22-2.21-.43-3.07-.58a.66.66,0,0,1,.23-1.29c.87.16,2,.37,3.1.59a.65.65,0,0,1-.13,1.29Zm-6.69-1.24h-.13a25.71,25.71,0,0,1-3.1-.83.65.65,0,1,1,.42-1.24,25.09,25.09,0,0,0,3,.79.65.65,0,0,1-.14,1.29ZM53.78,41a.65.65,0,0,1-.62-.47,12.2,12.2,0,0,1-.5-3.27.66.66,0,0,1,.65-.66h0a.65.65,0,0,1,.65.65,10.84,10.84,0,0,0,.44,2.91A.65.65,0,0,1,54,41,.58.58,0,0,1,53.78,41Zm-45,0a.65.65,0,0,1-.58-1c.48-.94,1-1.87,1.56-2.78a.65.65,0,0,1,.9-.22.66.66,0,0,1,.22.9c-.54.88-1.05,1.79-1.52,2.69A.64.64,0,0,1,8.73,41ZM20,40.47a.65.65,0,0,1-.62-.88c.36-1,.78-1.91,1.27-2.94a.66.66,0,0,1,1.18.57c-.48,1-.88,1.92-1.22,2.83A.66.66,0,0,1,20,40.47Zm49.27-1.53a.64.64,0,0,1-.35-.1,9.08,9.08,0,0,1-2.48-2.26.64.64,0,0,1,.14-.91.65.65,0,0,1,.91.14,7.77,7.77,0,0,0,2.14,1.93.65.65,0,0,1-.36,1.2Zm-57-3.72a.6.6,0,0,1-.38-.13.65.65,0,0,1-.15-.91c.64-.87,1.3-1.71,2-2.51a.65.65,0,1,1,1,.85c-.65.77-1.3,1.59-1.91,2.43A.68.68,0,0,1,12.3,35.22Zm10.63-.88a.63.63,0,0,1-.32-.08.64.64,0,0,1-.25-.88l.18-.35c.47-.86.91-1.66,1.28-2.4a.65.65,0,1,1,1.17.58c-.38.76-.82,1.58-1.3,2.45L23.5,34A.64.64,0,0,1,22.93,34.34Zm30.83,0-.16,0a.66.66,0,0,1-.47-.8,20,20,0,0,1,1-3.06.66.66,0,0,1,1.21.51,19,19,0,0,0-1,2.87A.66.66,0,0,1,53.76,34.32Zm12.09-.89h0a.66.66,0,0,1-.65-.66A8,8,0,0,1,66,29.48a.66.66,0,0,1,1.18.57,6.51,6.51,0,0,0-.7,2.74A.66.66,0,0,1,65.85,33.43Zm-49.1-3.35a.67.67,0,0,1-.47-.2.66.66,0,0,1,0-.93,29.07,29.07,0,0,1,2.44-2.09.66.66,0,0,1,.79,1.05,23.59,23.59,0,0,0-2.33,2A.64.64,0,0,1,16.75,30.08Zm8.72-2a.66.66,0,0,1-.66-.65,2,2,0,0,0-.26-1,1,1,0,0,0-.94-.48,3.51,3.51,0,0,0-1.09.22.66.66,0,0,1-.83-.41.65.65,0,0,1,.4-.83c1.68-.57,3-.25,3.6.85a3.33,3.33,0,0,1,.43,1.63.66.66,0,0,1-.64.67Zm30.94,0a.68.68,0,0,1-.33-.09.65.65,0,0,1-.23-.89c.13-.23.27-.46.42-.7.4-.67.84-1.34,1.28-2a.65.65,0,0,1,1.08.73c-.43.64-.85,1.29-1.25,1.94l-.4.68A.67.67,0,0,1,56.41,28.08Zm12.33-.63a.66.66,0,0,1-.45-.18.65.65,0,0,1,0-.92,17.17,17.17,0,0,1,2.48-2.12.65.65,0,0,1,.75,1.07,16.31,16.31,0,0,0-2.29,1.95A.61.61,0,0,1,68.74,27.45Zm5.51-3.93a.62.62,0,0,1-.57-.35.65.65,0,0,1,.27-.88,31.74,31.74,0,0,1,2.9-1.35.65.65,0,0,1,.49,1.21,29.22,29.22,0,0,0-2.78,1.3A.67.67,0,0,1,74.25,23.52Zm-14-1.05a.71.71,0,0,1-.41-.13.66.66,0,0,1-.11-.92c.65-.83,1.34-1.65,2-2.44a.65.65,0,0,1,.92-.06.66.66,0,0,1,.06.93c-.69.77-1.35,1.57-2,2.38A.65.65,0,0,1,60.25,22.47ZM80.56,21a.65.65,0,0,1-.17-1.28c1-.27,2.07-.5,3.13-.68a.65.65,0,0,1,.75.53.66.66,0,0,1-.53.76c-1,.17-2,.39-3,.65A.55.55,0,0,1,80.56,21ZM94.06,20a.65.65,0,0,1,0-1.3,3.22,3.22,0,0,0,2.1-1.4.64.64,0,0,1,.91-.12.66.66,0,0,1,.12.92,4.49,4.49,0,0,1-3,1.9Zm-6.8,0a.66.66,0,0,1,0-1.31c.92-.06,1.89-.09,2.86-.09h.32a.66.66,0,1,1,0,1.31h-.32c-1,0-1.88,0-2.77.09ZM64.78,17.41a.66.66,0,0,1-.47-.19.67.67,0,0,1,0-.93c.76-.74,1.54-1.46,2.34-2.15a.65.65,0,0,1,.92.06.64.64,0,0,1-.07.92c-.77.67-1.53,1.38-2.27,2.11A.67.67,0,0,1,64.78,17.41ZM98.16,15,98,15a.65.65,0,0,1-.48-.79,9.15,9.15,0,0,0,.25-2.07c0-.27,0-.55,0-.82A.65.65,0,0,1,99,11.2c0,.32,0,.64,0,1a10.19,10.19,0,0,1-.29,2.38A.65.65,0,0,1,98.16,15ZM69.93,13a.64.64,0,0,1-.52-.26.66.66,0,0,1,.12-.92c.85-.64,1.73-1.26,2.6-1.83a.65.65,0,1,1,.72,1.09c-.85.56-1.7,1.16-2.53,1.79A.7.7,0,0,1,69.93,13Zm5.69-3.71a.64.64,0,0,1-.57-.34A.65.65,0,0,1,75.3,8c.94-.52,1.9-1,2.84-1.45a.66.66,0,1,1,.55,1.19c-.91.42-1.84.9-2.75,1.4A.62.62,0,0,1,75.62,9.27Zm21.56-.76a.66.66,0,0,1-.54-.29,6.84,6.84,0,0,0-2-2,.67.67,0,0,1-.19-.91.66.66,0,0,1,.91-.19,8.52,8.52,0,0,1,2.42,2.36.66.66,0,0,1-.55,1Zm-15.38-2A.64.64,0,0,1,81.19,6a.65.65,0,0,1,.4-.83,30.3,30.3,0,0,1,3.07-.92A.65.65,0,1,1,85,5.54C84,5.77,83,6.07,82,6.42A.78.78,0,0,1,81.8,6.46Zm9.75-1.4h-.1a13.18,13.18,0,0,0-3-.08.66.66,0,0,1-.7-.61.65.65,0,0,1,.6-.7,15.25,15.25,0,0,1,3.28.1.65.65,0,0,1-.1,1.29Z"/><path class="cls-4" d="M21.66,29.18C19.8,27.83,8.58,37.49,7.27,52.89,5.72,71.26,16.68,85.5,48.7,82.68c29.5-2.61,44.4-18.3,43.53-28.49s-8.06-9.87-18.59-11.77C60.36,40,60.42,29.07,67.14,24.19,77,17,84.87,15.58,91.38,16,95,16.25,98.9,9.2,93,6.4c-4.74-2.26-24,3.71-34.56,21C50,41.07,60.35,46.63,69.67,50.14,79.18,53.73,82,62.7,62.16,67.76,53.92,69.86,22.33,74.09,17.27,55,13.76,41.79,23.25,30.33,21.66,29.18Z"/><path class="cls-2" d="M32.4,106.78c-10.24,3.16-11.13,18.43-4.83,23.07,9.91,7.31,21.21,4.25,22.89-7.25C51.67,114.37,42.36,103.7,32.4,106.78Z"/><path class="cls-3" d="M38.44,134.72h0A19.44,19.44,0,0,1,27,130.59c-3.37-2.49-5-7.84-4.09-13.31,1-5.64,4.39-9.89,9.2-11.38a13.16,13.16,0,0,1,3.82-.58A15.35,15.35,0,0,1,47.37,111c3.06,3.55,4.56,7.94,4,11.76C50.29,130.12,45.33,134.72,38.44,134.72ZM36,107.15a11.21,11.21,0,0,0-3.28.5c-4.13,1.28-7.1,5-7.93,9.94-.8,4.73.58,9.47,3.37,11.53a17.67,17.67,0,0,0,10.32,3.77h0c5.92,0,10.18-4,11.12-10.43.47-3.25-.89-7.19-3.57-10.29A13.56,13.56,0,0,0,36,107.15Z"/><path class="cls-4" d="M34.71,113c-7,.63-8.11,15,3.61,13.21C47.2,124.9,47.07,111.9,34.71,113Z"/><path class="cls-3" d="M36.81,131.4a.68.68,0,0,1-.68-.66.63.63,0,0,1,.63-.65h.07a7.84,7.84,0,0,0,1.7-.19,8.36,8.36,0,0,0,1.12-.29.65.65,0,0,1,.82.43.66.66,0,0,1-.43.82,10.24,10.24,0,0,1-1.24.32A9.12,9.12,0,0,1,36.81,131.4Zm-3.57-.86a.67.67,0,0,1-.3-.08,9.5,9.5,0,0,1-2.64-2.06.66.66,0,0,1,.05-.93.65.65,0,0,1,.92,0,8.26,8.26,0,0,0,2.27,1.78.65.65,0,0,1,.28.88A.64.64,0,0,1,33.24,130.54Zm9.83-1.33a.66.66,0,0,1-.51-.25.65.65,0,0,1,.1-.92,8.69,8.69,0,0,0,2-2.15.65.65,0,0,1,.9-.21.66.66,0,0,1,.2.91,9.8,9.8,0,0,1-2.24,2.48A.67.67,0,0,1,43.07,129.21Zm-14.25-3.67a.65.65,0,0,1-.59-.39,14.83,14.83,0,0,1-1-3.13.65.65,0,0,1,1.28-.25,13.71,13.71,0,0,0,.9,2.85.64.64,0,0,1-.33.86A.66.66,0,0,1,28.82,125.54Zm17.69-2h-.13a.67.67,0,0,1-.51-.78,10.45,10.45,0,0,0,.23-2.24c0-.24,0-.47,0-.7a.67.67,0,0,1,.61-.7.68.68,0,0,1,.7.62c0,.26,0,.52,0,.78a12.29,12.29,0,0,1-.26,2.51A.64.64,0,0,1,46.51,123.51Zm-18.87-4.6h0a.66.66,0,0,1-.61-.7,11.65,11.65,0,0,1,.65-3.24.65.65,0,1,1,1.23.44,11.06,11.06,0,0,0-.58,2.89A.65.65,0,0,1,27.64,118.91ZM46,116.82a.64.64,0,0,1-.61-.42,10.74,10.74,0,0,0-1.4-2.59.65.65,0,0,1,.13-.92A.67.67,0,0,1,45,113a12.14,12.14,0,0,1,1.57,2.91.65.65,0,0,1-.38.84A.66.66,0,0,1,46,116.82Zm-15.82-4.07a.62.62,0,0,1-.46-.19.65.65,0,0,1,0-.92,7.79,7.79,0,0,1,2.87-1.83,14.73,14.73,0,0,1,2.62-.69.65.65,0,1,1,.2,1.29A13.67,13.67,0,0,0,33,111a6.31,6.31,0,0,0-2.39,1.52A.65.65,0,0,1,30.16,112.75Zm11.66-1.15a.63.63,0,0,1-.34-.1,8,8,0,0,0-2.69-1,.66.66,0,0,1-.51-.77.64.64,0,0,1,.77-.51,9.45,9.45,0,0,1,3.12,1.22.65.65,0,0,1-.35,1.21Z"/><path class="cls-2" d="M58.41,103.72c-10.24,3.17-11.13,18.43-4.83,23.08,9.91,7.3,21.21,4.24,22.9-7.26C77.68,111.32,68.37,100.64,58.41,103.72Z"/><path class="cls-3" d="M64.45,131.66h0A19.42,19.42,0,0,1,53,127.53c-3.38-2.48-5-7.83-4.1-13.3,1-5.64,4.4-9.9,9.2-11.38a12.84,12.84,0,0,1,3.82-.59,15.32,15.32,0,0,1,11.42,5.66c3.07,3.54,4.56,7.94,4,11.75C76.3,127.07,71.34,131.66,64.45,131.66ZM62,104.09a10.9,10.9,0,0,0-3.28.51c-4.13,1.27-7.1,5-7.93,9.93-.8,4.73.58,9.47,3.37,11.53a17.61,17.61,0,0,0,10.33,3.77c5.92,0,10.18-4,11.12-10.42.48-3.25-.89-7.2-3.57-10.3A13.56,13.56,0,0,0,62,104.09Z"/><path class="cls-4" d="M60.72,110c-7,.63-8.1,15,3.61,13.21C73.22,121.84,73.08,108.85,60.72,110Z"/><path class="cls-3" d="M62.82,128.34a.67.67,0,0,1-.68-.65.64.64,0,0,1,.63-.66h0a8.52,8.52,0,0,0,1.72-.18c.38-.08.76-.18,1.12-.29a.65.65,0,1,1,.39,1.24,12.54,12.54,0,0,1-1.24.33A9.76,9.76,0,0,1,62.82,128.34Zm-3.57-.86a.66.66,0,0,1-.3-.07,9.54,9.54,0,0,1-2.64-2.07.65.65,0,0,1,1-.88,8.12,8.12,0,0,0,2.27,1.79.65.65,0,0,1-.3,1.23Zm9.83-1.33a.65.65,0,0,1-.4-1.16,8.69,8.69,0,0,0,1.94-2.16.66.66,0,0,1,.9-.2.64.64,0,0,1,.2.9A9.63,9.63,0,0,1,69.48,126,.61.61,0,0,1,69.08,126.15Zm-14.24-3.67a.64.64,0,0,1-.6-.39,14.74,14.74,0,0,1-1-3.12.66.66,0,0,1,1.29-.25,12.86,12.86,0,0,0,.89,2.84.66.66,0,0,1-.33.87A.85.85,0,0,1,54.84,122.48Zm17.69-2h-.14a.66.66,0,0,1-.51-.77,10.54,10.54,0,0,0,.23-2.25c0-.23,0-.47,0-.7a.66.66,0,0,1,.62-.69.65.65,0,0,1,.69.61c0,.26,0,.52,0,.78a11.78,11.78,0,0,1-.26,2.52A.64.64,0,0,1,72.53,120.45Zm-18.88-4.6h0a.65.65,0,0,1-.61-.7,12.42,12.42,0,0,1,.65-3.24.66.66,0,0,1,.84-.39.65.65,0,0,1,.39.83,11.06,11.06,0,0,0-.58,2.89A.65.65,0,0,1,53.65,115.85ZM72,113.77a.63.63,0,0,1-.61-.43,10.93,10.93,0,0,0-1.4-2.59.64.64,0,0,1,.13-.91A.66.66,0,0,1,71,110a12.14,12.14,0,0,1,1.57,2.91.67.67,0,0,1-.38.85A1,1,0,0,1,72,113.77Zm-15.82-4.08a.62.62,0,0,1-.46-.19.65.65,0,0,1,0-.92,7.85,7.85,0,0,1,2.87-1.82,13.92,13.92,0,0,1,2.62-.69.65.65,0,0,1,.75.54.67.67,0,0,1-.54.75A12,12,0,0,0,59,108a6.49,6.49,0,0,0-2.39,1.51A.63.63,0,0,1,56.17,109.69Zm11.67-1.15a.64.64,0,0,1-.35-.1,8.25,8.25,0,0,0-2.69-1,.65.65,0,0,1,.26-1.28,9.45,9.45,0,0,1,3.12,1.22.65.65,0,0,1-.34,1.21Z"/><path class="cls-5" d="M20.07,64.46c-7.91-3.67-9.36,6.43,1.87,12.6s26.92,1.73,27.14-3S36.89,72.28,20.07,64.46Z"/><path class="cls-5" d="M38.51,112.76c-5.16-1-9.73,5.54-2.37,7.51S43.68,113.75,38.51,112.76Z"/></g></g></svg>