<svg xmlns="http://www.w3.org/2000/svg" viewBox="0 0 78.56 110.34"><defs><style>.cls-1{opacity:0.15;}.cls-2{fill:#ff2114;}.cls-3{fill:#96130b;}.cls-4{fill:#fc3a35;}.cls-5{fill:#fc5151;}</style></defs><title>char6Asset 23</title><g id="Layer_2" data-name="Layer 2"><g id="Layer_1-2" data-name="Layer 1"><path class="cls-1" d="M45.9,11c-2.16,5.22,15.54,63.24,12.94,69.81-3.66,9.22-45.62,4.25-51.39,2C1,80.34-3,100.05,6.75,107.15s50.34.58,57.68-2.62,13.15-7.71,13.21-18.3c.09-15.1-6.93-58-9.09-68.24C67,10.74,50.1.87,45.9,11Z"/><path class="cls-1" d="M33.24,25c-8,0-18.24,13.67-19.42,22.11-1.06,7.62,6,9.81,7.77,10.38,3.2,1,2.52,4.35-5,3.13C8.25,59.31,5.38,65.89,14.33,71s22.79,3,27-9.11-3-16.37-6.08-17.56-1-2.53,2.87-3.88S39.26,25,33.24,25Z"/><path class="cls-2" d="M45.9,5.25c-2.16,5.21,15.54,63.23,12.94,69.8-3.66,9.22-45.62,4.25-51.39,2C1,74.59-3,94.29,6.75,101.4s50.34.58,57.68-2.63,13.15-7.7,13.21-18.3c.09-15.09-6.93-58-9.09-68.23C67,5,50.1-4.89,45.9,5.25Z"/><path class="cls-3" d="M24,105.5h0c-8.72,0-14.71-1.13-17.79-3.36C-.46,97.29-.9,87.18.93,81.56,2.09,78,4.06,76,6.34,76a4.08,4.08,0,0,1,1.44.27c3,1.16,17.49,3.29,30.26,3.29,11.47,0,18.74-1.75,20-4.8s-3.28-22.09-6.93-37.28C46.63,19,44,7.51,45.06,4.9A7.53,7.53,0,0,1,52.53,0c6.72,0,15.73,6.42,16.92,12.05,2,9.37,9.19,52.74,9.11,68.43-.07,11.59-7,16.18-13.76,19.13C59.47,101.94,39.07,105.5,24,105.5ZM6.34,77.78c-1.39,0-2.8,1.66-3.67,4.35C1,87.23,1.35,96.35,7.29,100.66c2.72,2,8.5,3,16.71,3,15.82,0,35.45-3.72,40.06-5.74C70.61,95.08,76.67,91,76.73,80.47c.08-14.6-6.78-57.19-9.07-68-.93-4.37-8.9-10.59-15.13-10.59A5.76,5.76,0,0,0,46.75,5.6c-.91,2.2,2.81,17.71,6.09,31.4,5,20.94,8.22,34.93,6.85,38.39-1.57,4-8.85,6-21.65,6-12.6,0-27.44-2.07-30.92-3.41A2.2,2.2,0,0,0,6.34,77.78Z"/><path class="cls-3" d="M24.33,102.13a.66.66,0,0,1,0-1.31c1,0,2-.06,3.12-.11a.65.65,0,0,1,.68.62.64.64,0,0,1-.62.68c-1.09.06-2.15.1-3.16.12Zm-3.66,0h0c-1.12,0-2.19-.11-3.18-.21a.64.64,0,0,1-.58-.71.66.66,0,0,1,.72-.59c.95.1,2,.17,3.08.21a.65.65,0,0,1,0,1.3Zm10.45-.34a.66.66,0,0,1-.65-.6.65.65,0,0,1,.6-.7l3.11-.3a.65.65,0,0,1,.14,1.3l-3.14.3Zm-17.19-.45a.39.39,0,0,1-.15,0,14.53,14.53,0,0,1-3.1-1.07.65.65,0,0,1,.58-1.17,13.4,13.4,0,0,0,2.82,1,.65.65,0,0,1,.48.79A.64.64,0,0,1,13.93,101.31Zm24-.28a.66.66,0,0,1-.65-.57.65.65,0,0,1,.57-.73l3.09-.43a.65.65,0,1,1,.2,1.29c-1,.15-2.08.3-3.13.43Zm6.73-1a.67.67,0,0,1-.65-.55.66.66,0,0,1,.54-.75l3.09-.54a.65.65,0,1,1,.23,1.28c-1,.19-2,.37-3.1.55Zm6.69-1.24a.65.65,0,0,1-.64-.53.66.66,0,0,1,.51-.77c1.06-.21,2.08-.43,3.06-.64a.65.65,0,0,1,.29,1.27l-3.09.66ZM8.08,98.06a.67.67,0,0,1-.47-.2,13.58,13.58,0,0,1-2-2.63.65.65,0,0,1,.24-.89.65.65,0,0,1,.89.24A11.72,11.72,0,0,0,8.56,97a.65.65,0,0,1-.48,1.11ZM58,97.3a.64.64,0,0,1-.63-.49A.65.65,0,0,1,57.8,96c1.08-.27,2.1-.54,3-.8a.66.66,0,0,1,.81.45.65.65,0,0,1-.45.81c-.93.26-2,.53-3.06.81Zm6.53-1.92a.66.66,0,0,1-.61-.41.65.65,0,0,1,.37-.85l.37-.16a17.94,17.94,0,0,0,2.32-1.2.65.65,0,1,1,.69,1.1,17.59,17.59,0,0,1-2.49,1.3l-.41.17A.69.69,0,0,1,64.48,95.38ZM4.86,92.17a.65.65,0,0,1-.63-.51,12.88,12.88,0,0,1-.35-3c0-.1,0-.21,0-.31a.65.65,0,0,1,.65-.64h0a.65.65,0,0,1,.63.67v.29a11.5,11.5,0,0,0,.31,2.66.65.65,0,0,1-.49.78Zm65.21-.55a.66.66,0,0,1-.44-.16.65.65,0,0,1,0-.92,11.31,11.31,0,0,0,1.63-2.46.66.66,0,0,1,.88-.3.67.67,0,0,1,.3.88,12.72,12.72,0,0,1-1.83,2.74A.64.64,0,0,1,70.07,91.62Zm2.93-6-.15,0a.66.66,0,0,1-.49-.79,25.85,25.85,0,0,0,.5-3,.65.65,0,0,1,1.3.14,26.48,26.48,0,0,1-.53,3.17A.66.66,0,0,1,73,85.58Zm-67.76-.1a.67.67,0,0,1-.24,0,.66.66,0,0,1-.37-.85,6.88,6.88,0,0,1,2-2.82.66.66,0,0,1,.92.11.65.65,0,0,1-.1.92,5.36,5.36,0,0,0-1.58,2.27A.66.66,0,0,1,5.24,85.48Zm28.58-.62h0c-1,0-2.1,0-3.15-.06a.67.67,0,0,1-.64-.68.65.65,0,0,1,.68-.63c1,0,2.09.05,3.12.06a.66.66,0,0,1,.65.66A.66.66,0,0,1,33.82,84.86Zm3.66,0a.66.66,0,0,1,0-1.31c1.05,0,2.1-.06,3.11-.11a.66.66,0,0,1,.69.62.65.65,0,0,1-.62.68c-1,.06-2.09.1-3.16.12ZM27,84.63h0c-1.07-.06-2.13-.14-3.15-.22a.64.64,0,0,1-.59-.7.65.65,0,0,1,.7-.6q1.51.12,3.12.21a.67.67,0,0,1,.61.7A.65.65,0,0,1,27,84.63Zm17.25-.17a.65.65,0,0,1-.65-.59.67.67,0,0,1,.59-.72c1.07-.1,2.11-.22,3.09-.36a.66.66,0,0,1,.18,1.3c-1,.14-2.06.26-3.15.37Zm-24-.38h-.07C19.08,84,18,83.83,17,83.7a.65.65,0,0,1-.56-.74.65.65,0,0,1,.73-.56c1,.13,2,.26,3.1.37a.66.66,0,0,1-.07,1.31ZM51,83.47a.64.64,0,0,1-.63-.52.66.66,0,0,1,.5-.78c1.06-.22,2.07-.48,3-.76a.66.66,0,0,1,.38,1.26c-1,.28-2,.55-3.1.78Zm-37.48-.34h-.12a18.21,18.21,0,0,1-3.06-.76l-.09,0a.64.64,0,0,1-.39-.83.65.65,0,0,1,.83-.4l.12,0a17.31,17.31,0,0,0,2.82.69.65.65,0,0,1-.11,1.3Zm44-1.73a.65.65,0,0,1-.59-.37.64.64,0,0,1,.31-.87,14.33,14.33,0,0,0,2.56-1.54.65.65,0,0,1,.92.12.64.64,0,0,1-.12.91,15,15,0,0,1-2.8,1.69A.71.71,0,0,1,57.46,81.4Zm16.28-2.57h0a.66.66,0,0,1-.64-.67c0-.37,0-.76,0-1.15v-.26c0-.53,0-1.1,0-1.69a.66.66,0,0,1,.64-.68.65.65,0,0,1,.67.64c0,.61,0,1.19,0,1.73V77c0,.4,0,.79,0,1.17A.65.65,0,0,1,73.74,78.83ZM62.52,77.06a.67.67,0,0,1-.3-.08A.64.64,0,0,1,62,76.1a6.46,6.46,0,0,0,.53-1.43,4.29,4.29,0,0,0,.07-.88v-.38a.65.65,0,0,1,1.3,0c0,.14,0,.28,0,.42A4.82,4.82,0,0,1,63.75,75a7.31,7.31,0,0,1-.65,1.74A.65.65,0,0,1,62.52,77.06Zm11-5a.66.66,0,0,1-.66-.61c-.06-1-.14-2-.23-3.12a.65.65,0,1,1,1.3-.11c.09,1.09.17,2.14.24,3.14a.67.67,0,0,1-.61.7ZM62.79,70.4a.66.66,0,0,1-.65-.55c-.14-.9-.33-1.94-.55-3.08a.66.66,0,0,1,1.29-.25c.22,1.16.41,2.21.55,3.12a.65.65,0,0,1-.54.75ZM73,65.24a.66.66,0,0,1-.65-.59q-.15-1.52-.33-3.12a.67.67,0,0,1,.58-.72.65.65,0,0,1,.72.58c.12,1.07.23,2.11.33,3.13a.65.65,0,0,1-.58.72ZM61.5,63.71a.66.66,0,0,1-.64-.52c-.21-1-.44-2-.67-3.07a.65.65,0,1,1,1.27-.28c.24,1.06.47,2.09.68,3.08a.65.65,0,0,1-.5.77Zm10.73-5.24a.65.65,0,0,1-.65-.57c-.13-1-.25-2.07-.38-3.12a.65.65,0,0,1,.56-.73.65.65,0,0,1,.73.57c.13,1.05.26,2.09.38,3.12a.65.65,0,0,1-.57.73ZM60,57.06a.66.66,0,0,1-.64-.51c-.23-1-.47-2-.72-3a.65.65,0,0,1,.49-.79.64.64,0,0,1,.78.48c.25,1,.49,2.06.73,3.07a.65.65,0,0,1-.49.78Zm11.37-5.34a.66.66,0,0,1-.65-.57c-.13-1-.27-2.07-.42-3.11a.66.66,0,0,1,1.3-.18L72,51a.65.65,0,0,1-.56.73Zm-13-1.29a.65.65,0,0,1-.64-.5c-.24-1-.49-2-.74-3a.65.65,0,1,1,1.27-.31c.25,1,.5,2,.74,3a.64.64,0,0,1-.48.79A.39.39,0,0,1,58.42,50.43Zm12-5.46a.66.66,0,0,1-.65-.56c-.14-1-.3-2.08-.45-3.1a.66.66,0,1,1,1.3-.2l.45,3.12a.66.66,0,0,1-.56.74ZM56.8,43.82a.66.66,0,0,1-.64-.5l-.75-3.06a.66.66,0,0,1,.48-.79.65.65,0,0,1,.79.48L57.43,43a.65.65,0,0,1-.47.79Zm12.65-5.58a.66.66,0,0,1-.65-.56c-.16-1-.32-2.08-.48-3.1a.66.66,0,0,1,.55-.75.65.65,0,0,1,.74.55c.16,1,.32,2,.48,3.11a.65.65,0,0,1-.54.74Zm-14.28-1a.65.65,0,0,1-.63-.5l-.75-3.05a.65.65,0,0,1,1.27-.31l.75,3a.66.66,0,0,1-.48.79Zm13.22-5.69a.65.65,0,0,1-.64-.55c-.17-1.06-.34-2.1-.51-3.1a.65.65,0,0,1,1.29-.21c.17,1,.34,2,.51,3.1a.66.66,0,0,1-.54.75Zm-14.82-.93a.65.65,0,0,1-.64-.5q-.37-1.56-.72-3.06a.65.65,0,1,1,1.27-.3c.23,1,.48,2,.72,3.05a.64.64,0,0,1-.48.79A.39.39,0,0,1,53.57,30.58Zm13.71-5.79a.65.65,0,0,1-.65-.54q-.28-1.65-.54-3.09a.66.66,0,1,1,1.29-.23c.17,1,.35,2,.54,3.1a.65.65,0,0,1-.53.75ZM52,23.94a.65.65,0,0,1-.64-.5c-.24-1.06-.47-2.09-.68-3.08a.66.66,0,0,1,.5-.78.67.67,0,0,1,.78.5c.21,1,.44,2,.68,3.07a.65.65,0,0,1-.5.78Zm14-5.85a.65.65,0,0,1-.64-.53c-.17-.88-.32-1.64-.46-2.27a5.12,5.12,0,0,0-.19-.72A.65.65,0,1,1,66,14.16a7.33,7.33,0,0,1,.23.86c.14.64.29,1.4.46,2.29a.66.66,0,0,1-.52.77Zm-15.48-.81a.64.64,0,0,1-.64-.52c-.23-1.14-.42-2.18-.58-3.11a.66.66,0,0,1,.53-.76.67.67,0,0,1,.76.54c.16.92.35,2,.57,3.07a.65.65,0,0,1-.51.77ZM63.67,11.8a.65.65,0,0,1-.52-.26,16.83,16.83,0,0,0-2-2.24.66.66,0,0,1,0-.93.65.65,0,0,1,.92,0,18.84,18.84,0,0,1,2.18,2.42.67.67,0,0,1-.14.92A.69.69,0,0,1,63.67,11.8ZM49.5,10.56a.66.66,0,0,1-.65-.59,17.06,17.06,0,0,1-.1-1.74A4.14,4.14,0,0,1,49,6.5a.48.48,0,0,1,.12-.16.62.62,0,0,1,.07-.19,4.22,4.22,0,0,1,2.95-2,.67.67,0,0,1,.76.53.65.65,0,0,1-.53.76,2.89,2.89,0,0,0-2,1.41.62.62,0,0,1-.09.12.58.58,0,0,1,0,.14,3,3,0,0,0-.14,1.16c0,.44,0,1,.09,1.61a.65.65,0,0,1-.59.71Zm9.18-3.32a.64.64,0,0,1-.35-.1,13.82,13.82,0,0,0-2.68-1.32.65.65,0,1,1,.44-1.23A15,15,0,0,1,59,6a.65.65,0,0,1-.35,1.21Z"/><path class="cls-4" d="M52.79,8c-3.27,3.77,14.74,54.36,12.44,67.56S22.7,87.08,10.09,84.21c-2.45-.56-5.18,7.16.85,11.24,7.42,5,42.62.18,51.89-4.27,6.37-3.06,8.49-6.52,8.55-15.88.07-13.33-6.21-54.6-7.84-59.54C61.85,10.62,55,5.51,52.79,8Z"/><path class="cls-2" d="M33.24,19.28C25.26,19.28,15,33,13.82,41.4c-1.06,7.62,6,9.81,7.77,10.37,3.2,1,2.52,4.36-5,3.13-8.32-1.35-11.19,5.23-2.24,10.3s22.79,3,27-9.12-3-16.37-6.08-17.55-1-2.54,2.87-3.89S39.26,19.28,33.24,19.28Z"/><path class="cls-3" d="M24.37,68.7h0A21.66,21.66,0,0,1,13.88,66c-4.39-2.49-6.57-5.65-5.82-8.48.6-2.29,3-3.71,6.4-3.71a13.67,13.67,0,0,1,2.25.19,17.7,17.7,0,0,0,2.83.25c2.33,0,2.93-.65,2.95-.78s-.31-.55-1.18-.82c-7.91-2.51-8.93-7.57-8.39-11.38,1.17-8.41,11.66-22.9,20.32-22.9,4,0,6.61,4.87,7.38,9.4.54,3.19.24,6.89-2.19,7.74C35.8,36.43,35,37,34.78,37.26a3.29,3.29,0,0,0,.81.41c2.71,1.06,11.19,5.52,6.61,18.71C39.57,64,32.73,68.7,24.37,68.7ZM14.46,55.64c-2.48,0-4.25.9-4.63,2.35s.68,4,4.95,6.41a19.78,19.78,0,0,0,9.59,2.47c7.67,0,13.69-4.14,16.11-11.09,3.93-11.32-2.57-15.24-5.55-16.4-.51-.2-2.08-.81-2-2.12s1.41-2.25,4.95-3.48c1.05-.36,1.47-2.82,1-5.7-.64-3.82-2.82-7.88-5.57-7.88-7.2,0-17.33,12.9-18.51,21.32-.64,4.53,1.76,7.68,7.11,9.37,1.69.54,2.64,1.65,2.45,2.86-.1.7-.78,2.33-4.75,2.33a20.25,20.25,0,0,1-3.12-.27A12.37,12.37,0,0,0,14.46,55.64Z"/><path class="cls-3" d="M24.63,64.87a16.1,16.1,0,0,1-3.09-.3.64.64,0,0,1-.52-.76.65.65,0,0,1,.77-.52,15.19,15.19,0,0,0,2.84.28h.15a.65.65,0,1,1,0,1.3h-.16Zm3.77-.47a.66.66,0,0,1-.16-1.29A13.3,13.3,0,0,0,31,62.05a.66.66,0,1,1,.61,1.16,14.66,14.66,0,0,1-3.06,1.17Zm-10.22-.92a.66.66,0,0,1-.27-.06,14.93,14.93,0,0,1-1.63-.86c-.44-.27-.83-.51-1.18-.74a.67.67,0,0,1-.19-.91.66.66,0,0,1,.91-.18q.49.33,1.14.72a16.21,16.21,0,0,0,1.49.78.65.65,0,0,1-.27,1.25ZM34.3,61.17a.67.67,0,0,1-.47-.2.65.65,0,0,1,0-.93,13.18,13.18,0,0,0,1.92-2.27.66.66,0,0,1,.91-.18.65.65,0,0,1,.18.9A14.67,14.67,0,0,1,34.75,61,.63.63,0,0,1,34.3,61.17ZM14,59.51a.65.65,0,0,1-.62-.46.64.64,0,0,1,.43-.81,14.21,14.21,0,0,1,3.29-.33.66.66,0,0,1,.68.64.65.65,0,0,1-.64.67,14.85,14.85,0,0,0-2.94.26A.69.69,0,0,1,14,59.51Zm6.78-.45a.65.65,0,0,1,0-1.3l1.5-.13a11.3,11.3,0,0,0,1.48-.26A.65.65,0,1,1,24,58.63a10.15,10.15,0,0,1-1.67.3c-.52.06-1,.1-1.55.13Zm6.12-2.33a.62.62,0,0,1-.35-.1.65.65,0,0,1-.2-.91,2.92,2.92,0,0,0,.43-1.56,3.93,3.93,0,0,0-.12-.95.65.65,0,0,1,1.27-.32A5.14,5.14,0,0,1,28,54.16a4.2,4.2,0,0,1-.64,2.27A.68.68,0,0,1,26.85,56.73ZM38,55.52a.62.62,0,0,1-.23,0,.66.66,0,0,1-.39-.84c.08-.21.16-.42.22-.63.26-.8.47-1.57.63-2.29a.66.66,0,0,1,.78-.5.67.67,0,0,1,.5.78c-.17.76-.39,1.57-.66,2.41l-.24.69A.66.66,0,0,1,38,55.52ZM25.3,50.68a.68.68,0,0,1-.38-.12,1.65,1.65,0,0,0-.5-.27L24,50.15a16.11,16.11,0,0,1-1.82-.63.65.65,0,1,1,.5-1.2,17.73,17.73,0,0,0,1.69.57l.52.16a3.34,3.34,0,0,1,.85.45.65.65,0,0,1-.39,1.18Zm13.9-1.8a.66.66,0,0,1-.65-.62,7,7,0,0,0-.66-2.77.65.65,0,0,1,1.17-.58,8.3,8.3,0,0,1,.8,3.29.66.66,0,0,1-.63.68ZM19.43,47.47a.63.63,0,0,1-.51-.25,6.27,6.27,0,0,1-1.33-3.17.65.65,0,1,1,1.29-.18,5.17,5.17,0,0,0,1.06,2.54.66.66,0,0,1-.1.92A.7.7,0,0,1,19.43,47.47ZM36,43.22a.64.64,0,0,1-.35-.1,17.19,17.19,0,0,0-1.79-.93c-.31-.14-.59-.26-.83-.39l-.14-.08a.64.64,0,0,1-.26-.88.65.65,0,0,1,.88-.27l.13.07c.22.12.48.24.76.37a18.19,18.19,0,0,1,2,1,.67.67,0,0,1,.2.91A.66.66,0,0,1,36,43.22ZM18.49,41l-.15,0a.67.67,0,0,1-.49-.79,20.4,20.4,0,0,1,1-3.07.65.65,0,0,1,1.21.49,19.3,19.3,0,0,0-.95,2.88A.66.66,0,0,1,18.49,41ZM30.63,39.3a.65.65,0,0,1-.6-.39,3.64,3.64,0,0,1-.33-1.51,3.83,3.83,0,0,1,.66-2.1.65.65,0,1,1,1.09.72,2.41,2.41,0,0,0-.23,2.37.65.65,0,0,1-.33.86A.63.63,0,0,1,30.63,39.3Zm-9.56-4.59a.68.68,0,0,1-.31-.08.66.66,0,0,1-.26-.89c.51-.91,1.07-1.83,1.67-2.72a.65.65,0,0,1,1.09.72q-.87,1.31-1.62,2.64A.64.64,0,0,1,21.07,34.71Zm12.77-.48a.64.64,0,0,1-.55-.31.66.66,0,0,1,.2-.9,4.35,4.35,0,0,0,1.68-2.09.65.65,0,1,1,1.21.48,5.54,5.54,0,0,1-2.19,2.71A.66.66,0,0,1,33.84,34.23ZM24.9,29.09A.66.66,0,0,1,24.39,28a28.12,28.12,0,0,1,2.16-2.37.64.64,0,0,1,.92,0,.66.66,0,0,1,0,.92c-.69.68-1.38,1.45-2.07,2.28A.65.65,0,0,1,24.9,29.09Zm11.35-.86a.66.66,0,0,1-.65-.6,7.08,7.08,0,0,0-.8-2.73.65.65,0,0,1,1.14-.64,8.23,8.23,0,0,1,1,3.25.65.65,0,0,1-.59.71Zm-6.42-3.79a.64.64,0,0,1-.55-.3.66.66,0,0,1,.2-.9,6.27,6.27,0,0,1,3.26-1.16.65.65,0,1,1,0,1.3,5.11,5.11,0,0,0-2.56,1A.64.64,0,0,1,29.83,24.44Z"/><path class="cls-4" d="M31.84,25.64c-4.07,0-10.64,9-11.45,15.25-.73,5.6,3.45,6.1,4.47,6.89,1.81,1.41,5.51,2.39,3.65,7.46-1.45,4-10.22,3.61-7.09,6.83s12.21-.43,15.11-9.37S32,43.05,30.33,41.54c-3.13-2.84-.85-8.22,1.79-9.28C36.47,30.52,35.17,25.64,31.84,25.64Z"/><path class="cls-5" d="M18.92,86c-11.74-1.48-9.33,8.51,6.32,9.87s23.35-8.59,14.28-8.53A138.7,138.7,0,0,1,18.92,86Z"/><path class="cls-5" d="M24.74,31.15c-4.43,6.05-3.33,10.73-.43,9.85,1.39-.42,4.44-4,7.81-8.74C34.08,29.49,27.51,27.37,24.74,31.15Z"/></g></g></svg>