<svg xmlns="http://www.w3.org/2000/svg" viewBox="0 0 53.44 120.04"><defs><style>.cls-1{opacity:0.15;}.cls-2{fill:#d069ff;}.cls-3{fill:#a426de;}.cls-4{fill:#d17efc;}.cls-5{fill:#d38fff;}</style></defs><title>char6Asset 25</title><g id="Layer_2" data-name="Layer 2"><g id="Layer_1-2" data-name="Layer 1"><path class="cls-1" d="M9.28,30.79c1.14,3.53,6.51,3.64,9.63,2,6.43-3.33,10.56-2.07,11.52-1S18.4,32,10.8,37.71-1.52,52.23,2.19,73,12,115.48,14.68,118.57c4,4.47,19.76-2,19.08-8.78S14.52,62,18.4,54.25c3.24-6.48,16.88-6.24,24.14-5.4S55.2,36.7,51.15,26.06,32.92,3.77,22.62,7.32,7.59,25.55,9.28,30.79Z"/><path class="cls-2" d="M9.28,25c1.14,3.54,6.51,3.64,9.63,2,6.43-3.33,10.56-2.07,11.52-1S18.4,26.21,10.8,32-1.52,46.47,2.19,67.23s9.76,42.5,12.49,45.58c4,4.47,19.76-2,19.08-8.77S14.52,56.28,18.4,48.5c3.24-6.49,16.88-6.25,24.14-5.41S55.2,30.94,51.15,20.3,32.92-2,22.62,1.56,7.59,19.8,9.28,25Z"/><path class="cls-3" d="M18.94,115.2A6.36,6.36,0,0,1,14,113.42c-2.94-3.32-9-25.26-12.71-46-4.08-22.82,2.24-31.09,9-36.17A20.19,20.19,0,0,1,14.12,29c-2.89-.12-5-1.47-5.71-3.65C6.52,19.44,11.76,4.33,22.32.7A13.09,13.09,0,0,1,26.64,0C36.8,0,48.41,10.55,52,20c2.47,6.48,1.7,14.63-1.87,19.82-2.08,3-4.86,4.54-7.7,4.2a65.55,65.55,0,0,0-7.28-.42c-4.95,0-13.61.69-15.93,5.32-2.38,4.78,5.11,25.16,10.07,38.64,2.87,7.81,5.14,14,5.38,16.4a6.88,6.88,0,0,1-2.09,5.26A20.65,20.65,0,0,1,18.94,115.2ZM26.55,24c2.39,0,3.92.74,4.56,1.44a1,1,0,0,1,.22,1.07c-.29.78-1.07.87-3.68,1.17-4,.46-11.39,1.31-16.3,5C5.08,37.43-.82,45.22,3.09,67.07S13,109.51,15.37,112.21a4.84,4.84,0,0,0,3.57,1.16A18.86,18.86,0,0,0,31.22,108a5.26,5.26,0,0,0,1.63-3.84c-.22-2.19-2.56-8.57-5.28-16-7-18.93-12.52-35-10-40.08,2.62-5.24,11-6.34,17.57-6.34a66.77,66.77,0,0,1,7.5.43c2.15.26,4.29-1,6-3.42,2.66-3.86,4.32-11.18,1.67-18.13-3.38-8.87-14.21-18.8-23.65-18.8a11.29,11.29,0,0,0-3.72.6C12.92,5.87,8.69,20.2,10.15,24.75c.7,2.16,3.33,2.39,4.43,2.39a8.61,8.61,0,0,0,3.9-.9A18.11,18.11,0,0,1,26.55,24Zm0,1.83a13.19,13.19,0,0,0-4.08.72c1.86-.33,3.56-.53,4.9-.68A7,7,0,0,0,26.55,25.82Z"/><path class="cls-3" d="M20.43,111.51h-.18a.66.66,0,0,1-.64-.68.64.64,0,0,1,.68-.63h.14a9,9,0,0,0,2.72-.47.64.64,0,0,1,.82.41.65.65,0,0,1-.42.83A10.09,10.09,0,0,1,20.43,111.51ZM17,110.2a.66.66,0,0,1-.47-.19,2.09,2.09,0,0,1-.2-.22,10.2,10.2,0,0,1-1.46-2.72.65.65,0,0,1,.35-.85.66.66,0,0,1,.86.35,8.62,8.62,0,0,0,1.23,2.35l.15.17a.66.66,0,0,1,0,.92A.65.65,0,0,1,17,110.2Zm9.7-.77a.65.65,0,0,1-.35-1.2,12.85,12.85,0,0,0,2.33-1.86.65.65,0,0,1,.94.9A13.26,13.26,0,0,1,27,109.33.64.64,0,0,1,26.65,109.43Zm3.75-5.19a.66.66,0,0,1-.64-.53,26.92,26.92,0,0,0-.81-3,.65.65,0,1,1,1.24-.4,29.69,29.69,0,0,1,.86,3.12.66.66,0,0,1-.52.76ZM14.17,104a.65.65,0,0,1-.62-.44c-.31-.92-.62-1.93-1-3a.65.65,0,0,1,.44-.81.64.64,0,0,1,.81.44c.32,1.07.64,2.07.94,3a.65.65,0,0,1-.42.82Zm14.22-6.3a.65.65,0,0,1-.61-.44c-.33-.92-.68-1.91-1.06-3a.65.65,0,0,1,.39-.84.66.66,0,0,1,.84.39c.38,1,.73,2,1.06,3a.65.65,0,0,1-.4.83A.54.54,0,0,1,28.39,97.73Zm-16.17-.21a.67.67,0,0,1-.64-.48c-.26-1-.54-2-.81-3a.66.66,0,0,1,.46-.8.65.65,0,0,1,.8.46l.81,3a.64.64,0,0,1-.45.8Zm13.85-6.19a.66.66,0,0,1-.62-.43l-1.09-3a.66.66,0,0,1,.39-.84.66.66,0,0,1,.84.39l1.09,3a.66.66,0,0,1-.39.84A.57.57,0,0,1,26.07,91.33ZM10.5,90.94a.66.66,0,0,1-.64-.5c-.25-1-.49-2-.74-3.06a.65.65,0,1,1,1.27-.3l.74,3a.65.65,0,0,1-.48.79A.4.4,0,0,1,10.5,90.94Zm13.2-6a.63.63,0,0,1-.61-.43c-.36-1-.73-2-1.09-3a.65.65,0,1,1,1.23-.45c.36,1,.72,2,1.08,3a.65.65,0,0,1-.61.88ZM8.93,84.31a.65.65,0,0,1-.64-.5c-.23-1-.46-2-.68-3.07a.65.65,0,1,1,1.27-.28c.23,1,.46,2.05.68,3.06a.65.65,0,0,1-.49.78Zm12.44-5.77a.66.66,0,0,1-.62-.43l-1.05-3a.65.65,0,1,1,1.23-.43l1.05,3a.64.64,0,0,1-.39.83A.57.57,0,0,1,21.37,78.54ZM7.48,77.67a.66.66,0,0,1-.64-.52l-.63-3.09a.65.65,0,1,1,1.28-.25l.63,3.07a.65.65,0,0,1-.51.77Zm11.64-5.56a.64.64,0,0,1-.61-.44q-.53-1.52-1-3a.64.64,0,0,1,.42-.82.65.65,0,0,1,.82.42l1,3a.65.65,0,0,1-.41.83A.76.76,0,0,1,19.12,72.11ZM6.15,71a.66.66,0,0,1-.65-.54l-.57-3.09a.66.66,0,1,1,1.29-.23c.18,1,.37,2,.57,3.08a.65.65,0,0,1-.52.76ZM17,65.62a.64.64,0,0,1-.62-.46c-.32-1.07-.62-2.09-.88-3a.66.66,0,0,1,.46-.8.64.64,0,0,1,.8.46c.26.94.55,1.95.87,3a.66.66,0,0,1-.44.82A.58.58,0,0,1,17,65.62ZM5,64.3a.65.65,0,0,1-.64-.56c-.17-1.07-.31-2.13-.43-3.13a.66.66,0,0,1,.58-.72.64.64,0,0,1,.72.57c.12,1,.26,2,.42,3.09a.65.65,0,0,1-.55.74Zm10.31-5.25a.66.66,0,0,1-.64-.51c-.25-1.13-.46-2.18-.61-3.12a.64.64,0,0,1,.54-.75.65.65,0,0,1,.75.54c.14.91.35,1.93.6,3a.65.65,0,0,1-.49.78ZM4.21,57.55a.67.67,0,0,1-.66-.62c-.07-1.1-.11-2.17-.11-3.17a.66.66,0,0,1,.65-.66h0a.67.67,0,0,1,.66.66c0,1,0,2,.11,3.09a.67.67,0,0,1-.61.7Zm10.13-5.23h0a.65.65,0,0,1-.64-.67A6.12,6.12,0,0,1,14.2,49l.33-.63a.66.66,0,1,1,1.15.63l-.31.59A5.26,5.26,0,0,0,15,51.68.65.65,0,0,1,14.34,52.32ZM4.24,50.76H4.18A.65.65,0,0,1,3.59,50a29.81,29.81,0,0,1,.46-3.17.67.67,0,0,1,.78-.51.64.64,0,0,1,.5.77,29.8,29.8,0,0,0-.44,3A.65.65,0,0,1,4.24,50.76Zm12.89-4.48a.66.66,0,0,1-.51-1.07,17.25,17.25,0,0,1,2.28-2.32.66.66,0,0,1,.92.08.64.64,0,0,1-.08.92A17.18,17.18,0,0,0,17.63,46,.63.63,0,0,1,17.13,46.28ZM5.72,44.15a.69.69,0,0,1-.24,0,.65.65,0,0,1-.37-.84,18.84,18.84,0,0,1,1.46-2.91A.65.65,0,0,1,7.68,41a17.45,17.45,0,0,0-1.35,2.7A.66.66,0,0,1,5.72,44.15ZM22.36,42a.66.66,0,0,1-.3-1.24,19.16,19.16,0,0,1,3-1.23.65.65,0,0,1,.39,1.25A17.72,17.72,0,0,0,22.67,42,.68.68,0,0,1,22.36,42Zm20-1.88a.65.65,0,0,1,0-1.3,4.19,4.19,0,0,0,.84-.1,5.38,5.38,0,0,0,1.7-.84.65.65,0,0,1,.91.15.65.65,0,0,1-.15.91,6.37,6.37,0,0,1-2.13,1,4.8,4.8,0,0,1-1.12.14ZM28.83,40a.65.65,0,0,1-.09-1.3,31,31,0,0,1,3.19-.29.64.64,0,0,1,.68.63.66.66,0,0,1-.63.68,28.36,28.36,0,0,0-3.05.27ZM38.75,40h0c-1-.08-2-.16-3.11-.2a.67.67,0,0,1-.63-.69.66.66,0,0,1,.68-.62c1.11,0,2.13.12,3.16.2a.66.66,0,0,1,0,1.31ZM9.36,38.46a.66.66,0,0,1-.45-.18.65.65,0,0,1,0-.92,22.1,22.1,0,0,1,2.38-2.18.65.65,0,0,1,.82,1,21.69,21.69,0,0,0-2.25,2.06A.67.67,0,0,1,9.36,38.46ZM47.74,36.4a.61.61,0,0,1-.34-.1.65.65,0,0,1-.22-.9,11,11,0,0,0,1.18-2.71.67.67,0,0,1,.82-.44.65.65,0,0,1,.44.81,12.45,12.45,0,0,1-1.32,3A.65.65,0,0,1,47.74,36.4Zm-33-2a.65.65,0,0,1-.59-.37.66.66,0,0,1,.3-.88,26.52,26.52,0,0,1,3-1.17.65.65,0,1,1,.41,1.24A23.11,23.11,0,0,0,15,34.32.58.58,0,0,1,14.76,34.39Zm6.45-2.12a.66.66,0,0,1-.64-.51.65.65,0,0,1,.49-.78c.92-.22,1.93-.44,3.09-.67a.66.66,0,0,1,.26,1.29c-1.15.22-2.15.43-3.05.65Zm6.67-1.34a.65.65,0,0,1-.11-1.29c1-.19,2.08-.39,3.07-.6a.66.66,0,0,1,.77.51.65.65,0,0,1-.51.77c-1,.21-2.07.41-3.1.6Zm21.66-1h0a.65.65,0,0,1-.63-.67v-.34a16.21,16.21,0,0,0-.23-2.66A.65.65,0,0,1,50,26a17.79,17.79,0,0,1,.25,2.88c0,.13,0,.25,0,.37A.65.65,0,0,1,49.54,29.92Zm-15-.52a.65.65,0,0,1-.22-1.27c1.17-.42,1.81-.89,1.86-1.33a.65.65,0,0,1,.71-.59.65.65,0,0,1,.59.71c-.13,1.35-1.61,2-2.71,2.44A.62.62,0,0,1,34.51,29.4ZM14,25.41a2.12,2.12,0,0,1-2.17-1.53,7.32,7.32,0,0,1-.33-1.7.66.66,0,0,1,.6-.71.64.64,0,0,1,.7.6,7.2,7.2,0,0,0,.27,1.41.82.82,0,0,0,.93.62A3.81,3.81,0,0,0,15,24a.64.64,0,0,1,.79.47.66.66,0,0,1-.47.8A5,5,0,0,1,14,25.41ZM34.29,25a.69.69,0,0,1-.36-.11,19.34,19.34,0,0,0-2.67-1.43.66.66,0,0,1-.33-.87.64.64,0,0,1,.86-.33,20.31,20.31,0,0,1,2.85,1.53.66.66,0,0,1,.2.91A.68.68,0,0,1,34.29,25Zm-15.78-1.1a.67.67,0,0,1-.59-.37.66.66,0,0,1,.31-.87l.45-.22c.82-.39,1.67-.8,2.45-1.11a.65.65,0,0,1,.85.37.66.66,0,0,1-.37.85c-.73.29-1.52.67-2.36,1.07l-.46.22A.67.67,0,0,1,18.51,23.88Zm29.83-.61a.66.66,0,0,1-.61-.42l-.06-.16A25.37,25.37,0,0,0,46.49,20a.66.66,0,0,1,1.17-.59,29.29,29.29,0,0,1,1.24,2.78l.06.16a.66.66,0,0,1-.39.84A.59.59,0,0,1,48.34,23.27Zm-20.28-.94h-.15a14.31,14.31,0,0,0-3-.38.66.66,0,0,1-.65-.66.67.67,0,0,1,.67-.64,15.51,15.51,0,0,1,3.24.4.65.65,0,0,1-.14,1.29ZM12.49,19.14l-.14,0a.65.65,0,0,1-.49-.78,17.68,17.68,0,0,1,1-3.09.65.65,0,1,1,1.2.51,17.16,17.16,0,0,0-.94,2.87A.66.66,0,0,1,12.49,19.14Zm32.74-1.9a.64.64,0,0,1-.54-.29c-.56-.86-1.17-1.69-1.81-2.49a.65.65,0,0,1,1-.82c.66.83,1.29,1.7,1.88,2.59a.64.64,0,0,1-.19.9A.66.66,0,0,1,45.23,17.24ZM15.22,13a.7.7,0,0,1-.37-.11.65.65,0,0,1-.17-.91,19.9,19.9,0,0,1,2-2.53.65.65,0,0,1,.94.9,19.74,19.74,0,0,0-1.89,2.36A.65.65,0,0,1,15.22,13ZM41,12a.63.63,0,0,1-.46-.19,29,29,0,0,0-2.28-2.06.65.65,0,0,1-.09-.92A.66.66,0,0,1,39,8.7a31.52,31.52,0,0,1,2.37,2.15.65.65,0,0,1,0,.93A.62.62,0,0,1,41,12ZM20,8.12a.65.65,0,0,1-.54-.28.66.66,0,0,1,.17-.91,17.47,17.47,0,0,1,2.82-1.6.65.65,0,0,1,.87.32.66.66,0,0,1-.32.87A15.79,15.79,0,0,0,20.33,8,.67.67,0,0,1,20,8.12Zm15.68-.35a.56.56,0,0,1-.33-.1,19.45,19.45,0,0,0-2.72-1.33.65.65,0,0,1-.37-.85.65.65,0,0,1,.84-.37A20.06,20.06,0,0,1,36,6.55a.64.64,0,0,1,.23.89A.65.65,0,0,1,35.63,7.77ZM26.16,5.49a.66.66,0,0,1-.65-.56.65.65,0,0,1,.55-.74,12.55,12.55,0,0,1,3.3,0,.65.65,0,1,1-.16,1.3,11.19,11.19,0,0,0-2.95,0Z"/><path class="cls-4" d="M23.13,18.28C34.54,14,41.36,25.81,38.32,29.76,36.21,32.49,20,32.12,13.55,37s-9,8.58-7,26.23c1.31,11.6,8.58,40.48,10.88,43.08,3.61,4.08,10.12-.91,9.83-3.79-.57-5.69-17.27-41.6-14-54.54,3.47-13.59,23.35-10.21,26.84-11.14,3.69-1,9-4.17,5.45-14.55C42.5,13.16,32.9,4.93,24.44,8.48,18.4,11,14.52,21.52,23.13,18.28Z"/><path class="cls-5" d="M31.35,8c-6.87-.86-10.67,6.12-2.65,7.67s12.78,9.83,15,8.7S39.75,9,31.35,8Z"/><path class="cls-5" d="M15.45,82.21c-4.89.49-1.79,23.05,6.1,22.49S18.93,81.86,15.45,82.21Z"/></g></g></svg>