<svg xmlns="http://www.w3.org/2000/svg" viewBox="0 0 127.17 97.69"><defs><style>.cls-1{opacity:0.15;}.cls-2{fill:#fff737;}.cls-3{fill:#f7c00a;}.cls-4{fill:#fff069;}.cls-5{fill:#fff18f;}</style></defs><title>char3Asset 7</title><g id="Layer_2" data-name="Layer 2"><g id="Layer_1-2" data-name="Layer 1"><path class="cls-1" d="M43.87,11.53C33.11,14.7,32.18,30,38.8,34.61c10.41,7.3,22.29,4.24,24.06-7.26C64.13,19.13,54.34,8.46,43.87,11.53Z"/><path class="cls-1" d="M73.16,7.21c-10.76,3.17-11.7,18.44-5.08,23.08,10.41,7.3,22.29,4.24,24.06-7.26C93.41,14.81,83.62,4.14,73.16,7.21Z"/><path class="cls-1" d="M9.75,44.18c4.43-4.43,13.83-3,10.78,4.14s-10,15,8.84,21.11S86.67,72,99.64,65.26s9.64-16.94,7.42-20.25-.27-13.72,8.85-9.07,17.42,27.59.83,42.79C94.5,99.12,30.92,105.72,8,85.18-5.4,73.18,3.12,50.81,9.75,44.18Z"/><path class="cls-2" d="M43.87,5.78C33.11,8.94,32.18,24.21,38.8,28.85c10.41,7.31,22.29,4.25,24.06-7.25C64.13,13.37,54.34,2.7,43.87,5.78Z"/><path class="cls-3" d="M50.22,33.72h0A21,21,0,0,1,38.27,29.6c-3.48-2.44-5.22-7.7-4.34-13.1,1-5.76,4.57-10.09,9.68-11.6a14.39,14.39,0,0,1,4-.58,16.43,16.43,0,0,1,12.3,6c3,3.47,4.42,7.73,3.85,11.39C62.63,29.13,57.44,33.72,50.22,33.72ZM47.61,6.15a12.16,12.16,0,0,0-3.48.51c-4.42,1.3-7.56,5.09-8.39,10.13-.78,4.72.66,9.27,3.58,11.31a19.17,19.17,0,0,0,10.9,3.79c6.25,0,10.74-4,11.74-10.43.48-3.14-.81-6.85-3.44-9.92A14.62,14.62,0,0,0,47.61,6.15Z"/><path class="cls-4" d="M46.71,10.33C39.32,11,37.78,27,50.09,25.23,59.43,23.9,59.69,9.21,46.71,10.33Z"/><path class="cls-3" d="M48.51,30.4l-.61,0a.64.64,0,0,1-.61-.69.66.66,0,0,1,.69-.62,8.61,8.61,0,0,0,2.35-.17c.19,0,.38-.08.56-.12a.65.65,0,1,1,.31,1.27l-.61.14A10.64,10.64,0,0,1,48.51,30.4Zm-4.06-1a.71.71,0,0,1-.31-.08,9.58,9.58,0,0,1-2.61-2.09.65.65,0,0,1,0-.92.66.66,0,0,1,.93.05,8.62,8.62,0,0,0,2.27,1.81A.66.66,0,0,1,45,29,.68.68,0,0,1,44.45,29.38Zm10-.71a.66.66,0,0,1-.55-.3.65.65,0,0,1,.21-.9,9.16,9.16,0,0,0,2.18-1.93.65.65,0,0,1,1,.83,10.14,10.14,0,0,1-2.5,2.2A.64.64,0,0,1,54.41,28.67ZM40,24.37a.67.67,0,0,1-.6-.39,14.45,14.45,0,0,1-1-3.13.65.65,0,1,1,1.28-.25,13.44,13.44,0,0,0,.9,2.84.66.66,0,0,1-.33.87A.58.58,0,0,1,40,24.37Zm18.43-1-.2,0a.65.65,0,0,1-.42-.82,10.34,10.34,0,0,0,.46-2.9.66.66,0,1,1,1.31,0,11.48,11.48,0,0,1-.53,3.27A.64.64,0,0,1,58.47,23.4ZM38.89,17.74h-.06a.65.65,0,0,1-.6-.7A11.62,11.62,0,0,1,39,13.79a.66.66,0,0,1,1.22.48,9.79,9.79,0,0,0-.65,2.87A.66.66,0,0,1,38.89,17.74Zm19.56-1a.66.66,0,0,1-.63-.46,10.53,10.53,0,0,0-1.23-2.68.65.65,0,0,1,1.1-.71,11.93,11.93,0,0,1,1.38,3,.64.64,0,0,1-.43.81A.63.63,0,0,1,58.45,16.7Zm-16.85-5a.65.65,0,0,1-.44-1.13,8,8,0,0,1,2.9-1.73.7.7,0,0,1,.55,0A.63.63,0,0,1,45,8.51,14.12,14.12,0,0,1,48.26,8a.66.66,0,0,1,.05,1.31,12.43,12.43,0,0,0-2.93.48.65.65,0,0,1-.51-.07.63.63,0,0,1-.38.35A7,7,0,0,0,42,11.5.61.61,0,0,1,41.6,11.67Zm13.07-.48a.63.63,0,0,1-.39-.13A8.69,8.69,0,0,0,51.7,9.72a.64.64,0,0,1-.42-.82.65.65,0,0,1,.82-.42,10.16,10.16,0,0,1,3,1.53.65.65,0,0,1-.39,1.18Z"/><path class="cls-2" d="M73.16,1.46C62.4,4.62,61.46,19.89,68.08,24.53c10.41,7.3,22.29,4.25,24.06-7.25C93.41,9.05,83.62-1.62,73.16,1.46Z"/><path class="cls-3" d="M79.5,29.4h0a21,21,0,0,1-12-4.12c-3.48-2.44-5.22-7.71-4.33-13.1.94-5.76,4.56-10.1,9.68-11.6a13.91,13.91,0,0,1,4-.58,16.43,16.43,0,0,1,12.3,6c3,3.47,4.42,7.73,3.86,11.39C91.91,24.81,86.72,29.4,79.5,29.4ZM76.89,1.83a12.16,12.16,0,0,0-3.48.51C69,3.64,65.85,7.43,65,12.48c-.77,4.71.67,9.26,3.58,11.3a19.17,19.17,0,0,0,10.9,3.79c6.25,0,10.75-4,11.74-10.43.48-3.14-.81-6.85-3.44-9.92A14.62,14.62,0,0,0,76.89,1.83Z"/><path class="cls-4" d="M75.63,6.24c-8.27,1.1-8.56,16.42,3.74,14.67C88.71,19.58,89.39,4.42,75.63,6.24Z"/><path class="cls-3" d="M77.79,26.08l-.61,0a.67.67,0,0,1-.61-.7.64.64,0,0,1,.69-.61,9,9,0,0,0,2.35-.17c.19,0,.38-.08.56-.12a.65.65,0,0,1,.32,1.27l-.62.14A10.64,10.64,0,0,1,77.79,26.08Zm-4.06-1a.71.71,0,0,1-.31-.08,10,10,0,0,1-2.61-2.09.65.65,0,1,1,1-.87,8.62,8.62,0,0,0,2.27,1.81.66.66,0,0,1,.26.89A.68.68,0,0,1,73.73,25.06Zm10-.71a.65.65,0,0,1-.34-1.21,8.73,8.73,0,0,0,2.18-1.92.65.65,0,0,1,1,.83,10.14,10.14,0,0,1-2.5,2.2A.64.64,0,0,1,83.69,24.35ZM69.32,20a.66.66,0,0,1-.6-.38,14.45,14.45,0,0,1-1-3.13.66.66,0,0,1,.52-.77.64.64,0,0,1,.76.52,13.62,13.62,0,0,0,.9,2.84.65.65,0,0,1-.33.87A.58.58,0,0,1,69.32,20Zm18.43-1a.63.63,0,0,1-.19,0,.65.65,0,0,1-.43-.82,10.34,10.34,0,0,0,.46-2.9.66.66,0,1,1,1.31,0,11.48,11.48,0,0,1-.53,3.27A.64.64,0,0,1,87.75,19.08ZM68.17,13.41h-.06a.65.65,0,0,1-.59-.71,11.28,11.28,0,0,1,.73-3.23.66.66,0,1,1,1.22.48,9.79,9.79,0,0,0-.65,2.87A.65.65,0,0,1,68.17,13.41Zm19.56-1a.64.64,0,0,1-.62-.46,10.91,10.91,0,0,0-1.24-2.68.66.66,0,0,1,.2-.9.65.65,0,0,1,.9.19,12.31,12.31,0,0,1,1.39,3,.65.65,0,0,1-.44.81A.63.63,0,0,1,87.73,12.38Zm-16.85-5a.66.66,0,0,1-.48-.21.65.65,0,0,1,0-.92,8,8,0,0,1,2.91-1.73.68.68,0,0,1,.54,0,.63.63,0,0,1,.41-.35,14.12,14.12,0,0,1,3.24-.53.64.64,0,0,1,.68.63A.65.65,0,0,1,77.6,5a12.43,12.43,0,0,0-2.94.48.65.65,0,0,1-.51-.07.63.63,0,0,1-.38.35,7,7,0,0,0-2.45,1.45A.66.66,0,0,1,70.88,7.35ZM84,6.87a.65.65,0,0,1-.39-.13A8.69,8.69,0,0,0,81,5.4a.64.64,0,0,1-.42-.82.65.65,0,0,1,.82-.42,10,10,0,0,1,3,1.53A.65.65,0,0,1,84,6.87Z"/><path class="cls-2" d="M9.75,38.42c4.43-4.42,13.83-3,10.78,4.15s-10,15,8.84,21.11,57.3,2.57,70.27-4.18,9.64-16.93,7.42-20.25-.27-13.71,8.85-9.07,17.42,27.59.83,42.8C94.5,93.37,30.92,100,8,79.43-5.4,67.42,3.12,45.05,9.75,38.42Z"/><path class="cls-3" d="M52.61,92.85c-20,0-36-4.53-45.22-12.74C2.75,76,.2,70.1,0,63.19c-.27-9.94,4.41-20.73,9.1-25.42A9.93,9.93,0,0,1,16,35a6.12,6.12,0,0,1,5.28,2.38c.68,1,1.25,2.82.09,5.56-.39.93-.85,1.87-1.29,2.77-1.67,3.44-3.24,6.69-2,9.69s5,5.31,11.52,7.43c6.25,2,15.09,3.09,25.57,3.09,17.46,0,36-3,44-7.21,4.78-2.49,7.7-5.66,8.67-9.44a12.35,12.35,0,0,0-1.59-9.49c-1.34-2-1.31-5.78.08-8.38a5.87,5.87,0,0,1,5.33-3.29,10.34,10.34,0,0,1,4.62,1.28c5.11,2.6,9.45,10.08,10.55,18.2a29.19,29.19,0,0,1-9.52,26.08C104.83,85.13,78.81,92.85,52.61,92.85ZM16,36.81a8,8,0,0,0-5.61,2.26C6.08,43.38,1.58,53.81,1.84,63.14,2,69.63,4.3,74.88,8.61,78.75,17.44,86.66,33.07,91,52.61,91c25.78,0,51.3-7.52,63.51-18.72a27.42,27.42,0,0,0,8.95-24.49c-1-7.55-5-14.47-9.57-16.81-3.48-1.77-6.12-1.34-7.5,1.25-1.18,2.2-1,5.19-.17,6.49a14.25,14.25,0,0,1,1.83,11c-1.1,4.3-4.33,7.86-9.6,10.6-8.26,4.3-27.12,7.42-44.84,7.42-10.67,0-19.7-1.1-26.13-3.18-7.06-2.29-11.2-5-12.64-8.45-1.61-3.77.22-7.55,2-11.2.45-.93.88-1.81,1.25-2.69.67-1.58.7-2.9.08-3.84A4.42,4.42,0,0,0,16,36.81Z"/><path class="cls-3" d="M53.68,89.09H52.32a.66.66,0,0,1,0-1.31h0q1.56,0,3.12,0h0a.65.65,0,1,1,0,1.3Zm-5-.11h0c-1.06,0-2.12-.12-3.15-.19a.66.66,0,0,1,.1-1.31c1,.08,2.06.14,3.11.19a.66.66,0,0,1,0,1.31Zm10.46,0a.66.66,0,0,1,0-1.31c1,0,2.08-.1,3.12-.18a.67.67,0,0,1,.7.61.65.65,0,0,1-.61.7L59.16,89Zm6.79-.5a.65.65,0,0,1-.07-1.3c1-.1,2.07-.22,3.1-.35a.65.65,0,0,1,.73.57.65.65,0,0,1-.56.73c-1.05.13-2.11.25-3.14.35Zm-24,0h-.07c-1-.11-2.11-.25-3.13-.4a.66.66,0,1,1,.19-1.3c1,.15,2,.29,3.09.4a.66.66,0,0,1-.08,1.31Zm30.77-.84a.66.66,0,0,1-.65-.56.65.65,0,0,1,.55-.74c1-.16,2.06-.34,3.08-.52a.66.66,0,0,1,.76.53.67.67,0,0,1-.53.76c-1,.18-2.08.36-3.11.52Zm-37.49-.18h-.12c-1-.2-2.09-.43-3.1-.66a.66.66,0,0,1,.3-1.28c1,.24,2,.46,3,.66a.64.64,0,0,1,.52.76A.65.65,0,0,1,35.17,87.43Zm44.18-1a.66.66,0,0,1-.14-1.3c1-.21,2-.44,3.05-.68a.64.64,0,0,1,.78.48.65.65,0,0,1-.48.79c-1,.24-2,.47-3.08.69Zm-50.79-.55a.57.57,0,0,1-.18,0c-1-.3-2-.62-3-1A.66.66,0,0,1,25,84a.65.65,0,0,1,.83-.4c1,.34,1.95.66,3,1a.65.65,0,0,1,.44.81A.64.64,0,0,1,28.56,85.84Zm57.4-1a.65.65,0,0,1-.18-1.28c1-.28,2-.57,3-.87a.67.67,0,0,1,.82.44.66.66,0,0,1-.44.82c-1,.3-2,.59-3,.87A.52.52,0,0,1,86,84.79Zm-63.8-1.23a.56.56,0,0,1-.25,0c-1-.42-2-.88-2.89-1.34a.65.65,0,0,1-.28-.88.66.66,0,0,1,.88-.29c.89.46,1.83.89,2.8,1.31a.65.65,0,0,1-.26,1.25Zm70.3-.76a.65.65,0,0,1-.62-.44.65.65,0,0,1,.4-.83c1-.34,2-.7,2.94-1.06a.65.65,0,1,1,.46,1.22c-1,.37-2,.73-3,1.07A.52.52,0,0,1,92.46,82.8ZM16.13,80.44a.73.73,0,0,1-.35-.09c-.91-.58-1.8-1.18-2.63-1.81a.65.65,0,0,1,.78-1q1.21.9,2.55,1.74a.65.65,0,0,1,.2.9A.63.63,0,0,1,16.13,80.44Zm82.67-.09a.65.65,0,0,1-.6-.39.66.66,0,0,1,.34-.86c1-.42,1.92-.85,2.84-1.29a.65.65,0,0,1,.87.31.66.66,0,0,1-.31.87c-.93.45-1.89.89-2.88,1.31A.58.58,0,0,1,98.8,80.35Zm6.11-3a.64.64,0,0,1-.57-.34.66.66,0,0,1,.26-.89c.92-.5,1.82-1,2.68-1.56a.65.65,0,1,1,.69,1.1c-.88.55-1.8,1.09-2.74,1.61A.72.72,0,0,1,104.91,77.38ZM10.75,76.31a.63.63,0,0,1-.46-.19,20.47,20.47,0,0,1-2.13-2.43.64.64,0,0,1,.13-.91.66.66,0,0,1,.92.13,19.55,19.55,0,0,0,2,2.28.67.67,0,0,1,0,.93A.66.66,0,0,1,10.75,76.31Zm99.9-2.57a.64.64,0,0,1-.52-.26.66.66,0,0,1,.13-.92c.86-.63,1.67-1.27,2.42-1.92a.65.65,0,0,1,.92.07.64.64,0,0,1-.07.92c-.77.67-1.61,1.34-2.49,2A.69.69,0,0,1,110.65,73.74ZM54.46,71.68A.66.66,0,0,1,53.8,71a.67.67,0,0,1,.66-.66c1,0,2.07,0,3.12,0h0a.66.66,0,0,1,0,1.31c-1.06,0-2.12,0-3.15,0Zm-3.66-.05h0c-1.07,0-2.13-.08-3.16-.14a.65.65,0,0,1-.61-.69.64.64,0,0,1,.69-.61c1,.06,2.07.11,3.12.14a.66.66,0,0,1,0,1.31Zm10.45-.13a.66.66,0,0,1,0-1.31c1,0,2.08-.12,3.12-.2a.66.66,0,0,1,.7.6.65.65,0,0,1-.61.7c-1,.08-2.1.15-3.14.21ZM44,71.2H44c-1.07-.1-2.12-.22-3.14-.36A.65.65,0,0,1,41,69.54c1,.13,2.05.25,3.09.35A.66.66,0,0,1,44,71.2ZM68,71A.66.66,0,0,1,68,69.67c1-.1,2.08-.22,3.11-.34a.65.65,0,0,1,.15,1.3c-1,.12-2.08.24-3.13.34ZM6.78,70.84a.65.65,0,0,1-.59-.37,20.18,20.18,0,0,1-1.2-3,.65.65,0,0,1,1.25-.39A19.71,19.71,0,0,0,7.36,69.9a.64.64,0,0,1-.3.87A.58.58,0,0,1,6.78,70.84Zm30.5-.56h-.12c-1-.19-2.09-.4-3.1-.63a.65.65,0,0,1,.29-1.27c1,.22,2,.43,3,.61a.66.66,0,0,1-.11,1.3Zm37.5-.14a.65.65,0,0,1-.64-.55.66.66,0,0,1,.55-.75q1.57-.23,3.09-.48A.65.65,0,0,1,78,69.65l-3.11.49Zm41-.9a.66.66,0,0,1-.49-1.1,27.13,27.13,0,0,0,1.93-2.38.65.65,0,0,1,.91-.15.67.67,0,0,1,.15.92,29.7,29.7,0,0,1-2,2.49A.67.67,0,0,1,115.73,69.24ZM81.49,69a.65.65,0,0,1-.64-.53.64.64,0,0,1,.52-.76c1-.2,2.06-.41,3.06-.63a.65.65,0,0,1,.27,1.28c-1,.21-2,.43-3.09.63Zm-50.83-.25a.57.57,0,0,1-.18,0c-1-.29-2.05-.61-3-1a.66.66,0,0,1,.43-1.24c1,.34,1.95.65,3,.94a.65.65,0,0,1,.45.8A.67.67,0,0,1,30.66,68.76Zm57.47-1.2A.65.65,0,0,1,88,66.27c1-.26,2-.52,3-.79a.65.65,0,0,1,.8.45.66.66,0,0,1-.45.81c-1,.27-2,.54-3.06.8ZM24.25,66.49a.56.56,0,0,1-.25,0c-1-.44-2-.88-2.89-1.33a.66.66,0,0,1,.59-1.17c.86.43,1.81.87,2.81,1.3a.65.65,0,0,1,.34.86A.63.63,0,0,1,24.25,66.49Zm70.43-.78a.65.65,0,0,1-.62-.45.65.65,0,0,1,.42-.83c1-.34,2-.69,2.92-1a.66.66,0,0,1,.85.38.65.65,0,0,1-.38.84c-.9.36-1.91.71-3,1.06A.48.48,0,0,1,94.68,65.71ZM4.82,64.36a.65.65,0,0,1-.64-.57A22.56,22.56,0,0,1,4,60.58a.64.64,0,0,1,.64-.66h0a.65.65,0,0,1,.65.65,25.14,25.14,0,0,0,.22,3,.65.65,0,0,1-.56.74Zm114.8-.67a.64.64,0,0,1-.3-.08.65.65,0,0,1-.28-.88,23.93,23.93,0,0,0,1.24-2.79.66.66,0,0,1,1.23.46,28.6,28.6,0,0,1-1.31,2.94A.67.67,0,0,1,119.62,63.69ZM18.21,63.4a.74.74,0,0,1-.35-.1,23.09,23.09,0,0,1-2.6-1.91.65.65,0,1,1,.85-1,21.33,21.33,0,0,0,2.45,1.79.66.66,0,0,1-.35,1.21ZM101,63.14a.66.66,0,0,1-.58-.34.67.67,0,0,1,.27-.89c.93-.48,1.83-1,2.68-1.54a.66.66,0,0,1,.9.21.65.65,0,0,1-.2.9c-.89.56-1.82,1.09-2.77,1.59A.63.63,0,0,1,101,63.14Zm5.73-3.65a.64.64,0,0,1-.52-.25.65.65,0,0,1,.12-.92,29.19,29.19,0,0,0,2.33-2,.65.65,0,1,1,.9.94,31.86,31.86,0,0,1-2.43,2.09A.66.66,0,0,1,106.7,59.49Zm-93.42-.68a.65.65,0,0,1-.56-.32,7.87,7.87,0,0,1-1.12-3.2.65.65,0,0,1,1.3-.14,6.45,6.45,0,0,0,.94,2.66.65.65,0,0,1-.22.9A.59.59,0,0,1,13.28,58.81ZM4.81,57.58H4.73a.65.65,0,0,1-.57-.73,31.52,31.52,0,0,1,.56-3.15.64.64,0,0,1,.78-.49A.64.64,0,0,1,6,54a28.94,28.94,0,0,0-.53,3A.66.66,0,0,1,4.81,57.58Zm117.11-.27h-.13a.66.66,0,0,1-.51-.78,23.41,23.41,0,0,0,.46-3,.66.66,0,0,1,1.31.12,26,26,0,0,1-.49,3.18A.64.64,0,0,1,121.92,57.31Zm-10.4-2.58a.65.65,0,0,1-.39-.13.64.64,0,0,1-.13-.91,14.77,14.77,0,0,0,1.56-2.56.65.65,0,1,1,1.18.55,15.39,15.39,0,0,1-1.69,2.79A.67.67,0,0,1,111.52,54.73Zm-98.8-2.46-.21,0a.66.66,0,0,1-.41-.83,18.42,18.42,0,0,1,1.35-3,.65.65,0,0,1,1.14.63,17.51,17.51,0,0,0-1.25,2.75A.65.65,0,0,1,12.72,52.27ZM6.38,51a.83.83,0,0,1-.22,0,.66.66,0,0,1-.4-.84c.36-1,.77-2,1.22-3a.65.65,0,1,1,1.18.56A29.61,29.61,0,0,0,7,50.54.66.66,0,0,1,6.38,51Zm116.09-.41a.66.66,0,0,1-.65-.63,26.15,26.15,0,0,0-.33-3,.67.67,0,0,1,.54-.75.65.65,0,0,1,.75.54,28.54,28.54,0,0,1,.35,3.19.67.67,0,0,1-.63.69Zm-8.39-2h0a.65.65,0,0,1-.62-.68c0-.13,0-.26,0-.39a6.7,6.7,0,0,0-.45-2.42.65.65,0,0,1,1.22-.47,7.93,7.93,0,0,1,.54,2.89c0,.15,0,.3,0,.46A.66.66,0,0,1,114.08,48.54Zm-98.26-2.3a.74.74,0,0,1-.25-.05.66.66,0,0,1-.35-.86,6.32,6.32,0,0,0,.54-2.52,2,2,0,0,0,0-.25.66.66,0,0,1,.63-.68.65.65,0,0,1,.68.62c0,.1,0,.2,0,.3a7.56,7.56,0,0,1-.65,3A.64.64,0,0,1,15.82,46.24ZM9.34,44.87A.58.58,0,0,1,9,44.76a.65.65,0,0,1-.19-.9,19.6,19.6,0,0,1,2-2.58.59.59,0,0,1,.4-.2.69.69,0,0,1,.2-.42A4.42,4.42,0,0,1,14.6,39.1a.65.65,0,0,1,.6.7.66.66,0,0,1-.71.6,3.34,3.34,0,0,0-2.21,1.2.71.71,0,0,1-.38.18.66.66,0,0,1-.17.39,19.56,19.56,0,0,0-1.84,2.4A.63.63,0,0,1,9.34,44.87Zm112-1a.65.65,0,0,1-.62-.46,24.74,24.74,0,0,0-1.09-2.85.65.65,0,0,1,.31-.87.66.66,0,0,1,.87.32,26.42,26.42,0,0,1,1.16,3,.66.66,0,0,1-.43.82A.69.69,0,0,1,121.29,43.88Zm-9.13-1.78a.66.66,0,0,1-.61-.42,24.16,24.16,0,0,1-1-3.08.65.65,0,0,1,1.27-.3,25,25,0,0,0,.9,2.92.65.65,0,0,1-.38.84A.59.59,0,0,1,112.16,42.1Zm6.19-4.32a.65.65,0,0,1-.53-.27,12.87,12.87,0,0,0-2-2.23.66.66,0,0,1-.06-.93.65.65,0,0,1,.92-.06,14.31,14.31,0,0,1,2.18,2.46.65.65,0,0,1-.15.91A.68.68,0,0,1,118.35,37.78Zm-7.41-2.3h-.11a.65.65,0,0,1-.54-.75,2.4,2.4,0,0,1,2.88-2.27.65.65,0,0,1-.19,1.29l-.3,0c-.27,0-.9,0-1.1,1.21A.65.65,0,0,1,110.94,35.48Z"/><path class="cls-4" d="M9.45,45.65c1.37-2.72,4.89-2.2,3.37,1.69S3.71,62.19,27.68,69.45s54,3.87,69.21-2.38,21.26-15.89,18.22-23.73,2.82-7.13,4.37,0c2.12,9.71,3.59,29.42-36.75,39.36C48,91.24-10.93,86,9.45,45.65Z"/><path class="cls-5" d="M19,67.55c-7.91-3.68-9.36,3.81,1.87,10S47.76,81.88,48,77.19,35.79,75.36,19,67.55Z"/><path class="cls-5" d="M80.48,7.68c-5.16-1-9.73,5.55-2.37,7.51S85.65,8.68,80.48,7.68Z"/><path class="cls-5" d="M50.89,11.63c-5.17-1-9.73,5.55-2.38,7.51S56.05,12.63,50.89,11.63Z"/></g></g></svg>