<svg xmlns="http://www.w3.org/2000/svg" width="284.161" height="301.669" viewBox="0 0 284.161 301.669">
  <g id="Group_309" data-name="Group 309" transform="translate(-1029.146 -2847.274)">
    <g id="Group_308" data-name="Group 308">
      <g id="Group_293" data-name="Group 293">
        <path id="Path_718" data-name="Path 718" d="M1230.6,3129.922c.082-2.479-.582-5.116-.9-7.571q-.549-4.169-1.041-8.346c-.64-5.373-1.243-10.747-1.6-16.146-.363-5.43-.521-10.878-.663-16.318-.068-2.617-.168-5.233-.243-7.85a28.731,28.731,0,0,0-.327-5.767c.034-.813.067-1.625.095-2.436.153-4.4.271-8.8.414-13.2.127-3.977.439-7.939.4-11.919-.017-1.888,0-3.777-.01-5.666-.011-1.724.426-3.837-.164-5.478a.545.545,0,0,0-.9-.237,6.708,6.708,0,0,0-1.427,3.869c-.094.7-.158,1.4-.213,2.092a43.48,43.48,0,0,1-3.852,7.263c-2.028,3.133-4.474,5.967-6.525,9.07-1.792,2.711-1.4,6.182-1.257,9.332a13.676,13.676,0,0,0-.455,3.012,50.4,50.4,0,0,0,.1,6.719c.285,4.8.161,9.592.166,14.393,0,5.123.037,10.241.419,15.352.137,1.826.3,3.65.448,5.474-.412,2.335-.128,5.018-.334,7.2a23.129,23.129,0,0,1-1.06,5.145c-.417,1.251-1.665,2.8-1.178,4.143a.441.441,0,0,0,.424.323,1.825,1.825,0,0,0,.182-.026,3.976,3.976,0,0,0,1.868-.444c.056-.024.115-.047.172-.071-.368,1.317-.436,2.768-1.621,3.659-.832.626-.729,2.4.609,2.247a9.357,9.357,0,0,0,1.871-.415,5.838,5.838,0,0,1-.671,1.134,1.276,1.276,0,0,0,.616,2.063c-.009.242-.02.485-.03.731a1.235,1.235,0,0,0,.91,1.194c3,.74,5.956.131,8.993.2,2.031.044,4.348.08,6.005-1.25a1.39,1.39,0,0,0,.415-.537A1.41,1.41,0,0,0,1230.6,3129.922Z" fill="#dc7912"/>
        <path id="Path_719" data-name="Path 719" d="M1227.093,3036.523c-.065-1.59.445-3.724-.156-5.212a.432.432,0,0,0-.625-.255,2.085,2.085,0,0,0-.276.209.79.79,0,0,0-.191.006c-1.569.256-2.584,3.293-3.308,4.518-1.389,2.351-2.73,4.666-3.958,7.106-1.108,2.2-2.611,4.186-3.78,6.357a15.523,15.523,0,0,0-1.731,4.947c-1.051.77-.893,3.16-.857,4.209.1,2.751.227,5.49.246,8.246.015,2.24.042,4.48.032,6.719-.009,1.989.107,4.431-.569,6.322a.732.732,0,0,0,.215.817c-.067.3-.133.6-.2.91a.826.826,0,0,0,1.5.634c1.69-2.2,1.671-5.826,1.975-8.468a19.226,19.226,0,0,1,4.04-9.412c3-3.878,7.6-7.624,7.418-12.664.039-.483.067-.981.095-1.5.134-2.478.288-4.958.36-7.44C1227.387,3040.56,1227.176,3038.528,1227.093,3036.523Z" fill="#bb5b00"/>
        <path id="Path_720" data-name="Path 720" d="M1229.654,3123.223c-.245-1.15-.536-2.286-.824-3.423.037-.4.048-.809.084-1.192.206-2.163-.471-4.675-.731-6.826-.531-4.406-1.1-8.8-1.456-13.227-.354-4.443-.34-8.886-.368-13.341a53.287,53.287,0,0,0-.594-10.371c-.043-2.038-.124-4.07-.257-6.111-.084-1.292-.137-2.586-.125-3.881a16.726,16.726,0,0,0,.013-3.507.338.338,0,0,0-.558-.147c-1.5,1.319-1.447,4.017-1.535,5.855-.124,2.576-.048,5.149-.206,7.727-.03.476-.056.952-.083,1.429-.01-.022-.018-.047-.028-.067a.814.814,0,0,0-1.393,0,4.507,4.507,0,0,0-.446,1.734,1.988,1.988,0,0,0,.391,1.691.9.9,0,0,0,1.278,0c.01-.011.017-.025.026-.037q-.174,3.847-.239,7.7c-.027-.06-.051-.121-.08-.179a1.116,1.116,0,0,0-1.916,0,5.284,5.284,0,0,0-.423,2.235,2.191,2.191,0,0,0,1.075,1.981.45.45,0,0,0,.612,0,3.674,3.674,0,0,0,.7-.661q-.008,2.005.015,4.012.021,1.529.059,3.045c-.014-.047-.032-.095-.043-.144a.828.828,0,0,0-1.586,0,8.45,8.45,0,0,0-.3,1.391,6.369,6.369,0,0,0,.135,1.775,1.144,1.144,0,0,0,1.924.549,94.605,94.605,0,0,0,1.458,13.081c.925,4.887,2.119,9.722,3.1,14.589a1.18,1.18,0,0,0,2.138.28C1230.594,3127.445,1230.059,3125.113,1229.654,3123.223Z" fill="#ee9333"/>
        <path id="Path_721" data-name="Path 721" d="M1220.758,3081.213a.665.665,0,0,0-.9-.236,2.094,2.094,0,0,0-.3,3.133.5.5,0,0,0,.585.076A2.266,2.266,0,0,0,1220.758,3081.213Z" fill="#ee9333"/>
        <path id="Path_722" data-name="Path 722" d="M1221.249,3093.949a1.811,1.811,0,0,0-.517-1.216.9.9,0,0,0-1.237,0,1.666,1.666,0,0,0-.5,1.1,2.063,2.063,0,0,0,.373,1.85,1.055,1.055,0,0,0,1.492,0A1.966,1.966,0,0,0,1221.249,3093.949Z" fill="#ee9333"/>
        <path id="Path_723" data-name="Path 723" d="M1222.8,3106.67a7.491,7.491,0,0,1-.117-1.313.756.756,0,0,0-1.4-.379,2.786,2.786,0,0,0-.4,1.343,3.192,3.192,0,0,0,.3,1.665.863.863,0,0,0,1.48,0A2.369,2.369,0,0,0,1222.8,3106.67Z" fill="#ee9333"/>
      </g>
      <g id="Group_294" data-name="Group 294">
        <path id="Path_724" data-name="Path 724" d="M1084.036,2989.241c-3.228-3.394-8.154-5.452-12.579-6.708a29.181,29.181,0,0,0-12.432-.586,18.774,18.774,0,0,0-8.846,3.708,29.955,29.955,0,0,0-6.661,4.608,30.417,30.417,0,0,0-8.887,15.193,45.27,45.27,0,0,0-.961,19,39.948,39.948,0,0,0,2.7,8.69,41.932,41.932,0,0,1,1.722,4.766c.414,1.433,1.21,3.292,1.087,4.768a.493.493,0,0,0,.116.393,18.762,18.762,0,0,1-.691,4.064,7.412,7.412,0,0,1-2.883,4.293c-1.156.786-2.692.506-3.979.7a3.945,3.945,0,0,0-.521,0,.731.731,0,0,0-.623.392,2.165,2.165,0,0,0-.248.179.2.2,0,0,0-.053.2,1.938,1.938,0,0,0,.584.77c.949,1.329,2.881,1.87,4.422,2.022a6.8,6.8,0,0,0,4.759-1.771,8.651,8.651,0,0,0,2.28-2.851c.09.737.229,1.471.348,2.186a22.257,22.257,0,0,1,.33,7.4c-.633,3.769-4.047,8.2-8.168,8.192-1.366,0-1.727,2.164-.329,2.43,2.806.534,5.331,2.275,8.322,1.548a7.973,7.973,0,0,0,5.018-3.955,11.175,11.175,0,0,0,1.4-4.126,7.274,7.274,0,0,1,.567,2.256c.066,1.073,1.5,1.944,2.324.96,2.768-3.317,3.776-7.577,4.1-11.8a30.753,30.753,0,0,0,.023-4.848,9.6,9.6,0,0,0,1.112,1.332,7.517,7.517,0,0,1,2.218,4.7c.2,1.146,1.735,1.1,2.274.3,3.319-4.973,5.448-10.352,5.143-16.413a27.177,27.177,0,0,0-.579-4.337,27.989,27.989,0,0,0-1.834-7.8c-1.633-4.64-4.222-8.914-5.159-13.786-.923-4.81,1.093-9.823,4.371-13.312a14.938,14.938,0,0,1,10.431-4.381,24.007,24.007,0,0,1,6.079.716,5.235,5.235,0,0,0,4.711-.97C1087.47,2994.954,1086.066,2991.376,1084.036,2989.241Z" fill="#b15530"/>
        <path id="Path_725" data-name="Path 725" d="M1086.505,2994.83a7.361,7.361,0,0,0-.993-.842.941.941,0,0,0-.145-.723,22.465,22.465,0,0,0-7.7-6.893c-5.853-5.743-16.627-5.131-23.754-2.355a37.36,37.36,0,0,0-10.029,5.891c-1.845,1.507-4.683,4.216-4.912,6.932a27.4,27.4,0,0,0-3.665,7.73,31.208,31.208,0,0,0-1.238,4.444,45.814,45.814,0,0,0-.888,12.245c.343,5.173,2.462,10,3.9,14.926a30.917,30.917,0,0,1,1.209,11.793,17.113,17.113,0,0,1-1.327,2,7.2,7.2,0,0,1-2.365,1.927c-1,.537-2.145.328-3.2.561a.772.772,0,0,0-.339,1.28c.032.033.067.057.1.089.754,1.345,2.961,2.132,4.329,2.108a6.415,6.415,0,0,0,5.525-3.235,10.929,10.929,0,0,0,1.35-6.683c0-.115.006-.232.008-.35a20.223,20.223,0,0,0,.295-3.749c.006-4.863-2.062-9.144-3.389-13.716-2.643-9.1-3.181-20.03,1.96-28.366,4.328-7.021,12.166-11.245,20.1-12.7a21.476,21.476,0,0,1,12.468,1.157,37.9,37.9,0,0,1,6.628,4.258c-.989-.4-1.935-.735-2.659-1.055a32.381,32.381,0,0,0-8.992-2.453,25.731,25.731,0,0,0-17.512,3.973,24.621,24.621,0,0,0-10.433,15.635,35.123,35.123,0,0,0-.221,10.414,36.877,36.877,0,0,0,.931,5.151c.443,1.757,1.291,3.255,1.859,4.943.072.215.414.123.341-.095a29.013,29.013,0,0,1-.7-4.136c-.274-1.566-.426-3.156-.552-4.74a35.253,35.253,0,0,1,.633-9.765,22.477,22.477,0,0,1,24.689-18.235,31.34,31.34,0,0,1,8.27,1.992,47.462,47.462,0,0,1,4.546,1.864c1.385.679,2.714,2.039,4.328,1.945a.829.829,0,0,0,.823-.823c-.011-.1-.029-.2-.048-.291a1.3,1.3,0,0,0,.779-.351A1.221,1.221,0,0,0,1086.505,2994.83Z" fill="#ca6b3a"/>
        <path id="Path_726" data-name="Path 726" d="M1057.519,3037.806a41,41,0,0,1-4.893-10.68,39.241,39.241,0,0,1-.81-12.523.2.2,0,0,0-.023-.108l.013-.064c.059-.276-.343-.483-.479-.2-3.71,7.68-3.587,21.037-.7,28.9,1.166,3.173,1.734,3.394,3.389,6.322,3.341,2.663,5.312,5.849,4.786,9.06a.515.515,0,0,0,.853.5,5.563,5.563,0,0,0,1.557-2.054C1066.1,3051.2,1060.717,3043.064,1057.519,3037.806Z" fill="#ca6b3a"/>
        <path id="Path_727" data-name="Path 727" d="M1085.894,2996.642a.447.447,0,0,0-.019-.223c-1.267-3.353-5.579-5.416-8.593-6.95a26.591,26.591,0,0,0-11.193-2.957c-6.2-.205-14.135,1.184-17.787,6.7-.127.192.145.363.3.231,4.557-3.83,11.819-4.4,17.485-4a23.579,23.579,0,0,1,6.491,1.447,34,34,0,0,0-9.6.253,25.258,25.258,0,0,0-11.826,5.3c-2.8,2.284-5.6,6.335-5.18,10.116.01.1.148.2.23.1,2.07-2.664,3.385-5.572,6.018-7.813a22.125,22.125,0,0,1,10.188-4.636,29.47,29.47,0,0,1,9.024-.408c-.745.079-1.482.178-2.2.284-6.413.948-12.054,4.456-14.752,10.538-2.792,6.293-1.671,13.637,1.181,19.7,1.749,3.715,4.39,6.966,6.56,10.435a24.993,24.993,0,0,1,2.727,5.905c.671,2.177,1.238,8.754.671,11.018a17.707,17.707,0,0,0,1.581-12.986c-.056-8.988-6.654-16.148-7.05-25.07a24.909,24.909,0,0,1,1.213-9.063,27.994,27.994,0,0,1,6-5.512,23.679,23.679,0,0,1,6.57-2.389,11.161,11.161,0,0,1,1.231-.182c.426,0,.853.014,1.277.035a15.906,15.906,0,0,1,3.815.623c1.053.321,1.908,1.011,2.923,1.406a.437.437,0,0,0,.333-.015,2.8,2.8,0,0,0,.748.343,1.247,1.247,0,0,0,1.4-.57A2.25,2.25,0,0,0,1085.894,2996.642Z" fill="#974126"/>
        <path id="Path_728" data-name="Path 728" d="M1049.59,3059.729a63.494,63.494,0,0,0-2.338-12.149c-1.595-5.927-4.546-11.394-6.25-17.289a.164.164,0,0,0-.321.043,18.976,18.976,0,0,0-.038,2.248c-.383,2.608.3,5.411.7,7.957.63,3.967,1.341,7.937,1.705,11.939.328,3.62.4,7.418-.807,10.893a8.916,8.916,0,0,1-2.447,3.659c-1.289,1.181-3.019,1.426-4.5,2.112-.265-.062-.535-.123-.806-.175-1.193-.232-2.447,1.317-1.31,2.251,3.693,3.039,10,2.332,13.4-.792C1049.461,3067.785,1049.828,3063.374,1049.59,3059.729Z" fill="#974126"/>
        <path id="Path_729" data-name="Path 729" d="M1054.738,3049.78c-.125-1-.389-2.006-.6-2.954-.717-3.242-1.855-6.379-2.855-9.541-.4-1.263-.77-2.527-1.1-3.793-.048-.279-.1-.558-.144-.84-.731-4.649-.273-9.279-.652-13.934a.224.224,0,0,0-.1-.164q.117-.618.266-1.239a.185.185,0,0,0-.337-.143,19.744,19.744,0,0,0-2.094,11.5c-.022.556-.038,1.112-.052,1.662a43.24,43.24,0,0,0,1.628,12.447c2.134,7.739,5.278,15.4,4.027,23.6-.041.267.264.51.486.283,2.547-2.617,2.337-5.775,2.677-9.21A19.916,19.916,0,0,0,1054.738,3049.78Z" fill="#974126"/>
        <path id="Path_730" data-name="Path 730" d="M1049.446,3066.954a9.155,9.155,0,0,0-.089,1.619.785.785,0,0,1,.294.067c.863.382,1.931-.244,2.663-.692a4.671,4.671,0,0,0,.258-.733,4.543,4.543,0,0,0,1.223-2.118c.525-1.866.03-3.968-.465-5.784a45.58,45.58,0,0,0-2.472-6.3,22.685,22.685,0,0,1-2.048-5.185c.008-.794.05-1.592.095-2.427a.257.257,0,0,0-.476-.128,8.765,8.765,0,0,0-.989,6.356c.011.332.032.671.075,1.029.24,1.989.608,3.968.99,5.934a56.386,56.386,0,0,1,1.053,5.943A9.268,9.268,0,0,1,1049.446,3066.954Z" fill="#ca6b3a"/>
        <path id="Path_731" data-name="Path 731" d="M1066.755,2998.412c-6.821,4.078-9.108,12.126-7.342,19.521,1.835,7.683,6.637,14.276,7.266,22.3a24.762,24.762,0,0,1-1.382,10.407,18.714,18.714,0,0,1-2.471,4.494,20.264,20.264,0,0,1-2.548,2.72,8.6,8.6,0,0,0-.789-3.307,13.7,13.7,0,0,0-2.489-3.43c-.68-.746-1.487-1.917-2.507-2.164a.138.138,0,0,0-.172.131,2.579,2.579,0,0,0,.253.955,50.759,50.759,0,0,1,.212,9.583c-.217,2.594-.954,7.3-4,7.871a14.711,14.711,0,0,0-.817-4.855c-.7-2.214-1.259-4.535-2.032-6.71a.2.2,0,0,0-.386,0c-.647,1.709-.157,3.758.258,5.476a38.875,38.875,0,0,1,.93,4.34c-1.291,3.216-3.045,5.851-6.708,6.564-2.537.495-6.043-.141-8.03-2.051a9.959,9.959,0,0,0,9.638-7.816c.743-2.914.144-6.25-.233-9.179-.486-3.773-1.52-7.963-.823-11.773.024-.133-.177-.191-.206-.056a35.778,35.778,0,0,0-.846,8.56c.01.49.034.979.055,1.469a8.091,8.091,0,0,1-5.766,4.154,4.709,4.709,0,0,1-4.881-2.412c2.781.767,5.746-.891,7.379-3.292,2.3-3.383,1.412-8.2.295-11.8-1.322-4.266-3.553-8.222-4.519-12.6a37.367,37.367,0,0,1,.262-14.781c1.773-9.2,6.687-18.027,14.667-23.189,7.637-4.941,16.171-5.01,24.676-2.4,5.219,1.255,10.477,7.31,13.146,9.3a6.838,6.838,0,0,1,.742-1.032c-1.792-2.023-5.28-6.617-8.624-8.445a30.765,30.765,0,0,0-12.11-3.559,30.259,30.259,0,0,0-22.669,7.3c-6.91,5.978-10.8,14.924-12.154,23.809a40.161,40.161,0,0,0,.137,13.537c.834,4.374,3.184,8.382,4.593,12.581a15.258,15.258,0,0,1,.693,8.748c-.759,2.9-4.385,5.981-7.357,4.071a.644.644,0,0,0-.936.719c1.247,6.4,10.038,6.655,12.542,1.567.1,1.631.2,3.263.238,4.9.072,3-.681,5.864-2.956,7.923a6.779,6.779,0,0,1-4,1.607,11.171,11.171,0,0,1-2.669.44.822.822,0,0,0-.792,1.041c1.628,3.917,6.514,5.18,10.405,4.745a8,8,0,0,0,6.857-5.608,1.055,1.055,0,0,0,.956.715c4.391.146,6.073-4.091,6.613-7.8a25.025,25.025,0,0,0-.132-9.3,12.71,12.71,0,0,1,.905,1.2,8.489,8.489,0,0,1,1.364,3.7c.093,1.018-.377,1.951-.2,2.967.045.248.33.29.52.21.078-.033.143-.075.215-.114a.482.482,0,0,0,.3-.025c2.655-1.023,4.643-3.589,6.136-5.923a22.294,22.294,0,0,0,3.135-8.932c.944-6.871-1.243-13.1-3.905-19.326a49.668,49.668,0,0,1-3.737-11.02,15.428,15.428,0,0,1,3.473-12.359c4.862-5.938,12.765-6.3,18.974-2.384a.56.56,0,0,0,.675-.877C1079.222,2995.141,1072.213,2995.148,1066.755,2998.412Z" fill="#683307"/>
      </g>
      <path id="Path_732" data-name="Path 732" d="M1136.347,3067.026a78.446,78.446,0,0,1-8.565-3.842,27.354,27.354,0,0,0-7.009-2.764.717.717,0,0,0-1.146-.129c-2.6,2.715-4.586,5.908-7.5,8.329-2.377,1.974-5.9,2.947-6.941,6.156-.468,1.435-3.335,6.111-4.477,6.852-2.4,1.557-4.685,3.467-5.064,6.488-.428,3.416,1.3,6.6,2.255,9.784a68.357,68.357,0,0,1,1.766,7.132,25.742,25.742,0,0,1,.381,8.2,8.564,8.564,0,0,1-1.119,3.36c-.569.932-1.514,1.552-2.119,2.475a.782.782,0,0,0,.667,1.164,3.83,3.83,0,0,0,3.182-1.5,5.683,5.683,0,0,1-1.247,2.8,1.174,1.174,0,0,0,1.342,1.872c-1.094,3.713,1.247,4.625,4.087,5.623,2.554.9,6.938,1.669,9.715.4a1.668,1.668,0,0,0,2.692-1.925c-4.474-10.9-9.418-30.922-6.963-35.46,2.7-4.992,10.144-6.16,14.567-9.212a41.476,41.476,0,0,0,12.381-13.638A1.5,1.5,0,0,0,1136.347,3067.026Z" fill="#dc7912"/>
      <path id="Path_733" data-name="Path 733" d="M1137.737,3067.81a1.3,1.3,0,0,0-.872-1.774c-3.352-1.163-6.8-1.976-10.123-3.261-2.1-.815-4.466-2.412-6.812-1.913a5.76,5.76,0,0,0-2.588,1.765c-1.192,1.2-2.156,2.6-3.368,3.8-2.376,2.341-5.217,3.942-7.778,6.022-2.42,1.965-1.453,5.263-3.45,7.368-1.554,1.639-3.877,2.407-5.583,3.893-3.384,2.946-2.154,7.893-.714,12.128a22.948,22.948,0,0,0,.293,2.649c.169,1.089.765,2.1.9,3.182a.376.376,0,0,0,.752,0c.095-.947.537-1.837.589-2.8.059-1.136.053-2.269.019-3.407a13.78,13.78,0,0,1,.765-5.012,13.309,13.309,0,0,1,5.084-6.258c4.28-3.017,9.6-4.106,14.652-5.045,4.329-.8,8.653-1.521,12.673-3.4a11.682,11.682,0,0,0,4.718-3.837A5.446,5.446,0,0,0,1137.737,3067.81Z" fill="#bb5b00"/>
      <path id="Path_734" data-name="Path 734" d="M1128.358,3077.808c-1.572.909-3.005,2.01-4.6,2.891a55.862,55.862,0,0,1-5.9,2.618c-3.639,1.487-7.6,3.038-10,6.338-5.687,7.829-.6,18.6,3.855,25.608a.329.329,0,0,0,.609-.165,17.4,17.4,0,0,0-1.592-7.054,35.428,35.428,0,0,1-1.367-6.264c-.716-3.955-.881-8.2,2.054-11.323,2.522-2.68,6.541-4,9.782-5.554,2.763-1.326,7.087-3.346,7.607-6.752A.308.308,0,0,0,1128.358,3077.808Z" fill="#ee9333"/>
      <g id="Group_295" data-name="Group 295">
        <path id="Path_735" data-name="Path 735" d="M1309.075,2920.422a11.856,11.856,0,0,0-7.12-4.347,1.937,1.937,0,0,0-.528-.267c-5.567-1.855-8.274,5.995-9.441,9.892a59.328,59.328,0,0,0-1.857,8.856c-.177,1.275-.327,2.553-.41,3.837a9.01,9.01,0,0,0,.037,3.124,2.23,2.23,0,0,0,.385.678,1.635,1.635,0,0,0,1.606,1.016c3.855-.115,7.741.674,11.534-.317,4.412-1.153,6.95-5.284,8.139-9.413A15.232,15.232,0,0,0,1309.075,2920.422Z" fill="#ffc871"/>
        <path id="Path_736" data-name="Path 736" d="M1310.9,2922.926a11.1,11.1,0,0,0-4.9-5.142c-2.46-1.372-5.921-2.656-8.738-2.05-2.211.476-4.291,3.687-4.377,5.855a.853.853,0,0,0,.047.659c.828,1.595,3.062,1.512,4.606,1.714,2.75.359,5.822.2,8.129,2.018,3.543,2.789,2.715,7.645,2.549,11.545-.015.34.383.424.6.25a6.674,6.674,0,0,0,2.3-3.815A11.236,11.236,0,0,0,1310.9,2922.926Z" fill="#ffe093"/>
        <path id="Path_737" data-name="Path 737" d="M1301.32,2921.943c-1.017-.409-2.022.788-1.737,1.737a12.2,12.2,0,0,1,.892,2.433,9.837,9.837,0,0,0,.436,3.108.42.42,0,0,0,.505.288C1304.757,2928.532,1304.189,2923.1,1301.32,2921.943Z" fill="#8d3621"/>
        <path id="Path_738" data-name="Path 738" d="M1311.6,2921.11a10.632,10.632,0,0,0-6.724-5.247,34.628,34.628,0,0,0-4.965-.789,24.35,24.35,0,0,1-5.27-1.393.193.193,0,0,0-.217.282c1.577,2.122,4.391,2.6,6.83,3.084,3.273.652,6.164,1.44,8.144,4.346,3.072,4.51,2,11.1-.2,15.725a9.491,9.491,0,0,1-8.923,5.932,5.9,5.9,0,0,1-3.336-2.815c-.733-1.473-.413-3.977-1.666-5.09a.2.2,0,0,0-.277,0c-1.6,1.469-.4,5.19.494,6.763a5.279,5.279,0,0,0,.664.929c-5.229-.632-10.883-2.243-15.448-.436-.325.128-.318.7.089.66,5.834-.5,11.574,1.579,17.341,2.057a14.278,14.278,0,0,0,7.82-1.339c2.559-1.318,4.231-3.853,5.377-6.4C1313.591,2932.353,1314.209,2926.112,1311.6,2921.11Z" fill="#9a3f21"/>
      </g>
      <path id="Path_739" data-name="Path 739" d="M1296.657,2914.922a19.838,19.838,0,0,1-4.246-2.792c-2.467-2.432-3.6-5.987-4.582-9.214-1.05-3.444-1.8-6.978-3.07-10.355a16.389,16.389,0,0,0-7.888-9.182,28.722,28.722,0,0,0-5.926-2.142c-.433-.119-.89-.238-1.354-.369-.789-.764-1.6-1.464-2.358-2.086a35.162,35.162,0,0,0-10.753-5.871c-7.578-2.674-16.787-3.379-24.3-.2-7.888,3.335-13.883,10.028-18.221,17.24a60.729,60.729,0,0,0-5.25,11.612c-1.875,5.445-3.67,10.917-5,16.523-1.183,4.993-2.82,10.068-3.369,15.217-1.827,3.774-3.1,7.934-4.554,11.727a82.3,82.3,0,0,1-8.237,16.892c-3.6,5.32-8.643,9.264-13.781,13.008a87.961,87.961,0,0,1-8.887,5.735c-.73.407-1.457.82-2.187,1.224a.764.764,0,0,0-.9-.274,44.535,44.535,0,0,1-12.887,3.278,53.435,53.435,0,0,1-14.1-.932c-10.287-1.87-19.2-3.462-29.614-1.634-14.171,2.487-23.123,15.916-25.1,28.925a79.313,79.313,0,0,0-.415,19.357c.452,4.808,1.422,9.518,2.271,14.266a71.9,71.9,0,0,1,.915,7.193,49.775,49.775,0,0,1-1.312,6.344,34.777,34.777,0,0,1-4.7,9.37,60,60,0,0,1-3.8,4.8,23.128,23.128,0,0,1-4.189,4.222c-2.733,1.905-5.814,3-7.727,5.88a10.6,10.6,0,0,0-1.5,3.987c-1.56,2.588-1.012,6.82-.838,9.562.256,4.01.961,7.988.8,12.018a68.731,68.731,0,0,1-.9,8.614c-.369,2.195-.755,5.787-2.416,7.436-1.177,1.169.345,2.772,1.631,2.118-.342,1.357-.875,2.633-2.147,3.02-1.689.514-.944,3.2.728,2.638.721-.241.831.912.052,1.412l-.052.031c-.1.062-.208.124-.321.18-1.34.676-.163,2.673,1.174,2.007a5.228,5.228,0,0,0,.651-.391c.784,1.281,1.15,2.621,2.654,3.5a10.362,10.362,0,0,0,4.491.981c2.234.149,10.044-1.8,10.561-2.59.638-.975-.109-2.857-.3-3.909-.3-1.639-.674-3.91-1-5.78a137.705,137.705,0,0,1-2.054-15.125,50.518,50.518,0,0,1,1-14.546,30.316,30.316,0,0,1,2.493-6.784,25.291,25.291,0,0,1,1.71-2.839,25.076,25.076,0,0,0,1.489-2.095q.686-.482,1.4-.937c3.743-2.387,7.892-3.94,11.811-5.988,4.14-2.163,8.172-4.528,12.32-6.678a42.631,42.631,0,0,0,8.884-6.116,31.318,31.318,0,0,0,5.933-7.322,12.624,12.624,0,0,0,4.208,3.01,51.2,51.2,0,0,0,9.476,3.427,85.269,85.269,0,0,0,26.915,3.248,143.711,143.711,0,0,0,24.337-3.287,63.877,63.877,0,0,0,8.911-2.723,27.575,27.575,0,0,0,4.349-.342,30.872,30.872,0,0,0,5.138-1.526,42.562,42.562,0,0,0,9.719-5.24c6.635-4.835,10.188-11.849,13.123-19.334a105.52,105.52,0,0,0,6.3-26.179c.52-4.462.747-8.947,1.036-13.428q.243-1.623.467-3.247c.813-5.871,1.6-11.742,2.722-17.566a96.492,96.492,0,0,1,4.862-17.4,46.619,46.619,0,0,1,3.833-7.529c1.171-1.871,2.971-3.765,3.939-5.823a19.876,19.876,0,0,0,5.581,1,39.57,39.57,0,0,0,10.609-1.1c7.054-1.428,14.28-3.836,21.516-2.219a1.742,1.742,0,0,0,1.439-.271,1.477,1.477,0,0,0,.94-1.466,47.117,47.117,0,0,1,1.5-13.042c1.108-3.85,3.5-6.811,5.3-10.284a2.567,2.567,0,0,0,1.053-.339A1.375,1.375,0,0,0,1296.657,2914.922Z" fill="#ffae55"/>
      <path id="Path_740" data-name="Path 740" d="M1295.443,2916.969c-.287-.184-.583-.365-.878-.545a.89.89,0,0,0-.072-.328,4.448,4.448,0,0,0,.6-.228.632.632,0,0,0,.23-.872c-.4-.516-.523-.963-1.145-1.29a17.574,17.574,0,0,1-1.654-.963,8.732,8.732,0,0,1-2.542-3.073c-1.465-2.611-2.121-5.664-2.838-8.542a46.158,46.158,0,0,0-2.779-8.608,9.286,9.286,0,0,0-4.274-4.441,6.375,6.375,0,0,0-3.5-1.679,11.014,11.014,0,0,0-6.415,1.523c-1.481.746-3.755,1.81-4.8,3.3a7.692,7.692,0,0,0-1.282.175c-.825.182-.567,1.331.19,1.392,3.186.254,5.159,2.492,6.632,5.127,1.88,3.365,3.062,7.061,4.543,10.6,2.6,6.222,7.829,16.338,16.229,13.249a.738.738,0,0,0,.466-.8c.272-.261.514-.54.716-.775a6.97,6.97,0,0,0,1.1-1.774,4.9,4.9,0,0,0,1.33-.337A.617.617,0,0,0,1295.443,2916.969Z" fill="#ffc871"/>
      <path id="Path_741" data-name="Path 741" d="M1131.184,2982.811c-2.176-.224-4.335-.5-6.516-.661a69.539,69.539,0,0,0-11.11-.185c-15.9-1.123-26.19,10.966-29.375,15.7-.948,1.408-4.861,12.044-5.017,15.18-1.294,18.816,2.96,25.958,3.573,31.949a66.339,66.339,0,0,1,.331,8.655c-.055,1.872-2.36,10.013-3.675,12.07-3.279,5.134-8.81,7.945-13.211,11.96-3.948,2.227-7.341,5.5-6.9,10.267a.622.622,0,0,0,1.15.312c1.132-1.619,1.828-3.5,3.061-5.052a11.982,11.982,0,0,1,4.305-3.177c3.522-1.716,7.477-2.415,11.088-3.918a30.062,30.062,0,0,0,16.72-16.551c1.711-4.279,2.057-9.078,2.308-13.633.056-1.019.091-2.038.113-3.058a1.318,1.318,0,0,0,.644-.359,3.371,3.371,0,0,0,.265-3.472.837.837,0,0,0-.872-.675c-.011-2.512-.059-5.021-.063-7.529a1.5,1.5,0,0,0,1.761-.222,2.953,2.953,0,0,0,.642-2.475,3.973,3.973,0,0,0-.181-.974.728.728,0,0,0-.165-.343c-.046-.157-.383-.465-.385-.586a.208.208,0,0,0-.384-.1s-1.137.434-.527.2a1.9,1.9,0,0,0-.7.486c.059-1.921.165-3.831.352-5.722a1.5,1.5,0,0,0,2.62-.555c.441-1.529.9-4.058-.334-5.341a.72.72,0,0,0-1.012,0,3.268,3.268,0,0,0-.545.721,41.026,41.026,0,0,1,5.843-15.111c7.455-11.448,22.666-12.916,34.6-16.359C1140.349,2984.037,1132.143,2982.91,1131.184,2982.811Z" fill="#ee9333"/>
      <path id="Path_742" data-name="Path 742" d="M1283.107,2891.977a9.336,9.336,0,0,1-2.977.257,11.858,11.858,0,0,1-4.653-1.474,1.343,1.343,0,0,0-1.95,1.5c.125.646.319,1.29.394,1.945.017.151-1.269.377-1.459.4a11.61,11.61,0,0,1-4.083-.32,22.385,22.385,0,0,1-5.4-1.9c-1-.515-2.5-2-3.722-1.594a1.173,1.173,0,0,0-.849,1.114,17.1,17.1,0,0,1-.017,2.726c-.126.828-1.1.459-1.7.322a12.047,12.047,0,0,1-6.749-4.437,1.117,1.117,0,0,0-1.854.489c-.1.353-.207.694-.3,1.04a11.406,11.406,0,0,1-3.868-5.155,27.264,27.264,0,0,1-1.25-3.572c-.376-2.211-.477-4.678-1.549-6.668a.5.5,0,0,0-.907.119c-.492,2.977-.021,6.384.4,9.354a20.244,20.244,0,0,0,2.647,7.57c.931,1.545,2.783,3.687,4.854,3.173a2.536,2.536,0,0,0,1.967-2.616,10.841,10.841,0,0,0,7.981,3.829c2.11-.044,2.876-1.535,3-3.234a20.508,20.508,0,0,0,3.28,1.525,21.907,21.907,0,0,0,6.473,1.508,7.537,7.537,0,0,0,5.318-1.426,2.088,2.088,0,0,0,.853-1.752,8.916,8.916,0,0,0,3.483.756c1.957.046,4.335.15,5.053-2.078C1285.988,2891.9,1284.129,2891.11,1283.107,2891.977Z" fill="#ee9333"/>
      <path id="Path_743" data-name="Path 743" d="M1130.087,2989.977a7.829,7.829,0,0,0-4.3-1.882c-.142-.064-.284-.125-.42-.181a7.849,7.849,0,0,0-5.612-.248c-2.553.932-6.019,3.455-3.954,6.581,1.412,2.135,4.215,2.439,6.56,2.489,2.318.05,5.125-.264,7.068-1.651C1131.025,2993.946,1131.782,2991.466,1130.087,2989.977Z" fill="#b15530"/>
      <path id="Path_744" data-name="Path 744" d="M1140.107,3002.737a1.9,1.9,0,0,0-1.3-1.738,16.465,16.465,0,0,0-7.032-1.3c-2.9.234-6.327,1.4-6.522,4.812-.462,8,13.031,5.874,15.148.522A2.4,2.4,0,0,0,1140.107,3002.737Z" fill="#b15530"/>
      <path id="Path_745" data-name="Path 745" d="M1151.654,2990.489c-.02,0-.039,0-.059-.006a46.8,46.8,0,0,0-7.473-1.082c-1.674-.173-2.728,1.449-2.875,2.875-.025.242-.051.485-.075.726a2.861,2.861,0,0,0,1.461,2.548,13.475,13.475,0,0,0,9.021.734C1154.252,2995.482,1154.782,2990.959,1151.654,2990.489Z" fill="#b15530"/>
      <path id="Path_746" data-name="Path 746" d="M1163.814,3003.43a3.321,3.321,0,0,0-2.5-2.274,7.434,7.434,0,0,0-4.17-1.523,6.856,6.856,0,0,0-6.542,3.833,3.044,3.044,0,0,0,2.594,4.52c2.894.1,5.685.336,8.449-.736A3.169,3.169,0,0,0,1163.814,3003.43Z" fill="#b15530"/>
      <path id="Path_747" data-name="Path 747" d="M1151.15,3011.767c-2.541-1.69-8.579.311-6.772,4.02.647,1.325,2.131,1.388,3.382,1.511a8.167,8.167,0,0,0,2.677-.071C1153.061,3016.543,1153.231,3013.151,1151.15,3011.767Z" fill="#b15530"/>
      <path id="Path_748" data-name="Path 748" d="M1108.289,2997.216c-2.359-.308-4.595.1-6.091,2.074-.984,1.3-.212,3.355,1.075,4.1a6.06,6.06,0,0,0,2.953.712,7.062,7.062,0,0,1,1.956.3c2.63.643,5.57.384,5.853-2.906C1114.293,2998.473,1110.525,2997.508,1108.289,2997.216Z" fill="#b15530"/>
      <g id="Group_296" data-name="Group 296">
        <path id="Path_749" data-name="Path 749" d="M1121.837,3008.452c-.923-1.108-2.6-1.028-3.9-.775a6.76,6.76,0,0,0-1.618.53c-.145.077-.288.156-.43.24.031-.018-.606.584-.75.711-.852.944-.523,2.858.888,3.087a10.258,10.258,0,0,0,2.543.111c.394-.029.778-.059,1.174-.057a3.084,3.084,0,0,0,2.088-.83A2.153,2.153,0,0,0,1121.837,3008.452Z" fill="#b15530"/>
        <path id="Path_750" data-name="Path 750" d="M1115.144,3009.158a.845.845,0,0,1,.056-.064C1115.1,3009.191,1115.1,3009.2,1115.144,3009.158Z" fill="#b15530"/>
      </g>
      <path id="Path_751" data-name="Path 751" d="M1141.332,3020.957a4.248,4.248,0,0,0-2.448-.56,3.685,3.685,0,0,0-2.365.892,2.258,2.258,0,0,0,.456,3.536,5.075,5.075,0,0,0,1.909.517c.071.011.117.015.148.019a3.47,3.47,0,0,0,1.734-.071A2.4,2.4,0,0,0,1141.332,3020.957Z" fill="#b15530"/>
      <path id="Path_752" data-name="Path 752" d="M1175.149,3011.951a3.445,3.445,0,0,0-3.227-2.457c-2.7-.085-8.749.244-7.921,4.391.638,3.2,5.667,2.2,7.921,2.3a3.288,3.288,0,0,0,2.889-1.657A3.145,3.145,0,0,0,1175.149,3011.951Z" fill="#b15530"/>
      <path id="Path_753" data-name="Path 753" d="M1183.106,2996.888a8.023,8.023,0,0,0-3.841-.84,8.869,8.869,0,0,0-7.187,4.536,3.1,3.1,0,0,0,1.106,4.219c3.379,1.752,7.385.877,10.623-.784a5,5,0,0,0,2.924-3.9A3.2,3.2,0,0,0,1183.106,2996.888Z" fill="#b15530"/>
      <g id="Group_297" data-name="Group 297">
        <path id="Path_754" data-name="Path 754" d="M1188.1,3010.626Z" fill="#b15530"/>
        <path id="Path_755" data-name="Path 755" d="M1190.093,3006.043q.7.528-.233-.187a2.558,2.558,0,0,0-1.307-.353,3.248,3.248,0,0,0-.794.009,4.318,4.318,0,0,0-2.665,1.171,2.311,2.311,0,0,0,1.635,3.946c.338-.038.688-.026,1.03-.034a3.039,3.039,0,0,1,.344.031c-.023,0-.13-.02-.393-.064q.42.072.843.118c.818-.091.919-.116.3-.07a2.451,2.451,0,0,0,1.238-4.567Z" fill="#b15530"/>
      </g>
      <path id="Path_756" data-name="Path 756" d="M1162.22,3018.787q.687.324-.29-.105a2.382,2.382,0,0,0-1.253,0c-.2.029-.406.064-.608.1a4.144,4.144,0,0,0-.534.156c-.128.051-.256.107-.383.16.062-.028.032-.022-.1.022a2.2,2.2,0,0,0,0,4.238,4.733,4.733,0,0,0,2,.064c.193-.029.379-.084.569-.13.1-.024.205-.047.308-.067l.563-.239q.823-.65.252-.18A2.216,2.216,0,0,0,1162.22,3018.787Z" fill="#b15530"/>
      <path id="Path_757" data-name="Path 757" d="M1199.832,2993.427a5.124,5.124,0,0,0-2.535-.059,2.616,2.616,0,0,0-1.978,3.11,2.352,2.352,0,0,0,.674,1.126c.194.152.387.3.583.449l.358.153a10.988,10.988,0,0,0,1.427.554,2.766,2.766,0,0,0,1.471-5.333Z" fill="#b15530"/>
      <path id="Path_758" data-name="Path 758" d="M1179.9,3021.438a2.881,2.881,0,0,0-3.3-.281,2.372,2.372,0,0,0-1.22,2.657,1.368,1.368,0,0,0,.688,1.049,1.436,1.436,0,0,0,1.168.128,1.793,1.793,0,0,0,.7-.23c.055-.013.109-.027.164-.045a.108.108,0,0,1,.028-.008.59.59,0,0,1,.083,0,3.018,3.018,0,0,0,1.314-.334A1.873,1.873,0,0,0,1179.9,3021.438Z" fill="#b15530"/>
      <g id="Group_298" data-name="Group 298">
        <path id="Path_759" data-name="Path 759" d="M1266.779,2857.868a30.489,30.489,0,0,0-2.41-8.086,1.852,1.852,0,0,0-.275-.473h0c.472-.7-.449-1.577-1.145-1.145a65.67,65.67,0,0,0-8.1,5.88c-1.93,1.655-5.505,5.066-3.409,7.844,1.345,1.784,3.728,1.966,5.79,2.04,1.323.047,2.645-.015,3.966.082a7.084,7.084,0,0,0,3.374-.225C1266.75,2862.864,1266.989,2859.889,1266.779,2857.868Z" fill="#ee9333"/>
        <path id="Path_760" data-name="Path 760" d="M1265.075,2850.467a8.443,8.443,0,0,0-1.11-1.818.91.91,0,0,0-1.512.4c-.4,1.867.239,3.888.575,5.732a11.68,11.68,0,0,1-.992,7.377,1.879,1.879,0,0,0,1.937,2.652,1.632,1.632,0,0,0,.315.265l.058.035a1.557,1.557,0,0,0,1.864-.241C1267.732,2863.507,1266.615,2852.845,1265.075,2850.467Z" fill="#ffae55"/>
        <path id="Path_761" data-name="Path 761" d="M1267.54,2855.657c-.339-2.371-1.3-6.642-3.684-8.031a.492.492,0,0,0-.484-.352c-1.956.072-3.892,1.315-5.53,2.29a19.911,19.911,0,0,0-4.955,4.085c-1.76,2.048-3.62,5.424-3.78,8.174a.956.956,0,0,0,.484.845c1.077.552,1.387-.522,1.578-1.331a19.638,19.638,0,0,1,2.252-5.091,14.5,14.5,0,0,1,4.384-4.441c1.595-1.124,3.621-1.834,5.191-3.01a23.484,23.484,0,0,1,2.5,6.538,14.83,14.83,0,0,1,.221,4.782c-.169,1.251-.936,2.126-1.251,3.274a.756.756,0,0,0,.921.921C1268.43,2863.546,1267.85,2857.829,1267.54,2855.657Z" fill="#9a3f21"/>
      </g>
      <path id="Path_762" data-name="Path 762" d="M1259.877,2900.071c-3.186-1.736-8.942,1.855-8.1,5.631a.557.557,0,0,0,.924.245c.969-1.177,1.436-2.539,2.74-3.461,1.367-.966,3.034-1.136,4.44-1.974A.258.258,0,0,0,1259.877,2900.071Z" fill="#9a3f21"/>
      <path id="Path_763" data-name="Path 763" d="M1275.024,2941.883c-4.85,6.659-8.455,14.263-12.6,21.367a192.9,192.9,0,0,1-12.58,19.259,49.88,49.88,0,0,1-11.828,11.7c-5.076,3.38-11,5.383-16.658,7.55-.332.126-.31.664.089.653,12.514-.339,22.4-7.254,29.885-16.875a163.351,163.351,0,0,0,12.794-19.732c4.307-7.573,8.836-15.326,11.977-23.467C1276.359,2941.669,1275.387,2941.387,1275.024,2941.883Z" fill="#9a3f21"/>
      <path id="Path_764" data-name="Path 764" d="M1256.187,2906.908a8.436,8.436,0,0,0-3.056,6.92c.058,2.345,1.824,5.957,4.4,5.1a.984.984,0,0,0,.669-.956c-.245-2.954-2.577-5.457.41-7.826,2.871-2.276,5.9.387,8.191,2.178.412.321.906-.121.935-.585C1268.126,2905.186,1260.039,2903.855,1256.187,2906.908Z" fill="#dc7912"/>
      <g id="Group_299" data-name="Group 299">
        <path id="Path_765" data-name="Path 765" d="M1255.092,2913.864a6.47,6.47,0,0,0,6.6,6.707,6.72,6.72,0,1,0,0-13.414A6.469,6.469,0,0,0,1255.092,2913.864Z" fill="#fff"/>
        <path id="Path_766" data-name="Path 766" d="M1254.854,2913.864c0,3.46,2.3,6.265,5.138,6.265s5.139-2.8,5.139-6.265-2.3-6.266-5.139-6.266S1254.854,2910.4,1254.854,2913.864Z" fill="#0e0d0c"/>
        <path id="Path_767" data-name="Path 767" d="M1260.632,2911.016a1.99,1.99,0,1,0,1.951-2.38A2.2,2.2,0,0,0,1260.632,2911.016Z" fill="#fff"/>
      </g>
      <path id="Path_768" data-name="Path 768" d="M1246.733,2944.158c-1.456-.031-3-.226-3.771-1.613a.855.855,0,0,0-.687-.467.69.69,0,0,0-1-.035c-3.3,2.79-5.7,7.14-7.963,10.773a110.44,110.44,0,0,0-6.634,12.444q-.7,1.529-1.352,3.08c0-.04-.007-.08-.009-.12q-.123-.469-.017-.265a1.077,1.077,0,0,0-1.994-.541,8.148,8.148,0,0,0-.589,1.173,4.549,4.549,0,0,0-.2.579,4.256,4.256,0,0,0-.079.518q.141.578.008.287a1.266,1.266,0,0,0,.933,1.224,1.166,1.166,0,0,0,.792-.051q-.4,1.013-.778,2.031a1.08,1.08,0,0,0-1.041-.262,3.76,3.76,0,0,0-2.12,2.508c-.458,1.209-1.039,2.809.32,3.659a1.285,1.285,0,0,0,.768.219q-1.059,3.456-1.875,6.982a1.3,1.3,0,0,0-.108-.126.962.962,0,0,0-.93-.245c-1.229.321-1.614,1.879-1.86,2.969-.29,1.285-.664,2.749.312,3.818a1.247,1.247,0,0,0,1.276.3c-.35,2.178-.636,4.364-.879,6.555-.268-.992-1.9-1.375-2.377-.3a8.167,8.167,0,0,0-.792,2.769,1.495,1.495,0,0,0,2.852.63c-.6,6.423-.91,12.88-1.363,19.309-.362,5.144-.879,10.265-1.669,15.362-.1.644-.207,1.3-.322,1.969q-.461,1.758-.934,3.511c-.377,1.392-.751,2.785-1.1,4.181a18.557,18.557,0,0,1-1.15,2.351.627.627,0,0,0,.38.9,54.09,54.09,0,0,0-1,6.066c-.169,1.664,2.2,1.716,2.717.367a14.866,14.866,0,0,1,1.405-2.727c.133-.2.261-.389.386-.582,1.617-2.354,3.678-4.457,5.169-6.866a24.681,24.681,0,0,0,1.637-3.168,48.81,48.81,0,0,0,4.254-8.586,77.957,77.957,0,0,0,3.655-14.1c.367-2.124.649-4.261.887-6.4.329-1.361.619-2.732.886-4.1,1.037-5.323,1.592-10.729,2.154-16.116.625-5.976,1.649-11.889,2.74-17.8.551-2.977,1.132-5.95,1.693-8.925.134-.715.291-1.451.447-2.2.309-.918.638-1.833,1-2.738,2.306-5.828,5.9-10.871,9.047-16.241A1.3,1.3,0,0,0,1246.733,2944.158Z" fill="#ffc871"/>
      <path id="Path_769" data-name="Path 769" d="M1126.475,3023.859c-.268-2.333-1.8-5.541-4.493-5.765-2.705-.223-3.773,2.164-4.155,4.452-.924,5.526.367,11.109-.192,16.647-.047.475-.1.949-.153,1.425a3.4,3.4,0,0,0-.625-1.11,1.144,1.144,0,0,0-1.615,0,4.437,4.437,0,0,0-.919,2.636,4.16,4.16,0,0,0,.461,2.986,1.036,1.036,0,0,0,1.38.362,2.291,2.291,0,0,0,.711-.536,50.727,50.727,0,0,1-2.614,9.906,1.9,1.9,0,0,0-.578-1.047.417.417,0,0,0-.407-.108,2.518,2.518,0,0,0-1.45,1.545,6.6,6.6,0,0,0-.818,2.276,1.234,1.234,0,0,0,1.516,1.166c-.2.377-.4.752-.619,1.122a31.78,31.78,0,0,1-3.67,5.071,81.269,81.269,0,0,1-11.113,7.558,137.327,137.327,0,0,0-12.11,7.235,55,55,0,0,0-5.269,4.3c-1.53,1.418-3.318,3.333-3.8,5.414a.186.186,0,0,0,.271.209c1.887-.982,3.443-2.731,5.087-4.066.778-.631,1.58-1.22,2.4-1.789a18.227,18.227,0,0,0,3.937-1.867,57.23,57.23,0,0,1,7.163-3.729A61.283,61.283,0,0,0,1107,3071.7c4.567-3.22,10.648-8.02,12.687-13.817a50.479,50.479,0,0,0,4.441-11.684,75.456,75.456,0,0,0,2.057-12.907,40.388,40.388,0,0,0,.056-6.074c-.057-.8-.053-1.878-.221-2.872A.449.449,0,0,0,1126.475,3023.859Z" fill="#ffc871"/>
      <path id="Path_770" data-name="Path 770" d="M1117.466,3032.511c-.039-1.13-.155-2.917-1.247-3.547a.818.818,0,0,0-.823,0c-1.143.685-1.019,2.385-1.13,3.547-.1,1.117-.327,3.317,1.386,3.317S1117.51,3033.772,1117.466,3032.511Z" fill="#ffc871"/>
      <path id="Path_771" data-name="Path 771" d="M1112.466,3036.386a1,1,0,0,0-1.539-.2,4.675,4.675,0,0,0-1.073,2.878c-.117.9-.218,2.566.936,2.885,1.273.35,1.942-1.355,2.065-2.3A5.082,5.082,0,0,0,1112.466,3036.386Z" fill="#ffc871"/>
      <path id="Path_772" data-name="Path 772" d="M1113.116,3047.121a.953.953,0,0,0-.959-.253c-1.426.549-2.063,2.857-1.828,4.232a1.333,1.333,0,0,0,2.218.586C1113.4,3050.6,1114.111,3048.3,1113.116,3047.121Z" fill="#ffc871"/>
      <path id="Path_773" data-name="Path 773" d="M1106.533,3057.694c-.415,1.164-1.485,2.052-1.283,3.376.114.75,1.04.93,1.61.655a3,3,0,0,0,1.193-1.645,8.031,8.031,0,0,0,.572-1.809A1.086,1.086,0,0,0,1106.533,3057.694Z" fill="#ffc871"/>
      <path id="Path_774" data-name="Path 774" d="M1217.537,2981.887a1.236,1.236,0,0,0-2.09-.865c-1.147,1.118-2.025,3.725-1.047,5.14a1.33,1.33,0,0,0,2.063.266,3.787,3.787,0,0,0,.858-2.325A10.947,10.947,0,0,0,1217.537,2981.887Z" fill="#ffc871"/>
      <path id="Path_775" data-name="Path 775" d="M1214.28,2993.508c-1.595.247-2.061,2.491-2.007,3.835.066,1.682,2.779,2.226,3.069.416C1215.483,2996.88,1216.046,2993.235,1214.28,2993.508Z" fill="#ffc871"/>
      <g id="Group_300" data-name="Group 300">
        <path id="Path_776" data-name="Path 776" d="M1150.759,3048.905l.088.069a.341.341,0,0,1,.032.024C1150.839,3048.967,1150.8,3048.935,1150.759,3048.905Z" fill="#ee9333"/>
        <path id="Path_777" data-name="Path 777" d="M1150.908,3049.018l-.029-.02c.056.042.11.085.164.126Z" fill="#ee9333"/>
        <path id="Path_778" data-name="Path 778" d="M1191.814,3055.942a2.5,2.5,0,0,0,.092-2.874,1.114,1.114,0,0,0-1.91,0c-.966,1.848-4.3,2.212-6.124,2.451a59.723,59.723,0,0,1-7.611.363,81.673,81.673,0,0,1-11.428-.283,54.134,54.134,0,0,1-11.446-3c-.667-.246-1.326-.51-1.98-.785a1.4,1.4,0,0,0,.39-.362,1.224,1.224,0,0,0,.1-.135,1.172,1.172,0,0,0,.156-.479,1.457,1.457,0,0,0-.031-.6,1.438,1.438,0,0,0-.547-.764l.125.1c-.25-.2-.5-.4-.756-.6a1.43,1.43,0,0,0-.917-.361,1.383,1.383,0,0,0-1.383,1.382,1.234,1.234,0,0,0,.137.568q-2.041-1.014-3.978-2.213a1.192,1.192,0,0,0,.415-1.668c-.288-.665-.975-.952-1.557-1.348-.546-.371-1.487-.875-1.949-.1a1.311,1.311,0,0,0-.232.687c.008.061.017.124.026.186q-1.545-1.144-3-2.413a1.471,1.471,0,0,0,.953-2.153,101.641,101.641,0,0,1-3.512-3.6c-.7-.572-2-.282-1.936.8a4.278,4.278,0,0,0,.066.52,33.677,33.677,0,0,1-4.1-5.948,36.835,36.835,0,0,1-3.034-9.495c-.036-.157-.239-.126-.287,0a11.465,11.465,0,0,0-.406,6.6c-.039,1.592.122,3.218.1,4.789a72.7,72.7,0,0,1-.637,8.467c-.679,4.977-1.9,10.4-5.053,14.451a1.521,1.521,0,0,0,1.063,2.566c3.657.189,6.189,3.769,9.468,4.98a39.264,39.264,0,0,0,9.93,2.078c2.224.267,4.483.379,6.694.626,3.52.4,7.018.862,10.561,1.032,6.336.3,12.369-1.184,18.578-2.07,4-.572,8.107-.954,11.824-2.658,3.487-1.6,3.445-5.026,3.2-8.4A1.924,1.924,0,0,0,1191.814,3055.942Z" fill="#ee9333"/>
      </g>
      <path id="Path_779" data-name="Path 779" d="M1289.283,2939.074c-.031-.011-.061-.024-.094-.033-.01-.03-.017-.061-.03-.09-1.118-2.314-4.239-3.093-6.536-3.6a35.184,35.184,0,0,0-8.9-.526c-5.978.229-12.169,1.377-18.065-.066a31.184,31.184,0,0,1-14.364-7.673,24.384,24.384,0,0,1-4.741-6.437c-1.234-2.426-1.657-5.251-2.961-7.607a.2.2,0,0,0-.363.048c-.071.181-.132.366-.188.551a.669.669,0,0,0-.579.427c-2.136,5.631-1.664,12.684.553,18.225a21.127,21.127,0,0,0,13.851,12.507c8.292,2.532,17.931.735,26.2-1.044,2.179-.468,4.361-.963,6.572-1.252a17.12,17.12,0,0,1,3.929.232c1.5.156,4.246.537,5.722-.433A8.021,8.021,0,0,1,1289.283,2939.074Z" fill="#ee9333"/>
      <path id="Path_780" data-name="Path 780" d="M1207.711,2983.564a.431.431,0,0,0-.538-.411,18.848,18.848,0,0,0-1.787,1.019c-.871.384-1.686.875-2.572,1.236-.046.019-.095.036-.142.054a14.937,14.937,0,0,0-4.3-.624,15,15,0,0,1-2.479-2.021,10.966,10.966,0,0,1-1.737-2.684,4.84,4.84,0,0,0-.04-1.1.6.6,0,0,0-.673-.46c-.068-.154-.136-.3-.2-.458,0-.08-.01-.162-.012-.239a1.729,1.729,0,0,0-.79-1.385.758.758,0,0,0-.587-.252,1.525,1.525,0,0,0-1.484.451,26.938,26.938,0,0,0-5.836,11.245,10.809,10.809,0,0,1-1.916-7.155c.1-1.925-2.952-2.342-3.361-.456-.824,3.8-3.584,6.475-6.4,8.948a58.75,58.75,0,0,0-6.67,6.354,7.443,7.443,0,0,1-.609-7.616c1.31-2.393,3.639-4.282,3.57-7.23a1.58,1.58,0,0,0-2.342-1.345c-3.7,1.566-7.708,2.387-11.3,4.178a.791.791,0,0,0-.416.464c-.03,0-.058,0-.088,0a.216.216,0,0,0-.212.213c-.066.97,1.093,1.647,1.809,2.094a5.8,5.8,0,0,0,3.816.5,12.277,12.277,0,0,0-.4,5.712c.626,3.861,3.042,8.2,6.482,10.21a1.715,1.715,0,0,0,2.476-1.006,12.246,12.246,0,0,1,3.565-4.274c1.766-1.573,3.667-2.987,5.441-4.551.462-.407.974-.9,1.481-1.439.014.021.028.045.042.066,1.592,2.362,4.449,3.77,7.022,4.756,1.039.4,1.959-.6,2.026-1.541a18.85,18.85,0,0,1,1.566-6.314,9.236,9.236,0,0,0,5.133,1.586,16.27,16.27,0,0,0,7.786-1.525,10.993,10.993,0,0,0,3.256-2.224A4.654,4.654,0,0,0,1207.711,2983.564Z" fill="#ee9333"/>
      <path id="Path_781" data-name="Path 781" d="M1217.549,2954.752a26.547,26.547,0,0,0-2.814-3.964c-.507-.64-1.02-1.276-1.516-1.927-.292-.383-.566-.779-.839-1.177-.173-.254-.269-.325-.32-.326,0-.033,0-.062,0-.1a1.509,1.509,0,0,0-3.017,0,10.1,10.1,0,0,0,.223,2.36c-1.11,1.766.014,4.686,1.012,6.22,1.735,2.666,4.45,4.875,4.988,8.158.267,1.621,2.448,1.244,2.912,0A10.889,10.889,0,0,0,1217.549,2954.752Z" fill="#ee9333"/>
      <path id="Path_782" data-name="Path 782" d="M1224.809,2916.778a.365.365,0,0,0-.417.169c-.674,1.214-.252,3.014-.252,4.342a18.777,18.777,0,0,1-.178,2.714c-1.162,1.007-2.136,2.222-3.644,2.777-1.991.733-2.775-.384-4.212-1.482a.213.213,0,0,0-.291.077,2.821,2.821,0,0,0-.194.6,5.8,5.8,0,0,1-1.144-2.487c-.11-.683-1.157-.619-1.313,0-1.6,6.365,6.494,10.631,11.334,6.795,2.058-1.631,2.592-4.82,2.629-7.266C1227.154,2921.211,1226.855,2917.513,1224.809,2916.778Z" fill="#ee9333"/>
      <path id="Path_783" data-name="Path 783" d="M1225.8,2886.121a2.707,2.707,0,0,0-1.874.9c.039-.088.078-.174.112-.264.109-.277-.161-.532-.416-.547-2.248-.127-4.047,1.918-5.276,3.606a24.484,24.484,0,0,0-3.457,7.442,40.525,40.525,0,0,0-1.49,7.888c-.184,1.976-.476,4.7.457,6.61.034.246.07.489.11.734.282,1.755,1.211,2.726,2.328,3.987a.613.613,0,0,0,1.04-.43c-.079-1.352.01-2.626-.145-3.992a23.15,23.15,0,0,1-.1-4.5,24.961,24.961,0,0,1,2.866-8.9c1.377-2.777,3.09-5.351,4.573-8.067C1224.706,2890.256,1226.975,2886.19,1225.8,2886.121Z" fill="#ee9333"/>
      <path id="Path_784" data-name="Path 784" d="M1104.123,3023.179c-.013-.314-.042-.606-.077-.918-.006-.1-.014-.211-.03-.313s-.025-.182-.036-.272c-.021-.055-.037-.1-.053-.132a.856.856,0,0,0-1.427-.465,4.3,4.3,0,0,0-1.083,4.048,1.379,1.379,0,0,0,2.642,0A7.144,7.144,0,0,0,1104.123,3023.179Z" fill="#ee9333"/>
      <path id="Path_785" data-name="Path 785" d="M1101.991,3033.666a3.928,3.928,0,0,0-.217-1.48.857.857,0,0,0-1.564-.44c-1.067.692-1.162,2.821-1.04,3.874a1.392,1.392,0,0,0,2.782,0A10.814,10.814,0,0,0,1101.991,3033.666Z" fill="#ee9333"/>
      <path id="Path_786" data-name="Path 786" d="M1143.829,3040.94a1.78,1.78,0,0,0-.559-1.031,5.515,5.515,0,0,0-.517-.4c.247.172-.263-.2-.334-.25.217.155-.09-.086-.11-.1-.086-.079-.158-.169-.238-.251-.057-.058-.107-.121-.161-.181a.556.556,0,0,0-.046-.082,1.184,1.184,0,0,0-.231-.271.878.878,0,0,0-1.635.211c-.957,1.676,1.368,4.306,3.14,3.577A1.022,1.022,0,0,0,1143.829,3040.94Z" fill="#ee9333"/>
      <path id="Path_787" data-name="Path 787" d="M1149.083,3045.4a1.536,1.536,0,0,0-.649-.845q.2.155.011.005c-.126-.1-.253-.2-.384-.293a5.006,5.006,0,0,0-.671-.385,2.252,2.252,0,0,0-.473-.186.775.775,0,0,0-.371-.073.968.968,0,0,0-1.171,1.191,1.135,1.135,0,0,0,.04.275c.039.092.077.185.117.277q-.153-.327.067.175a3.317,3.317,0,0,0,.567.8,4,4,0,0,0,.843.648,1.439,1.439,0,0,0,1.755-.248A1.466,1.466,0,0,0,1149.083,3045.4Z" fill="#ee9333"/>
      <path id="Path_788" data-name="Path 788" d="M1155.248,3042.347a4.344,4.344,0,0,0-2.347-1.439,6.082,6.082,0,0,0-2.245-.568.95.95,0,0,0-.943.943,2.822,2.822,0,0,0,1.582,2.174c.892.527,2.179,1.123,3.214.708A1.254,1.254,0,0,0,1155.248,3042.347Z" fill="#ee9333"/>
      <path id="Path_789" data-name="Path 789" d="M1159.776,3051.7a8.009,8.009,0,0,0-2.618-1.032,5.016,5.016,0,0,0-2.072-.2.979.979,0,0,0-.605,1.775,3.9,3.9,0,0,0,1.585,1.019c.49.22.988.4,1.493.573a5.029,5.029,0,0,0,.726.218,5.289,5.289,0,0,0,.545.081q.6-.116.293-.022A1.3,1.3,0,0,0,1159.776,3051.7Z" fill="#ee9333"/>
      <path id="Path_790" data-name="Path 790" d="M1159.76,3048.186a1.212,1.212,0,0,0-.835-.815,3.522,3.522,0,0,0-.733-.1l-.1-.008a2.241,2.241,0,0,1-.261-.06l-.02,0a1.03,1.03,0,0,0-2.019.26c0,.081.007.161.014.242a1.776,1.776,0,0,0,.9,1.675,3.26,3.26,0,0,0,2.222.33,1.191,1.191,0,0,0,.824-.783A.643.643,0,0,0,1159.76,3048.186Z" fill="#ee9333"/>
      <path id="Path_791" data-name="Path 791" d="M1166.051,3051.705a3.18,3.18,0,0,0-1.4-.126,4.353,4.353,0,0,0-.738.116,5.762,5.762,0,0,0-.7.323,1.026,1.026,0,0,0,0,1.763,4.338,4.338,0,0,0,1.3.424,3.341,3.341,0,0,0,1.542-.11A1.25,1.25,0,0,0,1166.051,3051.705Z" fill="#ee9333"/>
      <path id="Path_792" data-name="Path 792" d="M1223.15,2940.232a62.338,62.338,0,0,0-5.34-7.947,35.749,35.749,0,0,1-3.532-6.574q-.253-1.377-.42-2.768a7.732,7.732,0,0,0,5.164,3.246,5.252,5.252,0,0,0,5.747-7.161,1.108,1.108,0,0,0-.091-.179,2.08,2.08,0,0,0-.1-.36.377.377,0,0,0-.349-.266c-2.157-.1-4.051-.043-5.884-1.5a7,7,0,0,1-1.832-2.274,23.848,23.848,0,0,1-.8-4.841,30.375,30.375,0,0,1,.686-9.389c.591-2.58,1.718-5.1,2.322-7.694,1.321-2.46,2.764-4.834,4.157-7.265,1.167-2.038,2.48-4.481,2.409-6.9-.079-2.729-2.758-3.5-4.95-2.611a1.168,1.168,0,0,0-.437.3c-5.189.5-9.665,4.727-13.083,8.318a53.069,53.069,0,0,0-10.215,15.168c-2.992,6.851-4.646,14.161-6.232,21.436-.815,3.738-1.2,7.559-1.867,11.325-.333,1.891-.723,3.773-1.088,5.657-.255,1.31-.414,2.626-.666,3.928-.6,2.439-1.1,4.912-1.727,7.33a45.951,45.951,0,0,1-6.417,14.549,31.511,31.511,0,0,1-10.143,9.427,21.669,21.669,0,0,1-6.622,2.379,17.24,17.24,0,0,1-7.464-.088,1.235,1.235,0,0,0-1.384,1.8c1.452,2.081,2.848,3.654,5.35,4.413a12.407,12.407,0,0,0,6.919-.4,23.889,23.889,0,0,0,2.972-1.1,33.719,33.719,0,0,0-2.643,5.159c-1.419,3.424-1.505,7.644.84,10.662a1.271,1.271,0,0,0,.953.427c.007.006.012.016.02.024a.286.286,0,0,0,.4,0c.022-.02.04-.043.061-.064l.016,0a1.353,1.353,0,0,0,1.01-1.614,12.5,12.5,0,0,1,.627-1.252,12.927,12.927,0,0,1,2.953-3,37.7,37.7,0,0,0,6.3-5.825,26.21,26.21,0,0,0,2.447-3.8c-.02.618-.02,1.216-.006,1.773.093,3.347,1.233,7.44,4.56,8.888a.444.444,0,0,0,.645-.5,21.417,21.417,0,0,0-.783-2.88c.216-1.061.378-2.132.633-3.188.806-1.388,1.468-2.905,2.269-4.226a28.069,28.069,0,0,0,2.225-4.317,17.2,17.2,0,0,0,1.485,4.318,10.034,10.034,0,0,0,4.51,4.523c1.538.746,5.2,1.656,6.315-.183a.429.429,0,0,0,0-.444c-.015-.021-.034-.039-.049-.059a.8.8,0,0,0-.065-.951c-.636-.813-1.421-1.3-2.132-2.051-.4-.421.216-1.538.409-1.917,1.209-2.377,3.318-4.327,5.219-6.147,2.182-2.088,4.142-3.991,5.369-6.851,1.524-3.554,2.031-8.379.14-11.9a.656.656,0,0,0-.671-.3c-.182-1.168-.373-2.337-.5-3.517a22.079,22.079,0,0,1,.124-5.067c.006-.043.01-.084.013-.128.736,2.466,2.627,4.762,4.223,6.675,2.421,2.9,6,6.188,3.908,10.215a.386.386,0,0,0,.524.524,4.279,4.279,0,0,0,2.319-1.775,4.9,4.9,0,0,0,.585-1.2,6.824,6.824,0,0,0,.778-1.373,7.847,7.847,0,0,0,.653-2.26C1226.843,2951.894,1225.5,2944.925,1223.15,2940.232Z" fill="#b15530"/>
      <path id="Path_793" data-name="Path 793" d="M1160.337,2982.181c-2.494-.053-5,.48-7.493.676a65.8,65.8,0,0,1-7.354.112c-4.773-.155-9.522-.782-14.255-1.376-9.132-1.146-18.476-2.265-27.516.091a32.758,32.758,0,0,0-19.922,14.96c-3.951,6.769-5.234,14.822-5.407,22.552a81.684,81.684,0,0,0,1.2,15.741,34.1,34.1,0,0,0,1.011,6.835,30.785,30.785,0,0,1-7.4,28.738,31.366,31.366,0,0,1-7.763,5.917,14.485,14.485,0,0,0-5.445,4.527c-1.729,2.688-1.908,6.393-2.213,9.476-.412,4.184,0,16.064.008,17.932.019,6.042-.016,11.613-3.236,16.943a.879.879,0,0,0,.752,1.31c.421.007.827.013,1.233,0-.981,1.536-3.128,2.388-3.061,4.464a2.068,2.068,0,0,0,1.975,2.256c-.46.6-.961,1.17-1.441,1.761a.812.812,0,0,0,.568,1.372,23.72,23.72,0,0,0,2.534-.114,8.578,8.578,0,0,0,.1,3.322.533.533,0,0,0,.964.126c.854-1.214.609-2.959.587-4.38a.814.814,0,0,0-1.013-.772,10.018,10.018,0,0,1-1.408.17,11.331,11.331,0,0,0,1.607-2.369c.331-.7-.375-1.6-1.129-1.129-1.014.637-2.157-.323-1.332-1.312a13.649,13.649,0,0,1,1.389-1.285,4.8,4.8,0,0,0,1.6-2.777.793.793,0,0,0-.959-.959,3.465,3.465,0,0,1-.723.04c2.743-4.645,2.92-10.155,2.862-15.461-.066-5.891.313-11.853.04-17.748.028-.232.057-.462.084-.694.388-3.293.484-7.455,2.81-10.077,1.866-2.1,4.847-3.16,7.133-4.721a31.5,31.5,0,0,0,6.712-6.267,33.531,33.531,0,0,0,7.005-16.63,29.058,29.058,0,0,0-.574-10.371c-.382-1.711-.828-3.406-1.231-5.108-1.651-13.313-2.91-27.363,3.477-39.473,4.294-8.143,12.414-13.437,21.3-15.311,9.271-1.956,18.986-.185,28.245.956a112.9,112.9,0,0,0,13.1,1c4.239.029,8.959-.285,12.724-2.393A.3.3,0,0,0,1160.337,2982.181Z" fill="#9a3f21"/>
      <path id="Path_794" data-name="Path 794" d="M1097.128,3006.083c-1.78.382-2.688,3.071-2.336,4.642a1.559,1.559,0,0,0,2.822.369,6.626,6.626,0,0,0,.731-1.934,5.576,5.576,0,0,0,.434-1.818A1.327,1.327,0,0,0,1097.128,3006.083Z" fill="#dc7912"/>
      <path id="Path_795" data-name="Path 795" d="M1092.118,3009.875a1.25,1.25,0,0,0-1.693-.444,4.025,4.025,0,0,0-1.353,4.952,1.445,1.445,0,0,0,2.227.287A4.456,4.456,0,0,0,1092.118,3009.875Z" fill="#dc7912"/>
      <path id="Path_796" data-name="Path 796" d="M1095.424,3016.789a1.265,1.265,0,0,0-1.256-.333,2.538,2.538,0,0,0-1.524,1.841,7.477,7.477,0,0,0-.151,1.11,3.18,3.18,0,0,0,.013,1.554,1.642,1.642,0,0,0,2.714.718,3.574,3.574,0,0,0,.829-2.47A3.094,3.094,0,0,0,1095.424,3016.789Z" fill="#dc7912"/>
      <path id="Path_797" data-name="Path 797" d="M1088.555,3020.612a1.356,1.356,0,0,0-.9-.9,1.282,1.282,0,0,0-1.458.593,7.935,7.935,0,0,0-.494,1.709,2.406,2.406,0,0,0,.391,2.351,1.307,1.307,0,0,0,1.536.2,2.215,2.215,0,0,0,1.061-1.932A4.083,4.083,0,0,0,1088.555,3020.612Z" fill="#dc7912"/>
      <path id="Path_798" data-name="Path 798" d="M1093.961,3026.829a1.176,1.176,0,0,0-1.444-.187c-1.478,1.1-1.585,3.564-1.3,5.249a1.676,1.676,0,0,0,1.186,1.186,1.922,1.922,0,0,0,.9,0,1.682,1.682,0,0,0,1.185-1.186C1094.95,3030.436,1095.03,3028.02,1093.961,3026.829Z" fill="#dc7912"/>
      <path id="Path_799" data-name="Path 799" d="M1092.563,3038.825a3.394,3.394,0,0,0-.758-2.2,1.473,1.473,0,0,0-2.087,0,3.07,3.07,0,0,0-.693,2.2c.034,1.068.6,2.259,1.83,2.259A1.953,1.953,0,0,0,1092.563,3038.825Z" fill="#dc7912"/>
      <path id="Path_800" data-name="Path 800" d="M1095.644,3045.436a5.306,5.306,0,0,0-.7-1.422,1.072,1.072,0,0,0-1.943.254c-.068.36-.22.77-.285,1.168a10.7,10.7,0,0,0-.132,1.8,1.624,1.624,0,0,0,3.247,0A6.679,6.679,0,0,0,1095.644,3045.436Z" fill="#dc7912"/>
      <path id="Path_801" data-name="Path 801" d="M1096.785,2998.155a1.2,1.2,0,0,0-1.35-.549,3.623,3.623,0,0,0-1.811,2.306,1.509,1.509,0,0,0,.7,1.714,1.533,1.533,0,0,0,2.077-.545C1096.87,3000.276,1097.349,2999.032,1096.785,2998.155Z" fill="#dc7912"/>
      <path id="Path_802" data-name="Path 802" d="M1137.788,3047.331a2.88,2.88,0,0,0-1.079-1.321,4.558,4.558,0,0,1-.869-.745,2.923,2.923,0,0,0-1.291-.961,1.364,1.364,0,0,0-1.532.625c-.623,1.07.019,2.267.8,3.041.724.714,2.3,1.711,3.313.971A1.434,1.434,0,0,0,1137.788,3047.331Z" fill="#dc7912"/>
      <path id="Path_803" data-name="Path 803" d="M1139.981,3054.119a2.06,2.06,0,0,0-1.223-.878c.018.006-.229-.087-.3-.108-.084-.053-.275-.168-.256-.14-.549-.459-.969-1.258-1.714-1.4a1.138,1.138,0,0,0-1.11.293c-1.858,2.389,3.056,6.209,4.6,3.539A1.292,1.292,0,0,0,1139.981,3054.119Z" fill="#dc7912"/>
      <path id="Path_804" data-name="Path 804" d="M1145.339,3051.408a2.429,2.429,0,0,0-.729-.5c-.344-.162-.481-.208-.776-.354-.439-.217-.914-.483-1.3-.653a1.173,1.173,0,0,0-1.591,1.591,4.242,4.242,0,0,0,3.389,2.355A1.441,1.441,0,0,0,1145.339,3051.408Z" fill="#dc7912"/>
      <path id="Path_805" data-name="Path 805" d="M1151.3,3059.026c-.636-.27-1.3-.379-1.957-.592a5.073,5.073,0,0,0-1.771-.391,1.047,1.047,0,0,0-.991,1.3c.34,1.742,2.834,2.641,4.362,2.415A1.5,1.5,0,0,0,1151.3,3059.026Z" fill="#dc7912"/>
      <path id="Path_806" data-name="Path 806" d="M1153.495,3054.231c-.409-.179-.818-.268-1.237-.407a2.46,2.46,0,0,0-1.053-.176h-.005a.871.871,0,0,0-.854.651l-.006.042a1.772,1.772,0,0,0,.5,1.7,2.515,2.515,0,0,0,1.958.746,1.421,1.421,0,0,0,1.324-1.008A1.365,1.365,0,0,0,1153.495,3054.231Z" fill="#dc7912"/>
      <path id="Path_807" data-name="Path 807" d="M1161.683,3057.6a2.859,2.859,0,0,0-1.6-.336,3.567,3.567,0,0,0-1.517.152.983.983,0,0,0-.426,1.612,3.23,3.23,0,0,0,3.541.785A1.3,1.3,0,0,0,1161.683,3057.6Z" fill="#dc7912"/>
      <path id="Path_808" data-name="Path 808" d="M1159.508,3061.9a1.747,1.747,0,0,0-1.183-.417c-.376,0-.759.045-1.135.067a.972.972,0,0,0,0,1.943l1,.058a1.782,1.782,0,0,0,1.319-.407A.874.874,0,0,0,1159.508,3061.9Z" fill="#dc7912"/>
      <path id="Path_809" data-name="Path 809" d="M1128.533,3030.138c-.4-2.553-.334-5.426-1.121-7.877-.13-.407-.808-.608-1.01-.134a13.375,13.375,0,0,0-.568,5.647c.066,2.268.239,4.533.325,6.8a59.038,59.038,0,0,1-.42,8.121c-.729,2.672-1.995,5.141-2.921,7.748-1,2.821-2.063,5.627-3.1,8.435a1.421,1.421,0,0,0,.983,1.731c6.653,2.367,7.68-9.608,8.1-13.586a86.216,86.216,0,0,0,.588-9.026A51.734,51.734,0,0,0,1128.533,3030.138Z" fill="#dc7912"/>
      <path id="Path_810" data-name="Path 810" d="M1192.858,3038.092a.284.284,0,0,0-.547-.15,26.771,26.771,0,0,0-1.191,3.127c-.283,1.279-.486,2.572-.689,3.868-.4,2.5-.773,5.006-1.35,7.475-1.188,5.086-4.313,11.137-9.26,13.576-1.071.528.661,1.372,1.79,1a41.437,41.437,0,0,0,5.816-1.953c.173-.072.344-.146.51-.217a5.761,5.761,0,0,0,3.474-4.139,44.311,44.311,0,0,0,.694-7.259c.115-2,.122-4.013.154-6.02q.033-.429.068-.854c.107-1.322.208-2.645.341-3.964.071-.71.124-1.417.2-2.126C1192.959,3039.668,1192.745,3038.875,1192.858,3038.092Z" fill="#dc7912"/>
      <path id="Path_811" data-name="Path 811" d="M1224.9,2917.565c-.108.067-.222.142-.339.22a6.293,6.293,0,0,0-.241-.606c-.156-.336-.61-.192-.713.092s-.211.667-.338,1.1a6.649,6.649,0,0,1-5.88-3.3,21.137,21.137,0,0,1-2.546-9.107,24.124,24.124,0,0,1,1.866-10.882,36.032,36.032,0,0,1,4.081-7.322c1.231-1.778,2.759-3.093,3.036-5.225q.316-.263.644-.515c.817-.627.39-2.078-.744-1.762-4.2,1.171-6.958,4.951-8.853,8.812a15.029,15.029,0,0,0-.843,1.293,36.438,36.438,0,0,0-2.558,5.836,54.955,54.955,0,0,0-2.879,13.842,51.884,51.884,0,0,0,.769,14.032,29.288,29.288,0,0,0,1.738,6.079,26.281,26.281,0,0,0,1.819,3.958,42.584,42.584,0,0,0,3,4.994c2.029,2.958,4.38,5.991,5.58,9.4a13.4,13.4,0,0,1,.932,5.254c-.145,2.6-1.518,5.077-2.7,7.329a.165.165,0,0,0,.224.223,8.75,8.75,0,0,0,3.98-4.809,8.875,8.875,0,0,0,.69-1.8,24.736,24.736,0,0,0,.465-5.412,19.909,19.909,0,0,0-3.012-10.682c-1.866-3.167-4.414-5.855-6.153-9.118a13.553,13.553,0,0,1-1.587-5.309,8.826,8.826,0,0,1,.223-2.259c1.578,2.36,3.87,4.369,6.842,3.634,2.763-.685,3.779-3.639,3.495-6.244a6.566,6.566,0,0,0,.507-1.366A.344.344,0,0,0,1224.9,2917.565Z" fill="#ca6b3a"/>
      <path id="Path_812" data-name="Path 812" d="M1210.537,2946.891c.321-1.894,1.41-3.636,1.438-5.557a.337.337,0,0,0-.5-.288,3.835,3.835,0,0,0-.409.206.177.177,0,0,0-.27-.039,18.9,18.9,0,0,0-5.682,11.978c-.482,5.332,1.319,10.721-2.016,15.43-2.315,3.269-5.287,5.815-5.7,10.037-.317,3.217,2.483,9.023,6.453,6.561a.38.38,0,0,0,0-.648,5.759,5.759,0,0,1-3.215-3.154c.737-1.276.992-2.665,1.627-4.022a12.156,12.156,0,0,1,3.537-4.235,15.085,15.085,0,0,0,3.949-4.145,12.707,12.707,0,0,0,1.58-5.157c.409-3.592-.837-7.26-1.091-10.825A25.631,25.631,0,0,1,1210.537,2946.891Z" fill="#ca6b3a"/>
      <path id="Path_813" data-name="Path 813" d="M1188.832,2979.618c.318-.554,2.587-3.732,1.111-4.213a1.354,1.354,0,0,0-.968.06c.022-.054.041-.11.065-.163.089-.2-.194-.371-.293-.173a5.6,5.6,0,0,1-.594.916,6.112,6.112,0,0,0-.647.756,15.529,15.529,0,0,0-1.5,1.774,23.731,23.731,0,0,0-2.655,5.258c-.932,2.68-.846,6.638,2.876,6.584.159,0,.283-.224.141-.338a3.616,3.616,0,0,1-.986-3.552A65.6,65.6,0,0,1,1188.832,2979.618Z" fill="#ca6b3a"/>
      <path id="Path_814" data-name="Path 814" d="M1181,2975.231a.646.646,0,0,0-1.168-.153c-.643.985-1.022,2.121-1.647,3.126a22.412,22.412,0,0,1-2.14,2.81c-1.581,1.822-3.367,3.444-5.062,5.155a17.607,17.607,0,0,0-3.937,5.7c-.521,1.311-1.737,5.384.387,5.968,1.422.391,1.96-3.916,2.4-4.792.087-.171.185-.333.281-.5a11.531,11.531,0,0,1,1.207-1.463c1.54-1.553,3.328-2.854,4.923-4.353,2.342-2.2,5.061-5.27,4.826-8.661A5.735,5.735,0,0,0,1181,2975.231Z" fill="#ca6b3a"/>
      <path id="Path_815" data-name="Path 815" d="M1219.389,2878.486c-8.173,4.053-13.926,13.166-16.864,21.5a30.229,30.229,0,0,0-1.476,14.376c.658,4.817,2.076,9.468,3.015,14.226.441,2.231,1.094,4.448.733,6.743-.277,1.756-1.637,3.3-2.841,4.521-2.242,2.275-4.4,4.375-5.107,7.618-.946,4.345,1.633,7.953,2.8,11.944a5.836,5.836,0,0,1-1.175,5.784,44.813,44.813,0,0,0-3.7,3.682c-1.8,2.393-1.508,5.221-.145,7.732a.371.371,0,0,0,.675-.286,7.53,7.53,0,0,1,1.306-6.559c1.229-1.329,3-1.983,4.2-3.392,2.718-3.211,1.528-7.47.059-10.923-.871-2.045-1.812-4.091-1.789-6.356a9.417,9.417,0,0,1,1.772-4.95c1.68-2.606,3.821-4.764,4.993-7.687,3.545-8.837-1.908-18.214-1.93-27.2-.023-9.783,5.843-19.649,12.386-26.534,1.166-1.227,2.463-2.309,3.673-3.49C1220.367,2878.838,1219.859,2878.253,1219.389,2878.486Z" fill="#ca6b3a"/>
      <path id="Path_816" data-name="Path 816" d="M1199.221,2925.315a45.786,45.786,0,0,1-2.2-5.069,15.112,15.112,0,0,1-.453-5.379,31.958,31.958,0,0,1,2.923-11.521.5.5,0,0,0-.858-.5c-3.537,5.745-5.78,13.549-3.706,20.172,1.084,3.46,3.2,6.573,2.978,10.329-.2,3.355-3.426,5.463-5.4,7.792a12.045,12.045,0,0,0-2.626,9.287c.322,2.809,2.019,5.7.745,8.467-.952,2.071-2.682,3.747-3.889,5.665a8.839,8.839,0,0,0-.872,7.372.391.391,0,0,0,.765-.1c-.141-5.422,4.774-7.959,6.565-12.562,1-2.573-.072-5.136-.773-7.626-1.137-4.049-.658-7.676,2.618-10.633,2.177-1.964,4.534-2.925,5.725-5.784C1202.1,2932,1200.568,2928.249,1199.221,2925.315Z" fill="#ca6b3a"/>
      <path id="Path_817" data-name="Path 817" d="M1221.807,2875.482c-8.71.625-15.4,8.111-19.548,15.156-.006.01-.012.02-.018.032a.477.477,0,0,0-.216.146,50.035,50.035,0,0,0-7.558,12.864,44.469,44.469,0,0,0-2.9,9.515c-1.37,4.115-1.549,8.717-1.99,12.945a177.092,177.092,0,0,1-3.368,19.315c-.648,2.969-1.355,5.987-2.255,8.94-2.919,5.2-5.772,10.392-9.966,14.752a24.318,24.318,0,0,1-8.341,5.748c-3.566,1.437-7.349,1.23-11.076.722a1.1,1.1,0,0,0-1.06,1.821c1.8,2,3.343,3.505,6.055,4.17a16.515,16.515,0,0,0,8.222-.439c.567-.155,1.126-.344,1.679-.55-.417.481-.829.969-1.221,1.474-3.358,4.321-6.044,11.068-.94,15.189.274.221.847.025.675-.393-3.233-7.908,4.1-14.82,9.32-19.745,5.715-5.39,11.806-10.532,12.426-18.951.315-4.273-1.575-8.372.852-12.312,2.09-3.391,5.342-5.96,6.613-9.852,1.335-4.088-.1-8.456-1.248-12.385a27.914,27.914,0,0,1-1.261-6.212,26.06,26.06,0,0,1,1.239-8c.33-1.223.721-2.433,1.153-3.63a44.307,44.307,0,0,0,.214,13.466,53.7,53.7,0,0,0,2.052,7.762,23.063,23.063,0,0,1,1.588,6.952c.035,4.413-4.239,6.034-6.967,8.619-2.944,2.789-2.4,6.563-1.592,10.154a18.573,18.573,0,0,1,.74,4.619c-.06,2.065-1.62,3.983-2.892,5.463-3.332,3.871-6.058,8.356-3.385,13.319.26.482.945.059.723-.422-.434-.937.046-2.388.213-3.372a10.929,10.929,0,0,1,1.044-3.093c1.085-2.154,2.855-3.831,4.309-5.719a10.879,10.879,0,0,0,2.388-9.419c-.681-3.764-1.947-7.391,1.294-10.249,2.891-2.55,6.058-4.393,6.885-8.479.939-4.642-1.266-9.495-2.334-13.909a39.2,39.2,0,0,1-.714-15.711c1.549-9.321,6.136-18.276,13.506-24.307a26.627,26.627,0,0,1,7.855-4.513C1222.754,2876.684,1222.706,2875.418,1221.807,2875.482Z" fill="#974126"/>
      <path id="Path_818" data-name="Path 818" d="M1220.235,2951.745c-1.57-1.976-3.484-3.658-4.764-5.852-1.148-1.972-1.713-4.232-2.67-6.3a13.206,13.206,0,0,0-.987-2.471c-.095-.218-.4-.052-.363.154.458,2.4-.545,5.18-.732,7.589a8.041,8.041,0,0,0,1.791,5.792c1.246,1.567,3.089,2.569,4.5,3.97a6.425,6.425,0,0,1,1.629,3.072,17.471,17.471,0,0,0,1.126,3.444h0c-.083.289-.179.587-.284.9a.407.407,0,0,0,.5.5C1224.871,2960.746,1222.557,2954.665,1220.235,2951.745Z" fill="#974126"/>
      <path id="Path_819" data-name="Path 819" d="M1200.588,2985.341c-8.132-2.937-6.876-13.909-3.779-20.19a.2.2,0,0,0-.271-.271c-7.525,4.072-6.772,25.6,4.119,20.993C1200.912,2985.764,1200.794,2985.416,1200.588,2985.341Z" fill="#974126"/>
      <path id="Path_820" data-name="Path 820" d="M1224.17,2919.126a.262.262,0,0,0-.411.053c-.93,1.627-1.438,4.089-3.815,3.595a6.378,6.378,0,0,1-3.009-1.816c-.907-.876-1.461-2.418-2.505-3.072a.247.247,0,0,0-.3.04c-1.178,1.274-.061,3.844.765,5.023a7.807,7.807,0,0,0,4.716,3.124C1223.735,2926.944,1226.981,2922.446,1224.17,2919.126Z" fill="#b15530"/>
      <g id="Group_301" data-name="Group 301">
        <path id="Path_821" data-name="Path 821" d="M1220.324,2878.058c-4.851,1.861-8.464,5.845-11.46,10.013a32.054,32.054,0,0,0-5.828,14.783c-.019.162.219.17.268.035a59.9,59.9,0,0,1,6.64-13.568c2.928-4.263,6.878-7.454,10.492-11.071C1220.513,2878.174,1220.436,2878.015,1220.324,2878.058Z" fill="#683307"/>
        <path id="Path_822" data-name="Path 822" d="M1226.083,2944.185a23.129,23.129,0,0,0-5.727-10.934,26.414,26.414,0,0,1-4.178-5.765,8.239,8.239,0,0,1-.649-2.086,6.029,6.029,0,0,0,5.593,1.988c3.745-.556,6-4.962,4.069-11.608a.313.313,0,0,0-.567-.074c-.094.182-.18.363-.269.54a.157.157,0,0,0-.178.161c0,.052.007.1.009.157a2.815,2.815,0,0,1-.875,1.015c-.785.532-1.973-.363-2.553-.821a10.853,10.853,0,0,1-2.737-3.393c-1.867-3.454-1.768-7.684-1.507-11.486a26.563,26.563,0,0,1,2.8-9.769c1.4-2.883,3.417-5.418,4.779-8.31a.128.128,0,0,0-.2-.154c-6.865,5.869-9.944,14.936-9.386,23.778.255,4.031,1.755,8.335,5.1,10.824a4.2,4.2,0,0,0,3.984.988,2.416,2.416,0,0,0,.641-.348c-.068,2.683-.679,5.658-3.268,6.632-2.033.766-4.017-.765-4.924-2.435a12.775,12.775,0,0,1-.965-2.489,11.235,11.235,0,0,0-.21-1.132.3.3,0,0,0-.129-.183c-.1-.44-.191-.868-.27-1.269a.107.107,0,0,0-.205,0,14.968,14.968,0,0,0-.262,2.457,14.22,14.22,0,0,0,2.21,10.625c2.348,3.543,5.389,6.3,6.945,10.361,2.61,6.808,1.834,14.709-3.006,20a7.853,7.853,0,0,0-1.269-5.83c-1.2-1.845-2.9-3-4.468-4.495-2.537-2.419-2.848-5.1-3.019-8.409a.116.116,0,0,0-.214-.058,5.918,5.918,0,0,0-.5.811c-2.615,3.544-.607,9.328.2,13.174.581,2.775,1.08,5.587.429,8.4-.613,2.645-2.575,4.664-4.641,6.288-2.884,2.268-7.022,5.794-6.711,9.876a4.731,4.731,0,0,0,2.929,3.854,8.715,8.715,0,0,1-4.015-.13,10.418,10.418,0,0,1-6.061-4.172c-1.587-2.389-1.307-5.775-.572-8.4.783-2.79,2.806-4.856,3.9-7.473.038-.093-.081-.146-.151-.115-3.092,1.364-4.962,5.044-5.83,8.141a12.916,12.916,0,0,0-.454,4.188c-.937,2.287-2.421,4.437-3.413,6.666a10,10,0,0,0-.63,6.732,7.691,7.691,0,0,1-3.808-6.8,25.571,25.571,0,0,1,.466-4.943c.208-1.284.634-2.678.248-3.953a.146.146,0,0,0-.242-.064c-1.1,1.1-1.4,2.9-1.765,4.363q-.229.933-.376,1.893a30.2,30.2,0,0,1-6.7,8.049c-2.44,2.014-4.624,3.984-5.85,6.823-2.449-2.279-3.178-5.109-2.309-8.583.916-3.672,3.382-6.151,5.769-8.9a.142.142,0,0,0-.137-.235,7.854,7.854,0,0,0-2.921,1.594.213.213,0,0,0-.283-.111,11.656,11.656,0,0,1-8.763.731,9.849,9.849,0,0,1-3.882-2.31,8.8,8.8,0,0,1-1.339-1.752c3.5,1.392,7.9.569,11.288-.678a30.941,30.941,0,0,0,11-7.446c7.1-7.118,10.219-16.245,11.719-25.976,1.537-9.964,2.842-20.017,5.212-29.829a64.447,64.447,0,0,1,5.106-14.347,61.049,61.049,0,0,1,8.19-11.7c4.037-4.7,9.039-8.722,15.165-10.171.478-.112.383-.924-.118-.868-8.761.978-15.237,7.951-20.281,14.6-6.032,7.945-9.206,16.918-11.19,26.618-2.028,9.9-3.026,19.985-4.993,29.888-1.972,9.935-7.223,19.041-15.7,24.812-4.695,3.2-10.692,5.11-16.342,3.765-.037-.044-.071-.089-.108-.132-.331-.372-.822-.037-.872.361-.425,3.419,3.909,6.149,6.6,7.109a8.665,8.665,0,0,0,7.9-.833,17.743,17.743,0,0,0-2.975,5.7,9.489,9.489,0,0,0,4.207,11.208,1,1,0,0,0,1.462-.593c.958-3.931,3.946-6.061,6.861-8.559a14.5,14.5,0,0,0,4.039-5.39c0,.338,0,.674.016,1.01a7.847,7.847,0,0,0,6.63,7.734c.574.1,1.169-.469.8-1.045-1.742-2.761-.283-6.1,1.011-8.718a25.028,25.028,0,0,0,1.574-3.758,9.556,9.556,0,0,0,1.554,3.465c3.185,4.369,9.79,6.041,13.928,2.778a5.451,5.451,0,0,0,3.317-3.5c.1-.274-.294-.489-.483-.282-1.706,1.867-5.08,3.23-6.292.054-.667-1.746.888-3.766,1.926-5.008,2.452-2.935,5.934-4.657,8.052-7.9,2.388-3.661,1.728-8.094.826-12.108-.51-2.271-1.175-4.5-1.613-6.789l-.033-.174a15.865,15.865,0,0,0,3.644,4.289,13.433,13.433,0,0,1,3.266,4.031c2.082,3.523-1.05,6.69-.787,6.65,3.881-.568,6.718-4.97,8.03-8.33A22.485,22.485,0,0,0,1226.083,2944.185Z" fill="#683307"/>
      </g>
      <path id="Path_823" data-name="Path 823" d="M1298.1,2915.833a19,19,0,0,1-5.909-5.436,35.42,35.42,0,0,1-3.97-9.246c-.893-2.823-1.452-5.726-2.334-8.55-.753-2.409-1.686-5.439-4.006-6.779-.087-.05-.212.056-.146.146,1.891,2.52,2.515,5.872,3.148,8.886a88.826,88.826,0,0,0,2.4,9.507c1.673,5.106,4.578,10.739,9.783,12.613A3.853,3.853,0,0,1,1298.1,2915.833Z" fill="#9a3f21"/>
      <path id="Path_824" data-name="Path 824" d="M1244.476,2950.148c-4.788,3.888-7.814,9.478-10.192,15.117a.952.952,0,0,0-.107-.239,1,1,0,0,0-.531-.431c-.988-.392-2.171.973-2.532,1.766a1.47,1.47,0,0,0,.517,1.968,1.5,1.5,0,0,0,1.441.006q-.98,2.652-1.76,5.366a1.1,1.1,0,0,0-.33-.325,1.608,1.608,0,0,0-2.789.681,1.478,1.478,0,0,0-.032.62,4.945,4.945,0,0,0-.65,1.742,1.625,1.625,0,0,0,2.675,1.586c-.627,2.656-1.147,5.341-1.587,8.034-.061.366-.112.733-.168,1.1a.919.919,0,0,0-1.482-.247l-.007.006c-1.207.572-1.741,2.346-1.7,3.6a1.806,1.806,0,0,0,2.53,1.548c-.426,3.69-.709,7.4-.906,11.1a10.788,10.788,0,0,1-.067-1.437c.046-1.278-2-1.962-2.537-.687a9.2,9.2,0,0,0-.719,2.641,8.346,8.346,0,0,0,.1,3.21,1.685,1.685,0,0,0,3.036.4c-.108,3.452-.067,6.908-.15,10.36-.1,4.045-.729,8.006-1.038,12.025-.025.333.408.375.568.154,2.3-3.169,3.179-7.058,3.528-11.061.371-1.118.7-2.249,1.064-3.339a47.975,47.975,0,0,0,2.03-9.28c.819-6.479,1.3-12.993,1.993-19.485a154.668,154.668,0,0,1,2.8-17.5,97.453,97.453,0,0,1,4.148-12.754c1.076-1.978,2.19-3.937,3.3-5.908A.285.285,0,0,0,1244.476,2950.148Z" fill="#ffe093"/>
      <path id="Path_825" data-name="Path 825" d="M1226.893,2981.685a1.347,1.347,0,0,0-2.27-.94,4.083,4.083,0,0,0-1.267,2.995,1.749,1.749,0,0,0,1.266,1.661,1.731,1.731,0,0,0,2.121-1.2A10.528,10.528,0,0,0,1226.893,2981.685Z" fill="#ffe093"/>
      <path id="Path_826" data-name="Path 826" d="M1213.072,3037.246a3.112,3.112,0,0,0-.616.455,9.61,9.61,0,0,0-1.471-2.33c-1.775-2.054-4.372-2.831-6.993-3.082a11.539,11.539,0,0,0-7.506,1.866,6.69,6.69,0,0,0-2.007,2.247.387.387,0,0,0-.537.009,5.319,5.319,0,0,0-.989,3.132c-.681,3.929-.616,8.017-.908,11.985-.359,4.881-.807,9.756-1.234,14.631-.408,4.649-.817,9.3-1.113,13.956-.257,4.033-.73,8.188-.259,12.208-.085,1-.167,2.007-.267,3.008-.378,3.788-.865,7.562-1.374,11.336-.377,2.8-.574,5.619-1.046,8.405a24.593,24.593,0,0,1-1.14,4.355,12.453,12.453,0,0,1-.814,1.747c-.279.506-1.033,1.284-.318,1a1.138,1.138,0,0,0,0,2.174,1.6,1.6,0,0,0,1.6-.269,8.678,8.678,0,0,1-.194,2.481c-.041.043-.086.085-.125.13a3.624,3.624,0,0,1-1.137,1.006c-.964.473-.282,1.989.718,1.7a1.848,1.848,0,0,0,.324-.129c.022.016.046.028.069.043-.011.093-.023.187-.042.288a7.48,7.48,0,0,1-.2.81c-.035.114-.069.226-.106.338a.524.524,0,0,0-.031.051,1.251,1.251,0,0,0,1.059,1.869c-.058.31-.1.621-.134.936-.066.7-.113,1.411-.12,2.122a1.234,1.234,0,0,0,1.156,1.279c.456,2.575,4.784,3.028,6.783,3.2,2.24.2,6.3.258,7.545-2.114a1.469,1.469,0,0,0,1.41-1.515v-.067c0-.012,0-.018,0-.029-.017-1.579-.377-3.164-.535-4.737-.21-2.093-.3-4.2-.334-6.3a125.2,125.2,0,0,1,.463-12.536c.342-4.17.8-8.331,1.177-12.5a46.106,46.106,0,0,0,.328-9.558c.369-3.825.789-7.643,1.416-11.436.717-4.334,1.636-8.636,2.417-12.96.364-2.016.87-4.339,1.082-6.632.772-3.66,1.258-7.385,1.9-11.067.357-2.044.825-4.06,1.37-6.061.428-1.566,1.389-3.492,1.337-5.108A.408.408,0,0,0,1213.072,3037.246Z" fill="#ffae55"/>
      <path id="Path_827" data-name="Path 827" d="M1210.979,3042.683c-1.516,2.434-2.268,5.428-3.047,8.162-.86,3.023-1.635,6.067-2.37,9.123-1.534,6.388-2.677,12.863-3.6,19.366-.867,6.111-1.448,12.271-1.742,18.436a156.906,156.906,0,0,0,.752,20.414.142.142,0,0,0,.284,0c.56-6.589,1.588-13.1,1.965-19.716.358-6.273,6.17-43.96,6.864-47.028.631-2.787,1.509-5.708,1.541-8.581A.35.35,0,0,0,1210.979,3042.683Z" fill="#ffc871"/>
      <path id="Path_828" data-name="Path 828" d="M1222.9,2993.662c-1.582-.058-2.1,2.592-1.948,3.776a1.651,1.651,0,0,0,1.172,1.536,1.607,1.607,0,0,0,1.962-1.113,9.8,9.8,0,0,0,.2-2.225C1224.285,2994.735,1223.96,2993.7,1222.9,2993.662Z" fill="#ffe093"/>
      <path id="Path_829" data-name="Path 829" d="M1125.236,3021.444a.847.847,0,0,0-1.433,0c-.939,1.222-.751,3.372-.851,4.847-.138,2.042-.163,4.089-.306,6.131a90.9,90.9,0,0,1-1.654,12.242,45.625,45.625,0,0,1-3.77,11.051c-1.841,3.707-4.263,6.949-6.4,10.462a.308.308,0,0,0,.418.418c6.975-4.237,10.463-13.109,12.475-20.608a68.689,68.689,0,0,0,1.978-12.452c.156-2.04.238-4.084.292-6.13C1126.033,3025.694,1126.328,3022.871,1125.236,3021.444Z" fill="#ffe093"/>
      <g id="Group_302" data-name="Group 302">
        <path id="Path_830" data-name="Path 830" d="M1288.89,2930.607c-3.152-1.195-6.9-1.225-10.223-1.733a99.738,99.738,0,0,1-10.968-2.282,128.9,128.9,0,0,1-19.354-6.988,91.088,91.088,0,0,1-17.462-10.294c-2.529-1.908-4.983-3.934-7.41-5.969-2.314-1.942-4.181-4.25-6.374-6.307-.493-.463-1.6-.192-1.489.617.378,2.839,2.323,4.869,4.339,6.76,2.5,2.348,5.286,4.457,7.989,6.565a92.042,92.042,0,0,0,18.252,11.015,128.751,128.751,0,0,0,20.1,7.3,106.88,106.88,0,0,0,10.952,2.149c3.626.584,7.689,1.632,11.362,1.3A1.09,1.09,0,0,0,1288.89,2930.607Z" fill="#f22"/>
        <path id="Path_831" data-name="Path 831" d="M1287.3,2930.052c-2.37-1.879-6.276-2.015-9.166-2.467a95.983,95.983,0,0,1-10.345-1.96,133.112,133.112,0,0,1-18.84-6.619,95.712,95.712,0,0,1-17.313-9.809c-5.459-3.924-9.9-8.679-14.473-13.556a.363.363,0,0,0-.568.438c3.073,5.385,7.975,9.783,12.864,13.509a93.2,93.2,0,0,0,17.615,10.375,131.522,131.522,0,0,0,18.693,6.83,84.75,84.75,0,0,0,10.667,2.208c1.873.285,3.744.58,5.6.946a22.39,22.39,0,0,0,4.932.9C1287.336,2930.839,1287.641,2930.322,1287.3,2930.052Z" fill="#7f0909"/>
        <path id="Path_832" data-name="Path 832" d="M1287.641,2933.349a10.424,10.424,0,0,0-4.526-1.6c-1.782-.38-3.572-.718-5.363-1.051-3.841-.715-7.686-1.41-11.49-2.307a100.476,100.476,0,0,1-19.095-6.572,104.533,104.533,0,0,1-16.436-9.6c-2.8-1.981-5.495-4.116-8.111-6.338-2.407-2.046-4.706-4.464-7.345-6.2a.368.368,0,0,0-.5.5,38.313,38.313,0,0,0,6.748,6.8c2.406,2.081,4.9,4.055,7.463,5.942a99.775,99.775,0,0,0,36.173,16.875c3.791.948,7.647,1.627,11.49,2.333,2.017.371,4.034.746,6.044,1.155a13.041,13.041,0,0,0,4.887.539C1287.827,2933.774,1287.792,2933.466,1287.641,2933.349Z" fill="#7f0909"/>
      </g>
      <path id="Path_833" data-name="Path 833" d="M1243.21,2882.193c-3.772,1.737-5.786,6.209-7.41,9.8a50.191,50.191,0,0,0-4.465,15.119,76.81,76.81,0,0,0,.289,17.172,74.176,74.176,0,0,0,1.55,8.211c.445,1.954.853,4.741,2.757,5.837a.308.308,0,0,0,.459-.263,47.734,47.734,0,0,0-1.093-6.158,74.218,74.218,0,0,1-.944-8.3,88.217,88.217,0,0,1,.224-15.237,46.174,46.174,0,0,1,4.143-14.139c1.569-3.563,4.533-7.142,7.046-10.138C1246.68,2883.008,1244.491,2881.6,1243.21,2882.193Z" fill="#f22"/>
      <path id="Path_834" data-name="Path 834" d="M1288.77,2942.98a12.245,12.245,0,0,0-6.249-1.549,42,42,0,0,0-7.879,1.124c-5.706,1.1-11.407,2.253-17.24,2.325a35.923,35.923,0,0,1-7.433-.657.4.4,0,0,0-.546-.115,27.272,27.272,0,0,1-7.969-3.043,38.632,38.632,0,0,1-5.99-4.675c-1.393-1.234-2.739-2.8-4.7-2.95-.163-.013-.182.2-.075.278,1.84,1.341,3.163,3.475,4.784,5.084a29.812,29.812,0,0,0,5.483,4.226,24.057,24.057,0,0,0,6.619,2.711,31.635,31.635,0,0,0-5.324,8.276,81.123,81.123,0,0,0-4.656,12.536c-3.094,10.494-4.092,21.183-5.26,32.014a191.656,191.656,0,0,1-5.9,30.326c-2.474,8.961-6.182,17.535-12.33,24.6-.552.635-3.023,3.052-3.412,3.442,1.07-6.523,2.292-12.988,3.969-19.428.123-.469-.531-.618-.7-.193-3.827,6.959-5.861,25.553-6.1,27-1.557,9.4-3.455,18.708-4.62,28.173a271.3,271.3,0,0,0-1.76,29.071,115.58,115.58,0,0,0,.541,14.095q.092.847.207,1.716a3.7,3.7,0,0,1,1.351.146,3.748,3.748,0,0,1,.543.049c-.153-1.073-.287-2.152-.385-3.24a127.142,127.142,0,0,1-.312-13.442,280.334,280.334,0,0,1,1.729-28.4c1.126-9.522,2.971-18.918,4.415-28.391q.34-2.25.7-4.485a13.955,13.955,0,0,0,1.335-.859c-.072,1.671-.036,3.356-.067,5-.058,3.115-.047,6.232-.067,9.348-.039,6.185-.134,12.388.009,18.572.127,5.549.827,11.066.8,16.62a40.5,40.5,0,0,1-1,8.854,9.7,9.7,0,0,1-1.34,3.578c-.432.6-1.037,1.087-1.016,1.87a.8.8,0,0,0,.582.764,4.652,4.652,0,0,0,2.723-.142,7.64,7.64,0,0,1-1.029,1.539c-.475.5-1.35,1.372-1.038,2.164a2.314,2.314,0,0,0,2.54,1.695c-.316.609-.661,1.2-1.019,1.8a.813.813,0,0,0,.7,1.212h.922a3.783,3.783,0,0,0,.058.957.748.748,0,0,0,1.434,0c.117-.421.018-.969.219-1.355a.816.816,0,0,0-.7-1.215h-.547a20.637,20.637,0,0,0,1.325-2.85c.3-.816-.794-1.277-1.35-.785a2.324,2.324,0,0,1-1.4.736q-.708-.759-.05-1.262a8.717,8.717,0,0,0,.726-.946,6.254,6.254,0,0,0,1.02-2.8.267.267,0,0,0-.005-.039.737.737,0,0,0-1.057-.827,4.762,4.762,0,0,1-2.1.725c.367-.438.9-.948,1.09-1.224a10.365,10.365,0,0,0,1.084-3.11,36.554,36.554,0,0,0,1.066-8.027c.231-5.762-.539-11.52-.764-17.271-.24-6.161-.025-12.354-.064-18.519l-.059-9.346c-.016-2.272.05-4.636-.149-6.932a42.734,42.734,0,0,0,5.351-6.265,54.1,54.1,0,0,0,6.4-11.533c.691-1.659,1.316-3.338,1.891-5.033-.662,5.909-.834,11.915-1.024,17.8-.282,8.738-.278,17.483-.288,26.225-.011,9.035.1,18.079.857,27.087.369,4.368,1.026,8.679,1.652,13.014.654,4.532.674,9.442,2.271,13.769a.347.347,0,0,0,.678-.091c.447-4.139-.313-8.44-.823-12.546-.557-4.484-1.289-8.931-1.707-13.433-.835-9-.9-18.053-.926-27.087-.029-8.749-.06-17.5.118-26.246.172-8.482.9-16.917,1.257-25.385,1.293-4.874,2.308-9.826,3.3-14.765,2.278-11.309,2.572-22.853,4.486-34.212,1.579-9.362,4.32-19.035,8.821-27.423a41.466,41.466,0,0,1,3.577-5.359,42.473,42.473,0,0,0,6.484.794c5.288.272,10.577-.614,15.753-1.588,5.52-1.037,11.681-3.022,17.306-1.678A.337.337,0,0,0,1288.77,2942.98Z" fill="#9a3f21"/>
      <path id="Path_835" data-name="Path 835" d="M1237.551,2898.567c1.472-4.621,5.217-8.031,6.748-12.557.113-.331-.375-.635-.6-.351a49.047,49.047,0,0,0-7.426,11.9c-1.846,4.545-2.467,9.807-3.01,14.654a61.954,61.954,0,0,0,.1,15.406,42.793,42.793,0,0,0,1.7,8.063c-.088-.092-.179-.184-.268-.275-.582-2.127-1.525-4.2-2.022-6.348a52.833,52.833,0,0,1-1.1-7.218,64.289,64.289,0,0,1,.478-14.863,54.165,54.165,0,0,1,4.094-14.327,38.926,38.926,0,0,1,3.3-5.885c1.267-1.875,3.212-3.452,4.243-5.455.079-.154-.055-.405-.25-.325-1.779.722-3.115,2.517-4.25,4a39.947,39.947,0,0,0-4.032,6.519,52.476,52.476,0,0,0-4.6,15.06,63.476,63.476,0,0,0-.508,15.76,55.159,55.159,0,0,0,1.128,7.15c.593,2.639,1.4,5.7,3.428,7.632a.243.243,0,0,0,.212.07c.218.452.438.893.681,1.3.635,1.05,1.534,2.742,2.8,3.055a.45.45,0,0,0,.548-.549,2.161,2.161,0,0,0-.358-.69,37.5,37.5,0,0,0-2-5.532,35.884,35.884,0,0,1-1.564-6.919,61.2,61.2,0,0,1-.167-14.969A69.975,69.975,0,0,1,1237.551,2898.567Z" fill="#7f0909"/>
      <g id="Group_303" data-name="Group 303">
        <path id="Path_836" data-name="Path 836" d="M1291.533,2880.387c-2.556,1.66-5.074,1.982-7.716.37a14.236,14.236,0,0,1-3.039-2.71,22.3,22.3,0,0,0-7.5-12.273,21.493,21.493,0,0,0-11.884-4.286,37.959,37.959,0,0,0-13.178,1.737,54.18,54.18,0,0,0-6.076,2.253,16.644,16.644,0,0,0-4.7,2.612.772.772,0,0,0-1.051.471c-1.268,3.393,2.617,4.634,4.418,6.627,1.689,1.871,2.161,5.393,2.85,7.751a37.122,37.122,0,0,0,2.781,7.274,1.334,1.334,0,0,0,2.29,0c.135-.3.313-.623.509-.965a10.5,10.5,0,0,0,8.006,6c.788.108,1.891-.525,1.494-1.495a14.518,14.518,0,0,1-.935-4.218,11.64,11.64,0,0,0,3.217,1.868c3.687,1.5,7.607,1.78,11.434,2.707a1.364,1.364,0,0,0,1.527-1.986c-.526-.885-1.129-1.764-1.757-2.627.22.113.418.207.577.278a37.241,37.241,0,0,0,4.675,1.875,18.07,18.07,0,0,0,6.409.268c1.021-.082,1.838-1.4.913-2.2a24.693,24.693,0,0,1-2.645-2.531,6.712,6.712,0,0,1-.542-.772c3.14.6,6.991-.162,8.736-2.842a5.286,5.286,0,0,0,1.637-2.845A.307.307,0,0,0,1291.533,2880.387Z" fill="#b15530"/>
        <path id="Path_837" data-name="Path 837" d="M1290.96,2880.677c-1.1,0-1.811.878-2.827,1.238a7.572,7.572,0,0,1-1.751.372c.042-.033.085-.065.125-.1a.378.378,0,0,0-.165-.628c-7.556-1.794-8.892-10.109-13.645-15.135-2.753-2.911-6.877-4.172-10.779-4.334a22.251,22.251,0,0,0-3.441.16c-6.457-.471-12.507,1.943-18.381,4.268a.167.167,0,0,0-.109.2c-.128.066-.26.131-.386.2a.349.349,0,0,0,.175.646c5.2-.407,10.177-1.477,15.432-1.042,5.027.417,10.126,2.139,13.106,6.419,2.514,3.609,3.64,7.982,5.945,11.716a15.27,15.27,0,0,0,4.225,4.5c1.573,1.108,4.74,2.485,6.3.737a.782.782,0,0,0,.119-.92c-.512-1-1.556-1.234-2.593-1.456a6.963,6.963,0,0,1-2.757-1.5c2.868.987,6.483,1.229,8.42-1.2,1.749-.718,3.584-1.992,3.508-3.621A.523.523,0,0,0,1290.96,2880.677Z" fill="#ca6b3a"/>
        <path id="Path_838" data-name="Path 838" d="M1273.984,2891.007a34.714,34.714,0,0,1-4.883-4.776c-1.338-1.486-2.473-3.2-4.409-3.944a.185.185,0,0,0-.227.227c.849,2.112,2.083,4.087,3.108,6.119a11.655,11.655,0,0,0,1.559,2.349,9.944,9.944,0,0,1-2.289-1.955c-1.268-1.413-2.331-3.044-3.492-4.545a73.227,73.227,0,0,1-4.558-5.911.163.163,0,0,0-.28.165c2.446,4.053,3.8,8.761,6.867,12.453,1.759,2.116,5.237,4.187,7.876,2.507C1274.629,2893.824,1275.083,2891.835,1273.984,2891.007Z" fill="#ca6b3a"/>
        <path id="Path_839" data-name="Path 839" d="M1258.82,2892.773a11.66,11.66,0,0,0-.934-2.518c-.517-1.386-1.012-2.777-1.556-4.154-.5-1.259-.986-2.52-1.575-3.741-.433-.9-1.193-1.622-1.583-2.522-.087-.2-.379-.028-.293.172.364.84.132,2.123.257,3.033.208,1.523.519,3.026.83,4.53.364,1.752.871,5.481,2.569,6.51A1.528,1.528,0,0,0,1258.82,2892.773Z" fill="#ca6b3a"/>
        <path id="Path_840" data-name="Path 840" d="M1257.259,2893.506c-4.1-.612-5.873-6.4-6.671-9.784a32.5,32.5,0,0,0-1.32-4.7,9.666,9.666,0,0,0-.114-2.388,11.762,11.762,0,0,0-5-7.287c-2.255-1.61-5.989-2.559-8.316-.625a.608.608,0,0,0-.186.251,1.067,1.067,0,0,0-.173.176c-1.4,1.849,1.153,3.47,2.673,3.862a8.552,8.552,0,0,1,.863.271c.549.949,1.282,1.85,1.754,2.571a16.3,16.3,0,0,1,2.683,6.443c.257,1.584,1.051,7.94,3.66,8.1a1.983,1.983,0,0,0,1.318.35,1.229,1.229,0,0,0,1.113-.783c1.613,2.676,6.289,5.191,9.293,3.938C1259.006,2893.829,1257.5,2893.542,1257.259,2893.506Z" fill="#974126"/>
        <path id="Path_841" data-name="Path 841" d="M1268.115,2892.968a72.724,72.724,0,0,1-6.574-5.225,20.421,20.421,0,0,1-2.625-3.435c-.864-1.33-2.229-3.04-2.466-4.609-.027-.181-.337-.139-.32.043.168,1.776-.27,3.362.159,5.159a11.982,11.982,0,0,0,2.649,4.779,10.051,10.051,0,0,0,9.049,3.774A.292.292,0,0,0,1268.115,2892.968Z" fill="#974126"/>
        <path id="Path_842" data-name="Path 842" d="M1283.156,2889.8a16.553,16.553,0,0,1-4.593-1.7,19.062,19.062,0,0,1-4.3-2.6,66.425,66.425,0,0,1-6.745-7.012c-3.755-4.093-8.923-8.46-14.858-8.206a.207.207,0,0,0-.1.384c2.865,1.654,5.773,2.838,8.266,5.1a62.924,62.924,0,0,1,6.178,6.861,32.963,32.963,0,0,0,7.469,7.128c2.97,1.909,6,3.253,11.013.853C1285.781,2890.462,1283.4,2889.829,1283.156,2889.8Z" fill="#974126"/>
        <path id="Path_843" data-name="Path 843" d="M1292.721,2878.982c-.013-.1-.142-.116-.211-.059a3.086,3.086,0,0,0-.04-.336.249.249,0,0,0-.413-.108c-1.033,1.054-1.7,1.949-3.207,2.37a5.686,5.686,0,0,1-4.536-.81c-2.271-1.483-3.267-4.845-4.462-7.134a22.029,22.029,0,0,0-11.088-10.527c-5.237-2.088-11.168-2.188-16.661-1.215a42.628,42.628,0,0,0-9.594,3.055c-2.656,1.163-5.618,2.678-7.547,4.9a.393.393,0,0,0,.474.614,63.955,63.955,0,0,1,8.749-4.517,40.524,40.524,0,0,1,10.877-2.626c5.732-.527,11.831.277,16.638,3.612a20.8,20.8,0,0,1,5.669,6.372c1.5,2.451,2.365,5.348,4.22,7.573a7.13,7.13,0,0,0,6.613,2.613,6.231,6.231,0,0,0,3.378-1.576,9.9,9.9,0,0,1-6.675,4.44,8.472,8.472,0,0,1-5.082-.465,6.187,6.187,0,0,1-2.042-1.488c-.576-.628-.772-1.5-1.35-2.105a.247.247,0,0,0-.407.107c-.564,1.715,1.173,3.689,2.439,4.6a7.217,7.217,0,0,0,3.535,1.216,29.351,29.351,0,0,0,2.541,2.563c-3.125,2.466-8.558,1.028-11.557-1.46a8.089,8.089,0,0,0-.817-.767c-.616-.494-1.487.317-.887.887a10.814,10.814,0,0,1,2.344,4.35,18.988,18.988,0,0,1-9.28-.769,13.18,13.18,0,0,1-4.468-2.506,7.129,7.129,0,0,1-1.325-1.53,6.14,6.14,0,0,0-1.31-2.568.294.294,0,0,0-.232-.087l-.008,0a.281.281,0,0,0-.279.221,9.206,9.206,0,0,0,.447,3.445,25.706,25.706,0,0,1,.71,4.918c-3.6-.207-7.217-2.007-7.786-5.93-.115-.8-1.158-.566-1.39,0q-.4.968-.829,1.921c-6.423-3.63-1.55-18.189-11.363-17.9a.2.2,0,0,0-.053.393c8.851,2.775,2.685,16.908,11.615,19.538a.9.9,0,0,0,1.089-.618c.081-.251.164-.5.246-.749,1.634,3.316,5.467,5.079,9.247,4.919a.79.79,0,0,0,.748-.982c-.182-1.087-.246-2.375-.375-3.673a13.953,13.953,0,0,0,3.878,2.469,18.5,18.5,0,0,0,11.946.956.865.865,0,0,0,.591-1.042,9.418,9.418,0,0,0-.722-2.3c3.75,2.025,8.483,2.744,11.546-.531a.816.816,0,0,0,0-1.137,14.767,14.767,0,0,0-2.356-2.007c.27-.019.534-.049.791-.085C1288.911,2886.818,1293.365,2883.7,1292.721,2878.982Z" fill="#683307"/>
      </g>
      <g id="Group_304" data-name="Group 304">
        <path id="Path_844" data-name="Path 844" d="M1239.147,2874.7c-.587-3.656-2.73-7.06-5.073-9.813a19.725,19.725,0,0,0-4.992-4.14,15.993,15.993,0,0,0-2.227-1.23c-.972-.495-1.975-.969-3.006-1.456a32.822,32.822,0,0,1-3.376-1.771c-.837-.522-1.926-1.564-2.888-1.713a.664.664,0,0,0-.1,0c-.453-.252-1.213.077-1.156.669q.029.282.077.556a.746.746,0,0,0-.1.352,3.678,3.678,0,0,0,1.652,2.969c2.658,3.313,7.834,5.13,10.576,8.115,2.862,3.118,3.328,7.921,3.922,11.9a4.1,4.1,0,0,0,2.033,3.359,3.643,3.643,0,0,0,3.974-.465C1240.329,2880.1,1239.842,2877.054,1239.147,2874.7Z" fill="#ffae55"/>
        <path id="Path_845" data-name="Path 845" d="M1230.449,2870.642a19.25,19.25,0,0,0-7.307-7.27,32.655,32.655,0,0,1-4.265-2.968c-1.138-.994-1.658-2.327-2.561-3.486a.2.2,0,0,0-.3.039c-.034.051-.058.1-.087.154a.275.275,0,0,0-.237.22,42.344,42.344,0,0,0,1.924,20.054,20.822,20.822,0,0,0,3.791,7.067c1.327,1.531,4.3,3.772,6.257,2.054a.753.753,0,0,0,.116-.141c2.235-.537,4.739-2.661,5.277-4.515C1234.085,2878.3,1232.087,2873.713,1230.449,2870.642Z" fill="#ee9333"/>
        <path id="Path_846" data-name="Path 846" d="M1232.8,2878.763a15.366,15.366,0,0,0-1.492-6.486c-1.481-3.129-4.068-5.544-6.677-7.732q-2-1.674-4.053-3.268a15.123,15.123,0,0,1-2.151-2.185c-.675-.782-.971-1.646-1.861-2.211a.377.377,0,0,0-.443.027.37.37,0,0,0-.475.327c-.284,3.325,1.162,6.415,2.983,9.136,1.962,2.931,4.852,5.337,6.5,8.453,1.623,3.076-.5,6.624,2.014,9.378,1.4,1.541,3.448,2.009,4.787.166C1232.988,2882.915,1232.853,2880.453,1232.8,2878.763Z" fill="#d97c1b"/>
        <path id="Path_847" data-name="Path 847" d="M1237.94,2871.163a23.305,23.305,0,0,0-14.09-13.337c-1.393-.6-2.913-1-4.249-1.706-.419-.224-1.327-.972-1.836-.568-1.751,1.389,1.67,3.339,2.6,3.771a50.138,50.138,0,0,1,8.315,4.344,20.452,20.452,0,0,1,5.8,6.97,22.975,22.975,0,0,1,1.741,4.134c.431,1.356.519,2.8.946,4.142a1.21,1.21,0,0,0,2.315,0C1240.134,2876.441,1238.93,2873.391,1237.94,2871.163Z" fill="#ffc871"/>
        <path id="Path_848" data-name="Path 848" d="M1238.9,2869.421a20.428,20.428,0,0,0-5.556-7.716,33.349,33.349,0,0,0-8.445-5.214c-2.75-1.231-5.856-2.52-8.9-2.612a.651.651,0,0,0-.631.648,20.048,20.048,0,0,0-.868,4.611c-.268,2.089-.537,4.173-.688,6.273a27.36,27.36,0,0,0,1.154,10.521,24.826,24.826,0,0,0,3.951,7.689c1.527,1.934,3.821,4.152,6.481,4.026a.879.879,0,0,0,.757-.434c.318-.639-.065-1.087-.661-1.355a12.466,12.466,0,0,1-3.594-2.121,19.351,19.351,0,0,1-4.576-7.57,26.45,26.45,0,0,1-1.434-10.115c.052-2.1.264-4.208.447-6.3.061-.705.143-1.449.183-2.2,2.025,3.354,6.048,5.669,8.862,8.12a20.872,20.872,0,0,1,5.119,6.98,20.547,20.547,0,0,1,1.44,4.583c.3,1.479.176,3.075.636,4.507a.694.694,0,0,0,1.329,0c.746-2.487-.208-5.885-.957-8.29a21.434,21.434,0,0,0-4.43-7.643c-3.33-3.819-8.268-5.978-11.289-10.081,2.018.8,4.119,1.42,6.1,2.311a36.873,36.873,0,0,1,8.06,4.848,18.7,18.7,0,0,1,5.64,7.635c1.161,2.863,1.321,6.01,2.4,8.871a.731.731,0,0,0,1.428-.194C1241.181,2875.984,1240.093,2872.369,1238.9,2869.421Z" fill="#9a3f21"/>
      </g>
      <path id="Path_849" data-name="Path 849" d="M1284.237,2934.128c-6.081,9.619-10.918,19.919-15.521,30.322-3.994,9.025-8.114,17.825-13.947,25.843a59.556,59.556,0,0,1-21.75,18.59,74.647,74.647,0,0,1-29.478,7.214c-16.174.825-33.218-.619-47.18-9.517-5.323-3.392-10.322-7.9-13.168-13.6a16.494,16.494,0,0,1-1.848-6.48c-.15-2.634,1.874-3.5,4.229-3.577a.808.808,0,0,0,0-1.616c-2.552-.173-5.272.444-6.514,2.915-1.235,2.455-.672,5.307.1,7.817,2.17,7.015,7.723,12.212,13.53,16.389,7.562,5.437,16.651,8.65,25.787,10.152a118.056,118.056,0,0,0,29.847.78,76.954,76.954,0,0,0,28.829-8.557c8.317-4.394,15.206-11.143,20.7-18.7,5.806-7.993,9.576-17.1,13.472-26.121,4.517-10.448,8.885-21,14.38-30.989A.851.851,0,0,0,1284.237,2934.128Z" fill="#7f0909"/>
      <path id="Path_850" data-name="Path 850" d="M1296.527,2913.864c-3.118-.686-5.1,2.677-6.716,5a27.212,27.212,0,0,0-3.5,8.124,41.18,41.18,0,0,0-1.746,9.247c-.111,2.2-.393,5.919,1.921,6.978.762.348,2.58.52,2.783-.423,1.005-4.674.3-18.454,8.588-27.311.03-.024.062-.045.092-.071C1298.3,2915.1,1296.982,2913.964,1296.527,2913.864Z" fill="#f22"/>
      <path id="Path_851" data-name="Path 851" d="M1299.191,2914.338a28.1,28.1,0,0,0-3.511-1.05.47.47,0,0,0-.251.109c-2.315-.041-4.353,2.486-5.541,4.173a27.207,27.207,0,0,0-3.523,8.2,81.483,81.483,0,0,0-1.958,9.221c-.357,2.171-1.3,6.933.922,8.42.123.083,4.318,1.329,4.448.762a26.3,26.3,0,0,0,.315-4.333c.107-1.754.309-3.5.562-5.239a54.237,54.237,0,0,1,1.719-7.762c1.3-4.341,3.153-9.158,7.165-11.672A.453.453,0,0,0,1299.191,2914.338Zm-7.939,10.8a52.717,52.717,0,0,0-2.052,8.351c-.285,1.648-.481,3.31-.632,4.974a29.715,29.715,0,0,0-.236,4.318c-.206-.044-.414-.08-.618-.128-.573-.134-1.108-.365-1.664-.548-.019-.006-.037-.008-.056-.012-.015-.813-.2-1.67-.224-2.44a26.817,26.817,0,0,1,.517-5.309c.442-2.577.961-5.161,1.6-7.7a30.107,30.107,0,0,1,2.88-7.519,14.838,14.838,0,0,1,2.25-2.988c.763-.794,1.765-1.276,2.578-1.992a4.5,4.5,0,0,0,1.1.528c.267.109.538.24.811.357C1294.182,2916.992,1292.4,2921.835,1291.252,2925.139Z" fill="#7f0909"/>
      <path id="Path_852" data-name="Path 852" d="M1289.906,2931.966a2.258,2.258,0,1,1-2.259-2.258A2.258,2.258,0,0,1,1289.906,2931.966Z" fill="#ffcd16"/>
      <path id="Path_853" data-name="Path 853" d="M1234.386,2912.2a2.258,2.258,0,1,1-2.258-2.258A2.257,2.257,0,0,1,1234.386,2912.2Z" fill="#ffcd16"/>
      <g id="Group_305" data-name="Group 305">
        <path id="Path_854" data-name="Path 854" d="M1199.466,3054.814c.026.166.02.113,0,0Z" fill="#ee9333"/>
        <path id="Path_855" data-name="Path 855" d="M1199.522,3055.417a5.973,5.973,0,0,0-.061-.634,2.286,2.286,0,0,0-.075-.336,1.16,1.16,0,0,0-1.677-.682c-.04.026-.072.058-.11.085.047-.91.095-1.821.137-2.732.231-4.922,1.461-11.477-1.271-15.909a1.153,1.153,0,0,0-1.277-.519,3.056,3.056,0,0,0-2.033,3.981,27.45,27.45,0,0,0-.8,8.746c-.106.894-.187,1.786-.272,2.651-.327,3.383-1.474,28.342-1.857,34.193q-.273,4.194-.53,8.385c-.084,1.39-2.194,27.444-5.406,29.782a.978.978,0,0,0,.49,1.809c.506,0,1.055.04,1.6.047-.127.328-.236.661-.354.977a6.611,6.611,0,0,1-1.875,2.643c-.942.821.088,2.09,1.111,1.908a5.008,5.008,0,0,1,.879-.068c-.249.372-.482.748-.731,1.052a1.17,1.17,0,0,0,.818,1.976c.05,0,.1,0,.148,0a9,9,0,0,0-.175,1.039,24.977,24.977,0,0,0-.229,3.758c-.167.858.73,1.542,1.533,1.532a1.186,1.186,0,0,0,2.142-.111,27.11,27.11,0,0,0,1.52-6.826,1.02,1.02,0,0,0-1.083-1.086,20.685,20.685,0,0,0,.831-4.178,1.047,1.047,0,0,0-1.278-1.022,31.6,31.6,0,0,1,2.354-4.464c.576-.911-.519-1.768-1.366-1.367a6.245,6.245,0,0,1-1.814.553,100.928,100.928,0,0,0,4.988-19.244q.636-4.531,1.14-9.077c.017.005.033.015.051.02a1.333,1.333,0,0,0,1.61-.914,2.362,2.362,0,0,0,.061-1.254,1.609,1.609,0,0,0-.668-1,.836.836,0,0,0-.507-.143c.153-.812.294-1.625.412-2.438a1.343,1.343,0,0,0,2.568-.556,2.343,2.343,0,0,0-.847-1.986.98.98,0,0,0-1,0,1.487,1.487,0,0,0-.455.469q.151-1.332.256-2.669a1.438,1.438,0,0,0,.152.061,1.512,1.512,0,0,0,.767,0,1.445,1.445,0,0,0,1.008-1.008,5.307,5.307,0,0,0,.187-1.205,2.206,2.206,0,0,0-.236-1.254,1.166,1.166,0,0,0-1.581-.415c-.025.014-.048.034-.074.05.1-2.242.139-4.488.178-6.738.008-.43.021-.859.032-1.29a1.205,1.205,0,0,0,1.652-1.095,11.353,11.353,0,0,0-.216-3.583.83.83,0,0,0-1.259-.454c.107-2.445.239-4.887.371-7.331a1.444,1.444,0,0,0,.627.152,1.506,1.506,0,0,0,1.486-1.486C1199.524,3055.941,1199.534,3055.681,1199.522,3055.417Z" fill="#ee9333"/>
        <path id="Path_856" data-name="Path 856" d="M1199.459,3054.763l0,.02,0,.031C1199.465,3054.8,1199.462,3054.783,1199.459,3054.763Z" fill="#ee9333"/>
      </g>
      <path id="Path_857" data-name="Path 857" d="M1076.3,3088.021c-5.008,3.716-7.011,10.249-7.559,16.243a95.713,95.713,0,0,1-1.008,9.648,17.322,17.322,0,0,1-.5,1.929.382.382,0,0,0-.322.091,3.137,3.137,0,0,0-.849,1.343,4.533,4.533,0,0,0-.481,1.647.751.751,0,0,0,.123.408,27.242,27.242,0,0,1-2.115,3.148,1.205,1.205,0,0,0,1.036,1.806,19.393,19.393,0,0,0,2.007-.351,11.661,11.661,0,0,1-1.683,3.787.894.894,0,0,0,1,1.3,7.063,7.063,0,0,1,.907-.087c-1.182,2.838-4.448,6.564-.635,8.557,1.4.731,5.917.642,7.651-.888a1.253,1.253,0,0,0,1.608-1.514,23.4,23.4,0,0,0-.825-2.734,35.2,35.2,0,0,0-.417-3.657c-.283-2.578-.677-5.145-1.041-7.712-.279-1.954-.573-3.928-.816-5.913a75.629,75.629,0,0,1,.737-19.072.569.569,0,0,0-.037-.342c1.019-2.506,2.411-4.852,3.556-7.3C1076.728,3088.161,1076.516,3087.857,1076.3,3088.021Z" fill="#ffc871"/>
      <path id="Path_858" data-name="Path 858" d="M1067.354,3107.059a.2.2,0,0,0-.383,0c-.154.559-1.62,4.477-.534,4.519.841.031,1.163-.933,1.248-1.616A7.259,7.259,0,0,0,1067.354,3107.059Z" fill="#ffc871"/>
      <path id="Path_859" data-name="Path 859" d="M1065.36,3112.9c-.107-.181-.435-.442-.664-.34-.944.42-1,2-1.424,2.857-.319.634-.758,1.951.416,1.951,1.189,0,1.759-1.973,1.846-2.891A2.681,2.681,0,0,0,1065.36,3112.9Z" fill="#ffc871"/>
      <path id="Path_860" data-name="Path 860" d="M1064.284,3125.8c-.662-.68-1.465.245-1.812.795a11.831,11.831,0,0,1-.747.99,3.06,3.06,0,0,0-.517.934.719.719,0,0,0,.692.906,2.6,2.6,0,0,0,1.843-1.164C1064.256,3127.627,1065.016,3126.552,1064.284,3125.8Z" fill="#ffc871"/>
      <path id="Path_861" data-name="Path 861" d="M1064.779,3131.714a3.137,3.137,0,0,1-.047-.342c.057-.435-.428-.609-.767-.511-1.033.07-1.6,1.265-1.9,2.133a.962.962,0,0,0,.44,1.082.974.974,0,0,0,1.309-.344c.222-.318.423-.635.621-.968a1.952,1.952,0,0,0,.292-.833C1064.81,3131.979,1064.827,3131.906,1064.779,3131.714Z" fill="#ffc871"/>
      <path id="Path_862" data-name="Path 862" d="M1193.662,3037.17c-.028-.444-.706-.588-.81-.11a79.421,79.421,0,0,0-1.18,10.095c-.308,3.571-.585,7.145-.858,10.72q-.18,2.358-.359,4.716c-.76.3-1.475.712-2.231,1.035a30.471,30.471,0,0,1-4.448,1.478c-2.751.7-5.579,1.205-8.375,1.692a107.391,107.391,0,0,1-19.848,1.544,70.235,70.235,0,0,1-16.345-2.109.663.663,0,0,0-.505-.128q-1.273-.333-2.539-.718c-3.049-.931-6.022-2.091-8.994-3.239a53.139,53.139,0,0,0-6.678-2.4,34.21,34.21,0,0,0,2.616-5.114c4.181-10.276,4.431-21.3,3.871-32.224a.524.524,0,0,0-1.047,0c-.563,10.947-.511,22.285-5.2,32.445-3.849,8.336-10.879,14.393-18.646,18.987a104.387,104.387,0,0,1-11.375,5.735,75.11,75.11,0,0,0-10.179,4.988,18.439,18.439,0,0,0-6.991,7.436c-1.88,3.92-1.755,8.765-1.851,13.009a111.9,111.9,0,0,0,4.369,32.681.315.315,0,0,0,.607-.167,164.013,164.013,0,0,1-2.952-31.878c.048-4.531-.1-9.7,2.183-13.759,1.837-3.272,5.149-5.4,8.389-7.088,3.36-1.754,6.933-3.06,10.372-4.643a93.414,93.414,0,0,0,9.325-4.935,12.409,12.409,0,0,1-3.657,5.226c-1.492,1.319-3.488,1.994-4.76,3.572s-1.269,3.812-1.149,5.731c.2,3.189,2.879,10.649,3.507,15,.524,2.817,1.091,5.966.562,8.82-.4,2.144-1.57,4.139-2.4,6.139-.284.69.507,1.162,1.074,1.075a8.972,8.972,0,0,0,2.373-.57,14.982,14.982,0,0,1-2,3.246c-.37.56.235,1.128.79,1.029.506-.091.98-.128,1.449-.2a16.534,16.534,0,0,1-.587,2.006c-.15.368.163.7.469.824a1.8,1.8,0,0,0,1.824-.07.391.391,0,0,0,0-.669,2.8,2.8,0,0,0-.79-.312c.273-.848.427-1.729.774-2.559a.69.69,0,0,0-.846-.844,5.145,5.145,0,0,1-1.018.256,14.254,14.254,0,0,0,.945-1.628,7.475,7.475,0,0,0,.469-2.565.7.7,0,0,0-1.048-.6,5.654,5.654,0,0,1-1.588.655,27.663,27.663,0,0,0,1.874-4.728c.638-2.552.163-5.273-.2-7.83a86.623,86.623,0,0,0-1.922-9.108c-.609-2.4-1.122-5-1.973-7.362-.221-2.184-.02-4.31,1.889-5.685,2.973-2.142,7.969-5.575,7.54-9.849.248-.158.5-.315.745-.476a46.828,46.828,0,0,0,13.319-12.7,75.344,75.344,0,0,0,7,2.979c3.141,1.312,6.328,2.533,9.569,3.574.342.11.686.214,1.03.316-.915,1.483-1.739,3.025-2.732,4.462a34.281,34.281,0,0,1-4.905,5.567c-3.666,3.41-8.118,5.68-12.6,7.8-3.985,1.88-7.445,4.111-8.251,8.716a20.426,20.426,0,0,0,.763,9.189,69.857,69.857,0,0,0,2.608,10.817c1.5,5.071,3.189,10.971,6.84,14.9a.317.317,0,0,0,.526-.306c-1.371-5.15-3.942-9.984-5.644-15.068-1.26-3.766-2.04-7.67-3.042-11.5a24.9,24.9,0,0,1-.069-8.532c.98-4.735,6.7-6.174,10.47-8.012a40.783,40.783,0,0,0,10.908-7.65,29.007,29.007,0,0,0,6.8-9.912,72.888,72.888,0,0,0,17.282,2.1,104.89,104.89,0,0,0,20.353-1.837c2.946-.537,5.915-1.141,8.8-1.956a16.038,16.038,0,0,0,4.94-2.037q-.588,7.707-1.195,15.413c-.574,7.158-1.186,14.311-1.881,21.457-.348,3.569-.756,7.133-1.084,10.7-.144,1.566-.274,3.149-.426,4.73a16.583,16.583,0,0,1-3.435,6.294c-.356.393-.287,1.249.353,1.337.837.114,1.543.5,2.322.68a11.8,11.8,0,0,1-2.435,3.548.81.81,0,0,0,.566,1.368c.528.025,1.037.063,1.544.078-.332.824-.568,1.689-.875,2.534a.815.815,0,0,0,.785,1.03c.158-.022.315-.053.472-.081a8.736,8.736,0,0,0-.095,2.818c.1.56.857.551,1.119.147.682-1.048.528-2.528.736-3.724.078-.457-.212-1.1-.78-1.024-.085.011-.17.028-.253.041a9.414,9.414,0,0,1,.965-2.2c.431-.667-.275-1.321-.932-1.212a5.942,5.942,0,0,1-1.054.07,9.383,9.383,0,0,0,2.052-3.9.816.816,0,0,0-.778-1.022,4.807,4.807,0,0,1-1.78-.359c.314-.423.294-.017.872-1.31s2.9-4.6,3.962-18.4c.745-7.38,1.383-14.771,1.957-22.166s1.088-14.79,1.577-22.187q.355-5.361.684-10.721A93.221,93.221,0,0,0,1193.662,3037.17Z" fill="#9a3f21"/>
      <path id="Path_863" data-name="Path 863" d="M1119.231,3074.412a6.71,6.71,0,0,0-2.4,1.077,2.028,2.028,0,0,0-.878,1.1,1.078,1.078,0,0,0,.453,1.236,2.2,2.2,0,0,0,1.8-.056,7.486,7.486,0,0,0,2.074-.89A1.357,1.357,0,0,0,1119.231,3074.412Z" fill="#ab4f00"/>
      <path id="Path_864" data-name="Path 864" d="M1114.357,3076.291a1.023,1.023,0,0,0-1-.264c-.808.227-2.052.626-2.453,1.437a.852.852,0,0,0,.5,1.239,4.551,4.551,0,0,0,2.741-.8,1.016,1.016,0,0,0,.508-.887A1.026,1.026,0,0,0,1114.357,3076.291Z" fill="#ab4f00"/>
      <path id="Path_865" data-name="Path 865" d="M1116.642,3071.479a2.261,2.261,0,0,0-2.365.328c-.6.429-1.368,1.085-1.3,1.908a1.045,1.045,0,0,0,1.013,1.013,2.817,2.817,0,0,0,1.51-.5,3.1,3.1,0,0,0,1.571-1.095A1.217,1.217,0,0,0,1116.642,3071.479Z" fill="#ab4f00"/>
      <path id="Path_866" data-name="Path 866" d="M1124.814,3069.478a1.374,1.374,0,0,0-1.833-.481,5.638,5.638,0,0,0-1.224.777c-.078.061-.342.283-.471.407s-.269.332-.392.452a1.028,1.028,0,0,0,.993,1.707l.046-.01a5.025,5.025,0,0,0,2.4-1.018A1.361,1.361,0,0,0,1124.814,3069.478Z" fill="#ab4f00"/>
      <path id="Path_867" data-name="Path 867" d="M1129.249,3072.156a1.417,1.417,0,0,0-1.7-.965,6.649,6.649,0,0,0-1.967.819,4.1,4.1,0,0,0-1.605,1.357,1.06,1.06,0,0,0,.906,1.579,4.134,4.134,0,0,0,1.864-.435,12.876,12.876,0,0,0,1.867-.793A1.4,1.4,0,0,0,1129.249,3072.156Z" fill="#ab4f00"/>
      <path id="Path_868" data-name="Path 868" d="M1077.146,3138.425a1.618,1.618,0,0,0-.93-1.07.9.9,0,0,0-1.387-.516c-1.95,1.366-4.728,1.307-7.015,1.609-2.674.351-5.727.588-8.176-.738a1.48,1.48,0,0,0-2.135.87c-.73,1.9-1.721,5.339-.448,7.192,1.56,2.27,5.489,1.99,7.876,1.956,3.754-.051,7.778.077,11.264-1.562C1079.525,3144.6,1077.867,3141.087,1077.146,3138.425Z" fill="#60392e"/>
      <path id="Path_869" data-name="Path 869" d="M1077.994,3141.516c-.284-1.5-.426-3.279-1.638-4.36-1.374-1.227-3.532-.713-5.059-.107a1.853,1.853,0,0,0-.681.492.988.988,0,0,0-1.333.971c.108,2.444.438,4.905.773,7.327a1.541,1.541,0,0,0,1.126,1.125,8.85,8.85,0,0,0,5.8-1.4C1078.594,3144.625,1078.287,3143.066,1077.994,3141.516Z" fill="#7a4c41"/>
      <path id="Path_870" data-name="Path 870" d="M1078.172,3139.831a11.557,11.557,0,0,0-1.794-3.7.644.644,0,0,0-.2-.217,3.547,3.547,0,0,0-.805-.634c-.289-.165-2.095.952-2.833,1.17a29.614,29.614,0,0,1-5.231,1.047,26.235,26.235,0,0,1-5,.009c-1.419-.118-3.009-1.062-4.417-.769-.19-.1-.695.3-.858.5-1.029,1.234-.964,3.178-1.181,4.717-.184,1.312-.63,3.6.431,4.663,1.616,1.6,7.907,2.452,10.927,2.308,3.817-.184,8.71-.96,11.59-3.716C1079.151,3144.883,1078.56,3140.975,1078.172,3139.831Zm-10.492,7.1a24.941,24.941,0,0,1-9.927-1.4,15.444,15.444,0,0,1,.5-7.263c2.311,1.624,6.57,1.391,9.058,1.184a30.957,30.957,0,0,0,5.143-.94,13.677,13.677,0,0,0,2.729-.818,13.58,13.58,0,0,1,2.011,6.463A21.6,21.6,0,0,1,1067.68,3146.932Z" fill="#42241d"/>
      <path id="Path_871" data-name="Path 871" d="M1120.577,3129.207c-1.9-2.314-3.768-1.686-6.4-1.438-4.719,1.577-11.259-.245-11.494-.107a.931.931,0,0,0-1.045.674,14.223,14.223,0,0,0-.047,6.242c.418,2.2,1.977,2.93,4.062,3.205,4.489.591,9,1.169,13.467.14a5,5,0,0,0,3.865-2.867C1123.8,3133.082,1121.707,3130.586,1120.577,3129.207Z" fill="#60392e"/>
      <path id="Path_872" data-name="Path 872" d="M1121.757,3131.738c-.807-1.5-1.273-3.159-2.611-4.3-1.61-1.378-3.779-.538-5.582-.116a1.235,1.235,0,0,0-.942.991.621.621,0,0,0-.5.506,7.9,7.9,0,0,0,.5,3.5c.5,1.7.812,3.437,1.268,5.145a1.521,1.521,0,0,0,1.83,1.038,15.929,15.929,0,0,0,5.668-2.412C1123.18,3134.974,1122.574,3133.248,1121.757,3131.738Z" fill="#7a4c41"/>
      <path id="Path_873" data-name="Path 873" d="M1121.733,3129.789c-.927-1.527-2.259-3.177-4.166-3.391a6.286,6.286,0,0,0-2.38.378,23.8,23.8,0,0,1-9.712.617c-1.514-.181-4.263-1.511-4.552-.5s-.863,6.841-.208,9.454c.254,1.754,2.88,1.829,3.751,2.078a32.018,32.018,0,0,0,14.957-.029c1.547-.424,3.627-1.209,4.208-2.864a.869.869,0,0,0,.053-.327.8.8,0,0,0,.174-.449C1123.978,3133.014,1122.6,3131.215,1121.733,3129.789Zm-9.784,7.524a32.833,32.833,0,0,1-6.322-.526c-.951-.18-1.969-.611-2.972-.831a.985.985,0,0,0-.02-.135c-.6-2.387-.119-5.043-.67-7.424a17.775,17.775,0,0,0,4.821,1,23.518,23.518,0,0,0,7.676-.419c2.153-.451,3.462-1.178,5.04.894a17.194,17.194,0,0,1,2.711,4.772c-.018.014-.036.023-.054.037C1119.344,3137.032,1115.5,3137.281,1111.949,3137.313Z" fill="#42241d"/>
      <path id="Path_874" data-name="Path 874" d="M1200.083,3060.045a.868.868,0,0,0-1.2,0c-.7.628-.663,1.741-.834,2.595a1.339,1.339,0,1,0,2.629.356C1200.8,3062.054,1200.857,3060.74,1200.083,3060.045Z" fill="#ee9333"/>
      <path id="Path_875" data-name="Path 875" d="M1200.014,3073.141c-.139-.7-.655-1.543-1.492-1.335a1.632,1.632,0,0,0-1.046,1.335,3.018,3.018,0,0,0,.124,2.219,1.231,1.231,0,0,0,1.9.244A2.7,2.7,0,0,0,1200.014,3073.141Z" fill="#ee9333"/>
      <path id="Path_876" data-name="Path 876" d="M1196.992,3095.443c-.016-.052-.033-.1-.053-.152a1,1,0,0,0-.1-.233.848.848,0,0,0-.807-.6.8.8,0,0,0-.711.408c-.035.036-.068.074-.1.11a2.253,2.253,0,0,0-.357.55c-.088.183-.161.382-.237.574a1.327,1.327,0,0,0,.12,1.084,1.138,1.138,0,0,0,1.546.405,1.7,1.7,0,0,0,.745-1.475A1.888,1.888,0,0,0,1196.992,3095.443Z" fill="#ee9333"/>
      <g id="Group_306" data-name="Group 306">
        <path id="Path_877" data-name="Path 877" d="M1203.708,3137.337a1.229,1.229,0,0,0-1.326-.015,10.86,10.86,0,0,0-1.665.086c-1.412.113-2.835.1-4.251.189a38.666,38.666,0,0,1-4.141.264,17.979,17.979,0,0,1-4.054-.911,1.549,1.549,0,0,0-1.933,1.472c-.206,2.5-.825,5.856,1.6,7.532,2.216,1.535,5.177,1.235,7.736,1.31,2.786.083,7.693.331,9.431-2.413C1206.48,3142.673,1205.951,3138.764,1203.708,3137.337Z" fill="#60392e"/>
        <path id="Path_878" data-name="Path 878" d="M1206.076,3143.171a11.381,11.381,0,0,0-.994-3.68c-.388-.811-.992-1.462-1.338-2.3-.005-.011-.006-.02-.01-.03a8.321,8.321,0,0,0-3.527-.6,1.457,1.457,0,0,0-.887.288.748.748,0,0,0-.87.545c-.451,1.45-.217,3.148-.3,4.657a11.415,11.415,0,0,0-.1,3.449c.734,2.845,4.035,2.223,6,1.1a4.4,4.4,0,0,0,2.1-3.152A.789.789,0,0,1,1206.076,3143.171Z" fill="#7a4c41"/>
        <path id="Path_879" data-name="Path 879" d="M1202.083,3136.292a57.851,57.851,0,0,1-9.711.6c-1.461-.211-5.487-1.8-6.645-.46-.063.075-.947,2.079-.722,7.209a4.232,4.232,0,0,0,3.319,3.812c2.575.682,5.673.589,8.308.635,2.965.053,9.626-.5,10.155-2.621C1206.643,3141.885,1204.987,3135.5,1202.083,3136.292Zm-11.713,9.463c-1.771-.129-3.056-.479-3.462-2.371a20.606,20.606,0,0,1,.037-5.718,22.58,22.58,0,0,0,3.692.8c6.848.837,11.023-.918,12.414-.549,1.11.292,2.36,4.23,1.767,6.777-.193.9-4.526,1.324-7.021,1.418A67.779,67.779,0,0,1,1190.37,3145.755Z" fill="#42241d"/>
      </g>
      <path id="Path_880" data-name="Path 880" d="M1231.429,3131.951a2.132,2.132,0,0,0-.273-.5,1.159,1.159,0,0,0-1.7-1.132c-1.8.885-3.846.833-5.8.99-2.173.172-4.513,1.143-6.681.615a1.4,1.4,0,0,0-1.746,1.33c-.246,2.56-.237,5.692,2.577,6.773,2.923,1.124,6.268.378,9.271.121,2.185-.189,4.827-.128,6.219-2.117S1232.067,3133.636,1231.429,3131.951Z" fill="#60392e"/>
      <g id="Group_307" data-name="Group 307">
        <path id="Path_881" data-name="Path 881" d="M1233.329,3134.5c-1.088-2.048-2.516-5.531-5.5-4.368a1.9,1.9,0,0,0-.594.38,1.124,1.124,0,0,0-.276.091c-1.1.545-.671,2.219-.45,3.159.426,1.815,1.048,3.578,1.42,5.408a1.571,1.571,0,0,0,1.5,1.143,5.256,5.256,0,0,0,3.8-1.331C1234.559,3137.549,1234.171,3136.081,1233.329,3134.5Z" fill="#7a4c41"/>
        <path id="Path_882" data-name="Path 882" d="M1235.058,3137.315c-.646-2.681-2.511-4.933-3.722-7.39a.92.92,0,0,0-.817-.467c-2.674.293-5.32.769-7.986,1.119s-5.327.112-7.986.337c-.672.057-.994,6.515.631,8.512,1.273,1.562,3.294,1.746,5.176,1.872,3.959.264,13.856-.245,14.909-2.727A3.7,3.7,0,0,0,1235.058,3137.315Zm-12.4,2.161c-1.687-.048-3.708.072-5.269-.659-2.073-.971-1.472-4.246-1.476-6.33a21.478,21.478,0,0,0,5.959-.008c2.71-.258,5.39-.758,8.095-1.067a44.426,44.426,0,0,1,3.155,6.314C1229.851,3139.4,1226.375,3139.583,1222.661,3139.476Z" fill="#512c07"/>
      </g>
    </g>
  </g>
</svg>
