<svg xmlns="http://www.w3.org/2000/svg" width="241.259" height="287.636" viewBox="0 0 241.259 287.636">
  <g id="Group_390" data-name="Group 390" transform="translate(-1741.005 -3311.588)">
    <g id="Group_389" data-name="Group 389">
      <g id="Group_385" data-name="Group 385">
        <g id="Group_383" data-name="Group 383">
          <path id="Path_1363" data-name="Path 1363" d="M1966.9,3432.471a22.793,22.793,0,0,0-10.355-.243,23.911,23.911,0,0,0-11.441,6.241c-8.139,7.663-10.594,19.07-11.107,29.824a45.592,45.592,0,0,0,2.216,17.813c2.055,5.854,4.429,11.63,6.831,17.349,2.494,5.938,11.6,23.073,12.411,32.748.6,5.681-1.017,10.906-3.774,15.833a15.363,15.363,0,0,1-5.394,6.069c-1.942,1.124-4.335.684-6.148,1.811-2.707,1.682-1.935,7.367-2.125,9.995a1.627,1.627,0,0,0,1.621,1.621,32.434,32.434,0,0,0,27.489-20.282c3.662-8.91,4.085-18.652,2.6-28.092a114.7,114.7,0,0,0-3.2-17.431c-3.129-12.475-11.727-27.826-6.763-40.814,1.43-3.742,4.02-5.58,7.787-6.658,2.558-.733,5.151-1.263,7.325-2.891a13.035,13.035,0,0,0,4.985-10.5C1979.746,3437.383,1973.6,3433.47,1966.9,3432.471Z" fill="#f7b713"/>
          <path id="Path_1364" data-name="Path 1364" d="M1970.856,3432.831c-7.248-3.083-15.869-.622-22.146,3.543a32.526,32.526,0,0,0-12.9,16.875,35.777,35.777,0,0,0-1.2,4.818,32.6,32.6,0,0,0-1.406,6.885,47.851,47.851,0,0,0,.76,14.23c1.9,13.316,13.344,33.066,14.887,36.608.049.111.238.032.2-.083-5.995-16.825-11.355-36.75-6.009-54.412,2.389-7.892,7.321-15.217,14.934-18.836,7.239-3.442,14.948-2.325,20.3,3.466l0,0,.005,0c.24.26.482.517.712.8.12.145.349.019.353-.147a8.121,8.121,0,0,0-.1-1.551C1980.787,3440.282,1974.656,3434.447,1970.856,3432.831Z" fill="#ffd852"/>
          <path id="Path_1365" data-name="Path 1365" d="M1966.371,3554.564a11.132,11.132,0,0,1-7.56.766c-2.16-.559-3.609-2.042-5.127-3.577-.753-.761-6.081,4.4-6.108,4.448-2.517,4.954,1.847,10.689,6.923,11.4.453.064,11.542-12.081,12.082-12.767C1966.7,3554.691,1966.555,3554.459,1966.371,3554.564Z" fill="#e86300"/>
          <path id="Path_1366" data-name="Path 1366" d="M1971.662,3530.588a.771.771,0,0,0-.349-.468,4.79,4.79,0,0,0-.07-1.308.26.26,0,0,0-.377-.154c-2.87,1.4-5.138,3.317-8.588,3.081a12.812,12.812,0,0,1-5-1.519c-.762-.409-2.574-1.163-2.945-2.063-.029-.071-.151-.072-.146.02.048,1.061-.082,1.78.04,2.456.181,2.512.681,5,1.1,7.483a.885.885,0,0,0,.211.455l-.018.021a.988.988,0,0,0-.149,1.151c1.908,3.447,6.233,5.114,10.061,4.542,3.507-.523,5.6-2.464,6.093-5.59a15.936,15.936,0,0,0,.32-3.092A21.457,21.457,0,0,0,1971.662,3530.588Z" fill="#e86300"/>
          <path id="Path_1367" data-name="Path 1367" d="M1969.391,3513.224a35.588,35.588,0,0,0-2.376-9.135,1.044,1.044,0,0,0-1.788,0c-3.611,5.824-14.641,6.408-19.579,2.387a.034.034,0,0,0-.056.015c-.415,1.074,3.759,10.035,3.758,10.2-.019,4.26,8.047,4.571,10.93,4.24,4.12-.472,7.81-2.7,8.725-6.544A1.31,1.31,0,0,0,1969.391,3513.224Z" fill="#e86300"/>
          <path id="Path_1368" data-name="Path 1368" d="M1961.821,3488.785a19.312,19.312,0,0,0-.507-2.624,5.464,5.464,0,0,0-1.117-2.715.659.659,0,0,0-.355-.191,7.014,7.014,0,0,0,.041-.914.126.126,0,0,0-.187-.108c-3.829,2.236-6.941,4.88-11.59,5.167a21.929,21.929,0,0,1-7.274-.576c-2.041-.607-2.981-2.409-4.748-3.2a.045.045,0,0,0-.051.006,2.39,2.39,0,0,0-.038,2.935,13.99,13.99,0,0,0,1.1,4.893c.618,1.909,1.082,4.592,2.694,5.879a.875.875,0,0,0,.655.163c2.383,3.032,8.435,3.515,11.729,3,6.46-1.011,9.814-5.353,9.732-11.633A.08.08,0,0,0,1961.821,3488.785Z" fill="#e86300"/>
          <path id="Path_1369" data-name="Path 1369" d="M1960.445,3460.924c.085-.17.165-.347.238-.53.054-.134-.115-.217-.219-.168-1.525.71-4.656.79-6.278.905a16.856,16.856,0,0,1-12.762-4.331c-1.98-1.767-2.37-3.636-3.773-5.68a.075.075,0,0,0-.117-.015,3.587,3.587,0,0,0-.73.883.406.406,0,0,0-.188.182c-1.747,3.594-2.014,8.062-2.377,12-.154,1.672-.832,4.295.284,5.494,1.053,3.647,6.4,5.34,9.978,5.868a17.029,17.029,0,0,0,8.881-.691c2.925-1.2,3.773-2.921,5.094-5.594a.153.153,0,0,0-.195-.213,26.376,26.376,0,0,1,1.236-3.349,23.052,23.052,0,0,0,1.725-3.643A.944.944,0,0,0,1960.445,3460.924Z" fill="#e86300"/>
          <path id="Path_1370" data-name="Path 1370" d="M1977.576,3438.426c-4.536-6.2-12.875-7.852-20.093-6.647a1.3,1.3,0,0,0-1.014.766c-1.808,1.369-2.177,4.7-2.3,6.73a16.168,16.168,0,0,0,2.58,9.888c3.485,5.285,11.758,9.991,18.011,6.724C1981.11,3452.567,1981.456,3443.73,1977.576,3438.426Z" fill="#e86300"/>
          <path id="Path_1371" data-name="Path 1371" d="M1940.887,3474.7a52.885,52.885,0,0,1,2.151-13.4c.267-.883.571-1.757.9-2.621a18.005,18.005,0,0,1-2.517-1.874c-1.98-1.767-2.37-3.636-3.773-5.68a.075.075,0,0,0-.117-.015,3.587,3.587,0,0,0-.73.883.406.406,0,0,0-.188.182c-1.747,3.594-2.014,8.062-2.377,12-.154,1.672-.832,4.295.284,5.494C1935.253,3472.2,1938.05,3473.784,1940.887,3474.7Z" fill="#f48806"/>
          <path id="Path_1372" data-name="Path 1372" d="M1978.27,3445.925l0,0,.005,0c.24.26.482.517.712.8.12.145.349.019.353-.147a8.121,8.121,0,0,0-.1-1.551,6.5,6.5,0,0,0-.684-5c-.023-.046-.047-.091-.071-.137q-.216-.405-.468-.8l-.109-.167q-.233-.354-.489-.7c-3.343-4.413-8.641-6.455-14.042-6.766a24.678,24.678,0,0,0-7.092,1.244c-1.644,1.452-2,4.613-2.118,6.569a16.488,16.488,0,0,0,.482,5.122,24,24,0,0,1,3.325-1.938C1965.211,3439.017,1972.92,3440.134,1978.27,3445.925Z" fill="#f48806"/>
          <path id="Path_1373" data-name="Path 1373" d="M1941.532,3487c-.237-.056-.472-.113-.7-.181-2.041-.607-2.981-2.409-4.748-3.2a.045.045,0,0,0-.051.006,2.39,2.39,0,0,0-.038,2.935,5.826,5.826,0,0,0,.037,1.011c1.059,3.241,2.385,6.575,3.786,9.774a.872.872,0,0,0,.627.15,7.683,7.683,0,0,0,3.641,2.329A108.339,108.339,0,0,1,1941.532,3487Z" fill="#f48806"/>
          <path id="Path_1374" data-name="Path 1374" d="M1975.1,3433.488a17.608,17.608,0,0,0-9.574-3.329c-6.538-1.912-15.049,1.728-19.848,5.544-7.9,6.278-11.563,16.385-12.9,26.087a60.049,60.049,0,0,0-.288,15.917c.746,5.739,2.8,11.143,4.967,16.472,4.381,10.76,10.444,21,14.112,32.018,4.073,12.239,2.668,28.646-11.461,33.479-.611.209-.565,1.279.162,1.2,8.39-.879,14.336-7.633,16.194-15.615,2.425-10.414-1.466-20.872-5.818-30.194-4.978-10.664-10.681-21.353-13.747-32.775a51.98,51.98,0,0,1,2.988-33.913,28.266,28.266,0,0,1,12.029-13.218,22.473,22.473,0,0,1,8.712-2.655,30.706,30.706,0,0,1,5.7.29,20.867,20.867,0,0,1,7.92,4.292c4.358,4.009,6.151,10.69,2.22,15.654-3.635,4.59-10.258,2.922-14.752,6.1-3.865,2.736-4.616,7.944-4.721,12.34-.316,13.287,6.438,26.061,9.677,38.708,3.134,12.232,4.415,25.323.238,37.479a35.848,35.848,0,0,1-12.05,17.113c-5.6,4.217-11.6,5.359-18.314,6.548-.973.172-.888,1.656,0,1.884,11.3,2.9,23.592-6.411,29.378-15.347,7.3-11.273,8.231-25.5,6.243-38.444a136.43,136.43,0,0,0-5.895-22.627c-2.544-7.579-5.673-15.257-5.988-23.343-.135-3.475-.171-8.526,2.626-11.109,2.553-2.357,6.77-1.969,9.912-2.864a13.009,13.009,0,0,0,9.31-10.923C1982.972,3442.431,1979.78,3436.806,1975.1,3433.488Z" fill="#ac1a18"/>
        </g>
        <path id="Path_1375" data-name="Path 1375" d="M1850.011,3559.795a.7.7,0,0,0-.228-.368,3.009,3.009,0,0,0-.245-.554c-1.235-2.121-5.467-2.737-7.471-3.689a56.069,56.069,0,0,1-8.921-5.314,55.222,55.222,0,0,1-14.62-15.707c-1.417-2.3-5.971-10.613-9.339-6.014a.861.861,0,0,0,.133,1.037l.084.085c-.982,3.506.308,7.18,1.221,10.626q1.833,6.921,4.29,13.647c1.674,4.6,3.586,9.145,4.669,13.932,1.118,4.945.311,9.274.32,14.2a.609.609,0,0,0,1.126.3c.063-.092.117-.189.177-.283,1.12.6,1.969.388,3.414.477a34.6,34.6,0,0,1,6.461,1.267,37.469,37.469,0,0,0,10.738,1.673,1.527,1.527,0,0,0,1.31-.752,70.832,70.832,0,0,0,5.149-12.406C1849.409,3568.248,1850.943,3563.663,1850.011,3559.795Z" fill="#f7b713"/>
        <path id="Path_1376" data-name="Path 1376" d="M1849.462,3561.178c-1.506-1.953-4.872-3.2-6.912-4.54a128.022,128.022,0,0,1-16.156-12.556c-4.721-4.32-11.948-9.785-13.806-16.117a1.124,1.124,0,0,0-2.147,0l-.475,1.085a.67.67,0,0,0-.578.233c-.954,1.119-.809,2.739-.539,4.091a1.047,1.047,0,0,0,1.35.8c4.075,6.982,10.7,12.261,15.841,18.422,3.184,3.813,6.086,8.165,7.175,13.084a24.354,24.354,0,0,1,.265,8.044c-.259,2.295-1.255,4.586-.351,6.789a.262.262,0,0,0,.429.113l.012-.012a1.193,1.193,0,0,0,.313.519,51.908,51.908,0,0,0,7.475,5.684,1.47,1.47,0,0,0,2-.524,65.726,65.726,0,0,0,6.195-18.545C1849.893,3565.756,1850.811,3562.927,1849.462,3561.178Z" fill="#e98700"/>
        <path id="Path_1377" data-name="Path 1377" d="M1943.632,3543.19c-1.974-11.405-5.053-19.037-13.481-26.956a97.811,97.811,0,0,0-13.971-10.89c-5.189-3.343-10.762-6.061-15.852-9.56a42.054,42.054,0,0,1-6.76-5.662c-1.988-2.1-3.153-4.6-4.882-6.812-2.44-3.117-9.366-.683-12.471,0a66.281,66.281,0,0,0-8.587,2.467c-1.585.583-3.919,1.213-4.949,2.716a4.729,4.729,0,0,0-.707,1.95.13.13,0,0,0-.14.172c.03.108.049.218.077.326-.116,1.149-.043,2.36-.067,3.373a58.559,58.559,0,0,0,.118,6.773,94.037,94.037,0,0,1-3.413,12.03c-2.277,6.988-5.515,13.535-8.074,20.4a22.092,22.092,0,0,0-1.334,6.007,19.181,19.181,0,0,0-.206,6.85c.718,5.481,2.047,10.705,1.887,16.285a50.087,50.087,0,0,1-3.481,16.555c-1.236,3.234-2.442,7.207.978,9.585,2.979,2.07,8.313,2.567,11.857,2.532a14.424,14.424,0,0,0,11.014-5.325,59.6,59.6,0,0,0,8.2-12.081,54.778,54.778,0,0,0,3.29-6.789,38.432,38.432,0,0,0,4.359,9.4c1.739,2.81,3.638,5.29,6.292,6.831,1.931,5.086,9.43,9.812,13.916,11.417,6.478,2.318,12.86-1.589,17.838-5.492a40.788,40.788,0,0,0,12.279-15.891,41.58,41.58,0,0,0,3.067-10.847c.113-.838.272-1.85.363-2.9,1.067.731,2.161,1,2.564-.992.369-1.821-.2-4.193-.44-6.016a30.261,30.261,0,0,0-1.383-6.162,8.6,8.6,0,0,1,1.333.449C1944.257,3547.536,1943.894,3544.705,1943.632,3543.19Z" fill="#f7b713"/>
        <path id="Path_1378" data-name="Path 1378" d="M1860.472,3546.429c-.816-3.881-2.5-11.358-8.041-10.023-3.393.817-4.8,5.062-3.123,7.8.271,1.339.76,2.672,1.084,3.978a47.5,47.5,0,0,1,1.425,10.777,48.362,48.362,0,0,1-4.56,21.1c-.391.836.05,2.173,1.181,2.058l2.078-.21a1.7,1.7,0,0,0,.259-.051.182.182,0,0,0,.276.018c.116-.1.225-.209.339-.312.021-.018.041-.037.06-.056C1860.509,3573.206,1862.907,3558.011,1860.472,3546.429Z" fill="#ffd852"/>
        <path id="Path_1379" data-name="Path 1379" d="M1942.5,3549.536c-.213-.978-.413-2.2-.758-3.32.218.143.434.292.647.452.437.329.923-.135.971-.558,1.538-13.4-9.779-27.133-19.486-35.1-5.738-4.71-12.083-7.732-18.668-11.03-6.347-3.178-10.667-7.869-15.333-12.8a17.984,17.984,0,0,1-1.859-4.4.866.866,0,0,0-1.056-.6c-2.464.9-4.893,1.888-7.323,2.878a14.772,14.772,0,0,0-3.964,1.928,10.89,10.89,0,0,0-1.343.187.625.625,0,0,0,0,1.2c9.13,1.626,13.223,8.573,17.87,15.853a49.49,49.49,0,0,0,14.519,14.519c5.888,3.984,12.209,7.44,17.236,12.554a32.221,32.221,0,0,1,9.395,20.693,5.628,5.628,0,0,0-3.048-.739,1.028,1.028,0,0,0-.876,1.526,22.189,22.189,0,0,1,1.972,9.084,6.131,6.131,0,0,0-2.308-.845,1.1,1.1,0,0,0-1.332,1.332c1.421,6.711.418,13.682-3.9,19.162-4.1,5.212-10.023,7.079-16.363,6.735-.116-.1-.233-.187-.353-.272a.351.351,0,0,0-.535.209c-.28-.024-.561-.045-.843-.078-.357-.041-.407.451-.167.617a12.113,12.113,0,0,0,1.272.771,6.609,6.609,0,0,0,8,4.38c5.354-1.585,11.1-5.889,15-9.822a27.818,27.818,0,0,0,6.409-10.71,38.894,38.894,0,0,0,2.044-5.622c.664-2.357,1.925-5.927,1.642-8.745a7.582,7.582,0,0,0,1.2.858c.4.211.542.451,1.041.442,1.268-.022,1.355-1.1,1.387-2.135A36.764,36.764,0,0,0,1942.5,3549.536Z" fill="#e98700"/>
        <path id="Path_1380" data-name="Path 1380" d="M1905.846,3530.389c-2.822-3.161-10.063-.665-13.272.8a29.214,29.214,0,0,0-12.371,11.267c-3.178,5.068-4.8,10.794-5.937,16.617-.139.713-.271,1.444-.4,2.186-2.159,6.225-4.6,12.307-9.01,17.5-2.872,3.379-8.587,6.657-8.894,11.6-.322,5.185,5.2,4.009,7.984,2.115a42,42,0,0,0,11.7-12.328c3.049-4.812,6.458-10.292,6.217-16.169-.279-6.776-.372-12.887,2.959-19.06a33.094,33.094,0,0,1,8.731-10.081,31.407,31.407,0,0,1,6.458-2.951c1.975-.236,4.12.031,5.78-1.051A.287.287,0,0,0,1905.846,3530.389Z" fill="#e98700"/>
        <path id="Path_1381" data-name="Path 1381" d="M1833.579,3576.5c-3.374-.48-17.005.74-16.469,7.495s2.123,6.246,3.786,7.65c2.586,2.184,7.668,1.7,10.777,1.483,3.481-.248,7.4-1.113,9.868-3.777C1846.746,3583.726,1839.037,3577.272,1833.579,3576.5Z" fill="#ffec8b"/>
        <path id="Path_1382" data-name="Path 1382" d="M1865.041,3583.267c-4.67-5.752-18.389-6.108-21.179,1.751a.62.62,0,0,0-.026.161,5.468,5.468,0,0,0-.09,4.989,5.691,5.691,0,0,0,3.725,3.339,2.647,2.647,0,0,0,3.192-1.119c1.562,1.373,3.7,1.951,5.145,1.049C1860.228,3597.131,1870.428,3589.9,1865.041,3583.267Z" fill="#ffec8b"/>
        <path id="Path_1383" data-name="Path 1383" d="M1862.914,3490.732c-4.425-.691-11.166,1.4-15.627,1.844q-7.828.781-15.7.847-7.523.06-15.032-.468c-3.026-.212-10.511-2.929-12.277-.987-1.766,4.416-4.042,15.736-3.479,22.18a1.042,1.042,0,0,0,1.289.982c1.18-.172,1.53-.806,2.255-1.676.283-.339.586-.662.89-.985a29.231,29.231,0,0,0,.349,5.764c.334,2.656.922,8.659,3.986,9.572a1.132,1.132,0,0,0,1.386-.786c.134-.838.322-1.67.526-2.5.921,3.6,3.056,7.173,4.84,10.041,1.3,2.1,8.093,10.925,33.6,26.341,0-.01,0-.019,0-.029,2.211-2.369,1.194-6.579.277-9.205-.993-2.85-2.528-5.221-2.483-8.114,1.8-5.529,5.559-11.961,6.9-17.5.156.192,2.363,2.869,2.679,1.929a62.425,62.425,0,0,0,3.121-16.761c.391.493,2.8,2.831,3.268,1.693C1866.345,3506.435,1863.329,3490.8,1862.914,3490.732Z" fill="#ffec8b"/>
        <g id="Group_384" data-name="Group 384">
          <path id="Path_1384" data-name="Path 1384" d="M1845.132,3500.826c-.622-.752-1.614.207-1.261.974a67.6,67.6,0,0,1,3.846,9.969.308.308,0,0,0,.6-.081A14.441,14.441,0,0,0,1845.132,3500.826Z" fill="#f2d661"/>
          <path id="Path_1385" data-name="Path 1385" d="M1843.4,3508.281a.469.469,0,0,0-.792.328c-.028,1.983.7,3.947.831,5.942a45.463,45.463,0,0,1,.167,6.075c-.025.364.468.364.586.079C1845.7,3517.019,1846.39,3511.5,1843.4,3508.281Z" fill="#f2d661"/>
          <path id="Path_1386" data-name="Path 1386" d="M1839.024,3504.912c-.305-1.252-.627-2.863-1.738-3.636a.118.118,0,0,0-.171.069c-.393,1.17.1,2.519.322,3.7a24.962,24.962,0,0,0,1.029,4.636c.136.349.7.436.8,0A10.292,10.292,0,0,0,1839.024,3504.912Z" fill="#f2d661"/>
          <path id="Path_1387" data-name="Path 1387" d="M1813.444,3503.5a.426.426,0,0,0-.519-.52,28.076,28.076,0,0,0-4.251,1.678c.556-3.395,1.575-7.8,4.024-9.6.081-.059.069-.23-.058-.216a4.313,4.313,0,0,0-.556.1.475.475,0,0,0-.073-.553c-9.914-9.285-10.631,12.687-10.553,17.916a1.339,1.339,0,0,0,2.256.935,18.447,18.447,0,0,1,2.7-1.856,37.2,37.2,0,0,0,2.525,15.671c.556,1.417,2.842.855,2.331-.642-.071-.207-.13-.416-.2-.624a.647.647,0,0,0,.4-.5c.567-3.736-.658-7.555-.539-11.349C1811.051,3510.182,1812.312,3507.026,1813.444,3503.5Z" fill="#fff4c7"/>
          <path id="Path_1388" data-name="Path 1388" d="M1816.885,3508.909a.285.285,0,0,0-.414-.318c-1.464.95-1.686,2.656-1.887,4.291a16.4,16.4,0,0,0,.5,7.668c.162.444.892.546,1.006,0C1816.887,3516.755,1815.907,3512.628,1816.885,3508.909Z" fill="#fff4c7"/>
          <path id="Path_1389" data-name="Path 1389" d="M1823.342,3530.718c-2.921-4.175-2.48-11.4-1.985-16.265a.376.376,0,0,0-.636-.264c-1.921,2.357-1.8,6.218-1.589,9.1a10.053,10.053,0,0,0,3.963,7.618C1823.221,3531.016,1823.452,3530.875,1823.342,3530.718Z" fill="#fff4c7"/>
          <path id="Path_1390" data-name="Path 1390" d="M1828.438,3525.62a10.156,10.156,0,0,0-.5-3.634c-.039-.081-.142-.057-.186,0-1.954,2.538-.4,6.689.878,9.137.09.172.312.042.288-.121C1828.659,3529.261,1828.577,3527.386,1828.438,3525.62Z" fill="#fff4c7"/>
          <path id="Path_1391" data-name="Path 1391" d="M1861.973,3491.077a1.007,1.007,0,0,0-1.122-.456c-3.456.641-7.4.9-10.551,2.5a.4.4,0,0,0-.243.39.253.253,0,0,0,.016.274c3.944,4.876,4.726,10.712,4.858,16.721a12.662,12.662,0,0,0-3.022-2.009c-.634-.3-.773.4-.652,1.079a37.985,37.985,0,0,1,.07,10.114c-.772-.65-1.508-1.353-2.244-2.027-.751-.688-1.477-.139-1.241.862,2.09,8.853-7.123,16.555-6.472,24.952a10.588,10.588,0,0,1-4.64-4.876c-.476-.854-1.023-.657-1.171-.392-.348.185-1.169,3.042.662,7.77a34.892,34.892,0,0,1-10.284-10.33.741.741,0,0,0-1.348.569c.174,1.127.341,2.251.515,3.374-5.716-3.577-9.46-8.74-11.934-15.146-.037-.095-.207-.094-.2.027a22.008,22.008,0,0,0,5.291,11.957c3.694,4.744,8.6,8.731,13.222,12.333,2.955,2.3,6.04,4.454,9.134,6.563,2.006,1.367,5.128,4.457,7.806,4.558a.974.974,0,0,0,1.747-.56c.193-3.1-1.009-6.15-1.618-9.164a18.728,18.728,0,0,1,.514-10.313c1.695-4.9,4.739-9.1,6.173-14.058a11.429,11.429,0,0,1,1.022,1.52,1.1,1.1,0,0,0,1.984-.259,42.754,42.754,0,0,0,2.889-16.16c.162.26.316.528.462.812a1.126,1.126,0,0,0,2.037-.267A30.933,30.933,0,0,0,1861.973,3491.077Z" fill="#f2d661"/>
        </g>
        <path id="Path_1392" data-name="Path 1392" d="M1849.775,3561.912a6.322,6.322,0,0,0-.248-1.649c-2.209-3.115-6.111-5.473-9.207-7.526-4.368-2.9-8.839-5.68-12.967-8.918a45.406,45.406,0,0,1-9.857-10.259c-2.516-3.758-3.631-7.955-5.565-11.971-.268-.555-.956-.308-1.134.154l-.021,0a12.014,12.014,0,0,0-.222,1.565,18.57,18.57,0,0,1-.757,2.811c-2.467-4.428-2.591-9.817-2.92-14.806-.054-.817-1.128-1.446-1.755-.727-.789.906-1.582,1.808-2.366,2.717-1.251-7.342.2-14.217,2.9-21.2-.135-.048-.272-.093-.405-.144-.243-.094-.488-.195-.73-.3-5.41,6.946-6.288,16.875-3.945,25.21a1.459,1.459,0,0,0,2.632.344c.511-.721,1-1.457,1.483-2.2-.014,5.43.9,10.7,4.415,15.154a1.447,1.447,0,0,0,2.408-.635v-.016c2.144,5.9,7.347,11.364,11.516,14.971a104.886,104.886,0,0,0,12.588,8.973c4.317,2.74,8.954,6.615,13.793,8.272a.44.44,0,0,0,.238.011c0,.111-.01.227-.015.34Z" fill="#ac1a18"/>
        <path id="Path_1393" data-name="Path 1393" d="M1883.684,3565.32c-.078-.459-.657-.4-.877-.115-2.123,2.764-3.014,6.286-4.619,9.355a50.519,50.519,0,0,1-6.589,9.725,41.8,41.8,0,0,1-8.436,7.4,8.939,8.939,0,0,1-2.254,1.384c-2.4.473-3.96-.727-3.819-3.025.128-2.062,1.714-3.677,2.1-5.689a.259.259,0,0,0-.316-.315c-3.689,1.1-5.734,5.738-4.326,9.266-1.431-.047-2.629-.282-3.156-2.358a8.39,8.39,0,0,1,1.777-7.021.067.067,0,0,0-.046-.113c-4.131.091-5.344,5.454-4.305,8.8.043.138.1.269.156.4-2.308-.6-4.281-1.62-4.211-4.664.056-2.465,2.1-5.248,3.078-7.5a54.815,54.815,0,0,0,3.978-13.524c1.271-8.193,1.315-19.372-3.487-26.542a.25.25,0,0,0-.462.125c.085,5.907,1.46,11.663,1.308,17.632a62.741,62.741,0,0,1-3.325,18.886c-1.457,4.222-5.6,9.29-3.781,13.966a7.226,7.226,0,0,0,9.02,4.213,5.065,5.065,0,0,0,1.871.754,4.45,4.45,0,0,0,3.326-.667c3.185,2.522,7.735-.671,10.633-2.826a47.689,47.689,0,0,0,11.457-12.072C1881.158,3576.549,1884.591,3570.586,1883.684,3565.32Z" fill="#ac1a18"/>
        <path id="Path_1394" data-name="Path 1394" d="M1843.127,3586.92a.423.423,0,0,0-.608-.247,13.523,13.523,0,0,0-2.725,2.341,11.351,11.351,0,0,1-5.265,2.422,7.41,7.41,0,0,0,.66-1.764c.429-1.9.26-5.716-1.269-7.1a.367.367,0,0,0-.432-.056c-1.69.936-1.033,3.6-1.09,5.2-.051,1.4.113,3.618-2.247,3.872s-2.791-1-3.4-3.2a13.618,13.618,0,0,1-.075-6.5c.056-.189-.2-.276-.3-.128-1.828,2.626-3.227,6.142-1.7,9.321.027.054.064.112.1.169a7.353,7.353,0,0,1-4.189-3.306c-1.742-2.912-.812-5.872.178-8.832,2.023-6.044.851-10.38-1.078-16.35-1.993-6.169-4.261-12.248-6.173-18.444-1.886-6.113-2.847-12.529-4.827-18.584-.115-.353-.728-.433-.8,0-1.132,6.988,1.337,14.611,3.425,21.2,2.405,7.595,5.562,15.086,7.281,22.88,1.446,6.552-4.168,12.4-1.182,18.845,1.813,3.915,6.2,6.435,10.3,5.608,3,1.157,7.7.46,10.1-.432C1840.291,3592.916,1844.453,3590.077,1843.127,3586.92Z" fill="#ac1a18"/>
        <path id="Path_1395" data-name="Path 1395" d="M1939.673,3565.886a.035.035,0,0,0,0,.07A.035.035,0,0,0,1939.673,3565.886Z" fill="#5b0a50"/>
        <path id="Path_1396" data-name="Path 1396" d="M1912,3589.488c-4.428-5.879-12.188-7.5-19-5.727a15.585,15.585,0,0,0-11.318,7.253c-1.437,2.433-.817,4.723,2.054,5.532a6.772,6.772,0,0,0,6.4-1.635,4.866,4.866,0,0,0,6.555.631c2.173,2.3,6.2,1.866,9.359,1.117C1909.791,3595.771,1915.5,3594.133,1912,3589.488Z" fill="#ffec8b"/>
        <path id="Path_1397" data-name="Path 1397" d="M1867.116,3500.845c-.387-3.7-1.287-9.346-4.69-11.485a.829.829,0,0,0-1.234.708c-.127,1.738.56,3.183,1.035,4.837a34.245,34.245,0,0,1,1.3,7.129,42.114,42.114,0,0,1-.884,9.67c-.667-.721-1.272-1.51-1.849-2.269a1.153,1.153,0,0,0-2.128.577,70.306,70.306,0,0,1-2.11,16.32,8.043,8.043,0,0,1-.953-2.024c-.373-1.219-2.438-1.068-2.322.315.531,6.319-5.575,11.325-6.711,17.369-1.045,5.565.594,9.467,3.976,13.723.119.15.313-.042.247-.191-2.576-5.738-1.417-13.012,1.438-18.346a30.855,30.855,0,0,0,3.265-7.541c.134.226.261.456.4.675a1.6,1.6,0,0,0,2.887-.377,37.333,37.333,0,0,0,2.611-16.871,7.839,7.839,0,0,1,.92,1.629,1.358,1.358,0,0,0,2.447.32C1867.255,3511.026,1867.593,3505.417,1867.116,3500.845Z" fill="#ac1a18"/>
        <path id="Path_1398" data-name="Path 1398" d="M1910.84,3530.948a17.424,17.424,0,0,0-2.1.171c-11.972-1.3-22.576,9.085-25.544,19.923a32.3,32.3,0,0,0,.854,18.993,35.988,35.988,0,0,0,4.5,8.859,16.155,16.155,0,0,0,4.155,4.743c.678-.025,2.474-.569,3.143-.592.295-.01.586-.017.876-.021-5.067-9.9-6.269-20.936-.183-31.02.519-.86-.484-1.684-1.293-1.293q-1.529.738-3.056,1.479a14.883,14.883,0,0,1,5.478-5.947.937.937,0,0,0-.469-1.73,11.589,11.589,0,0,0-4.079.448c3.906-6.844,10.229-10.429,17.861-12.956A.541.541,0,0,0,1910.84,3530.948Z" fill="#ffd852"/>
        <path id="Path_1399" data-name="Path 1399" d="M1905.269,3499.886c0-.008.006-.013.008-.021a.985.985,0,0,0-.934-1.226l-.017,0a4.194,4.194,0,0,0-1.186-.844,41.611,41.611,0,0,1-3.888-2.656,36.379,36.379,0,0,1-3.664-3.136c-.733-.736-1.144-1.76-2.2-1.79-.015-.053-.027-.108-.042-.16a.384.384,0,0,0-.735,0c-1.01,4.655-.515,9.513-1.388,14.209a25.355,25.355,0,0,1-5.662,12.36,1.4,1.4,0,0,0,.978,2.362c5.3.324,10.07-3.5,13.353-7.342C1902.218,3508.921,1906.092,3503.836,1905.269,3499.886Z" fill="#e86300"/>
        <path id="Path_1400" data-name="Path 1400" d="M1922.693,3508.561a23.188,23.188,0,0,0-4.505-3.268,26.691,26.691,0,0,0-5.084-2.774c-.894-.332-1.785-.7-2.5.1a1.886,1.886,0,0,0-.275.418c-2.12,2.736-3,6.638-4.646,9.682a31.471,31.471,0,0,1-8.234,9.887c-.929.731-.139,2.327.948,2.289,9.682-.334,21.205-5.48,25.443-14.765A1.123,1.123,0,0,0,1922.693,3508.561Z" fill="#e86300"/>
        <path id="Path_1401" data-name="Path 1401" d="M1939.468,3533.038a1.338,1.338,0,0,0,.34-1.278,41.682,41.682,0,0,0-3.18-7.232c-.936-1.653-2.117-4.325-4.161-4.7h-.01a.387.387,0,0,0-.7-.093c-2.783,4.3-4.526,8.863-8.037,12.732a34.934,34.934,0,0,1-12.3,8.657,1.311,1.311,0,0,0,.31,2.374c9.341,2.086,23.128.1,28.018-9.405A.837.837,0,0,0,1939.468,3533.038Z" fill="#e86300"/>
        <path id="Path_1402" data-name="Path 1402" d="M1942.095,3550.322c.019-.057.044-.111.062-.168a.293.293,0,0,0-.426-.327c-4.022,2.817-7.238,6.271-11.828,8.311-5.689,2.529-11.893,3.455-18.06,3.837-1.114.069-1.992,1.555-1,2.406a26.476,26.476,0,0,0,14.1,6.362c4.378.531,10.524.4,14.036-2.726a1.016,1.016,0,0,0,.933-.965c.3-2.423.622-4.843.941-7.263a8.127,8.127,0,0,1,1.251.742.94.94,0,0,0,1.405-.806C1943.351,3556.877,1943.855,3552.717,1942.095,3550.322Z" fill="#e86300"/>
        <path id="Path_1403" data-name="Path 1403" d="M1935.852,3572.641c-2.6,3.258-4.732,6.874-7.462,10.034a37.7,37.7,0,0,1-10.349,8.321,38.231,38.231,0,0,1-12.034,4.232c-1.758.3-4.895,1-6.655.469-4.263-1.276-.389-4.39.347-6.6a.391.391,0,0,0-.375-.493c-3.369.33-6.155,4.238-5.036,7.434-1.806-.549-3.863-.63-3.723-3.28.073-1.381.918-2.179,1.5-3.325.093-.181.441-.845.171-1.034-1.154-.81-2.815.506-3.58,1.351a5.575,5.575,0,0,0-1.19,4.934,5.977,5.977,0,0,0,.3.888c-1.808.079-3.707.189-5.192-.654a2.644,2.644,0,0,1-1.1-1.1,38.1,38.1,0,0,1,2.545-3.939,13.634,13.634,0,0,1,6.355-4.039c5.26-1.621,9.964.489,15.143.708a.552.552,0,0,0,.386-.933c-3.243-3.12-8.3-4.229-12.97-3.773-1.035-2.12-2.56-4.009-3.709-6.075a42.385,42.385,0,0,1-3.522-7.978,30.831,30.831,0,0,1-.385-17.752,24.459,24.459,0,0,1,10.519-14.361,22.654,22.654,0,0,1,7.5-2.9c2.636-.5,5.54.068,8.061-.8a.242.242,0,0,0,.106-.4c-4-3.449-11.988-.763-16.085,1.287a26.813,26.813,0,0,0-12.709,13.941,32.238,32.238,0,0,0-1.274,19.775c1.25,5.133,4.143,12.06,8.59,15.758a17.437,17.437,0,0,0-2.6.858,15.663,15.663,0,0,0-7.218,6.45,5.24,5.24,0,0,0-.877,1.159,5.147,5.147,0,0,0,.392,5.819c1.93,2.239,7.107,3.081,9.816,1.252a5.141,5.141,0,0,0,1.353.73c1.416.5,3.657.587,4.85-.523,2.028,1.563,5.346,1.13,7.69.934a39.856,39.856,0,0,0,8.933-1.79c10.4-3.37,23.342-12.321,24.841-24.024A.8.8,0,0,0,1935.852,3572.641Z" fill="#ac1a18"/>
        <path id="Path_1404" data-name="Path 1404" d="M1897.888,3560.108c-3.949,2.774-3.156,8.17-2.03,12.163a.274.274,0,0,0,.536-.073c.459-4.03,1.1-8.02,1.581-12.04A.058.058,0,0,0,1897.888,3560.108Z" fill="#ffd852"/>
        <path id="Path_1405" data-name="Path 1405" d="M1900.988,3573.058c-.056-2.012.31-4.2-.285-6.134a.353.353,0,0,0-.636-.083c-2.467,3.775-.678,9.379.8,13.17.067.173.384.173.358-.049C1900.951,3577.676,1901.052,3575.359,1900.988,3573.058Z" fill="#ffd852"/>
        <path id="Path_1406" data-name="Path 1406" d="M1905.287,3500.019l-.078-.039c-5.1-2.552-8.887-6.08-12.6-9.924-.918,4.238-.6,8.642-1.195,12.941l.785,1.232a45.772,45.772,0,0,0,6.852,8.351c.288-.312.571-.626.84-.94C1902.193,3508.951,1906,3503.95,1905.287,3500.019Z" fill="#d84d00"/>
        <path id="Path_1407" data-name="Path 1407" d="M1942.21,3560.278a1.206,1.206,0,0,0,1.278-1.06,51.262,51.262,0,0,0-.207-5.563c-.011-.074-.023-.147-.035-.22a7.07,7.07,0,0,0-1.151-3.113c.019-.057.044-.111.062-.168a.293.293,0,0,0-.426-.327c-3.7,2.591-6.731,5.709-10.764,7.781a23.24,23.24,0,0,1,.432,4.258,6.131,6.131,0,0,0-2.308-.845,1.1,1.1,0,0,0-1.332,1.332,26.208,26.208,0,0,1,.419,8.62c3.4.072,7.14-.421,9.834-2.223.1-.339.211-.678.31-1.027.664-2.357,1.925-5.927,1.642-8.745a7.582,7.582,0,0,0,1.2.858C1941.565,3560.047,1941.711,3560.287,1942.21,3560.278Z" fill="#d84d00"/>
        <path id="Path_1408" data-name="Path 1408" d="M1932.467,3519.825h-.01a.387.387,0,0,0-.7-.093c-2.61,4.03-4.3,8.3-7.4,12a33.211,33.211,0,0,1,6.643,10.143,17.3,17.3,0,0,0,8.744-7.785.837.837,0,0,0-.281-1.052,1.338,1.338,0,0,0,.34-1.278,42.463,42.463,0,0,0-2.778-6.473,59.456,59.456,0,0,0-4.011-5.291A2.772,2.772,0,0,0,1932.467,3519.825Z" fill="#d84d00"/>
        <path id="Path_1409" data-name="Path 1409" d="M1923.54,3510.748a73.786,73.786,0,0,0-12.972-8.071,1.962,1.962,0,0,0-.239.363c-2.12,2.736-3,6.638-4.646,9.682a33.672,33.672,0,0,1-2.269,3.618c1.067.826,2.161,1.633,3.306,2.408,1.524,1.031,3.077,2.028,4.629,3.026C1916.525,3519.39,1921.07,3515.678,1923.54,3510.748Z" fill="#d84d00"/>
        <path id="Path_1410" data-name="Path 1410" d="M1924.857,3508.914c-6.175-4.881-13.555-7.74-20.349-11.6a49.247,49.247,0,0,1-9.637-6.9c-2.935-2.775-4.662-6.026-6.81-9.354a.434.434,0,0,0-.8.217c.223,6.122,5.525,11.438,10.06,14.938,6.143,4.74,13.461,7.56,20.092,11.5,7.641,4.546,13.378,11.005,17.862,18.633,3.762,6.4,5.909,13.042,7.891,20.007-.435-.522-.917-1.026-1.421-1.586a.927.927,0,0,0-1.539.9,33,33,0,0,1,1.633,13.651c-.305-.241-.613-.476-.914-.721a1.07,1.07,0,0,0-1.8.745c-.181,9.467-4.92,16.439-10.27,23.783-.373.512.342,1.135.838.838,7.516-4.49,10.879-13.751,11.445-22.221.257.251.516.5.772.75a1.249,1.249,0,0,0,2.1-.872,32.324,32.324,0,0,0-.926-13.13,6.7,6.7,0,0,0,.808.455l.216.775a.408.408,0,0,0,.8-.108C1946.331,3534.758,1936.146,3517.838,1924.857,3508.914Z" fill="#ac1a18"/>
      </g>
      <g id="Group_388" data-name="Group 388">
        <path id="Path_1411" data-name="Path 1411" d="M1767.726,3361.789a41.982,41.982,0,0,0-10.312-13.662c-3.015-2.529-11.023-9.009-13.79-4.118s-.232,20.008,1.647,28.665c1.059,4.883,2.3,9.74,3.753,14.52,1.12,3.675,2.426,7.219,5.329,9.865a1.236,1.236,0,0,0,2.066-.411,92.042,92.042,0,0,1,10.17-19.757c1.441-2.137,3.2-4.281,3.5-6.933C1770.414,3367.077,1768.974,3364.292,1767.726,3361.789Z" fill="#f9d8af"/>
        <path id="Path_1412" data-name="Path 1412" d="M1767.874,3362.543c-1.481-5-5.248-9.242-9.138-12.569-3.557-3.042-9.265-7.333-14.209-6.909-.846.072-.8,1.165-.308,1.588.014.012.029.021.044.033a.52.52,0,0,0,.25.6c8.2,5.16,11.889,12.919,12.262,22.522a85.563,85.563,0,0,1-4.2,28.41c-.4,1.275,2.828,3.847,3.6,2.7,3.626-5.386,5.013-12.824,7.589-18.773C1766.134,3374.67,1769.688,3368.67,1767.874,3362.543Z" fill="#ddb287"/>
        <path id="Path_1413" data-name="Path 1413" d="M1908.092,3360.12a105.925,105.925,0,0,0-1.4-16.09,93.479,93.479,0,0,0-4.281-16.411c-1.6-4.476-3.249-10.076-6.842-13.378a1.774,1.774,0,0,0-2.766.184c-.184.335-.363.664-.536.99-3.171,2.126-4.862,7.418-6.166,10.46a68.877,68.877,0,0,0-5.5,19.383c-.6,5.7,3.824,9.733,7.39,13.642,4.877,5.347,10.254,10.191,15.627,15.027a1.538,1.538,0,0,0,2.383-.158C1908.709,3370.078,1908.129,3364.453,1908.092,3360.12Z" fill="#f9d8af"/>
        <path id="Path_1414" data-name="Path 1414" d="M1907.154,3369.044c-1.317-3.933-4.185-7.317-6.033-11.035a45.487,45.487,0,0,1-4.163-13.674,142.315,142.315,0,0,1-1.248-14.785c-.212-4.862.481-9.662.378-14.5a.694.694,0,0,0-.818-.64c0-.02.01-.04.015-.06.055-.233-.235-.518-.439-.294-3.75,4.121-6.18,9.743-8.42,14.831-2.281,5.18-3.963,10.852-3.173,16.562,1.548,11.187,12.151,20.706,19.988,27.926a1.766,1.766,0,0,0,1.315.462.521.521,0,0,0,.529-.093c.029-.022.043-.049.069-.072a1.526,1.526,0,0,0,.25-.163.507.507,0,0,0,.308-.14c.481-.473.417-1.146.529-1.782.037-.212.069-.428.1-.643.034-.089.071-.177.1-.267a.618.618,0,0,0,.021-.333A.956.956,0,0,0,1907.154,3369.044Z" fill="#ddb287"/>
        <path id="Path_1415" data-name="Path 1415" d="M1921.426,3416.984a118.6,118.6,0,0,0-10.477-32.178,112.722,112.722,0,0,0-8.37-14.274c-2.836-4.129-5.981-8.978-10-12.15a10.992,10.992,0,0,1,2.61-3.917c.6-.546.309-1.8-.61-1.772a19.622,19.622,0,0,0-5.553.938,12.031,12.031,0,0,1,2.962-5.945c.689-.768-.084-2.37-1.128-1.666a28.89,28.89,0,0,0-5.978,4.667,1.9,1.9,0,0,1-.5-.184c-.618-.383-.895-1.208-1.4-1.725a62.4,62.4,0,0,1,1.658-12.26,68.607,68.607,0,0,1,3.743-11.231c1.009-2.343,2.373-4.585,3.519-6.9a17.674,17.674,0,0,0,1.971-4.262c.025-.03.052-.059.076-.09.332-.421-.137-.991-.609-.9-4.195.783-8.414,4.3-11.9,6.66a77.116,77.116,0,0,0-10.73,8.539,48.076,48.076,0,0,0-8.223,10.364c-.6,1.044-1.4,2.343-2.041,3.714-.2-.013-.39-.027-.581-.043q-5.278-.45-10.581-.508a146.232,146.232,0,0,0-40.437,5.356c-6.147,1.716-12.774,3.6-18.38,6.791-1.513-1.886-4.161-3.352-5.9-4.434a64.977,64.977,0,0,0-12.582-5.8c-6.822-2.425-24.369-4.956-26.939-2.018,2.487,1.9,6.28,3.643,8.863,5.432a48.665,48.665,0,0,1,8.144,7.1,61.178,61.178,0,0,1,7.338,11.626c-1.939-.12-7.593-.113-8.216.5a.121.121,0,0,0-.027.139c.49.993,4.516,4.631,4.616,4.957-2.737.6-5.455,2.487-7.688,3.988a1.091,1.091,0,0,0,.713,2.032c2.572-.4,4.643-.009,5.784,1.951a1.1,1.1,0,0,0-.39.369c-9.26,15.7-11.409,34.514-11.865,52.428a43.845,43.845,0,0,0,5.1,22.636,67.05,67.05,0,0,0,6.7,9.94,60.453,60.453,0,0,0,6.006,6.866,49.985,49.985,0,0,0,15.044,12.867c4.1,2.222,8.651,3.369,13.025,4.914a60.3,60.3,0,0,0,13.97,3.168c18.433,1.939,38.242,3.176,55.954-3.239a1.616,1.616,0,0,0,.539-.32,47.243,47.243,0,0,0,8.292-2.168,62.764,62.764,0,0,0,13.627-6.071,45.252,45.252,0,0,0,9.925-8.132c.227-.241.455-.478.683-.706,2.054-2.052,4.07-4.142,6-6.311a72.087,72.087,0,0,0,10.088-14.057C1923.125,3440.6,1923.483,3429.132,1921.426,3416.984Z" fill="#f7b713"/>
        <path id="Path_1416" data-name="Path 1416" d="M1922.394,3428.661a57.437,57.437,0,0,0-.651-9.99q-.109-1.484-.268-2.96a72.735,72.735,0,0,0-6.979-23.187,178.1,178.1,0,0,0-10.677-20.264c-3.009-4.718-6.755-10.422-11.775-13.4a13.358,13.358,0,0,1,3.292-4.551,1.166,1.166,0,0,0-1-2,32.03,32.03,0,0,0-5.056,1.467,58.42,58.42,0,0,1,2.308-6.357c.47-1.092-.989-1.84-1.8-1.2-1.882,1.5-3.728,3.056-5.645,4.51a42.982,42.982,0,0,0-19.283-8.379,120.482,120.482,0,0,0-12.759-.632c-4.147-.144-8.375-.736-12.51-.255a.493.493,0,0,0-.058.941l.12.028a.359.359,0,0,0,.2.635c32.294,2.962,54.578,37.2,60.893,66.307,3.207,14.783,3.221,30.888-2.393,45.11-6.043,15.311-19.235,25.774-34.8,30.051-17.988,4.944-32.949,6.284-55.457,6.841-1.092,4.094,32.378,2.472,34.743,2.315a109.811,109.811,0,0,0,11.495-1.317,126.338,126.338,0,0,0,23.8-6.642C1885.464,3482.909,1921.816,3471.436,1922.394,3428.661Z" fill="#e98700"/>
        <path id="Path_1417" data-name="Path 1417" d="M1818,3367.874a63.068,63.068,0,0,0-2.066-11.005c-.924-3.441-1.99-7.951-3.871-11.007-.387-.628-16.368,5.539-15.96,6.075,3.5,4.6,7.93,9.382,10.8,14.488,3.025,5.385,5.378,10.36,6.2,16.977a1.094,1.094,0,0,0,1.817.6C1819.023,3380.46,1818.414,3372.723,1818,3367.874Z" fill="#e86300"/>
        <path id="Path_1418" data-name="Path 1418" d="M1835.635,3360.823c-.035-5.966.061-13.3-.775-19.216-.1-.741-17.842,1.847-18.621,2.836a.441.441,0,0,0-.615.461c.811,6.052,4.357,12.314,7.019,17.74a104.238,104.238,0,0,0,9.836,16.477,1.3,1.3,0,0,0,2.2-.37C1836.05,3372.929,1835.67,3366.77,1835.635,3360.823Z" fill="#e86300"/>
        <path id="Path_1419" data-name="Path 1419" d="M1853.359,3374.989a118.946,118.946,0,0,1-.455-17.145c.208-5.366,1.49-11.706,1.824-17.017.059-.935-15.67.242-15.807.721a.122.122,0,0,0-.212.033c-1.533,5.709.958,13.739,2.88,19.081,2.054,5.709,4.864,11.836,9.834,15.634C1852.384,3377.03,1853.466,3375.986,1853.359,3374.989Z" fill="#e86300"/>
        <path id="Path_1420" data-name="Path 1420" d="M1811.517,3433.1a14.573,14.573,0,1,1-13.635-15.618A14.661,14.661,0,0,1,1811.517,3433.1Z" fill="#e98700"/>
        <path id="Path_1421" data-name="Path 1421" d="M1887.65,3420.988a14.573,14.573,0,1,1-13.635-15.618A14.661,14.661,0,0,1,1887.65,3420.988Z" fill="#e98700"/>
        <ellipse id="Ellipse_19" data-name="Ellipse 19" cx="20.135" cy="18.251" rx="20.135" ry="18.251" transform="matrix(0.978, -0.206, 0.206, 0.978, 1818.91, 3439.266)" fill="#ffec8b"/>
        <path id="Path_1422" data-name="Path 1422" d="M1855.392,3452.753c-.332-.539-1.237-.216-1.28.367-.178,2.42-1.266,4.641-3.867,5.22-3.343.743-4.834-2.015-5.544-4.769-.074-.287-.161-.583-.248-.878-.252-1.6-.659-3.2-.958-4.774a13.4,13.4,0,0,0-1.624-5.124c-.315-.494-.97-.14-1.073.308-.944,4.089,1.428,8.277,1.008,12.414-.314,3.088-2.6,5.995-6.048,5.106-2.147-.553-3.086-2.22-4.156-3.947-.064-.1-.211-.052-.255.037-2.673,5.394,5.7,8.1,9.439,5.8a8.075,8.075,0,0,0,3.208-3.8,5.223,5.223,0,0,0,3.439,2.332C1852.12,3462.093,1858.51,3457.824,1855.392,3452.753Z" fill="#ac1a18"/>
        <g id="Group_386" data-name="Group 386">
          <path id="Path_1423" data-name="Path 1423" d="M1828.212,3446.841c-5.1-.259-10.771,2.266-15.453,4.1-5.035,1.973-10.975,4.151-14.859,8.054-.1.1-.025.3.129.257,5-1.373,9.579-4.3,14.421-6.161,5.135-1.969,11.119-2.665,15.988-5.155A.584.584,0,0,0,1828.212,3446.841Z" fill="#ac1a18"/>
          <path id="Path_1424" data-name="Path 1424" d="M1828.593,3451.722c-4.917.057-9.94,3.922-13.838,6.553-4.126,2.784-8.973,6.076-11.7,10.324a.359.359,0,0,0,.456.516c4.534-2.519,8.4-6.348,12.748-9.206,3.93-2.58,9.271-4.416,12.414-7.955C1828.74,3451.877,1828.72,3451.721,1828.593,3451.722Z" fill="#ac1a18"/>
        </g>
        <g id="Group_387" data-name="Group 387">
          <path id="Path_1425" data-name="Path 1425" d="M1889.041,3443.989c-4.571-3.177-11.012-3.062-16.378-2.92a94.71,94.71,0,0,0-9.869.814c-3.048.4-6.384.641-9.111,2.142a.309.309,0,0,0,.091.584c5.211.958,11.324-1.019,16.6-1.327,6.3-.367,12.324,1.18,18.528,1.064C1889.081,3444.343,1889.221,3444.113,1889.041,3443.989Z" fill="#ac1a18"/>
          <path id="Path_1426" data-name="Path 1426" d="M1886.61,3453.14c-4.112-3.415-9.648-4.137-14.839-4.761-5.433-.653-11.525-1.539-16.942-.525a.142.142,0,0,0-.03.27c4.88,1.763,10.345,1.669,15.452,2.275,5.512.655,10.734,2.343,16.167,3.232C1886.7,3453.677,1886.806,3453.3,1886.61,3453.14Z" fill="#ac1a18"/>
        </g>
        <path id="Path_1427" data-name="Path 1427" d="M1796.09,3400.349a12.971,12.971,0,0,0-5.741,3.531c-.991,1.086-2.707,3.326-1.832,4.876a.147.147,0,0,0,.155.075c1.306-.185,2.5-1.789,3.451-2.6a14.005,14.005,0,0,1,4.649-2.643C1798.764,3402.932,1798.133,3399.7,1796.09,3400.349Z" fill="#ac1a18"/>
        <path id="Path_1428" data-name="Path 1428" d="M1874.267,3394.207c-1.723-3.619-6.862-4.942-10.538-3.763-1.39.445-1.517,2.8.2,2.783a26.729,26.729,0,0,1,5.264.257c1.623.305,3.173.835,4.794,1.143C1874.218,3394.67,1874.351,3394.385,1874.267,3394.207Z" fill="#ac1a18"/>
        <path id="Path_1429" data-name="Path 1429" d="M1922.887,3419.446a.036.036,0,0,0,0,.071A.036.036,0,0,0,1922.887,3419.446Z" fill="#5b0a50"/>
        <ellipse id="Ellipse_20" data-name="Ellipse 20" cx="13.912" cy="13.409" rx="13.912" ry="13.409" transform="translate(1784.032 3446.669) rotate(-86.469)" fill="#f9f9f9"/>
        <ellipse id="Ellipse_21" data-name="Ellipse 21" cx="11.068" cy="10.668" rx="11.068" ry="10.668" transform="translate(1788.031 3444.556) rotate(-86.468)"/>
        <path id="Path_1430" data-name="Path 1430" d="M1796.836,3430.353a3.415,3.415,0,1,1-3.2-3.619A3.415,3.415,0,0,1,1796.836,3430.353Z" fill="#f9f9f9"/>
        <path id="Path_1431" data-name="Path 1431" d="M1859.034,3420.372a13.419,13.419,0,1,0,14.241-13.06A13.668,13.668,0,0,0,1859.034,3420.372Z" fill="#f9f9f9"/>
        <path id="Path_1432" data-name="Path 1432" d="M1860.621,3420.959a10.676,10.676,0,1,0,11.33-10.39A10.875,10.875,0,0,0,1860.621,3420.959Z"/>
        <path id="Path_1433" data-name="Path 1433" d="M1862.022,3417.388a3.415,3.415,0,1,0,3.618-3.2A3.414,3.414,0,0,0,1862.022,3417.388Z" fill="#f9f9f9"/>
        <path id="Path_1434" data-name="Path 1434" d="M1850.741,3430.912c-3.029-1.89-8.126-.816-11.413-.286-3.942.635-8.439,1.583-11.509,4.3-1.72,1.243-2.158,3.019.185,5.507,2.625,2.788,7.863,3.641,11.479,4.2,1.22.188,2.276.516,3.426-.25a15.189,15.189,0,0,0,3.318-2.155,33.875,33.875,0,0,0,5.058-4.338C1853.344,3435.715,1853.478,3432.62,1850.741,3430.912Z"/>
        <path id="Path_1435" data-name="Path 1435" d="M1845.719,3432.587a2.992,2.992,0,0,0-1.388-.6c-1.56-.763-4.315-.319-5.575-.118-1.94.309-6.163,1.074-6.795,3.348a1.6,1.6,0,0,0,.592,1.759c1.3,1.088,3.6.056,5.017-.245,2.58-.549,5.139-1.153,7.7-1.8A1.31,1.31,0,0,0,1845.719,3432.587Z" fill="#f9f9f9"/>
        <path id="Path_1436" data-name="Path 1436" d="M1786.692,3486.244c-8.291-4.811-13.257-13.418-17.2-21.951a103.722,103.722,0,0,1-8.357-29.762,90.834,90.834,0,0,1,5.989-47.386c1.054-2.556,9.353-16.676,7.4-18s-12.1,13.674-14.621,22.954c-.081.191-.166.381-.246.572a85.6,85.6,0,0,0-6.494,28.889c-.456,9.657.4,21,3.282,30.23,1.4,4.5,8.48,23.174,30.142,34.6C1786.693,3486.447,1786.8,3486.3,1786.692,3486.244Z" fill="#ffd852"/>
        <path id="Path_1437" data-name="Path 1437" d="M1776.317,3444.666c-7.038,1.045-16.775,1.622-22.276-3.795a.318.318,0,0,0-.544.273,5.686,5.686,0,0,0,.116.693c-.345,2.207.71,4.693,1.321,6.773.777,2.643,1.678,5.253,2.708,7.808a.978.978,0,0,0,.791,1.257c3.553.546,7.81-1.622,10.763-3.424a30.087,30.087,0,0,0,8.382-7.717A1.23,1.23,0,0,0,1776.317,3444.666Z" fill="#e86300"/>
        <path id="Path_1438" data-name="Path 1438" d="M1782.026,3456.028a63.1,63.1,0,0,1-9.908,4.795c-3.5,1.3-6.755,1.668-10.391,2.279a.286.286,0,0,0-.1.51,5.319,5.319,0,0,0,.587.441c.061,1.788,1.475,3.556,2.451,4.939a26.388,26.388,0,0,0,4.788,5.09.472.472,0,0,0,.391.277c.012,0,.024,0,.036,0a.7.7,0,0,0,.351.024c7.6.5,11.553-11.269,13.733-16.667A1.4,1.4,0,0,0,1782.026,3456.028Z" fill="#e86300"/>
        <path id="Path_1439" data-name="Path 1439" d="M1917.242,3401.57c-1.208,1.544-1.687,3.526-2.6,5.253a24.832,24.832,0,0,1-3.889,5.466,22.848,22.848,0,0,1-11.55,6.491,1.287,1.287,0,0,0-.872,1.812c1.52,3.6,8.36,4.274,11.76,4.371,4.578.131,9.281-.479,12.757-3.661C1923.445,3420.753,1921.564,3401.934,1917.242,3401.57Z" fill="#e86300"/>
        <path id="Path_1440" data-name="Path 1440" d="M1921.917,3429.27c-1.581.591-2.874,1.7-4.519,2.171a21.346,21.346,0,0,1-5.748.573,83.727,83.727,0,0,1-10.883-.675,1.334,1.334,0,0,0-1.406,1.242c.019,4.171,6.074,7.7,9.429,9.042,3.317,1.329,9.239,2.788,12.354.166l0,0a.159.159,0,0,0,.189.036C1923.45,3440.442,1922.072,3429.213,1921.917,3429.27Z" fill="#e86300"/>
        <path id="Path_1441" data-name="Path 1441" d="M1924.184,3421.469a98.482,98.482,0,0,0-10.559-35.954,105.29,105.29,0,0,0-5.713-9.83c2.376-5.246,2.362-12.086,2.427-17.6a87.255,87.255,0,0,0-1.685-18.825,66.33,66.33,0,0,0-5.4-15.947c-1.506-3.025-4.368-9.494-7.962-11.061a.587.587,0,0,0-.571-.657c-3.925-.079-7.845,2.307-11.115,4.245a75.647,75.647,0,0,0-10.619,7.577,78.508,78.508,0,0,0-8.8,8.869c-1.758,2.073-4.448,4.8-5.28,7.678-4.51-.8-9.59-.513-13.585-.506a126.468,126.468,0,0,0-21.782,1.946,122.033,122.033,0,0,0-20.472,5.56,84.836,84.836,0,0,0-10.082,4.354c-.636.33-1.344.664-2.057,1.026-1.557-3.1-5.816-4.724-8.747-6.175a70.879,70.879,0,0,0-11.559-4.517c-7.79-2.277-16.428-3.652-24.5-2.276-6.246.207-4.961,9.98-5.07,13.834a97.187,97.187,0,0,0,1.6,17.878,81.967,81.967,0,0,0,4.091,16.121c1.535,4.059,3.866,10.332,7.746,12.939-.553,2.068-1.043,4.155-1.488,6.249a94.67,94.67,0,0,0-1.637,32.81,61.413,61.413,0,0,0,30.982,45.67c16.662,10.541,37.665,11.084,43.72,11.414a137.412,137.412,0,0,0,46.11-5.632c28.165-7.567,38.789-22.955,45.125-34.317C1923.839,3445.548,1925.264,3433.922,1924.184,3421.469Zm-27.875-103.8a75.883,75.883,0,0,1,3.758,7.242,72.265,72.265,0,0,1,4.958,15.7,86.5,86.5,0,0,1,1.486,18.585c-.095,4.208-.925,8.731-.91,13.076-.344-.488-.689-.975-1.04-1.458-3.025-4.164-6.7-9.736-11.251-12.595a11.019,11.019,0,0,1,4.594-4.416,1.257,1.257,0,0,0-.156-2.287,12.469,12.469,0,0,0-6.961.179,16.39,16.39,0,0,1,4.01-5.916,1.169,1.169,0,0,0-1.007-2,19.07,19.07,0,0,0-8.808,4.37c-.415-5.945,1.756-12.393,3.575-17.851,1-2.993,2.165-5.925,3.409-8.823a52.61,52.61,0,0,0,2.722-6.376C1895.18,3315.979,1895.809,3316.816,1896.309,3317.672Zm-143.02,75.784a59.333,59.333,0,0,1-2.789-6.241,85.121,85.121,0,0,1-4.04-15.748,127.6,127.6,0,0,1-1.909-16.181,43.238,43.238,0,0,1,.347-7.993c.163-1.113.459-2.187.682-3.26,1.228,1.3,3.166,2.037,4.656,2.981a48.28,48.28,0,0,1,13.711,12.834c1.194,1.655,2.176,3.615,3.37,5.349a13.586,13.586,0,0,0-9.2.89,1.207,1.207,0,0,0,.15,2.2,15.75,15.75,0,0,1,5.756,2.837c-3.719,1.129-7.323,2.724-9.194,6.381a1.311,1.311,0,0,0,1.339,1.983,31.516,31.516,0,0,1,7.451-.036,42.124,42.124,0,0,0-5.677,10.4,75.409,75.409,0,0,0-2.582,7.246C1754.709,3395.858,1753.918,3394.677,1753.289,3393.456Zm161.738,59.875c-4.585,7.948-9.924,15.744-17.163,21.4a107.855,107.855,0,0,1-26.435,12.414,140.934,140.934,0,0,1-21.662,4.624c-7.384.968-25.758,2.712-42.948-.686-20.119-5.945-39.078-15.654-47.838-36.124-5.27-12.315-6.042-26.047-4.32-39.2a121.655,121.655,0,0,1,4.436-20.177c1.881-6.07,5.019-11.372,7.392-17.2a.734.734,0,0,0-1.172-.782c-.059.055-.111.119-.17.175-1.773-1.394-4.263-1.5-6.619-1.256,1.974-2.139,4.983-3.128,7.768-3.985a1.011,1.011,0,0,0,.54-1.631,11.91,11.91,0,0,0-4.486-3.751c3.492-1.1,8.037.53,7.993-.107-.4-5.746-6.19-11.824-10.139-15.607a48,48,0,0,0-7.589-5.994c-1.845-1.161-6.749-3.46-6.745-3.624a1.375,1.375,0,0,0,.432.115c8.093.505,15.91.858,23.741,3.228,4.978,1.19,15.337,5.369,18.652,8.472a6.537,6.537,0,0,0-2.3,2.5c-.043.09.043.174.124.186,2.568.389,5.459-1.447,7.779-2.381,3.152-1.268,6.31-2.515,9.516-3.639a129.527,129.527,0,0,1,20.475-5.29,123.71,123.71,0,0,1,20.8-1.857q4.89-.024,9.773.34c3.285.245,6.745.916,9.979.037a.755.755,0,0,0,.262-1.348,13.989,13.989,0,0,0-3.188-1.48c1.676-1.69,3-4.06,4.365-5.7a73.827,73.827,0,0,1,8.973-9.022,75.222,75.222,0,0,1,10.35-7.4c2.424-1.435,5.286-2.617,7.638-4.3a25.721,25.721,0,0,0-3.761,6.346,79.481,79.481,0,0,0-4.136,10.576c-1.956,6.222-4.181,13.5-2.6,20.013a1.338,1.338,0,0,0,2.387.463,16.237,16.237,0,0,1,5.209-4.2,19.388,19.388,0,0,0-2.792,6.117c-.259.988.731,2.1,1.752,1.527a10.943,10.943,0,0,1,4.46-1.45,9.4,9.4,0,0,0-2.87,4.4,1.144,1.144,0,0,0,1.28,1.416c2.128,4.129,5.908,7.807,8.543,11.527a128.667,128.667,0,0,1,8.632,13.96,98.138,98.138,0,0,1,10.835,32.79C1921.845,3429.994,1921.305,3442.449,1915.027,3453.331Z" fill="#ac1a18"/>
      </g>
    </g>
  </g>
</svg>
