<svg xmlns="http://www.w3.org/2000/svg" width="217.256" height="314.393" viewBox="0 0 217.256 314.393">
  <g id="Group_23" data-name="Group 23" transform="translate(-1039.449 -4050.708)">
    <ellipse id="Ellipse_94" data-name="Ellipse 94" cx="89.35" cy="24.368" rx="89.35" ry="24.368" transform="translate(1060.885 4316.364)" fill="#ddd"/>
    <g id="Group_1373" data-name="Group 1373">
      <path id="Path_4475" data-name="Path 4475" d="M1200.831,4240.9a182.388,182.388,0,0,0-5.137-20.425,54.529,54.529,0,0,0-2.267-5.841,1.335,1.335,0,0,0,.042-.591c-1.246-8.056-2.658-15.883-11.061-19.152-8.963-3.485-18.549-2.792-27.954-3.415-15.3-1.012-34.9-1.641-46.008,10.909a.83.83,0,0,0,.031,1.178c-3.017,4.065-4.724,9.265-6.626,13.811a155.822,155.822,0,0,0-7.9,25.056c-3.954,16.99-5.6,34.851-.444,51.759a62.458,62.458,0,0,0,10.589,20.566,30.158,30.158,0,0,0,11.261,8.952c8.216,9.386,24.521,7.235,35.645,6.871a96.25,96.25,0,0,0,21.28-2.663c4.273-1.117,10.425-3.195,14.207-6.692a51.42,51.42,0,0,0,6.629-5c9.216-8.171,12.347-21.482,12.951-33.315C1206.781,4268.894,1203.289,4254.618,1200.831,4240.9Z" fill="#fff"/>
      <path id="Path_4476" data-name="Path 4476" d="M1221.9,4137.515c-3.023-10.621-8.234-23.41-18.119-29.431-4.936-3.006-11.582-3.184-17.126-2.433a20.424,20.424,0,0,0-7.358,2.424,24.028,24.028,0,0,0-12.986,13.876,32.068,32.068,0,0,0-1.723,11.631c.012,2.044.006,4.967.941,7.124a31.318,31.318,0,0,0-9.3-2.376c-3.525-.356-8.151.037-11.568,1.954a44.2,44.2,0,0,0,.747-10.152,28.149,28.149,0,0,0-9.05-18.993c-4.922-4.726-11.166-6.75-17.873-6.889a31.219,31.219,0,0,0-13.5,2.542c-.456.184-.9.37-1.338.554a35.032,35.032,0,0,0-11.226,8.087,43.786,43.786,0,0,0-11.823,24.889,57.578,57.578,0,0,0,4.082,29.816,48.708,48.708,0,0,0,7.915,12.663c3.335,3.848,7.923,8.432,13.032,9.66a1.256,1.256,0,0,0,.765-.05,17.474,17.474,0,0,0,5.581,2.033c4.518.945,9.172,1.518,13.757,2.042,10.837,1.237,21.833,1.433,32.731,1.658a149.694,149.694,0,0,0,31.582-2.238c4.5-.868,12.967-1.976,16.363-6.191a70.13,70.13,0,0,0,6.837-4.114,27.284,27.284,0,0,0,10.273-12.344C1228.459,4161.6,1225.213,4149.153,1221.9,4137.515Z" fill="#fff"/>
      <path id="Path_4477" data-name="Path 4477" d="M1137.052,4338.738c-.727-4.854-1.661-8.819-6.487-10.745-3.99-1.592-9.189-1.224-13.332-.513a1.323,1.323,0,0,0-1.126,1.171,46.9,46.9,0,0,0-7.439,12.806c-.556,1.363-1.569,3.638-.615,5.083a3.019,3.019,0,0,0,4.034,1.313c.727-.345,4.97-3.783,5.541-2.9.85,1.328.984,3.182,1.751,4.6,1.887,3.5,4.876,2.2,7.113-.022,1.763-1.752,3.083-3.09,5.167-.974.884.9,2.384,2.275,3.753,1.41C1138.477,4348.042,1137.485,4341.626,1137.052,4338.738Z" fill="#ffcc30"/>
      <path id="Path_4478" data-name="Path 4478" d="M1139.258,4341.047a43.734,43.734,0,0,0-1.987-7.833c-.629-1.826-1.239-4.115-2.868-5.3a.852.852,0,0,0-1.24.5c-.495,1.387-.027,2.914.3,4.3.478,2.055.875,4.123,1.319,6.187.593,2.752,1.4,6.763.052,9.535-1.476-1.763-3.043-3.21-5.63-3.307-2.732-.1-4.321,2.041-5.589,4.1-.794,1.287-.961,1.47-1.346-.011-.34-1.3-.536-2.636-.924-3.926-.745-2.483-3.143-3.311-5.515-2.636-2.34.661-3.361,3.524-5.971,2.9-1.69-.4.52-4.25.91-5.023,1.9-3.757,5.992-7.919,6.014-12.331a1.024,1.024,0,0,0-1.894-.512c-3.153,4.588-16.809,20.907-3.893,22.021a4.639,4.639,0,0,0,2.945-.9c.984-.641,2.373-2.7,3.674-2.513.376.055,1.475,6.236,2.393,7.155,1.782,1.787,4.73.753,6.141-.862.864-.992,1.343-2.252,2.251-3.2,1.594-1.678,4.317,2.763,5.029,3.654a2.032,2.032,0,0,0,2.84,0C1139.844,4350.275,1139.871,4345.132,1139.258,4341.047Z" fill="#b4500b"/>
      <path id="Path_4479" data-name="Path 4479" d="M1186.8,4342.633a38.3,38.3,0,0,0-6.346-14.014c-2.724-3.5-8.264-1.7-11.8-1.1-2.867.48-7.912,1.162-8.643,4.652a1.764,1.764,0,0,0-.029.5,18.787,18.787,0,0,0-1.063,5.307,34.5,34.5,0,0,0-.1,7.878c.873,5.161,6.113-1.172,7.544.116,2.118,1.905,3.626,6.363,7.014,6.43a3.811,3.811,0,0,0,3.617-2.245,9.272,9.272,0,0,0,.664-2.612c.435-2.362,3.06-1.6,4.522-.807C1185.534,4348.569,1187.613,4346.034,1186.8,4342.633Z" fill="#ffcc30"/>
      <path id="Path_4480" data-name="Path 4480" d="M1179.835,4327.457a1.074,1.074,0,0,0-1.822.754c.161,3.09,2.244,5.868,3.879,8.367a33.371,33.371,0,0,1,3.1,5.258,6.71,6.71,0,0,1,.5,2.1,6.6,6.6,0,0,1-.335,1.726,3.146,3.146,0,0,0-.318.521c-1.6-1.1-2.546-2.609-4.892-2.606-3.07,0-4.305,2.843-5.215,5.259-1.229,3.271-4.371-2.373-5.489-3.507a5.5,5.5,0,0,0-7.033-.82,5.573,5.573,0,0,0-1.13,1.063c-.1-.3-.191-.6-.262-.909-1.166-4.14.821-8.954.188-13.257-.152-1.034-1.815-.971-2.019,0-1.008,4.77-2.674,9.365-1.977,14.306.294,2.072,2.581,7.575,5.5,4.807.757-.717,1.109-1.733,1.79-2.512,1.354-1.549,3.2,1.332,3.871,2.243,2.08,2.838,4.382,4.757,7.956,3.192,1.357-.6,2.054-2.249,2.551-3.516.725-1.853,1.223-3.071,3.084-1.426,2.134,1.888,4.572,3.165,6.444.161C1192.646,4341.534,1184.167,4332.439,1179.835,4327.457Z" fill="#b4500b"/>
      <path id="Path_4481" data-name="Path 4481" d="M1218.881,4098.385c-.592-.941-6.753-9.118-8.368-10.455a63.481,63.481,0,0,0-13.243-11.549,75.8,75.8,0,0,0-16.841-8.179c-4.581-1.583-10.438-3.459-15.545-2.992a13.194,13.194,0,0,1,.375-1.911c.575-2.057,2.236-3.844,2.471-5.926a.791.791,0,0,0-.793-.794,3.958,3.958,0,0,0-2.555,1.227,23.39,23.39,0,0,0-5.56,3.565c-.424.331-.877.715-1.327,1.136-1.006-2.817-1.305-5.684-2.063-8.562a.666.666,0,0,0-1.208-.159,8.265,8.265,0,0,0-.677,1.6,31.058,31.058,0,0,0-3.744,10.22,22.074,22.074,0,0,0-2.079-3.146c-2.11-2.665-5.814-5.758-9.491-4.652a1.085,1.085,0,0,0-.443.279c-.031,0-.063,0-.1.011a1.044,1.044,0,0,0-1.142,1.527c1.1,1.791,2.545,3.155,3.3,5.175a10.7,10.7,0,0,1,.426,1.48c-6.388-.887-13.511,3-19.031,5.516a85.544,85.544,0,0,0-20.795,13.339,95.179,95.179,0,0,0-14.948,16.675,45.029,45.029,0,0,0-6.4,12.129,57.993,57.993,0,0,0-2.484,5.985,66.831,66.831,0,0,0-3.437,16.516,57.347,57.347,0,0,0,1,16.554,42.047,42.047,0,0,0,2.784,8.325c.514,1.2,1.131,2.508,1.816,3.794,1.468,3.307,9.4,18.912,20.142,21.88.756.213,3.941.921,3.427.459-32.217-29.018-17.113-63.772-9.96-70.818a37.588,37.588,0,0,1,25.844-11.076,29.3,29.3,0,0,1,13.991,3.443c2.863,1.542,4.723,4.219,6.946,6.419.557,1.355,1.315,2.63,1.979,3.94a40.227,40.227,0,0,1,3,7.95,27.024,27.024,0,0,1,.827,7.37c-.033,2.226-.69,8.778.376,10.835.268.519,19.255,6.225,19.408.218.163-6.415,0-19.741,2.841-25.744a26.645,26.645,0,0,1,12.453-12.461,31.626,31.626,0,0,1,16.27-2.74c.1.008.2.018.3.025a26.875,26.875,0,0,1,13.882,8.282,47.968,47.968,0,0,1,7.43,12.247c6.2,10.474,6.907,24.162,7.074,27.738a49.17,49.17,0,0,1-3.741,20.665c-.775,2,2.551,3.388,3.457,1.456,2.625-5.6,6.668-10.275,8.576-16.245C1239.906,4128.279,1221.188,4101.42,1218.881,4098.385Z" fill="#412644"/>
      <path id="Path_4482" data-name="Path 4482" d="M1224.645,4151.543a62.13,62.13,0,0,0-2.62-15.471,69.076,69.076,0,0,0-2.366-7.018c-.634-5.77-4.857-11.728-8.523-15.7-4.695-5.086-11.662-7.626-18.45-7.812-6.225-.169-12.355,2.107-17.581,5.338-4.12,2.544-8.734,6.684-9.1,11.812a11.994,11.994,0,0,0-1.326,3.587c-.2,1.043,1.308,1.848,1.821.768,2.455-5.187,8.883-8.483,14.427-8.784,6.594-.362,12.647,4.126,16.3,9.224,7.42,10.353,7.4,24.173,3.1,35.7-5.408,14.968-20.737,24.739-27.129,27.7-7.11,3.285-15.443,4.584-23.215,4.833a31.282,31.282,0,0,1-5.2-.31c-1.154.08-2.322.121-3.5.143-3.332.067-7.12-.6-10.6-.409,16.928,6.708,43.346,2.267,47.738,1.848,5.5-.521,11.012-.848,16.408-2.136,8.962-2.139,16.3-7.711,21.585-15.117A45.613,45.613,0,0,0,1224.645,4151.543Z" fill="#edd8b2"/>
      <path id="Path_4483" data-name="Path 4483" d="M1180.149,4293.371a1.381,1.381,0,0,0-2.492.324,19.519,19.519,0,0,0-.51,2.551,13.171,13.171,0,0,0-.719,3.012,1.77,1.77,0,0,0,2.641,1.514C1181.145,4299.334,1181.587,4295.4,1180.149,4293.371Z" fill="#edd8b2"/>
      <path id="Path_4484" data-name="Path 4484" d="M1174.047,4294.166a1.082,1.082,0,0,0-1.693-.219,8.288,8.288,0,0,0-1.51,2.6,7.481,7.481,0,0,0-.833,3.279c.067,1.3,1.779,2.286,2.763,1.142A7.1,7.1,0,0,0,1174.047,4294.166Z" fill="#edd8b2"/>
      <path id="Path_4485" data-name="Path 4485" d="M1176.944,4304.128a1.284,1.284,0,0,0-2.123-.561,5.832,5.832,0,0,0-1.3,1.859,6.167,6.167,0,0,0-.941,3.058c.092,1.1,1.345,2.169,2.435,1.4C1176.646,4308.728,1177.327,4306.035,1176.944,4304.128Z" fill="#edd8b2"/>
      <path id="Path_4486" data-name="Path 4486" d="M1169.867,4306.691a1.113,1.113,0,0,0-1.632-.665c-.414.317-.333.228-.719.551a4.767,4.767,0,0,0-.811,1.262,4.312,4.312,0,0,0-.846,3.065,1.547,1.547,0,0,0,2.25.914,3.89,3.89,0,0,0,1.614-2.707A5.231,5.231,0,0,0,1169.867,4306.691Z" fill="#edd8b2"/>
      <path id="Path_4487" data-name="Path 4487" d="M1171.958,4313.9a1.132,1.132,0,0,0-1.683-.964,7.762,7.762,0,0,0-1.982,1.861c-.756.935-1.47,1.6-1.28,2.9a1.449,1.449,0,0,0,1.387,1.056c1.226.115,1.974-1,2.6-1.87A4.778,4.778,0,0,0,1171.958,4313.9Z" fill="#edd8b2"/>
      <g id="Group_1369" data-name="Group 1369">
        <path id="Path_4488" data-name="Path 4488" d="M1127.869,4125.138c-4.262-3.506-10.244-4.069-15.424-2.652a13.516,13.516,0,0,0-10.159,11.046,20,20,0,0,0-.058,4.981,11.49,11.49,0,0,0,.128,1.66c1.04,6.619,11.674,15.167,17.679,9.079a1.3,1.3,0,0,0-.913-2.2c-2.407-.287-4.521-.3-6.744-1.426a11.612,11.612,0,0,1-5.262-5.951c-.077-.2-.142-.4-.2-.6a13.327,13.327,0,0,1-.135-3.311,12.257,12.257,0,0,1,1.576-4.036c1.456-2.47,3.828-3.573,6.224-4.837a12.822,12.822,0,0,1,9.28,1.264c5.232,2.969,4.078,8.878,4.312,13.9.033.724,1.036,1.331,1.58.654A12.847,12.847,0,0,0,1127.869,4125.138Z" fill="#e4c799"/>
        <g id="Group_1368" data-name="Group 1368">
          <path id="Path_4489" data-name="Path 4489" d="M1130.77,4138.442a12.335,12.335,0,1,1-12.33-12.71A12.524,12.524,0,0,1,1130.77,4138.442Z" fill="#fff"/>
          <path id="Path_4490" data-name="Path 4490" d="M1128.448,4140.5a9.741,9.741,0,1,1-9.728-10.266A10.008,10.008,0,0,1,1128.448,4140.5Z"/>
          <path id="Path_4491" data-name="Path 4491" d="M1118.7,4135.875a4.049,4.049,0,1,1-4.044-4.269A4.163,4.163,0,0,1,1118.7,4135.875Z" fill="#fff"/>
        </g>
      </g>
      <g id="Group_1371" data-name="Group 1371">
        <path id="Path_4492" data-name="Path 4492" d="M1194.106,4124.1c-5.659-2.223-13.487-.377-17.19,4.562a13.924,13.924,0,0,0-2.531,9.74c.2,2.3,1.077,6.141,3.769,6.638a.644.644,0,0,0,.8-.607c.2-1.977-.847-3.993-.864-6.031a11.251,11.251,0,0,1,2.392-6.994c2.782-3.324,7.719-3.971,11.635-2.79a10.819,10.819,0,0,1,7.3,9.595c.436,5.077-2.742,7.272-5.831,10.646a.491.491,0,0,0,.345.831,10.523,10.523,0,0,0,10.555-10.642C1204.654,4132.221,1200.285,4126.533,1194.106,4124.1Z" fill="#e4c799"/>
        <g id="Group_1370" data-name="Group 1370">
          <path id="Path_4493" data-name="Path 4493" d="M1201.561,4139.092a12.335,12.335,0,1,1-12.33-12.708A12.524,12.524,0,0,1,1201.561,4139.092Z" fill="#fff"/>
          <path id="Path_4494" data-name="Path 4494" d="M1199.237,4141.154a9.741,9.741,0,1,1-9.726-10.267A10.008,10.008,0,0,1,1199.237,4141.154Z"/>
          <path id="Path_4495" data-name="Path 4495" d="M1189.492,4136.526a4.05,4.05,0,1,1-4.044-4.269A4.162,4.162,0,0,1,1189.492,4136.526Z" fill="#fff"/>
        </g>
      </g>
      <path id="Path_4496" data-name="Path 4496" d="M1124.977,4162.271c0,5.362-5.389,9.707-12.035,9.707s-12.034-4.345-12.034-9.707,5.388-9.7,12.034-9.7S1124.977,4156.911,1124.977,4162.271Z" fill="#ffb7b7"/>
      <path id="Path_4497" data-name="Path 4497" d="M1205.318,4162.923c0,5.359-5.388,9.706-12.036,9.706s-12.033-4.347-12.033-9.706,5.388-9.705,12.033-9.705S1205.318,4157.562,1205.318,4162.923Z" fill="#ffb7b7"/>
      <path id="Path_4498" data-name="Path 4498" d="M1201.143,4241.945a93.659,93.659,0,0,0-4.293-17.658c-.716-2.819-10.667-37.934-10.295-31.006-2.151-2.246-16.241-1.1-17.821,2.742,12.681,6.855,15.637,29.08,15.577,32.889,1.449,12.2,2.934,22.381,3.282,33.244a4.241,4.241,0,0,0-1.655,2.7,10.2,10.2,0,0,0-.121,4.108,2.277,2.277,0,0,0,1.8,1.745,151.27,151.27,0,0,1-2.1,20.923,2.479,2.479,0,0,0-1.252-.025c-1.356.293-1.9,1.673-2.12,2.883a5.487,5.487,0,0,0,.2,3.779,2.349,2.349,0,0,0,1.691,1.212c-.075.36-.147.713-.224,1.076-5.141,11.653-8.845,13.179-14.492,17.465-6.272,4.762-45.32,8.457-57.465.434-1.3,3.47,12.269,8.42,13.041,8.825,6.9,3.622,16.473,3.966,24.094,3.651a47.483,47.483,0,0,0,10.432-1.582c1.9-.18,3.787-.4,5.638-.644a73.846,73.846,0,0,0,17.91-4.425c11.822-4.738,19.762-14.168,21.943-26.778C1208.087,4279.155,1204.083,4260.085,1201.143,4241.945Z" fill="#edd8b2"/>
      <path id="Path_4499" data-name="Path 4499" d="M1107.57,4317.072c-1.992-1.761-12.75-13.319-15.72-40.279-.4-2.738-3.427-32.9,24.448-83.625-1.659-1.462-10-4.114-11.88-5.257-1.817-1.1-7.69,2.965-9.69,4.027a.723.723,0,0,0-.2.16c-14.172,7.3-25.493,17.716-35,30.412a83.871,83.871,0,0,0-12.34,22.377c-1.477,4.177-2.478,8.5-4.007,12.657-1.346,3.662-2.874,7.457-2.831,11.414.045,3.74,1.185,8.78,5.876,8.126,2.286-.321,3.975-2.812,5.156-4.532,1.924-2.8,3.278-5.971,4.939-8.924a159.449,159.449,0,0,1,15.571-22.088,114.006,114.006,0,0,1,8.612-9.167c1.393-1.36,2.87-2.658,4.313-3.99a92.6,92.6,0,0,0-11.042,37.7,69.236,69.236,0,0,0,1.7,21.581c.52,2.17,1.15,4.72,2.007,7.251a44.726,44.726,0,0,0,5.709,12.447c2.885,4.35,7.005,7.515,11.378,10.258a54.788,54.788,0,0,0,17.192,7.414C1113.095,4325.308,1117.21,4326.373,1107.57,4317.072Z" fill="#412644"/>
      <path id="Path_4500" data-name="Path 4500" d="M1209.376,4219.161c-1.76-4.642-3.392-9.33-4.807-14.086-4.359,1.615-7.171,2.089-10.587,4.773-.608.479,6.338,27.756,7.592,32.835a142.008,142.008,0,0,1,2.994,16.123c.277,2.178.374,4.414.516,6.645-.126,9.42,1.04,18.879.416,28.318-3.751,20.493-18.088,28.287-21.521,30.293-.847.5-.539,2.017.522,1.931.548-.043,1.085-.11,1.613-.189,4.241.983,9.01-1.791,12.436-3.929a55.417,55.417,0,0,0,11.94-10.15c3.744-4.2,13.879-11.4,11.164-46.847C1220.242,4255.524,1209.518,4225.156,1209.376,4219.161Z" fill="#412644"/>
      <path id="Path_4501" data-name="Path 4501" d="M1097.79,4190.884c-3.279,1.4-15,9.241-17.729,11.474a115.774,115.774,0,0,0-12.748,12.261,121.688,121.688,0,0,0-18.255,27.035,86.431,86.431,0,0,0-5.831,14.959c-1.388,4.848-3.007,11.035-1.489,16.018a9.588,9.588,0,0,0,1.349,4.578,1.428,1.428,0,0,0,2.642-.717c.139-3.055-.419-5.833.151-8.93a46.7,46.7,0,0,1,3.674-10.733,151.32,151.32,0,0,1,9.6-17.149c17.848-26.178,52.464-45.946,52.349-46.283C1115.607,4187.343,1105.087,4187.761,1097.79,4190.884Z" fill="#5b3660"/>
      <path id="Path_4502" data-name="Path 4502" d="M1112.881,4323.375c-.227-1.4-1.649-2-2.657-2.837-.7-.583-1.357-1.207-2-1.853a31.161,31.161,0,0,0-3.235-3.656,37.025,37.025,0,0,0-3.853-4.665c-1.968-2.865-4.314-5.449-6.228-8.366a57.874,57.874,0,0,1-5.112-9.757c-2.851-6.955-4.043-14.5-4.5-21.965-.535-8.765.432-17.364,1.629-26.032.967-6.993,4.113-14.555,2.8-21.657a.729.729,0,0,0-1.028-.583.876.876,0,0,0-1.345.315c-2.346,4.181-3.883,8.937-5.461,13.447-1.857,5.3-3.571,10.651-5.04,16.075-2.83,10.443-4.44,21.434-3.086,32.231a49.751,49.751,0,0,0,12.38,27.082c5.418,6.037,14.127,11.708,22.5,12.552,1.184.9,2.412,1.408,3.49.974A1.1,1.1,0,0,0,1112.881,4323.375Z" fill="#5b3660"/>
      <path id="Path_4503" data-name="Path 4503" d="M1215.585,4230.544c-1.393-1.357-2.87-2.659-4.313-3.988.579,1.039,1.128,2.1,1.662,3.161-5.669-6-11.925-11.51-16.557-18.406-3.036-4.522-6.636-11.172-6.07-17.02,1.536-1.216,5.96-1.123,11.056-4.181a.794.794,0,0,1,.2.16c14.171,7.305,25.493,17.717,35,30.412a83.965,83.965,0,0,1,12.34,22.376c1.476,4.177,2.478,8.5,4.006,12.66,1.346,3.658,2.874,7.454,2.83,11.411-.043,3.742-1.184,8.782-5.875,8.127-2.286-.322-3.973-2.812-5.158-4.532-1.92-2.8-3.276-5.97-4.936-8.923a159.307,159.307,0,0,0-15.573-22.089A113.554,113.554,0,0,0,1215.585,4230.544Z" fill="#412644"/>
      <path id="Path_4504" data-name="Path 4504" d="M1164.93,4058.467a1.254,1.254,0,0,0-1.326-.32,9.015,9.015,0,0,0-2.153.872,16.022,16.022,0,0,0-1.979,1.51,11.689,11.689,0,0,0-1.984,2.175,13.248,13.248,0,0,1-.761-3.881,1.419,1.419,0,0,0-1.021-1.256c.165-.548.332-1.1.512-1.635a1.6,1.6,0,0,0-2.662-1.551,13.873,13.873,0,0,0-3.819,8.874c-.735-.695-1.457-1.4-2.123-2.161a1.113,1.113,0,0,0-1.336-.309c-.173-.219-.349-.43-.526-.632-1.668-1.879-5.668-4.088-7.9-1.938a2,2,0,0,0-.51,1.932c.4,1.579,2.225,2.7,3.3,4.006-.092-.111.5.6.518.6.152.24.615,1.056.495.759.047.117.085.235.123.352-8.673-1.058-18.6,4.307-25.6,8.209-10.943,6.107-20.543,13.647-27.547,24.175a92.612,92.612,0,0,0-14.721,40.977,45.62,45.62,0,0,0,3.112,22.228c2.448,5.807,5.867,13.51,11.058,17.318a2.182,2.182,0,0,0,2.524-.175c4.923,5.982,11.13,10.829,18.258,12.628,1.384.347,2.386-1.749,1-2.379a48.605,48.605,0,0,1-19.7-16.516c-1.426-3.342-3.658-6.5-5.407-9.669q-.5-1.159-.954-2.345c-4.933-12.932-2.213-27.032,3.056-39.441a84.228,84.228,0,0,1,51.822-46.772,10.976,10.976,0,0,0,2.931-.859c2.353-.646,4.736-1.193,7.146-1.622.81-.144.854-1.229.348-1.68a9.439,9.439,0,0,0,.386-3.248,36.508,36.508,0,0,1,2.626,2.681,1.354,1.354,0,0,0,2.123-.275,23.952,23.952,0,0,0,1.343-3.932,17.816,17.816,0,0,0,1.818,3.012,1.361,1.361,0,0,0,2.1.272c2.684-2.642,5.657-5.176,7.46-8.535A1.261,1.261,0,0,0,1164.93,4058.467Z" fill="#5b3660"/>
      <path id="Path_4505" data-name="Path 4505" d="M1124.518,4084.155c.143.026.286.053.429.076a4.92,4.92,0,0,0-.724-.089,2.97,2.97,0,0,0-1.007.195,5.389,5.389,0,0,0-1.489.837c-.833.6-2.025,1.46-2.245,2.527a2.2,2.2,0,0,0,1.516,2.671,4.691,4.691,0,0,0,3.257-.871c.31-.166.6-.384.894-.579a3.966,3.966,0,0,0,.771-.681,1.571,1.571,0,0,0,.42-.584q.425-1.028.087-.173A2.224,2.224,0,0,0,1124.518,4084.155Z" fill="#5b3660"/>
      <path id="Path_4506" data-name="Path 4506" d="M1135.976,4075.839c-2.13.13-5.211,1.6-6.186,3.6a1.918,1.918,0,0,0,2.145,2.789,16.357,16.357,0,0,0,2.439-.956,23.835,23.835,0,0,0,2.727-1.277C1138.944,4078.914,1138.247,4075.7,1135.976,4075.839Z" fill="#5b3660"/>
      <path id="Path_4507" data-name="Path 4507" d="M1135.4,4083.815a10.762,10.762,0,0,0-3.293,1.075,8.389,8.389,0,0,0-2.218,1.918,1.8,1.8,0,0,0,1.26,3.04c-.14-.019.786.132.973.138a6.371,6.371,0,0,0,1.683-.334c.3-.106.59-.224.876-.355s.357-.162.212-.092c.594-.24,1.2-.421,1.774-.712C1138.8,4087.409,1137.9,4083.515,1135.4,4083.815Z" fill="#5b3660"/>
      <path id="Path_4508" data-name="Path 4508" d="M1148.777,4075.84a2.978,2.978,0,0,0-3.313-1.348,6.733,6.733,0,0,0-4.113,2.986,2.161,2.161,0,0,0-.488,2.047,2.3,2.3,0,0,0,2.337,1.658,7.048,7.048,0,0,0,5.12-1.787A2.923,2.923,0,0,0,1148.777,4075.84Z" fill="#5b3660"/>
      <path id="Path_4509" data-name="Path 4509" d="M1114.058,4092.822a2.379,2.379,0,0,0-3.286,0c-.592.459-1.83,1.188-2.551,1.847-1.013.93-2.294,2.043-2.495,3.482a2.53,2.53,0,0,0,.616,2.33,2.364,2.364,0,0,0,2.329.614,9.074,9.074,0,0,0,3.151-2.4,27.039,27.039,0,0,0,2.236-2.583A2.377,2.377,0,0,0,1114.058,4092.822Z" fill="#5b3660"/>
      <path id="Path_4510" data-name="Path 4510" d="M1253.842,4251.4a101.6,101.6,0,0,0-12.324-25.133,114.058,114.058,0,0,0-17.725-20.706,88.437,88.437,0,0,0-10.441-8.123c-3.045-2.036-7.132-4.519-10.916-4.418-1.991.051-3.855,2.489-2.493,4.343,1.929,2.621,5.052,4.486,7.681,6.368a95.3,95.3,0,0,1,9.1,7.532,115.8,115.8,0,0,1,16.888,19.626,100.809,100.809,0,0,1,11.736,21.86c2.57,6.958,2.993,15.05,6.629,21.531a1.384,1.384,0,0,0,2.363,0C1258.728,4267.69,1256.078,4258.317,1253.842,4251.4Z" fill="#5b3660"/>
      <path id="Path_4511" data-name="Path 4511" d="M1238.558,4222.064a98.609,98.609,0,0,0-16.96-19.535,120.133,120.133,0,0,0-9.9-7.574c-1.417-.976-2.8-2.029-4.193-3.062,10.187-3.921,18.493-12.488,23.757-21.828,6.255-11.1,6.194-23.794,4.529-36.16-2.07-15.382-17.684-60.7-69.4-69.962,1.321-2.737,2.562-5.53,3.949-8.231a1.448,1.448,0,0,0-1.621-2.107c-4.159,1.288-7.186,4.074-10.555,6.591a18.4,18.4,0,0,1-.748-7.811c.177-1.691-1.964-2.1-3-1.243a14.836,14.836,0,0,0-5.053,11.308c-2.167-4.855-9.041-6.86-14.087-6.58a1.738,1.738,0,0,0-1.484,2.587c.926,1.58,1.954,3.091,2.967,4.616.451.677.843,1.388,1.235,2.095a34.629,34.629,0,0,0-7.6,1.4c-4.729,1.168-26.559,10.322-39.279,25.39-8.035,8.457-13.487,19.544-16.689,30.666a70.5,70.5,0,0,0-1.491,34.43,47.422,47.422,0,0,0,6.29,15.266c8.97,13.767,16.983,16.216,17.761,16.651a79.6,79.6,0,0,0-22.494,15.388,98.614,98.614,0,0,0-16.96,19.537c-9.685,14.143-18,30.527-18.083,48.046-.018,3.9,1.855,9.649,6.876,7.335,5.461-2.519,8.739-10.079,11.741-14.844,4.662-7.4,9.455-14.737,14.716-21.732,2.038-2.712,4.223-5.306,6.411-7.9-4.688,12.978-7.46,27-7.123,40.748.329,13.37,4.052,28.448,13.446,38.406,3.773,4,8.646,6.827,13.558,9.171,4.377,2.09,9.388,4.644,14.281,5.511,5.05,2.188,10.568,3.051,16.222,3.535,8.793.758,17.788.722,26.612.656a115.86,115.86,0,0,0,26.624-3.093,67.835,67.835,0,0,0,8.915-2.812,46.647,46.647,0,0,0,22.048-14.326c7.949-9.5,11.43-25.634,10.733-37.729-.474-8.223-3.8-27.32-12.869-47.8,1.074,1.072,2.124,2.166,3.095,3.332,2.891,3.464,5.861,6.865,8.574,10.472,5.261,7,10.053,14.33,14.716,21.733,3,4.766,6.279,12.324,11.739,14.845,5.021,2.314,6.9-3.435,6.877-7.337C1256.56,4252.594,1248.243,4236.206,1238.558,4222.064Zm-61.726,104.043a119.072,119.072,0,0,1-19.668,1.9c-7.8.155-24.187,1.341-28.892-.655-12.787-3.618-18.444-9.361-24.312-18.8-6.914-11.115-9.236-25.488-9.118-38.436.207-22.8,13.573-69.635,25.226-76.49a1.7,1.7,0,0,0-1.181-2.081c-13.653-2.962-27.427-17.788-31.72-30.135a46.6,46.6,0,0,1,9.293-46.624c8.286-6.968,19.741-9.778,30.192-6.028,6.073,2.18,10.827,7.035,13.748,12.67,3.332,6.432,3.315,14.832,3.009,21.816-.094,2.143,3.093,2.359,3.534.478,3.513-15.007-3.1-30.078-13.012-36.276-11.158-6.981-25.7-5.646-36.313,1.344-16.964,12.865-19.609,36.875-14.906,51.705,4.068,12.835,15.764,29.476,32.215,33.131-9.825,11.424-14.483,27.885-18.327,39.569a113.837,113.837,0,0,0-6.076,40.26c1.326,27.328,13.876,45.146,17.232,48.08-1.851-.772-3.716-1.488-5.439-2.283a45.124,45.124,0,0,1-13.3-8.8c-9.8-9.784-12.348-26.254-12.172-39.471.19-14.325,4.147-28.537,9.2-41.843.37-.974.749-1.944,1.125-2.917,1.079-1.057,2.144-2.125,3.146-3.253a1.439,1.439,0,0,0-1.738-2.25c-6.2,3.588-11.487,9.477-15.995,14.955a214.056,214.056,0,0,0-13.144,18.182c-4,6.066-7.526,12.713-12.121,18.351a14.066,14.066,0,0,1-2.227,2.282,2.277,2.277,0,0,1-.671.387c-1.028-1.691-.043-6.573.1-8.037,1.618-16,9.554-30.5,18.587-43.537a103.974,103.974,0,0,1,15.823-17.6c4.684-4.267,19.537-15.736,28.219-15.736,7.311-.229-.845-1.518-.914-1.6-15.08-3.657-27.068-24.424-28.606-32-2.566-10.4-1.711-21.559.929-31.846a73.077,73.077,0,0,1,14.9-29.225c11.883-14.51,33.179-23.433,37.273-24.55,4.751-2.32,11.7-2.953,11.635-3.621-.28-2.788-2.08-5.3-3.787-7.7,4.1.559,8.108,2.662,9.7,6.635.536,1.929,3.137,1.386,3.488-.426.772-2.782,1.335-6.4,2.47-8.922a26.4,26.4,0,0,0,1.7,6.915,1.665,1.665,0,0,0,2.282.6c2.362-1.688,4.467-3.825,6.828-5.53a22.455,22.455,0,0,0-3.116,7.14c-.335,1.679,1.41,2.694,4.338,1.719,30.576,6.071,44.452,24.72,48.357,30.141,7.223,10.033,13.055,21.457,15.9,33.407,2.758,11.583,2.775,23.943-2.5,34.8a42.55,42.55,0,0,1-3.838,6.369,46.689,46.689,0,0,0,3.35-19.725c-.527-13.68-4.7-27.882-13.423-38.593a28.831,28.831,0,0,0-35.874-7.758c-11.877,5.848-16.737,15.462-14.45,39.2.269,1.36,2.393,1.889,2.376.546-.217-16.805,2.276-29.5,13.456-35.725,11.414-6.36,23.99-1.929,31.749,7.612,7.553,9.286,10.73,22.11,11.506,33.82a47.738,47.738,0,0,1-2.206,18.282c-7.738,19.34-29.38,22.667-33.6,24.069-.578.191-.679,1.7-.679,1.7,11.916,26.011,17.059,68.862,17.856,79.624.761,10.219-.759,21.141-5.21,30.583A37.425,37.425,0,0,1,1176.832,4326.107Zm71.937-55.725c-4.6-5.639-8.12-12.286-12.124-18.353a213.451,213.451,0,0,0-13.143-18.181c-3.992-4.852-16.184-16.255-16.469-15.135a1.457,1.457,0,0,0-1.262,2.428c.677.765,6.554,15.843,6.7,16.645,2.247,12.063,15.319,46.891,0,68.633-2.616,3.882-12.648,13.113-23.514,17a36.615,36.615,0,0,0,11.816-11.077c6.623-9.507,8.029-24.373,7.371-35.547-.67-11.368-1.371-37.929-17.822-81.111,2.742-.458,12.892-3.045,13.024-2.971,5.027,4.112,9.118,6.9,13.8,11.168a103.966,103.966,0,0,1,15.822,17.6c9.032,13.029,16.969,27.535,18.586,43.537C1253.158,4276.107,1249.426,4271.188,1248.769,4270.382Z" fill="#2d1630"/>
      <g id="Group_1372" data-name="Group 1372">
        <path id="Path_4512" data-name="Path 4512" d="M1164.23,4147.954c-2.727-2.642-6.617-3.795-10.325-4.068-3.11-.228-8.46.773-9.289,4.379a.921.921,0,0,0,.74,1.113c.889,1.753,2.847,3.3,4.175,4.646,1.557,1.585,3.616,3.263,5.974,2.94,3.11-.426,7.017-3.5,8.431-6.483A1.541,1.541,0,0,0,1164.23,4147.954Z" fill="#ffcc30"/>
        <path id="Path_4513" data-name="Path 4513" d="M1157.165,4141.477c-5.512-.768-12.238,1.2-15.692,5.721-.829,1.085.192,2.229,1.3,2.36a16.38,16.38,0,0,0,2.888,3.49,22.881,22.881,0,0,0,8.664,5.981c2.92,1,5.78-.943,7.836-2.8a46.574,46.574,0,0,0,3.656-4.1c.273-.312.573-.592.867-.867.054.016.1.045.158.06a1.181,1.181,0,0,0,1.45-.823C1169.118,4145.263,1161.248,4142.048,1157.165,4141.477Zm-2.885,12.945c-2.813-1.337-5.181-3.614-7.54-5.6-.133-.114-.389-.356-.711-.639,3.092-1.6,5.95-2.837,9.794-2.705a12.462,12.462,0,0,1,6.349,2.2,8.519,8.519,0,0,1,1.332,1.129C1160.664,4151.247,1157.767,4156.081,1154.28,4154.422Z" fill="#b4500b"/>
      </g>
      <path id="Path_4514" data-name="Path 4514" d="M1183.32,4278.2c-1.3.362-1.761,1.679-1.876,2.893a15.325,15.325,0,0,0-.207,2.683,2.366,2.366,0,0,0,4.625.625C1186.57,4282.608,1186.468,4277.323,1183.32,4278.2Z" fill="#edd8b2"/>
      <path id="Path_4515" data-name="Path 4515" d="M1178.3,4281.262a1.583,1.583,0,0,0-2.686,0,5.661,5.661,0,0,0-.78,4.852,2.221,2.221,0,0,0,4.246,0A5.651,5.651,0,0,0,1178.3,4281.262Z" fill="#edd8b2"/>
      <path id="Path_4516" data-name="Path 4516" d="M1182.79,4267.534a1.626,1.626,0,0,0-2.751,0c-.934,1.221-.979,2.771-1.263,4.218a2.529,2.529,0,0,0,.647,2.444c.054.046.107.089.16.134a2.211,2.211,0,0,0,2.143.567l.141-.053a2.644,2.644,0,0,0,1.843-2.424A6.9,6.9,0,0,0,1182.79,4267.534Z" fill="#edd8b2"/>
      <path id="Path_4517" data-name="Path 4517" d="M1187.151,4255.289a6.946,6.946,0,0,0-.869-3.216,1.682,1.682,0,0,0-2.882,0,7.644,7.644,0,0,0-.867,3.216,5.76,5.76,0,0,0,.463,3.452,2.162,2.162,0,0,0,3.693,0A6.07,6.07,0,0,0,1187.151,4255.289Z" fill="#edd8b2"/>
      <path id="Path_4518" data-name="Path 4518" d="M1179.02,4253.826a1.614,1.614,0,0,0-2.752,0c-.97,1.488-1.1,3.818-.994,5.548a2.372,2.372,0,0,0,4.741,0C1180.12,4257.644,1179.991,4255.314,1179.02,4253.826Z" fill="#edd8b2"/>
      <path id="Path_4519" data-name="Path 4519" d="M1183.24,4242.13a1.911,1.911,0,0,0-3.652,0c-.514,1.374-.921,3.757.029,5.036a2.123,2.123,0,0,0,3.6,0C1184.162,4245.887,1183.755,4243.5,1183.24,4242.13Z" fill="#edd8b2"/>
      <path id="Path_4520" data-name="Path 4520" d="M1176.8,4268.115a1.826,1.826,0,0,0-3.108,0,4.933,4.933,0,0,0-.544,1.213,4.845,4.845,0,0,0-.2,1.017c.064-.493-.055.225-.063.264-.027.207-.056.412-.083.619.054-.372.035-.223-.057.438a2.218,2.218,0,0,0,.67,1.617,2.325,2.325,0,0,0,2.226.59,2.277,2.277,0,0,0,1.6-1.6A5.007,5.007,0,0,0,1176.8,4268.115Z" fill="#edd8b2"/>
      <path id="Path_4521" data-name="Path 4521" d="M1182.918,4229.023a6.457,6.457,0,0,0-.579-1.8,1.872,1.872,0,0,0-3.219,0,6.425,6.425,0,0,0-.579,1.8,5.289,5.289,0,0,0,.073,2.264,2.209,2.209,0,0,0,4.23,0A5.289,5.289,0,0,0,1182.918,4229.023Z" fill="#edd8b2"/>
      <path id="Path_4522" data-name="Path 4522" d="M1162.361,4314.112c-.083.057-.171.109-.259.159l-.053.014a7.168,7.168,0,0,0-.989.361l-.061.026c-.211.081-.418.164-.623.256a2.534,2.534,0,0,0-1.124,1.007,1.9,1.9,0,0,0,1.12,2.756,3.721,3.721,0,0,0,2.75-.516,4.99,4.99,0,0,0,1.649-1.654C1165.83,4315.077,1163.788,4313.191,1162.361,4314.112Z" fill="#edd8b2"/>
      <path id="Path_4523" data-name="Path 4523" d="M1166.414,4298.734a1.618,1.618,0,0,0-.124-.65l-.177-.416c-.284-.392-.357-.479-.213-.259a1.474,1.474,0,0,0-2.345-.234,2.692,2.692,0,0,0-.553.638c-.066.152-.109.255-.141.329a4.858,4.858,0,0,1-.23.449,3.139,3.139,0,0,0-.266,3.063,1.925,1.925,0,0,0,2.6.681c1.017-.466,1.328-1.714,1.445-2.724A4.5,4.5,0,0,0,1166.414,4298.734Z" fill="#edd8b2"/>
      <path id="Path_4524" data-name="Path 4524" d="M1170.231,4279.65a1.316,1.316,0,0,0-2.077-.381c-1.509.82-1.82,3.935-1.02,5.173a1.878,1.878,0,0,0,3.2,0,4.676,4.676,0,0,0,.422-2.525A3.426,3.426,0,0,0,1170.231,4279.65Z" fill="#edd8b2"/>
      <path id="Path_4525" data-name="Path 4525" d="M1171.353,4259.675a1.661,1.661,0,0,0-3.182,0,2.948,2.948,0,0,0,.213,2.332,1.6,1.6,0,0,0,2.756,0A2.944,2.944,0,0,0,1171.353,4259.675Z" fill="#edd8b2"/>
    </g>
  </g>
</svg>
