<svg xmlns="http://www.w3.org/2000/svg" width="237.75" height="233.57" viewBox="0 0 237.75 233.57">
  <g id="Group_281" data-name="Group 281" transform="translate(-403.366 -2893.935)">
    <g id="Group_280" data-name="Group 280">
      <g id="Group_279" data-name="Group 279">
        <g id="Group_278" data-name="Group 278">
          <path id="Path_493" data-name="Path 493" d="M568.954,3029.135c-17.56-5.475-36.5-4.905-54.632-6.708a239.76,239.76,0,0,0-28.892-.9c-7.466.161-15.572.085-22.856,1.912a16,16,0,0,0-5.909,2.713c-6.474,1.915-10.474,8.987-12.4,15.088a28.326,28.326,0,0,0-1.087,5.177,15.175,15.175,0,0,0-.438-2.7c-1.451-5.4-8.978-7.231-13.633-7.979-11.476-1.849-25.335,3.581-23.585,17.311,1.694,13.294,14.294,24.573,26.111,29.33,4.854,1.955,10.312,1.7,13.427-2.91,2.586-3.827,2.1-9.51,1.558-13.889.134.278.28.55.425.823a12.134,12.134,0,0,0,.549,2.492,26.961,26.961,0,0,0,3.845,7.118,45.5,45.5,0,0,0,13.151,11.839,56.441,56.441,0,0,0,16.885,6.853c3.82.885,8.393,2.057,12.263,1,6.144.825,12.476.49,18.653.672,7.79.234,15.481.387,23.273.161,6.885-.2,13.783-.279,20.636-1.013a65.241,65.241,0,0,0,10.4-1.942,22.85,22.85,0,0,0,4.788-1.994,7.4,7.4,0,0,0,1.821-1.512c4.148-2.377,7.214-7.113,9.425-11.055a44.04,44.04,0,0,0,5.62-18.816C589.183,3046.521,582.456,3033.347,568.954,3029.135Z" fill="#8db73e"/>
          <path id="Path_494" data-name="Path 494" d="M628.835,3046.237c-3.9-3.678-9.822-4.36-14.927-4.13a43.98,43.98,0,0,0-12.929,2.714,17.454,17.454,0,0,0-9.145,6.669,1.56,1.56,0,0,0,.661,2.391c-.785,2.466-1.41,5-2.114,7.482a63.93,63.93,0,0,0-2.56,14.529c-.173,4.137.747,8.735,4.332,11.253,3.949,2.766,9.39,1.554,13.578.053,11.231-4.023,23.16-13.484,26.7-25.238C634.028,3056.62,632.984,3050.153,628.835,3046.237Z" fill="#8db73e"/>
          <path id="Path_495" data-name="Path 495" d="M611.01,2924.488c0,14.223-11.893,25.752-26.561,25.752s-26.563-11.529-26.563-25.752,11.893-25.75,26.563-25.75S611.01,2910.266,611.01,2924.488Z" fill="#fff"/>
          <path id="Path_496" data-name="Path 496" d="M607.562,2971.5c-1.293-9.47-10.785-18.546-19.693-21.155a1.171,1.171,0,0,0-1.114.3,24.406,24.406,0,0,0-2.815-1.288,184.174,184.174,0,0,0-25.629-7.519,147.311,147.311,0,0,0-25.727-2.877c-9.22-.336-18.541-.472-27.755.09a168.745,168.745,0,0,0-26.63,4.116,180.935,180.935,0,0,0-26.47,7.7c-6.949,2.709-13.335,6.384-20.036,9.595-4.893,2.339-10.446,4.83-12.438,10.186a20.807,20.807,0,0,0-2.808,3.935,24.106,24.106,0,0,0-2,17.376c1.464,5.444,5.364,9.721,9.722,13.067,9.275,7.133,21.667,10.04,32.908,12.271a231.415,231.415,0,0,0,26.114,3.509c4.219.348,8.438.522,12.67.464.3,0,.61-.022.91-.036,2.392.318,4.784.6,7.181.783a215.366,215.366,0,0,0,36.723-.029c11.191-1.068,22.507-3.109,33.016-7.194a50.072,50.072,0,0,0,12.7-7.035c.038-.032.076-.064.113-.093a54.968,54.968,0,0,0,10.441-7.746C604.511,2992.705,608.988,2981.941,607.562,2971.5Z" fill="#b7ce44"/>
          <path id="Path_497" data-name="Path 497" d="M612.293,2918.741c-1.244-7.963-4.709-18.053-12.583-21.274-3.924-1.6-14.309-5.064-28.4,4.933a.571.571,0,0,0,.263.648c19.367-4.34,30.213,9.414,30.907,15.528.7,6.2,1.04,14.905-2.463,20.085-1.961,2.9-7.848,9.282-23.255,8.154,13.1,6.513,17.516,3.18,19.4,2.578a25.951,25.951,0,0,0,11.371-7.285C612.994,2935.7,613.534,2926.7,612.293,2918.741Z" fill="#b0d9ee"/>
          <path id="Path_498" data-name="Path 498" d="M624.978,2976.4a39.66,39.66,0,0,0-11.3-14.9c-3.114-2.641-6.664-6.258-10.842-7.131a41.179,41.179,0,0,0,8.149-3.025c5.044-2.485,12.639-11.27,8.914-17.09a1.845,1.845,0,0,0-2.488-.652c-2.163,1.245-3.3,3.129-4.776,5.083a59.632,59.632,0,0,1-5.757,6.051,15.131,15.131,0,0,1-6.169,4.1c-2.262.724-4.681.259-6.6,1.806a.711.711,0,0,0-.2.654c-.07,0-.135.007-.2.013a.477.477,0,0,0-.406.709c1.12,2.16,2.847,3.614,4.318,5.52a31.284,31.284,0,0,1,4.182,7.277,36.76,36.76,0,0,1,2.7,16.5c-.819,11.621-8.718,21.3-18.109,26.433-12.665,6.915-27.758,13.883-88.511,11.625-9.889-1-19.719-2.234-29.628-3.078a116.954,116.954,0,0,1-26.927-5.565,104.849,104.849,0,0,1-20.524-9.608c-.51-.454-1.015-.914-1.509-1.386a.508.508,0,0,0-.861.357c.668,7.982,7.79,13.1,14.344,16.623a110.612,110.612,0,0,0,27,9.7,183.23,183.23,0,0,0,32.066,4.381c5.588.3,32.966,1.542,40.321,1.775,10.18.323,51.615-6.1,56.443-7.876,9.557-3.507,20.562-6.263,27.282-14.094C623.72,3001.471,629.89,2988.348,624.978,2976.4Z" fill="#76a340"/>
          <path id="Path_499" data-name="Path 499" d="M485.2,2926.5c0,14.213-12.369,24.022-27.626,24.022s-27.622-9.809-27.622-24.022,12.366-25.731,27.622-25.731S485.2,2912.286,485.2,2926.5Z" fill="#fff"/>
          <path id="Path_500" data-name="Path 500" d="M458.569,2897.167a27.735,27.735,0,0,0-16.547,3.048c-8.852,4.539-13.22,14.19-13.984,23.69-.774,9.669,2.32,20.9,10.936,26.23,3.721,2.3,8.524,2.786,12.785,2.415,3.831-.333,12.024-1.3,13.238-5.688-15.356,2.746-22.012-3.853-25.138-8.2-3.64-5.056-4.591-11.453-3.8-17.438,1.187-8.924,7.944-14.545,14.576-16.821,9.466-3.049,18.526-1.633,22.71,2.658C473.2,2900.855,461.86,2897.643,458.569,2897.167Z" fill="#b0d9ee"/>
          <g id="Group_275" data-name="Group 275">
            <path id="Path_501" data-name="Path 501" d="M474.395,2929.172a16.462,16.462,0,1,1-16.461-16.464A16.462,16.462,0,0,1,474.395,2929.172Z" fill="#040707"/>
            <path id="Path_502" data-name="Path 502" d="M455.009,2923.259a5.913,5.913,0,1,1-5.913-5.909A5.913,5.913,0,0,1,455.009,2923.259Z" fill="#fff"/>
          </g>
          <g id="Group_276" data-name="Group 276">
            <path id="Path_503" data-name="Path 503" d="M600.911,2930.4a16.463,16.463,0,1,1-16.462-16.46A16.463,16.463,0,0,1,600.911,2930.4Z" fill="#040707"/>
            <path id="Path_504" data-name="Path 504" d="M581.523,2924.488a5.912,5.912,0,1,1-5.911-5.912A5.911,5.911,0,0,1,581.523,2924.488Z" fill="#fff"/>
          </g>
          <path id="Path_505" data-name="Path 505" d="M466.088,2980.712A12.308,12.308,0,1,1,453.78,2968.4,12.308,12.308,0,0,1,466.088,2980.712Z" fill="#f3a591"/>
          <path id="Path_506" data-name="Path 506" d="M600.911,2979.349a12.309,12.309,0,1,1-12.31-12.306A12.31,12.31,0,0,1,600.911,2979.349Z" fill="#f3a591"/>
          <path id="Path_507" data-name="Path 507" d="M458.1,2973.369c-1.194-2.34-8.415-3.987-7.862.1.177,1.311,1.67,1.771,2.729,2.1.181.046.362.093.54.147-.052-.016.531.2.509.172a15.32,15.32,0,0,0,1.54.8C457.554,2977.381,458.931,2975,458.1,2973.369Z" fill="#fffdfd"/>
          <path id="Path_508" data-name="Path 508" d="M589.973,2969.544a6.749,6.749,0,0,0-6.174,2.846,1.875,1.875,0,0,0,1.6,2.793,6.481,6.481,0,0,0,2.924-.789,9.381,9.381,0,0,0,2.563-1.383A2.087,2.087,0,0,0,589.973,2969.544Z" fill="#fffdfd"/>
          <path id="Path_509" data-name="Path 509" d="M468.676,3085.65c-4.612-6.571-8.1-13.842-8.583-21.949-.362-6.187,1.029-11.082,2.686-17.013,1.285-4.6,3.006-10.21,1.445-14.937-1.966-5.946-8.027-5.827-12.635-3.318-.887.485-3.286,5.89-3.837,7.222-1.81,4.354-1.925,9.458-1.836,14.1a72.094,72.094,0,0,0,1.658,13.939c.7,3.122,5.822,19.478,20.438,22.819C468.474,3086.626,468.99,3086.095,468.676,3085.65Z" fill="#c5d646"/>
          <path id="Path_510" data-name="Path 510" d="M442.442,3047.4a5.636,5.636,0,0,0-.463-.747,3.044,3.044,0,0,0-.682-1.321c-1.336-1.55-3.178-2.53-4.8-3.751a23.517,23.517,0,0,0-4.875-3,26.609,26.609,0,0,0-13.457-1.872,17.956,17.956,0,0,0-10.075,4.432c-2.394,2.091-4.459,6.313-3.307,9.426a2.078,2.078,0,0,0,.634.9,3.515,3.515,0,0,0,.074,1.337c.243.93.855,2.091,2.026,1.825.815-.183,1.145-.7,1.6-1.349a7.955,7.955,0,0,1,2.78-2.729c2.144-1.217,4.919-1.576,7.318-1.978a30.138,30.138,0,0,1,10.839.1c3.492.664,7.427,3.258,10.975,2.2A2.4,2.4,0,0,0,442.442,3047.4Z" fill="#c5d646"/>
          <path id="Path_511" data-name="Path 511" d="M593.546,2953.039c-13.066-4.173-25.181-9.538-31.327-11-7.854-1.863-13.018-4.521-20.971-5.886-4.142-.713-35.463-4.121-56.048,3.635-13.1,3.374-27.392,8.836-39.759,14.336a99.308,99.308,0,0,0-15.422,8.56,48.69,48.69,0,0,0-6.041,4.907c-1.755,1.663-2.675,3.784-3.927,5.8-.338.543.482.991.844.49,1.487-2.063,4.313-3.533,6.43-4.879,2.07-1.317,4.294-2.359,6.466-3.48a169.987,169.987,0,0,1,15.923-7.125c.473-.183.952-.362,1.425-.544a191.321,191.321,0,0,1,61.585-10.842c-1.611,1.729-2.145,4.324-.271,6.294,1.621,1.705,4.273,1.889,6.485,1.863a14.79,14.79,0,0,0,6.529-1.336,3.827,3.827,0,0,0,1.362-5.19,6.021,6.021,0,0,0-1.035-1.392,228.4,228.4,0,0,1,50.5,8.844,136.132,136.132,0,0,1,15.961,5.464C598.121,2964.04,601.557,2960.249,593.546,2953.039Z" fill="#ebe858"/>
          <path id="Path_512" data-name="Path 512" d="M501.83,2952.966c-.122.026-.249.043-.372.064l-.222.022c-.534.06-1.072.092-1.606.128a7.357,7.357,0,0,0-4.507,1.7,3.458,3.458,0,0,0,0,4.892c2.123,1.85,5.166,1.841,7.839,1.554,2.3-.247,4.256-1.75,4.256-4.256C507.218,2954.127,504.516,2952.464,501.83,2952.966Z" fill="#ebe858"/>
          <path id="Path_513" data-name="Path 513" d="M529.5,2960.063a12.854,12.854,0,0,0-5.83-.8c-2.045.036-4.236.063-5.672,1.743a3.591,3.591,0,0,0,0,4.947c1.436,1.68,3.627,1.707,5.672,1.746a12.909,12.909,0,0,0,5.83-.8C532.1,2965.773,532.1,2961.186,529.5,2960.063Z" fill="#ebe858"/>
          <path id="Path_514" data-name="Path 514" d="M550.258,2957.249a3.779,3.779,0,0,0-1.537-2.417,2.442,2.442,0,0,0-.675-1.07,8.474,8.474,0,0,0-1.949-1.224,15.61,15.61,0,0,0-5.165-1.146c-2.71-.214-6.586,1.948-6.206,5.144.362,3.028,2.881,4.456,5.669,4.935a26.892,26.892,0,0,0,6.238.541A3.84,3.84,0,0,0,550.258,2957.249Z" fill="#ebe858"/>
          <path id="Path_515" data-name="Path 515" d="M563.318,2958.066a6.537,6.537,0,0,0-3.992-.989,4.284,4.284,0,0,0-2.788,1.114,3.046,3.046,0,0,0-.883,2.946,4.035,4.035,0,0,0,2.142,2.486,13.511,13.511,0,0,0,1.535.684c-1.285-.468.85.318,1.177.422a3.646,3.646,0,0,0,2.809-6.663Z" fill="#ebe858"/>
          <path id="Path_516" data-name="Path 516" d="M485.094,2954.442c-.934-3.4-6.053-2.276-7.993-.644-1.643,1.382-.535,3.8,1.164,4.413C480.546,2959.029,486.032,2957.848,485.094,2954.442Z" fill="#ebe858"/>
          <path id="Path_517" data-name="Path 517" d="M615.526,3039.946a43.346,43.346,0,0,0-12,2.917c-2.885,1.145-6.9,2.273-8.232,5.411-.48,1.129-.444,2.753.88,3.36,2.652,1.212,5.131.437,7.763-.42,3.1-1.014,6.2-2.009,9.375-2.772a39.881,39.881,0,0,1,9.013-1.5c2.394-.008,5.169,1.67,6.977,3.1.3.237.874.22.957-.251C631.623,3041.918,621.571,3039.4,615.526,3039.946Z" fill="#ebe858"/>
          <path id="Path_518" data-name="Path 518" d="M562.839,3063.79c-.109-4.322-2.257-10.428-4.8-13.1-4.811-5.048-11.523-7.981-18.15-9.739a59.3,59.3,0,0,0-17.635-1.646c-.878-.016-1.72-.02-2.491-.023a56.163,56.163,0,0,0-20.978,3.839c-6.18,2.454-11.937,6.228-15.444,12.016a19.242,19.242,0,0,0-2.706,9.352,12.98,12.98,0,0,0,.1,2.043,19.308,19.308,0,0,0,2.143,11.993c5.3,9.811,18.871,12.527,28.893,13.8a83.145,83.145,0,0,0,19.019.181c7.677-.8,15.917-3.886,22.964-7.425C561.5,3081.2,564.487,3066.8,562.839,3063.79Z" fill="#ebe858"/>
          <path id="Path_519" data-name="Path 519" d="M560.616,3057.748c-1.706,1.266-1.822,3.2-2.831,4.97a22.012,22.012,0,0,1-4.5,5.19,55.015,55.015,0,0,1-12.6,8.459,49.045,49.045,0,0,1-22.537,4.7c-7.9-.078-15.97-1.817-22.7-6.067a25.622,25.622,0,0,1-7.4-7.464c-2.2-3.3-2.826-7.545-3.72-11.332-.2-.839-1.257-.671-1.525,0-2.553,14.111-.07,23.466,4.456,28.795,11.865,17.579,17.1,10.906,22.639,11.114,7.825.287,15.66.055,23.482.358,3.6.142,16.136.557,18.265-3.546C568.993,3077.535,561.3,3057.237,560.616,3057.748Z" fill="#cad43b"/>
          <path id="Path_520" data-name="Path 520" d="M453.136,3038.688c1.492-2.516,3.778-5.424,2.66-8.49a2.1,2.1,0,0,0-3.04-1.24c-2.759,1.668-4.447,5.447-6.125,8.11-2.146,3.4-2.711,7.175-2.958,11.115-.482,7.6,2.231,16.492,7.995,21.649a.713.713,0,0,0,1.182-.688c-1.3-7.1-3.012-13.656-2.744-20.961A18.823,18.823,0,0,1,453.136,3038.688Z" fill="#ebe858"/>
          <path id="Path_521" data-name="Path 521" d="M442.147,3044.843c-4.079-6.562-12.357-9.293-19.716-9.627-3.468-.158-7.181,1.213-10.3,2.608-.7.315-6.62,3.031-4.516,4.668,1.64,1.277,3.9.262,5.786.015,3.053-.409,5.995.16,9.028.388,5.934.447,10.692,3.328,15.973,5.693C440.726,3049.626,443.726,3047.386,442.147,3044.843Z" fill="#ebe858"/>
          <path id="Path_522" data-name="Path 522" d="M621.807,2918.124a23.544,23.544,0,0,0-5.66-10.7A23.986,23.986,0,0,0,612,2904a44.011,44.011,0,0,1-4.737-3.3.457.457,0,0,0-.774.319c-.337,3.1.41,4.813,2.036,7.476,1.821,2.991,4.434,5.06,5.333,8.583a40.9,40.9,0,0,1,1.1,9.75,16.958,16.958,0,0,1-.649,4.562c-.481,1.758-1.682,3.077-1.531,5.013a3.449,3.449,0,0,0,3.4,3.4c4.545-.056,6.4-4.983,6.894-8.814A34.308,34.308,0,0,0,621.807,2918.124Z" fill="#b7ce44"/>
          <path id="Path_523" data-name="Path 523" d="M580.577,2982.594c-6.589,7.086-21.612,10.937-26.2,11.874-9.718,1.988-25.747,4.858-65.883-2.22-7.677-1.959-23.55-6.519-30.373-10.769,6.615,7.858,23.94,13.837,28.355,15.233,12.622,3.992,24.038,5.3,37.175,5.874a121.914,121.914,0,0,0,32.673-2.489c5.11-1.172,21.539-6.307,25.656-16.1A1.034,1.034,0,0,0,580.577,2982.594Z" fill="#689740"/>
          <path id="Path_524" data-name="Path 524" d="M625.495,2985.117c-.013-1.231-.246-2.433-.309-3.662-.075-1.416-1.013-2.462-1.134-3.82a1.111,1.111,0,0,0-2.221,0c-.091.933-.743,1.466-.971,2.319-.314,1.172-.532,2.35-.864,3.524-.637,2.24-1.128,4.537-1.776,6.785a29.867,29.867,0,0,1-6.08,11.494c-6.427,7.457-14.907,12.178-24.16,15.189-10.4,3.385-21.517,5.183-32.309,6.739-5.086.736-10.143,1.49-15.2,2.4-2.741.495-5.489.965-8.261,1.243-2.384.238-5.023,1.093-7.424.9-.58-.049-.614.781-.13.959a47.147,47.147,0,0,0,6.99,2.3,34.813,34.813,0,0,0,7.575.257c5.782-.138,11.648-.447,17.393-1.1,12.094-1.374,24.557-3.258,36.089-7.275,9.958-3.466,19.482-9.322,25.9-17.82a36.09,36.09,0,0,0,6.3-13.448A28.6,28.6,0,0,0,625.495,2985.117Z" fill="#689740"/>
          <path id="Path_525" data-name="Path 525" d="M440.812,2952.993c-.817-1.919-3.14-2.678-4.613-4.05a43.661,43.661,0,0,1-5.078-5.655c-2.809-3.767-3.959-8.463-7.092-11.981a1.56,1.56,0,0,0-2.431.314c-3.3,5.234-.284,11.984,2.855,16.575a18.177,18.177,0,0,0,7.344,6.454c2.376,1.116,5.815,2.793,8.272,1.175A2.137,2.137,0,0,0,440.812,2952.993Z" fill="#76a340"/>
          <path id="Path_526" data-name="Path 526" d="M441.712,2898.94c-1.448-.866-2.935.2-4.215.913-2.3,1.292-4.723,2.347-7.031,3.622-4.356,2.406-7.134,6.186-9.147,10.637a43.11,43.11,0,0,0-3.691,14.51c-.3,3.9.219,11.471,4.964,12.484a3.67,3.67,0,0,0,4.433-2.516c.616-2.172-.408-3.476-1.051-5.42a16.812,16.812,0,0,1-.52-6.265,33.013,33.013,0,0,1,3.395-12.089,26.679,26.679,0,0,1,8.614-9.806C438.336,2904.372,444.257,2900.459,441.712,2898.94Z" fill="#b7ce44"/>
          <path id="Path_527" data-name="Path 527" d="M620.465,3094.548c1.952-.414,5.577-.8,7.106-2.128a.46.46,0,0,0-.2-.76c-.766-.287-5.029-.439-6.26-.626-3.04-.463-6.069-.947-9.115-1.374-2.709-.38-7.391-2.653-6.947-3.181a9.932,9.932,0,0,0,7.684-3.667.8.8,0,0,0-.561-1.349c-2.626-.219-6.028.385-8.441-.791-2.214-1.073-1.807-4.19-1.325-6.1.908-3.6,3.054-6.758,5.076-9.816,1.831-2.764,4.392-5.973,4.442-9.432a1.356,1.356,0,0,0-2.024-1.162c-.786.548-10.059,6.908-12.211,8.481a73.759,73.759,0,0,0-9.131,7.727c.774-1.125,1.507-2.282,2.214-3.442,3.961-6.528,5.846-13.954,3.837-21.452-1.77-6.613-7.324-11.313-13.389-13.945a35.157,35.157,0,0,0-9.4-2.419c-1.564-.206-14.988-.637-17.631.33a.529.529,0,0,0-.124.955c2.205,1.539,5.158,2.13,7.586,3.286a27.025,27.025,0,0,1,6.5,3.991c4.387,3.859,6.427,9.437,7.611,15.011,1.54,7.256-.147,15.262-3,21.979a46.066,46.066,0,0,1-5.343,9.285c-1.159,1.583-5.176,6.451-5.816,7.413-.517.147-1.031.29-1.548.44-2.874.823-9.723,3.119-9.7,3.467-1.867.906-3.837,2.189-4.3,4.28a.933.933,0,0,0,.894,1.168c2.164-.091,4.332-1.172,6.3-2.014.427-.184.879-.391,1.319-.623,3.621,1.061,2.667,5.8,3.2,7.686.331,1.167.873,4.813,2.843,4.1,1.75-.629,2.544-8.583,3.44-10.009.982-1.558,3.594-1.153,4.868-.425.557.316,1.112.687,1.673,1.073.724.905,5.877,5.038,7.528,5.414,1.008.232,2.073-.878,1.421-1.848a14.277,14.277,0,0,0-1.344-1.484c-1.252-2.3-5.1-8.521-5.448-9.524a17.655,17.655,0,0,0,5.364.041c.657-.064,17.664,13.238,20.411,14.846,1.561.914,3.962,2.147,5.819,1.364a.64.64,0,0,0,.433-.769c-.434-1.913-7.548-9.26-7.566-9.293a2.1,2.1,0,0,1,.222-.211,2.715,2.715,0,0,1,.831-.346c2.034.939,10.094,2.823,11.912,3.28a37.774,37.774,0,0,0,5.086.9c2.306.256,6.218.62,8.426-.17.344-.126.513-.672.115-.859-2.153-1.01-17.952-6.678-19.142-7.326a38.818,38.818,0,0,0,5.108.735A36.955,36.955,0,0,0,620.465,3094.548Z" fill="#67953f"/>
          <path id="Path_528" data-name="Path 528" d="M590.693,3036c-2.285-3.753-4.792-7.081-9.052-8.611a9.915,9.915,0,0,0-6.081-.094,26.1,26.1,0,0,0-2.8,1.147c-1.994-.6-3.951-.681-5.382.368a.978.978,0,0,0-.346,1.314c.722,1.222,1.917,1.733,3.1,2.434,1.726,1.009,3.492,1.9,5.176,2.994a30.212,30.212,0,0,1,8.776,9.2,25.922,25.922,0,0,1,3.892,11.387c.375,4.159-.961,7.9-2.289,11.787-.2.574.49.992.965.739a12.6,12.6,0,0,0,6.452-8.242C597.2,3052.539,595.275,3043.525,590.693,3036Z" fill="#618443"/>
          <path id="Path_529" data-name="Path 529" d="M465.609,3088.975c-1.144-2.19-4.17-2.956-5.911-4.649a42.419,42.419,0,0,1-5.861-7.781c-2.888-4.558-7.694-18.1-25.108-24.268a.512.512,0,0,0-.742.572c.578,3.344,3.448,5.837,5.749,8.12a20.3,20.3,0,0,1,5.51,9.274c1.293,4.876,1.963,15.667-5.726,12.18-.419-.191-1.79-.993-1.481-.531.666,1.009,4.279,4.914,4.8,5.538-5.731,5.493-18.692,7.561-20.059,9.751a2.659,2.659,0,0,0,.361,2.248c2.15,2.008,7.953-.239,10.392-.832a45.589,45.589,0,0,0,11.166-3.852,29.647,29.647,0,0,0,3.079.706c-.348.663-8.082,11.535-12.951,13-1.586.477-1.562,2.969,0,3.1,3.953.335,9.034-4.53,11.85-7.252,2.13-2.057,9.016-6.245,10.174-6.483a3.437,3.437,0,0,1,2.347.189c-.321,5.792-3.537,9.714-5.35,12.649-1.732,2.8-4.576,5.109-5.877,8.133-.193.456.015,1.221.657,1.143,6.526-.8,21.164-24.048,21.69-24.4C466.025,3094.411,468.886,3090.256,465.609,3088.975Z" fill="#67953f"/>
          <path id="Path_530" data-name="Path 530" d="M505.092,3103.66c-.844-1.446-8.712-8.949-9.769-9.56-2.688-1.559-8.842-1.609-12.166-.039-.5-.233-3.567-1.4-4.065-.869-3.241,3.409-4.026,7.39-8,9.986-.985.639-7.637,3.658-5.631,5.664,2.331,2.332,7.346-1.54,9.861-3.356,1.927-.235,4.633-2.928,6.076-1.826a10.627,10.627,0,0,1,4.1,5.131,3.951,3.951,0,0,0,.492,1.324,11.617,11.617,0,0,0,2.156,4.167c.262.264,1.6.458,1.719.137.377-1.059.789-7.736,1.682-9.433a7.489,7.489,0,0,1,3.623-2.885c3.31.764,6.806,4.776,9.232,2.614C504.6,3104.529,505.226,3103.893,505.092,3103.66Z" fill="#67953f"/>
          <g id="Group_277" data-name="Group 277">
            <path id="Path_531" data-name="Path 531" d="M635.509,3084.43a5.6,5.6,0,0,0-5.395,4.1,79.779,79.779,0,0,1-11.258.4,55.161,55.161,0,0,1-8.431-1.2c-1.033-.231-2.344-.434-3.617-.708,10.731-3.862,20.744-11.127,25.431-21.777,3.813-8.658,3.84-20.282-4.964-25.863-5.065-3.209-11.59-2.82-17.213-1.755a51.323,51.323,0,0,0-9.89,3.111,35.141,35.141,0,0,0-3.848,1.788,27.7,27.7,0,0,0-11.837-15.1,96.042,96.042,0,0,0,19.279-6.015c11.487-5.038,20.517-13.816,23.246-26.345a37.562,37.562,0,0,0-7.326-31.023,31.465,31.465,0,0,0-11.025-8.112,14.965,14.965,0,0,0,3.983-1.154c4.43-2.009,7.432-5.885,9.505-10.173a40.006,40.006,0,0,0,2.308-27.886c-2.433-8.493-8.75-14.955-16.551-18.8a39.3,39.3,0,0,0-14.455-3.807,35.869,35.869,0,0,0-4.785-.062c-4.482-.55-9.688.963-13.453,2.545a30.284,30.284,0,0,0-13.629,12.069,37.508,37.508,0,0,0-5.856,21,22.624,22.624,0,0,0,1.945,8.426c-.522-.259-1.043-.508-1.571-.758a44.352,44.352,0,0,0-10.266-3.111c-7.684-1.538-15.641-1.655-23.452-1.687a178.805,178.805,0,0,0-22.281.979c-4.374.535-9.679,1.221-14.033,3.229a18.655,18.655,0,0,0,.78-6.842,45.351,45.351,0,0,0-6.17-20.367,29.474,29.474,0,0,0-15.5-13.131,32.237,32.237,0,0,0-14.328-1.35.25.25,0,0,0-.293-.132,35.094,35.094,0,0,1-6.39.71,24.522,24.522,0,0,0-7.155,2.049,35.157,35.157,0,0,0-11.881,7.963c-5.953,6.111-8.958,14.833-9.2,23.243-.215,7.637,2.5,14.78,6.819,20.984,2.036,2.922,4.753,5.966,8.1,7.377a13.819,13.819,0,0,0,1.369.5,63.117,63.117,0,0,0-9.827,6.933c-7.935,6.68-12.439,15.37-11.49,25.939.947,10.591,7.9,19.184,16.217,25.251a55.638,55.638,0,0,0,16.328,7.853,76.8,76.8,0,0,0,9.523,2.328,23.679,23.679,0,0,0-6.39,5.45,23.214,23.214,0,0,0-4.844,8.858c-2.629-2.426-7.222-3.948-9.786-4.894-5.027-1.855-11.144-3.031-16.459-1.918-5.76,1.21-12.7,8.921-11.962,15.337-.776,4.66,1.239,10.284,3.188,13.93,3.952,7.391,10.546,13.235,17.222,18.115a76.823,76.823,0,0,0,11.874,7.183c-6.242,2.848-12.819,5-18.983,7.978a5.608,5.608,0,1,0,1.525,4.963c7.247.769,14.331-4.148,21.517-5.224-1.578,2.784-4.663,5.216-6.844,7.1a45.441,45.441,0,0,1-7.024,4.653,5.6,5.6,0,1,0,3.663,5.255c0-.153-.011-.3-.023-.449,3.556-.722,6.919-3.282,9.709-5.35,3.691-2.733,7.183-5.516,11.562-6.813.261,3.4-2.01,7.04-3.614,9.77a54.22,54.22,0,0,1-3.989,5.864,6.033,6.033,0,0,0-.518.823,5.64,5.64,0,1,0,3.412,3.913,27.6,27.6,0,0,0,3.682-3.872c2.247-2.586,4.31-5.335,6.367-8.071,2.112-2.807,4.186-5.64,6.382-8.378,1.94-2.423,4.346-4.716,5.67-7.555.325-.123.649-.256.957-.4.764.354,1.536.7,2.327,1.012a36.061,36.061,0,0,0,5.347,1.665c-.306.413-.589.856-.9,1.291a32.883,32.883,0,0,1-4.56,5.055c-1.365,1.243-3.36,2.335-5.1,3.589a4.246,4.246,0,1,0,2.77,5.048,10.626,10.626,0,0,0,1.806-.821c2.907-1.52,4.994-3.945,8.456-4.144,3.141-.177,4.737,2.235,5.738,4.853.464,1.222.627,2.62,1.126,3.821a4.246,4.246,0,1,0,4.386-.422c.76-3.3,2.107-10.668,5.142-9.3a55.635,55.635,0,0,0,5.153,2.144c1.078.363,2.226.927,3.382,1.279a4.534,4.534,0,0,0-.076.8,4.249,4.249,0,1,0,2.089-3.653c-.689-2.546-2.745-4.862-4.609-6.8a37.871,37.871,0,0,0,7.735.7c4.9.146,9.78-.374,14.679-.386,7.12-.014,15.572,1.209,22.561-1.253a29.031,29.031,0,0,1-2.844,2.032c-1.411.885-3.108,1.371-4.151,2.678-.144-.014-.292-.022-.444-.022a4.258,4.258,0,1,0,4.1,3.138c3.77-1.42,6.892-4.7,11.087-4.976,3.092-.2,1.995,7.015,3.515,10.163a4.249,4.249,0,1,0,5.165-.6c.782-3.5,1.013-10.737,4.644-9.061,2.809,1.3,7.564,7.714,11.039,5.834a.387.387,0,0,0,.138-.526c-1.295-2.352-4.8-4.081-6.919-5.676-1.711-1.295-4.372-3.367-6.632-2.239-2.115,1.051-2.726,3.842-3.328,5.908a20.625,20.625,0,0,0-1.129,5.146h0a4.116,4.116,0,0,0-1.083.148c.171-4.11-.3-10.277-4.081-11.6-1.647-.579-3.631.029-5.38.8.083-.073.168-.154.245-.227a43.417,43.417,0,0,0,9.191-12.748,42.906,42.906,0,0,0,4.227-14.173c.552-4.728.349-12.7-3.152-16.35a.632.632,0,0,0-1.068.443c-.135,2.442.808,4.887,1.09,7.314a37.181,37.181,0,0,1-.094,7.525,41.069,41.069,0,0,1-4.33,14.319,42.386,42.386,0,0,1-6.633,9.728c-8.459,1.6-17.161.977-25.73.945-4.265-.017-8.534.375-12.8.505-4.172.126-8.453-.665-12.607-.539-2.6-2.609-5.257-5.159-7.779-7.848a28.01,28.01,0,0,1-6.928-13.882,49.858,49.858,0,0,1-.958-8.7c-.09-2.744.27-5.617-.6-8.267a.5.5,0,0,0-.9-.113c-2.163,4.423-1.609,10.772-1.273,15.55a27.054,27.054,0,0,0,5.03,14.344c2.918,3.939,6.727,6.629,10.343,9.827a55.379,55.379,0,0,1,5.45,5.446,24.787,24.787,0,0,1,1.954,2.771,32.577,32.577,0,0,1-3.983-1.218c-1.719-.764-3.238-1.854-5.185-1.56-1.77.267-3.136,2.954-3.651,4.368a16.443,16.443,0,0,0-.91,7.491,4.142,4.142,0,0,0-.548-.041h-.009a15.988,15.988,0,0,0-1.223-4.384,9.487,9.487,0,0,0-4.787-5.625c-2.667-1.194-5.337-.077-7.741,1.175a43.042,43.042,0,0,0-5.963,3.7,4.256,4.256,0,0,0-.258-.631,44.934,44.934,0,0,0,4.634-3.735c1.915-1.669,5.373-4.915,5.7-7.931.277.041.553.08.829.11,1.326.151,2.626.278,3.96.324,1.595.052,2.437-.558,3.9-.73.561-.065.786-.919.144-1.058-.8-.177-1.062-.691-1.734-.849-1.273-.3-2.546-.622-3.811-.946-2.63-.672-5.247-1.418-7.8-2.327a37.453,37.453,0,0,1-11.992-7.1,60.451,60.451,0,0,1-13.689-17.763c-3.351-6.456-5.542-14.067-4.54-21.381a22.23,22.23,0,0,1,3.628-9.317c1.072-1.611,6.813-6.095,8.266-7.831a41.984,41.984,0,0,0,5.993.279.766.766,0,0,0,.385-1.417c-4.666-2.631-10.048-3.567-15.1-5.253a77.215,77.215,0,0,1-15.036-6.535c-8.16-4.834-14.815-12.557-17.028-21.9-2.263-9.551,2.022-17.589,8.64-24.071a52.287,52.287,0,0,1,11.12-8.217c3.275-1.828,6.848-2.611,10.233-4.067a5.684,5.684,0,0,0,3.644-1.32.565.565,0,0,0-.248-.934c-1.681-.509-3.423-.727-5.1-1.283-1.938-.638-3.868-2.52-5.3-3.9a31.144,31.144,0,0,1-6.085-8.394,30.65,30.65,0,0,1,4.971-33.712,25.8,25.8,0,0,1,7.2-5.329c2.477-1.281,5.152-1.425,7.7-2.135a35.978,35.978,0,0,1,9.439.98c6.134,1.478,11.1,5.77,14.536,10.919a43.45,43.45,0,0,1,6.109,15.919c.848,4.348,1.065,12.289-3.142,15.68.968-.039,8.732-1.935,11.727-2.753a67.253,67.253,0,0,1,11.109-1.928,201.914,201.914,0,0,1,20.3-.58,143.056,143.056,0,0,1,22.406,1.44,160.54,160.54,0,0,1,22.015,5.4c.319-.253-7.558-3.633-6.582-16.726.234-6.146,2.7-12.353,6.019-17.458a26.216,26.216,0,0,1,12.225-9.887,23.33,23.33,0,0,1,17.613-.654c6.916,2.5,9.633,5.082,12.646,10.087a30.9,30.9,0,0,1,4.112,16.338,26.813,26.813,0,0,1-5.34,15.655,22.323,22.323,0,0,1-6.575,5.85c-3.939,2.349-8.258,2.637-12.572,3.775a.486.486,0,0,0-.115.88c.153.095,23.449,9.261,28.126,15.327a33.932,33.932,0,0,1,5.593,28.731c-3.006,11.6-12.07,18.148-22.518,22.816a101.481,101.481,0,0,1-17.847,5.582c-2.977.712-5.956,1.416-8.905,2.234-2.651.735-5.844,1.205-8.079,2.876-.348.262-.388.909.135,1.021,2.977.627,6.414-.326,9.409-.7,2.725-.335,5.434-.789,8.129-1.3,3.829,4.912,7.924,9.076,9.834,15.207a23.536,23.536,0,0,1,.621,2.49,1.141,1.141,0,0,0,.185,1.085c.9,6.091-.644,12.138-3.494,17.663-3.162,6.139-7.771,11.426-12.526,16.369a72.1,72.1,0,0,1-16.365,13.142.5.5,0,0,0,.253.932,18.124,18.124,0,0,0,9.672-3.37c.43,2.5,2.505,4.858,3.931,6.777,1.32,1.778,3,5.608,5.358,6.049a.448.448,0,0,0,.532-.3c.871-2.257-1.794-4.775-3.044-6.414-1.362-1.778-2.638-4.093-4.172-5.928a24.617,24.617,0,0,0,4.05.306c3.579,5.869,10.433,10.436,15.995,14.263,3.272,2.252,6.64,4.364,10.036,6.425a42.154,42.154,0,0,0,7.717,4.037,5.607,5.607,0,1,0,5.3-3.766,5.558,5.558,0,0,0-1.825.31c-2.477-2.245-5.134-4.352-7.514-6.6-1.888-1.788-3.782-3.8-5.81-5.613a54.957,54.957,0,0,0,9.823,2.363c3.205.512,6.442.821,9.675,1.061,1.228.089,2.525.244,3.812.285a5.615,5.615,0,1,0,1.307-4.169c-1.395-.487-2.815-.919-4.171-1.464-2.626-1.047-5.145-2.356-7.858-3.176,1.523-.022,3.075-.139,4.665-.318a48.966,48.966,0,0,0,10.079-2.168c.676-.222,1.424-.473,2.164-.781a5.607,5.607,0,1,0,5-8.134Zm-179.824,20.433c-2.319,3.091-4.622,6.193-7.089,9.172-1.128,1.357-2.544,2.642-3.718,4.058-.065-.07-.13-.142-.2-.21q.457-.552.891-1.124a58.384,58.384,0,0,0,4.436-7.024c1.854-3.4,4.376-7.91,3.711-11.909a1.611,1.611,0,0,0-1.975-1.119c-4.132.919-7.776,3.517-11.065,6.09-2.054,1.613-4.045,3.332-6.142,4.887a53.886,53.886,0,0,1-5.22,3.181,5.664,5.664,0,0,0-.749-1.374,45.079,45.079,0,0,0,5.726-4.248c3.3-2.63,7.867-6.345,9.046-10.626a1.382,1.382,0,0,0-1.323-1.735c-4.3.11-8.317,1.51-12.268,3.107a55.249,55.249,0,0,1-11.361,3.167,5.579,5.579,0,0,0-.8-2.135c7.133-1.079,14.283-3.366,19.541-8.3a60.894,60.894,0,0,0,7.914,2.981,55.972,55.972,0,0,0,13.415,2.083,32.975,32.975,0,0,0,7.049-.317C461.453,3096.152,458.385,3101.258,455.685,3104.863Zm-11.323-40.127c.053.128.1.255.159.38a60.768,60.768,0,0,0,14.514,20.376,40.122,40.122,0,0,0,5.712,4.36,57.253,57.253,0,0,1-6.3.3,45.728,45.728,0,0,1-12.438-2c-6.413-2.033-12.525-5.546-18.1-9.248a61.741,61.741,0,0,1-16.461-15.493,30.612,30.612,0,0,1-4.336-9,17.839,17.839,0,0,1-.608-4.874c1.017-6.151,5.061-12.164,11.789-12.468a34.928,34.928,0,0,1,13.547,2.481,46.306,46.306,0,0,1,6.465,3.2,26,26,0,0,0,2.588,1.385,33.838,33.838,0,0,0,.9,13.085c-.562-.416-1.134-.817-1.7-1.2a26.584,26.584,0,0,0-7.294-3.528c-1.9-.55-5.126-1.846-7.092-1.585a.283.283,0,0,0-.268.271c-.144,1.344,1.428,2.078,2.456,2.543a61.38,61.38,0,0,1,7.3,3.34A45.834,45.834,0,0,1,444.362,3064.736Zm-8.931-160.9c-5.138,4.72-8.249,11.451-9.4,18.256a32.534,32.534,0,0,0,3.382,20.813,28.528,28.528,0,0,0,8.131,9.4,19.032,19.032,0,0,0,3.032,1.811,24.75,24.75,0,0,0-3.491,1.262,14.674,14.674,0,0,1-5.8-2.845,29.577,29.577,0,0,1-6.437-7.409,30.722,30.722,0,0,1-4.955-18.826,29.921,29.921,0,0,1,9.234-20.327,33.941,33.941,0,0,1,10.274-6.335c.694,0,1.384-.043,2.07-.1A28.352,28.352,0,0,0,435.431,2903.834Zm163.075,48.193a26.527,26.527,0,0,0,11.046-7.366c4.418-5.006,6.347-11.747,6.746-18.3a32.541,32.541,0,0,0-4.89-19.149,27.329,27.329,0,0,0-4.232-5.139,27.455,27.455,0,0,1,12.745,15.1c2.518,7.371,2,16.126-.524,23.412a18.689,18.689,0,0,1-7.865,10.28c-2.68,1.577-5.912,2.075-9.1,2.474C601.145,2952.865,599.833,2952.418,598.506,2952.027Zm-24.461,136.678c1.781-1.488,3.455-3.082,5.033-4.572,5.661-5.349,11.1-11.2,14.9-18.035,1.771-1.374,3.513-2.786,5.313-4.169,3.833-2.945,8.234-5.151,11.525-8.723.164-.179,0-.527-.254-.437-4.76,1.692-8.887,3.062-13.091,6.051-.257.183-.5.379-.752.571a29.607,29.607,0,0,0,.469-13.55c1.033-.45,2.058-.931,3.11-1.335a69.754,69.754,0,0,1,8.92-2.769c5.24-1.246,11.2-1.7,15.994,1.17,7.913,4.745,5.465,16.674,1.832,23.264-5.471,9.923-15.846,15.437-26.273,18.67a86.682,86.682,0,0,1-16.088,3.087C581.327,3088.3,577.55,3088.161,574.045,3088.705Zm45.455,4.1a48.75,48.75,0,0,1-9.689.519c-2.4-.1-5.875-.077-7.96-1.468a.233.233,0,0,0-.3.009c-.533-.227-1.071-.443-1.619-.641-.214-.081-.356.147-.331.332.575,4.114,8.843,5.378,11.966,6.321a88.433,88.433,0,0,1,8.25,3.347c.477.2.971.408,1.475.621-3.272-.213-6.539-.536-9.782-1.02a72.934,72.934,0,0,1-9.015-1.907c-2.62-.741-5.144-2.219-7.866-2.475a.274.274,0,0,0-.232.407,5.336,5.336,0,0,0,.514.7c2.483,4.553,6.88,8.314,10.615,11.8.978.911,1.99,1.859,3.038,2.793-.648-.4-1.31-.791-1.988-1.2-3.4-2.033-6.784-4.1-10.106-6.273-3.3-2.158-6.56-4.405-9.74-6.745-2.659-1.956-5.13-4.267-7.9-6.083,2.6-.1,5.2-.421,7.523-.619a85.408,85.408,0,0,0,18.473-3.531,10.581,10.581,0,0,0,3.705,1.9,54.124,54.124,0,0,0,9.558,1.81c1.56.176,3.776.452,6.074.492C622.623,3092.261,621.063,3092.562,619.5,3092.807Z" fill="#296532"/>
            <path id="Path_532" data-name="Path 532" d="M584.422,2979.3a.779.779,0,0,0-1.136-.872c-3.624,1.995-6.234,5.426-10,7.347a75.328,75.328,0,0,1-13.41,5.375,96.566,96.566,0,0,1-27.04,3.3,208.873,208.873,0,0,1-39.345-4.3,125.8,125.8,0,0,1-18.7-4.778c-5.367-1.931-10.006-2.94-15.236-6.032-3.387-1.255-2.769,1.363-1.431,2.13,10.515,6.786,23.215,10.646,35.393,13.028a211.567,211.567,0,0,0,41.223,4.226,96.741,96.741,0,0,0,27.866-4.067,43.5,43.5,0,0,0,13.18-6.209C579.021,2986.076,583.3,2983.412,584.422,2979.3Z" fill="#296532"/>
          </g>
          <path id="Path_533" data-name="Path 533" d="M584.372,3105.327a4.512,4.512,0,1,1-4.513-4.506A4.511,4.511,0,0,1,584.372,3105.327Z" fill="#296532"/>
        </g>
      </g>
    </g>
  </g>
</svg>
