<svg xmlns="http://www.w3.org/2000/svg" width="233.643" height="310.751" viewBox="0 0 233.643 310.751">
  <g id="Group_292" data-name="Group 292" transform="translate(-1073.382 -3308.364)">
    <g id="Group_291" data-name="Group 291">
      <g id="goat">
        <g id="Group_282" data-name="Group 282">
          <path id="Path_534" data-name="Path 534" d="M1242.067,3366.362a13.114,13.114,0,0,1-.548,1.254,6.831,6.831,0,0,1-3.611,2.791,7,7,0,0,1-4.114.344,4.273,4.273,0,0,1-1.954-1.269.881.881,0,0,0-.171-.586c-4.535-17.249-19.148-32.582-27.8-38.917-6.212-5.157-21.8-12.924-30.978-16.077-9.994-2.325-11.995-3.674-9.66-4.046a24.38,24.38,0,0,1,5.078.06,70.052,70.052,0,0,1,11.457,1.345,79.83,79.83,0,0,1,23.329,7.612c9.848,5.162,17.593,12.827,24.549,21.368C1238.818,3353.534,1240.813,3363.194,1242.067,3366.362Z" fill="#ad6328"/>
          <path id="Path_535" data-name="Path 535" d="M1242.9,3366.946c-2.684-7.284-5.617-14.461-9.846-21.007A85.618,85.618,0,0,0,1213,3325.288c-6.842-5.529-14.945-9.149-23.256-11.866a92.921,92.921,0,0,0-13.853-3.3c-4.273-.7-8.914-1.417-13.224-.746a.54.54,0,0,0-.237.1c-.589.08-.748,1.047-.091,1.148a.94.94,0,0,0,.106.017.559.559,0,0,0,.222.09c.857.143,1.719.254,2.584.349a119.212,119.212,0,0,1,20.475,4.722,84.272,84.272,0,0,1,21.75,11.345,89.365,89.365,0,0,1,16.631,16.175,131.2,131.2,0,0,1,8.611,12.429c.674,1.276,1.33,2.559,1.952,3.86,1.573,3.285,2.55,7.523,4.905,10.347C1240.159,3370.651,1243.039,3367.108,1242.9,3366.946Z" fill="#ee8f23"/>
          <path id="Path_536" data-name="Path 536" d="M1166.65,3309.214a.266.266,0,0,0-.483-.061,7.511,7.511,0,0,0-.481,1.372c-.191.558-.533,1.059-.694,1.629a.342.342,0,0,0,.568.331,4.7,4.7,0,0,0,.84-1.562A2.893,2.893,0,0,0,1166.65,3309.214Z" fill="#ffab2e"/>
          <path id="Path_537" data-name="Path 537" d="M1170.692,3308.991a12.651,12.651,0,0,0-.838,2.15c-.322.871-1.007,1.617-1.261,2.485a.373.373,0,0,0,.544.417,3.827,3.827,0,0,0,1.43-2.109,7.652,7.652,0,0,0,.72-2.783A.321.321,0,0,0,1170.692,3308.991Z" fill="#ffab2e"/>
          <path id="Path_538" data-name="Path 538" d="M1174.972,3309.585a.149.149,0,0,0-.231.032,20.1,20.1,0,0,0-.564,2.674c-.283.9-1.048,1.722-1.172,2.643a.253.253,0,0,0,.315.241c.989-.313,1.434-1.758,1.735-2.641C1175.32,3311.752,1175.732,3310.211,1174.972,3309.585Z" fill="#ffab2e"/>
          <path id="Path_539" data-name="Path 539" d="M1180.364,3310.292a.263.263,0,0,0-.478-.06c-.421.95-.6,1.986-1.009,2.948a18.142,18.142,0,0,0-1.3,2.994.4.4,0,0,0,.721.3,15.346,15.346,0,0,0,1.449-2.931A5.4,5.4,0,0,0,1180.364,3310.292Z" fill="#ffab2e"/>
          <path id="Path_540" data-name="Path 540" d="M1184.983,3310.86a.349.349,0,0,0-.643.174,12.761,12.761,0,0,1-.731,3.675,15.477,15.477,0,0,1-1.716,2.958.49.49,0,0,0,0,.505.392.392,0,0,0,.3.23.5.5,0,0,0,.488-.129C1183.96,3316.679,1186.47,3312.952,1184.983,3310.86Z" fill="#ffab2e"/>
          <path id="Path_541" data-name="Path 541" d="M1190.113,3312.735a.185.185,0,0,0-.213.086,3.316,3.316,0,0,0-.19,1.278,7.89,7.89,0,0,1-.979,2.514c-.695,1.321-1.636,2.479-2.38,3.763a.409.409,0,0,0,.639.494C1187.884,3319.919,1192.412,3313.694,1190.113,3312.735Z" fill="#ffab2e"/>
          <path id="Path_542" data-name="Path 542" d="M1196.346,3314.53a.367.367,0,0,0-.718-.1,18.369,18.369,0,0,1-1.756,4.543c-.756,1.3-1.961,2.224-2.739,3.461a.321.321,0,0,0,.359.47c1.44-.352,2.5-2.272,3.205-3.447C1195.526,3318.078,1196.494,3316.186,1196.346,3314.53Z" fill="#ffab2e"/>
          <path id="Path_543" data-name="Path 543" d="M1201.644,3316.681a.288.288,0,0,0-.563-.073,20.1,20.1,0,0,1-1.952,4.468,40.016,40.016,0,0,1-3.384,4.244c-.432.511.272,1.244.742.745C1198.732,3323.665,1202.005,3320.253,1201.644,3316.681Z" fill="#ffab2e"/>
          <path id="Path_544" data-name="Path 544" d="M1207.283,3320.159c-.927,1.488-1.729,3.031-2.749,4.46a20.386,20.386,0,0,1-3.942,3.938c-.452.364.151,1.144.621.806a18.546,18.546,0,0,0,6.624-8.969C1207.948,3320.058,1207.461,3319.877,1207.283,3320.159Z" fill="#ffab2e"/>
          <path id="Path_545" data-name="Path 545" d="M1213.387,3323.944a.2.2,0,0,0-.331-.137c-1.266,1.319-2.009,3.223-3.076,4.713a14.963,14.963,0,0,1-2.259,2.5c-.515.456-1.19.593-1.4,1.284a.431.431,0,0,0,.2.489c1.432.658,3.273-1.938,3.985-2.884C1211.684,3328.339,1213.5,3326.034,1213.387,3323.944Z" fill="#ffab2e"/>
          <path id="Path_546" data-name="Path 546" d="M1218.693,3329.054c-.014-.173-.215-.346-.386-.222a6.919,6.919,0,0,0-1.453,1.821,27.741,27.741,0,0,1-2.574,3.27,8.572,8.572,0,0,1-2.914,2.243c-.438.184-.862.434-.6.959a.573.573,0,0,0,.516.3c1.847-.18,3.35-1.8,4.488-3.132C1216.858,3333.021,1218.829,3330.855,1218.693,3329.054Z" fill="#ffab2e"/>
          <path id="Path_547" data-name="Path 547" d="M1224.377,3335.293a.3.3,0,0,0-.444-.179c-.653.333-.986,1.029-1.452,1.58a14.881,14.881,0,0,1-2.446,2.209c-1.525,1.148-3.324,1.7-4.893,2.716a.4.4,0,0,0,.2.744c2.012.149,4.255-1.49,5.772-2.621C1222.272,3338.881,1224.739,3336.981,1224.377,3335.293Z" fill="#ffab2e"/>
          <path id="Path_548" data-name="Path 548" d="M1227.942,3340.357a15.648,15.648,0,0,1-3.918,4.308c-1.44,1.047-3.1,1.644-4.574,2.609a.394.394,0,0,0,.2.728c1.939-.093,3.934-1.417,5.457-2.518s3.456-2.756,3.783-4.727A.52.52,0,0,0,1227.942,3340.357Z" fill="#ffab2e"/>
          <path id="Path_549" data-name="Path 549" d="M1233.6,3345.962a55.724,55.724,0,0,1-3.867,4.387,11.711,11.711,0,0,1-6.023,2.794.4.4,0,0,0,0,.771c3.946.865,9.606-3.879,10.607-7.533A.433.433,0,0,0,1233.6,3345.962Z" fill="#ffab2e"/>
          <path id="Path_550" data-name="Path 550" d="M1237.684,3352.6a.441.441,0,0,0-.642-.26,5.994,5.994,0,0,0-1.213,1.486,13.666,13.666,0,0,1-2.723,2.458,14.47,14.47,0,0,1-6.046,2.592.449.449,0,0,0,0,.86c2.3.59,4.929-1.043,6.745-2.257C1235.1,3356.616,1238.143,3354.479,1237.684,3352.6Z" fill="#ffab2e"/>
          <path id="Path_551" data-name="Path 551" d="M1240.372,3360.8a28.276,28.276,0,0,1-6.115,3.681,9.483,9.483,0,0,1-3.628,1.027c-.236.01-.836-.152-.953.2-.686,2.1,4.2.419,4.689.214,2.26-.94,5.412-2.377,6.569-4.689A.36.36,0,0,0,1240.372,3360.8Z" fill="#ffab2e"/>
          <path id="Path_552" data-name="Path 552" d="M1242.793,3361.215a46.9,46.9,0,0,0-3.168-7.342,87.438,87.438,0,0,0-9.909-14.562c-7.8-9.634-16.765-17.916-27.965-23.429-7.814-3.846-16.265-5.836-24.834-7.16-6.927-.5-11.252-.431-13.856-.06-6.73.952-2,3.874-1.075,3.809a85.076,85.076,0,0,1,9.723,2.673c3.691,1.355,7.241,3.094,10.788,4.783,7.368,3.5,14.247,6.846,20.583,12.1,5.96,4.949,17.6,14.329,26.868,37.867a1.144,1.144,0,0,0,.232.239c.468,2.618,5.329,2.817,7.272,2.3,1.9-.511,6.309-3.29,6.164-5.918C1244.146,3364.808,1243.317,3362.9,1242.793,3361.215Zm-1.274,6.4a6.831,6.831,0,0,1-3.611,2.791,7,7,0,0,1-4.114.344,4.273,4.273,0,0,1-1.954-1.269.881.881,0,0,0-.171-.586c-4.535-17.249-19.148-32.582-27.8-38.917-6.212-5.157-21.8-12.924-30.978-16.077-9.994-2.325-11.995-3.674-9.66-4.046a24.38,24.38,0,0,1,5.078.06,70.052,70.052,0,0,1,11.457,1.345,79.83,79.83,0,0,1,23.329,7.612c9.848,5.162,17.593,12.827,24.549,21.368,11.172,13.293,13.167,22.953,14.421,26.121A13.114,13.114,0,0,1,1241.519,3367.616Z" fill="#76372d"/>
        </g>
        <g id="Group_283" data-name="Group 283">
          <path id="Path_553" data-name="Path 553" d="M1219.211,3368.89c.032.038.066.07.1.108-1.269,2.478-5.464,1.893-7.9,1.511-3.265-.51-5.265-2.085-7.359-4.244a1.035,1.035,0,0,0-.2-1.113c-4.4-5.041-9.009-9.94-14.669-13.583a112.88,112.88,0,0,0-17.421-9.149c-11.49-4.807-24.931-7.8-37.459-6.776a.545.545,0,0,0-.151-.3c-.452-.48,2.893-1.549,3.379-1.685,13.577-2.929,34.656,1.485,43.785,4.4C1197.244,3343.134,1214.763,3360.7,1219.211,3368.89Z" fill="#ad6328"/>
          <path id="Path_554" data-name="Path 554" d="M1220.213,3369.1a23.657,23.657,0,0,0-3.292-5.658c-2.1-3.106-20.421-19.914-28.442-22.868-4.4-2.686-9.81-4.113-14.629-5.416-6.585-1.782-13.512-2-20.185-3.361-.341-.069-8.265-.093-11.968.3a34.508,34.508,0,0,0-7.507,2.659c-.514.321-.361,1.315.336,1.236,3.645-.408,7.091-1.332,10.8-1.387a62.687,62.687,0,0,1,12.588,1.369,119.07,119.07,0,0,1,22.475,6.243,81.194,81.194,0,0,1,20.822,12.91c5.807,4.81,9.549,11.586,15.445,16.227.763.6,2.566-.726,2.827-.966A.919.919,0,0,0,1220.213,3369.1Z" fill="#ee8f23"/>
          <path id="Path_555" data-name="Path 555" d="M1139.214,3334.769a2.7,2.7,0,0,0-.211-1.349.362.362,0,0,0-.617,0,2.465,2.465,0,0,0-.173,1.349,3.936,3.936,0,0,0,.264,1.664.394.394,0,0,0,.714-.093A8.673,8.673,0,0,0,1139.214,3334.769Z" fill="#ffab2e"/>
          <path id="Path_556" data-name="Path 556" d="M1142.839,3332.513a6.083,6.083,0,0,0-.542,1.979c-.058.6-.1,1.5.456,1.878a.222.222,0,0,0,.3-.078,3.17,3.17,0,0,0,.118-1.58,6.069,6.069,0,0,1,.291-1.937C1143.587,3332.413,1143,3332.162,1142.839,3332.513Z" fill="#ffab2e"/>
          <path id="Path_557" data-name="Path 557" d="M1146.963,3332.325a11.958,11.958,0,0,0-.637,2.356c-.1.627-.32,1.422.138,1.933a.235.235,0,0,0,.327,0c.39-.41.315-1,.364-1.538a16.1,16.1,0,0,1,.483-2.567A.35.35,0,0,0,1146.963,3332.325Z" fill="#ffab2e"/>
          <path id="Path_558" data-name="Path 558" d="M1152.113,3332.377a7.348,7.348,0,0,0-1,2.665c-.14.752-.4,1.857.087,2.507.108.145.356.242.494.064a3.993,3.993,0,0,0,.449-2.109,14.7,14.7,0,0,1,.6-2.862C1152.872,3332.26,1152.314,3332.054,1152.113,3332.377Z" fill="#ffab2e"/>
          <path id="Path_559" data-name="Path 559" d="M1155.945,3332.55a15.291,15.291,0,0,1-.495,3.071c-.171.71-.626,1.542-.356,2.25a.29.29,0,0,0,.419.17c.687-.45.74-1.4.9-2.153a15.689,15.689,0,0,0,.26-3.338A.366.366,0,0,0,1155.945,3332.55Z" fill="#ffab2e"/>
          <path id="Path_560" data-name="Path 560" d="M1160.652,3332.988c-.235,1.071-.472,2.144-.7,3.217a7.1,7.1,0,0,0-.438,3.014.3.3,0,0,0,.505.134,5.655,5.655,0,0,0,.957-2.866,24.313,24.313,0,0,0,.418-3.4A.38.38,0,0,0,1160.652,3332.988Z" fill="#ffab2e"/>
          <path id="Path_561" data-name="Path 561" d="M1165.656,3333.532c-.326,1.163-.676,2.316-1.017,3.474a5.565,5.565,0,0,0-.507,2.874.26.26,0,0,0,.429.113,5.048,5.048,0,0,0,1.138-2.695,26.135,26.135,0,0,0,.643-3.671C1166.384,3333.225,1165.76,3333.166,1165.656,3333.532Z" fill="#ffab2e"/>
          <path id="Path_562" data-name="Path 562" d="M1171.917,3334.685a13.316,13.316,0,0,0-1.643,3.964c-.347,1.147-1.148,2.688-.594,3.841a.245.245,0,0,0,.335.087c.971-.639,1.02-2.029,1.294-3.084a40.87,40.87,0,0,0,1.161-4.576A.3.3,0,0,0,1171.917,3334.685Z" fill="#ffab2e"/>
          <path id="Path_563" data-name="Path 563" d="M1177.52,3335.848c-.039-.237-.412-.22-.463,0a33.664,33.664,0,0,1-1.261,4.419,16.1,16.1,0,0,0-1.361,3.981.3.3,0,0,0,.509.212C1176.648,3342.318,1177.953,3338.581,1177.52,3335.848Z" fill="#ffab2e"/>
          <path id="Path_564" data-name="Path 564" d="M1183.213,3337.641a27.946,27.946,0,0,0-1.563,4.508c-.574,1.961-1.7,3.715-2.229,5.652-.064.234.219.5.439.336,2.762-2.02,3.269-7.151,3.906-10.261C1183.831,3337.556,1183.372,3337.317,1183.213,3337.641Z" fill="#ffab2e"/>
          <path id="Path_565" data-name="Path 565" d="M1189.386,3340.277c-.041-.286-.455-.234-.528,0a32.849,32.849,0,0,1-1.868,5.08c-.74,1.473-1.92,2.953-2.247,4.579a.36.36,0,0,0,.6.349,17.677,17.677,0,0,0,2.879-4.964A9.2,9.2,0,0,0,1189.386,3340.277Z" fill="#ffab2e"/>
          <path id="Path_566" data-name="Path 566" d="M1194.732,3343.577a.232.232,0,0,0-.454-.06,18.1,18.1,0,0,1-2.177,5.118c-.918,1.443-2.215,2.67-3.007,4.181-.15.282.169.684.47.472C1192.2,3351.435,1195.076,3346.894,1194.732,3343.577Z" fill="#ffab2e"/>
          <path id="Path_567" data-name="Path 567" d="M1199.682,3347.823a.216.216,0,0,0-.391-.052,43.312,43.312,0,0,1-1.941,4.343c-.937,1.52-2.595,2.612-3.421,4.14-.063.117.014.309.169.291,1.708-.19,3.023-2.123,3.937-3.421C1199,3351.749,1200.181,3349.558,1199.682,3347.823Z" fill="#ffab2e"/>
          <path id="Path_568" data-name="Path 568" d="M1204.317,3351.354a33.943,33.943,0,0,1-2.917,4.736c-1.114,1.333-2.872,2.2-3.821,3.593a.33.33,0,0,0,.284.493c1.7-.185,3.283-2.069,4.343-3.277,1.267-1.443,2.666-3.4,2.692-5.388A.314.314,0,0,0,1204.317,3351.354Z" fill="#ffab2e"/>
          <path id="Path_569" data-name="Path 569" d="M1209.024,3355.252a36.9,36.9,0,0,1-3.426,4.957c-1.51,1.764-3.352,2.544-5.248,3.731a.4.4,0,0,0,.2.744c4.363-.255,7.734-5.538,9.04-9.191C1209.715,3355.152,1209.2,3354.96,1209.024,3355.252Z" fill="#ffab2e"/>
          <path id="Path_570" data-name="Path 570" d="M1213.547,3360.335a25.3,25.3,0,0,1-4.354,3.924,20.176,20.176,0,0,1-3.007,1.514c-.641.272-1.274.36-1.673.948a.242.242,0,0,0,.086.328c1.512.795,4.415-1.282,5.629-2.055,1.493-.95,3.691-2.522,3.762-4.474A.262.262,0,0,0,1213.547,3360.335Z" fill="#ffab2e"/>
          <path id="Path_571" data-name="Path 571" d="M1152.6,3339.031c-6.354-1.145-12.75-1.44-19.15-2.113-.564-.054-3.495-2.217,2.436-4.647,3.416-1.227,10.941-1.668,14.507-1.512a110.394,110.394,0,0,1,25.76,3.6,64.574,64.574,0,0,1,25.153,12.338c7.394,5.967,13.9,10.91,20.3,21.978.376.652.017,1-.554,1.046a1.866,1.866,0,0,1-.8,1.338c-1.93,1.468-4.551,1.685-6.905,1.468-3.65-.333-9.522-1.716-10.808-5.734a1.031,1.031,0,0,1-.183-.149c-4.9-4.9-9.1-9.973-15.062-13.685a107.312,107.312,0,0,0-16.905-8.753A92.9,92.9,0,0,0,1152.6,3339.031Zm-18.295-3.387c12.528-1.029,25.969,1.969,37.459,6.776a112.88,112.88,0,0,1,17.421,9.149c5.66,3.643,10.265,8.542,14.669,13.583a1.035,1.035,0,0,1,.2,1.113c2.094,2.159,4.094,3.734,7.359,4.244,2.432.382,6.627.967,7.9-1.511-.031-.038-.065-.07-.1-.108-4.448-8.193-21.967-25.756-37.893-30.836-9.129-2.912-30.208-7.326-43.785-4.4-.486.136-3.831,1.205-3.379,1.685A.545.545,0,0,1,1134.305,3335.644Z" fill="#76372d"/>
        </g>
        <path id="Path_572" data-name="Path 572" d="M1307.014,3433.867c-.34-2.247-3.826-2.954-5.691-3.159-2.673-.293-6.267-.373-8.71.942a.509.509,0,0,0,.12.922c2.027.49,4.3.2,6.386.354a18.535,18.535,0,0,1,3.948.772c1.153.345,2.014,1.174,3.248,1.087A.743.743,0,0,0,1307.014,3433.867Z" fill="#748a07"/>
        <g id="Group_284" data-name="Group 284">
          <path id="Path_573" data-name="Path 573" d="M1199.563,3379.364a25.627,25.627,0,0,0-5.347-2.107,31.021,31.021,0,0,0-4.007-1.207c-2.01-.918-11.979-1.879-16.84.259a1.02,1.02,0,0,0-.447.2c-.059.028-.119.05-.178.079a.935.935,0,0,0-.152,1.569,10.721,10.721,0,0,0,2.164,4.009,1.038,1.038,0,0,0,.481.532,17.881,17.881,0,0,0,7.89,4.419c4.533,1.337,10.861,1.81,15.415.442C1202.9,3386.251,1203.16,3381.6,1199.563,3379.364Z" fill="#f5bbbb"/>
          <path id="Path_574" data-name="Path 574" d="M1278.423,3358.508c-7.842,1.993-14.814,7.743-20.4,13.355a1.277,1.277,0,0,0,.255,1.989c2.056,1.066,4.177,2.678,5.951,2.4s3.2-2.441,5.043-3.918c3.549-2.847,8.076-7.506,9.718-11.967C1279.048,3360.342,1279.456,3358.247,1278.423,3358.508Z" fill="#f5bbbb"/>
          <path id="Path_575" data-name="Path 575" d="M1196.022,3381.455c-.041-.035-.083-.067-.125-.1a1.156,1.156,0,0,0-.053-.683,6.84,6.84,0,0,0-.952-1.362,5.3,5.3,0,0,1-.748-1.291c-.16-.443-.367-.868-.847-.887a.516.516,0,0,0-.032-.046c-1.492-1.645-4.4-2.049-7.108-2.171a26.643,26.643,0,0,0-4.32-.114c-2.631-.161-8.353-.911-9.517,1.944a.647.647,0,0,0,.3.758.749.749,0,0,0,.634.9,82.029,82.029,0,0,1,11.982,1.615c3.159.776,7.093,2.952,10.341,2.516C1196.067,3382.468,1196.482,3381.868,1196.022,3381.455Z" fill="#eb8f84"/>
          <path id="Path_576" data-name="Path 576" d="M1277.935,3358.43a27.576,27.576,0,0,0-5.948,3.2c-.618.339-1.216.715-1.8,1.043a21.924,21.924,0,0,0-3.08,2.07c-.414.233-.83.467-1.236.715a24.684,24.684,0,0,0-5.561,4.312c-1.188.634-3.2,2.573-2.316,3.963a.561.561,0,0,0,.5.283,1.074,1.074,0,0,0,1.3.3.955.955,0,0,0,.432.307l.644.263a.92.92,0,0,0,1.1-.142,86.768,86.768,0,0,1,13.979-12.824c.7-.405,1.4-.812,2.065-1.23a.768.768,0,0,0,.358-.5c.016-.011.032-.025.049-.035a.808.808,0,0,0,.344-.5C1279.167,3359.142,1278.655,3358.158,1277.935,3358.43Z" fill="#eb8f84"/>
          <path id="Path_577" data-name="Path 577" d="M1141.492,3563.693c.3-.616.538-1.292.82-1.858.079-.154.17-.3.255-.455l.018-.021a17.155,17.155,0,0,0,1.141-1.76c.17-.22.33-.448.486-.678q.286-.387.567-.772a18.118,18.118,0,0,0,1.747-2.8c1.526-2.017,2.494-4.392,1.763-6.386-.557-1.525-2.123-2.147-3.585-2.467-2.992-.652-6.225-.595-9.263-1.016a54.958,54.958,0,0,1-9.414-1.982c-2.952-.951-5.953-2.47-9.118-2.28a.711.711,0,0,0-.431,1.261,48.928,48.928,0,0,0-.325,16.494,5.039,5.039,0,0,0,2.211,3.694c.838.623,1.81.995,2.623,1.666,1.555,1.284,1.069,2.935.517,4.526-.807,2.326.7,7.252,3.56,4.291,1.655-1.711-.387-4.939,1.358-6.179,1.078-.765,2.486-.517,3.842-.36.818,1.279.344,3.5.479,4.866.194,1.959,1.78,3.63,3.713,2.237,1.889-1.36,1.063-3.556.017-5.149-.706-1.073-1.19-2.032-.153-3.018a4.288,4.288,0,0,1,1.467-.828c.941-.079,1.936-.494,2.562.448a12.117,12.117,0,0,1,1.141,3.246c.636,2.109,1.7,3.747,4.141,3.032,2.761-.811,1.136-3.711-.028-5.083C1142.813,3565.423,1141.781,3564.752,1141.492,3563.693Z" fill="#f4a89e"/>
          <path id="Path_578" data-name="Path 578" d="M1147.463,3548.755c-1.293-1.334-21-3.657-28.38-6.4a1.109,1.109,0,0,0-1.342.762c-1.009,2.431-.913,5.226-.837,7.806.052,1.83.251,9.92.329,11.178a1.022,1.022,0,0,0,1.36.93.786.786,0,0,0,1.519-.261c2.715-6.187,9-9.126,12.04-10.289a28.825,28.825,0,0,1,4.489-1.281c.055-.007.112-.018.169-.027,1.6-.213,9.246-.464,10.491-1.158A.808.808,0,0,0,1147.463,3548.755Z" fill="#e98980"/>
          <path id="Path_579" data-name="Path 579" d="M1220.151,3597.856a208.5,208.5,0,0,1-2.136-22.577c.094-1.98-.347-6.455-.36-6.683a.529.529,0,0,0-.054-.207c-.019-.2.257-28.636.324-33.743.067-5.287-.641-20.482-.7-20.019-.029.231-2.007,4.627-2.192,5.343-1.2,2.432-4.956,13.113-5.386,15.949-2.869,4.255-2.834,11.141-2.764,15.709a85.339,85.339,0,0,0,1.6,13.429c.641,3.637,4.567,29.882,6.546,35.9.075.458,3.474-.5,4.965-.407C1220.86,3600.609,1220.272,3598.585,1220.151,3597.856Z" fill="#f6e0ac" fill-rule="evenodd"/>
          <path id="Path_580" data-name="Path 580" d="M1217.226,3514.627c-1.355,1.938-7.173,18.873-8.067,23.458-.2,1.022-1.85,6.667-2.148,8.471a14.384,14.384,0,0,0-.089,5.841,67.3,67.3,0,0,0,.622,9.332c.486,3.531,4.432,26.5,5.825,29.27.167.332.606.135.635-.172.506-5.224-.561-10.839-.763-16.089a154.728,154.728,0,0,1,.45-17.652c.417-5.48,1.114-10.943,1.829-16.392.755-5.762,2-11.636,2-17.461C1217.521,3522.679,1217.644,3514.03,1217.226,3514.627Z" fill="#e5c988" fill-rule="evenodd"/>
          <path id="Path_581" data-name="Path 581" d="M1099.967,3566c-.255-2.662-12.541-25.172-12.9-31.288a.769.769,0,0,0-1.537,0,20.315,20.315,0,0,0,.01,2.356.264.264,0,0,0-.019.038c-.919,3.244-.269,14.755.41,17.05.571,4.335,2.276,41.58,1.991,48.153a1.253,1.253,0,0,0,1.246,1.242c1.493.038,2.987.028,4.482.031a1.242,1.242,0,0,0,.864-.349,1.278,1.278,0,0,0,.959-.931c.919-5.414.52-10.952,1-16.41.462-5.232,1.485-10.39,2.1-15.6C1098.662,3569.7,1100.033,3566.136,1099.967,3566Z" fill="#f6e0ac" fill-rule="evenodd"/>
          <path id="Path_582" data-name="Path 582" d="M1095.283,3556.423a.935.935,0,0,0-.119-.094c-.45-1.184-1.041-2.327-1.556-3.462-2.479-5.467-3.91-11.432-6.793-16.707a.476.476,0,0,0-.222-.207c-.012-.035-.017-.07-.028-.106-.16-.521-1.08-.632-1.167,0-.457,3.342-.063,6.856.027,10.219.1,3.726-.3,7.85.687,11.472.148.535,1.349,40.865.842,44.552-.082.591.626.832,1.092.85a1.282,1.282,0,0,0,.553.326,4.91,4.91,0,0,0,1.954.161,1.421,1.421,0,0,0,1.393-1.394c-.34-8.6.749-17.353,1.766-25.874a67.815,67.815,0,0,1,2.753-12.959C1097.406,3560.3,1097.315,3558.782,1095.283,3556.423Z" fill="#e5c988" fill-rule="evenodd"/>
          <path id="Path_583" data-name="Path 583" d="M1090.436,3458.4c-.538-.694-11.794-4.809-10.091-3.03-.059,1.218,2.279,4.307,3.206,5.346a15.637,15.637,0,0,1-2.391-1.2c-1.84-1.089-3.577-3.432-5.692-3.922a.421.421,0,0,0-.511.512c.106.463-1.446,12.014,2.911,14.323,1.962,1.04,5.993.949,8.125,1.252.75.106,2.351,1.618,2.364,1.617,1.344-2.062,5.006-4.3,5.153-4.642C1095.1,3464.976,1092.735,3461.353,1090.436,3458.4Z" fill="#e5c988"/>
          <path id="Path_584" data-name="Path 584" d="M1092.755,3456.076c-2.944-3.684-8.734-3.813-12.964-4.59h-.012a10.882,10.882,0,0,1-1.4-2.026.7.7,0,0,0-1.266.166,3.9,3.9,0,0,0,.843,3.936,14.021,14.021,0,0,0,1.364,3.519,8.607,8.607,0,0,0-2.91-1.961.916.916,0,0,0-1.027,1.334,11.83,11.83,0,0,0,3.294,4.2,6.869,6.869,0,0,0,6.06.576c.342-.162-3.1-1.922-3.3-5.469a22.979,22.979,0,0,0,2.6.839c2.573.69,5.164,1.52,6.81,3.761,1.661,2.257.649,4.768,1.486,7.142a.9.9,0,0,0,.365.455c.418.845,1.808,1.039,2.02-.109C1095.48,3463.666,1095.541,3459.557,1092.755,3456.076Z" fill="#fff1ca"/>
          <path id="Path_585" data-name="Path 585" d="M1208.351,3378.136a19.009,19.009,0,0,0-3.4-2.539,26.924,26.924,0,0,0-4.13-2.754,27.624,27.624,0,0,0-9.335-2.275c-4.206-.4-10.49-.766-14.351,1.862-.218.056-.428.106-.62.157-1.2.308-2.562,1.078-2.585,2.456a.4.4,0,0,0,.679.281c.016-.015.035-.027.052-.043,4.455-.145,8.813-.853,13.3-.726,1.079.031,2.154.107,3.226.21,2.29.34,4.585.905,6.868,1.231a22.869,22.869,0,0,0,3.681.813c1.736,1.286,3.673,3.19,5.945,2.952A.963.963,0,0,0,1208.351,3378.136Z" fill="#f6e0ac"/>
          <path id="Path_586" data-name="Path 586" d="M1276.385,3358.083a.432.432,0,0,0-.394-.393c-2.866-.383-5.94.711-8.535,1.854-1.585.7-3.3,1.414-4.894,2.288-.432.133-.867.269-1.3.409-4.088,1.328-8.756,2.99-11.614,6.363a.748.748,0,0,0,.725,1.234.88.88,0,0,0,.873.384c1.419.18,2.83.37,4.239.61-.189.093-.379.181-.571.262a.79.79,0,0,0-.349.14,8.949,8.949,0,0,1-.928.306,1.127,1.127,0,0,0,.3,2.2,2.717,2.717,0,0,0,1.912-.307,1.165,1.165,0,0,0,.631-.614c2.763-1.412,5.19-3.81,7.462-5.721a67.254,67.254,0,0,1,7.144-5.137,29.568,29.568,0,0,0,5.117-3.114.714.714,0,0,0,.133-.151l.086-.053A.318.318,0,0,0,1276.385,3358.083Z" fill="#f6e0ac"/>
          <path id="Path_587" data-name="Path 587" d="M1288.148,3412.441c.7-.857-14.979-23.078-22.479-27.156-1.135-.617-7.158-5.933-6.621-6.029,4.559-.808,7.082-1.171,3.495-4.032-.624-.5-7.036-1.485-10.219-1.615-4.235-.172-4.288-2.9-8.479-2.419-.431-1.777-23.533,3.76-25.707,6.133a33.784,33.784,0,0,0-10.231,14.6,93.738,93.738,0,0,0-5.79,13.364q-1.858,4.766-3.578,9.585c-1.563,3.3-5.652,31.571-31.433,47.625-1,.727-2.026,1.407-3.062,2.08a117.979,117.979,0,0,0-14.548,1.485c-9.726-.72-19.405-2.154-29.171-2.233-11-.092-16.532-1.179-25.961,4.624-1.148.706-6.983,5.118-7.128,6.152a6.443,6.443,0,0,0-.675,1.124c-.471.482-.9.964-1.268,1.407-2.033,2.436-3.83,4.934-4.36,8.045-.037.223.666,1.253.79,1.035.608-1.049,1.926-2.37,2.536-3.384-.355.942-2.673,6.5-2.933,8.257-.011.075-.705,1.858-.967,2.72-.107.357.4.685.655.38,1.144-1.371,3.157-3.75,3.068-3.536-.537,1.291-2.368,6.307-2.36,7.562a.362.362,0,0,0,.613.256c1.066-1.224,2.04-2.47,3.132-3.639a45.473,45.473,0,0,0-3.474,11.456,5.355,5.355,0,0,0-.265,2.147c.028.279.38.5.6.25,1.395-1.584,2.424-3.488,3.716-5.159.063-.08.13-.156.192-.234-5.438,21.445,3.531,40.258,12.965,60.1,9.862,19.185,10.714,38.17,11.178,47.783.01.269-.347,3.618-.359,4.84a1.366,1.366,0,0,0,1.009,1.325c2.875,1.185,7.391-.372,7.357-.966-2.757-19.2-1.77-46.41-1.7-53.568.072-6.692.6-12.986.738-19.677,10.219,4.862,35.764,7.589,44.887,6.1,18.108-3.229,24.595-11.143,27.188-13.267,0,.19-3.074,34.513,9.3,79.787.574.456,6.714.014,6.275-1.435-2.309-7.648-2.648-16.781-2.615-24.654.037-8.2.2-16.382.943-24.555,1.291-14.2,6.367-27.5,9.413-41.314.752-2.226,2.871-7.674,3.053-8.363,8.571-14.16,8.8-46.49,9.289-54.323.027-.453,2.121-9.7,3.374-13.9,1-3.348,4.346-12.062,4.963-13.53,1.489.676,20.547,5.746,30.659,6.589,9.684.806,21.145.828,26.358-4.72C1296.131,3429.568,1290.556,3418.989,1288.148,3412.441Z" fill="#f6e0ac" fill-rule="evenodd"/>
          <path id="Path_588" data-name="Path 588" d="M1144.825,3565.953c-1.041-.752-2.832-1.414-2.433-2.984.3-1.168,1.686-2.193,2.417-3.093,3.024-3.718,5.024-6.554,3.257-11.494-.077-.212-.461-.277-.5,0-.329,2.322-.185,4.684-1.41,6.766a49.228,49.228,0,0,1-3.658,4.633c-1.734,2.253-2.634,5,.017,6.864,1.252.879,3.757,2.923.615,4.594-1.424.758-2.46-.474-2.566-1.806a7.476,7.476,0,0,0-.563-3.26c-1.513-2.533-5.688-3.892-6.736.208-.308.906.547,2.449,1.124,3.379,1,1.609.056,4.573-2.343,3.4-1.594-.783-.088-4.827-.984-6.4-1.985-2.369-5.068-1.711-6.038.6-.4.957.458,2.5.691,3.411.534,2.086-2.354,3.785-3.668,1.843-1.016-1.506.859-3.083,1.317-4.38a3.034,3.034,0,0,0-.37-2.7,7.029,7.029,0,0,0-3.41-2.654c-2.294-1.117-3.33-3.026-4.673-5.083a.312.312,0,0,0-.577.157,6.691,6.691,0,0,0,1.671,4.5c1.5,1.784,3.95,2.186,5.346,4.036.77,1.018-1.278,3.5-1.393,4.683a4.279,4.279,0,0,0,1.024,3.346c1.335,1.659,4.272,1.324,5.471-.277a4.231,4.231,0,0,0,.9-3.447c-.187-.758-.477-1.467-.718-2.206-.453-1.377,1.169-2.6,2.931-1.29.794.5-.086,4.155-.046,4.743.153,2.22,1.633,3.33,3.769,3.486,2.011.148,3.159-1.523,3.276-3.327.251-1.908-1.362-4-1.7-4.405-.619-2.623,2.211-3.365,3.558-1.536.641.532.355,2.024.378,2.755a4.809,4.809,0,0,0,.864,3.087c1.791,2.282,6.4-.017,6.608-2.538A3.843,3.843,0,0,0,1144.825,3565.953Z" fill="#bd4238"/>
          <path id="Path_589" data-name="Path 589" d="M1286.927,3436.55a8.987,8.987,0,0,0-2.87.565c-3.315.074-3.536-2.325-5.647-2.325-10.205,0-19.5-.039-29.045-4.239-4.1-1.808-8.038-3.984-12.092-5.9-3.384-1.6-6.965-3.227-10.768-3.351-5.126-.168-5.185,7.649-.232,8.05,1.4,1.464,19.372,8.347,21.279,9.132,10.176,4.193,31.127,3.528,39.755-1.271C1287.522,3436.927,1287.226,3436.563,1286.927,3436.55Z" fill="#e5c988"/>
          <path id="Path_590" data-name="Path 590" d="M1243.9,3366.715c-1.127-4.312-29.557,8.706-34.867,20.01a4.079,4.079,0,0,0-.248,2.976,4.89,4.89,0,0,0-.289.431,36.221,36.221,0,0,0-3.245,7.359,4.267,4.267,0,0,0-.927,1.492l-4.841,12.908c-.645,1.721-3.227,7.365-2.166,8.211-.684,2.228,1.7.171.871,2.4q-1.788,4.8-3.828,9.486a.829.829,0,0,0-.288.3c-2.874,5.055-6.156,9.9-9.3,14.817-1.3,1.629-2.572,3.284-3.724,5.02-15.727,16.114-28.815,13.842-29.309,13.829-18.7-.1-44.924-8.858-60.188,5.325-10.443,8.339-10.525,24.768-6.249,36.478-1,8.668.083,17.239,2.274,25.77,2.5,9.722,17.762,42.812,18.533,45.444.941,3.227,1.25,6.726,2.108,9.983.012.079.024.156.038.235.272,1.614.481,3.313.837,4.962.108,1.215.351,9.944,1.053,12.918.087.368,2.46.745,2.783.274.937-1.365.53-3.609.535-5.2.006-2.693-.036-5.381-.173-8.067a47.67,47.67,0,0,0-1.288-10.35c-.178-2.471-5.247-32.83-5.771-40.316.107-1.283.2-2.562.379-3.786.061-.434.121-.865.181-1.3a18.945,18.945,0,0,0,5.856,3.616,1.089,1.089,0,0,0,1.2-.215c13.348,5.774,21.938,7.59,33.472,8.372,13.59.928,31.213-5.55,42.185-14.13-.334,9.552-.7,20.982.423,29.4,1.86,13.947,1.551,21.885,5.2,36.4.535,2.132,1.551,6.723,3.942,6.723,2.006,0,4.291-1.845,4.035-4.033-1.576-13.489-4.873-26.7-6.893-40.124-1.869-12.432-3.178-26.686,2.04-38.525.885-2.011.608-4.314-1.447-5.519a4.392,4.392,0,0,0-4.285.073.978.978,0,0,0-.784.382c-.25.31-.51.6-.767.9a1.09,1.09,0,0,0-.921.281c-1.576,1.422-3.127,2.883-4.711,4.3a4.816,4.816,0,0,0-3.1,1.146c-9.994,8.138-24.209,10.822-36.784,10.635a75.609,75.609,0,0,1-15.219-1.594c-.568-.125-1.154-.262-1.747-.413a3.348,3.348,0,0,0,1.674-.248.59.59,0,0,0,.118-.921c-.862-.781-2.279-.938-3.375-1.251a17.17,17.17,0,0,1-3.551-1.723c-.421-.231-1.079.162-.879.677a4.172,4.172,0,0,0,1.893,2.117,10.871,10.871,0,0,1-5.718-4.848,3.4,3.4,0,0,0-3.794-1.983c-1.7.111-5.607,4.377-7.084,1.687a.86.86,0,0,0-1.46-.6c-.158.19-.322.377-.486.561.007-.493.023-.988.035-1.48.838-2.691,1.942-5.312,2.863-7.955.244-.7-.567-1.1-1.115-.858a13.951,13.951,0,0,0-1.264.633q.185-1.905.468-3.8c1.415-2.559,3.065-5.02,4.278-7.666a.687.687,0,0,0-.932-.933c-.565.333-1.138.652-1.7.982a38.672,38.672,0,0,1,7.8-14.824,37.791,37.791,0,0,1,4.1-4.02c2.724-1.231,5.69-2.039,8.405-3.224a.648.648,0,0,0,0-1.113c-.389-.219-.776-.437-1.164-.657a84.07,84.07,0,0,1,13.174-5.839,3.493,3.493,0,0,0-.46.561.787.787,0,0,0,.883,1.147,32.171,32.171,0,0,0,3.453-1.243c1.071-.381,2.378-.611,2.881-1.759a.528.528,0,0,0-.186-.707,2.376,2.376,0,0,0-.268-.13c.586-.191,1.175-.383,1.758-.569,3.241-1.041,6.481-2.062,9.689-3.149,1.415-.1,2.839-.383,4.208-.6a75.172,75.172,0,0,1,9.453-1.141.788.788,0,0,0,.4-1.457,6.691,6.691,0,0,1-1.224-1.445c3.43-.929,6.925-1.6,10.336-2.594a.7.7,0,0,0,.305-1.153,4.716,4.716,0,0,0-1.761-1.028,20.058,20.058,0,0,0,2.836-.946,15.2,15.2,0,0,0,1.839-.881,4.018,4.018,0,0,0,3.311-1.79,144.068,144.068,0,0,0,14.556-27.1c.486-.842.983-1.675,1.512-2.482,1.871-2.863,3.616-5.7,5.271-8.672q.664-.726,1.344-1.439a1.012,1.012,0,0,0-.976-1.679c-.656.1-1.3.244-1.935.405.152-.466.291-.939.436-1.408.371-.807.734-1.588,1.12-2.289a56.426,56.426,0,0,0,3.192-6.265c.87-1.344,1.713-2.7,2.5-4.1a.862.862,0,0,0-1.17-1.172,16.668,16.668,0,0,1-2.263.952c.947-3.916,3.506-7.45,4.117-11.4a3.568,3.568,0,0,0,.124-1.4c0-.084.009-.168.012-.255a25.088,25.088,0,0,0,1.893-4.057c5.263-7.51,14.405-10.92,22.433-15.113a3.478,3.478,0,0,0,1.9-4.121.688.688,0,0,0,.067-.144A10.862,10.862,0,0,0,1243.9,3366.715Zm-54.847,161.2c-.082.278-.167.555-.244.833-.051-.132-.109-.264-.173-.391C1188.779,3528.213,1188.917,3528.064,1189.056,3527.917Z" fill="#e5c988"/>
          <path id="Path_591" data-name="Path 591" d="M1119.76,3494.84a7.359,7.359,0,0,0-3.737,3.135c-.385.529.378,1.29.905.906a37.249,37.249,0,0,0,3.555-2.8A.749.749,0,0,0,1119.76,3494.84Z" fill="#e5c988"/>
          <path id="Path_592" data-name="Path 592" d="M1124.159,3490.192c-.452-.77-1.6-.063-2.129.214a12.02,12.02,0,0,0-2.644,1.73c-.56.505.15,1.239.749.971.917-.415,1.8-.871,2.7-1.325C1123.325,3491.536,1124.618,3490.977,1124.159,3490.192Z" fill="#e5c988"/>
          <path id="Path_593" data-name="Path 593" d="M1128.428,3491.824a3.438,3.438,0,0,0-1.817.764,13.116,13.116,0,0,1-2.3,1.134.667.667,0,0,0,.353,1.286c1.43-.23,4.1-.994,4.159-2.8A.392.392,0,0,0,1128.428,3491.824Z" fill="#e5c988"/>
          <path id="Path_594" data-name="Path 594" d="M1137.872,3482.608c-.469-.8-1.669-.372-2.332-.119a10.236,10.236,0,0,0-2.7,1.584c-.8.63.22,1.795,1.048,1.357a27.8,27.8,0,0,1,2.694-1.284C1137.1,3483.938,1138.329,3483.389,1137.872,3482.608Z" fill="#e5c988"/>
          <path id="Path_595" data-name="Path 595" d="M1140.85,3486.083c-1.7-.742-3.856.669-5.253,1.565-.657.422-.241,1.61.553,1.315.849-.317,1.686-.659,2.526-1a5.513,5.513,0,0,0,2.266-1.17A.459.459,0,0,0,1140.85,3486.083Z" fill="#e5c988"/>
          <path id="Path_596" data-name="Path 596" d="M1149.356,3480.271a4.243,4.243,0,0,0-2.895.6,7.335,7.335,0,0,0-2.416,1.5c-.489.5-.011,1.484.717,1.231.829-.29,1.611-.678,2.42-1.018a4.521,4.521,0,0,0,2.464-1.6A.49.49,0,0,0,1149.356,3480.271Z" fill="#e5c988"/>
          <path id="Path_597" data-name="Path 597" d="M1155.158,3476.192a2.959,2.959,0,0,0-3.257,1.124.805.805,0,0,0-.121.948.781.781,0,0,0,1.069.28c.671-.483,1.608-.66,2.309-1.137C1155.544,3477.144,1155.684,3476.418,1155.158,3476.192Z" fill="#e5c988"/>
          <path id="Path_598" data-name="Path 598" d="M1151.02,3484.5a3.984,3.984,0,0,0-1.874.544,7.972,7.972,0,0,0-1.929,1.215c-.752.626.2,1.66.986,1.279,1.094-.535,2.928-1.07,3.34-2.352A.549.549,0,0,0,1151.02,3484.5Z" fill="#e5c988"/>
          <path id="Path_599" data-name="Path 599" d="M1162.137,3478.415a4.343,4.343,0,0,0-1.624.5,4.62,4.62,0,0,1-1.6.31.8.8,0,0,0,0,1.6c1.214-.028,3.125-.381,3.685-1.609A.538.538,0,0,0,1162.137,3478.415Z" fill="#e5c988"/>
          <path id="Path_600" data-name="Path 600" d="M1125.354,3527.87a21.138,21.138,0,0,0-2.98-1.918.8.8,0,0,0-.963,1.248,14.785,14.785,0,0,0,2.4,2c.761.564,1.975,1.614,2.977,1.211a.571.571,0,0,0,.411-.544C1127.1,3528.855,1126.118,3528.4,1125.354,3527.87Z" fill="#e5c988"/>
          <path id="Path_601" data-name="Path 601" d="M1137.066,3533.225a3.052,3.052,0,0,0-2.109-1.142,16.767,16.767,0,0,1-2.739-.813c-.719-.3-1.317.808-.752,1.3a5.96,5.96,0,0,0,2.348,1.246c.991.291,2.162.653,3.091.03A.453.453,0,0,0,1137.066,3533.225Z" fill="#e5c988"/>
          <path id="Path_602" data-name="Path 602" d="M1140.134,3536.283c-1.041-.721-2.659-.21-3.819-.152a.549.549,0,0,0,0,1.1c1.16.059,2.778.571,3.819-.151A.465.465,0,0,0,1140.134,3536.283Z" fill="#e5c988"/>
          <path id="Path_603" data-name="Path 603" d="M1146.323,3533.128c-.993-1-3.024-.492-4.269-.337a.662.662,0,0,0,0,1.323c1.245.156,3.276.663,4.269-.335A.466.466,0,0,0,1146.323,3533.128Z" fill="#e5c988"/>
          <path id="Path_604" data-name="Path 604" d="M1154.153,3533.835a15.028,15.028,0,0,0-2.144.784,7.687,7.687,0,0,1-2.425.38.607.607,0,0,0,0,1.213c1.708.007,4.02-.211,4.961-1.868A.351.351,0,0,0,1154.153,3533.835Z" fill="#e5c988"/>
          <path id="Path_605" data-name="Path 605" d="M1163.725,3529.66a1.935,1.935,0,0,0-1.3.153c-.539.192-1.07.4-1.62.559-1.207.357-.634,2.3.512,1.86.956-.37,2.437-.793,2.819-1.85A.591.591,0,0,0,1163.725,3529.66Z" fill="#e5c988"/>
          <path id="Path_606" data-name="Path 606" d="M1253.265,3370.844c-1.243-1.453-4.928-.36-6.588-.1-1.9.3-4.172.682-5.46,2.251-.366.445-.188,1.329.525,1.268,1.778-.153,3.5-.756,5.281-.976,1.625-.2,3.978.2,5.135-1.186C1252.354,3371.865,1253.466,3371.078,1253.265,3370.844Z" fill="#e5c988"/>
          <path id="Path_607" data-name="Path 607" d="M1260.885,3375.893a5.752,5.752,0,0,0-4.4-1.508,11.187,11.187,0,0,0-6.8.752.564.564,0,0,0-.292.551.935.935,0,0,0,.354,1.606,17.327,17.327,0,0,0,5.449-.2c1.809-.207,3.62.285,5.387-.029A.706.706,0,0,0,1260.885,3375.893Z" fill="#e5c988"/>
          <path id="Path_608" data-name="Path 608" d="M1206.639,3429.5a7.173,7.173,0,0,0-1.6,2.616,5.927,5.927,0,0,0-.679,3.568.473.473,0,0,0,.78.205,6.241,6.241,0,0,0,1.595-2.889,8.292,8.292,0,0,0,.68-3.178A.459.459,0,0,0,1206.639,3429.5Z" fill="#e5c988"/>
          <path id="Path_609" data-name="Path 609" d="M1211.408,3426.433c-.572,1.361-1.874,2.915-1.724,4.46a.509.509,0,0,0,.758.436c1.49-.9,1.931-3.147,2.13-4.739C1212.664,3425.866,1211.641,3425.88,1211.408,3426.433Z" fill="#e5c988"/>
          <path id="Path_610" data-name="Path 610" d="M1209.542,3434.362a.449.449,0,0,0-.746-.2,6.578,6.578,0,0,0-1.117,2.413,4.146,4.146,0,0,0-.427,2.683.445.445,0,0,0,.543.308c.984-.364,1.259-1.271,1.517-2.215A6.139,6.139,0,0,0,1209.542,3434.362Z" fill="#e5c988"/>
          <path id="Path_611" data-name="Path 611" d="M1214.3,3410.978a4.853,4.853,0,0,0-1.2,1.66,2.256,2.256,0,0,0-.114,2.012.512.512,0,0,0,.681.178c1.058-.447,1.062-1.948,1.736-2.746A.781.781,0,0,0,1214.3,3410.978Z" fill="#e5c988"/>
          <path id="Path_612" data-name="Path 612" d="M1230.057,3430.855c-2.23.247-6.094,11.217-6.826,12.981a72.12,72.12,0,0,0-3.609,11.949c-.934,4.158-1.607,8.4-2.158,12.622-.313,2.392-.674,4.839-.787,7.277a70.889,70.889,0,0,0-2.692,12.23c-.5,3.369-.822,6.765-1.188,10.15-.258,2.358-.756,4.936-.814,7.425a65.4,65.4,0,0,0-1.673,6.487c-.361,1.713-.763,3.533-1.12,5.389-.5,1.99-1.024,4.109-1.386,6.234a89.465,89.465,0,0,0-3.207,11.476c.052-.445.068-.9.126-1.322.171-1.252.478-2.473.683-3.718a.629.629,0,0,0-1.042-.609,6.3,6.3,0,0,0-1.873,3.711c-.242,1.259-.584,2.97.523,3.9a.522.522,0,0,0,.713,0,2.109,2.109,0,0,0,.662-.982c-.1.482-.2.969-.3,1.448a98.537,98.537,0,0,0-1.539,11.967c-.258,3.583-.873,7.831.125,11.328a.35.35,0,0,0,.669,0c.962-3.277,5.446-26.933,11.522-42.53,1.243-3.658,3.112-5.41,4.1-9.156.812-1.83,1.063-4.189,1.613-5.9,1.288-4.008,1.791-9.789,2.528-13.934a105.379,105.379,0,0,0,.753-16.4c.048-1.965.466-8.943.722-10.436.506-2.967,1.1-5.91,1.729-8.849.557-2.6,1.225-5.181,1.894-7.758.662-2.543,5.172-9.524,5.285-12.16C1233.516,3433.263,1230.2,3430.84,1230.057,3430.855Z" fill="#fff1ca"/>
          <path id="Path_613" data-name="Path 613" d="M1292.37,3425.178c0-12.258-17.636-32.951-22.834-36.866-.818-.841-9.274-8.961-11.331-9.12-.148-.013,4.412-1.665,6.028-2.594.262-.149-2.361-2.272-7.99-1.163a14.635,14.635,0,0,0-5.083,1.529.984.984,0,0,0-.481.814.7.7,0,0,0,.06.67c.971,1.454,7.428,8.984,8.417,10.114,2.422,2.758,4.887,5.48,7.338,8.214s4.844,5.524,7.26,8.294c1.333,1.531,2.622,3.139,3.988,4.665,1.593,2.83,3.568,5.451,5.331,8.172.755,1.165,1.471,2.35,2.114,3.569,4.418,6.8,3.707,9.135,4.386,11.213.207.634-1.441,4.026-1.046,3.927C1292.94,3435.544,1292.37,3427.06,1292.37,3425.178Z" fill="#fff1ca"/>
          <path id="Path_614" data-name="Path 614" d="M1205.729,3520.387c-.085-.54-.823-.521-1.071-.14a12.882,12.882,0,0,0-1.3,3.1c-.287.9-.733,2.013-.13,2.87a.6.6,0,0,0,.8.208c.882-.518,1.03-1.621,1.285-2.539A8.391,8.391,0,0,0,1205.729,3520.387Z" fill="#fff1ca"/>
          <path id="Path_615" data-name="Path 615" d="M1200.979,3537.516a3.937,3.937,0,0,0-.706.55,4.434,4.434,0,0,0-.663,1.055,3.192,3.192,0,0,0-.167,2.761.829.829,0,0,0,1.407,0,4.1,4.1,0,0,0,.4-2.076,4.777,4.777,0,0,1,.259-1.877C1201.742,3537.582,1201.26,3537.287,1200.979,3537.516Z" fill="#fff1ca"/>
          <path id="Path_616" data-name="Path 616" d="M1208.857,3508.713a9.931,9.931,0,0,0-1.464,3.9c-.25,1.1-.79,2.863.212,3.7a.64.64,0,0,0,.732.094c1.148-.5,1.089-2.109,1.243-3.186.2-1.386.475-2.753.594-4.149C1210.237,3508.293,1209.23,3508.21,1208.857,3508.713Z" fill="#fff1ca"/>
          <path id="Path_617" data-name="Path 617" d="M1205.619,3507.181a5.771,5.771,0,0,0-2.3,4.8,1.132,1.132,0,0,0,.561.981,1.045,1.045,0,0,0,1.147,0c.608-.331.555-1.022.589-1.61a7.494,7.494,0,0,1,.719-3.449C1206.6,3507.477,1206.047,3506.861,1205.619,3507.181Z" fill="#fff1ca"/>
          <path id="Path_618" data-name="Path 618" d="M1209.468,3498.831a35.142,35.142,0,0,0-1.078,3.405c-.165.764-.528,2.131.549,2.427,1.926.531,1.782-4.386,1.962-5.436A.744.744,0,0,0,1209.468,3498.831Z" fill="#fff1ca"/>
          <path id="Path_619" data-name="Path 619" d="M1206.24,3493.094a14.358,14.358,0,0,0-.981,4.169c-.009,1.291,1.849,1.239,1.97,0s.208-2.54.445-3.774A.744.744,0,0,0,1206.24,3493.094Z" fill="#fff1ca"/>
          <path id="Path_620" data-name="Path 620" d="M1211.462,3488.387a16.277,16.277,0,0,0-.445,2.592c-.084.894-.181,2.075.541,2.73a.6.6,0,0,0,.837,0,2.7,2.7,0,0,0,.6-2.106,14.468,14.468,0,0,1,.215-2.734C1213.45,3487.732,1211.755,3487.246,1211.462,3488.387Z" fill="#fff1ca"/>
          <path id="Path_621" data-name="Path 621" d="M1117.851,3544.145c.044-.5-3.9-2.6-4-2.423-1.018,1.77-.724,6.722-.782,8.7-.086,2.943-.121,5.891-.131,8.832-.01,2.753-.028,5.506-.01,8.258a54.891,54.891,0,0,0,.479,13.109c.051.265-.1,8.95.857,12.871a.565.565,0,0,0,1.081,0c1.07-4.311.583-9.2.6-13.617C1115.95,3576.375,1117.816,3544.555,1117.851,3544.145Z" fill="#fff1ca"/>
          <path id="Path_622" data-name="Path 622" d="M1133.324,3464.6c-4.269-.528-8.758-.207-13.057-.145a116.692,116.692,0,0,0-13.8.8c-9.125,1.229-16.219,5.952-20.291,14.221-.11.225.217.422.338.2,4.577-8.417,13.3-11.2,22.273-12.028,4.262-.392,8.556-.36,12.83-.385,3.879-.02,8.219.028,11.874-1.415A.639.639,0,0,0,1133.324,3464.6Z" fill="#fff1ca"/>
          <path id="Path_623" data-name="Path 623" d="M1097.293,3555.213c-1.948-7.523-4.843-14.753-6.622-22.348a112.852,112.852,0,0,1-2.548-24.512.576.576,0,0,0-1.127-.153c-2.274,7.592-.993,16.066.579,23.689,1.646,7.976,4.13,16.945,8.921,23.657A.438.438,0,0,0,1097.293,3555.213Z" fill="#fff1ca"/>
          <path id="Path_624" data-name="Path 624" d="M1124.455,3481.972c-1.149-.562-2.381.1-3.465.586a11.787,11.787,0,0,0-3.5,2.3.773.773,0,0,0,.747,1.284,25.055,25.055,0,0,0,3.49-1.427c1.01-.472,2.442-.786,2.964-1.856A.661.661,0,0,0,1124.455,3481.972Z" fill="#f6e0ac" fill-rule="evenodd"/>
          <path id="Path_625" data-name="Path 625" d="M1125.866,3475.915c-1.184-.912-3.069.053-4.234.588a7.3,7.3,0,0,0-1.918,1.3c-.414.382-.466.8-.728,1.223a.557.557,0,0,0,.871.673c-.181.022-.154.018.081-.014a3.373,3.373,0,0,0,.636-.3c.593-.308,1.208-.564,1.812-.846,1.187-.555,2.927-.63,3.7-1.794A.614.614,0,0,0,1125.866,3475.915Z" fill="#f6e0ac" fill-rule="evenodd"/>
          <path id="Path_626" data-name="Path 626" d="M1131.786,3477.431a3.461,3.461,0,0,0-1.639.427,16.011,16.011,0,0,0-1.709.849c-.558.321-.362,1.381.351,1.294,1.154-.144,2.723-.256,3.615-1.078A.883.883,0,0,0,1131.786,3477.431Z" fill="#f6e0ac" fill-rule="evenodd"/>
          <path id="Path_627" data-name="Path 627" d="M1115.647,3480.949c-1.694.582-3.84,1.707-4.687,3.376a.719.719,0,0,0,.976.975c.727-.337,1.388-.8,2.087-1.2.8-.444,1.617-.836,2.421-1.264A1.039,1.039,0,0,0,1115.647,3480.949Z" fill="#f6e0ac" fill-rule="evenodd"/>
          <path id="Path_628" data-name="Path 628" d="M1113.756,3489.033c-1.8.832-2.864,2.837-3.622,4.551-.426.968.88,1.8,1.449.847.92-1.538,2.434-2.647,3.486-4.083C1115.7,3489.488,1114.529,3488.676,1113.756,3489.033Z" fill="#f6e0ac" fill-rule="evenodd"/>
          <path id="Path_629" data-name="Path 629" d="M1106.913,3488.088c-.7-.054-1.194.6-1.574,1.1a7.752,7.752,0,0,0-.99,1.743c-.361.862,1.007,1.36,1.463.615.284-.462.591-.918.9-1.364s.8-.95.741-1.548A.559.559,0,0,0,1106.913,3488.088Z" fill="#f6e0ac" fill-rule="evenodd"/>
          <path id="Path_630" data-name="Path 630" d="M1112.522,3477.4c-1.056.356-1.87,1.183-2.931,1.567-.861.312-.5,1.687.383,1.386,1.2-.411,2.674-1.089,3.146-2.356A.489.489,0,0,0,1112.522,3477.4Z" fill="#f6e0ac" fill-rule="evenodd"/>
          <path id="Path_631" data-name="Path 631" d="M1134.766,3539.918c-.581-.787-1.52-.776-2.428-.907-1.072-.156-2.111-.437-3.192-.547-.654-.065-.923.822-.513,1.24a5.581,5.581,0,0,0,2.763,1.408c.95.241,2.576.518,3.262-.354A.7.7,0,0,0,1134.766,3539.918Z" fill="#f6e0ac" fill-rule="evenodd"/>
          <path id="Path_632" data-name="Path 632" d="M1141.8,3543.034a6.831,6.831,0,0,0-3.225-.1.965.965,0,0,0,0,1.846,24.318,24.318,0,0,0,3.242.637c.713.14,2.367.32,2.367-.842S1142.645,3543.207,1141.8,3543.034Z" fill="#f6e0ac" fill-rule="evenodd"/>
          <path id="Path_633" data-name="Path 633" d="M1118.062,3615.552a1.512,1.512,0,0,0-.425-.979c0-.011,0-.021,0-.033v-.05a1.184,1.184,0,0,0-.013-.182c-.11-2.217-.58-4.4-.532-6.626a1.272,1.272,0,0,0-1.262-1.264,9.92,9.92,0,0,0-4.064.505.992.992,0,0,0-.959.728,29.781,29.781,0,0,0-.577,8.5,1.32,1.32,0,0,0,1.3,1.3c1.927,0,4.065.1,5.855-.718A1.316,1.316,0,0,0,1118.062,3615.552Z" fill="#b16627" fill-rule="evenodd"/>
          <path id="Path_634" data-name="Path 634" d="M1096.039,3605.185a1.337,1.337,0,0,0-.982-1.468,16.022,16.022,0,0,0-3.966-.288c-1.156.012-2.96-.08-3.793.863a.816.816,0,0,0-.182.8,8.308,8.308,0,0,0-.856,3.652c-.175,1.747-.094,3.509-.177,5.257a1.374,1.374,0,0,0,1.012,1.328c2.12.564,6.62,1.781,8.082-.562a1.035,1.035,0,0,0,.988-.943C1096.53,3611.221,1097.1,3607.716,1096.039,3605.185Z" fill="#b16627" fill-rule="evenodd"/>
          <path id="Path_635" data-name="Path 635" d="M1204.881,3612.818a66.255,66.255,0,0,1-1.6-7.826,1.407,1.407,0,0,0-1.754-1.336c-1.325.418-2.738.271-4.053.705a1.13,1.13,0,0,0-.13.068,1.406,1.406,0,0,0-.423-.106.532.532,0,0,0-.463.264c-.733,1.137.415,3.382.677,4.6.242,1.12.455,2.244.652,3.372a5.727,5.727,0,0,0,.441,1.959.15.15,0,0,1,.025-.013,1.315,1.315,0,0,0,1.29.585,2.472,2.472,0,0,0,1.685.49,3.823,3.823,0,0,0,2.665-1.087A1.307,1.307,0,0,0,1204.881,3612.818Z" fill="#b16627" fill-rule="evenodd"/>
          <path id="Path_636" data-name="Path 636" d="M1222.451,3608.124c-.519-2.681-1.032-5.367-1.588-8.04a1.257,1.257,0,0,0-1.552-.881,17.212,17.212,0,0,0-3.223,1.359.958.958,0,0,0-.407.557.779.779,0,0,0-.178.331,9.487,9.487,0,0,0,.2,3.479,29.252,29.252,0,0,0,.964,4.473,1.332,1.332,0,0,0,1.776.911,3.924,3.924,0,0,0,3.2-.118,1.225,1.225,0,0,0,.631-1.029A1.5,1.5,0,0,0,1222.451,3608.124Z" fill="#b16627" fill-rule="evenodd"/>
          <path id="Path_637" data-name="Path 637" d="M1147.759,3539.354a3.478,3.478,0,0,0-2.069-.283c-.969.052-1.946-.014-2.916-.058-1.056-.046-1.157,1.445-.239,1.757,1.45.5,4.484,1.135,5.455-.538A.651.651,0,0,0,1147.759,3539.354Z" fill="#f6e0ac" fill-rule="evenodd"/>
          <path id="Path_638" data-name="Path 638" d="M1154.767,3540.921c-1.091.166-2.176.442-3.253.683a.85.85,0,0,0,0,1.629,7.75,7.75,0,0,0,3.159-.1c.775-.175,2.049-.4,2.049-1.431S1155.412,3540.822,1154.767,3540.921Z" fill="#f6e0ac" fill-rule="evenodd"/>
          <path id="Path_639" data-name="Path 639" d="M1162.8,3537.932a.668.668,0,0,0-.479-.48,3.531,3.531,0,0,0-1.526.151c-.59.122-1.2.137-1.782.3a.971.971,0,0,0,0,1.86,4.193,4.193,0,0,0,2.381.008A1.778,1.778,0,0,0,1162.8,3537.932Z" fill="#f6e0ac" fill-rule="evenodd"/>
          <path id="Path_640" data-name="Path 640" d="M1209.152,3406.91a7.724,7.724,0,0,0-1.324,1.781,4.856,4.856,0,0,0-.9,2.289.883.883,0,0,0,1.315.753,3.768,3.768,0,0,0,1.44-1.661,14.927,14.927,0,0,0,1.068-2.231C1211.083,3406.884,1209.817,3406.3,1209.152,3406.91Z" fill="#f6e0ac" fill-rule="evenodd"/>
          <path id="Path_641" data-name="Path 641" d="M1212.447,3395.755a23.016,23.016,0,0,0-1.6,2.6,4.065,4.065,0,0,0-.826,2.562.558.558,0,0,0,.676.383c.968-.152,1.494-1.129,1.9-1.922a17.906,17.906,0,0,0,1.143-3.081C1213.985,3395.486,1212.89,3395.137,1212.447,3395.755Z" fill="#f6e0ac" fill-rule="evenodd"/>
          <path id="Path_642" data-name="Path 642" d="M1200.5,3416.821a28.118,28.118,0,0,0-3.183,3.281c-.8.923-2.146,2.04-2,3.378a.377.377,0,0,0,.471.358c1.319-.3,2.166-1.928,2.986-2.9a8.709,8.709,0,0,0,2.216-3.83A.293.293,0,0,0,1200.5,3416.821Z" fill="#9c3f35"/>
          <path id="Path_643" data-name="Path 643" d="M1085.793,3481.469c-3.545,2.655-6.574,8.329-6.359,12.835a.432.432,0,0,0,.8.215c1.183-1.674,1.583-3.711,2.269-5.618a27.326,27.326,0,0,1,3.741-6.982C1086.434,3481.659,1086.052,3481.274,1085.793,3481.469Z" fill="#9c3f35"/>
          <path id="Path_644" data-name="Path 644" d="M1084.894,3488.9c-1.979,2.585-4.239,6.507-4.107,9.886.014.4.573.734.872.361a11.98,11.98,0,0,0,1.725-3.854,63.116,63.116,0,0,1,2.2-5.985A.4.4,0,0,0,1084.894,3488.9Z" fill="#9c3f35"/>
          <path id="Path_645" data-name="Path 645" d="M1085.056,3496.6c-2.15,3.251-4.67,8.6-3.62,12.564a.6.6,0,0,0,1.154,0c.725-1.793.8-3.856,1.273-5.736.548-2.2,1.325-4.332,1.965-6.5A.424.424,0,0,0,1085.056,3496.6Z" fill="#9c3f35"/>
          <path id="Path_646" data-name="Path 646" d="M1095.057,3603.717c-.084-.618-1.144.222-1.476.658-1.232.217-1.261,2.18-1.264,3.232,0,2.542-.439,5.122-.25,7.665a.611.611,0,0,0,.013.193.3.3,0,0,1,0,.042c.064.692.411.843.756.741.312.092,1.711-1.124,1.735-1.353a.663.663,0,0,0,.113-.284A42.143,42.143,0,0,0,1095.057,3603.717Z" fill="#de9026"/>
          <path id="Path_647" data-name="Path 647" d="M1117.023,3611.979c-.272-1.718-.187-3.65-.787-5.292-.081-.22-2.086-.07-2.13.189-.506,1.545.243,3.859.293,5.45a15.341,15.341,0,0,0,.424,4.514.74.74,0,0,0,1.062.431c.238-.106,1.877-.325,1.791-1.073C1117.515,3614.783,1117.245,3613.385,1117.023,3611.979Z" fill="#de9026"/>
          <path id="Path_648" data-name="Path 648" d="M1204.556,3613.29c-.4-1.444-.832-2.873-1.155-4.341a37.766,37.766,0,0,0-.831-4.44c-.118-.337-.675-.514-.852-.11l-.014.04a1.569,1.569,0,0,0-.237-.156.3.3,0,0,0-.443.18,15.592,15.592,0,0,0,.122,5.194c.179,1.545.194,3.577,1.168,4.867a.881.881,0,0,0,.945.387l.12-.023a.687.687,0,0,0,.475-.461A.92.92,0,0,0,1204.556,3613.29Z" fill="#de9026"/>
          <path id="Path_649" data-name="Path 649" d="M1221.825,3608.926a37.815,37.815,0,0,1-1.115-4.085c-.3-1.409-.178-2.942-.7-4.29-.145-.373-.728-.567-.944-.123-1.274,2.617.009,6.572.964,9.122C1220.522,3610.858,1222.37,3609.972,1221.825,3608.926Z" fill="#de9026"/>
          <path id="Path_650" data-name="Path 650" d="M1292.97,3420.216c-1.852-5.822-5.393-11.391-8.873-16.355a103.464,103.464,0,0,0-11.276-13.267,85.517,85.517,0,0,0-12.227-10.754,28.194,28.194,0,0,0,4.227-.877,1.065,1.065,0,0,0,.74-1.307,6.24,6.24,0,0,0-.54-1.014,29.527,29.527,0,0,0,9.6-8.153c2.122-2.592,5.178-6.707,5.42-10.346a.781.781,0,0,0-.041-1.336c-4.877-2.206-11.533.4-16.118,2.3a75.788,75.788,0,0,0-8.843,4.49,57.277,57.277,0,0,0-4.972,3.233c-1.141.825-2.1,1.838-3.2,2.7-1.1.13-2.214.286-3.329.4,1.12-1.126,2.177-2.458,2.083-3.826-.155-2.291-3.526-1.916-4.981-1.677a37.213,37.213,0,0,0-8.314,2.857,36.231,36.231,0,0,0-11.029,7.106c.069-.967-.114-1.938-.14-2.908a.92.92,0,0,0-1.366-.786,13.546,13.546,0,0,0-3.455,2.835,8.278,8.278,0,0,0-1.056,1.494,13.551,13.551,0,0,0-3.352,2.243c-.9.751-4.57-2.563-5.27-3.093a31.949,31.949,0,0,0-12.476-5.427c-7.715-1.737-17.617.215-23.185,6.191-.206.039-.474.826-.338.958.848,6.174,7.807,11.218,13.312,12.941,7.469,2.339,16.471.349,24-1.891-1.983,3.983-3.543,8.293-5.342,12.31-.971,2.163-1.846,4.367-2.695,6.58-.91,2.377-2.159,5.03-2.189,7.6a.629.629,0,0,0,1.089.417c-.052.075-.108.152-.157.227-.84,1.193-2.641,3.32-2.2,4.864a.481.481,0,0,0,.589.334c1.356-.437,1.892-2.346,2.553-3.493.858-1.489,2.16-2.835,2.8-4.42.09-.22-.168-.415-.365-.365a6.075,6.075,0,0,0-3.095,2.666c1.129-1.944,1.594-4.323,2.352-6.436.885-2.469,1.91-4.88,2.878-7.314,1.725-4.345,4.135-8.839,5.325-13.439.2-.062.4-.123.606-.187a1.056,1.056,0,0,0-.221-2.052.281.281,0,0,0-.492,0l-.059.109c-7.006,2.118-14.885,4-22.2,2.986-6.555-.915-11.115-5.355-14.576-10.587,1.234-.1,2.464-.533,3.677-.742a32.446,32.446,0,0,1,6.1-.324,71.352,71.352,0,0,1,11.482,1.337,116.676,116.676,0,0,1,12.776,3.209,8.851,8.851,0,0,0,4.207.558c.991-.228,1.307-.755,2.051-1.2a.675.675,0,0,0,.2-.188,10.126,10.126,0,0,0,2.563-2.179.516.516,0,0,0,.088-.045c.839-.654,1.338-1.868,2.07-2.665a10.888,10.888,0,0,1,1.625-1.417q.066.84.181,1.668c.091.666.727.747,1.195.487a.226.226,0,0,0,.305.044,79.519,79.519,0,0,1,15.971-7.735,19.929,19.929,0,0,1,5.472-1.347c1.861-.111.191,1.592-.3,2.172-.6.7-1.218,1.382-1.748,2.132a.863.863,0,0,0,.74,1.291c3.61-.39,7.587-1.489,11.184-.544a14.482,14.482,0,0,0-3.731,2.478.873.873,0,0,0,1.055,1.364c.321-.164.639-.339.958-.516,3.78-.495,9.89-.286,12.219,2.635-1.888.347-3.944.5-5.473,1.559a1.4,1.4,0,0,0-1.112.512.478.478,0,0,0,.167.639c.4.279,1.178.1,1.625.047.037-.006.076-.012.113-.016.13,0,.265,0,.4,0,3.583,3.819,7.849,7.114,11.576,10.808a111.423,111.423,0,0,1,11.14,12.716,78.949,78.949,0,0,1,8.326,14.138,22.313,22.313,0,0,1,2.283,9.471c.012,2.506.164,4.967-1.315,7.252s-5.786,1.811-6.635,1.684a19.4,19.4,0,0,1-7.512-3.263c-.229-.148-.425.134-.337.339,1.122,2.582,3.706,3.993,6.391,4.666-.425.153-.856.3-1.3.423a37.311,37.311,0,0,1-7.862,1.146,86.013,86.013,0,0,1-16.755-.811,97.453,97.453,0,0,1-17.49-4.069,77.5,77.5,0,0,1-9.092-3.608c-2.293-1.1-4.019-2.335-6.515-2.939-.247-.058-.377.238-.181.428a32.884,32.884,0,0,0,6.636,4.626c.988.532,2.005,1.017,3.033,1.47-4.7,8.508-7.448,18.389-8.88,27.924-.78,5.181-1.014,10.434-1.336,15.658-.167,2.735-1.063,15.7-.8,15.616-1.291,7.079-3.82,13.9-6.349,20.649-3.973,10.6-7.867,21.174-10.2,32.283-2.313,11.037-2.874,22.3-3.521,33.53a167.744,167.744,0,0,0-.282,17.441c.075,1.611.242,3.2.448,4.783a7.086,7.086,0,0,1-3.11,1.129,21.107,21.107,0,0,1-2.566-.048,276.648,276.648,0,0,1-5.409-33.5c-.657-7.215-.927-14.468-.943-21.71-.008-3.8.07-7.6.192-11.4.111-3.412.7-7.091.12-10.465-.048-.289-.456-.238-.536,0-.965,2.921-.9,6.3-1.072,9.353-2.455,1.413-4.568,3.29-6.949,4.824a49.956,49.956,0,0,1-9.342,4.43,57.154,57.154,0,0,1-21.159,3.279,121.359,121.359,0,0,1-21.586-2.568c-3.453-.7-16.189-3.8-18.085-6.046-2.244.311,2.318,3.669,4.67,4.577.137.052.281.1.419.149-1.025,12.859-1.235,25.925-1.393,38.824-.075,6.314.112,12.6.565,18.893.067.908.156,1.822.253,2.735-.93,1.206-2.544,1.833-5.018,1.045a133.516,133.516,0,0,0-1.485-15.206c-1.507-10.748-5.935-20.819-10.815-30.417-5.088-10.013-9.392-20.408-11.812-31.406-1.738-7.892-2.587-16.945-.58-24.988.264-1.06-.676-1.517-1.036-.525-2.532,6.948-2.355,15.075-1.464,22.238.059.481.131.961.2,1.44-.706,7.5.062,15.2.478,22.7.427,7.753.931,15.5,1.14,23.26.2,7.313.121,14.63.117,21.94a172.364,172.364,0,0,1-1.009,20.3.921.921,0,0,0,.9,1.018c.792,1.081,2.806,1.136,3.973,1.225a15.633,15.633,0,0,0,5.769-.572,1.043,1.043,0,0,0,.608-.476,1.1,1.1,0,0,0,.665-1.017c.586-9.1.465-18.219.914-27.316.21-4.249.737-8.437,1.254-12.655a69.215,69.215,0,0,1,1-6.973,90.884,90.884,0,0,1,6.573,18.176,101.433,101.433,0,0,1,1.9,15.159c.352,4.86.616,9.932-.222,14.754a1.123,1.123,0,0,0,.638,1.23c1.152,2.186,7.821,1.544,9.652.014a.9.9,0,0,0,.889-.955c-.13-4.586-1.14-9.186-1.459-13.775-.46-6.586-.472-13.24-.4-19.842.135-12.7,1.608-25.59.758-38.272,2.575.876,5.247,1.6,7.831,2.331a109.649,109.649,0,0,0,24.213,3.624,55.7,55.7,0,0,0,22.786-3.582,50.1,50.1,0,0,0,8.947-4.58,22.386,22.386,0,0,0,6.636-5.629q-.272,5.052-.333,10.118-.14,11.39.846,22.746c1.306,15.046,4.441,29.913,7.955,44.58a.817.817,0,0,0,.241.421c.013,2.68,6.56,1.675,7.916.764a.987.987,0,0,0,.381-1.293.712.712,0,0,0,0-.121c-.686-5.609-1.993-11.045-2.265-16.712a161.682,161.682,0,0,1,.43-17.441c.516-8.59,1.044-17.158,2.282-25.647.042,9.041,1.568,18.1,3.25,26.942,1.8,9.5,3.8,19.074,6.177,28.443a.837.837,0,0,0,.572.6c.495.942,2,1.11,2.982,1.113,1.075,0,2.98-.115,3.766-1.055a.945.945,0,0,0,.742-1.149c-1.973-6.915-2.391-14.339-3.049-21.486-.8-8.687-1.572-17.388-1.885-26.108-.3-8.232.171-16.452-.045-24.679-.1-4.04-.267-8.078-.273-12.12-.005-4.3.407-8.6.383-12.9a.332.332,0,0,0-.034-.145c2.719-7.3,5.806-15.547,5.2-23.392a73.227,73.227,0,0,0,.722-7.416c.43-5.474.614-10.963,1.22-16.423a91.164,91.164,0,0,1,3.358-16.095c1.392-4.641,3.362-9.084,4.806-13.7,1.485.62,2.99,1.182,4.5,1.724a97.857,97.857,0,0,0,36.484,4.85c3.814-.3,8.9-.908,12.193-3.348C1295.714,3436.183,1294.543,3425.163,1292.97,3420.216Zm-88.368-42.708c-4.378-1.126-8.631-2.267-13.1-2.982a62.552,62.552,0,0,0-10.779-.875,24.928,24.928,0,0,0-6.076.622c3.335-1.656,6.594-3.2,10.479-3.727a28.616,28.616,0,0,1,15.046,2.473c3.078,1.358,5.538,3.91,8.423,5.582C1207.222,3378.346,1205.805,3377.817,1204.6,3377.508Zm48.428-4.281c.708-.434,1.414-.87,2.115-1.3a.936.936,0,0,0,0-1.6,12.353,12.353,0,0,0-5.7-1c1.378-.844,2.692-1.942,3.928-2.7a84.218,84.218,0,0,1,8.77-4.593,49.656,49.656,0,0,1,8.664-3.118,22.91,22.91,0,0,1,5.233-.618c-3.408,1.234-6.66,3.554-9.488,5.5-3.506,2.419-8.013,5.384-10.182,9.17A20.219,20.219,0,0,0,1253.03,3373.227Zm4.735-.2c1.142-.8,2.16-1.757,3.228-2.673a74.575,74.575,0,0,1,6.5-4.951c3.455-2.363,7.427-3.969,10.884-6.281a24.461,24.461,0,0,1-.968,2.487,30.554,30.554,0,0,1-3.836,5.824,29.445,29.445,0,0,1-9.644,7.918A10.43,10.43,0,0,0,1257.765,3373.032Zm-163.278,241.819a17.856,17.856,0,0,1-4.719.394,13.2,13.2,0,0,1-2.438-.3,2.026,2.026,0,0,1-.232-.063,54.791,54.791,0,0,0,1.046-10.409,6.058,6.058,0,0,0,2.048.47c1.465.1,3.479.135,4.736-.8C1094.739,3607.718,1094.585,3611.292,1094.487,3614.851Zm3.133-41.632c-.555,4.241-1.182,8.446-1.5,12.718-.406,5.5-.795,11.055-1.1,16.6a.822.822,0,0,0-.417-.114,12.727,12.727,0,0,0-2.16.416,11.78,11.78,0,0,1-2.661.068,15.123,15.123,0,0,0-1.609-.171c.019-2.026.005-4.047.022-6.027.062-7.6.58-15.122.21-22.739-.375-7.762-1.05-15.51-1.656-23.258-.407-5.2-.574-10.441-.876-15.661a121.289,121.289,0,0,0,7.8,20.274c1.809,3.81,3.693,7.546,5.48,11.308A20.431,20.431,0,0,0,1097.62,3573.219Zm12.791,43.257a48.581,48.581,0,0,0,.773-9.19,5.773,5.773,0,0,0,2.611.1,6.9,6.9,0,0,0,2.609-.645c.363,3.042.79,6.091.961,9.12C1115.21,3616.18,1112.442,3617.641,1110.411,3616.476Zm93.492-2.532c-1.663.363-3.56.9-5.062.026q-1.056-4.458-2.048-8.94a7.478,7.478,0,0,0,2.525.1,7.061,7.061,0,0,0,3.073-.852C1202.882,3607.5,1203.5,3610.691,1203.9,3613.944Zm16.124-13.136a31.516,31.516,0,0,0,1.512,8.251,17.1,17.1,0,0,1-1.917.438,4.18,4.18,0,0,1-2.266-.31c-.356-2.668-.839-5.322-1.389-7.97a4.634,4.634,0,0,0,4.032-.666C1220.01,3600.638,1220.018,3600.724,1220.027,3600.808Zm-1.237-11.915c.3,3.2.67,6.4,1,9.6-.6.231-1.215.454-1.817.632a17.609,17.609,0,0,1-2.4.252c-1.2-5.5-2.62-10.974-3.715-16.47a342.756,342.756,0,0,1-4.638-34.726c.2-1.021.4-2.037.625-3.054,2.139-9.7,5.607-18.97,9.062-28.25-1.027,6.265-.355,13.059-.185,19.191.244,8.914-.251,17.815.083,26.733C1217.139,3571.512,1217.977,3580.211,1218.79,3588.893Z" fill="#9c3f35"/>
          <path id="Path_651" data-name="Path 651" d="M1198.809,3421.4c-5.561,5.981-7.86,14.408-12.563,21.017-10.581,16.347-20.846,19.89-22.912,20.544a41.4,41.4,0,0,1-13.187,1.454c-9.29-.156-18.588-1.469-27.859-2.043-8.784-.541-17.844-.258-25.845,3.577a26.05,26.05,0,0,0,.326-4.728,9.272,9.272,0,0,0-2.762-6.915c-2.129-2.046-5.172-2.5-7.972-2.853a30.9,30.9,0,0,1-4.562-.788c-1.764-.5-2.969-2.008-4.31-3.152-1.625.77-1.526,4.854-.765,7.113a4.927,4.927,0,0,0-2.606.033c-.493.185-.6.972,0,1.107l.046.007c.669,5.114-1.379,10.913,2.471,15.065,1.251,1.35,3.185,1.512,4.9,1.514a18.842,18.842,0,0,1,5.749.68,31.326,31.326,0,0,0-6.771,11.836.411.411,0,0,0,.748.315c3.912-7.723,9.219-14.134,17.237-17.768,9.586-4.343,21.026-3.055,31.186-2.223,8.414.69,16.955,1.86,25.408,1.493,20.507.067,29.717-18.647,32.036-21.9,5.148-7.225,8.361-15.291,12.247-23.2C1199.12,3421.435,1198.932,3421.268,1198.809,3421.4Zm-110.678,50.4c-2.694-2.567-7.273-.333-10.092-2.7-3.895-3.257-.969-9.073-2.855-13.124a7.739,7.739,0,0,1,1.374.275,4.526,4.526,0,0,1,.843.373,4.066,4.066,0,0,0,2.024,1.557c.213.069-.108-1.968-.475-2.318a13.905,13.905,0,0,1-1.1-2.581,26.542,26.542,0,0,1-.452-3.753c2.041,3.813,7.474,3.939,11.39,4.866a7.34,7.34,0,0,1,5.646,5.95c.509,2.276-.218,4.51-.172,6.74A30.568,30.568,0,0,0,1088.131,3471.806Z" fill="#9c3f35"/>
          <path id="Path_652" data-name="Path 652" d="M1291.683,3423.132a.914.914,0,0,0-.166-1.128.687.687,0,0,0-.064-.2c-.9-1.626-3.76-1.187-5.278-.947-1.767.277-3.954,1.121-4.64,2.906a.493.493,0,0,0,.162.577.72.72,0,0,0,.162.553c.973,1.136,3.786,1.774,5.274,1.678a3.474,3.474,0,0,0,.6-.094,21.7,21.7,0,0,0,.3,2.9,14.739,14.739,0,0,1-.684,6.554.709.709,0,0,0,1.179.684c2.629-2.423,1.482-7.311.432-10.646A10.287,10.287,0,0,0,1291.683,3423.132Z" fill="#651d14" fill-rule="evenodd"/>
          <path id="Path_653" data-name="Path 653" d="M1195.7,3508.444a7.915,7.915,0,0,0-2.45,1.93c-.869.838-1.951,1.513-2.761,2.393a.734.734,0,0,0,.517,1.244,5.434,5.434,0,0,0,3.226-1.749,6.393,6.393,0,0,0,2.148-3.134C1196.451,3508.757,1196.129,3508.277,1195.7,3508.444Z" fill="#fff1ca"/>
          <path id="Path_654" data-name="Path 654" d="M1196.15,3500.784a7.993,7.993,0,0,0-2.319,2.294c-.8.947-1.644,1.844-2.354,2.857-.44.627.383,1.237.956.959a8.731,8.731,0,0,0,2.836-2.378,5.167,5.167,0,0,0,1.575-3.336A.466.466,0,0,0,1196.15,3500.784Z" fill="#fff1ca"/>
          <path id="Path_655" data-name="Path 655" d="M1201.639,3501.4a.721.721,0,0,0-.32-.187.731.731,0,0,0-.712.187,8.268,8.268,0,0,0-1.562,3.119.591.591,0,0,0,.98.57,5.666,5.666,0,0,0,1.8-2.977A.736.736,0,0,0,1201.639,3501.4Z" fill="#fff1ca"/>
          <path id="Path_656" data-name="Path 656" d="M1184.551,3510.933a4.755,4.755,0,0,0-2.472,1.421,9.877,9.877,0,0,0-2.064,1.98.583.583,0,0,0,.5.872,5.334,5.334,0,0,0,2.695-1.316,3.985,3.985,0,0,0,1.806-2.492A.461.461,0,0,0,1184.551,3510.933Z" fill="#fff1ca"/>
          <path id="Path_657" data-name="Path 657" d="M1185.111,3516.256a36.236,36.236,0,0,0-3.2,2.725.693.693,0,0,0,.67,1.149,5.534,5.534,0,0,0,3.6-2.8C1186.474,3516.7,1185.81,3515.742,1185.111,3516.256Z" fill="#fff1ca"/>
          <path id="Path_658" data-name="Path 658" d="M1187.861,3503.823a6.059,6.059,0,0,0-1.835,1.8,5.821,5.821,0,0,0-1.131,2.156.481.481,0,0,0,.876.367c.764-1.258,2.663-2.405,2.64-4.006A.368.368,0,0,0,1187.861,3503.823Z" fill="#fff1ca"/>
          <path id="Path_659" data-name="Path 659" d="M1177.213,3519.072a.5.5,0,0,0-.463-.353c-.739-.09-1.384.712-1.888,1.152a11.926,11.926,0,0,1-1.974,1.39.729.729,0,0,0,.559,1.327,6.71,6.71,0,0,0,2.38-1.162C1176.469,3520.93,1177.529,3519.988,1177.213,3519.072Z" fill="#fff1ca"/>
          <path id="Path_660" data-name="Path 660" d="M1174.867,3513.954c-1.407.126-2.471,1.179-3.563,1.979-.574.417-.255,1.476.513,1.219a5.248,5.248,0,0,0,3.44-2.687A.4.4,0,0,0,1174.867,3513.954Z" fill="#fff1ca"/>
          <path id="Path_661" data-name="Path 661" d="M1165.724,3520.378a2.583,2.583,0,0,0-1.441.489c-.511.325-.984.705-1.462,1.077-.626.489.174,1.436.825,1.07.886-.5,2.142-1.057,2.5-2.086A.439.439,0,0,0,1165.724,3520.378Z" fill="#fff1ca"/>
          <path id="Path_662" data-name="Path 662" d="M1241.031,3416.744a4.94,4.94,0,1,1-4.941-4.941A4.942,4.942,0,0,1,1241.031,3416.744Z" fill="#f5bbbb"/>
          <path id="Path_663" data-name="Path 663" d="M1142.748,3552.612c-1.461,1.863-2.087,3.96-4.087,5.447-1.809,1.345-3.9,2-5.787,3.173-.287.179-.284.719.1.783,4.755.79,11.974-3.125,12-8.481C1144.98,3552.491,1143.479,3551.676,1142.748,3552.612Z" fill="#f9dda9"/>
        </g>
        <g id="Group_285" data-name="Group 285">
          <path id="Path_664" data-name="Path 664" d="M1223.978,3469.251c.627,3.183,1.032,5.142-.594,7.017-1.37,1.579-3.549-.193-4.254-1.455a12.783,12.783,0,0,1-1.21-3.987,4.72,4.72,0,0,0-.15-.925c-.021-.136-.038-.263-.06-.4A25.674,25.674,0,0,0,1223.978,3469.251Z" fill="#ffdd0a"/>
          <path id="Path_665" data-name="Path 665" d="M1216.641,3469.407c-.479,1.177-.528,2.591-.921,3.8a3.746,3.746,0,0,1-4.922,2.711c-3.453-.9-3.372-5.224-3.544-8.3a2.908,2.908,0,0,0-.006-.494A40.753,40.753,0,0,0,1216.641,3469.407Z" fill="#ffdd0a"/>
          <path id="Path_666" data-name="Path 666" d="M1206.345,3466.781a40.693,40.693,0,0,1-2.695,4.035c-1.672,1.846-4.721,2.663-6.819,1.036-1.75-1.353-1.911-3.714-1.491-6a16.915,16.915,0,0,1,.49-1.925,5.251,5.251,0,0,0,.9-1.963c.119.076.238.15.356.219A59.233,59.233,0,0,0,1206.345,3466.781Z" fill="#ffdd0a"/>
          <path id="Path_667" data-name="Path 667" d="M1195.983,3461.5c-2.666,2.6-7.071,5.155-10.288,1.775-2.538-2.673.436-6.057,2.233-8.079A45.974,45.974,0,0,0,1195.983,3461.5Z" fill="#ffdd0a"/>
          <path id="Path_668" data-name="Path 668" d="M1183.125,3447.482c-.065,2.373,2.166,4.938,3.728,6.611-3.2,1.318-8.947,2.291-10.319-1.925-.558-1.712,1.754-2.992,2.943-3.6A25.469,25.469,0,0,1,1183.125,3447.482Z" fill="#ffdd0a"/>
          <path id="Path_669" data-name="Path 669" d="M1225.881,3457.363c-.318,1.56-.429,3.18-.753,4.73-.381,1.838-.882,3.646-1.4,5.452-8.438,1.448-18.148-2.651-25.187-6.822a55.967,55.967,0,0,1-8.365-6.045,26.07,26.07,0,0,1-4.02-4.378,28.41,28.41,0,0,1-1.768-3.561.846.846,0,0,0,.392-.268,43.8,43.8,0,0,0,2.711-3.678c.345-.5.909-1.114,1.356-1.781.892,2.812,3.583,5.271,5.729,7.033a49.844,49.844,0,0,0,23.048,9.931C1220.066,3458.3,1223.482,3458.557,1225.881,3457.363Z" fill="#ee5f4e"/>
          <path id="Path_670" data-name="Path 670" d="M1226.186,3457.761a.694.694,0,0,0-.869-.662,22.4,22.4,0,0,1-9.422-.264c-1.164-.226-2.817-1.337-3.785-.163-.009.01-.013.022-.021.031a.065.065,0,0,1-.018.016c-1.469,2.067-3,5.993-2.339,8.553.691,2.688,3.982,2.715,6.272,2.853,1.871.109,3.883.536,5.613.145.581.011,1.162,0,1.728.019a.882.882,0,0,0,.685-.34.718.718,0,0,0,.181-.25,22.129,22.129,0,0,0,.814-2.53c0-.018.012-.037.016-.054a16.093,16.093,0,0,0,.978-4.818,4,4,0,0,0,.09-1.306C1226.135,3458.568,1226.157,3458.155,1226.186,3457.761Z" fill="#f07e6c"/>
          <path id="Path_671" data-name="Path 671" d="M1183.582,3447.615a.446.446,0,0,0-.069-.344c-1.385-2.056-5.139,1.019-6.224,2.053a3.907,3.907,0,0,0-1.443,3.43,3.217,3.217,0,0,0,2.631,2.855.269.269,0,0,0,.254-.117c.051,0,.1.012.15.009.2,0,.415-.219.327-.43a3.2,3.2,0,0,0-.215-.415.373.373,0,0,0,.131-.3c-.018-.659-.507-1.14-.589-1.784s.458-1.226.883-1.645c1.153-1.141,2.653-1.45,4.035-2.163A.687.687,0,0,0,1183.582,3447.615Z" fill="#f9bc11"/>
          <path id="Path_672" data-name="Path 672" d="M1226.1,3457.7a.862.862,0,0,0-.206-.47,1.009,1.009,0,0,0-.334-.4,2.315,2.315,0,0,0-1.547-.232,3.362,3.362,0,0,0-1.372.344,4.56,4.56,0,0,0-2.882.889c-1.213,1-1.222,3.38-1.355,4.8-.146,1.558-.242,3.506.88,4.77a2.941,2.941,0,0,0,3.762.518.676.676,0,0,0,.564-.206c.98-1.054.959-2.937,1.311-4.307C1225.383,3461.617,1226.321,3459.566,1226.1,3457.7Z" fill="#f4a79b"/>
          <path id="Path_673" data-name="Path 673" d="M1189.664,3456.164a.437.437,0,0,0-.325-.509.672.672,0,0,0-.642-.475c-.024,0-.046.007-.07.009a.357.357,0,0,0-.243-.085c-2.038.2-3.28,3.487-3.645,5.193-.4,1.88.487,4.888,2.735,4.973a2.951,2.951,0,0,0,.789.37.456.456,0,0,0,.557-.558c-.485-1.635-1.375-2.627-1.061-4.478C1188.042,3458.934,1189.315,3457.735,1189.664,3456.164Z" fill="#f9bc11"/>
          <path id="Path_674" data-name="Path 674" d="M1201.471,3472.293c-2.824-.144-3.725-1.827-3.607-4.429a20.121,20.121,0,0,1,.487-3.276,4.575,4.575,0,0,0,.272-2.341.353.353,0,0,0-.126-.162.629.629,0,0,0-.162-.279.846.846,0,0,0-.777-.252c-.009,0-.018.005-.029.009a.563.563,0,0,0-.621.006c-3.246,2.316-2.943,11.585,1.644,11.466a2.654,2.654,0,0,0,3.007-.527C1201.65,3472.432,1201.573,3472.3,1201.471,3472.293Z" fill="#f9bc11"/>
          <path id="Path_675" data-name="Path 675" d="M1214.821,3474.617c-1.7.545-3.215-.974-4.067-2.317-1.022-1.6-.759-3.542-1.4-5.239a.45.45,0,0,0-.363-.3.863.863,0,0,0-1.125-.218.694.694,0,0,0-.124.1.492.492,0,0,0-.357.22c-1.324,1.976-.289,5.973,1.2,7.648.931,1.048,4.12,3.14,5.4,1.6a1.63,1.63,0,0,0,1.293-1.048C1215.383,3474.809,1215.069,3474.537,1214.821,3474.617Z" fill="#f9bc11"/>
          <path id="Path_676" data-name="Path 676" d="M1224.278,3475.1c-1.382.87-2.648-.263-3.375-1.44-.832-1.343-.587-3.059-1.372-4.355a.417.417,0,0,0-.408-.2.583.583,0,0,0-.134-.043.968.968,0,0,0-.827.167.521.521,0,0,0-.542.312c-.9,2.015.451,5.032,1.863,6.519a4.226,4.226,0,0,0,2.981,1.217,2.2,2.2,0,0,0,1.62-.659,1.408,1.408,0,0,0,.554-1.308A.241.241,0,0,0,1224.278,3475.1Z" fill="#f9bc11"/>
          <path id="Path_677" data-name="Path 677" d="M1225.327,3468.529c1.06-3.7,3.034-8.707,1.661-12.539a.4.4,0,0,0-.763,0,.1.1,0,0,0,0,.033c-.126,0-.248.005-.373.012a43.689,43.689,0,0,1-8.563-.131,48.865,48.865,0,0,1-11.221-3.4c-6.546-2.819-12.321-6.67-15.986-12.849-.145-.244-.79-.957-.939-.957-1.226.009-2.057,1.612-2.685,2.483a47.578,47.578,0,0,0-3.159,4.719c-1.881-.277-4.431,1.053-5.862,1.925-1.889,1.151-3.174,3.006-2.677,5.254.912,4.141,6,4.778,9.81,3.556-1.544,2.309-1.856,5.713-.356,7.788,2.136,2.957,6.752,3.089,9.778,1.2-.838,3.024-.558,6.466,2.035,8.057a7.006,7.006,0,0,0,7.869-.482,8.854,8.854,0,0,0,1.866-1.851,7.364,7.364,0,0,0,4.525,6.443,5.183,5.183,0,0,0,6.147-1.8,8.756,8.756,0,0,0,.715-1.338c.889,2.806,2.982,5.011,6.337,4,3.545-1.066,2.959-7.089,1.727-9.875A.9.9,0,0,0,1225.327,3468.529Zm-40.546-22.058a43.8,43.8,0,0,0,2.711-3.678c.345-.5.909-1.114,1.356-1.781.892,2.812,3.583,5.271,5.729,7.033a49.844,49.844,0,0,0,23.048,9.931c2.441.325,5.857.581,8.256-.613-.318,1.56-.429,3.18-.753,4.73-.381,1.838-.882,3.646-1.4,5.452-8.438,1.448-18.148-2.651-25.187-6.822a55.967,55.967,0,0,1-8.365-6.045,26.07,26.07,0,0,1-4.02-4.378,28.41,28.41,0,0,1-1.768-3.561A.846.846,0,0,0,1184.781,3446.471Zm-8.247,5.7c-.558-1.712,1.754-2.992,2.943-3.6a25.469,25.469,0,0,1,3.648-1.082c-.065,2.373,2.166,4.938,3.728,6.611C1183.656,3455.411,1177.906,3456.384,1176.534,3452.168Zm9.161,11.111c-2.538-2.673.436-6.057,2.233-8.079a45.974,45.974,0,0,0,8.055,6.3C1193.317,3464.1,1188.912,3466.659,1185.695,3463.279Zm17.955,7.537c-1.672,1.846-4.721,2.663-6.819,1.036-1.75-1.353-1.911-3.714-1.491-6a16.915,16.915,0,0,1,.49-1.925,5.251,5.251,0,0,0,.9-1.963c.119.076.238.15.356.219a59.233,59.233,0,0,0,9.262,4.594A40.693,40.693,0,0,1,1203.65,3470.816Zm12.07,2.388a3.746,3.746,0,0,1-4.922,2.711c-3.453-.9-3.372-5.224-3.544-8.3a2.908,2.908,0,0,0-.006-.494,40.753,40.753,0,0,0,9.393,2.286C1216.162,3470.584,1216.113,3472,1215.72,3473.2Zm7.664,3.064c-1.37,1.579-3.549-.193-4.254-1.455a12.783,12.783,0,0,1-1.21-3.987,4.72,4.72,0,0,0-.15-.925c-.021-.136-.038-.263-.06-.4a25.674,25.674,0,0,0,6.268-.253C1224.6,3472.434,1225.01,3474.393,1223.384,3476.268Z" fill="#9c3f35"/>
        </g>
        <g id="Group_286" data-name="Group 286">
          <path id="Path_678" data-name="Path 678" d="M1229.508,3485.386a3.659,3.659,0,0,1,0,3.421c-.546,1.082-2.525,1.377-3.627.9-1.9-.821-1.93-2.961-.429-4.594C1227.042,3484.193,1228.953,3484.612,1229.508,3485.386Z" fill="#f9e55c"/>
          <path id="Path_679" data-name="Path 679" d="M1238.424,3482.794c5.09,6.137-4.76,10.2-9.784,11.77a20.685,20.685,0,0,1-7.814,1.015c-3.529-.291-5.034-3.411-3.389-6.234a24.655,24.655,0,0,1,2.7-2.274,21.637,21.637,0,0,1,3.565-1.917,5.478,5.478,0,0,0,.6,5.311,4.123,4.123,0,0,0,6.138.064,5.238,5.238,0,0,0,.542-5.681,3.234,3.234,0,0,0-1.909-1.512C1230.363,3482.621,1236.569,3480.96,1238.424,3482.794Z" fill="#f7a917"/>
          <path id="Path_680" data-name="Path 680" d="M1234.827,3480.336c-3.321-.091-7.17,1.112-9.624,1.967a24.588,24.588,0,0,0-6.912,3.572c.28-3.129-.672-7-.951-9.155a16.916,16.916,0,0,1,.544-7.6c.821-2.468,1.856-3.615,4.614-4.459a6.178,6.178,0,0,1,4.959,1.155c2.824,2.027,2.852,4.853,3.846,7.338C1232.131,3475.21,1233.136,3478.27,1234.827,3480.336Z" fill="#f9e55c"/>
          <path id="Path_681" data-name="Path 681" d="M1223.272,3463.624a5.441,5.441,0,0,0-.926.382c-8.209.669-5.617,14.789-4.472,20.559,0,.272,0,.538,0,.814a.728.728,0,0,0,1.148.61.838.838,0,0,0,.146-.069c3.582-2.168,2.561-6,2.1-9.552-.564-4.373-1.208-8.768,2.514-11.865C1224.2,3464.16,1223.754,3463.482,1223.272,3463.624Z" fill="#f9bc11"/>
          <path id="Path_682" data-name="Path 682" d="M1229.013,3468.977c-.576-1.239-2.032-3.676-3.727-2.989a.806.806,0,0,0-.556.978,3.962,3.962,0,0,0,1.074,1.37,6.345,6.345,0,0,1,1.151,1.843,11.612,11.612,0,0,1,.7,2.1,2.493,2.493,0,0,0,.552,1.408,1.127,1.127,0,0,0,1.731-.223C1230.7,3472.465,1229.432,3469.873,1229.013,3468.977Z" fill="#fff"/>
          <path id="Path_683" data-name="Path 683" d="M1230.942,3475.139a.935.935,0,0,0-1.542.405,1.942,1.942,0,0,0,.524,1.9,1.052,1.052,0,0,0,1,.262,1.025,1.025,0,0,0,.755-.988A2.542,2.542,0,0,0,1230.942,3475.139Z" fill="#fff"/>
          <path id="Path_684" data-name="Path 684" d="M1229.551,3486.363a1.861,1.861,0,0,0-2.143-1.138.658.658,0,0,0-.45.8c0-.12.012-.057.03.191a1.82,1.82,0,0,0,.15.316c.109.194.288.345.405.538.213.35,0,.59.039,1.059a.924.924,0,0,0,1.371.784A1.874,1.874,0,0,0,1229.551,3486.363Z" fill="#fff"/>
          <path id="Path_685" data-name="Path 685" d="M1239.889,3485.067a.535.535,0,0,0-.343-.091.42.42,0,0,0-.049-.007,12.638,12.638,0,0,0-7.695,1.93,2.33,2.33,0,0,0-.817,1.345,3.914,3.914,0,0,1-1.72,2.363,11.672,11.672,0,0,1-1.249.239,12.346,12.346,0,0,1-3.249-.49.942.942,0,0,0-.868-.573c-2.674.138-7.869,3.357-7.713,3.879.014.047.573.091.586.137a.917.917,0,0,0,.408.885c2.543,4.111,11.331.839,14.4-.467,2.758-1.173,9.219-3.781,8.85-7.644A1.08,1.08,0,0,0,1239.889,3485.067Z" fill="#f0c822"/>
          <path id="Path_686" data-name="Path 686" d="M1231.3,3473.149c-.994-2.485-1.022-5.311-3.846-7.338a6.178,6.178,0,0,0-4.959-1.155c-2.758.844-3.793,1.991-4.614,4.459a16.916,16.916,0,0,0-.544,7.6c.279,2.158,1.231,6.026.951,9.155a24.588,24.588,0,0,1,6.912-3.572c2.454-.855,6.3-2.058,9.624-1.967C1233.136,3478.27,1232.131,3475.21,1231.3,3473.149Zm-1.795,15.658a3.659,3.659,0,0,0,0-3.421c-.555-.774-2.466-1.193-4.056-.274-1.5,1.633-1.469,3.773.429,4.594C1226.983,3490.184,1228.962,3489.889,1229.508,3488.807Zm-4.951-26.025c3.52.566,5.73,3.413,6.854,5.338,1.447,2.485,2.265,5.159,3.459,7.757a15.989,15.989,0,0,0,4.7,5.923.328.328,0,0,1,.081.1c2.932,1.871,2.485,6.282.149,8.795-3.054,3.285-7.595,5.35-11.9,6.427-3.244.819-8.908,1.994-11.413-1.125a6.421,6.421,0,0,1-1.168-5.927c-.113-.107.753-3.361.79-4.978a30.4,30.4,0,0,0-.275-4.595c-.387-2.912-.994-5.86-.563-8.794.528-3.553,2.609-7.187,5.921-8.467-.469-1.363-.129-3.036-.306-4.433-.08-.608-.217-1.775-.959-1.947a1.253,1.253,0,0,0-1.435.5.411.411,0,0,1-.107.107.145.145,0,0,1-.184.215c.032.019-.338-.259-.307-.24a.492.492,0,0,1-.225-.56c.661-2.5,3.678-2.325,4.722-.249a9.427,9.427,0,0,1,.334,6.2A7.493,7.493,0,0,1,1224.557,3462.782Zm6.428,22.066a5.238,5.238,0,0,1-.542,5.681,4.123,4.123,0,0,1-6.138-.064,5.478,5.478,0,0,1-.6-5.311,21.637,21.637,0,0,0-3.565,1.917,24.655,24.655,0,0,0-2.7,2.274c-1.645,2.823-.14,5.943,3.389,6.234a20.685,20.685,0,0,0,7.814-1.015c5.024-1.567,14.874-5.633,9.784-11.77-1.855-1.834-8.061-.173-9.348.542A3.234,3.234,0,0,1,1230.985,3484.848Z" fill="#9c3f35"/>
        </g>
        <g id="Group_288" data-name="Group 288">
          <path id="Path_687" data-name="Path 687" d="M1274.184,3444.976c.518,1.619,3.082,6.287,1.233,7.663-1.157.862-3.127.561-3.588-.849-.464-1.387.015-3.168.327-4.542a36.3,36.3,0,0,1,1.478-4.364A15.042,15.042,0,0,0,1274.184,3444.976Z" fill="#a7b80a"/>
          <path id="Path_688" data-name="Path 688" d="M1275.417,3452.639c1.849-1.376-.715-6.044-1.233-7.663a15.042,15.042,0,0,1-.55-2.092,36.3,36.3,0,0,0-1.478,4.364c-.312,1.374-.791,3.155-.327,4.542C1272.29,3453.2,1274.26,3453.5,1275.417,3452.639Zm-.383-11.676c.074,4.431,6.84,14.308-1.329,13.968-5.2-.213-4.121-6.159-2.227-10.639a14.2,14.2,0,0,0-1.537,2.059,46.153,46.153,0,0,0-3.158,6.686c-.587,1.42-.946,2.97-2.249,3.862a.708.708,0,0,1-1.062-.608c-.062-1.886,1.294-3.877,2.041-5.591a31.388,31.388,0,0,1,3.749-6.731,25.389,25.389,0,0,1,4.745-4.523,37.319,37.319,0,0,1,4.63-3.378s1.152.687,1.211.718c-1.215,1.686-3.141,2.788-4.727,4.1C1275.093,3440.913,1275.062,3440.934,1275.034,3440.963Z" fill="#748a07"/>
          <g id="Group_287" data-name="Group 287">
            <path id="Path_689" data-name="Path 689" d="M1259.09,3463.887c3.5-1.264,6.68,2.619,3.637,5.46-1.635,1.276-4.486.956-5.476-.98A2.972,2.972,0,0,1,1259.09,3463.887Z" fill="#ffdd0c"/>
            <path id="Path_690" data-name="Path 690" d="M1273.518,3463.768c.489,1.993-.044,4.142-1.658,5.094-1.77,1.038-4.53.463-6.3-.289-.016-.012-.032-.006-.053-.012a3.817,3.817,0,0,0-1.135-4.356,12.307,12.307,0,0,1,2.15-1.807C1269.369,3460.531,1272.651,3460.229,1273.518,3463.768Z" fill="#eb412e"/>
            <path id="Path_691" data-name="Path 691" d="M1270.392,3475.35c.494,2.442-2.125,4.072-4.165,4.513-3.306.71-4.4-3-4.93-5.783a6.864,6.864,0,0,0-.194-2.13,6.367,6.367,0,0,0,2.8-1.173,4.407,4.407,0,0,0,.975-1.016,4.858,4.858,0,0,0,2.882,1.484c.269.328.544.635.813.934A6.646,6.646,0,0,1,1270.392,3475.35Z" fill="#eb412e"/>
            <path id="Path_692" data-name="Path 692" d="M1260.053,3472.023c-.5,1.978-.844,3.763-2.157,5.479-1.753,2.285-5.432,1.951-7.331.005-1.42-1.454-.382-3.745.571-5.127,1.112-1.62,2.817-2.125,4.372-3.072a2.72,2.72,0,0,0,.167.307A5.061,5.061,0,0,0,1260.053,3472.023Z" fill="#eb412e"/>
            <path id="Path_693" data-name="Path 693" d="M1264.534,3458.051a5.461,5.461,0,0,1-1.484,4.922,1.054,1.054,0,0,0-.081.114,4.768,4.768,0,0,0-4.3-.281c-.2-.576-.6-1.044-.77-1.657a5.633,5.633,0,0,1,.113-2.636,4.319,4.319,0,0,1,3.384-3.592C1263.2,3454.6,1264.227,3456.609,1264.534,3458.051Z" fill="#eb412e"/>
            <path id="Path_694" data-name="Path 694" d="M1256.121,3459.966a4.993,4.993,0,0,0,1.582,3.286,5.182,5.182,0,0,0-2.589,4.631c-3.554.549-8.652-.161-8.809-4.7-.087-2.537,2.63-4.06,4.75-4.583A5.337,5.337,0,0,1,1256.121,3459.966Z" fill="#eb412e"/>
            <path id="Path_695" data-name="Path 695" d="M1256.65,3461.034a4.659,4.659,0,0,0-.924-1.749,4.972,4.972,0,0,0-3.828-1.405c-2.592-.02-6.85,1.87-6.575,5.019a.551.551,0,0,0,1.018.277c.1-.155.2-.294.308-.438a.566.566,0,0,0,.172-.143,6.028,6.028,0,0,1,4.721-1.9c2.388,0,3.854,1.937,4.873,3.631.532.886,1.186.532,1.172-.527A4.7,4.7,0,0,0,1256.65,3461.034Z" fill="#f58e80"/>
            <path id="Path_696" data-name="Path 696" d="M1265.032,3457.01c-.538-2.2-3.515-3.146-5.552-1.886a.39.39,0,0,0,.2.721c1.708.137,3.877,4.252,1.738,6.689a1.019,1.019,0,0,0,.951.726C1264.7,3463.389,1265.385,3458.457,1265.032,3457.01Z" fill="#f58e80"/>
            <path id="Path_697" data-name="Path 697" d="M1257.076,3469.642a1.741,1.741,0,0,0-.242,0,1,1,0,0,0-1.055-.637c-2.86.461-5.244,3.475-5.9,6.137a5.126,5.126,0,0,0,1.07,4.369,2.037,2.037,0,0,0,1.913,1.2.477.477,0,0,0,.467-.339c.033-.006.066,0,.1-.01a.448.448,0,0,0,.2-.744,4.022,4.022,0,0,1-1.086-1.421,2.338,2.338,0,0,1-.143-.755,5.538,5.538,0,0,1,1.272-2.974,13.718,13.718,0,0,1,2.29-2.4c.566-.494,1.275-.829,1.643-1.507A.617.617,0,0,0,1257.076,3469.642Z" fill="#f58e80"/>
            <path id="Path_698" data-name="Path 698" d="M1270.394,3475.425a6.843,6.843,0,0,0-2.54-4.11,6.041,6.041,0,0,0-2.855-1.752.82.82,0,0,0-.992.992c4.587,3.593,4.386,7.293,2.933,9.343-.139.345.26.648.568.57a3.607,3.607,0,0,0,1.4-.7h0C1270.758,3479.473,1270.625,3476.8,1270.394,3475.425Z" fill="#f58e80"/>
            <path id="Path_699" data-name="Path 699" d="M1274.322,3464.562c.014-2.439-1.568-4.534-4.215-4.168-1.951.272-6.229,1.946-6,4.478a.687.687,0,0,0,.858.654,6.648,6.648,0,0,0,1.773-1.053,10.39,10.39,0,0,1,3.148-1.079,3.311,3.311,0,0,1,2.135.35c.927.551.935,1.626,1.383,2.5a.4.4,0,0,0,.731-.094A2.99,2.99,0,0,0,1274.322,3464.562Z" fill="#f58e80"/>
            <path id="Path_700" data-name="Path 700" d="M1275.679,3465.006c-.269-2.915-2.155-5.852-4.883-5.6a7.133,7.133,0,0,0-4.67,1.985c1.136-3.707-.356-8.785-4.745-8.408-2.737.236-4.518,2.339-5.135,4.889-.011.042-.022.1-.033.151a6.866,6.866,0,0,0-4.6-1.448c-2.968.276-5.614,1.54-6.869,4.373-1.21,2.734.312,5.939,2.609,7.365a10.564,10.564,0,0,0,3.953,1.425,14.185,14.185,0,0,0-2.372,2.56,5.322,5.322,0,0,0,.19,6.9c3.556,3.685,8.675,2.616,11.011-1.623,1.162,2.679,4.027,4.748,6.927,4.125,2.684-.575,5.125-2.966,5.213-5.616a6.453,6.453,0,0,0-2.416-4.454,5.254,5.254,0,0,0-.549-.39C1272.63,3470.745,1276,3468.509,1275.679,3465.006Zm-17.67-6.493a4.319,4.319,0,0,1,3.384-3.592c1.807-.323,2.834,1.688,3.141,3.13a5.461,5.461,0,0,1-1.484,4.922,1.054,1.054,0,0,0-.081.114,4.768,4.768,0,0,0-4.3-.281c-.2-.576-.6-1.044-.77-1.657A5.633,5.633,0,0,1,1258.009,3458.513Zm-11.7,4.674c-.087-2.537,2.63-4.06,4.75-4.583a5.337,5.337,0,0,1,5.066,1.362,4.993,4.993,0,0,0,1.582,3.286,5.182,5.182,0,0,0-2.589,4.631C1251.56,3468.432,1246.462,3467.722,1246.305,3463.187ZM1257.9,3477.5c-1.753,2.285-5.432,1.951-7.331.005-1.42-1.454-.382-3.745.571-5.127,1.112-1.62,2.817-2.125,4.372-3.072a2.72,2.72,0,0,0,.167.307,5.061,5.061,0,0,0,4.378,2.408C1259.553,3474,1259.209,3475.786,1257.9,3477.5Zm-.645-9.135a2.972,2.972,0,0,1,1.839-4.48c3.5-1.264,6.68,2.619,3.637,5.46C1261.092,3470.623,1258.241,3470.3,1257.251,3468.367Zm13.141,6.983c.494,2.442-2.125,4.072-4.165,4.513-3.306.71-4.4-3-4.93-5.783a6.864,6.864,0,0,0-.194-2.13,6.367,6.367,0,0,0,2.8-1.173,4.407,4.407,0,0,0,.975-1.016,4.858,4.858,0,0,0,2.882,1.484c.269.328.544.635.813.934A6.646,6.646,0,0,1,1270.392,3475.35Zm1.468-6.488c-1.77,1.038-4.53.463-6.3-.289-.016-.012-.032-.006-.053-.012a3.817,3.817,0,0,0-1.135-4.356,12.307,12.307,0,0,1,2.15-1.807c2.851-1.867,6.133-2.169,7,1.37C1274.007,3465.761,1273.474,3467.91,1271.86,3468.862Z" fill="#9c3f35"/>
          </g>
        </g>
        <g id="Group_289" data-name="Group 289">
          <path id="Path_701" data-name="Path 701" d="M1211.648,3376.227a3.109,3.109,0,0,1,.409,2.384c-.284,1.661-1.484,3.451-3.291,3.619-2.47.22-4.519-2.024-3.368-4.325a4.759,4.759,0,0,1,4.955-2.575A4.1,4.1,0,0,1,1211.648,3376.227Z" fill="#ffdd0c"/>
          <path id="Path_702" data-name="Path 702" d="M1219.954,3370.187a5.257,5.257,0,0,1-.285,5.243c-1.1,1.857-3.626,1.529-5.572,1.917a4.763,4.763,0,0,0-.775-2.1,3.813,3.813,0,0,0-1.349-1.146c.026-.065.036-.13.057-.192a.354.354,0,0,0,.091-.1c.948-1.431,1.212-3.076,2.438-4.367A3.418,3.418,0,0,1,1219.954,3370.187Z" fill="#ed422e"/>
          <path id="Path_703" data-name="Path 703" d="M1215.279,3379.315c2.684.834,6.724,2.839,5.106,6.405-.9,1.97-3.568,2.76-5.515,2.277-2.054-.522-3.222-2.362-4.322-4.041a6.34,6.34,0,0,0,3.521-4.786,10.41,10.41,0,0,0,1.134.108A.264.264,0,0,0,1215.279,3379.315Z" fill="#ed422e"/>
          <path id="Path_704" data-name="Path 704" d="M1208.56,3384.371c.086,2.129-.188,4.627-1.724,6.1a4.829,4.829,0,0,1-5.219.58c-2.271-1.1-2.3-3.825-1.334-5.792a8.528,8.528,0,0,1,1.468-2.014,6.073,6.073,0,0,0,2-1.456,5.97,5.97,0,0,0,4.175,2.544A4.9,4.9,0,0,0,1208.56,3384.371Z" fill="#ed422e"/>
          <path id="Path_705" data-name="Path 705" d="M1204.478,3375.963a.546.546,0,0,0,.081.059,8.755,8.755,0,0,0-.759.947,4.311,4.311,0,0,0-.754,2.917c-2.908,1.231-7.255,2.958-9.127-.394-1.338-2.4.625-4.6,2.808-5.252,2.076-.622,4.292-.078,6.316.453C1203.51,3375.1,1203.994,3375.521,1204.478,3375.963Z" fill="#ed422e"/>
          <path id="Path_706" data-name="Path 706" d="M1206.905,3364.087c3.34.022,5.051,2.485,4.6,5.577a41.893,41.893,0,0,0-.923,4.153,1.9,1.9,0,0,0-.308.077,4.882,4.882,0,0,0-4.207.859,1.028,1.028,0,0,0-.166-.216c-1.473-1.467-3.631-2.564-4.335-4.625C1200.368,3366.416,1203.93,3364.064,1206.905,3364.087Z" fill="#ed422e"/>
          <path id="Path_707" data-name="Path 707" d="M1210.618,3365.917c-1.039-1.825-3.98-2.706-5.606-1.162a.224.224,0,0,0,.1.37c1.222.427,2.2.412,3.118,1.451.844.951.9,2.4,1.022,3.591a11.6,11.6,0,0,1-.24,1.956,3.629,3.629,0,0,1-.168.367c-.654,1.215,1.281,2.277,1.814,1.061a6.18,6.18,0,0,0,.42-1.91A6.8,6.8,0,0,0,1210.618,3365.917Z" fill="#f58e80"/>
          <path id="Path_708" data-name="Path 708" d="M1204.377,3375.908c-1.014-2.094-4.011-2.352-6.358-1.963a8.287,8.287,0,0,0-1.005.067c-2.108.279-3.636,1.719-3.307,3.907a.362.362,0,0,0,.6.159c1.988-2.5,5.55-2.057,8.236-.879a.987.987,0,0,0,.639.062c.041.013.079.032.121.047A.962.962,0,0,0,1204.377,3375.908Z" fill="#f58e80"/>
          <path id="Path_709" data-name="Path 709" d="M1204.636,3382.2a1.158,1.158,0,0,0-1.6,0,4.408,4.408,0,0,0-.334.315,5.825,5.825,0,0,0-2.409,2.271,5.548,5.548,0,0,0-.4,4.636.457.457,0,0,0,.874,0,11.771,11.771,0,0,1,1.764-3.747c.6-.719,1.74-1,2.072-1.84.011-.01.025-.019.034-.028A1.148,1.148,0,0,0,1204.636,3382.2Z" fill="#f58e80"/>
          <path id="Path_710" data-name="Path 710" d="M1220.371,3369.721c-.968-2.652-3.763-2.212-5.558-.747a8.961,8.961,0,0,0-2.321,3.151c-.365.785-.953,2.085-.409,2.905a.515.515,0,0,0,.69.18,3.29,3.29,0,0,0,1.046-1.311,17.294,17.294,0,0,1,1.635-2.185,4.829,4.829,0,0,1,1.657-1.38c.716-.3,1.117.216,1.675.606A1.086,1.086,0,0,0,1220.371,3369.721Z" fill="#f58e80"/>
          <path id="Path_711" data-name="Path 711" d="M1220.239,3381.309c-1.366-1.623-4.515-3.4-6.472-1.882-.571.444-.266,1.268.208,1.613a9.686,9.686,0,0,0,1.978.788,6.246,6.246,0,0,1,1.933,1.353c1.27,1.278.624,2.439.912,3.963a1.15,1.15,0,0,0,1.666.677C1223.122,3386.639,1221.539,3382.849,1220.239,3381.309Z" fill="#f58e80"/>
          <path id="Path_712" data-name="Path 712" d="M1210.353,3375.33a4.759,4.759,0,0,0-4.955,2.575c-1.151,2.3.9,4.545,3.368,4.325,1.807-.168,3.007-1.958,3.291-3.619a3.109,3.109,0,0,0-.409-2.384A4.1,4.1,0,0,0,1210.353,3375.33Zm1.155-5.666c.448-3.092-1.263-5.555-4.6-5.577-2.975-.023-6.537,2.329-5.336,5.825.7,2.061,2.862,3.158,4.335,4.625a1.028,1.028,0,0,1,.166.216,4.882,4.882,0,0,1,4.207-.859,1.9,1.9,0,0,1,.308-.077A41.893,41.893,0,0,1,1211.508,3369.664Zm1.637-.846c2.227-2.65,6.127-3.747,8.465-.139a7.256,7.256,0,0,1-.027,7.872,6.234,6.234,0,0,1-2.387,1.958c3.063,1.441,5.076,5.7,3.027,8.74-1.624,2.408-5.078,4.086-7.956,2.931a8.872,8.872,0,0,1-3.8-2.927,6.286,6.286,0,0,1-2.474,5.467,7.161,7.161,0,0,1-7.617.45,6.057,6.057,0,0,1-2.479-7.545,8.253,8.253,0,0,1,1.011-1.669c-3.384.243-7-1.413-7.52-4.852-.738-4.869,4.937-8.2,9.186-6.964a5.966,5.966,0,0,1-1.06-4.421,6.7,6.7,0,0,1,6.2-5.6c3.21-.226,6.685,1.092,7.417,4.508A6.513,6.513,0,0,1,1213.145,3368.818Zm6.809,1.369a3.418,3.418,0,0,0-5.4-.743c-1.226,1.291-1.49,2.936-2.438,4.367a.354.354,0,0,1-.091.1c-.021.062-.031.127-.057.192a3.813,3.813,0,0,1,1.349,1.146,4.763,4.763,0,0,1,.775,2.1c1.946-.388,4.474-.06,5.572-1.917A5.257,5.257,0,0,0,1219.954,3370.187Zm.431,15.533c1.618-3.566-2.422-5.571-5.106-6.405a.264.264,0,0,1-.076-.037,10.41,10.41,0,0,1-1.134-.108,6.34,6.34,0,0,1-3.521,4.786c1.1,1.679,2.268,3.519,4.322,4.041C1216.817,3388.48,1219.485,3387.69,1220.385,3385.72Zm-13.549,4.751c1.536-1.473,1.81-3.971,1.724-6.1a4.9,4.9,0,0,1-.633-.038,5.97,5.97,0,0,1-4.175-2.544,6.073,6.073,0,0,1-2,1.456,8.528,8.528,0,0,0-1.468,2.014c-.968,1.967-.937,4.7,1.334,5.792A4.829,4.829,0,0,0,1206.836,3390.471Zm-2.277-14.449a.546.546,0,0,1-.081-.059c-.484-.442-.968-.86-1.435-1.27-2.024-.531-4.24-1.075-6.316-.453-2.183.653-4.146,2.852-2.808,5.252,1.872,3.352,6.219,1.625,9.127.394a4.311,4.311,0,0,1,.754-2.917A8.755,8.755,0,0,1,1204.559,3376.022Z" fill="#9c3f35"/>
        </g>
      </g>
      <g id="Group_290" data-name="Group 290">
        <path id="Path_713" data-name="Path 713" d="M1243.347,3389.968c-1.718-.8-4.09.716-5.356,1.843-1.235,1.1-2.477,2.943-2.125,4.668a.331.331,0,0,0,.6.084,6.778,6.778,0,0,1,3.183-3.207,17,17,0,0,1,2.134-.9,3.9,3.9,0,0,0,1.789-.79A1.088,1.088,0,0,0,1243.347,3389.968Z" fill="#9c3f35"/>
        <path id="Path_714" data-name="Path 714" d="M1245.953,3396.934a8.406,8.406,0,0,0-8.414,5.686,10.135,10.135,0,0,0,2.655,10.485c2.758,2.64,8.777,2.693,10.617-1.031.231-.468-.223-.847-.664-.758a38.986,38.986,0,0,1-4.195,1.07c-1.513.135-3.125-1.039-4.133-2.036-1.755-1.733-2.043-4.5-1.5-6.774,1.079-4.544,9-6.11,11.622-2.171.314.471,1.816,1.842,1.727,1.249C1252.988,3398.136,1248.745,3396.947,1245.953,3396.934Z" fill="#e5c988"/>
        <path id="Path_715" data-name="Path 715" d="M1254.567,3406.338a7.826,7.826,0,1,1-7.918-8.022A7.971,7.971,0,0,1,1254.567,3406.338Z" fill="#fff"/>
        <path id="Path_716" data-name="Path 716" d="M1254.588,3408.63c-.681,3.7-3.888,6.205-7.164,5.6s-5.381-4.086-4.7-7.784,3.886-6.205,7.163-5.6S1255.268,3404.934,1254.588,3408.63Z"/>
        <path id="Path_717" data-name="Path 717" d="M1249.262,3404.273a2.57,2.57,0,1,1-2.585-2.848A2.728,2.728,0,0,1,1249.262,3404.273Z" fill="#fff"/>
      </g>
    </g>
  </g>
</svg>
