<svg xmlns="http://www.w3.org/2000/svg" xmlns:xlink="http://www.w3.org/1999/xlink" viewBox="0 0 83.88 83.87"><defs><style>.cls-1{isolation:isolate;}.cls-2,.cls-6{fill:#fff;}.cls-3{fill:url(#Áåçûìÿííûé_ãðàäèåíò_82);}.cls-4{fill:url(#radial-gradient);}.cls-5{fill:url(#radial-gradient-2);}.cls-6{opacity:0.32;mix-blend-mode:overlay;}</style><linearGradient id="Áåçûìÿííûé_ãðàäèåíò_82" x1="1.34" y1="41.93" x2="82.54" y2="41.93" gradientUnits="userSpaceOnUse"><stop offset="0" stop-color="#ffc731"/><stop offset="0.78" stop-color="#df7203"/><stop offset="1" stop-color="#f57e04"/></linearGradient><radialGradient id="radial-gradient" cx="-52.43" cy="-3.13" r="14.63" gradientUnits="userSpaceOnUse"><stop offset="0" stop-color="#fff200"/><stop offset="1" stop-color="#f7941e"/></radialGradient><radialGradient id="radial-gradient-2" cx="-62.41" cy="-22.28" r="16.42" gradientUnits="userSpaceOnUse"><stop offset="0" stop-color="#fff200"/><stop offset="1" stop-color="#f15a29"/></radialGradient></defs><title>arrow-backAsset 1</title><g class="cls-1"><g id="Layer_2" data-name="Layer 2"><g id="Layer_1-2" data-name="Layer 1"><path class="cls-2" d="M41.94,0a41.14,41.14,0,0,0-9.6,1.12h0c-.26.21-2.44,1.94-3.37,1.94s-3.15.23-3.38.26h0Q24.28,3.87,23,4.5A41.95,41.95,0,1,0,41.94,0Z"/><path class="cls-3" d="M82.54,41.93A40.6,40.6,0,1,1,23.64,5.7c.79-.41,1.61-.79,2.43-1.14h0c.22,0,2.37-.24,3.28-.24s3-1.68,3.26-1.88a0,0,0,0,1,0,0,39.63,39.63,0,0,1,9.29-1.08A40.59,40.59,0,0,1,82.54,41.93Z"/><circle class="cls-4" cx="41.94" cy="41.93" r="32.13"/><path class="cls-5" d="M32.65,2.42c-.1.35-1.32,5.05-1.64,5.05s-4.64-2.72-4.93-2.91c.22,0,2.37-.24,3.28-.24s3-1.68,3.26-1.88A0,0,0,0,1,32.65,2.42Z"/><path class="cls-6" d="M82.54,41.93a40.27,40.27,0,0,1-7.3,23.21c-30.39-.12-58.8-37-51.6-59.44.79-.41,1.61-.79,2.43-1.14h0c.22,0,2.37-.24,3.28-.24s3-1.68,3.26-1.88a0,0,0,0,1,0,0,39.63,39.63,0,0,1,9.29-1.08A40.59,40.59,0,0,1,82.54,41.93Z"/><path class="cls-2" d="M36.25,61.47a5.89,5.89,0,0,0,4.6,2.22h0a5.41,5.41,0,0,0,4.48-8.44l-4.43-6.53,14.56,2a7,7,0,1,0,0-13.71l-14.53,1.9,4.4-6.48a5.41,5.41,0,0,0-4.48-8.44h0a5.88,5.88,0,0,0-4.6,2.21L23.6,42a2.92,2.92,0,0,0,0,3.68Z"/></g></g></g></svg>