<svg xmlns="http://www.w3.org/2000/svg" xmlns:xlink="http://www.w3.org/1999/xlink" viewBox="0 0 435.02 461.75"><defs><style>.cls-1{fill:none;}.cls-15,.cls-2{fill:#293d7c;}.cls-3{fill:#40b0bc;}.cls-4{fill:#35bc6f;}.cls-5{fill:#60d882;}.cls-6{clip-path:url(#clip-path);}.cls-7{fill:#37c47a;}.cls-8{fill:#dd9b0a;}.cls-9{fill:#e8f8fc;}.cls-10{fill:#c7e7f3;}.cls-11{fill:#dd377b;}.cls-12,.cls-16{fill:#f95a97;}.cls-13{fill:#5870a1;}.cls-14{fill:#fff;}.cls-15{font-size:182.35px;font-family:FFYaseer-Regular, FF Yaseer;}.cls-16{font-size:117.75px;font-family:HacenDigitalArabiaXL;}.cls-17{fill:#f970b5;}</style><clipPath id="clip-path"><rect class="cls-1" x="7.84" y="15.89" width="394.89" height="412.62"/></clipPath></defs><title>charsAndNumbersAsset 1</title><g id="Layer_2" data-name="Layer 2"><g id="Layer_1-2" data-name="Layer 1"><path class="cls-2" d="M315.69,320.43c-4,8.2-19.69,9.48-23.16,4.38,2.56,31.54-.54,73.3-13.13,48.68-4.74-9.3-11.48-73.3-4.37-77.31,10-5.65,16.23,14.77,21.33,14.77,8.94,0,5.47-13.68,14.77-14.41,8.21-.73,7.48,9.67,14.22,6.57,3.47-1.64,2.56-7.3,2.92-10.4.73-5.47,4.56-8.57,9.67-5.47,10.57,6.38,6,34.47-7.66,35.74C326.27,323.53,320.43,320.43,315.69,320.43Z"/><circle class="cls-3" cx="214.28" cy="240.54" r="197.1" transform="translate(-107.32 221.97) rotate(-45)"/><path class="cls-4" d="M186.09,427.58q9.48.92,19.19.93t19.19-.93L387.72,306.69a197,197,0,0,0,15-75.63c0-109-88.4-197.44-197.45-197.44S7.84,122,7.84,231.06a196.83,196.83,0,0,0,15,75.63Z"/><path class="cls-5" d="M361.71,246.06H231.3a26.06,26.06,0,0,0-26,26V402.49a26.06,26.06,0,0,0,19.15,25.09,197.56,197.56,0,0,0,163.3-120.93V272.08a26.05,26.05,0,0,0-26-26Z"/><g class="cls-6"><path class="cls-7" d="M261.4,402.49V272.08a26.05,26.05,0,0,1,26-26H231.3a26.06,26.06,0,0,0-26,26V402.49a26.06,26.06,0,0,0,19.15,25.09A195.81,195.81,0,0,0,267,418.64a25.86,25.86,0,0,1-5.64-16.15Z"/></g><path class="cls-8" d="M179.26,246.06H48.85a26.06,26.06,0,0,0-26,26v34.57a197.61,197.61,0,0,0,163.3,120.94,26.07,26.07,0,0,0,19.15-25.1V272.08a26.05,26.05,0,0,0-26-26Z"/><path class="cls-8" d="M77.16,272.08a26.05,26.05,0,0,1,26-26H48.85a26.06,26.06,0,0,0-26,26v34.57a197.91,197.91,0,0,0,54.33,74.63Z"/><path class="cls-9" d="M366.34,280.92a19.41,19.41,0,0,1-13.87-13.5,4.79,4.79,0,0,0-4.63-3.42H245.18a4.78,4.78,0,0,0-4.63,3.42,19.42,19.42,0,0,1-13.87,13.5,4.66,4.66,0,0,0-3.46,4.55V389.1a4.66,4.66,0,0,0,3.46,4.55,19.42,19.42,0,0,1,13.87,13.5,4.79,4.79,0,0,0,4.63,3.43H287.6a198.32,198.32,0,0,0,82.2-70.32V285.47a4.67,4.67,0,0,0-3.46-4.55Z"/><path class="cls-10" d="M262.69,264H245.18a4.78,4.78,0,0,0-4.63,3.42,19.42,19.42,0,0,1-13.87,13.5,4.66,4.66,0,0,0-3.46,4.55V389.1a4.66,4.66,0,0,0,3.46,4.55,19.42,19.42,0,0,1,13.87,13.5,4.79,4.79,0,0,0,4.63,3.43h17.51a26.06,26.06,0,0,1-1.29-8.09V272.08a26,26,0,0,1,1.29-8.08Z"/><path class="cls-9" d="M183.89,280.92A19.44,19.44,0,0,1,170,267.42a4.77,4.77,0,0,0-4.63-3.42H62.73a4.78,4.78,0,0,0-4.63,3.42,19.42,19.42,0,0,1-13.87,13.5,4.66,4.66,0,0,0-3.46,4.55v54.79A198.25,198.25,0,0,0,123,410.58h42.42a4.79,4.79,0,0,0,4.63-3.43,19.41,19.41,0,0,1,13.87-13.5,4.67,4.67,0,0,0,3.46-4.55V285.47a4.67,4.67,0,0,0-3.46-4.55Z"/><path class="cls-10" d="M62.73,264a4.78,4.78,0,0,0-4.63,3.42,19.42,19.42,0,0,1-13.87,13.5,4.66,4.66,0,0,0-3.46,4.55v54.75a197.19,197.19,0,0,0,36.39,41.06V272.08A26,26,0,0,1,78.45,264Z"/><path class="cls-11" d="M212.82,213.16,139.35,85.9a29.36,29.36,0,0,1,3.14-33.74L102.16,75.45a28.61,28.61,0,0,0-10.47,39l71.63,124.06a28.62,28.62,0,0,0,39,10.46l36.72-21.2a29.36,29.36,0,0,1-26.26-14.65Z"/><path class="cls-12" d="M326.41,177.38,202.36,249a28.61,28.61,0,0,1-39-10.46L91.69,114.49a28.61,28.61,0,0,1,10.47-39L226.21,3.82a28.62,28.62,0,0,1,39,10.46l71.62,124.06a28.61,28.61,0,0,1-10.46,39Z"/><path class="cls-9" d="M249.75,34.53a21.31,21.31,0,0,1-20.61-5.22,5.25,5.25,0,0,0-6.28-.71L125.2,85a5.25,5.25,0,0,0-2.52,5.8,21.33,21.33,0,0,1-5.78,20.46,5.14,5.14,0,0,0-.8,6.23L173,216.05a5.12,5.12,0,0,0,5.79,2.43,21.33,21.33,0,0,1,20.61,5.22,5.26,5.26,0,0,0,6.29.72L303.36,168a5.26,5.26,0,0,0,2.53-5.79,21.32,21.32,0,0,1,5.78-20.47,5.11,5.11,0,0,0,.79-6.22L255.54,37a5.13,5.13,0,0,0-5.79-2.43Z"/><path class="cls-10" d="M139.35,85.9a29.06,29.06,0,0,1-3-7.36L125.2,85a5.25,5.25,0,0,0-2.52,5.8,21.33,21.33,0,0,1-5.78,20.46,5.14,5.14,0,0,0-.8,6.23L173,216.05a5.12,5.12,0,0,0,5.79,2.43,21.33,21.33,0,0,1,20.61,5.22,5.26,5.26,0,0,0,6.29.72l10.78-6.23a29.13,29.13,0,0,1-3.67-5Z"/><path class="cls-13" d="M278.44,140.47a7.3,7.3,0,0,0-9.27-3l-76.31-60a7.3,7.3,0,0,0-11.73,6.78c1.4,9.73,12.12,84.33,13.81,96.08a7.3,7.3,0,0,0,7.95,12.21l7.23-4.17a7.3,7.3,0,0,0-1.18-13.18l-3-21.08L241,133.84,257.72,147a7.3,7.3,0,0,0,10.82,7.61l7.23-4.18a7.28,7.28,0,0,0,2.67-10Zm-74.76-1.95-5.51-38.34,30.45,23.94Z"/><path class="cls-2" d="M208.94,175.16l-3-21.08,19-11a8.35,8.35,0,0,1-8.48-12l-12.76,7.37-5.51-38.34h0a8.35,8.35,0,0,1,6.09-13.77l-11.41-9a7.3,7.3,0,0,0-11.73,6.78c1.4,9.73,12.12,84.33,13.81,96.08a7.3,7.3,0,0,0,7.95,12.21l7.23-4.17a7.3,7.3,0,0,0-1.18-13.18Z"/><path class="cls-12" d="M384.73,201.84H373.19a7,7,0,1,1,0-13.9h11.54a7,7,0,0,1,0,13.9Z"/><path class="cls-12" d="M428.05,201.84H416.51a7,7,0,0,1,0-13.9h11.54a7,7,0,1,1,0,13.9Z"/><path class="cls-12" d="M400.62,186a7,7,0,0,1-6.94-6.95V167.46a7,7,0,0,1,13.91,0V179A7,7,0,0,1,400.62,186Z"/><path class="cls-12" d="M400.62,229.28a7,7,0,0,1-6.94-6.94V210.78a7,7,0,1,1,13.91,0v11.56A6.94,6.94,0,0,1,400.62,229.28Z"/><path class="cls-14" d="M9.48,177.46H3.57a3.57,3.57,0,1,1,0-7.13H9.48a3.57,3.57,0,0,1,0,7.13Z"/><path class="cls-14" d="M31.67,177.46H25.76a3.57,3.57,0,0,1,0-7.13h5.91a3.57,3.57,0,1,1,0,7.13Z"/><path class="cls-14" d="M17.62,169.33a3.58,3.58,0,0,1-3.56-3.57v-5.92a3.57,3.57,0,0,1,7.13,0v5.92A3.57,3.57,0,0,1,17.62,169.33Z"/><path class="cls-14" d="M17.62,191.51A3.57,3.57,0,0,1,14.06,188V182a3.57,3.57,0,0,1,7.13,0V188A3.56,3.56,0,0,1,17.62,191.51Z"/><text class="cls-15" transform="translate(266.46 377.68)">3</text><path class="cls-13" d="M337.94,287.24c-5.11-3.1-8.94,0-9.67,5.47-.27,2.3.16,6-1,8.42A87.61,87.61,0,0,1,323,321.84c2.64.74,5.19,1.42,7.26,1.14C344,321.71,348.51,293.62,337.94,287.24Z"/><text class="cls-16" transform="translate(63.23 356.07)">пе</text><path class="cls-17" d="M154.61,331.49A29.07,29.07,0,0,0,152.4,323a25.71,25.71,0,0,0-5-7.48,35.83,35.83,0,0,0-8.94-6.52l-7.19,12.36a18.63,18.63,0,0,1,6.9,5.84,17,17,0,0,1,3.05,7.84c-2.22.31-4.7.63-7.42,1s-5.55.63-8.48.89l-2.24.19a125.32,125.32,0,0,1,6.58,13.85q3.51-.4,6.93-1,3.7-.6,7.07-1.43a39.22,39.22,0,0,0,5.92-1.93,14.18,14.18,0,0,0,4.06-2.47,4.12,4.12,0,0,0,1.49-3.05A88,88,0,0,0,154.61,331.49Z"/><polygon class="cls-17" points="111.69 367.39 121.99 377.68 132.28 367.39 121.99 357.16 111.69 367.39"/></g></g></svg>