<svg xmlns="http://www.w3.org/2000/svg" xmlns:xlink="http://www.w3.org/1999/xlink" viewBox="0 0 83.88 83.87"><defs><style>.cls-1{isolation:isolate;}.cls-2,.cls-6{fill:#fff;}.cls-3{fill:url(#Áåçûìÿííûé_ãðàäèåíò_82);}.cls-4{fill:url(#radial-gradient);}.cls-5{fill:url(#radial-gradient-2);}.cls-6{opacity:0.32;mix-blend-mode:overlay;}.cls-7{fill:#e5e5e5;}</style><linearGradient id="Áåçûìÿííûé_ãðàäèåíò_82" x1="1.34" y1="41.93" x2="82.54" y2="41.93" gradientUnits="userSpaceOnUse"><stop offset="0" stop-color="#ffc731"/><stop offset="0.78" stop-color="#df7203"/><stop offset="1" stop-color="#f57e04"/></linearGradient><radialGradient id="radial-gradient" cx="-52.43" cy="-3.13" r="14.63" gradientUnits="userSpaceOnUse"><stop offset="0" stop-color="#fff200"/><stop offset="1" stop-color="#f7941e"/></radialGradient><radialGradient id="radial-gradient-2" cx="-62.41" cy="-22.28" r="16.42" gradientUnits="userSpaceOnUse"><stop offset="0" stop-color="#fff200"/><stop offset="1" stop-color="#f15a29"/></radialGradient></defs><title>coinAsset 6</title><g class="cls-1"><g id="Layer_2" data-name="Layer 2"><g id="Layer_1-2" data-name="Layer 1"><path class="cls-2" d="M41.94,0a41.14,41.14,0,0,0-9.6,1.12h0c-.26.21-2.44,1.94-3.37,1.94s-3.15.23-3.38.26h0Q24.28,3.87,23,4.5A41.95,41.95,0,1,0,41.94,0Z"/><path class="cls-3" d="M82.54,41.93A40.6,40.6,0,1,1,23.64,5.7c.79-.41,1.61-.79,2.43-1.14h0c.22,0,2.37-.24,3.28-.24s3-1.68,3.26-1.88a0,0,0,0,1,0,0,39.63,39.63,0,0,1,9.29-1.08A40.59,40.59,0,0,1,82.54,41.93Z"/><circle class="cls-4" cx="41.94" cy="41.93" r="32.13"/><path class="cls-5" d="M32.65,2.42c-.1.35-1.32,5.05-1.64,5.05s-4.64-2.72-4.93-2.91c.22,0,2.37-.24,3.28-.24s3-1.68,3.26-1.88A0,0,0,0,1,32.65,2.42Z"/><path class="cls-6" d="M82.54,41.93a40.27,40.27,0,0,1-7.3,23.21c-30.39-.12-58.8-37-51.6-59.44.79-.41,1.61-.79,2.43-1.14h0c.22,0,2.37-.24,3.28-.24s3-1.68,3.26-1.88a0,0,0,0,1,0,0,39.63,39.63,0,0,1,9.29-1.08A40.59,40.59,0,0,1,82.54,41.93Z"/><path class="cls-2" d="M40.49,25.61Z"/><path class="cls-2" d="M52.3,35l-2.39-1.13A9.47,9.47,0,0,0,46,32.69q-2.94,0-2.94,2.73,0,1.56,2.73,3.24c2.91,1.77,4.61,2.86,5.08,3.26a7.4,7.4,0,0,1,2.74,5.74q0,7.1-8.79,9.47c.14,2.79.21,4.33.21,4.63s-.19.28-.58.31a5.21,5.21,0,0,1-1.13,0L42.54,62a8.66,8.66,0,0,0-1,.1,7.79,7.79,0,0,1-1,.09,1,1,0,0,1-.39-.08A3,3,0,0,1,40,60.81c0-.56,0-1.43.1-2.6q-7,0-7.15-1a1.78,1.78,0,0,1,0-.5c0-.28,0-.45,0-.52a21.34,21.34,0,0,0-.18-2.53,14.07,14.07,0,0,0-.4-1.66,6.61,6.61,0,0,1-.31-1.65c0-.37.2-.56.6-.56a12.87,12.87,0,0,1,2.33.38,12.26,12.26,0,0,0,2.59.39q4.64,0,4.63-2.87,0-1.5-2.66-3.37a60.18,60.18,0,0,1-5-3.66A7.64,7.64,0,0,1,32,35a8.66,8.66,0,0,1,2.56-6.18,10.78,10.78,0,0,1,5.94-3.24c0,.16,0-.26-.08-1.26a12,12,0,0,1,0-1.77c.07-.59.24-.89.5-.89h4.52c.21,0,.35.26.4.79a9.79,9.79,0,0,1,0,1.6c0,.93-.06,1.34-.06,1.21a24.42,24.42,0,0,1,5,1.19c2.62.82,3.92,1.53,3.92,2.13a2.91,2.91,0,0,1-.15.68c-.25.53-.57,1.34-1,2.42-.12.6-.34,1.48-.65,2.63C52.81,34.75,52.6,35,52.3,35Z"/><path class="cls-7" d="M48.36,55.82a43.64,43.64,0,0,1-7.28-5.93,9.79,9.79,0,0,1-3.43.69,12.26,12.26,0,0,1-2.59-.39,12.74,12.74,0,0,0-2.33-.38c-.4,0-.6.19-.6.56A6.61,6.61,0,0,0,32.44,52a14.07,14.07,0,0,1,.4,1.66A21.34,21.34,0,0,1,33,56.21c0,.07,0,.24,0,.52a1.78,1.78,0,0,0,0,.5q.11,1,7.15,1c-.07,1.17-.1,2-.1,2.6a3,3,0,0,0,.16,1.29,1,1,0,0,0,.39.08,7.79,7.79,0,0,0,1-.09,8.66,8.66,0,0,1,1-.1l.82.08a5.21,5.21,0,0,0,1.13,0c.39,0,.58-.14.58-.31s-.07-1.84-.21-4.63A26.9,26.9,0,0,0,48.36,55.82Z"/></g></g></g></svg>