<svg xmlns="http://www.w3.org/2000/svg" xmlns:xlink="http://www.w3.org/1999/xlink" viewBox="0 0 398.4 424.13"><defs><style>.cls-1{fill:none;}.cls-2{fill:#40b0bc;}.cls-3{fill:#9486e0;}.cls-4{fill:#2b68c1;}.cls-5{fill:#044bbc;}.cls-6{fill:#4282ce;}.cls-7{fill:#fceccd;}.cls-8{clip-path:url(#clip-path);}.cls-9{fill:#fcd981;}.cls-10{fill:#5891ed;}.cls-11{fill:#4874cc;}.cls-12{fill:#f95a97;}.cls-13{fill:#dd377b;}.cls-14{fill:#f970b5;}.cls-15{fill:#dd9b0a;}.cls-16{fill:#fff;}</style><clipPath id="clip-path" transform="translate(-0.78)"><rect class="cls-1" y="10.39" width="391.65" height="407.61"/></clipPath></defs><title>colorsAsset 1</title><g id="Layer_2" data-name="Layer 2"><g id="Layer_1-2" data-name="Layer 1"><circle class="cls-2" cx="202.07" cy="227.02" r="197.1" transform="translate(-102.12 209.38) rotate(-45)"/><path class="cls-3" d="M195.83,27.11c-107.72,0-195,87.33-195,195.05s87.33,195,195.05,195c6.15,0,12.24-.3,18.25-.86L367.16,315.43a194.09,194.09,0,0,0,23.72-93.27c0-107.72-87.33-195-195-195Z" transform="translate(-0.78)"/><path class="cls-4" d="M248.77,123.25l-1.58,287.11A194,194,0,0,0,286.29,395l-1.57-271.75a18,18,0,0,1-36,0Z" transform="translate(-0.78)"/><path class="cls-5" d="M230.79,141.22a18,18,0,0,1-18-18V416.39s0,.05,0,.07a194.7,194.7,0,0,0,36-6.53V123.25a18,18,0,0,1-18,18Z" transform="translate(-0.78)"/><path class="cls-6" d="M302.69,141.22a18,18,0,0,1-18-18V395.82a195.35,195.35,0,0,0,36-23.81V123.25a18,18,0,0,1-18,18Z" transform="translate(-0.78)"/><path class="cls-7" d="M295.08,56.4a52,52,0,0,1-56.68,0l-25.59,66.84v2.38c0,9.92,7.84,18.32,17.76,18.44a18,18,0,0,0,16.5-10.39,1.88,1.88,0,0,1,3.39,0,18,18,0,0,0,32.56,0,1.88,1.88,0,0,1,3.39,0,18,18,0,0,0,16.5,10.39c9.92-.12,17.76-8.52,17.76-18.44v-2.38Z" transform="translate(-0.78)"/><g class="cls-8"><path class="cls-9" d="M267.46,64.8h-.72A51.74,51.74,0,0,1,238.4,56.4l-25.59,66.85v2.37c0,9.92,7.84,18.32,17.76,18.44a18,18,0,0,0,16.5-10.39,1.84,1.84,0,0,1,1.7-1.07" transform="translate(-0.78)"/><path class="cls-10" d="M266.74,66.54a51.67,51.67,0,0,0,28.87-8.76L280.9,19.34c-5-13-23.35-13-28.32,0L237.87,57.78a51.67,51.67,0,0,0,28.87,8.76Z" transform="translate(-0.78)"/><path class="cls-11" d="M252.58,19.34,237.87,57.78a51.67,51.67,0,0,0,28.87,8.76H267l13.37-48.47c-5.65-11.7-23-11.28-27.77,1.27Z" transform="translate(-0.78)"/></g><path class="cls-12" d="M349.19,342.69,132.77,220a18,18,0,1,1-18,31.13L319.86,372.69a196.73,196.73,0,0,0,29.33-30Z" transform="translate(-0.78)"/><path class="cls-13" d="M322.08,370.82,114.79,251.14a18,18,0,0,1-18,31.14L289.28,393.4a196.06,196.06,0,0,0,32.8-22.58Z" transform="translate(-0.78)"/><path class="cls-14" d="M367.82,314.2,150.74,188.88a18,18,0,1,1-18,31.13L347.94,344.23a195.54,195.54,0,0,0,19.88-30Z" transform="translate(-0.78)"/><path class="cls-7" d="M152.81,190.07l-2.07-1.19-71-11.32a53.88,53.88,0,0,1-28.23,48.89l45.3,55.83,2.1,1.21c8.17,4.72,19.37,2.31,24.46-5.64A17.93,17.93,0,0,0,124,259.4a3,3,0,0,1,2.58-4.45,18,18,0,0,0,14.63-28,2.08,2.08,0,0,1,1.86-3.2A18,18,0,0,0,160,214.55c4.69-8.5,1.25-19.63-7.15-24.48Z" transform="translate(-0.78)"/><path class="cls-9" d="M124,256.44,73.33,204.59q-.37.71-.78,1.41a53.59,53.59,0,0,1-21,20.45l45.3,55.83,2.1,1.21c8.17,4.72,19.37,2.31,24.46-5.64A17.91,17.91,0,0,0,124,259.4a3,3,0,0,1,0-3Z" transform="translate(-0.78)"/><path class="cls-12" d="M74.67,207.22a51.72,51.72,0,0,0,6.86-29.38l-40.66-6.48C27.14,169.17,18,185.09,26.72,195.89l25.93,32a51.68,51.68,0,0,0,22-20.63Z" transform="translate(-0.78)"/><path class="cls-13" d="M74.67,207.22c.16-.26.3-.53.45-.8L40.87,171.36C27.14,169.17,18,185.08,26.72,195.89l25.93,32a51.68,51.68,0,0,0,22-20.63Z" transform="translate(-0.78)"/><path class="cls-12" d="M12.16,144.75c-1.91-28.36,15.73-51,52.14-52.29,7.93-.28,18.27-1.88,22.54-7.9,4-5.7,1.77-14.14,1.74-14.22A12.77,12.77,0,0,1,113,62.74c.65,2.07,6,20.69-5.29,36.59C99.41,111,85.12,117.28,65.2,118c-17.51.63-28.75,7.35-27.55,25a12.77,12.77,0,0,1-25.49,1.72Z" transform="translate(-0.78)"/><path class="cls-13" d="M71.2,91.86a65.93,65.93,0,0,1-6.9.6c-36.41,1.29-54,23.93-52.14,52.29A12.77,12.77,0,0,0,37.65,143c-1.2-17.7,10-24.42,27.55-25a85.91,85.91,0,0,0,11.08-1.06A15.11,15.11,0,0,1,71.2,91.86Z" transform="translate(-0.78)"/><path class="cls-15" d="M117,41.33H105.49a7,7,0,1,1,0-13.9H117a7,7,0,0,1,0,13.9Z" transform="translate(-0.78)"/><path class="cls-15" d="M160.35,41.33H148.81a7,7,0,0,1,0-13.9h11.54a7,7,0,1,1,0,13.9Z" transform="translate(-0.78)"/><path class="cls-15" d="M132.92,25.46A7,7,0,0,1,126,18.51V6.94a7,7,0,0,1,13.91,0V18.51A7,7,0,0,1,132.92,25.46Z" transform="translate(-0.78)"/><path class="cls-15" d="M132.92,68.77A7,7,0,0,1,126,61.83V50.27a7,7,0,1,1,13.91,0V61.83A7,7,0,0,1,132.92,68.77Z" transform="translate(-0.78)"/><path class="cls-16" d="M374.64,291h-4.05a2.44,2.44,0,0,1,0-4.88h4.05a2.44,2.44,0,1,1,0,4.88Z" transform="translate(-0.78)"/><path class="cls-16" d="M389.85,291H385.8a2.44,2.44,0,0,1,0-4.88h4.05a2.44,2.44,0,0,1,0,4.88Z" transform="translate(-0.78)"/><path class="cls-16" d="M380.22,285.39a2.45,2.45,0,0,1-2.44-2.45v-4a2.44,2.44,0,0,1,4.88,0v4A2.45,2.45,0,0,1,380.22,285.39Z" transform="translate(-0.78)"/><path class="cls-16" d="M380.22,300.59a2.44,2.44,0,0,1-2.44-2.44v-4a2.44,2.44,0,0,1,4.88,0v4A2.44,2.44,0,0,1,380.22,300.59Z" transform="translate(-0.78)"/></g></g></svg>