<svg xmlns="http://www.w3.org/2000/svg" xmlns:xlink="http://www.w3.org/1999/xlink" viewBox="0 0 430.81 425.13"><defs><style>.cls-1{fill:none;}.cls-2{fill:#40b0bc;}.cls-3{fill:#f970b5;}.cls-4{clip-path:url(#clip-path);}.cls-5{fill:#293d7c;}.cls-6{fill:#dd9b0a;}.cls-7{fill:#ff8500;}.cls-8{fill:#1a2b63;}.cls-9{fill:#e8f8fc;}.cls-10{fill:#c7e7f3;}.cls-11{fill:#241744;}.cls-12{fill:#5891ed;}.cls-13{fill:#4874cc;}.cls-14{fill:#7aaffc;}.cls-15{fill:#dd377b;}.cls-16{fill:#cc2368;}.cls-17{fill:#fcd981;}.cls-18{fill:#a6d6eb;}.cls-19{fill:#7c81b9;}.cls-20{fill:#5870a1;}.cls-21{fill:#f95a97;}.cls-22{fill:#60d882;}.cls-23{fill:#37c47a;}.cls-24{fill:#fff;}</style><clipPath id="clip-path" transform="translate(10.96)"><path class="cls-1" d="M686.85,214c0,179-380.84,197.13-489.72,197.13S0,322.86,0,214,88.26,16.85,197.13,16.85,686.85,55,686.85,214Z"/></clipPath></defs><title>gamesAsset 3</title><g id="Layer_2" data-name="Layer 2"><g id="Layer_1-2" data-name="Layer 1"><circle class="cls-2" cx="198.13" cy="228.02" r="197.1" transform="translate(-92.25 206.89) rotate(-45)"/><circle class="cls-3" cx="209.09" cy="213.99" r="197.13"/><g class="cls-4"><rect class="cls-5" x="1.58" y="83.45" width="429.09" height="271.52" rx="39.6"/><path class="cls-6" d="M377.14,192.71a13.37,13.37,0,1,0-4.9,18.26,13.37,13.37,0,0,0,4.9-18.26Z" transform="translate(10.96)"/><path class="cls-7" d="M365.57,199.4a13.34,13.34,0,0,1,0-13.36A13.37,13.37,0,1,0,372.25,211a13.16,13.16,0,0,0,4.89-4.91,13.33,13.33,0,0,1-11.57-6.67Z" transform="translate(10.96)"/><rect class="cls-8" y="83.45" width="158.83" height="271.52" rx="39.6"/><path class="cls-9" d="M90.11,219.43a12.78,12.78,0,0,0-12.78-12.78H63L50.2,219.43,63,232.2H77.33a12.77,12.77,0,0,0,12.78-12.77Z" transform="translate(10.96)"/><path class="cls-10" d="M50.2,179.51a12.78,12.78,0,0,0-12.78,12.78v14.36L50.2,219.43,63,206.65V192.29A12.78,12.78,0,0,0,50.2,179.51Z" transform="translate(10.96)"/><path class="cls-10" d="M51,259.73A12.78,12.78,0,0,0,63.77,247V232.59L51,219.81,38.21,232.59V247A12.78,12.78,0,0,0,51,259.73Z" transform="translate(10.96)"/><path class="cls-9" d="M11.47,219.43A12.77,12.77,0,0,0,24.25,232.2H38.61l12.78-12.77L38.61,206.65H24.25a12.78,12.78,0,0,0-12.78,12.78Z" transform="translate(10.96)"/><path class="cls-8" d="M392.81,302.38a7.1,7.1,0,1,0-7.1-7.1,7.1,7.1,0,0,0,7.1,7.1Z" transform="translate(10.96)"/><path class="cls-8" d="M382.63,312.57a7.1,7.1,0,1,0-7.1,7.1,7.12,7.12,0,0,0,7.1-7.1Z" transform="translate(10.96)"/><path class="cls-8" d="M359.63,322.89a7.1,7.1,0,1,0,5.71,7,7.1,7.1,0,0,0-5.71-7Z" transform="translate(10.96)"/><path class="cls-8" d="M400.05,311.45a7.1,7.1,0,1,0,5.71,7,7.1,7.1,0,0,0-5.71-7Z" transform="translate(10.96)"/><path class="cls-8" d="M382.76,328.73a7.1,7.1,0,1,0,5.72,7,7.1,7.1,0,0,0-5.72-7Z" transform="translate(10.96)"/><path class="cls-8" d="M209.59,110.38H159.54a7.1,7.1,0,0,1,0-14.2h50.05a7.1,7.1,0,0,1,0,14.2Z" transform="translate(10.96)"/><path class="cls-11" d="M184.57,103.28a7.1,7.1,0,0,1,7.1-7.1H159.54a7.1,7.1,0,0,0,0,14.2h32.13a7.1,7.1,0,0,1-7.1-7.1Z" transform="translate(10.96)"/><path class="cls-12" d="M148.49,214.3a6.92,6.92,0,0,1,6.15,3.77l13.19,25.79a6.89,6.89,0,0,0,6.15,3.77h54.79a6.92,6.92,0,0,1,6.06,3.58l3.63,6.61a6.92,6.92,0,0,0,6.06,3.58h15.4a6.93,6.93,0,0,0,5.89-3.29l25-40.52a6.91,6.91,0,0,1,5.89-3.29h14.88V131.56a9.36,9.36,0,0,0-9.36-9.35H108a9.35,9.35,0,0,0-9.35,9.35V214.3Z" transform="translate(10.96)"/><path class="cls-13" d="M108,122.21a9.35,9.35,0,0,0-9.35,9.35V214.3h49.8c.24,0,.48,0,.72,0V122.21Z" transform="translate(10.96)"/><path class="cls-3" d="M128,223.17a7.1,7.1,0,0,1-7.1-7.1V186.49a7.1,7.1,0,1,1,14.2,0v29.58a7.1,7.1,0,0,1-7.1,7.1Z" transform="translate(10.96)"/><path class="cls-10" d="M286.5,153.28h-9a7.1,7.1,0,0,1,0-14.2h9a7.1,7.1,0,1,1,0,14.2Z" transform="translate(10.96)"/><path class="cls-6" d="M186.69,232.46a7.1,7.1,0,0,1-.67-10l17.65-20.2a7.1,7.1,0,0,1,10.69,9.34l-17.65,20.21a7.11,7.11,0,0,1-10,.67Z" transform="translate(10.96)"/><path class="cls-14" d="M108,122.21a9.35,9.35,0,0,0-9.35,9.35v22.77a25.77,25.77,0,0,0,24.89-8.39,6.24,6.24,0,0,1,6.68-1.86,17.7,17.7,0,0,0,11.48-.07,4.29,4.29,0,0,1,4.82,1.56,28.22,28.22,0,0,0,45.49-.38,4.09,4.09,0,0,1,5.13-1.32A18.47,18.47,0,0,0,219.52,139a4.14,4.14,0,0,1,4.87-1.13,18.53,18.53,0,0,0,26.1-15.7Z" transform="translate(10.96)"/><path class="cls-12" d="M108,122.21a9.35,9.35,0,0,0-9.35,9.35v22.77A25.79,25.79,0,0,0,123.58,146a6.24,6.24,0,0,1,6.68-1.86,17.77,17.77,0,0,0,11.48-.08,4.3,4.3,0,0,1,4.82,1.56,30.32,30.32,0,0,0,2.65,3.06V122.21Z" transform="translate(10.96)"/><path class="cls-15" d="M139.71,174.62a13.59,13.59,0,1,0-5,18.56,13.58,13.58,0,0,0,5-18.56Z" transform="translate(10.96)"/><path class="cls-16" d="M128,181.42a13.56,13.56,0,0,1,0-13.58,13.57,13.57,0,0,0-11.77,20.37,13.58,13.58,0,0,0,18.56,5,13.44,13.44,0,0,0,5-5A13.55,13.55,0,0,1,128,181.42Z" transform="translate(10.96)"/><path class="cls-6" d="M98.69,288.14v19.05a9.35,9.35,0,0,0,9.35,9.35H302.19a9.35,9.35,0,0,0,9.35-9.35V288.14Z" transform="translate(10.96)"/><path class="cls-7" d="M98.69,288.14v19.05a9.35,9.35,0,0,0,9.35,9.35h41.17v-28.4Z" transform="translate(10.96)"/><path class="cls-17" d="M296.67,212.72a6.91,6.91,0,0,0-5.89,3.29l-25,40.52a6.93,6.93,0,0,1-5.89,3.29h-15.4a6.94,6.94,0,0,1-6.06-3.58l-3.63-6.61a6.92,6.92,0,0,0-6.06-3.58H174a6.89,6.89,0,0,1-6.15-3.77l-13.19-25.79a6.9,6.9,0,0,0-6.15-3.77H98.69V291H311.54V212.72Z" transform="translate(10.96)"/><path class="cls-6" d="M148.49,212.72H98.69V291h50.52V212.77c-.24,0-.48-.05-.72-.05Z" transform="translate(10.96)"/><path class="cls-18" d="M249.44,169.58a18.66,18.66,0,0,0-18.66,18.67H268.1a18.66,18.66,0,0,0-18.66-18.67Z" transform="translate(10.96)"/><path class="cls-9" d="M274.46,195.35h-50a7.1,7.1,0,0,1,0-14.2h50a7.1,7.1,0,1,1,0,14.2Z" transform="translate(10.96)"/><path class="cls-10" d="M248.49,188.25a7.1,7.1,0,0,1,7.1-7.1H224.41a7.1,7.1,0,0,0,0,14.2h31.18a7.1,7.1,0,0,1-7.1-7.1Z" transform="translate(10.96)"/><path class="cls-19" d="M388.75,83.72H341.59a8.7,8.7,0,0,0-8.69,8.7V103a24.83,24.83,0,0,0,24.75,24.76h62.2V114.83a31.2,31.2,0,0,0-31.1-31.11Z" transform="translate(10.96)"/><path class="cls-20" d="M366.49,105.73a23.34,23.34,0,0,1,15.59-22H341.59a8.7,8.7,0,0,0-8.69,8.7V103a24.83,24.83,0,0,0,24.75,24.76h24.43a23.33,23.33,0,0,1-15.59-22Z" transform="translate(10.96)"/><path class="cls-21" d="M404.28,219.8a13.37,13.37,0,1,0-4.9,18.26,13.38,13.38,0,0,0,4.9-18.26Z" transform="translate(10.96)"/><path class="cls-15" d="M392.71,226.49a13.34,13.34,0,0,1,0-13.36,13.22,13.22,0,0,0-6.69,1.78,13.37,13.37,0,1,0,18.26,18.25,13.35,13.35,0,0,1-11.57-6.67Z" transform="translate(10.96)"/><path class="cls-12" d="M350,219.8a13.37,13.37,0,1,0-4.9,18.26A13.37,13.37,0,0,0,350,219.8Z" transform="translate(10.96)"/><path class="cls-13" d="M338.43,226.49a13.34,13.34,0,0,1,0-13.36,13.36,13.36,0,1,0,11.57,20,13.36,13.36,0,0,1-11.57-6.67Z" transform="translate(10.96)"/><path class="cls-22" d="M377.14,247a13.37,13.37,0,1,0-4.9,18.27,13.38,13.38,0,0,0,4.9-18.27Z" transform="translate(10.96)"/><path class="cls-23" d="M365.57,253.68a13.34,13.34,0,0,1,0-13.36,13.22,13.22,0,0,0-6.69,1.78,13.37,13.37,0,0,0,13.37,23.16,13.23,13.23,0,0,0,4.89-4.91,13.35,13.35,0,0,1-11.57-6.67Z" transform="translate(10.96)"/></g><path class="cls-21" d="M262.85,41.33H251.32a7,7,0,1,1,0-13.9h11.53a7,7,0,1,1,0,13.9Z" transform="translate(10.96)"/><path class="cls-21" d="M306.17,41.33H294.64a7,7,0,1,1,0-13.9h11.53a7,7,0,1,1,0,13.9Z" transform="translate(10.96)"/><path class="cls-21" d="M278.74,25.46a7,7,0,0,1-6.94-6.95V6.94a7,7,0,0,1,13.91,0V18.51A7,7,0,0,1,278.74,25.46Z" transform="translate(10.96)"/><path class="cls-21" d="M278.74,68.77a7,7,0,0,1-6.94-6.94V50.27a7,7,0,1,1,13.91,0V61.83A6.94,6.94,0,0,1,278.74,68.77Z" transform="translate(10.96)"/><path class="cls-24" d="M113.6,399.94h-5.91a3.56,3.56,0,1,1,0-7.12h5.91a3.56,3.56,0,1,1,0,7.12Z" transform="translate(10.96)"/><path class="cls-24" d="M135.79,399.94h-5.9a3.56,3.56,0,1,1,0-7.12h5.9a3.56,3.56,0,1,1,0,7.12Z" transform="translate(10.96)"/><path class="cls-24" d="M121.74,391.82a3.57,3.57,0,0,1-3.55-3.57v-5.92a3.56,3.56,0,1,1,7.12,0v5.92A3.57,3.57,0,0,1,121.74,391.82Z" transform="translate(10.96)"/><path class="cls-24" d="M121.74,414a3.56,3.56,0,0,1-3.55-3.56v-5.92a3.56,3.56,0,1,1,7.12,0v5.92A3.56,3.56,0,0,1,121.74,414Z" transform="translate(10.96)"/></g></g></svg>