<svg xmlns="http://www.w3.org/2000/svg" width="20" height="20" viewBox="0 0 41.642 41.642">
  <g id="Group_745" data-name="Group 745" transform="translate(-6373.662 -7442.442)">
    <path id="Path_1999" data-name="Path 1999" d="M6414.941,7459.373h-20v8.237h11.133a12.377,12.377,0,1,1-5.046-14.853l6.745-5.522a20.775,20.775,0,1,0,7.168,12.138Z" fill="#dd9b0a"/>
    <path id="Path_2000" data-name="Path 2000" d="M6407.517,7479.5v0a20.827,20.827,0,0,1-31.374-6.37l6.747-5.524a12.382,12.382,0,0,0,17.844,6.341Z" fill="#28b446"/>
    <path id="Path_2001" data-name="Path 2001" d="M6414.941,7459.373a20.815,20.815,0,0,1-7.423,20.127v0l-6.782-5.552a12.4,12.4,0,0,0,5.339-6.336h-11.133v-8.237h20Z" fill="#518ef8"/>
    <path id="Path_2002" data-name="Path 2002" d="M6407.773,7447.235l-6.745,5.522a12.383,12.383,0,0,0-18.254,6.483l-6.782-5.553h0a20.826,20.826,0,0,1,31.783-6.452Z" fill="#fc3f1d"/>
  </g>
</svg>
