<svg xmlns="http://www.w3.org/2000/svg" viewBox="0 0 53.45 48.74"><defs><style>.cls-1{fill:#efefef;}</style></defs><title>arabic-numbersAsset 1</title><g id="Layer_2" data-name="Layer 2"><g id="Layer_1-2" data-name="Layer 1"><path class="cls-1" d="M48.07,0H28.4A5.41,5.41,0,0,0,23,5.38v5.24a1,1,0,1,0,2.05,0V5.39a3.34,3.34,0,0,1,3.37-3.33H48.07a3.29,3.29,0,0,1,3.32,3.28v38a3.3,3.3,0,0,1-3.27,3.33H28.4A3.36,3.36,0,0,1,25,43.37V38.23a1,1,0,1,0-2.05,0v5.13a5.39,5.39,0,0,0,5.42,5.38H48.07a5.36,5.36,0,0,0,5.38-5.34v-38A5.37,5.37,0,0,0,48.12,0Z"/><path class="cls-1" d="M3.53,24.23H39.27a1,1,0,0,0,0-2.05H3.3l8.15-9.39A1,1,0,0,0,9.9,11.45L.4,22.4a1,1,0,0,0,0,1.66l9.5,9.5a1,1,0,1,0,1.45-1.45Z"/></g></g></svg>