<svg xmlns="http://www.w3.org/2000/svg" xmlns:xlink="http://www.w3.org/1999/xlink" viewBox="0 0 83.88 83.87"><defs><style>.cls-1{isolation:isolate;}.cls-2,.cls-6{fill:#fff;}.cls-3{fill:url(#Áåçûìÿííûé_ãðàäèåíò_82);}.cls-4{fill:url(#radial-gradient);}.cls-5{fill:url(#radial-gradient-2);}.cls-6{opacity:0.32;mix-blend-mode:overlay;}.cls-7{fill:#e5e5e5;}</style><linearGradient id="Áåçûìÿííûé_ãðàäèåíò_82" x1="1.34" y1="41.93" x2="82.54" y2="41.93" gradientUnits="userSpaceOnUse"><stop offset="0" stop-color="#ffc731"/><stop offset="0.78" stop-color="#df7203"/><stop offset="1" stop-color="#f57e04"/></linearGradient><radialGradient id="radial-gradient" cx="-52.43" cy="-3.13" r="14.63" gradientUnits="userSpaceOnUse"><stop offset="0" stop-color="#fff200"/><stop offset="1" stop-color="#f7941e"/></radialGradient><radialGradient id="radial-gradient-2" cx="-62.41" cy="-22.28" r="16.42" gradientUnits="userSpaceOnUse"><stop offset="0" stop-color="#fff200"/><stop offset="1" stop-color="#f15a29"/></radialGradient></defs><title>settingAsset 5</title><g class="cls-1"><g id="Layer_2" data-name="Layer 2"><g id="Layer_1-2" data-name="Layer 1"><path class="cls-2" d="M41.94,0a41.14,41.14,0,0,0-9.6,1.12h0c-.26.21-2.44,1.94-3.37,1.94s-3.15.23-3.38.26h0Q24.28,3.87,23,4.5A41.95,41.95,0,1,0,41.94,0Z"/><path class="cls-3" d="M82.54,41.93A40.6,40.6,0,1,1,23.64,5.7c.79-.41,1.61-.79,2.43-1.14h0c.22,0,2.37-.24,3.28-.24s3-1.68,3.26-1.88a0,0,0,0,1,0,0,39.63,39.63,0,0,1,9.29-1.08A40.59,40.59,0,0,1,82.54,41.93Z"/><circle class="cls-4" cx="41.94" cy="41.93" r="32.13"/><path class="cls-5" d="M32.65,2.42c-.1.35-1.32,5.05-1.64,5.05s-4.64-2.72-4.93-2.91c.22,0,2.37-.24,3.28-.24s3-1.68,3.26-1.88A0,0,0,0,1,32.65,2.42Z"/><path class="cls-6" d="M82.54,41.93a40.27,40.27,0,0,1-7.3,23.21c-30.39-.12-58.8-37-51.6-59.44.79-.41,1.61-.79,2.43-1.14h0c.22,0,2.37-.24,3.28-.24s3-1.68,3.26-1.88a0,0,0,0,1,0,0,39.63,39.63,0,0,1,9.29-1.08A40.59,40.59,0,0,1,82.54,41.93Z"/><path class="cls-2" d="M24.73,32.75,29,37a48.66,48.66,0,0,1-3-5.47Z"/><path class="cls-2" d="M62.49,37.13h-6.2l4.39-4.38-8-8-4.39,4.38V23H37.08v6.2l-4.39-4.38-8,8,4.38,4.38H22.92V48.39h6.19l-4.38,4.38,8,8,4.39-4.39v6.2H48.33v-6.2l4.39,4.39,8-8-4.39-4.38h6.2ZM42.7,50.88a8.12,8.12,0,1,1,8.12-8.12A8.12,8.12,0,0,1,42.7,50.88Z"/><path class="cls-7" d="M41.69,50.81a8.15,8.15,0,0,1-6.92-6.3,50.1,50.1,0,0,1-5.71-7.38H22.92V48.39h6.19l-4.38,4.38,8,8,4.39-4.39v6.2H48.33v-6.2l4.39,4.39,1.87-1.87A78.67,78.67,0,0,1,41.69,50.81Z"/></g></g></g></svg>