<svg xmlns="http://www.w3.org/2000/svg" viewBox="0 0 535.5 646.76"><defs><style>.cls-1{fill:#40b0bc;}.cls-2{fill:#5151e5;}.cls-3{fill:#f95a97;}.cls-4{fill:none;}.cls-5{fill:#dd9b0a;}.cls-6{fill:#3dc159;}.cls-7{fill:#22af46;}.cls-8{fill:#dbdbdb;}.cls-9{fill:#158442;}.cls-10{fill:#685c79;}.cls-11{fill:#594f69;}.cls-12{fill:#50475e;}.cls-13{fill:#ccc;}.cls-14{fill:#a0a0a0;}.cls-15{fill:#e62753;}.cls-16{fill:#ff2c5c;}.cls-17{fill:#c10a0a;}.cls-18{fill:#2f4859;}.cls-19{fill:#e1e6e9;}.cls-20{fill:#dd1f1f;}.cls-21{fill:#fff;}.cls-22{fill:#e5e5e5;}</style></defs><title>songs-1Asset 3</title><g id="Layer_2" data-name="Layer 2"><g id="Layer_1-2" data-name="Layer 1"><circle class="cls-1" cx="259.04" cy="393.19" r="253.57"/><circle class="cls-2" cx="253.57" cy="382.24" r="253.57"/><path class="cls-3" d="M81.81,167.76A5,5,0,1,0,72,169.89l16.13,73.93a5,5,0,0,0,4.88,3.94,5,5,0,0,0,4.89-6.07Z"/><path class="cls-3" d="M162.64,227.58l-16.13-73.94a5,5,0,1,0-9.77,2.13l16.13,73.94a5,5,0,0,0,4.88,3.94,4.94,4.94,0,0,0,1.07-.12,5,5,0,0,0,3.82-5.95Z"/><path class="cls-3" d="M97.93,241.65c2.11,9.66-4.61,16.44-14.26,18.54S65.09,258.93,63,249.28s4.87-16,14.52-18.06,18.32.78,20.42,10.43Z"/><path class="cls-3" d="M162.63,227.54c2.11,9.65-4.61,16.44-14.26,18.54s-18.58-1.26-20.69-10.91,4.87-16,14.52-18.06,18.33.78,20.43,10.43Z"/><path class="cls-3" d="M149.37,166.75,74.9,183l-3.71-17a4.6,4.6,0,0,1,3.51-5.47l65.49-14.29a4.6,4.6,0,0,1,5.47,3.52Z"/><rect class="cls-4" x="95.21" width="428.29" height="429.29"/><rect class="cls-4" x="95.21" width="428.29" height="429.29"/><path class="cls-5" d="M161.62,496.87a76.43,76.43,0,0,0-1.44-35.12,46.88,46.88,0,0,0-12.39-20.38c-9.42-9.32-21.06-12.34-32.3-15.25-8.39-2.18-16.32-4.23-23-8.78l-1.2-.81c-3.94-2.67-8.4-5.69-10.09-9a7.14,7.14,0,0,0-9.08-3.26,7,7,0,0,0-3.88,8.82l41.65,119a40.88,40.88,0,0,0-21.95,1.53c-18.4,6.44-29.19,23.67-24,38.39s24.33,21.46,42.73,15,29.19-23.66,24-38.39l-27.24-77.82c11.37.32,31.19,4.34,43.69,25.55a40.88,40.88,0,0,1-1.3,4.55,7.07,7.07,0,0,0,13.1,5.31,52.26,52.26,0,0,0,2.48-8.61A3.64,3.64,0,0,0,161.62,496.87Z"/><path class="cls-6" d="M354.05,224.44,200.91,372.69a40.52,40.52,0,0,1-64.85-12s0,0,0-.05a40.48,40.48,0,0,1,8.57-46.11L297.75,166.28Z"/><path class="cls-7" d="M354.05,224.44,200.91,372.69a40.52,40.52,0,0,1-64.85-12s0,0,0-.05a.14.14,0,0,0,0-.07,40.47,40.47,0,0,0,46.07-7.21L335.23,205.12l0-.1Z"/><path class="cls-8" d="M241.68,290.67l-13.77-14.22a3.59,3.59,0,0,1,.09-5.08l33.59-32.53a3.6,3.6,0,0,1,5.09.08l13.76,14.22a3.59,3.59,0,0,1-.08,5.09l-33.6,32.53a3.59,3.59,0,0,1-5.08-.09Z"/><path class="cls-9" d="M263.56,274.49,244.8,255.1l16.8-16.26a3.6,3.6,0,0,1,5.09.08l13.75,14.22a3.59,3.59,0,0,1-.08,5.09Z"/><path class="cls-10" d="M415.91,214.63c-33.91,32.82-61.64,59.17-114.56,4.5s-25.69-81.53,8.21-114.35,69.87-50.66,114.56-4.5,25.69,81.53-8.21,114.35Z"/><path class="cls-11" d="M424.12,100.28q-5-5.19-9.91-9.32C447,132.2,428.37,164.75,397,195.11c-31.75,30.74-58.09,55.8-104.78,13.95q4.09,4.88,9.12,10.07c52.92,54.67,80.65,28.32,114.56-4.5s52.89-68.19,8.21-114.35Z"/><path class="cls-12" d="M345.42,130.91a6.55,6.55,0,1,0-.15,9.26,6.54,6.54,0,0,0,.15-9.26Z"/><path class="cls-12" d="M368.18,154.42a6.55,6.55,0,1,0-.15,9.26,6.54,6.54,0,0,0,.15-9.26Z"/><path class="cls-12" d="M391,178a6.55,6.55,0,1,0-.15,9.25A6.54,6.54,0,0,0,391,178Z"/><path class="cls-12" d="M418.66,128a6.55,6.55,0,1,0-.15,9.26,6.55,6.55,0,0,0,.15-9.26Z"/><path class="cls-12" d="M396.22,104.86a6.55,6.55,0,1,0-.15,9.26,6.54,6.54,0,0,0,.15-9.26Z"/><path class="cls-12" d="M340.18,204a6.55,6.55,0,1,0-.15,9.26,6.56,6.56,0,0,0,.15-9.26Z"/><path class="cls-12" d="M317.74,180.84a6.55,6.55,0,1,0-.15,9.26,6.54,6.54,0,0,0,.15-9.26Z"/><path class="cls-12" d="M374,103.24a6.54,6.54,0,1,0-.15,9.25,6.53,6.53,0,0,0,.15-9.25Z"/><path class="cls-12" d="M396.77,126.75a6.55,6.55,0,1,0-.15,9.26,6.55,6.55,0,0,0,.15-9.26Z"/><path class="cls-12" d="M419.54,150.27a6.55,6.55,0,1,0-.15,9.26,6.55,6.55,0,0,0,.15-9.26Z"/><path class="cls-12" d="M316.83,158.58a6.55,6.55,0,1,0-.15,9.26,6.53,6.53,0,0,0,.15-9.26Z"/><path class="cls-12" d="M339.6,182.1a6.55,6.55,0,1,0-.15,9.25,6.54,6.54,0,0,0,.15-9.25Z"/><path class="cls-12" d="M362.37,205.62a6.55,6.55,0,1,0-.15,9.26,6.54,6.54,0,0,0,.15-9.26Z"/><path class="cls-12" d="M393.46,152.43a6.55,6.55,0,1,0-.15,9.26,6.54,6.54,0,0,0,.15-9.26Z"/><path class="cls-12" d="M416.54,176.27a6.55,6.55,0,1,0-.15,9.25,6.54,6.54,0,0,0,.15-9.25Z"/><path class="cls-12" d="M347.93,105.39a6.55,6.55,0,1,0-.15,9.26,6.56,6.56,0,0,0,.15-9.26Z"/><path class="cls-12" d="M371,129.25a6.55,6.55,0,1,0-.15,9.26,6.54,6.54,0,0,0,.15-9.26Z"/><path class="cls-12" d="M365.37,179.63a6.55,6.55,0,1,0-.15,9.25,6.54,6.54,0,0,0,.15-9.25Z"/><path class="cls-12" d="M388.44,203.46a6.55,6.55,0,1,0-.15,9.26,6.54,6.54,0,0,0,.15-9.26Z"/><path class="cls-12" d="M319.83,132.58a6.55,6.55,0,1,0-.15,9.26,6.55,6.55,0,0,0,.15-9.26Z"/><path class="cls-12" d="M342.93,156.45a6.55,6.55,0,1,0-.15,9.26,6.53,6.53,0,0,0,.15-9.26Z"/><path class="cls-13" d="M272.42,172.45l-8.57,26.29,56.49,58.34,26.73-7.53Z"/><path class="cls-14" d="M301.58,237.7l27.19-7,18.3,18.9-26.73,7.53Z"/><path class="cls-15" d="M478,238.74a4.31,4.31,0,0,0-5.58,2.46L448.8,302a4.31,4.31,0,0,0,2.46,5.58,4.08,4.08,0,0,0,1.56.3,4.32,4.32,0,0,0,4-2.75l23.63-60.82a4.32,4.32,0,0,0-2.46-5.58Z"/><path class="cls-15" d="M531.22,259.42a4.32,4.32,0,0,0-5.58,2.46L502,322.69a4.32,4.32,0,0,0,8.05,3.12L533.68,265a4.3,4.3,0,0,0-2.46-5.58Z"/><path class="cls-16" d="M529.8,275l-61.26-23.8,5.44-14a4,4,0,0,1,5.13-2.26L533,255.88a4,4,0,0,1,2.26,5.13Z"/><path class="cls-16" d="M456.81,305.09c-3.08,7.93-11.13,9.6-19.05,6.52s-12.73-9.74-9.65-17.67,11.08-9.13,19-6.05,12.78,9.28,9.7,17.2Z"/><path class="cls-16" d="M510.06,325.78c-3.08,7.94-11.14,9.61-19.07,6.53s-12.75-9.76-9.67-17.69,11.1-9.15,19-6.06,12.79,9.29,9.71,17.22Z"/><path class="cls-17" d="M202.59,455.43l10.33,39.94,250.22-64.75L453.66,394a3.8,3.8,0,0,0-4.61-2.72l-246.56,63.8Z"/><path class="cls-17" d="M432.82,337.62l-12.43-26.88a3.75,3.75,0,0,0-4.79-1.89l-5.21,2.52-12.25,5.52-15,7-12.25,5.51-15.09,6.64-12.25,5.52-15,7-12.25,5.52-15,7-11.88,5.42-15,7L262.17,379l-15.09,6.64-12.25,5.52-15,7-12.25,5.52-15,7-1.37.74,11.38,44,7.68-3.55,12.25-5.51,15-7,12.25-5.51,15-7L277,421.32l15-7,12.26-5.52,15-7,12.25-5.51,15-7,12.25-5.52,15-7L386,371.23l15-7,12.25-5.51,15-7L434.2,349a3.76,3.76,0,0,0,1.89-4.79Z"/><path class="cls-17" d="M490.73,582.57,262.12,641.72a11.15,11.15,0,0,1-13.83-8.14L212.55,495.46l250.22-64.74,35.74,138.11A10.84,10.84,0,0,1,490.73,582.57Z"/><polygon class="cls-13" points="192.58 410.73 191.12 411.11 197.75 436.75 210.27 451.88 222.52 446.37 192.58 410.73"/><polygon class="cls-13" points="249.77 433.85 237.52 439.36 207.58 403.72 219.83 398.2 249.77 433.85"/><polygon class="cls-13" points="277.02 421.32 264.76 426.84 234.83 391.2 247.08 385.68 277.02 421.32"/><polygon class="cls-13" points="304.27 408.8 292.01 414.32 262.17 379.04 274.33 373.16 304.27 408.8"/><polygon class="cls-13" points="331.61 396.64 319.36 402.16 289.42 366.52 301.67 361 331.61 396.64"/><polygon class="cls-13" points="358.86 384.12 346.6 389.64 316.67 354 328.92 348.48 358.86 384.12"/><polygon class="cls-13" points="386.11 371.6 373.85 377.11 343.55 341.57 355.8 336.05 386.11 371.6"/><polygon class="cls-13" points="413.35 359.07 400.83 365.05 370.89 329.41 383.05 323.53 413.35 359.07"/><path class="cls-13" d="M434.39,349.72l-5.95,2.71-30.3-35.54,12.25-5.52L432.91,338l3.36,6.95A4.09,4.09,0,0,1,434.39,349.72Z"/><polygon class="cls-13" points="454.42 396.92 459.44 416.34 452.88 433.28 438.96 436.88 454.42 396.92"/><polygon class="cls-13" points="440.35 393.91 422.11 441.24 408.55 444.75 426.43 397.52 440.35 393.91"/><polygon class="cls-13" points="409.94 401.78 391.7 449.11 377.78 452.71 396.02 405.38 409.94 401.78"/><polygon class="cls-13" points="379.17 409.75 360.93 457.07 347.37 460.58 365.61 413.25 379.17 409.75"/><polygon class="cls-13" points="348.76 417.61 330.52 464.94 316.6 468.54 334.84 421.21 348.76 417.61"/><polygon class="cls-13" points="317.99 425.57 299.75 472.9 286.19 476.41 304.43 429.08 317.99 425.57"/><polygon class="cls-13" points="287.58 433.44 269.34 480.77 255.42 484.37 273.66 437.05 287.58 433.44"/><polygon class="cls-13" points="256.81 441.41 238.56 488.73 225.01 492.24 243.25 444.91 256.81 441.41"/><polygon class="cls-13" points="226.4 449.27 211.31 489.14 206.28 469.72 212.85 452.78 226.4 449.27"/><path class="cls-18" d="M238.83,476.16l-28.94,7.48L193.68,421l28.94-7.49a7.59,7.59,0,0,1,9.22,5.43l12.42,48A7.6,7.6,0,0,1,238.83,476.16Z"/><path class="cls-19" d="M218.36,442.36a5.3,5.3,0,1,1-3.8,6.46A5.29,5.29,0,0,1,218.36,442.36Z"/><path class="cls-19" d="M222.72,459.22a5.29,5.29,0,1,1-3.8,6.45A5.3,5.3,0,0,1,222.72,459.22Z"/><path class="cls-19" d="M214.09,425.88a5.3,5.3,0,1,1-3.8,6.45A5.3,5.3,0,0,1,214.09,425.88Z"/><path class="cls-20" d="M462.77,430.72,426.86,440c-5,21.65-8.34,44.11-28.6,53.4-28.38,12.48-63.58,20.43-77.2,49.95-15.38,32.56-22.85,68-45.34,94.84l215-55.63a10.84,10.84,0,0,0,7.78-13.74Z"/><path class="cls-21" d="M402.24,526.12a7.4,7.4,0,0,1-2.05,7.17L352,582.52a7.55,7.55,0,0,1-12.6-3.39l-17.82-68.87a7.55,7.55,0,0,1,9.38-9.07L397,520.84C399.82,521.27,401.58,523.55,402.24,526.12Z"/><path class="cls-22" d="M330.91,501.19a7.55,7.55,0,0,0-9.38,9.07l16.21,62.63a287.12,287.12,0,0,1,20.74-63.5Z"/><path class="cls-21" d="M440.11,223.63h-4a2.44,2.44,0,0,1,0-4.88h4a2.44,2.44,0,1,1,0,4.88Z"/><path class="cls-21" d="M455.32,223.63h-4.05a2.44,2.44,0,1,1,0-4.88h4.05a2.44,2.44,0,1,1,0,4.88Z"/><path class="cls-21" d="M445.69,218.06a2.45,2.45,0,0,1-2.44-2.45v-4a2.44,2.44,0,0,1,4.88,0v4A2.44,2.44,0,0,1,445.69,218.06Z"/><path class="cls-21" d="M445.69,233.26a2.44,2.44,0,0,1-2.44-2.44v-4a2.44,2.44,0,1,1,4.88,0v4A2.44,2.44,0,0,1,445.69,233.26Z"/></g></g></svg>