<svg xmlns="http://www.w3.org/2000/svg" xmlns:xlink="http://www.w3.org/1999/xlink" viewBox="0 0 184.23 187.88"><defs><style>.cls-1,.cls-35{fill:none;}.cls-2,.cls-28{fill:#fff;}.cls-21,.cls-22,.cls-23,.cls-3{fill:#dd9b0a;}.cls-4{fill:#ffae2c;}.cls-5{fill:#181b2b;}.cls-6{fill:#6843af;}.cls-7{fill:#50309e;}.cls-8{clip-path:url(#clip-path);}.cls-9{fill:#11aae2;}.cls-10{fill:#39b44a;}.cls-11{fill:#fbaf3a;}.cls-12{fill:#30c2e7;}.cls-13,.cls-15,.cls-16,.cls-18,.cls-19{fill:#18a9e1;}.cls-13{opacity:0.22;}.cls-14{fill:#11a9e1;}.cls-15{opacity:0.41;}.cls-16{opacity:0.31;}.cls-17,.cls-20{fill:#90d5e3;}.cls-17{opacity:0.92;}.cls-18{opacity:0.07;}.cls-19{opacity:0.19;}.cls-21{opacity:0.84;}.cls-22{opacity:0.78;}.cls-23{opacity:0.8;}.cls-24{fill:#9bd2a7;}.cls-24,.cls-30{opacity:0.1;}.cls-25{fill:#478daf;opacity:0.04;}.cls-26{fill:#eff8fd;}.cls-26,.cls-33{opacity:0.18;}.cls-27{fill:#d1edfb;opacity:0.11;}.cls-28,.cls-29,.cls-34{opacity:0.09;}.cls-29{fill:#a4d49c;}.cls-30{fill:#e0efd6;}.cls-31{fill:#e3f4fc;opacity:0.06;}.cls-32{opacity:0.73;}.cls-33,.cls-34{fill:#d6effa;}.cls-35{stroke:#fff;stroke-linecap:round;stroke-miterlimit:10;stroke-width:0.25px;stroke-dasharray:12 0 4 0 0;}</style><clipPath id="clip-path" transform="translate(-3.38)"><rect class="cls-1" width="187.38" height="187.74"/></clipPath></defs><title>storeAsset 3</title><g id="Layer_2" data-name="Layer 2"><g id="Layer_1-2" data-name="Layer 1"><circle class="cls-2" cx="84.24" cy="103.64" r="84.24"/><path class="cls-3" d="M167.1,148.48,161.86,45.3A5.61,5.61,0,0,0,156.25,40H27.51A5.61,5.61,0,0,0,21.9,45.3L16.65,148.67a81.75,81.75,0,0,0,27.77,27.62,83.69,83.69,0,0,0,33.72,11.14,85.85,85.85,0,0,0,13.67.31c19-1,33.1-8,39.88-11.38A115,115,0,0,0,167.1,148.48Z" transform="translate(-3.38)"/><path class="cls-3" d="M111.28,50.35a4.87,4.87,0,1,0,9.74,0V40h-9.74Z" transform="translate(-3.38)"/><path class="cls-3" d="M59.57,55.22a4.87,4.87,0,0,0,4.87-4.87V40H54.7V50.35a4.87,4.87,0,0,0,4.87,4.87Z" transform="translate(-3.38)"/><path class="cls-4" d="M51.2,40H27.51A5.61,5.61,0,0,0,21.9,45.3L16.65,148.67a78,78,0,0,0,21.88,23.41L45.59,45.3A5.61,5.61,0,0,1,51.2,40Z" transform="translate(-3.38)"/><path class="cls-5" d="M71.13,50.31a7.61,7.61,0,1,1-7.61-7.61,7.61,7.61,0,0,1,7.61,7.61Z" transform="translate(-3.38)"/><path class="cls-5" d="M127.71,50.31a7.61,7.61,0,1,1-7.61-7.61,7.61,7.61,0,0,1,7.61,7.61Z" transform="translate(-3.38)"/><path class="cls-6" d="M120.1,55.22a4.87,4.87,0,0,1-4.87-4.87V23.05A13.32,13.32,0,0,0,101.92,9.74H81.7A13.32,13.32,0,0,0,68.39,23.05v27.3a4.87,4.87,0,1,1-9.74,0V23.05A23.08,23.08,0,0,1,81.7,0h20.22a23.08,23.08,0,0,1,23,23.05v27.3a4.87,4.87,0,0,1-4.87,4.87Z" transform="translate(-3.38)"/><path class="cls-6" d="M120.1,55.22a4.87,4.87,0,0,1-4.87-4.87V23.05A13.32,13.32,0,0,0,101.92,9.74H81.7A13.32,13.32,0,0,0,68.39,23.05v27.3a4.87,4.87,0,1,1-9.74,0V23.05A23.08,23.08,0,0,1,81.7,0h20.22a23.08,23.08,0,0,1,23,23.05v27.3a4.87,4.87,0,0,1-4.87,4.87Z" transform="translate(-3.38)"/><path class="cls-7" d="M64.44,50.35V23.05a23.08,23.08,0,0,1,23-23H81.7A23.08,23.08,0,0,0,58.65,23.05v27.3a4.87,4.87,0,0,0,7.77,3.91,4.86,4.86,0,0,1-2-3.91Z" transform="translate(-3.38)"/><g class="cls-8"><path class="cls-3" d="M167.1,148.48l-2-38.73a42,42,0,0,0-55.56,39.69c0,13,4.37,23.22,13.6,30.91,17.25-6.61,33.5-17,43.93-31.87Z" transform="translate(-3.38)"/><path class="cls-6" d="M187.61,145.3a36.09,36.09,0,1,1-36.09-36.09,36.09,36.09,0,0,1,36.09,36.09Z" transform="translate(-3.38)"/></g><path class="cls-7" d="M127.71,145.3a36.08,36.08,0,0,1,30-35.56,35.58,35.58,0,0,0-6.14-.53,36.09,36.09,0,0,0,0,72.18,35.58,35.58,0,0,0,6.14-.53,36.08,36.08,0,0,1-29.95-35.56Z" transform="translate(-3.38)"/><path class="cls-9" d="M141.69,132.21c-2.52-1.57-6.05.32-7.06,2.81-.26.66.8.95,1.07.29.75-1.85,3.57-3.31,5.43-2.15.6.38,1.16-.57.56-.95Z" transform="translate(-3.38)"/><path class="cls-10" d="M155,154.68a3,3,0,0,1-1.16-1.55.56.56,0,0,0-1-.13,9,9,0,0,1-4.11,4c-.65.29-.09,1.25.56,1a9.89,9.89,0,0,0,4-3.5,4.42,4.42,0,0,0,1.17,1.19C155,156,155.55,155.08,155,154.68Z" transform="translate(-3.38)"/><path class="cls-11" d="M168.28,158.76c4.07-1,6.93-4.7,8.07-8.57a.56.56,0,0,0-1.07-.3c-1,3.51-3.59,6.92-7.29,7.8a.55.55,0,0,0,.29,1.07Z" transform="translate(-3.38)"/><path class="cls-9" d="M146.31,133.75a.78.78,0,0,0,0-.16,1.88,1.88,0,1,0,0,.33A1,1,0,0,0,146.31,133.75Zm-2.67,0a.78.78,0,0,1,1.56,0A.78.78,0,0,1,143.64,133.75Z" transform="translate(-3.38)"/><path class="cls-9" d="M149.77,142.85a2.32,2.32,0,1,0-2.32-2.32A2.32,2.32,0,0,0,149.77,142.85Z" transform="translate(-3.38)"/><path class="cls-12" d="M150.47,141.73a1.13,1.13,0,0,0,1.24-1.2,1.93,1.93,0,0,0-1.94-1.93c-.84,0-2.53,1.32-1.83,2.27a1.6,1.6,0,0,0,.61.44A4.48,4.48,0,0,0,150.47,141.73Z" transform="translate(-3.38)"/><path class="cls-13" d="M149.52,138.71a1.43,1.43,0,0,0-.7,1.34c0,.83,1.13,1.18,1.8,1.16C152.87,141.15,151,138,149.52,138.71Z" transform="translate(-3.38)"/><path class="cls-14" d="M151.53,145.13a2.85,2.85,0,0,0-2.36-1,2.74,2.74,0,0,0-2.06,1.18,5,5,0,0,0-.78,2.89,5.89,5.89,0,0,1-.28,2.47,2,2,0,0,1-2.55.61,2.45,2.45,0,0,1-1.17-1.43,12.29,12.29,0,0,1-.42-5c.06-1,.18-2,.24-3a39.46,39.46,0,0,0,.39-4.47,3.93,3.93,0,0,0-1.65-3.23,3,3,0,0,0-3.62.75,6.79,6.79,0,0,0-1.57,4.14c-.08.73-.12,1.48-.17,2.22-.06,1-.12,2-.13,3.07a17.83,17.83,0,0,0,.87,6.24,11,11,0,0,0,1.34,2.59,8.58,8.58,0,0,0,2.53,2.42,9.36,9.36,0,0,0,3.28,1.1,10.41,10.41,0,0,0,1.58.12,7.27,7.27,0,0,0,6.47-4.5c1-2.14,1.71-5.05.15-7.11Z" transform="translate(-3.38)"/><path class="cls-12" d="M142.54,150.91a2.35,2.35,0,0,0,.88.89c.87.47,2.53.25,3-.71a11.06,11.06,0,0,0,.56-3.71,3.09,3.09,0,0,1,1.21-2.48,2.27,2.27,0,0,1,2.78.65,4.34,4.34,0,0,1,.86,2.91,8.08,8.08,0,0,1-2.68,5.94,7.3,7.3,0,0,1-6.25,1.66,8.59,8.59,0,0,1-5.5-4.45,16,16,0,0,1-1.65-7.05c-.11-3.1.36-6.38,2.28-8.82a2.35,2.35,0,0,1,2.07-1.11c.94.18,1.38,1.27,1.54,2.22a33.73,33.73,0,0,1,0,7.38,21.29,21.29,0,0,0,.06,3.66,8.68,8.68,0,0,0,.21,1.24,5.45,5.45,0,0,0,.22.79A7.92,7.92,0,0,0,142.54,150.91Z" transform="translate(-3.38)"/><path class="cls-15" d="M140,136c.7-1.27-1.25-2.41-2-1.14a17.08,17.08,0,0,0-2.07,7.78c-.05,1.44,0,2.89,0,4.33,0,1.26-.15,2.72,1.07,3.49s2.32-1.08,1.23-1.89a.35.35,0,0,1,0-.2,5.54,5.54,0,0,0,0-.91c0-.57,0-1.15,0-1.73,0-1.2,0-2.39,0-3.59A14.11,14.11,0,0,1,140,136Z" transform="translate(-3.38)"/><path class="cls-16" d="M151.75,147.31c-.27-1.17-.77-2.45-2.14-2.53a2.66,2.66,0,0,0-2.65,2c-.33,1.41,1.84,2,2.18.6.06-.22.11-.17.19-.25a4.92,4.92,0,0,1,.34,1.9,6.26,6.26,0,0,1-1.68,3.81,1.16,1.16,0,0,0,0,1.6,1.14,1.14,0,0,0,1.6,0,10.6,10.6,0,0,0,2-3.4A7.37,7.37,0,0,0,151.75,147.31Z" transform="translate(-3.38)"/><path class="cls-13" d="M150,146.46a1.83,1.83,0,0,0-2.44.27c-.83.83-.48,1.93-.62,3a7.53,7.53,0,0,1-.68,2.27,1.22,1.22,0,0,0,0,1.1c-2.11.89-5.39.9-6.31-1.35-1.15-2.82-.81-5.72-.71-8.72a18.33,18.33,0,0,1,.53-3.12l.78-3.62a1.13,1.13,0,0,0-2.22-.44,58.64,58.64,0,0,0-1.27,6.25,30.71,30.71,0,0,0-.27,6.49,10.7,10.7,0,0,0,2,5.36,6.23,6.23,0,0,0,4.33,2.27,8.57,8.57,0,0,0,4.86-.65,3.89,3.89,0,0,0,1.56-1.79,1.5,1.5,0,0,0,.09-.76,8.9,8.9,0,0,0,.71-1.13,7,7,0,0,0,.77-1.9A3.73,3.73,0,0,0,150,146.46Z" transform="translate(-3.38)"/><path class="cls-17" d="M150,146.28c.12.15.26.26.45.14a.76.76,0,0,0,.13-1,1.43,1.43,0,0,0-1-.66,2,2,0,0,0-2.2,1.05.59.59,0,0,0,.21.8.58.58,0,0,0,.8-.21c.11-.25.42-.61.68-.63a.92.92,0,0,1,.72.2C149.81,146.05,149.89,146.17,150,146.28Z" transform="translate(-3.38)"/><path class="cls-18" d="M148.39,152.14c.08-.08.16-.18.24-.27a1.18,1.18,0,0,0,0-1.6,1.14,1.14,0,0,0-1.6,0,3.59,3.59,0,0,1-2.68,1.45,3.8,3.8,0,0,1-1.69-.35,8.48,8.48,0,0,1-.9-.46l-.14-.09a1.77,1.77,0,0,0,0-.2c-.06-.21-.12-.42-.17-.63a19.5,19.5,0,0,1,.07-7.42,1.28,1.28,0,0,0-.38-1.17,1.66,1.66,0,0,0-1.77-.75,1,1,0,0,0-.88.36,2.5,2.5,0,0,0-.24.22,4,4,0,0,0-.76,1.85,18.52,18.52,0,0,0-.37,2.23c0,.37-.08.76-.09,1.15a7.32,7.32,0,0,0,.5,3.42,4.77,4.77,0,0,0,1.21,1.86c.55,1.67,2.34,2.41,4,2.75,1.87.39,3.94.69,5.6-.49a1.11,1.11,0,0,0,.13-1.86Z" transform="translate(-3.38)"/><path class="cls-19" d="M146.51,152.62l-2.06-.16a5.14,5.14,0,0,1-1.51-.2c-.48-.18-.72-.74-1-1.14-.37-.57-.74-1.13-1.09-1.71-.64-1-.25-2.43-.15-3.6l.19-2.16a1.24,1.24,0,0,0,.14-.41,36.31,36.31,0,0,0,.82-5.27c0-1.4-.51-3.57-2.27-3.49-1.29.05-1.26,1.83-.22,2.19h0c0,.09.08.18.11.27a2.41,2.41,0,0,1,.12.65,6.9,6.9,0,0,1-.14,1.57c-.1.55-.19,1.09-.29,1.64a1.3,1.3,0,0,0-.37.83l-.42,4.91a11.48,11.48,0,0,0-.11,2.34,4.83,4.83,0,0,0,.85,2c.79,1.22,1.5,2.86,2.93,3.43a6.65,6.65,0,0,0,2,.35l2.42.19a1.14,1.14,0,0,0,1.13-1.13A1.16,1.16,0,0,0,146.51,152.62Z" transform="translate(-3.38)"/><path class="cls-17" d="M150.7,147.56c.38.82,1.33.38.94-.44S150.32,146.74,150.7,147.56Z" transform="translate(-3.38)"/><path class="cls-13" d="M150.73,139.15a1.15,1.15,0,0,0-1.55-.41l-.68.39a1.18,1.18,0,0,0-.52.68,1.2,1.2,0,0,0,.11.87,1.15,1.15,0,0,0,1.55.4l.68-.39a1.12,1.12,0,0,0,.52-.67A1.15,1.15,0,0,0,150.73,139.15Z" transform="translate(-3.38)"/><path class="cls-17" d="M149.77,138.94a.54.54,0,0,0,0,1.08A.54.54,0,0,0,149.77,138.94Z" transform="translate(-3.38)"/><path class="cls-20" d="M142.41,151.67a4.21,4.21,0,0,1-.93-1.95,10.45,10.45,0,0,1-.35-2.61c0-1.87.22-3.73.16-5.6,0-.94-1.5-.94-1.47,0,.07,2.12-.27,4.23-.12,6.35a10.06,10.06,0,0,0,.6,3,2.76,2.76,0,0,0,1.69,1.86C142.9,153,143.23,152.27,142.41,151.67Z" transform="translate(-3.38)"/><path class="cls-11" d="M174.47,144.39c0-1-.06-2-.13-3.07-.14-2.25,0-5.19-1.92-6.79a3,3,0,0,0-3.79-.14c-1.18,1-1.34,2.76-1.25,4.18.07,1.12.28,2.22.34,3.34.12,2,1.23,9.1-1.86,9.54a4.63,4.63,0,0,1-1.58,0c.06-.27.12-.53.17-.8a7.36,7.36,0,0,0-.09-3.58,5.43,5.43,0,0,0-1.58-2.49,4.89,4.89,0,0,0-2.3-1.16,6,6,0,0,0-5.57,1.84,5.76,5.76,0,0,0-1.32,2.77,6,6,0,0,0,1.38,4.71,6.36,6.36,0,0,0,2.13,1.69l.63.32a5.87,5.87,0,0,1-3.66,2.78c-1.33.41-3.1,1-3.23,2.64a2.56,2.56,0,0,0,.72,2,3.46,3.46,0,0,0,2.15.89,6.47,6.47,0,0,0,2.92-.44,10.34,10.34,0,0,0,4.27-3.21,11.56,11.56,0,0,0,.9-1.37c.14-.23.26-.47.38-.71l.18-.36c0-.09.1-.32.17-.37s0,0,0,0l0,0a10,10,0,0,0,7.14-.93,8.43,8.43,0,0,0,2.52-2.42,11,11,0,0,0,1.35-2.59A17.82,17.82,0,0,0,174.47,144.39Zm-15.05,6.3a1.58,1.58,0,0,1-.14-3,1.28,1.28,0,0,1,1.17.09,1.45,1.45,0,0,1,.57.74C161.41,149.58,160.68,151.07,159.42,150.69Z" transform="translate(-3.38)"/><path class="cls-21" d="M173.54,144.88c0-.95-.06-1.91-.12-2.86-.1-1.61-.08-4.46-.73-6a2.58,2.58,0,0,0-3.53-1,4.05,4.05,0,0,0-1.36,2.89v.29c-.13,3.22.82,6.37.68,9.59-.06,1.43-.26,3.08-1.53,4a3.58,3.58,0,0,1-2.7.46c-.67-.27-.55-.48-.53-1.13.11-4.11-2.59-9.45-7.35-6.3a5.25,5.25,0,0,0-1,.91,5.31,5.31,0,0,0-1.23,2.57,5.11,5.11,0,0,0,.28,2.63,5.7,5.7,0,0,0,3.11,3.36,1.88,1.88,0,0,1,.55.27c1.3,1.08-2.08,2.74-2.77,3.08-1,.48-2.32.72-3.16,1.42a1.71,1.71,0,0,0,.62,3,6.83,6.83,0,0,0,4.12-.16,10.1,10.1,0,0,0,3.64-2.55,11.18,11.18,0,0,0,1.93-3.08l0,0,0,0a8.7,8.7,0,0,0,3.59.16,8.58,8.58,0,0,0,3.06-1,7.88,7.88,0,0,0,2.35-2.25,10.41,10.41,0,0,0,1.25-2.41A16.54,16.54,0,0,0,173.54,144.88ZM159.41,151c-1.23-.2-1.67-1.93-.91-3a1.68,1.68,0,0,1,2.9.59A2,2,0,0,1,159.41,151Z" transform="translate(-3.38)"/><path class="cls-22" d="M173.12,139.23a3.62,3.62,0,0,0-1.4-3.21c-.71-.42-2.05-1.12-2.58-.48-.78,1-.4,2.49-.35,3.69.07,2.09.47,4.16.6,6.24a14.57,14.57,0,0,1-.23,4.52,4.67,4.67,0,0,1-3.53,3.72c-1,.28-.8.94.25,1a6.22,6.22,0,0,0,5-2.4,11.42,11.42,0,0,0,1.92-6.08A62.39,62.39,0,0,0,173.12,139.23Z" transform="translate(-3.38)"/><path class="cls-3" d="M171.54,136.89c1.33,1.57,1.16,4.37,1.07,6.23s-.19,3.39-.38,5.26a12.34,12.34,0,0,0-.15,1.71c0,.94,1,1.35,1.36-.88a31.76,31.76,0,0,0,.09-9.83,7.28,7.28,0,0,0-1.17-3.29,2.71,2.71,0,0,0-1.15-1c-.44-.15-1.21.36-.82.86a1.09,1.09,0,0,0,.32.23A3.05,3.05,0,0,1,171.54,136.89Z" transform="translate(-3.38)"/><path class="cls-22" d="M162.66,146.18c-1.78-2.05-4.68-2.79-6.81-.69-1.72,1.72-1.57,4.51-.54,6.55a.89.89,0,0,0,1.05.45c.19,0,.33-.19.53-.22s2.63,0,1.88-.57a2.46,2.46,0,0,1-.79-3.07,2.36,2.36,0,0,1,3.92-.36c.27.27.7-.45.72-.85v0A.86.86,0,0,0,162.66,146.18Z" transform="translate(-3.38)"/><path class="cls-22" d="M162,154.54a.64.64,0,0,0-1-.25c-.88.83-1.6,1.8-2.52,2.57a9,9,0,0,1-3.24,1.85c-.88.24-2.33,0-2.49,1.2a.5.5,0,0,0,.08.34c-.53.3-.32.87.08,1.14,1.14.75,3.25.39,4.4-.14a11.89,11.89,0,0,0,3.67-3.5,20.6,20.6,0,0,0,1.33-2.14,1.28,1.28,0,0,0,.19-.41A.56.56,0,0,0,162,154.54Z" transform="translate(-3.38)"/><path class="cls-3" d="M160.76,157a1.73,1.73,0,0,0-.36.44,9.7,9.7,0,0,1-3,2.88,7.22,7.22,0,0,1-4.71,1.06c-.49,0-.28.64.2.72a6.94,6.94,0,0,0,4.92-1.1,11,11,0,0,0,2-1.65,10.12,10.12,0,0,0,1.45-1.69c.12-.19.22-.44.1-.62a.43.43,0,0,0-.57-.07Z" transform="translate(-3.38)"/><path class="cls-3" d="M163.6,154.93a.52.52,0,0,0,0,1A.52.52,0,0,0,163.6,154.93Z" transform="translate(-3.38)"/><path class="cls-3" d="M164.76,155.44a.33.33,0,0,0,0,.66A.33.33,0,0,0,164.76,155.44Z" transform="translate(-3.38)"/><path class="cls-23" d="M153.67,160a.4.4,0,0,0-.26.14.34.34,0,0,0,.26.53,2,2,0,0,0,.68-.13,1.58,1.58,0,0,0,.59-.34c.17-.26-.28-.38-.46-.38a2.82,2.82,0,0,0-.64.14Z" transform="translate(-3.38)"/><path class="cls-3" d="M169.52,134.54c-.34,0-.72.52-.8.76-.15.46.2.63.8.27S170.18,134.54,169.52,134.54Z" transform="translate(-3.38)"/><path class="cls-3" d="M164.06,149.15a5.69,5.69,0,0,0-2-4,4.36,4.36,0,0,0-3-.85,3.38,3.38,0,0,0-2,.76c-.62.6-.5,1.75.59,1.32.51-.2.92-.61,1.44-.78a2.21,2.21,0,0,1,2,.37,4,4,0,0,1,1.28,1.78c.2.52.2,1.52.65,1.89A.66.66,0,0,0,164.06,149.15Z" transform="translate(-3.38)"/><path class="cls-11" d="M166.28,158.36l-2.91-.37a.53.53,0,0,0-.53.7c.28.92.59,1.83.95,2.73a.55.55,0,0,0,.91.24c.68-.77,1.31-1.58,2-2.36A.56.56,0,0,0,166.28,158.36Zm-.75.9-1.07,1.3c-.18-.5-.35-1-.52-1.5Z" transform="translate(-3.38)"/><path class="cls-10" d="M164.65,134.86a5.22,5.22,0,0,0-3.36-1.77,3.74,3.74,0,0,0,0-1.25,2.21,2.21,0,0,0-1.85-1.61,3.33,3.33,0,0,0-2.41.51,2,2,0,0,0-.85,1.29,3.57,3.57,0,0,0,.06,1.31,6.65,6.65,0,0,0-1.44.44,4,4,0,0,0-2.42,4.14,4.58,4.58,0,0,0,3,3.88,12.22,12.22,0,0,0,5.11.25,6.86,6.86,0,0,0,3.18-1.05,4.39,4.39,0,0,0,1.82-4.32A4.32,4.32,0,0,0,164.65,134.86Zm-4.21-1.8a18.91,18.91,0,0,0-3.28.1l-.11,0a2.43,2.43,0,0,1-.06-1,1.1,1.1,0,0,1,.5-.74,2.47,2.47,0,0,1,1.77-.37,1.44,1.44,0,0,1,1.2,1A2.5,2.5,0,0,1,160.44,133.06Z" transform="translate(-3.38)"/><path class="cls-24" d="M164.53,136.89A2.81,2.81,0,0,0,162,134.7a12,12,0,0,0-4.31-.21,6.47,6.47,0,0,0-3,1,1.11,1.11,0,0,0-.26,1.24c.24.71.65.41,1.1.58a5,5,0,0,0,1.89,0l2-.08a8,8,0,0,1,1.38.12,3.73,3.73,0,0,1,1.27.29c.36.2.58.62,1,.78C163.93,138.74,164.7,137.9,164.53,136.89Z" transform="translate(-3.38)"/><path class="cls-25" d="M153.47,138.86A2.81,2.81,0,0,0,156,141a12,12,0,0,0,4.31.22,6.53,6.53,0,0,0,3-1,1.11,1.11,0,0,0,.26-1.24c-.25-.71-.66-.4-1.11-.57a4.81,4.81,0,0,0-1.89,0c-.68,0-1.35.06-2,.07a8.07,8.07,0,0,1-1.39-.12,3.71,3.71,0,0,1-1.27-.28c-.36-.2-.58-.62-1-.78C154.07,137,153.29,137.85,153.47,138.86Z" transform="translate(-3.38)"/><path class="cls-26" d="M164,139.83a.88.88,0,0,1-.1.22,2.57,2.57,0,0,1-1.8,1.33.65.65,0,0,1-.39,0c-.53-.26.16-.68.38-.85a9.17,9.17,0,0,1,1.26-.88.65.65,0,0,1,.35-.13.3.3,0,0,1,.29.19A.29.29,0,0,1,164,139.83Z" transform="translate(-3.38)"/><path class="cls-27" d="M153.66,139.31v0a1.28,1.28,0,0,0,.32.44,3,3,0,0,0,.39.4,3.72,3.72,0,0,0,1.15.67c.45.17.71-.55.29-.81l0,0a7.49,7.49,0,0,1-1.41-1.14.34.34,0,0,0-.5,0A.49.49,0,0,0,153.66,139.31Z" transform="translate(-3.38)"/><path class="cls-28" d="M163,140.76h0a1.1,1.1,0,0,0,.37-.16,2.25,2.25,0,0,0,.36-.24,3.11,3.11,0,0,0,.7-.79.33.33,0,0,0-.51-.4l0,0a6,6,0,0,1-1.09.91.31.31,0,0,0-.11.4C162.82,140.62,162.9,140.75,163,140.76Z" transform="translate(-3.38)"/><path class="cls-29" d="M155.13,138.93c.15-.12.28-.26.43-.38a4.11,4.11,0,0,1,3.57-.74,4.28,4.28,0,0,1,1.44.47.88.88,0,0,1,.17,1.36,1.84,1.84,0,0,1-1,.51,9.55,9.55,0,0,1-2.14.13,12.35,12.35,0,0,1-2.64-.23.91.91,0,0,1-.35-.15c-.44-.34.17-.69.42-.88Z" transform="translate(-3.38)"/><path class="cls-30" d="M157.66,139.13s1.73-2.51,5.69-.69a1.76,1.76,0,0,1,.09.92c-.24,1.23-1.92,1.68-2.22,1.76-2,.52-4.23-.46-4.24-1.24C157,139.69,157.11,139.44,157.66,139.13Z" transform="translate(-3.38)"/><path class="cls-31" d="M154,135.16a2.76,2.76,0,0,0,.23-.27,3.89,3.89,0,0,1,2.51-1.25,6.45,6.45,0,0,1,2.75.41c.36.13.35.68.3,1a1.84,1.84,0,0,1-.46.91,3,3,0,0,1-.81.61,5.07,5.07,0,0,1-4,.32,2.64,2.64,0,0,1-.9-.49c-.55-.51,0-.88.37-1.23Z" transform="translate(-3.38)"/><g class="cls-32"><path class="cls-33" d="M161.33,134a.64.64,0,0,1,.18-.06,2,2,0,0,1,1.73.45.6.6,0,0,1,.2.27c.13.49-.48.28-.69.23a8.5,8.5,0,0,1-1.19-.35.68.68,0,0,1-.26-.15.3.3,0,0,1-.05-.3A.24.24,0,0,1,161.33,134Z" transform="translate(-3.38)"/><path class="cls-34" d="M162.66,134.14l0,0a.8.8,0,0,0-.29-.15,2.13,2.13,0,0,0-.33-.11,2.32,2.32,0,0,0-.83,0c-.3,0-.25.53.05.55h0a4.06,4.06,0,0,1,1.1.21.22.22,0,0,0,.29-.15A.31.31,0,0,0,162.66,134.14Z" transform="translate(-3.38)"/></g><path class="cls-2" d="M154.1,138.44h0c.09,0,.13-.09.12-.16a.1.1,0,0,0,0-.07,2.24,2.24,0,0,0-.27-.12l-.29-.15a1,1,0,0,1-.25-.26,1.18,1.18,0,0,1-.2-.46.94.94,0,0,1,.19-.69,1,1,0,0,1,.72-.42.86.86,0,0,1,.48,0,1.15,1.15,0,0,1,.32.24.33.33,0,0,1,.09.16.42.42,0,0,1-.06.24h0a.39.39,0,0,1-.24.21h-.13c-.08,0-.14-.07-.17-.19s-.06-.07-.13-.06a.19.19,0,0,0-.09,0,.31.31,0,0,0,0,.16.27.27,0,0,0,.16.2,6.15,6.15,0,0,1,.6.31.88.88,0,0,1,.4.52c0,.05,0,.11,0,.19a.84.84,0,0,1-.48.86,1.42,1.42,0,0,1-.42.17h-.1c-.51,0-.81-.15-.89-.43a.82.82,0,0,1,0-.14s0,0,0,0a.31.31,0,0,1,0-.19.18.18,0,0,1,.13-.1l.22.06a1,1,0,0,0,.25.06l.07,0Z" transform="translate(-3.38)"/><path class="cls-2" d="M157.42,136.29h0s0,.09,0,.15a.45.45,0,0,1-.08.3s-.12.06-.31.11l-.28.09s.05.29.15.79c0,.11,0,.21,0,.31a1.69,1.69,0,0,1,0,.58q-.1.3-.33.3a.59.59,0,0,1-.53-.19,1,1,0,0,1-.15-.5s0-.11,0-.4l0-.49a2.46,2.46,0,0,1,0-.41l-.07,0a.83.83,0,0,1-.27,0,.41.41,0,0,1-.26-.15.52.52,0,0,1-.12-.28.39.39,0,0,1,.23-.38,1.71,1.71,0,0,1,.79-.22,2.27,2.27,0,0,1,.52,0l.41.11A.46.46,0,0,1,157.42,136.29Z" transform="translate(-3.38)"/><path class="cls-2" d="M159.87,138.24h0a1,1,0,0,1-.36.49,1,1,0,0,1-.6.18,1.15,1.15,0,0,1-1-.47,1.58,1.58,0,0,1-.29-.95,2.44,2.44,0,0,1,0-.48c.15-.67.46-1,.92-1.12l.14,0a1.12,1.12,0,0,1,.61.21,1,1,0,0,1,.4.5,3.37,3.37,0,0,1,.21,1,2.39,2.39,0,0,1-.11.66Zm-1-.28h0c.07,0,.11-.15.11-.43a2,2,0,0,0,0-.43c0-.13-.06-.2-.09-.2s-.11,0-.16.18a1.64,1.64,0,0,0-.08.46C158.64,137.85,158.73,138,158.9,138Z" transform="translate(-3.38)"/><path class="cls-2" d="M162.44,138.38h0a.63.63,0,0,1-.18.24.62.62,0,0,1-.34.16c-.23,0-.46-.2-.69-.66a1,1,0,0,1,0,.17.55.55,0,0,1-.12.37.65.65,0,0,1-.36.12l-.14,0a.6.6,0,0,1-.3-.14.73.73,0,0,1-.09-.42v-.15a5.19,5.19,0,0,1,0-.69,9.1,9.1,0,0,1,.09-1.16.53.53,0,0,1,.42-.39,4.65,4.65,0,0,1,.68-.1,1,1,0,0,1,.83.4,1.67,1.67,0,0,1,.16.68.79.79,0,0,1-.18.53,1.31,1.31,0,0,1-.23.21,1.28,1.28,0,0,1,.45.78S162.44,138.35,162.44,138.38Zm-1.11-1.45h-.05l-.12.06a.63.63,0,0,0,0,.19v.4a.61.61,0,0,0,.25-.14.27.27,0,0,0,.11-.2A.45.45,0,0,0,161.33,136.93Z" transform="translate(-3.38)"/><path class="cls-2" d="M164.55,137.13v.12a.44.44,0,0,1-.19.33.44.44,0,0,1-.34.09h-.12a1,1,0,0,1-.05.24.14.14,0,0,0,.08.14.43.43,0,0,1,.26,0,.24.24,0,0,1,.16.22.45.45,0,0,1-.12.33.85.85,0,0,1-.35.26.87.87,0,0,1-.44.08.94.94,0,0,1-.39-.11.81.81,0,0,1-.21-.23,2.5,2.5,0,0,1-.08-1.11,7.29,7.29,0,0,1,.16-1.1.63.63,0,0,1,.24-.45l.66,0a1.94,1.94,0,0,1,.33,0c.2,0,.32.08.35.18a.32.32,0,0,1,0,.14.34.34,0,0,1-.14.26.57.57,0,0,1-.36.08h-.09a.6.6,0,0,0,0,.18.57.57,0,0,1,0,.18s0,.06.08.08a.41.41,0,0,1,.29-.07A.42.42,0,0,1,164.55,137.13Z" transform="translate(-3.38)"/><path class="cls-35" d="M154,140.62s2.48,1.78,5,1.11" transform="translate(-3.38)"/></g></g></svg>