<svg xmlns="http://www.w3.org/2000/svg" xmlns:xlink="http://www.w3.org/1999/xlink" viewBox="0 0 84.25 84.24"><defs><style>.cls-1{isolation:isolate;}.cls-2,.cls-6{fill:#fff;}.cls-3{fill:url(#Áåçûìÿííûé_ãðàäèåíò_82);}.cls-4{fill:url(#radial-gradient);}.cls-5{fill:url(#radial-gradient-2);}.cls-6{opacity:0.32;mix-blend-mode:overlay;}.cls-7{fill:#e5e5e5;}</style><linearGradient id="Áåçûìÿííûé_ãðàäèåíò_82" x1="1.35" y1="42.12" x2="82.9" y2="42.12" gradientUnits="userSpaceOnUse"><stop offset="0" stop-color="#ffc731"/><stop offset="0.78" stop-color="#df7203"/><stop offset="1" stop-color="#f57e04"/></linearGradient><radialGradient id="radial-gradient" cx="-52.66" cy="-3.14" r="14.7" gradientUnits="userSpaceOnUse"><stop offset="0" stop-color="#fff200"/><stop offset="1" stop-color="#f7941e"/></radialGradient><radialGradient id="radial-gradient-2" cx="-62.68" cy="-22.38" r="16.49" gradientUnits="userSpaceOnUse"><stop offset="0" stop-color="#fff200"/><stop offset="1" stop-color="#f15a29"/></radialGradient></defs><title>userAsset 6</title><g class="cls-1"><g id="Layer_2" data-name="Layer 2"><g id="Layer_1-2" data-name="Layer 1"><path class="cls-2" d="M42.12,0a41.49,41.49,0,0,0-9.64,1.12l0,0c-.26.21-2.45,2-3.38,2s-3.17.22-3.4.25h0c-.86.37-1.7.76-2.53,1.18A42.13,42.13,0,1,0,42.12,0Z"/><path class="cls-3" d="M82.9,42.11A40.78,40.78,0,1,1,23.74,5.72c.8-.41,1.62-.79,2.45-1.14h0c.22,0,2.38-.25,3.29-.25s3-1.68,3.27-1.88l0,0a40,40,0,0,1,9.33-1.08A40.77,40.77,0,0,1,82.9,42.11Z"/><circle class="cls-4" cx="42.12" cy="42.12" r="32.27"/><path class="cls-5" d="M32.79,2.43c-.1.36-1.32,5.07-1.64,5.07S26.48,4.77,26.2,4.58c.22,0,2.38-.25,3.29-.25s3-1.68,3.27-1.88Z"/><path class="cls-6" d="M82.9,42.11a40.49,40.49,0,0,1-7.33,23.32C45.05,65.31,16.51,28.24,23.74,5.72c.8-.41,1.62-.79,2.45-1.14h0c.22,0,2.38-.25,3.29-.25s3-1.68,3.27-1.88l0,0a40,40,0,0,1,9.33-1.08A40.77,40.77,0,0,1,82.9,42.11Z"/><circle class="cls-2" cx="42.83" cy="30.88" r="9.18" transform="translate(-9.29 39.33) rotate(-45)"/><path class="cls-2" d="M60.65,49.61a27.67,27.67,0,0,0-35.64,0,1.47,1.47,0,0,0-.53,1.14v7.66a3.06,3.06,0,0,0,3.06,3.06H58.12a3.06,3.06,0,0,0,3.06-3.06V51.35C61.18,50.31,61,49.89,60.65,49.61Z"/><path class="cls-7" d="M41.46,21.82a9.16,9.16,0,0,0-2.75,17.25A25.75,25.75,0,0,1,41.46,21.82Z"/><path class="cls-7" d="M35.85,44c-5,1.41-6.5,2-10.84,5.61a1.47,1.47,0,0,0-.53,1.14v7.66a3.06,3.06,0,0,0,3.06,3.06H54.59a15,15,0,0,0,3.8-.07c-1.39-1-3.27-1.08-4.83-1.72-3.51-1.46-6.41-4.27-9.13-6.86-1.49-1.41-2.93-2.88-4.35-4.36C39.61,48,36.31,43.87,35.85,44Z"/></g></g></g></svg>