<svg xmlns="http://www.w3.org/2000/svg" viewBox="0 0 74.87 128.09"><defs><style>.cls-1{opacity:0.15;}.cls-2{fill:#fff737;}.cls-3{fill:#f7c00a;}.cls-4{fill:#fff069;}.cls-5{fill:#fff18f;}</style></defs><title>num-2Asset 36</title><g id="Layer_2" data-name="Layer 2"><g id="Layer_1-2" data-name="Layer 1"><path class="cls-1" d="M31.77,110.12c-2.3,20.25-14.71,22.2-19.15,11.74S3.75,42.37,1.25,26.28C-.66,14,16.72,3.5,23.49,7.75c3,1.87,5.76,18.73,20.05,22.5S59.91,10.49,64.77,9.63s13.06,15.14,6.66,28.92S49.43,64,35.88,54.48C29,49.62,36.18,71.24,31.77,110.12Z"/><path class="cls-2" d="M31.77,104.43c-2.3,20.25-14.71,22.21-19.15,11.75S3.75,36.68,1.25,20.59C-.66,8.35,16.72-2.18,23.49,2.06c3,1.88,5.76,18.74,20.05,22.51S59.91,4.8,64.77,4s13.06,15.13,6.66,28.91-22,25.43-35.55,15.93C29,43.93,36.18,65.55,31.77,104.43Z"/><path class="cls-3" d="M20.29,123.51c-3.61,0-6.85-2.58-8.69-6.9C8.66,109.68,5.88,79.3,3.42,52.5,2.14,38.49,1,26.39.15,20.76-.51,16.5,1,12,4.35,8.05,8.41,3.31,14.73,0,19.72,0a8.14,8.14,0,0,1,4.36,1.12c1.15.72,2,2.52,3.27,5.24C30.07,12.17,34.2,21,43.82,23.5a10.87,10.87,0,0,0,2.69.37c6.57,0,9.9-7.44,12.58-13.41,1.87-4.18,3.23-7.2,5.49-7.6,2-.35,4.3,1.21,6.28,4.32a28.67,28.67,0,0,1,1.57,26.15c-4.48,9.64-14.54,20-26,20A19.18,19.18,0,0,1,35.25,49.7a2.47,2.47,0,0,0-.92-.47c-.76.82-.53,6.4-.31,11.8a268.65,268.65,0,0,1-1.15,43.53C31.28,118.54,25.1,123.51,20.29,123.51ZM19.72,2.21C15.4,2.21,9.64,5.27,6,9.49c-2.08,2.43-4.4,6.3-3.68,10.93.88,5.7,2,17.83,3.28,31.88,2.32,25.32,5.21,56.83,8,63.45,1.47,3.47,4,5.55,6.64,5.55,4.22,0,9.06-5.26,10.39-17a266.5,266.5,0,0,0,1.14-43.19c-.35-8.5-.43-12,.95-13.45A2.07,2.07,0,0,1,34.29,47a4,4,0,0,1,2.23.88,17,17,0,0,0,9.87,3.25c10.53,0,19.84-9.71,24-18.74A26.38,26.38,0,0,0,69,8.36C67.42,5.9,66,5,65.15,5L65,5c-1.11.19-2.57,3.45-3.85,6.32-2.79,6.21-6.6,14.72-14.6,14.72a12.52,12.52,0,0,1-3.25-.45C32.63,22.83,28.07,13.11,25.35,7.29,24.44,5.37,23.51,3.37,22.91,3A5.89,5.89,0,0,0,19.72,2.21Z"/><path class="cls-3" d="M20.88,118.63h0a4.51,4.51,0,0,1-3.48-1.93.8.8,0,0,1,.11-1.11.79.79,0,0,1,1.11.1,3.07,3.07,0,0,0,2.26,1.36h.26a.79.79,0,1,1,.21,1.56A3.44,3.44,0,0,1,20.88,118.63ZM24.61,116a.77.77,0,0,1-.44-.14.78.78,0,0,1-.22-1.09,18.09,18.09,0,0,0,1.66-3.22.79.79,0,0,1,1.46.6,19.57,19.57,0,0,1-1.81,3.5A.77.77,0,0,1,24.61,116Zm-8.68-2.85a.79.79,0,0,1-.74-.52c-.1-.25-.19-.51-.28-.77-.24-.75-.5-1.72-.77-3a.79.79,0,1,1,1.55-.33,28.61,28.61,0,0,0,.72,2.82c.09.25.17.49.26.72a.8.8,0,0,1-.47,1A.86.86,0,0,1,15.93,113.11Zm11.81-4.7-.21,0a.81.81,0,0,1-.55-1c.31-1.12.61-2.34.88-3.63a.79.79,0,0,1,1.54.32c-.27,1.32-.58,2.58-.9,3.73A.78.78,0,0,1,27.74,108.41Zm-13.63-3.32a.79.79,0,0,1-.78-.66c-.19-1.16-.38-2.42-.58-3.76a.8.8,0,0,1,.67-.9.79.79,0,0,1,.89.67c.2,1.33.39,2.58.58,3.74a.78.78,0,0,1-.65.9Zm15.28-4.71h-.1a.78.78,0,0,1-.68-.89c.16-1.14.29-2.39.41-3.72a.8.8,0,0,1,.85-.72.78.78,0,0,1,.72.85c-.12,1.36-.26,2.64-.42,3.81A.79.79,0,0,1,29.39,100.38ZM12.93,97a.8.8,0,0,1-.79-.68c-.16-1.22-.32-2.47-.48-3.77a.79.79,0,0,1,1.57-.2c.16,1.3.32,2.55.48,3.76A.8.8,0,0,1,13,97Zm17.16-4.74h0a.79.79,0,0,1-.75-.83c.05-1.2.1-2.46.13-3.77a.79.79,0,1,1,1.57,0c0,1.31-.07,2.59-.13,3.81A.79.79,0,0,1,30.09,92.21ZM11.91,88.79a.79.79,0,0,1-.78-.69c-.15-1.24-.29-2.5-.44-3.78a.79.79,0,1,1,1.57-.17c.14,1.27.29,2.53.43,3.76a.78.78,0,0,1-.69.88ZM30.28,84h0a.79.79,0,0,1-.79-.79v-.29q0-1.71,0-3.48a.79.79,0,0,1,.78-.8.81.81,0,0,1,.8.78c0,1.19,0,2.36,0,3.5v.3A.79.79,0,0,1,30.28,84ZM11,80.62a.77.77,0,0,1-.78-.7c-.14-1.24-.28-2.5-.41-3.77A.78.78,0,1,1,11.35,76c.14,1.27.28,2.52.42,3.77a.8.8,0,0,1-.7.87ZM30.16,75.8a.79.79,0,0,1-.79-.77c0-1.24-.08-2.5-.13-3.77a.79.79,0,0,1,1.58-.07c.05,1.29.09,2.55.13,3.8a.79.79,0,0,1-.77.81ZM10.1,72.45a.78.78,0,0,1-.78-.71c-.14-1.25-.27-2.51-.4-3.77a.79.79,0,1,1,1.57-.16l.39,3.77a.79.79,0,0,1-.7.87ZM29.83,67.6a.79.79,0,0,1-.79-.75c-.07-1.24-.14-2.5-.21-3.77A.79.79,0,1,1,30.4,63c.08,1.28.15,2.54.21,3.79a.78.78,0,0,1-.74.83ZM9.25,64.27a.79.79,0,0,1-.79-.71l-.39-3.77a.79.79,0,0,1,.71-.86.78.78,0,0,1,.86.7L10,63.4a.79.79,0,0,1-.7.87Zm20.08-4.86a.8.8,0,0,1-.79-.74c-.08-1.25-.18-2.5-.27-3.77a.79.79,0,1,1,1.57-.12c.1,1.27.19,2.53.28,3.78a.79.79,0,0,1-.74.84ZM8.41,56.1a.8.8,0,0,1-.79-.71l-.38-3.73L8,51.53l.78-.08.39,3.78a.78.78,0,0,1-.7.86ZM28.7,51.22a.79.79,0,0,1-.79-.72c-.1-1.25-.22-2.51-.33-3.77,0-.57-.1-1.09-.13-1.55a.79.79,0,1,1,1.58-.1c0,.45.07,1,.12,1.51q.18,1.89.33,3.78a.78.78,0,0,1-.72.85Zm18.74-2.28h0a18.36,18.36,0,0,1-2.56-.18.8.8,0,0,1-.67-.9.79.79,0,0,1,.89-.67,12.62,12.62,0,0,0,2.36.17c.41,0,.83,0,1.25,0a.79.79,0,0,1,.12,1.58C48.36,48.92,47.89,48.94,47.44,48.94Zm5.61-1a.79.79,0,0,1-.26-1.53,17.41,17.41,0,0,0,3.26-1.57.79.79,0,0,1,1.08.27.78.78,0,0,1-.26,1.08,18.91,18.91,0,0,1-3.55,1.7A.65.65,0,0,1,53.05,48Zm-45.49,0a.78.78,0,0,1-.78-.71c-.14-1.29-.27-2.55-.4-3.77A.79.79,0,1,1,8,43.27c.13,1.22.26,2.48.4,3.78a.79.79,0,0,1-.7.86Zm33.15-.29a.92.92,0,0,1-.28-.05c-.7-.27-1.4-.59-2.1-.94l-1.4-.71a.79.79,0,0,1,.72-1.41l1.39.71c.65.33,1.31.62,2,.88a.79.79,0,0,1-.29,1.52ZM33.34,44a.84.84,0,0,1-.34-.08,15.09,15.09,0,0,0-3.3-1.32A.79.79,0,0,1,30,41.06a15.43,15.43,0,0,1,3.72,1.46.79.79,0,0,1,.36,1.06A.77.77,0,0,1,33.34,44ZM60,43.64a.78.78,0,0,1-.57-.24.79.79,0,0,1,0-1.12,23,23,0,0,0,2.47-2.71.79.79,0,0,1,1.24,1,25.92,25.92,0,0,1-2.63,2.88A.78.78,0,0,1,60,43.64ZM6.69,39.74A.78.78,0,0,1,5.91,39c-.15-1.32-.29-2.58-.42-3.76a.79.79,0,1,1,1.56-.18c.14,1.19.28,2.45.43,3.77a.79.79,0,0,1-.7.87ZM65,37.17a.75.75,0,0,1-.38-.1A.79.79,0,0,1,64.26,36a29.22,29.22,0,0,0,1.61-3.33.79.79,0,0,1,1-.42.78.78,0,0,1,.43,1,34.07,34.07,0,0,1-1.69,3.49A.77.77,0,0,1,65,37.17ZM5.74,31.57A.79.79,0,0,1,5,30.88c-.19-1.42-.35-2.63-.5-3.6l0-.15a.8.8,0,0,1,.67-.9A.79.79,0,0,1,6,26.9L6,27c.15,1,.32,2.2.5,3.64a.79.79,0,0,1-.68.88ZM43,30.5a11,11,0,0,1-3-.42.79.79,0,0,1-.54-1,.78.78,0,0,1,1-.54,9.21,9.21,0,0,0,3.46.32.81.81,0,0,1,.86.71.79.79,0,0,1-.71.86A9.16,9.16,0,0,1,43,30.5Zm25-.92a.76.76,0,0,1-.21,0,.77.77,0,0,1-.55-1A35.93,35.93,0,0,0,68,25a.79.79,0,1,1,1.56.25A35.87,35.87,0,0,1,68.78,29,.78.78,0,0,1,68,29.58Zm-19.87-.39a.78.78,0,0,1-.7-.44.79.79,0,0,1,.35-1.06,17.89,17.89,0,0,0,3-2,.79.79,0,0,1,1,1.24,19.63,19.63,0,0,1-3.3,2.14A.8.8,0,0,1,48.15,29.19Zm-11.88-1a.78.78,0,0,1-.46-.14,21.78,21.78,0,0,1-3-2.55A.79.79,0,0,1,34,24.36a20.72,20.72,0,0,0,2.77,2.37.79.79,0,0,1,.19,1.1A.77.77,0,0,1,36.27,28.16Zm18.27-4.05A.82.82,0,0,1,54,23.9a.8.8,0,0,1,0-1.11c.8-.86,1.61-1.81,2.41-2.84a.79.79,0,0,1,1.24,1C56.78,22,55.94,23,55.12,23.86A.79.79,0,0,1,54.54,24.11ZM5,23.4H5a.79.79,0,0,1-.74-.84,23.32,23.32,0,0,1,.57-3.87.79.79,0,1,1,1.54.36,22.32,22.32,0,0,0-.54,3.61A.78.78,0,0,1,5,23.4Zm25.47-1a.81.81,0,0,1-.63-.31c-.72-.94-1.47-2-2.23-3.13a.79.79,0,0,1,.22-1.09.78.78,0,0,1,1.09.22c.74,1.1,1.47,2.12,2.17,3a.79.79,0,0,1-.62,1.27Zm38.73-.89h0a.78.78,0,0,1-.77-.8V20a23.56,23.56,0,0,0-.18-3,.8.8,0,0,1,.69-.89.79.79,0,0,1,.88.69A24.87,24.87,0,0,1,70,20c0,.23,0,.47,0,.7A.78.78,0,0,1,69.23,21.48Zm-9.65-3.83a.78.78,0,0,1-.65-1.23c.66-1,1.35-2.05,2-3.16A.79.79,0,0,1,62,13a.78.78,0,0,1,.26,1.08c-.69,1.13-1.38,2.22-2.06,3.22A.78.78,0,0,1,59.58,17.65ZM25.94,15.54a.8.8,0,0,1-.68-.38C24.6,14.05,24,13,23.35,11.87a.79.79,0,0,1,.29-1.08.8.8,0,0,1,1.08.3c.61,1.07,1.24,2.16,1.9,3.26a.79.79,0,0,1-.27,1.08A.77.77,0,0,1,25.94,15.54ZM7,15.48a.71.71,0,0,1-.32-.07.79.79,0,0,1-.4-1,23.66,23.66,0,0,1,1.89-3.43.79.79,0,0,1,1.32.88A21.48,21.48,0,0,0,7.72,15,.8.8,0,0,1,7,15.48Zm60.85-2a.77.77,0,0,1-.69-.42c-.37-.67-1-1.48-1.77-1.48l-.32,0a.78.78,0,0,1-.95-.59.8.8,0,0,1,.59-.95,3.21,3.21,0,0,1,.68-.07c.87,0,2.14.4,3.16,2.32a.79.79,0,0,1-.33,1.07A.81.81,0,0,1,67.85,13.47ZM11.67,8.79a.79.79,0,0,1-.54-1.36,13.22,13.22,0,0,1,3.28-2.31.78.78,0,0,1,1.05.36.8.8,0,0,1-.36,1.06,11.8,11.8,0,0,0-2.89,2A.8.8,0,0,1,11.67,8.79Zm10.18-.37A.81.81,0,0,1,21.16,8a4.08,4.08,0,0,0-2.35-2,.79.79,0,1,1,.44-1.52,5.61,5.61,0,0,1,3.28,2.75.78.78,0,0,1-.68,1.18Z"/><path class="cls-4" d="M26.36,97.25c-1,15.86-6,17.9-9.1,8.21-3-9.38-6.33-63.74-8.44-77.46S10.59,6.18,19,9c1.84.37,9.84,22.46,26.25,22.46s13.88-12.83,17.88-13,5.46,27.14-17.25,26.3C32.7,44.27,31.12,35.92,26.7,38,23.26,39.67,27.76,75.9,26.36,97.25Z"/><path class="cls-5" d="M17.08,12.94c-1.74.59-15.31,12.23-1.89,32.46C24.05,58.75,24.33,35,22.71,25.59S19.8,12,17.08,12.94Z"/></g></g></svg>