<svg xmlns="http://www.w3.org/2000/svg" viewBox="0 0 103.09 128.09"><defs><style>.cls-1{opacity:0.15;}.cls-2{fill:#2e89ff;}.cls-3{fill:#0064e6;}.cls-4{fill:#58a5f9;}.cls-5{fill:#69b3f7;}</style></defs><title>num-3Asset 37</title><g id="Layer_2" data-name="Layer 2"><g id="Layer_1-2" data-name="Layer 1"><path class="cls-1" d="M67.64,44.87C63.31,55.69,49.43,64,35.88,54.48c-6.93-4.86.93,16.76-3.48,55.64-2.3,20.25-15.34,22.2-19.78,11.74S3.75,42.37,1.25,26.28C-.66,14,16.72,3.5,23.49,7.75c3,1.87,5.08,18.94,19.42,22.5C54.17,33.05,58.42,10,64.13,9.63c5.18-.34,6.92,15.84,17.81,14.58C91,23.16,87.62,9.6,91.72,7.91s11.91,8.21,10,24.2c-2.83,23-22.29,22.26-29.52,12.3C69.23,40.39,68.61,42.43,67.64,44.87Z"/><path class="cls-2" d="M67.64,39.18C63.31,50,49.43,58.29,35.88,48.79c-6.93-4.86.93,16.76-3.48,55.64-2.3,20.25-15.34,22.21-19.78,11.75S3.75,36.68,1.25,20.59C-.66,8.35,16.72-2.18,23.49,2.06c3,1.88,5.08,18.94,19.42,22.5C54.17,27.36,58.42,4.32,64.13,4c5.18-.34,6.92,15.84,17.81,14.58C91,17.47,87.62,3.91,91.72,2.22s11.91,8.22,10,24.2c-2.83,23-22.29,22.26-29.52,12.31C69.23,34.71,68.61,36.75,67.64,39.18Z"/><path class="cls-3" d="M20.5,123.51c-3.74,0-7.06-2.58-8.9-6.9C8.66,109.68,5.88,79.3,3.42,52.5,2.14,38.49,1,26.39.15,20.76-.51,16.5,1,12,4.35,8.05,8.41,3.31,14.73,0,19.72,0a8.14,8.14,0,0,1,4.36,1.12c1.17.74,2,2.56,3.15,5.33,2.52,5.84,6.33,14.65,15.94,17a6.4,6.4,0,0,0,1.6.21c5.08,0,8.63-6.48,11.77-12.18,2.6-4.74,4.65-8.48,7.52-8.67s4.48,2.68,6.45,6c2.42,4.05,5.17,8.65,10.24,8.65a9.69,9.69,0,0,0,1.06-.06c4.35-.51,5.33-4.19,6.24-9.34C88.6,5,89.12,2.1,91.3,1.2c1.85-.76,4.24.17,6.31,2.51,3.38,3.82,6.51,11.83,5.15,22.85C101,41.2,92.49,46.42,85.16,46.42a17.44,17.44,0,0,1-13.9-7,5.92,5.92,0,0,0-1.67-1.79,8.7,8.7,0,0,0-.82,1.72l-.11.28c-3.4,8.52-11.82,14.47-20.47,14.47A22.34,22.34,0,0,1,35.25,49.7a2.81,2.81,0,0,0-.88-.47c-.64.9-.36,5.79-.07,11a246.5,246.5,0,0,1-.8,44.36C31.91,118.54,25.5,123.51,20.5,123.51ZM19.72,2.21C15.4,2.21,9.64,5.27,6,9.49c-2.09,2.43-4.41,6.3-3.69,10.93.88,5.7,2,17.83,3.28,31.88,2.32,25.32,5.21,56.83,8,63.45,1.47,3.47,4,5.55,6.86,5.55,4.42,0,9.47-5.26,10.8-17a244.07,244.07,0,0,0,.79-44c-.45-8-.58-11.28.72-12.66A2,2,0,0,1,34.3,47a3.9,3.9,0,0,1,2.21.88,20.18,20.18,0,0,0,11.68,4c7.77,0,15.35-5.38,18.42-13.08l.11-.28c.61-1.55,1.25-3.15,2.82-3.15,1.06,0,2.11.82,3.5,2.74a15.21,15.21,0,0,0,12.12,6.13c8.27,0,14-6.7,15.41-17.92C101.84,16,98.87,8.47,96,5.17c-1.38-1.56-2.85-2.32-3.81-1.93s-1.49,2.88-1.91,5.23c-.78,4.4-1.85,10.42-8.17,11.15a11.66,11.66,0,0,1-1.31.08c-6.33,0-9.55-5.39-12.13-9.73-1.51-2.53-2.94-4.92-4.33-4.92h-.08c-1.66.11-3.73,3.88-5.74,7.53-3.25,5.94-7.31,13.32-13.7,13.32a8.74,8.74,0,0,1-2.13-.26C32,23,27.73,13.18,25.2,7.33c-.84-1.95-1.71-4-2.29-4.33A5.89,5.89,0,0,0,19.72,2.21Z"/><path class="cls-3" d="M20.87,118.63a3.47,3.47,0,0,1-1-.13.79.79,0,1,1,.43-1.52A2.65,2.65,0,0,0,23,116a.78.78,0,0,1,1.11,0,.79.79,0,0,1,0,1.11A4.54,4.54,0,0,1,20.87,118.63ZM17,115.53a.78.78,0,0,1-.69-.41,20.15,20.15,0,0,1-1.43-3.3c0-.11-.07-.22-.1-.34a.79.79,0,0,1,1.51-.46l.09.3a17.77,17.77,0,0,0,1.3,3,.79.79,0,0,1-.3,1.08A.86.86,0,0,1,17,115.53Zm8.86-1.9a.78.78,0,0,1-.71-1.12,30.81,30.81,0,0,0,1.31-3.44.78.78,0,0,1,1-.51.79.79,0,0,1,.52,1,34,34,0,0,1-1.39,3.62A.8.8,0,0,1,25.89,113.63Zm-11.32-5.91a.78.78,0,0,1-.77-.64c-.21-1.1-.43-2.37-.65-3.77a.79.79,0,0,1,1.56-.25c.22,1.39.43,2.64.64,3.73a.79.79,0,0,1-.63.92Zm13.82-1.89a.47.47,0,0,1-.17,0,.78.78,0,0,1-.6-.94c.25-1.1.48-2.27.7-3.49l0-.18a.8.8,0,0,1,.91-.65.78.78,0,0,1,.64.91l0,.19c-.22,1.25-.46,2.45-.71,3.57A.78.78,0,0,1,28.39,105.83ZM13.28,99.59a.79.79,0,0,1-.78-.68c-.16-1.2-.33-2.46-.5-3.76a.79.79,0,0,1,.68-.89.78.78,0,0,1,.88.68c.17,1.3.34,2.56.51,3.76a.79.79,0,0,1-.68.89ZM29.7,97.74h-.08a.78.78,0,0,1-.7-.86c.11-1.16.21-2.42.29-3.74a.78.78,0,0,1,.84-.74.79.79,0,0,1,.74.83c-.09,1.34-.19,2.62-.3,3.81A.8.8,0,0,1,29.7,97.74Zm-17.47-6.3a.8.8,0,0,1-.79-.7c-.14-1.22-.3-2.48-.44-3.77a.79.79,0,1,1,1.56-.18c.15,1.28.3,2.54.45,3.76a.78.78,0,0,1-.69.88Zm18-1.89h0a.8.8,0,0,1-.76-.81c0-1.22.06-2.48.07-3.77a.79.79,0,0,1,.79-.79h0a.8.8,0,0,1,.78.8c0,1.31,0,2.58-.08,3.8A.79.79,0,0,1,30.2,89.55ZM11.27,83.27a.8.8,0,0,1-.78-.7c-.14-1.24-.28-2.5-.42-3.77a.79.79,0,0,1,.7-.87.77.77,0,0,1,.87.7c.14,1.27.28,2.52.42,3.76a.79.79,0,0,1-.7.88Zm19-1.93a.78.78,0,0,1-.79-.78c0-1.23,0-2.49-.07-3.77a.79.79,0,0,1,.78-.81h0a.79.79,0,0,1,.79.77c0,1.29.05,2.56.06,3.8a.78.78,0,0,1-.78.79ZM10.38,75.1a.78.78,0,0,1-.78-.71l-.4-3.76a.78.78,0,0,1,.7-.87.79.79,0,0,1,.87.7l.4,3.77a.79.79,0,0,1-.7.86Zm19.69-2a.8.8,0,0,1-.79-.76c0-1.24-.1-2.5-.16-3.78a.79.79,0,0,1,1.58-.07c.06,1.28.11,2.55.16,3.79a.79.79,0,0,1-.76.82ZM9.52,66.93a.79.79,0,0,1-.78-.71l-.39-3.78a.78.78,0,0,1,.7-.86.79.79,0,0,1,.87.7l.39,3.78a.79.79,0,0,1-.71.86Zm20.16-2a.8.8,0,0,1-.79-.74c-.07-1.25-.14-2.51-.23-3.77a.78.78,0,0,1,.74-.84.8.8,0,0,1,.84.73c.08,1.28.16,2.54.23,3.79a.79.79,0,0,1-.74.83Zm-21-6.19A.8.8,0,0,1,7.89,58l-.38-3.77a.79.79,0,0,1,1.57-.17l.38,3.78a.78.78,0,0,1-.7.86Zm20.46-2a.79.79,0,0,1-.79-.73c-.09-1.25-.19-2.5-.29-3.77a.78.78,0,0,1,.72-.85.8.8,0,0,1,.85.72l.3,3.79a.79.79,0,0,1-.73.84ZM7.84,50.57a.8.8,0,0,1-.79-.71l-.39-3.77a.8.8,0,0,1,.71-.87.79.79,0,0,1,.86.7l.39,3.78a.78.78,0,0,1-.7.86Zm40.29-1.38A17.83,17.83,0,0,1,46,49.06a.79.79,0,0,1,.19-1.57,16.08,16.08,0,0,0,3.6,0,.79.79,0,0,1,.17,1.57A17.53,17.53,0,0,1,48.13,49.19Zm-19.66-.62a.79.79,0,0,1-.79-.72l-.1-1.12c-.09-.95-.17-1.94-.17-2.73a.8.8,0,0,1,.79-.79h0A.8.8,0,0,1,29,44c0,.72.08,1.67.16,2.59l.1,1.12a.79.79,0,0,1-.71.86Zm25.63-.52a.79.79,0,0,1-.3-1.53A16.09,16.09,0,0,0,57,44.81a.79.79,0,0,1,.89,1.31A18,18,0,0,1,54.39,48,.75.75,0,0,1,54.1,48.05ZM41.76,48a.75.75,0,0,1-.26,0,26.07,26.07,0,0,1-3.17-1.36l-.39-.2A.79.79,0,1,1,38.65,45l.4.2a22.93,22.93,0,0,0,3,1.28A.79.79,0,0,1,41.76,48Zm-7.41-3.52a.85.85,0,0,1-.35-.08,34.48,34.48,0,0,0-3.36-1.55.77.77,0,0,1-.46-1,.79.79,0,0,1,1-.47c.8.3,1.82.77,3.52,1.62a.79.79,0,0,1,.35,1.06A.8.8,0,0,1,34.35,44.52Zm26.41-1.15a.78.78,0,0,1-.54-.21.8.8,0,0,1,0-1.12,24.57,24.57,0,0,0,2.3-2.86.8.8,0,0,1,1.1-.19.78.78,0,0,1,.2,1.09,25.62,25.62,0,0,1-2.45,3A.75.75,0,0,1,60.76,43.37ZM7,42.39a.78.78,0,0,1-.78-.7q-.21-2-.42-3.78a.8.8,0,0,1,.7-.87.78.78,0,0,1,.87.7c.14,1.2.27,2.47.41,3.78a.79.79,0,0,1-.7.87Zm76.19-.28h-.1A12.9,12.9,0,0,1,79.21,41a.8.8,0,0,1-.38-1,.79.79,0,0,1,1-.39,11.56,11.56,0,0,0,3.39,1,.79.79,0,0,1-.1,1.57Zm4.38-.32a.79.79,0,0,1-.22-1.55,9.24,9.24,0,0,0,3.1-1.56.78.78,0,0,1,1.1.15.77.77,0,0,1-.14,1.1,10.67,10.67,0,0,1-3.62,1.83ZM76,38.53a.75.75,0,0,1-.57-.25,8.91,8.91,0,0,1-.7-.8c-.63-.8-1.22-1.51-1.75-2.13a.79.79,0,1,1,1.2-1c.54.63,1.15,1.37,1.79,2.18.19.24.39.47.6.7A.79.79,0,0,1,76,38.53Zm17.8-1.77a.78.78,0,0,1-.68-1.18A14,14,0,0,0,94.19,33c.09-.26.17-.52.25-.79a.79.79,0,0,1,1-.53.8.8,0,0,1,.53,1c-.08.27-.17.55-.26.82a15.13,15.13,0,0,1-1.24,2.83A.8.8,0,0,1,93.76,36.76Zm-28.39-.14a.85.85,0,0,1-.35-.08.79.79,0,0,1-.35-1.06c.53-1.08,1-2.22,1.48-3.4a.78.78,0,0,1,.25-.34.69.69,0,0,1,.11-.41,2.25,2.25,0,0,1,2-1.26h0a4.13,4.13,0,0,1,2.39,1,.78.78,0,0,1,.16,1.1.8.8,0,0,1-1.11.16,2.64,2.64,0,0,0-1.44-.7h0c-.12,0-.35,0-.63.48a1,1,0,0,1-.19.22.93.93,0,0,1-.05.29c-.47,1.23-1,2.42-1.55,3.54A.79.79,0,0,1,65.37,36.62ZM6.06,34.22a.8.8,0,0,1-.78-.7c-.16-1.38-.32-2.64-.47-3.76a.79.79,0,0,1,1.56-.21c.15,1.13.31,2.4.48,3.78a.79.79,0,0,1-.69.88Zm35.25-4h-.1A11.78,11.78,0,0,1,37.36,29a.79.79,0,0,1,.72-1.41,9.93,9.93,0,0,0,3.32,1.05.79.79,0,0,1-.09,1.57Zm4.35-.46a.79.79,0,0,1-.24-1.54,13.55,13.55,0,0,0,3.2-1.58.8.8,0,0,1,1.09.23A.79.79,0,0,1,49.48,28a15.14,15.14,0,0,1-3.57,1.76A.73.73,0,0,1,45.66,29.75ZM96.22,29h-.14a.79.79,0,0,1-.63-.92c.22-1.2.4-2.44.54-3.69a.78.78,0,0,1,.87-.7.8.8,0,0,1,.7.87c-.14,1.29-.33,2.57-.56,3.81A.78.78,0,0,1,96.22,29ZM34.13,26.53a.77.77,0,0,1-.53-.21,28.17,28.17,0,0,1-2.67-2.82.79.79,0,1,1,1.21-1,27.6,27.6,0,0,0,2.53,2.68.79.79,0,0,1,0,1.11A.8.8,0,0,1,34.13,26.53ZM5,26.06a.8.8,0,0,1-.79-.74c0-.46,0-.93,0-1.39a23.83,23.83,0,0,1,.14-2.53.79.79,0,0,1,1.57.18,20.56,20.56,0,0,0-.13,2.35c0,.43,0,.86,0,1.29a.79.79,0,0,1-.74.84Zm47.44-.75a.77.77,0,0,1-.56-.24.78.78,0,0,1,0-1.12,35.41,35.41,0,0,0,2.52-2.71.8.8,0,0,1,1.12-.09.79.79,0,0,1,.09,1.11A38.66,38.66,0,0,1,53,25.09.82.82,0,0,1,52.47,25.31Zm29.68-1.55a15.17,15.17,0,0,1-3.21-.35.8.8,0,0,1-.6-.94.79.79,0,0,1,.94-.6,13.43,13.43,0,0,0,3.55.3.79.79,0,0,1,.09,1.57ZM87.1,22.6a.79.79,0,0,1-.41-1.46l.17-.11a5.11,5.11,0,0,0,1.61-2.53.8.8,0,0,1,1-.48A.79.79,0,0,1,90,19a6.39,6.39,0,0,1-2.22,3.3,1.82,1.82,0,0,1-.23.15A.78.78,0,0,1,87.1,22.6ZM75,21.82a.72.72,0,0,1-.4-.12,13.84,13.84,0,0,1-3.12-2.49.79.79,0,1,1,1.14-1.08,12.93,12.93,0,0,0,2.78,2.22.79.79,0,0,1-.4,1.47Zm22-1h0a.79.79,0,0,1-.77-.81c0-.34,0-.67,0-1,0-.94,0-1.85-.08-2.71a.79.79,0,1,1,1.57-.1c.06.89.09,1.84.09,2.81,0,.35,0,.69,0,1A.8.8,0,0,1,97.06,20.82Zm-68.18-.58a.79.79,0,0,1-.65-.34c-.67-1-1.35-2-2.08-3.22a.78.78,0,0,1,.26-1.08.79.79,0,0,1,1.09.26c.71,1.16,1.37,2.19,2,3.15a.8.8,0,0,1-.2,1.1A.84.84,0,0,1,28.88,20.24Zm28.88-1.19a.79.79,0,0,1-.64-1.25c.69-1,1.4-2,2.1-3.1a.79.79,0,1,1,1.33.85c-.72,1.12-1.44,2.19-2.15,3.17A.76.76,0,0,1,57.76,19.05ZM6.05,18a1,1,0,0,1-.24,0,.78.78,0,0,1-.51-1,23.71,23.71,0,0,1,1.48-3.62A.8.8,0,0,1,7.84,13,.79.79,0,0,1,8.19,14,23.09,23.09,0,0,0,6.8,17.41.79.79,0,0,1,6.05,18Zm63.5-2.11a.79.79,0,0,1-.7-.43l-.09-.18a33.23,33.23,0,0,0-1.7-3.07.79.79,0,1,1,1.33-.85,34.08,34.08,0,0,1,1.79,3.23l.08.16a.8.8,0,0,1-.35,1.06A.94.94,0,0,1,69.55,15.85Zm20.8-.57-.18,0a.79.79,0,0,1-.58-.95,24.29,24.29,0,0,1,1.1-3.76.79.79,0,0,1,1.45.61,23.56,23.56,0,0,0-1,3.51A.78.78,0,0,1,90.35,15.28Zm-65.77-2a.77.77,0,0,1-.68-.4l-1.32-2.33-.55-1a.79.79,0,1,1,1.37-.78l.55,1,1.32,2.33a.8.8,0,0,1-.3,1.08A.78.78,0,0,1,24.58,13.25Zm71.78-.59a.79.79,0,0,1-.77-.6c-.52-2.08-1.13-2.63-1.37-2.77a.79.79,0,0,1-.29-1.08A.8.8,0,0,1,95,7.92c.91.54,1.62,1.8,2.11,3.76a.79.79,0,0,1-.57,1ZM61.89,12a.73.73,0,0,1-.35-.09.78.78,0,0,1-.36-1.05c.36-.73,1.51-3,3.46-2.8a.79.79,0,0,1,.7.87.78.78,0,0,1-.87.7c-.72-.08-1.42,1-1.87,1.93A.79.79,0,0,1,61.89,12Zm-52-1.25a.84.84,0,0,1-.5-.17.79.79,0,0,1-.12-1.11A18.09,18.09,0,0,1,12,6.65a.79.79,0,0,1,1.11.12A.78.78,0,0,1,13,7.88a17.14,17.14,0,0,0-2.53,2.57A.76.76,0,0,1,9.87,10.75ZM20.05,6.49a.77.77,0,0,1-.41-.11A3.92,3.92,0,0,0,16.58,6a.81.81,0,0,1-.95-.59.79.79,0,0,1,.59-1A5.55,5.55,0,0,1,20.47,5a.79.79,0,0,1,.25,1.09A.77.77,0,0,1,20.05,6.49Z"/><path class="cls-4" d="M45.85,44.76C32.7,44.51,31.12,35.92,26.7,38c-3.44,1.64,1.06,37.87-.34,59.22-1,15.86-6,17.9-9.1,8.21-3-9.38-6.33-63.74-8.44-77.46S10.59,6.18,19,9c1.84.37,9.84,22.46,26.25,22.46S60.7,16.86,64.68,15c4.79-.09,3.53,7.8,12.84,10.16s12.94-2.68,14.2-6.47,4.42,2.11.31,11.63-12.78,8.47-18.14,2.21-8.68-6.89-10.73-.58S55.69,45,45.85,44.76Z"/><path class="cls-5" d="M17.08,12.94c-1.74.59-15.31,12.23-1.89,32.46C24.05,58.75,24.33,35,22.71,25.59S19.8,12,17.08,12.94Z"/></g></g></svg>