<svg xmlns="http://www.w3.org/2000/svg" viewBox="0 0 44.53 47.94"><defs><style>.cls-1{opacity:0.15;}.cls-2{fill:#49d800;}.cls-3{fill:#36a300;}.cls-4{fill:#89ea49;}.cls-5{fill:#acea83;}</style></defs><title>num-0Asset 34</title><g id="Layer_2" data-name="Layer 2"><g id="Layer_1-2" data-name="Layer 1"><path class="cls-1" d="M14.92,7.6C-1.14,12.32-2.54,35.11,7.34,42c15.55,10.9,33.28,6.34,35.92-10.83C45.15,18.93,30.54,3,14.92,7.6Z"/><path class="cls-2" d="M14.92,1.91C-1.14,6.64-2.54,29.43,7.34,36.36c15.55,10.9,33.28,6.33,35.92-10.83C45.15,13.25,30.54-2.68,14.92,1.91Z"/><path class="cls-3" d="M24.39,43.36h0c-5.88,0-12-2.11-17.69-6.1C1.59,33.67-1,25.92.34,18,1.73,9.47,7.07,3.07,14.61.85A21,21,0,0,1,20.49,0c6.69,0,13.3,3.25,18.16,8.91,4.4,5.12,6.53,11.4,5.7,16.79C42.67,36.59,35,43.36,24.39,43.36ZM20.49,2.21A18.85,18.85,0,0,0,15.23,3C8.52,5,3.77,10.68,2.52,18.32c-1.17,7.14,1,14,5.45,17.13,5.32,3.73,11,5.7,16.42,5.7,9.46,0,16.28-6,17.78-15.79C42.9,20.6,41,15,37,10.35,32.54,5.18,26.53,2.21,20.49,2.21Z"/><path class="cls-4" d="M18.83,9.05C8.29,10.11,6.66,34.19,24.24,31.25,37.59,29,37.38,7.19,18.83,9.05Z"/><path class="cls-3" d="M21.83,38.48H21.4a.79.79,0,0,1-.77-.81.8.8,0,0,1,.79-.77h0a14.19,14.19,0,0,0,3.14-.27l.42-.09a.79.79,0,0,1,.34,1.54l-.45.09A15.47,15.47,0,0,1,21.83,38.48Zm-4.71-.89a.79.79,0,0,1-.29-.06,13.68,13.68,0,0,1-3.45-2,.79.79,0,1,1,1-1.24,12,12,0,0,0,3.06,1.79.79.79,0,0,1-.3,1.53Zm12.22-1a.79.79,0,0,1-.35-1.5,14.23,14.23,0,0,0,3-2,.79.79,0,1,1,1,1.19,15.75,15.75,0,0,1-3.31,2.2A.73.73,0,0,1,29.34,36.64ZM10.87,32.45a.76.76,0,0,1-.64-.33,19.27,19.27,0,0,1-1.91-3.46.78.78,0,0,1,.41-1,.79.79,0,0,1,1,.41,17.3,17.3,0,0,0,1.75,3.17.79.79,0,0,1-.2,1.1A.73.73,0,0,1,10.87,32.45ZM35.3,31.17a.83.83,0,0,1-.4-.11A.79.79,0,0,1,34.63,30a14.15,14.15,0,0,0,1.42-3.28.78.78,0,0,1,1-.53.79.79,0,0,1,.54,1A15.27,15.27,0,0,1,36,30.78.79.79,0,0,1,35.3,31.17ZM7.76,24.92A.78.78,0,0,1,7,24.28a20.78,20.78,0,0,1-.37-3.91v0a.78.78,0,0,1,.79-.75h0a.78.78,0,0,1,.78.79v0A19,19,0,0,0,8.54,24a.8.8,0,0,1-.63.93Zm29.68-1.58h0a.79.79,0,0,1-.78-.79v-.19A17.09,17.09,0,0,0,36.3,19a.79.79,0,0,1,.61-.93.8.8,0,0,1,.93.61,18.11,18.11,0,0,1,.39,3.73v.2A.79.79,0,0,1,37.44,23.34ZM7.94,16.78l-.2,0a.79.79,0,0,1-.56-1,14.61,14.61,0,0,1,1.48-3.7.8.8,0,0,1,1.08-.3A.79.79,0,0,1,10,12.88,13.49,13.49,0,0,0,8.7,16.19.78.78,0,0,1,7.94,16.78Zm27.7-1.37a.79.79,0,0,1-.71-.44,15.77,15.77,0,0,0-2-3,.79.79,0,0,1,.1-1.11A.8.8,0,0,1,34.2,11a17.11,17.11,0,0,1,2.15,3.33A.78.78,0,0,1,36,15.33.74.74,0,0,1,35.64,15.41ZM12.21,10a.81.81,0,0,1-.63-.31.79.79,0,0,1,.14-1.1,12.25,12.25,0,0,1,3.54-1.92.8.8,0,0,1,1,.49.79.79,0,0,1-.49,1,10.83,10.83,0,0,0-3.09,1.67A.78.78,0,0,1,12.21,10Zm18.1-.65a.8.8,0,0,1-.43-.13,13.56,13.56,0,0,0-3.21-1.54.78.78,0,0,1-.51-1,.79.79,0,0,1,1-.51,15.08,15.08,0,0,1,3.6,1.72A.79.79,0,0,1,31,8.94.76.76,0,0,1,30.31,9.3Zm-11.51-2a.79.79,0,0,1-.14-1.57,19,19,0,0,1,3.93-.33.79.79,0,0,1,.77.8.81.81,0,0,1-.81.78,17.27,17.27,0,0,0-3.6.3Z"/><path class="cls-5" d="M25.92,11.55c-7.71-1.49-14.52,8.28-3.54,11.21S33.64,13,25.92,11.55Z"/></g></g></svg>