<svg xmlns="http://www.w3.org/2000/svg" viewBox="0 0 75.22 140.07"><defs><style>.cls-1{opacity:0.15;}.cls-2{fill:#fff737;}.cls-3{fill:#f7c00a;}.cls-4{fill:#fff069;}.cls-5{fill:#fff18f;}</style></defs><title>num-9Asset 43</title><g id="Layer_2" data-name="Layer 2"><g id="Layer_1-2" data-name="Layer 1"><path class="cls-1" d="M63.37,19.82C54.23,4.15,28.36-.49,9.1,23.53-4.47,40.45,1.22,65.81,11.94,74.44c18.3,14.74,29.5-1.63,30.65,5.46,2.28,14.1,4.2,42.94,8.64,53.4s16.31,10,21.05-9.85C77.26,102.61,71.35,33.51,63.37,19.82ZM31.52,52.06C21.87,51,17.2,31.93,31.63,32.3,41.4,32.55,41.18,53.18,31.52,52.06Z"/><path class="cls-2" d="M63.37,14.13c-9.14-15.67-35-20.3-54.27,3.72C-4.47,34.76,1.22,60.13,11.94,68.76c18.3,14.74,29.5-1.63,30.65,5.46,2.28,14.1,4.2,42.94,8.64,53.4s16.31,10,21.05-9.85C77.26,96.92,71.35,27.82,63.37,14.13ZM31.52,46.38c-9.65-1.12-14.32-20.13.11-19.76C41.4,26.87,41.18,47.49,31.52,46.38Z"/><path class="cls-3" d="M59.5,135.49h0c-3.84,0-7.31-2.78-9.28-7.44-3.14-7.39-5-23.36-6.64-37.45-.71-6.12-1.39-11.89-2.08-16.21-.16-1-.39-1-.72-1a12.64,12.64,0,0,0-3.18.86,29.24,29.24,0,0,1-9.74,2c-5.63,0-11.07-2.17-16.61-6.63-11-8.88-17.16-34.83-3-52.47C17.11,6.09,28.28,0,39.69,0,50,0,59.44,5.2,64.32,13.58c8.12,13.91,14.11,83.22,9,104.45C70.73,129,65.56,135.49,59.5,135.49ZM40.78,71.24c1.12,0,2.52.48,2.9,2.8.7,4.37,1.38,10.16,2.09,16.3,1.63,14,3.47,29.75,6.48,36.85,1.62,3.81,4.33,6.09,7.25,6.09h0c3.83,0,8.92-4.14,11.7-15.77,4.87-20.35-1-89.54-8.78-102.82C57.93,7,49.22,2.21,39.69,2.21,29,2.21,18.41,8,10,18.54,4,26,1.34,35.84,2.51,46.29c1,9.12,4.9,17.4,10.12,21.61s10.12,6.15,15.23,6.15a26.75,26.75,0,0,0,9-1.85A13.33,13.33,0,0,1,40.78,71.24ZM32.26,47.53a6.33,6.33,0,0,1-.86-.06c-6.14-.7-10.35-7.72-10-13.52.31-5.29,4-8.44,9.84-8.44h.44c5.55.14,8.37,5.94,8.3,11.58C39.9,42.12,37.46,47.53,32.26,47.53Zm-1-19.81c-6.32,0-7.5,4-7.63,6.35-.27,4.72,3.19,10.65,8.06,11.21.21,0,.41,0,.61,0,3.7,0,5.44-4.28,5.49-8.25.06-4.57-2-9.24-6.15-9.35Z"/><path class="cls-4" d="M60.11,22.58C54.36,10.13,44.24,3.33,26.41,11.23S2.58,45.08,14.92,61c11.18,14.44,24.65-.18,31.76,2.47,5.93,2.21,6.16,44,9.19,53.39,3.12,9.69,7.56,7.43,10.37-8.21C69.8,88.83,64.64,32.39,60.11,22.58Zm-28.44,31C15.51,53.09,7.33,18.74,33,20,47.59,20.77,52.08,54.23,31.67,53.59Z"/><path class="cls-3" d="M59.7,129.82a3.62,3.62,0,0,1-1.52-.35.79.79,0,1,1,.66-1.43,2.11,2.11,0,0,0,.86.2h0a2.86,2.86,0,0,0,1.78-.79.79.79,0,0,1,1,1.2,4.3,4.3,0,0,1-2.8,1.17Zm-4.16-3.46a.79.79,0,0,1-.68-.39,22.77,22.77,0,0,1-1.31-2.66c-.12-.28-.24-.58-.35-.89a.77.77,0,0,1,.46-1,.8.8,0,0,1,1,.47c.1.28.21.55.32.82a24,24,0,0,0,1.22,2.48.79.79,0,0,1-.28,1.08A.82.82,0,0,1,55.54,126.36Zm9.09-1a.75.75,0,0,1-.38-.1.79.79,0,0,1-.31-1.07,32.37,32.37,0,0,0,1.57-3.35.79.79,0,0,1,1.46.6,33.37,33.37,0,0,1-1.65,3.51A.78.78,0,0,1,64.63,125.33ZM52.7,118.69a.79.79,0,0,1-.77-.61c-.26-1.12-.52-2.39-.76-3.76a.79.79,0,1,1,1.55-.27c.24,1.34.49,2.58.75,3.67a.79.79,0,0,1-.59,1Zm15.06-.94a.73.73,0,0,1-.25,0,.78.78,0,0,1-.5-1c.36-1.12.73-2.33,1.09-3.59a.79.79,0,1,1,1.52.43c-.37,1.28-.74,2.51-1.11,3.65A.79.79,0,0,1,67.76,117.75ZM51.24,110.6a.79.79,0,0,1-.78-.67c-.17-1.23-.34-2.49-.5-3.78a.79.79,0,0,1,1.57-.2c.16,1.28.32,2.53.5,3.75a.79.79,0,0,1-.67.89Zm18.53-.79h-.12a.78.78,0,0,1-.66-.89c.17-1.13.31-2.38.42-3.72a.79.79,0,0,1,1.57.13c-.11,1.37-.26,2.66-.43,3.81A.79.79,0,0,1,69.77,109.81Zm-19.54-7.37a.8.8,0,0,1-.78-.7c-.14-1.25-.27-2.51-.4-3.78a.78.78,0,0,1,.7-.86.79.79,0,0,1,.87.7c.13,1.26.26,2.52.4,3.77a.79.79,0,0,1-.7.87Zm20.24-.8h0a.79.79,0,0,1-.75-.83c0-1.18.08-2.44.1-3.76a.8.8,0,0,1,.8-.78.78.78,0,0,1,.77.8c0,1.33,0,2.61-.1,3.81A.78.78,0,0,1,70.47,101.64ZM49.39,94.27a.8.8,0,0,1-.79-.71c-.12-1.27-.25-2.54-.38-3.78a.79.79,0,0,1,.71-.86.78.78,0,0,1,.86.7c.13,1.25.26,2.51.38,3.78a.78.78,0,0,1-.7.86Zm21.18-.84a.8.8,0,0,1-.79-.78c0-1.24,0-2.5-.07-3.78a.79.79,0,0,1,.77-.81.81.81,0,0,1,.81.77c0,1.29.06,2.56.07,3.8a.79.79,0,0,1-.78.8Zm-22-7.34a.79.79,0,0,1-.78-.7c-.14-1.3-.29-2.55-.44-3.76a.79.79,0,1,1,1.56-.2c.16,1.22.3,2.48.45,3.78a.78.78,0,0,1-.7.87Zm21.81-.87a.8.8,0,0,1-.79-.76q-.07-1.87-.18-3.78a.79.79,0,0,1,.75-.83.8.8,0,0,1,.83.75c.07,1.28.13,2.54.18,3.79a.79.79,0,0,1-.76.83ZM47.48,77.93a.77.77,0,0,1-.77-.66c-.23-1.39-.46-2.63-.69-3.69a.79.79,0,0,1,1.54-.34c.24,1.09.48,2.37.7,3.78a.78.78,0,0,1-.65.9ZM69.91,77a.79.79,0,0,1-.79-.74C69,75,69,73.76,68.86,72.5a.79.79,0,1,1,1.57-.12c.1,1.27.18,2.53.26,3.79A.79.79,0,0,1,70,77ZM26.86,72h-.28a.79.79,0,0,1-.78-.8.81.81,0,0,1,.81-.78h.25a22.53,22.53,0,0,0,3.38-.28.79.79,0,1,1,.25,1.55A22.2,22.2,0,0,1,26.86,72Zm-4.63-.61a.76.76,0,0,1-.21,0,17,17,0,0,1-3.66-1.52.79.79,0,0,1-.31-1.07.8.8,0,0,1,1.08-.31,14.68,14.68,0,0,0,3.31,1.38.79.79,0,0,1-.21,1.55Zm12.44-.67a.8.8,0,0,1-.76-.57.79.79,0,0,1,.54-1c1.13-.33,2.19-.68,3.22-1L38,68a.79.79,0,1,1,.5,1.5l-.36.12c-1,.34-2.12.7-3.28,1A.83.83,0,0,1,34.67,70.67ZM45.47,70a.81.81,0,0,1-.71-.44c-.52-1.08-.92-1.23-1.07-1.25h-.32a4.86,4.86,0,0,0-.72.06.79.79,0,0,1-.22-1.57c.35,0,.66,0,1-.07l.47,0c.92.1,1.68.79,2.33,2.12a.8.8,0,0,1-.36,1.06A.85.85,0,0,1,45.47,70Zm23.82-1.17a.78.78,0,0,1-.78-.72c-.11-1.26-.22-2.52-.34-3.78a.78.78,0,0,1,.72-.85.8.8,0,0,1,.86.71L70.08,68a.79.79,0,0,1-.72.85Zm-54.1-1.54a.77.77,0,0,1-.53-.21A24.6,24.6,0,0,1,12,64.19a.79.79,0,0,1,1.24-1,22.39,22.39,0,0,0,2.47,2.7.79.79,0,0,1,0,1.12A.77.77,0,0,1,15.19,67.28Zm-5-6.44a.79.79,0,0,1-.68-.39c-.67-1.12-1.29-2.26-1.84-3.39a.79.79,0,0,1,1.42-.69c.53,1.09,1.13,2.19,1.77,3.27a.78.78,0,0,1-.27,1.08A.77.77,0,0,1,10.17,60.84Zm58.36-.2a.79.79,0,0,1-.78-.71l-.39-3.77a.79.79,0,0,1,.69-.87.8.8,0,0,1,.87.7c.14,1.25.27,2.51.4,3.78a.79.79,0,0,1-.71.86ZM6.65,53.44a.79.79,0,0,1-.75-.53,37,37,0,0,1-1.1-3.7.8.8,0,0,1,.58-1,.78.78,0,0,1,1,.59,36.57,36.57,0,0,0,1.06,3.54.79.79,0,0,1-.48,1A.75.75,0,0,1,6.65,53.44Zm61-1a.79.79,0,0,1-.78-.7q-.23-1.91-.45-3.75a.78.78,0,0,1,.68-.88.79.79,0,0,1,.88.68c.16,1.24.31,2.5.46,3.77a.8.8,0,0,1-.69.88Zm-37-.7h-.09a11.77,11.77,0,0,1-3.87-1.14.79.79,0,1,1,.7-1.42,10,10,0,0,0,3.35,1,.79.79,0,0,1,.69.88A.77.77,0,0,1,30.66,51.77Zm3.18-.23A.79.79,0,0,1,33.63,50a7.24,7.24,0,0,0,2.93-1.68.8.8,0,0,1,1.12,0,.79.79,0,0,1,0,1.11,8.87,8.87,0,0,1-3.57,2ZM23.55,48.05A.79.79,0,0,1,23,47.8a16,16,0,0,1-2.29-3.25.79.79,0,0,1,1.4-.75,13.93,13.93,0,0,0,2.05,2.93.78.78,0,0,1-.58,1.32Zm16.13-1.92a.85.85,0,0,1-.35-.08A.8.8,0,0,1,39,45a17.7,17.7,0,0,0,1.23-3.4.79.79,0,0,1,1.53.38,18.79,18.79,0,0,1-1.35,3.72A.77.77,0,0,1,39.68,46.13ZM4.81,45.46A.79.79,0,0,1,4,44.75a31.08,31.08,0,0,1-.17-3.33v-.55a.79.79,0,0,1,.79-.77h0a.79.79,0,0,1,.77.8c0,.17,0,.35,0,.52a30.75,30.75,0,0,0,.17,3.17.8.8,0,0,1-.7.87Zm61.81-1.14a.79.79,0,0,1-.78-.68c-.17-1.28-.35-2.54-.52-3.75A.79.79,0,0,1,66,39a.8.8,0,0,1,.9.67c.17,1.22.35,2.48.52,3.76a.78.78,0,0,1-.67.89Zm-46.8-3.48a.79.79,0,0,1-.77-.6,19.81,19.81,0,0,1-.55-3.9.79.79,0,0,1,1.58-.06,17.54,17.54,0,0,0,.5,3.59.78.78,0,0,1-.58,1A.55.55,0,0,1,19.82,40.84ZM41.59,38.2h0a.79.79,0,0,1-.76-.82q0-.51,0-1a22.92,22.92,0,0,0-.16-2.63.79.79,0,1,1,1.56-.19,21.9,21.9,0,0,1,.17,2.82c0,.37,0,.73,0,1.09A.79.79,0,0,1,41.59,38.2ZM5,37.28H4.91a.78.78,0,0,1-.65-.9,33.34,33.34,0,0,1,.84-3.79A.79.79,0,0,1,6.62,33a29.67,29.67,0,0,0-.8,3.6A.78.78,0,0,1,5,37.28Zm60.4-1.09a.79.79,0,0,1-.78-.67c-.2-1.3-.41-2.55-.61-3.73a.79.79,0,0,1,1.56-.27c.2,1.2.41,2.45.61,3.76a.79.79,0,0,1-.66.9ZM19.69,32.71l-.18,0a.78.78,0,0,1-.59-.95A14.46,14.46,0,0,1,20.32,28a.78.78,0,0,1,1.07-.31.79.79,0,0,1,.31,1.07,13,13,0,0,0-1.25,3.33A.78.78,0,0,1,19.69,32.71Zm20.73-2.57a.8.8,0,0,1-.74-.51A11.84,11.84,0,0,0,38,26.52a.79.79,0,0,1,1.25-1,13.78,13.78,0,0,1,1.93,3.52.79.79,0,0,1-.46,1A.74.74,0,0,1,40.42,30.14Zm-33.06-.7A.71.71,0,0,1,7,29.37a.79.79,0,0,1-.41-1,37.32,37.32,0,0,1,1.74-3.46.77.77,0,0,1,1.07-.29.79.79,0,0,1,.3,1.07A34.1,34.1,0,0,0,8.08,29,.79.79,0,0,1,7.36,29.44ZM64,28.09a.78.78,0,0,1-.77-.64c-.26-1.36-.52-2.6-.77-3.69A.79.79,0,0,1,64,23.41c.25,1.1.51,2.36.78,3.74a.79.79,0,0,1-.63.92Zm-40.2-2.27a.8.8,0,0,1-.63-.3.8.8,0,0,1,.14-1.11,11.7,11.7,0,0,1,3.56-1.89.79.79,0,0,1,1,.5.79.79,0,0,1-.5,1,9.93,9.93,0,0,0-3.09,1.63A.78.78,0,0,1,23.84,25.82ZM35.2,24.09a.87.87,0,0,1-.32-.06,7.5,7.5,0,0,0-2.82-.62h-.54a.79.79,0,0,1-.79-.79.78.78,0,0,1,.78-.79h.6a9.17,9.17,0,0,1,3.4.75.8.8,0,0,1,.41,1A.78.78,0,0,1,35.2,24.09ZM11.45,22.34a.78.78,0,0,1-.63-1.25c.74-1,1.55-2,2.41-3a.79.79,0,0,1,1.18,1c-.83.94-1.61,1.92-2.32,2.9A.78.78,0,0,1,11.45,22.34ZM62.1,20.1a.78.78,0,0,1-.74-.51,7,7,0,0,0-.33-.77,29.55,29.55,0,0,0-1.9-3.15.79.79,0,1,1,1.29-.9,31.79,31.79,0,0,1,2,3.32,8.37,8.37,0,0,1,.41.95.8.8,0,0,1-.47,1A.84.84,0,0,1,62.1,20.1ZM16.89,16.21a.79.79,0,0,1-.54-1.36c.85-.81,1.77-1.61,2.7-2.38l.2-.16a.79.79,0,1,1,1,1.23l-.19.16c-.91.74-1.79,1.51-2.62,2.29A.76.76,0,0,1,16.89,16.21ZM57,12.6a.77.77,0,0,1-.56-.24A24.06,24.06,0,0,0,53.65,10a.79.79,0,0,1,.94-1.26,24.46,24.46,0,0,1,2.95,2.57A.8.8,0,0,1,57,12.6ZM23.32,11.14a.77.77,0,0,1-.66-.37.78.78,0,0,1,.24-1.09C24,9,25.12,8.34,26.25,7.76a.8.8,0,0,1,1.06.35A.79.79,0,0,1,27,9.17c-1.08.55-2.16,1.17-3.21,1.84A.75.75,0,0,1,23.32,11.14Zm27-3.29A.8.8,0,0,1,50,7.78a20.28,20.28,0,0,0-3.42-1.26.8.8,0,0,1-.56-1A.79.79,0,0,1,47,5a22.49,22.49,0,0,1,3.68,1.35.77.77,0,0,1,.38,1A.78.78,0,0,1,50.34,7.85ZM30.66,7.51A.79.79,0,0,1,30.4,6a32.06,32.06,0,0,1,3.72-1.09.78.78,0,0,1,.35,1.53,31,31,0,0,0-3.54,1A.86.86,0,0,1,30.66,7.51ZM42.44,5.8h-.06a23.65,23.65,0,0,0-3.67,0,.79.79,0,0,1-.11-1.58,28.18,28.18,0,0,1,3.9,0,.81.81,0,0,1,.73.85A.79.79,0,0,1,42.44,5.8Z"/><path class="cls-5" d="M53.73,40.5c7.75,14,8.39-3.81,5.75-13S51,12.22,45.32,10.25c-12.32-4.3-14,6.05-6.58,10S50.08,33.89,53.73,40.5Z"/></g></g></svg>