<svg xmlns="http://www.w3.org/2000/svg" viewBox="0 0 72.27 89.24"><defs><style>.cls-1{opacity:0.15;}.cls-2{fill:#2eddff;}.cls-3{fill:#00aade;}.cls-4{fill:#6bebfc;}.cls-5{fill:#95f2f9;}</style></defs><title>num-5Asset 39</title><g id="Layer_2" data-name="Layer 2"><g id="Layer_1-2" data-name="Layer 1"><path class="cls-1" d="M31.43,7C3.43,9.77-8.68,50,10.34,76.37,25.6,97.57,58.4,92.85,69.11,60.14,77.88,33.35,57.4,4.34,31.43,7ZM24.52,55.14c-5.72-5.08-3.44-16.62,2.83-18.7,5.83-1.93,19.4,4.69,17,14.48C42.7,58,29.11,59.22,24.52,55.14Z"/><path class="cls-2" d="M31.43,1.27c-28,2.82-40.11,43-21.09,69.42C25.6,91.89,58.4,87.17,69.11,54.46,77.88,27.66,57.4-1.35,31.43,1.27ZM24.52,49.46c-5.72-5.09-3.44-16.62,2.83-18.7,5.83-1.94,19.4,4.69,17,14.48C42.7,52.35,29.11,53.53,24.52,49.46Z"/><path class="cls-3" d="M34.71,84.66h0A31,31,0,0,1,9.44,71.33,51.24,51.24,0,0,1,4.31,21.16C9.78,9,19.63,1.35,31.31.17,32.44.06,33.57,0,34.69,0,46,0,56.63,5.76,63.91,15.79a43.61,43.61,0,0,1,6.25,39C63,76.81,47.12,84.66,34.71,84.66Zm0-82.45a30.34,30.34,0,0,0-3.15.16C20.66,3.46,11.47,10.64,6.32,22.06a49,49,0,0,0,4.92,48A28.8,28.8,0,0,0,34.71,82.45c11.64,0,26.51-7.44,33.35-28.34a41.37,41.37,0,0,0-5.94-37C55.27,7.63,45.27,2.21,34.69,2.21ZM32.46,52.89c-3.64,0-6.81-1-8.68-2.61-3-2.69-4.3-7.3-3.33-12,.87-4.22,3.38-7.5,6.56-8.55a8.49,8.49,0,0,1,2.68-.39,18.73,18.73,0,0,1,13.53,6.75,10.75,10.75,0,0,1,2.26,9.42C44.25,50.6,38.06,52.89,32.46,52.89ZM29.69,31.53a6.25,6.25,0,0,0-2,.28c-2.43.8-4.37,3.45-5.09,6.9C22,41.8,22.33,46,25.25,48.63c1.45,1.29,4.15,2,7.21,2,4.58,0,9.93-1.78,10.87-5.7a8.55,8.55,0,0,0-1.84-7.55A16.63,16.63,0,0,0,29.69,31.53Z"/><path class="cls-3" d="M34.89,79.15c-.77,0-1.56,0-2.32-.1a.79.79,0,0,1-.72-.86.78.78,0,0,1,.85-.71,25,25,0,0,0,3.67,0,.79.79,0,0,1,.09,1.58C35.94,79.14,35.41,79.15,34.89,79.15Zm5.89-.67a.79.79,0,0,1-.17-1.56,27.77,27.77,0,0,0,3.51-1.07.78.78,0,0,1,1,.45.79.79,0,0,1-.46,1A29,29,0,0,1,41,78.46Zm-12.49-.2-.21,0A26.8,26.8,0,0,1,24.4,77,.79.79,0,1,1,25,75.52a24.75,24.75,0,0,0,3.45,1.21.79.79,0,0,1,.56,1A.78.78,0,0,1,28.29,78.28Zm20.1-2.79A.79.79,0,0,1,48,74a29.12,29.12,0,0,0,3.08-2,.8.8,0,0,1,1.11.16.78.78,0,0,1-.16,1.1,30.75,30.75,0,0,1-3.25,2.13A.79.79,0,0,1,48.39,75.49Zm-27.55-.57a.76.76,0,0,1-.43-.14,27.85,27.85,0,0,1-3.09-2.37.79.79,0,0,1-.06-1.11.78.78,0,0,1,1.11-.07,25.9,25.9,0,0,0,2.91,2.24.79.79,0,0,1-.44,1.45ZM54.9,70.53a.76.76,0,0,1-.56-.24.77.77,0,0,1,0-1.11,34.5,34.5,0,0,0,2.49-2.74.79.79,0,0,1,1.22,1,35.72,35.72,0,0,1-2.61,2.86A.78.78,0,0,1,54.9,70.53Zm-40.11-1.1a.79.79,0,0,1-.61-.29c-.42-.52-.84-1.06-1.23-1.61s-.71-1-1-1.52a.81.81,0,0,1,.23-1.1.8.8,0,0,1,1.09.23c.33.5.66,1,1,1.47s.77,1,1.17,1.53a.79.79,0,0,1-.61,1.29ZM60,64.15a.82.82,0,0,1-.43-.12.79.79,0,0,1-.24-1.09c.66-1,1.28-2.11,1.86-3.22a.79.79,0,0,1,1.4.73c-.6,1.15-1.25,2.28-1.93,3.34A.76.76,0,0,1,60,64.15Zm-49.69-1.6a.8.8,0,0,1-.71-.43C9.06,61,8.52,59.8,8,58.61A.79.79,0,0,1,9.5,58c.47,1.15,1,2.28,1.55,3.38a.79.79,0,0,1-.7,1.15ZM34.26,58.4c-.5,0-1,0-1.54-.07a.79.79,0,0,1,.14-1.57,14.77,14.77,0,0,0,3.59-.1.79.79,0,0,1,.24,1.56A16.16,16.16,0,0,1,34.26,58.4Zm-5.77-1a.75.75,0,0,1-.26,0,19.62,19.62,0,0,1-3.57-1.66.79.79,0,0,1,.8-1.36,17.85,17.85,0,0,0,3.29,1.53.79.79,0,0,1,.48,1A.78.78,0,0,1,28.49,57.39Zm12.26-.51a.8.8,0,0,1-.7-.43.78.78,0,0,1,.34-1.06,12.16,12.16,0,0,0,2.87-2.08.79.79,0,0,1,1.1,1.14,14,14,0,0,1-3.24,2.34A.81.81,0,0,1,40.75,56.88Zm23,0A.8.8,0,0,1,63,55.78c.42-1,.81-2.11,1.17-3.2l.09-.3a.79.79,0,1,1,1.51.47l-.1.32c-.37,1.13-.77,2.24-1.2,3.3A.8.8,0,0,1,63.77,56.87ZM7.32,54.94a.81.81,0,0,1-.76-.57c-.35-1.23-.66-2.49-.91-3.75a.79.79,0,0,1,1.54-.31c.25,1.22.55,2.43.89,3.62a.79.79,0,0,1-.54,1A.57.57,0,0,1,7.32,54.94Zm14.24-1.83a.77.77,0,0,1-.55-.22q-.23-.21-.42-.42a13.14,13.14,0,0,1-2.31-3.27.78.78,0,1,1,1.4-.71,12,12,0,0,0,2,2.88l.39.39a.79.79,0,0,1,0,1.12A.8.8,0,0,1,21.56,53.11Zm24.92-1.94a.78.78,0,0,1-.39-.1.79.79,0,0,1-.3-1.08,18.55,18.55,0,0,0,1.43-3.32.79.79,0,0,1,1-.51.78.78,0,0,1,.5,1,20,20,0,0,1-1.55,3.61A.81.81,0,0,1,46.48,51.17ZM66.13,49H66a.79.79,0,0,1-.63-.92c.22-1.21.39-2.45.49-3.67a.79.79,0,1,1,1.57.12,37.68,37.68,0,0,1-.51,3.84A.79.79,0,0,1,66.13,49ZM5.77,46.89A.78.78,0,0,1,5,46.18c-.13-1.27-.2-2.56-.22-3.84a.79.79,0,1,1,1.58,0c0,1.24.09,2.49.21,3.71a.8.8,0,0,1-.71.87Zm11.85-1.45a.79.79,0,0,1-.78-.65,18.84,18.84,0,0,1-.25-3c0-.31,0-.62,0-.93a.79.79,0,0,1,1.58.08c0,.28,0,.57,0,.85a16.64,16.64,0,0,0,.23,2.75.79.79,0,0,1-.64.91Zm31.13-2.08h0a.77.77,0,0,1-.76-.8v-.34a13.3,13.3,0,0,0-.4-3.2.79.79,0,0,1,.56-1,.81.81,0,0,1,1,.57,14.47,14.47,0,0,1,.45,3.59c0,.12,0,.25,0,.38A.79.79,0,0,1,48.75,43.36Zm18-2.51a.79.79,0,0,1-.79-.75c0-1.23-.16-2.47-.33-3.69a.79.79,0,1,1,1.56-.23A38.43,38.43,0,0,1,67.52,40a.78.78,0,0,1-.76.81Zm-61-2.15H5.63a.79.79,0,0,1-.73-.85c.11-1.27.27-2.56.48-3.82a.78.78,0,0,1,.91-.64.79.79,0,0,1,.65.9c-.21,1.22-.36,2.46-.46,3.69A.8.8,0,0,1,5.69,38.7Zm12.46-1.37a.66.66,0,0,1-.23,0,.78.78,0,0,1-.52-1,17.53,17.53,0,0,1,1.54-3.64.79.79,0,0,1,1.38.77,15.87,15.87,0,0,0-1.41,3.33A.79.79,0,0,1,18.15,37.33ZM46.6,35.57a.78.78,0,0,1-.67-.37,17,17,0,0,0-2.22-2.85.78.78,0,0,1,0-1.11.79.79,0,0,1,1.12,0,17.79,17.79,0,0,1,2.43,3.11A.79.79,0,0,1,47,35.46.77.77,0,0,1,46.6,35.57Zm18.92-2.82a.8.8,0,0,1-.77-.59,36.17,36.17,0,0,0-1.12-3.53.8.8,0,0,1,.47-1,.79.79,0,0,1,1,.47c.45,1.2.84,2.44,1.17,3.68a.8.8,0,0,1-.56,1ZM7.11,30.63a.76.76,0,0,1-.21,0,.78.78,0,0,1-.55-1c.34-1.24.74-2.48,1.19-3.67A.79.79,0,0,1,9,26.52c-.43,1.14-.82,2.33-1.15,3.53A.79.79,0,0,1,7.11,30.63Zm15.19-.28a.81.81,0,0,1-.57-.24.8.8,0,0,1,0-1.12A14.67,14.67,0,0,1,25,26.63.79.79,0,1,1,25.71,28a13.25,13.25,0,0,0-2.86,2.12A.77.77,0,0,1,22.3,30.35Zm18.56-.56a.82.82,0,0,1-.43-.12A19.36,19.36,0,0,0,37.22,28a.79.79,0,1,1,.6-1.46,21.68,21.68,0,0,1,3.47,1.83.79.79,0,0,1,.23,1.1A.78.78,0,0,1,40.86,29.79Zm-7.58-3h-.12a12.61,12.61,0,0,0-3.56-.09.79.79,0,0,1-.19-1.57,14.55,14.55,0,0,1,4,.1.78.78,0,0,1-.12,1.56ZM62.59,25.1a.79.79,0,0,1-.7-.43c-.57-1.1-1.19-2.18-1.86-3.21a.79.79,0,0,1,1.33-.86c.69,1.07,1.34,2.2,1.93,3.35A.78.78,0,0,1,63,25,.8.8,0,0,1,62.59,25.1ZM10.07,23a.77.77,0,0,1-.36-.09.78.78,0,0,1-.34-1.06,34.24,34.24,0,0,1,1.94-3.34.79.79,0,0,1,1.32.86,34.7,34.7,0,0,0-1.86,3.2A.8.8,0,0,1,10.07,23Zm48-4.73a.81.81,0,0,1-.61-.28A34.23,34.23,0,0,0,55,15.26a.79.79,0,0,1,0-1.11.8.8,0,0,1,1.12,0A35.5,35.5,0,0,1,58.68,17a.78.78,0,0,1-.1,1.11A.77.77,0,0,1,58.08,18.26ZM14.63,16.2a.81.81,0,0,1-.52-.2A.78.78,0,0,1,14,14.89a31,31,0,0,1,2.72-2.77.79.79,0,0,1,1.12.07.78.78,0,0,1-.07,1.11,29.16,29.16,0,0,0-2.58,2.63A.8.8,0,0,1,14.63,16.2Zm37.5-3.57a.8.8,0,0,1-.47-.15,32.13,32.13,0,0,0-3.1-2,.79.79,0,0,1,.78-1.37,33.51,33.51,0,0,1,3.26,2.11.78.78,0,0,1,.16,1.1A.77.77,0,0,1,52.13,12.63ZM20.8,10.84a.77.77,0,0,1-.66-.37.78.78,0,0,1,.24-1.09,27,27,0,0,1,3.43-1.85.8.8,0,0,1,1,.4.78.78,0,0,1-.4,1,25.69,25.69,0,0,0-3.22,1.74A.77.77,0,0,1,20.8,10.84ZM45,8.69a.92.92,0,0,1-.28,0,27.93,27.93,0,0,0-3.51-1.1A.79.79,0,1,1,41.53,6a31.28,31.28,0,0,1,3.72,1.15A.79.79,0,0,1,45,8.69ZM28.3,7.6a.79.79,0,0,1-.2-1.55,27.29,27.29,0,0,1,3.84-.68.82.82,0,0,1,.63.23.77.77,0,0,1,.59-.32,28.06,28.06,0,0,1,3.89,0,.79.79,0,1,1-.12,1.57,28.08,28.08,0,0,0-3.67,0,.8.8,0,0,1-.6-.22A.84.84,0,0,1,32.1,7a23.89,23.89,0,0,0-3.61.63Z"/><path class="cls-4" d="M31.89,9.07C10.6,11.27.7,43.23,15.17,63.79c12,17.07,38.21,13.4,46.75-13.32C68.59,29.62,51.65,7,31.89,9.07ZM18.41,53.18c-7.85-9.16-3.63-27,9-30.12S55.85,31.36,51,47.78C45.73,65.53,27.63,64,18.41,53.18Z"/><path class="cls-5" d="M40.43,10.89c-8.62-1.39-10.82,5.64-1.35,9.92s14,16.3,18.27,15.14S58.56,13.79,40.43,10.89Z"/></g></g></svg>