<svg xmlns="http://www.w3.org/2000/svg" viewBox="0 0 35.69 128.6"><defs><style>.cls-1{opacity:0.15;}.cls-2{fill:#ff4f8c;}.cls-3{fill:#d11d5b;}.cls-4{fill:#f970a5;}.cls-5{fill:#fc83b5;}</style></defs><title>num-1Asset 35</title><g id="Layer_2" data-name="Layer 2"><g id="Layer_1-2" data-name="Layer 1"><path class="cls-1" d="M23.49,8.17C17.66,2.69-.66,14.46,1.24,26.7c2.5,16.09,6.94,85.13,11.38,95.59S28.29,131,33,111.17,30.82,15.06,23.49,8.17Z"/><path class="cls-2" d="M23.49,2.48C17.66-3-.66,8.78,1.24,21c2.5,16.09,6.94,85.12,11.38,95.58S28.29,125.31,33,105.49,30.82,9.37,23.49,2.48Z"/><path class="cls-3" d="M20.16,124h0c-3.56,0-6.67-2.54-8.56-7-2.95-6.93-5.73-37.3-8.18-64.1C2.13,38.92,1,26.82.15,21.19c-.67-4.29.92-8.92,4.45-13C8.71,3.35,14.83,0,19.5,0a6.77,6.77,0,0,1,4.75,1.68C28.51,5.69,32,28.77,33.89,49c1.76,19.2,2.87,45.57.21,56.71C31.36,117.19,26.15,124,20.16,124ZM19.5,2.21c-4,0-9.56,3.1-13.22,7.36-3.11,3.64-4.51,7.64-3.95,11.28.89,5.7,2,17.83,3.29,31.88,2.32,25.31,5.2,56.82,8,63.44,1.53,3.59,3.9,5.64,6.53,5.64,3.78,0,8.87-4.35,11.79-16.58C36.55,86,29.66,9.79,22.73,3.29A4.54,4.54,0,0,0,19.5,2.21Z"/><path class="cls-3" d="M20.72,118.94a4.24,4.24,0,0,1-3.12-1.56.79.79,0,0,1,1.17-1.07,2.4,2.4,0,0,0,2.55,1,.79.79,0,1,1,.46,1.51A3.89,3.89,0,0,1,20.72,118.94Zm4.13-3a.8.8,0,0,1-.65-1.25A21.34,21.34,0,0,0,26,111.58a.8.8,0,0,1,1.06-.36.78.78,0,0,1,.36,1,23.29,23.29,0,0,1-2,3.38A.8.8,0,0,1,24.85,116ZM16,113.81a.78.78,0,0,1-.74-.51c-.13-.34-.26-.69-.38-1.06a27.4,27.4,0,0,1-.71-2.69.79.79,0,0,1,.6-.94.78.78,0,0,1,.94.6c.24,1.06.46,1.91.67,2.53.11.35.23.68.35,1a.79.79,0,0,1-.45,1A.92.92,0,0,1,16,113.81Zm12.43-5.17a.9.9,0,0,1-.28,0,.8.8,0,0,1-.46-1c.4-1.09.8-2.29,1.19-3.55a.8.8,0,0,1,1-.52.79.79,0,0,1,.52,1c-.4,1.28-.81,2.51-1.22,3.63A.78.78,0,0,1,28.46,108.64Zm-14.31-2.83a.78.78,0,0,1-.77-.66c-.2-1.16-.39-2.42-.59-3.77a.79.79,0,0,1,.67-.89.77.77,0,0,1,.89.66c.2,1.34.39,2.59.58,3.74a.79.79,0,0,1-.65.91Zm16.66-5h-.15a.79.79,0,0,1-.62-.93c.21-1.09.4-2.32.56-3.68a.79.79,0,1,1,1.56.18c-.16,1.4-.35,2.68-.58,3.81A.78.78,0,0,1,30.81,100.79ZM13,97.67a.79.79,0,0,1-.78-.68c-.16-1.22-.33-2.48-.49-3.77a.79.79,0,0,1,1.57-.2c.16,1.29.32,2.55.48,3.76a.79.79,0,0,1-.68.89Zm18.79-5H31.7a.79.79,0,0,1-.74-.83c.07-1.18.13-2.45.16-3.76a.81.81,0,0,1,.81-.77.79.79,0,0,1,.77.81c0,1.33-.09,2.61-.16,3.81A.79.79,0,0,1,31.75,92.64ZM11.94,89.51a.77.77,0,0,1-.78-.69c-.15-1.24-.3-2.5-.44-3.78a.79.79,0,0,1,.69-.87.8.8,0,0,1,.88.69c.14,1.28.29,2.54.43,3.77a.78.78,0,0,1-.69.88Zm20-5.07a.79.79,0,0,1-.79-.79q0-1.84,0-3.78a.78.78,0,0,1,.77-.8.77.77,0,0,1,.8.78c0,1.29,0,2.56,0,3.8a.79.79,0,0,1-.79.79Zm-21-3.1a.8.8,0,0,1-.79-.7c-.13-1.25-.27-2.51-.41-3.77a.79.79,0,0,1,1.57-.17c.14,1.26.27,2.52.41,3.77a.79.79,0,0,1-.7.87ZM31.8,76.23a.8.8,0,0,1-.79-.76c0-1.25-.1-2.51-.16-3.78a.79.79,0,1,1,1.57-.08c.07,1.28.12,2.55.17,3.8a.81.81,0,0,1-.76.82ZM10.13,73.17a.79.79,0,0,1-.79-.71l-.4-3.78a.8.8,0,0,1,.71-.87.79.79,0,0,1,.86.71l.4,3.78a.78.78,0,0,1-.7.86ZM31.39,68a.79.79,0,0,1-.79-.74c-.08-1.25-.17-2.51-.26-3.77a.79.79,0,0,1,.73-.85.8.8,0,0,1,.84.73c.1,1.27.18,2.54.26,3.79a.79.79,0,0,1-.73.84ZM9.27,65a.78.78,0,0,1-.78-.71L8.1,60.51a.79.79,0,1,1,1.57-.17l.39,3.78a.79.79,0,0,1-.71.86Zm21.51-5.16a.79.79,0,0,1-.79-.72c-.1-1.26-.22-2.51-.33-3.77a.79.79,0,1,1,1.57-.15c.12,1.26.23,2.53.34,3.79a.8.8,0,0,1-.72.85Zm-22.35-3a.78.78,0,0,1-.78-.71l-.39-3.77a.79.79,0,1,1,1.57-.16l.39,3.77a.8.8,0,0,1-.71.87ZM30,51.65a.79.79,0,0,1-.79-.71c-.13-1.26-.27-2.51-.41-3.76A.79.79,0,0,1,30.38,47c.14,1.25.28,2.51.41,3.78a.78.78,0,0,1-.7.86Zm-22.42-3a.8.8,0,0,1-.79-.71c-.13-1.29-.26-2.55-.39-3.77A.79.79,0,1,1,8,44c.13,1.22.26,2.48.39,3.77a.79.79,0,0,1-.7.87Zm21.49-5.15a.79.79,0,0,1-.78-.69q-.24-1.9-.48-3.75a.78.78,0,0,1,.67-.89.8.8,0,0,1,.89.68c.16,1.24.33,2.5.48,3.77a.79.79,0,0,1-.68.88Zm-22.36-3a.78.78,0,0,1-.78-.7c-.15-1.32-.29-2.58-.43-3.77a.79.79,0,0,1,1.57-.18q.21,1.79.42,3.78a.79.79,0,0,1-.69.87ZM28,35.34a.79.79,0,0,1-.78-.68c-.18-1.27-.37-2.52-.56-3.74a.79.79,0,0,1,1.56-.24c.19,1.22.38,2.48.56,3.76a.78.78,0,0,1-.67.89ZM5.77,32.28A.79.79,0,0,1,5,31.59c-.19-1.48-.36-2.74-.52-3.74a.8.8,0,0,1,.66-.9.78.78,0,0,1,.9.66c.16,1,.33,2.27.52,3.78a.79.79,0,0,1-.68.89Zm20.94-5.06a.78.78,0,0,1-.77-.65c-.22-1.29-.45-2.53-.67-3.72a.79.79,0,0,1,1.55-.3c.22,1.2.45,2.45.67,3.75a.78.78,0,0,1-.64.91ZM5,24.12H5a.79.79,0,0,1-.77-.81,24.29,24.29,0,0,1,.46-3.89.79.79,0,0,1,1.55.32,21,21,0,0,0-.43,3.62A.79.79,0,0,1,5,24.12Zm20.2-5a.78.78,0,0,1-.77-.62c-.29-1.34-.58-2.57-.86-3.66a.79.79,0,0,1,1.53-.4c.28,1.12.58,2.37.87,3.73a.79.79,0,0,1-.6.93A.52.52,0,0,1,25.17,19.15Zm-18.46-3a.85.85,0,0,1-.31-.06.79.79,0,0,1-.42-1,22,22,0,0,1,1.83-3.47.79.79,0,0,1,1.33.86,19.72,19.72,0,0,0-1.7,3.22A.79.79,0,0,1,6.71,16.14ZM23,11.22a.8.8,0,0,1-.74-.51,7.56,7.56,0,0,0-1.05-2.14,5.1,5.1,0,0,0-2.69-1.78.79.79,0,0,1-.57-1,.78.78,0,0,1,1-.57,6.71,6.71,0,0,1,3.52,2.31,9.08,9.08,0,0,1,1.31,2.59.79.79,0,0,1-.47,1A.65.65,0,0,1,23,11.22ZM11.31,9.42a.8.8,0,0,1-.59-.26.78.78,0,0,1,.06-1.11,12.46,12.46,0,0,1,3.34-2.24.79.79,0,0,1,.64,1.44,11.16,11.16,0,0,0-2.92,2A.77.77,0,0,1,11.31,9.42Z"/><path class="cls-4" d="M19.6,10.3C14.54,3.24,6.72,14.71,8.82,28.43s5.41,68.07,8.43,77.45c3.13,9.7,7.56,7.43,10.37-8.21C30.72,80.45,24.21,16.74,19.6,10.3Z"/><path class="cls-5" d="M17.08,13.37C15.34,14,1.77,25.59,15.19,45.82,24,59.17,24.33,35.39,22.7,26S19.8,12.45,17.08,13.37Z"/></g></g></svg>