<svg xmlns="http://www.w3.org/2000/svg" viewBox="0 0 65.43 137.37"><defs><style>.cls-1{opacity:0.15;}.cls-2{fill:#ff9f31;}.cls-3{fill:#ff7817;}.cls-4{fill:#fca95e;}.cls-5{fill:#fcb783;}</style></defs><title>num-4Asset 38</title><g id="Layer_2" data-name="Layer 2"><g id="Layer_1-2" data-name="Layer 1"><path class="cls-1" d="M49.88,9.45C34.91,0,3.21,16.71,1.21,42.61-.39,63.34,16.64,70.84,22.63,71.67s5.08,2.5-.54,5.87c-16.92,10.14-23.66,27.25-14,42.09C19.79,137.72,50.59,140.12,58.44,135s8.12-27-.77-29.08c-4.07-1-21.37-1-21.63-9.24s15.89-11.07,20.72-15c7.33-5.9,4.7-21-2.89-24-10.88-4.21-23-8.92-22.46-14.1.73-6.74,13.2-7.16,17.83-8.42S55.35,12.9,49.88,9.45Z"/><path class="cls-2" d="M49.88,3.77C34.91-5.66,3.21,11,1.21,36.93-.39,57.65,16.64,65.16,22.63,66s5.08,2.51-.54,5.88C5.17,82-1.57,99.1,8.05,113.94c11.74,18.1,42.54,20.49,50.39,15.4s8.12-27-.77-29.08C53.6,99.3,36.3,99.23,36,91S51.93,80,56.76,76.07c7.33-5.9,4.7-21-2.89-24C43,47.87,30.86,43.16,31.41,38c.73-6.75,13.2-7.16,17.83-8.42S55.35,7.21,49.88,3.77Z"/><path class="cls-3" d="M46.69,132.79h0c-13.8,0-31.38-5.64-39.56-18.25A26.52,26.52,0,0,1,3.21,93.73c2.06-8.87,8.56-17,18.31-22.82,3.11-1.86,3.87-2.71,4.06-3a7.93,7.93,0,0,0-3.1-.8C17.32,66.36-1.61,59.14.11,36.85.87,27,5.94,17.53,14.38,10.33,22,3.86,31.43,0,39.7,0A19.84,19.84,0,0,1,50.46,2.83c4.26,2.68,4.47,12.93,3.6,18.75-.45,3-1.64,8.27-4.53,9.05-1,.28-2.33.51-3.84.77-5.36.93-12.69,2.2-13.18,6.71C32,42.45,44.89,47.43,54.27,51.05,58.15,52.55,61.1,57,62,62.53c.92,5.9-.81,11.42-4.51,14.4C55.78,78.27,53,79.46,50,80.71,43.88,83.27,37,86.16,37.14,91c.18,5.66,11.11,7,17,7.65,1.64.2,2.94.35,3.8.56,3.56.84,6.16,4.5,7.11,10,1.29,7.42-.64,17.57-6,21.05C56.54,131.89,52.15,132.79,46.69,132.79ZM39.7,2.21C23.65,2.21,3.83,17.41,2.31,37,.73,57.59,18.06,64.24,22.78,64.89c2.41.33,4.68.87,5,2.52s-1.62,3.28-5.14,5.39C13.43,78.34,7.29,86,5.37,94.23A24.31,24.31,0,0,0,9,113.34c7.72,11.91,24.5,17.24,37.71,17.24h0c5,0,9-.79,11.15-2.17,4.45-2.89,6.2-12.06,5-18.81-.8-4.62-2.79-7.63-5.45-8.26-.74-.18-2-.33-3.55-.51-7-.83-18.7-2.22-18.94-9.78-.2-6.34,7.77-9.69,14.17-12.37,2.85-1.2,5.54-2.32,7-3.47,3.7-3,4.34-8.33,3.72-12.34-.74-4.73-3.21-8.56-6.31-9.76-11.7-4.52-23.8-9.21-23.15-15.24s9.28-7.66,15-8.65C46.77,29,48,28.75,49,28.5s2.24-2.63,2.93-7.24c1-6.59.17-14.82-2.59-16.56A17.75,17.75,0,0,0,39.7,2.21Z"/><path class="cls-3" d="M45.73,129.11c-.79,0-1.61,0-2.44-.08a.79.79,0,0,1-.74-.83.8.8,0,0,1,.84-.74c1.27.07,2.52.09,3.71,0a.79.79,0,0,1,.06,1.58C46.69,129.1,46.21,129.11,45.73,129.11Zm5.79-.51a.79.79,0,0,1-.15-1.56,16.13,16.13,0,0,0,3.46-1,.79.79,0,1,1,.63,1.45,18,18,0,0,1-3.8,1.12Zm-12.57,0h-.12c-1.26-.19-2.53-.44-3.78-.73a.79.79,0,0,1,.36-1.54c1.21.28,2.44.52,3.66.71a.81.81,0,0,1,.66.91A.79.79,0,0,1,39,128.56Zm-8-1.92a1.09,1.09,0,0,1-.25,0c-1.22-.41-2.44-.86-3.6-1.35a.79.79,0,1,1,.61-1.46c1.13.48,2.3.92,3.49,1.31a.79.79,0,0,1-.25,1.54Zm27.65-1.74a.75.75,0,0,1-.49-.17.78.78,0,0,1-.12-1.11,11.06,11.06,0,0,0,1.69-3.08.79.79,0,1,1,1.48.55,12.41,12.41,0,0,1-1.94,3.52A.81.81,0,0,1,58.63,124.9Zm-35.18-1.5a.85.85,0,0,1-.38-.09c-1.14-.62-2.25-1.29-3.31-2a.79.79,0,1,1,.87-1.31c1,.67,2.09,1.31,3.19,1.91a.79.79,0,0,1,.32,1.07A.78.78,0,0,1,23.45,123.4Zm-6.79-4.59a.81.81,0,0,1-.51-.18A37.55,37.55,0,0,1,13.32,116a.79.79,0,1,1,1.14-1.1,34.19,34.19,0,0,0,2.7,2.53.79.79,0,0,1-.5,1.39Zm44.75-1.51h-.08a.8.8,0,0,1-.71-.87,18.49,18.49,0,0,0,.1-2c0-.55,0-1.11-.07-1.66a.79.79,0,1,1,1.58-.12c.05.58.07,1.18.07,1.78s0,1.44-.11,2.14A.78.78,0,0,1,61.41,117.3ZM11,112.85a.79.79,0,0,1-.64-.32c-.4-.54-.78-1.09-1.15-1.65s-.66-1.09-.95-1.64a.79.79,0,0,1,1.4-.73c.26.51.56,1,.88,1.51s.71,1.06,1.09,1.58a.78.78,0,0,1-.63,1.25Zm49.56-3.66a.79.79,0,0,1-.75-.54,9.45,9.45,0,0,0-1.6-3.08.79.79,0,0,1,.09-1.11.78.78,0,0,1,1.11.1,10.65,10.65,0,0,1,1.9,3.59.8.8,0,0,1-.5,1A.77.77,0,0,1,60.6,109.19ZM7.43,105.55a.79.79,0,0,1-.77-.6,20.15,20.15,0,0,1-.56-3.9.79.79,0,0,1,.76-.82.78.78,0,0,1,.82.75,17.86,17.86,0,0,0,.51,3.59.79.79,0,0,1-.57,1Zm47.51-1.48h-.13L53,103.78l-1.88-.29a.79.79,0,1,1,.24-1.56l1.87.28,1.89.3a.78.78,0,0,1,.65.9A.79.79,0,0,1,54.94,104.07Zm-8.1-1.37-.17,0c-1.37-.3-2.59-.62-3.74-1a.77.77,0,0,1-.51-1,.79.79,0,0,1,1-.51c1.1.35,2.28.66,3.59,1a.79.79,0,0,1,.61.94A.81.81,0,0,1,46.84,102.7Zm-7.77-2.63a.8.8,0,0,1-.36-.09,15.78,15.78,0,0,1-3.29-2.23.79.79,0,0,1,1-1.17,14.66,14.66,0,0,0,3,2,.8.8,0,0,1,.33,1.07A.78.78,0,0,1,39.07,100.07ZM7.19,97.41H7.05a.79.79,0,0,1-.64-.92,24.14,24.14,0,0,1,1-3.78.79.79,0,0,1,1.49.51A24.56,24.56,0,0,0,8,96.75.78.78,0,0,1,7.19,97.41Zm26.19-3a.8.8,0,0,1-.73-.49,10.78,10.78,0,0,1-.75-3.34c0-.16,0-.31,0-.47v-.2a.83.83,0,0,1,.81-.77.79.79,0,0,1,.77.81v.16c0,.13,0,.25,0,.38a8.78,8.78,0,0,0,.63,2.83.78.78,0,0,1-.43,1A.77.77,0,0,1,33.38,94.42ZM9.87,89.69a.81.81,0,0,1-.37-.09.8.8,0,0,1-.33-1.07,35.84,35.84,0,0,1,2-3.32.79.79,0,0,1,1.1-.21.78.78,0,0,1,.21,1.09,32.67,32.67,0,0,0-1.89,3.17A.8.8,0,0,1,9.87,89.69ZM34.1,86.63a.82.82,0,0,1-.45-.14.79.79,0,0,1-.2-1.1,14.42,14.42,0,0,1,2.74-2.9.79.79,0,1,1,1,1.22,12.64,12.64,0,0,0-2.44,2.58A.8.8,0,0,1,34.1,86.63Zm-19.61-3.7a.77.77,0,0,1-.51-.19.78.78,0,0,1-.08-1.11c.82-1,1.71-1.9,2.65-2.8A.79.79,0,1,1,17.64,80c-.9.87-1.76,1.78-2.55,2.7A.77.77,0,0,1,14.49,82.93ZM40.34,81.4a.78.78,0,0,1-.68-.4.8.8,0,0,1,.28-1.08c1-.58,2.11-1.17,3.4-1.8a.79.79,0,1,1,.7,1.41c-1.26.62-2.34,1.2-3.3,1.76A.83.83,0,0,1,40.34,81.4Zm7.36-3.67a.8.8,0,0,1-.72-.46.78.78,0,0,1,.39-1h0c1.23-.57,2.39-1.1,3.4-1.6a.79.79,0,1,1,.7,1.41c-1,.52-2.2,1-3.45,1.62A.72.72,0,0,1,47.7,77.73Zm-27.27-.45a.78.78,0,0,1-.62-.3.79.79,0,0,1,.13-1.11c1-.79,2.07-1.55,3.14-2.25a.8.8,0,0,1,1.09.23.78.78,0,0,1-.23,1.09c-1,.68-2.05,1.41-3,2.17A.77.77,0,0,1,20.43,77.28Zm34.36-3.59a.78.78,0,0,1-.55-.23.8.8,0,0,1,0-1.12,9.12,9.12,0,0,0,2-2.87.8.8,0,0,1,1-.41.79.79,0,0,1,.41,1,11,11,0,0,1-2.28,3.36A.79.79,0,0,1,54.79,73.69Zm-27.47-.85a.82.82,0,0,1-.69-.4.8.8,0,0,1,.3-1.08,9.23,9.23,0,0,0,2.72-2.13.79.79,0,0,1,1.11-.13.78.78,0,0,1,.13,1.1,10.75,10.75,0,0,1-3.18,2.53A.79.79,0,0,1,27.32,72.84ZM30,66.54a.78.78,0,0,1-.57-.24,10,10,0,0,0-2.9-1.94.79.79,0,0,1-.37-1,.8.8,0,0,1,1.06-.37,11.78,11.78,0,0,1,3.35,2.27A.78.78,0,0,1,30,66.54Zm27.82-.26h0a.78.78,0,0,1-.76-.82c0-.16,0-.33,0-.5a13.79,13.79,0,0,0-.35-3,.78.78,0,0,1,.59-.94.79.79,0,0,1,1,.59,15.1,15.1,0,0,1,.39,3.4c0,.19,0,.38,0,.57A.79.79,0,0,1,57.86,66.28ZM22.79,62.86a.69.69,0,0,1-.25,0c-1.19-.39-2.35-.79-3.62-1.29a.79.79,0,0,1,.59-1.47c1.22.49,2.36.88,3.53,1.26a.79.79,0,0,1-.25,1.54Zm-7.57-3.17a.81.81,0,0,1-.39-.1,24.8,24.8,0,0,1-3.24-2.19.78.78,0,0,1-.11-1.11.79.79,0,0,1,1.11-.12,22.79,22.79,0,0,0,3,2,.78.78,0,0,1-.39,1.47Zm40.61-1.24a.79.79,0,0,1-.67-.36,5.85,5.85,0,0,0-2.37-2.28.81.81,0,0,1-.39-1.05.79.79,0,0,1,1.05-.39,7.56,7.56,0,0,1,3,2.87.78.78,0,0,1-.66,1.21ZM9,54.43a.8.8,0,0,1-.63-.3,19.07,19.07,0,0,1-2.08-3.34.79.79,0,0,1,1.42-.69,17.24,17.24,0,0,0,1.91,3.06.79.79,0,0,1-.14,1.11A.77.77,0,0,1,9,54.43Zm40-.18a.72.72,0,0,1-.28,0l-2.7-1-.85-.31a.79.79,0,1,1,.55-1.49l.85.32,2.71,1A.78.78,0,0,1,49,54.25Zm-7.69-2.87a.75.75,0,0,1-.29-.06c-1.33-.53-2.48-1-3.52-1.52a.79.79,0,0,1-.38-1,.78.78,0,0,1,1-.38c1,.48,2.13,1,3.44,1.48a.79.79,0,0,1,.43,1A.78.78,0,0,1,41.32,51.38ZM34,47.74a.75.75,0,0,1-.43-.13,18.8,18.8,0,0,1-3.08-2.47.78.78,0,0,1,0-1.11.79.79,0,0,1,1.12,0,17.54,17.54,0,0,0,2.82,2.26.78.78,0,0,1,.23,1.09A.8.8,0,0,1,34,47.74ZM5.5,47.09a.79.79,0,0,1-.76-.6,25.42,25.42,0,0,1-.64-3.84.78.78,0,0,1,.71-.86.79.79,0,0,1,.86.71,23.64,23.64,0,0,0,.6,3.61.8.8,0,0,1-.58,1Zm23-5.3a.8.8,0,0,1-.72-.47,12.44,12.44,0,0,1-.47-1.2,9.65,9.65,0,0,1-.5-2.75.79.79,0,1,1,1.57,0,9.07,9.07,0,0,0,.84,3.35.79.79,0,0,1-.4,1A.88.88,0,0,1,28.51,41.79ZM4.79,39h0A.8.8,0,0,1,4,38.13a31.45,31.45,0,0,1,.44-3.86A.79.79,0,1,1,6,34.55a30.13,30.13,0,0,0-.41,3.66A.8.8,0,0,1,4.79,39ZM28.9,34a.8.8,0,0,1-.47-.15.79.79,0,0,1-.17-1.1,11,11,0,0,1,3-2.71.78.78,0,0,1,1.09.24.79.79,0,0,1-.25,1.09,9.53,9.53,0,0,0-2.59,2.31A.77.77,0,0,1,28.9,34ZM6.28,30.92a1,1,0,0,1-.24,0,.79.79,0,0,1-.51-1,34,34,0,0,1,1.4-3.61.79.79,0,0,1,1.44.65A31.86,31.86,0,0,0,7,30.37.8.8,0,0,1,6.28,30.92Zm29.4-1.32a.78.78,0,0,1-.74-.51.8.8,0,0,1,.47-1,38.21,38.21,0,0,1,3.7-1.13.79.79,0,0,1,.4,1.53A37.1,37.1,0,0,0,36,29.55.69.69,0,0,1,35.68,29.6Zm8-2.07A.79.79,0,0,1,43.48,26l1.12-.22c1-.2,1.95-.37,2.55-.53a.79.79,0,0,1,.4,1.53c-.65.17-1.58.35-2.65.55l-1.12.22Zm-33.92-4A.79.79,0,0,1,9,22.29c.66-1.09,1.39-2.16,2.17-3.2a.8.8,0,0,1,1.11-.15.77.77,0,0,1,.15,1.1c-.74,1-1.45,2-2.08,3.07A.8.8,0,0,1,9.71,23.49Zm39.85-.34a.71.71,0,0,1-.2,0,.79.79,0,0,1-.56-1,25.08,25.08,0,0,0,.61-3.61.79.79,0,0,1,1.57.15,24.24,24.24,0,0,1-.66,3.85A.78.78,0,0,1,49.56,23.15ZM14.69,17a.79.79,0,0,1-.58-1.33c.88-.93,1.81-1.83,2.77-2.69A.78.78,0,0,1,18,13a.79.79,0,0,1-.06,1.11c-.93.82-1.82,1.7-2.67,2.59A.75.75,0,0,1,14.69,17Zm35.59-2a.78.78,0,0,1-.79-.74A20.08,20.08,0,0,0,49,10.67a.79.79,0,1,1,1.53-.39,20.54,20.54,0,0,1,.56,3.89.78.78,0,0,1-.74.83ZM20.86,11.58a.76.76,0,0,1-.64-.33.78.78,0,0,1,.18-1.1c1.05-.75,2.14-1.46,3.24-2.1a.79.79,0,0,1,.79,1.37c-1.05.61-2.1,1.29-3.11,2A.78.78,0,0,1,20.86,11.58ZM28,7.52A.79.79,0,0,1,27.66,6a34.16,34.16,0,0,1,3.63-1.35.79.79,0,1,1,.46,1.51,31.06,31.06,0,0,0-3.46,1.29A.87.87,0,0,1,28,7.52Zm19.68-.07a.76.76,0,0,1-.48-.17L47,7.15a13.28,13.28,0,0,0-3.25-1.46.79.79,0,0,1,.45-1.52,15.39,15.39,0,0,1,3.64,1.64l.32.23a.78.78,0,0,1,.14,1.1A.81.81,0,0,1,47.65,7.45ZM35.83,5.24a.79.79,0,0,1-.11-1.57,22.74,22.74,0,0,1,3.91-.22A.79.79,0,0,1,39.58,5a21.61,21.61,0,0,0-3.64.2Z"/><path class="cls-4" d="M45.78,8.84C33.49,1.1,8.3,16.36,6.7,37.65,5.41,54.84,23.05,59.45,27.79,60.91c9.47,2.91,8.42,8.63,1.48,13C16.58,82,6.12,91,10.65,104.17c7.12,20.7,37.16,23.64,44.28,19,6.45-4.18,4.13-16.42-.42-18.1-3.22-1.19-27.14-1.47-24.61-16.83,1.81-11,18.63-13.92,22.51-17,6-4.85,2.38-13.21-1.66-14.91-8.84-3.72-21.78-6-24.63-13.44C19.8,26.4,42,24.62,45.82,23.58,48.58,22.83,49.82,11.38,45.78,8.84Z"/><path class="cls-5" d="M25.06,12c-11,5.94-15,14.8-15,24.42,0,7.06,6.32,7.06,8.43-.51s8.75-11.63,13.63-15.07S32.11,8.18,25.06,12Z"/></g></g></svg>