<svg xmlns="http://www.w3.org/2000/svg" viewBox="0 0 103.08 124.71"><defs><style>.cls-1{opacity:0.15;}.cls-2{fill:#49d800;}.cls-3{fill:#36a300;}.cls-4{fill:#89ea49;}.cls-5{fill:#acea83;}</style></defs><title>num-7Asset 41</title><g id="Layer_2" data-name="Layer 2"><g id="Layer_1-2" data-name="Layer 1"><path class="cls-1" d="M23,12.38C18.07,8.58.69,17.65,1.11,26.76s37.24,86.54,43.56,93.5,20.2,4.68,23.56.52,32.41-87,33.67-96.15S88,3.94,79.6,7.42s-19.08,50-22.42,64.74c-.35,1.53-2.17,10.12-7-2C43.58,53.65,33.94,20.82,23,12.38Z"/><path class="cls-2" d="M23,6.7C18.07,2.9.69,12,1.11,21.08s37.24,86.54,43.56,93.49,20.2,4.68,23.56.52,32.41-87,33.67-96.14S88-1.74,79.6,1.74s-19.08,50-22.42,64.73c-.35,1.54-2.17,10.13-7-2C43.58,48,33.94,15.14,23,6.7Z"/><path class="cls-3" d="M56.47,120.13c-5.32,0-9.8-1.71-12.62-4.81C37.76,108.6.47,31.1,0,21.13c-.13-2.85,1.23-5.85,4-8.69C8.17,8,15,4.7,19.79,4.7a6.23,6.23,0,0,1,3.88,1.12C32.46,12.6,40.21,34.06,46.44,51.3c1.71,4.72,3.32,9.17,4.76,12.79,2.2,5.51,3.41,5.67,3.42,5.67s.73-.18,1.47-3.46l0-.07C65.5,24.68,73,3.25,79.18.72A9.91,9.91,0,0,1,83,0c5.15,0,11.51,3.33,15.82,8.28,3.15,3.6,4.62,7.45,4.16,10.82-1.28,9.26-30.43,92.39-33.91,96.69C67,118.35,61.83,120.13,56.47,120.13ZM19.79,6.91C15.58,6.91,9.33,10,5.55,14,4,15.63,2.09,18.21,2.22,21c.42,9.27,37.56,86.51,43.26,92.8,3.24,3.56,8.27,4.09,11,4.09,4.59,0,9.28-1.51,10.9-3.52,3.2-4,32.26-87,33.44-95.6.37-2.73-.92-6-3.63-9.07C93.32,5.3,87.5,2.21,83,2.21a7.71,7.71,0,0,0-3,.55C77,4,70.18,14,58.26,66.71v.07C57.93,68.2,57.08,72,54.62,72c-1.83,0-3.52-2.18-5.47-7.06-1.46-3.65-3.07-8.13-4.78-12.86-6.14-17-13.77-38.09-22-44.48A4.17,4.17,0,0,0,19.79,6.91Z"/><path class="cls-3" d="M57.52,116.26a16.91,16.91,0,0,1-2.83-.25.79.79,0,1,1,.27-1.55,14.92,14.92,0,0,0,3.58.18.8.8,0,0,1,.84.73.79.79,0,0,1-.73.85C58.28,116.24,57.9,116.26,57.52,116.26Zm5.35-1.08a.79.79,0,0,1-.33-1.5,6.23,6.23,0,0,0,2.23-1.61,2.52,2.52,0,0,0,.28-.44.79.79,0,0,1,1.38.77,5.54,5.54,0,0,1-.45.69,7.82,7.82,0,0,1-2.78,2A.78.78,0,0,1,62.87,115.18Zm-12.24-.5a.84.84,0,0,1-.34-.08A15.55,15.55,0,0,1,47,112.42a.8.8,0,0,1-.09-1.12.79.79,0,0,1,1.12-.08,14,14,0,0,0,3,2,.78.78,0,0,1,.36,1A.8.8,0,0,1,50.63,114.68Zm-6-5.47a.79.79,0,0,1-.67-.37c-.57-.89-1.23-2-2-3.29a.79.79,0,0,1,.29-1.08.8.8,0,0,1,1.08.3c.73,1.27,1.38,2.36,1.93,3.23a.78.78,0,0,1-.24,1.09A.81.81,0,0,1,44.66,109.21Zm22.94-.44a.7.7,0,0,1-.31-.07.78.78,0,0,1-.42-1c.43-1,.92-2.2,1.44-3.51a.79.79,0,1,1,1.46.59c-.52,1.31-1,2.5-1.44,3.53A.79.79,0,0,1,67.6,108.77Zm-27-6.7a.78.78,0,0,1-.69-.41c-.58-1.06-1.17-2.18-1.79-3.37a.79.79,0,1,1,1.39-.73c.62,1.18,1.22,2.29,1.78,3.34a.78.78,0,0,1-.31,1.07A.75.75,0,0,1,40.55,102.07Zm30.11-.95a.71.71,0,0,1-.28-.06.78.78,0,0,1-.45-1c.43-1.12.89-2.3,1.35-3.54a.79.79,0,1,1,1.48.56c-.47,1.24-.93,2.43-1.36,3.55A.78.78,0,0,1,70.66,101.12ZM36.72,94.78a.8.8,0,0,1-.7-.43c-.56-1.09-1.13-2.23-1.72-3.39a.79.79,0,0,1,.35-1.06.8.8,0,0,1,1.06.35c.58,1.16,1.16,2.29,1.72,3.38a.79.79,0,0,1-.35,1.06A.74.74,0,0,1,36.72,94.78Zm36.87-1.36a.66.66,0,0,1-.28,0,.77.77,0,0,1-.46-1l1.32-3.56a.79.79,0,0,1,1.48.55c-.45,1.22-.89,2.4-1.33,3.56A.78.78,0,0,1,73.59,93.42ZM33,87.43a.77.77,0,0,1-.7-.44c-.56-1.11-1.12-2.25-1.68-3.4A.79.79,0,0,1,31,82.53a.78.78,0,0,1,1,.36l1.68,3.4a.8.8,0,0,1-.36,1.06A.72.72,0,0,1,33,87.43Zm43.42-1.72a.86.86,0,0,1-.27,0,.79.79,0,0,1-.47-1c.42-1.17.86-2.36,1.3-3.57a.79.79,0,1,1,1.48.54c-.44,1.21-.87,2.4-1.3,3.57A.79.79,0,0,1,76.44,85.71Zm-47-5.66a.78.78,0,0,1-.71-.45q-.82-1.69-1.65-3.42a.79.79,0,0,1,1.42-.68c.55,1.15,1.1,2.29,1.65,3.41A.8.8,0,0,1,29.75,80,.84.84,0,0,1,29.41,80.05ZM79.24,78a.75.75,0,0,1-.26,0,.78.78,0,0,1-.48-1l1.28-3.57a.79.79,0,0,1,1-.48.8.8,0,0,1,.48,1q-.64,1.8-1.29,3.57A.77.77,0,0,1,79.24,78ZM53.43,77.1l-.16,0a5.74,5.74,0,0,1-3.39-2.62.8.8,0,0,1,.21-1.1.78.78,0,0,1,1.09.2,4.25,4.25,0,0,0,2.4,2,.79.79,0,0,1-.15,1.57Zm3.8-1.81A.78.78,0,0,1,56.64,74a12,12,0,0,0,1.86-3A.79.79,0,0,1,60,71.6,14.18,14.18,0,0,1,57.83,75,.8.8,0,0,1,57.23,75.29ZM25.86,72.63a.81.81,0,0,1-.72-.45l-1.62-3.44A.79.79,0,1,1,25,68.07l1.62,3.43a.78.78,0,0,1-.38,1A.76.76,0,0,1,25.86,72.63Zm22.7-1.77a.79.79,0,0,1-.73-.5c-.42-1-.87-2.2-1.38-3.55a.8.8,0,0,1,.46-1,.8.8,0,0,1,1,.46c.5,1.34,1,2.49,1.36,3.52a.79.79,0,0,1-.44,1A.72.72,0,0,1,48.56,70.86ZM82,70.24a.85.85,0,0,1-.26,0,.78.78,0,0,1-.48-1c.42-1.2.85-2.39,1.27-3.59a.78.78,0,0,1,1-.48.79.79,0,0,1,.48,1l-1.26,3.58A.79.79,0,0,1,82,70.24ZM60.34,67.8l-.17,0a.79.79,0,0,1-.6-.94l.84-3.71a.79.79,0,0,1,1.54.35l-.84,3.71A.79.79,0,0,1,60.34,67.8Zm-38-2.62a.79.79,0,0,1-.72-.46l-1.59-3.44a.79.79,0,0,1,1.44-.66l1.58,3.44a.8.8,0,0,1-.38,1A.78.78,0,0,1,22.37,65.18Zm23.3-2a.8.8,0,0,1-.75-.52l-1.27-3.58a.79.79,0,0,1,1.49-.52c.43,1.23.86,2.42,1.27,3.57a.79.79,0,0,1-.48,1A.75.75,0,0,1,45.67,63.16Zm39.07-.68a.75.75,0,0,1-.26,0,.79.79,0,0,1-.49-1c.42-1.2.84-2.4,1.25-3.59a.79.79,0,0,1,1.49.52c-.41,1.19-.83,2.39-1.25,3.59A.79.79,0,0,1,84.74,62.48Zm-22.57-2.7-.18,0a.78.78,0,0,1-.59-.95c.27-1.19.56-2.42.85-3.7a.8.8,0,0,1,1-.59.79.79,0,0,1,.59.95c-.3,1.28-.58,2.51-.85,3.7A.8.8,0,0,1,62.17,59.78ZM18.94,57.71a.79.79,0,0,1-.72-.46c-.53-1.16-1-2.32-1.56-3.46a.79.79,0,1,1,1.44-.65c.51,1.14,1,2.3,1.56,3.46a.78.78,0,0,1-.72,1.11Zm24-2.29a.79.79,0,0,1-.74-.53c-.41-1.17-.83-2.37-1.26-3.57a.79.79,0,0,1,.48-1,.78.78,0,0,1,1,.48l1.27,3.58a.78.78,0,0,1-.48,1A.86.86,0,0,1,42.92,55.42Zm44.51-.71a.85.85,0,0,1-.26-.05.78.78,0,0,1-.48-1c.41-1.21.82-2.41,1.23-3.59a.79.79,0,1,1,1.49.51c-.4,1.18-.82,2.38-1.23,3.59A.79.79,0,0,1,87.43,54.71ZM64,51.77a.55.55,0,0,1-.18,0,.79.79,0,0,1-.59-1l.89-3.69a.79.79,0,0,1,1.54.37c-.31,1.25-.6,2.48-.89,3.69A.79.79,0,0,1,64,51.77ZM15.58,50.21a.8.8,0,0,1-.72-.47l-1.53-3.48a.79.79,0,1,1,1.45-.63c.49,1.13,1,2.29,1.52,3.47a.78.78,0,0,1-.4,1A.74.74,0,0,1,15.58,50.21Zm24.6-2.54a.8.8,0,0,1-.75-.52c-.42-1.18-.85-2.37-1.29-3.56a.79.79,0,0,1,1.48-.54c.44,1.19.87,2.38,1.3,3.57a.79.79,0,0,1-.48,1A.82.82,0,0,1,40.18,47.67Zm49.91-.75a.78.78,0,0,1-.75-1c.41-1.22.82-2.42,1.21-3.6a.79.79,0,1,1,1.49.5l-1.2,3.6A.8.8,0,0,1,90.09,46.92ZM66,43.79a.63.63,0,0,1-.19,0,.79.79,0,0,1-.58-1c.32-1.22.63-2.45,1-3.68a.79.79,0,0,1,1.53.4c-.32,1.23-.64,2.45-.95,3.67A.79.79,0,0,1,66,43.79ZM12.3,42.66a.77.77,0,0,1-.72-.48c-.52-1.2-1-2.37-1.48-3.5a.79.79,0,0,1,.42-1,.81.81,0,0,1,1,.43c.47,1.13,1,2.29,1.47,3.49a.8.8,0,0,1-.42,1A.85.85,0,0,1,12.3,42.66Zm25-2.7a.78.78,0,0,1-.74-.51c-.45-1.18-.9-2.36-1.36-3.53a.79.79,0,0,1,1.47-.58c.46,1.18.92,2.36,1.37,3.55a.79.79,0,0,1-.46,1A.69.69,0,0,1,37.34,40Zm55.35-.84a1,1,0,0,1-.24,0,.8.8,0,0,1-.51-1l1.18-3.61a.79.79,0,0,1,1.5.49c-.37,1.16-.77,2.36-1.18,3.61A.79.79,0,0,1,92.69,39.12Zm-24.6-3.28-.21,0a.8.8,0,0,1-.56-1c.34-1.23.68-2.45,1-3.66a.79.79,0,1,1,1.51.43c-.34,1.2-.68,2.42-1,3.65A.8.8,0,0,1,68.09,35.84ZM9.15,35.06a.79.79,0,0,1-.73-.5c-.5-1.25-1-2.44-1.39-3.55a.79.79,0,1,1,1.47-.56c.42,1.1.88,2.28,1.38,3.53a.78.78,0,0,1-.44,1A.72.72,0,0,1,9.15,35.06Zm25.18-2.74a.79.79,0,0,1-.73-.49c-.49-1.18-1-2.34-1.48-3.48a.79.79,0,0,1,1.45-.63c.5,1.14,1,2.31,1.49,3.51a.79.79,0,0,1-.73,1.09Zm60.88-1a.66.66,0,0,1-.23,0,.79.79,0,0,1-.52-1c.41-1.31.78-2.52,1.11-3.62a.79.79,0,0,1,1.52.45c-.33,1.11-.71,2.33-1.12,3.65A.8.8,0,0,1,95.21,31.28ZM70.35,27.93l-.23,0a.79.79,0,0,1-.52-1c.37-1.24.75-2.46,1.14-3.64a.79.79,0,0,1,1-.51.8.8,0,0,1,.51,1c-.38,1.18-.76,2.38-1.13,3.61A.8.8,0,0,1,70.35,27.93ZM6.26,27.35a.79.79,0,0,1-.75-.54,33.28,33.28,0,0,1-1.08-3.74A.79.79,0,0,1,6,22.75a36.17,36.17,0,0,0,1,3.56.79.79,0,0,1-.49,1A.77.77,0,0,1,6.26,27.35ZM31,24.79a.79.79,0,0,1-.72-.45C29.74,23.15,29.18,22,28.63,21A.78.78,0,0,1,29,19.91a.8.8,0,0,1,1.07.33c.55,1.07,1.12,2.22,1.69,3.43a.79.79,0,0,1-.37,1A.83.83,0,0,1,31,24.79Zm66.51-1.42-.19,0a.79.79,0,0,1-.57-1,19.45,19.45,0,0,0,.42-1.93,9.74,9.74,0,0,0,.08-1.22v-.37a.79.79,0,0,1,1.57-.07c0,.15,0,.29,0,.44a9.9,9.9,0,0,1-.1,1.45c-.07.48-.22,1.17-.45,2.09A.79.79,0,0,1,97.53,23.37ZM72.91,20.12a.86.86,0,0,1-.27-.05.79.79,0,0,1-.48-1c.45-1.27.9-2.47,1.34-3.58a.79.79,0,0,1,1.47.59c-.43,1.08-.88,2.27-1.32,3.52A.79.79,0,0,1,72.91,20.12ZM5.54,19.35a.8.8,0,0,1-.26-.05.79.79,0,0,1-.49-1,12.86,12.86,0,0,1,1.9-3.54A.79.79,0,0,1,8,15.7a11.24,11.24,0,0,0-1.67,3.11A.8.8,0,0,1,5.54,19.35Zm21.64-1.82a.78.78,0,0,1-.68-.38C25.81,16,25.12,15,24.45,14.06a.79.79,0,1,1,1.27-.94c.69.94,1.41,2,2.13,3.22a.78.78,0,0,1-.26,1.08A.77.77,0,0,1,27.18,17.53ZM97,15.35a.79.79,0,0,1-.73-.48,15.1,15.1,0,0,0-1.8-3.11.78.78,0,0,1,.16-1.1.8.8,0,0,1,1.11.16,17,17,0,0,1,2,3.43.78.78,0,0,1-.41,1A.85.85,0,0,1,97,15.35ZM10.42,12.89a.79.79,0,0,1-.48-1.42A18.71,18.71,0,0,1,13.3,9.39a.8.8,0,0,1,1,.38A.78.78,0,0,1,14,10.82a17.33,17.33,0,0,0-3.07,1.9A.78.78,0,0,1,10.42,12.89ZM76,12.5a.78.78,0,0,1-.71-1.13A30,30,0,0,1,77.17,8a.79.79,0,1,1,1.32.86,28.56,28.56,0,0,0-1.78,3.23A.78.78,0,0,1,76,12.5ZM22.14,11.09a.75.75,0,0,1-.51-.19c-.21-.18-.42-.35-.63-.5a4.51,4.51,0,0,0-3.08-.71.79.79,0,0,1-.11-1.57,6,6,0,0,1,4.13,1c.24.18.48.37.72.58a.79.79,0,0,1,.08,1.11A.8.8,0,0,1,22.14,11.09Zm70-2.19a.81.81,0,0,1-.5-.18,15.39,15.39,0,0,0-3-1.93.79.79,0,0,1-.38-1,.8.8,0,0,1,1.06-.38A17,17,0,0,1,92.59,7.5a.79.79,0,0,1,.12,1.11A.81.81,0,0,1,92.09,8.9ZM81,6.19a.78.78,0,0,1-.74-.51.8.8,0,0,1,.47-1,9.81,9.81,0,0,1,4-.54.79.79,0,1,1-.11,1.57,8.07,8.07,0,0,0-3.4.46A.84.84,0,0,1,81,6.19Z"/><path class="cls-4" d="M19.27,13c-5.15-.52-10.9,5.71-9.86,13,1.27,9,32.87,75.3,38.19,80.94s13.29,4.54,16.13,1.16S93.15,29.82,94.25,22.39c1.34-9-6.55-15-12.23-13.71-9.52,2.19-15.22,51.43-19.89,65-3.06,8.93-10.31,9.45-14.52.63C41.35,61.24,30.7,14.2,19.27,13Z"/><path class="cls-5" d="M12.55,21.38c8.51-11.17,19.22,4.81,21.12,22.71,1.7,15.93-14.14-.59-18.3-9.16S10.8,23.67,12.55,21.38Z"/></g></g></svg>