<svg xmlns="http://www.w3.org/2000/svg" viewBox="0 0 80.72 137.7"><defs><style>.cls-1{opacity:0.15;}.cls-2{fill:#d069ff;}.cls-3{fill:#a426de;}.cls-4{fill:#d17efc;}.cls-5{fill:#d38fff;}</style></defs><title>num-6Asset 40</title><g id="Layer_2" data-name="Layer 2"><g id="Layer_1-2" data-name="Layer 1"><path class="cls-1" d="M46.33,48.43c1.33,16.23,6.31,72.49,10.75,82.95s15.67,8.71,20.41-11.11c5-20.85.71-94.86-8.91-101.74-9-6.46-19.16,4.4-33.29,1.93C18.6,17.53,13.17,5.3,7.44,6.94.82,8.83-1.79,31.2,5.55,39.45,23.26,59.33,46,44.72,46.33,48.43Z"/><path class="cls-2" d="M46.33,42.74c1.33,16.23,6.31,72.5,10.75,83s15.67,8.7,20.41-11.11c5-20.85.71-94.86-8.91-101.75-9-6.46-19.16,4.41-33.29,1.93C18.6,11.85,13.17-.38,7.44,1.25.82,3.15-1.79,25.51,5.55,33.76,23.26,53.64,46,39,46.33,42.74Z"/><path class="cls-3" d="M64.62,133.12c-3.55,0-6.67-2.55-8.56-7-4.68-11-9.74-70.12-10.8-82.92h0a23.65,23.65,0,0,0-3.76.68A55.76,55.76,0,0,1,29,45.58h0c-9.54,0-17.7-3.73-24.25-11.08C-.46,28.67-1,16.53,1.38,8.17,2.67,3.72,4.71.88,7.14.19A5.33,5.33,0,0,1,8.51,0c2.53,0,4.9,1.87,7.91,4.24,4.19,3.31,9.93,7.84,19.06,9.45a24.94,24.94,0,0,0,4.16.35c4.57,0,8.66-1.22,12.61-2.4,3.41-1,6.62-2,9.73-2A12,12,0,0,1,69.22,12c10.36,7.4,14.36,81.9,9.34,102.89C75.82,126.29,70.61,133.12,64.62,133.12ZM45.25,41c1.9,0,2.15,1.27,2.18,1.65.6,7.29,6,71.57,10.66,82.62,1.53,3.58,3.9,5.64,6.53,5.64,3.78,0,8.87-4.36,11.79-16.58C81.5,93.06,76.68,20,67.94,13.74a9.76,9.76,0,0,0-6-1.87c-2.78,0-5.85.91-9.1,1.88-3.91,1.18-8.35,2.5-13.24,2.5a26.33,26.33,0,0,1-4.54-.39c-9.68-1.7-15.68-6.43-20-9.88-2.67-2.11-4.78-3.77-6.54-3.77a2.45,2.45,0,0,0-.76.11C6.13,2.78,4.54,5.2,3.5,8.78,1.29,16.41,1.76,27.84,6.38,33,12.58,40,20,43.37,29,43.37h0a53.22,53.22,0,0,0,12-1.64A22.88,22.88,0,0,1,45.25,41Z"/><path class="cls-3" d="M65.18,128h0a4.31,4.31,0,0,1-3.3-1.79.78.78,0,1,1,1.2-1,2.9,2.9,0,0,0,2.11,1.23,3.05,3.05,0,0,0,.41,0,.79.79,0,0,1,.32,1.55A3.61,3.61,0,0,1,65.18,128Zm4-2.73a.79.79,0,0,1-.64-1.26,20.67,20.67,0,0,0,1.87-3.13.78.78,0,0,1,1.06-.35.79.79,0,0,1,.35,1.06,22.91,22.91,0,0,1-2,3.36A.77.77,0,0,1,69.15,125.3Zm-8.76-2.65a.79.79,0,0,1-.74-.52c-.09-.25-.19-.52-.28-.79a27.05,27.05,0,0,1-.76-3,.79.79,0,1,1,1.54-.33,26.09,26.09,0,0,0,.72,2.8c.08.25.17.5.26.75a.79.79,0,0,1-.46,1A.92.92,0,0,1,60.39,122.65ZM72.82,118a.86.86,0,0,1-.27,0,.79.79,0,0,1-.46-1c.41-1.1.81-2.29,1.2-3.54a.79.79,0,0,1,1.51.47c-.4,1.28-.82,2.5-1.24,3.62A.79.79,0,0,1,72.82,118ZM58.6,114.64a.79.79,0,0,1-.78-.67c-.19-1.17-.38-2.43-.57-3.77a.79.79,0,0,1,1.57-.22c.18,1.33.37,2.59.56,3.74a.81.81,0,0,1-.66.91Zm16.62-4.49h-.16a.79.79,0,0,1-.61-.94c.22-1.08.42-2.31.59-3.67a.79.79,0,0,1,1.57.19c-.17,1.41-.38,2.68-.62,3.81A.78.78,0,0,1,75.22,110.15Zm-17.77-3.66a.79.79,0,0,1-.78-.69c-.16-1.21-.32-2.47-.47-3.77a.78.78,0,0,1,.68-.88.79.79,0,0,1,.88.69c.16,1.29.32,2.55.47,3.76a.78.78,0,0,1-.68.88ZM76.24,102h0a.79.79,0,0,1-.73-.85c.08-1.18.14-2.44.19-3.75a.79.79,0,0,1,.82-.76.78.78,0,0,1,.76.82c0,1.32-.12,2.6-.2,3.8A.8.8,0,0,1,76.24,102ZM56.46,98.33a.8.8,0,0,1-.79-.7c-.14-1.24-.28-2.49-.43-3.77a.79.79,0,0,1,.7-.88.8.8,0,0,1,.87.7c.14,1.27.29,2.53.43,3.77a.79.79,0,0,1-.69.87Zm20.09-4.51h0a.81.81,0,0,1-.78-.8c0-.75,0-1.52,0-2.3V89.25a.79.79,0,0,1,.78-.8h0a.8.8,0,0,1,.79.78v1.49c0,.79,0,1.56,0,2.32A.8.8,0,0,1,76.55,93.82Zm-21-3.66a.8.8,0,0,1-.79-.7l-.42-3.77a.79.79,0,1,1,1.57-.18l.42,3.77a.79.79,0,0,1-.69.87Zm21-4.55a.79.79,0,0,1-.79-.77c0-1.25-.07-2.51-.12-3.79a.79.79,0,0,1,.76-.81.78.78,0,0,1,.82.76c0,1.28.09,2.55.12,3.8a.81.81,0,0,1-.77.81ZM54.62,82a.79.79,0,0,1-.79-.7l-.42-3.77A.79.79,0,0,1,55,77.34l.42,3.78a.79.79,0,0,1-.69.87ZM76.18,77.4a.79.79,0,0,1-.79-.75q-.09-1.87-.21-3.78a.79.79,0,1,1,1.57-.1c.08,1.28.15,2.54.22,3.8a.79.79,0,0,1-.75.82ZM53.69,73.82a.78.78,0,0,1-.78-.7c-.15-1.26-.29-2.52-.44-3.76a.79.79,0,0,1,.69-.88.8.8,0,0,1,.88.69c.14,1.25.29,2.51.44,3.77a.79.79,0,0,1-.7.88Zm22-4.62a.8.8,0,0,1-.79-.74c-.09-1.25-.18-2.51-.29-3.77a.79.79,0,0,1,1.58-.13c.1,1.26.2,2.53.29,3.79a.79.79,0,0,1-.73.84Zm-23-3.54a.79.79,0,0,1-.78-.69c-.16-1.28-.32-2.53-.48-3.76a.8.8,0,0,1,.69-.89A.79.79,0,0,1,53,61c.16,1.24.32,2.5.48,3.77a.79.79,0,0,1-.69.88ZM75,61a.79.79,0,0,1-.78-.72c-.12-1.26-.24-2.52-.37-3.76a.79.79,0,0,1,.71-.87.78.78,0,0,1,.86.7c.13,1.26.25,2.52.37,3.79a.78.78,0,0,1-.71.85ZM51.66,57.5a.78.78,0,0,1-.78-.68c-.18-1.29-.36-2.54-.54-3.74a.79.79,0,1,1,1.56-.24c.18,1.21.36,2.47.54,3.77a.79.79,0,0,1-.67.89Zm22.49-4.66a.78.78,0,0,1-.78-.7c-.15-1.27-.3-2.53-.45-3.76a.79.79,0,0,1,1.57-.2c.15,1.25.3,2.5.45,3.78a.8.8,0,0,1-.7.87ZM50.43,49.37a.78.78,0,0,1-.78-.65c-.23-1.36-.46-2.6-.68-3.72a.79.79,0,0,1,1.55-.3c.22,1.12.45,2.39.69,3.75a.79.79,0,0,1-.65.91Zm22.7-4.69a.78.78,0,0,1-.78-.68c-.17-1.27-.35-2.52-.54-3.74a.8.8,0,0,1,.67-.9.78.78,0,0,1,.89.66c.19,1.23.37,2.49.54,3.77a.79.79,0,0,1-.67.89ZM48.75,41.32a.8.8,0,0,1-.76-.58c-.1-.38-.21-.75-.31-1.09-.35-1.09-.74-1.39-1.08-1.53a.79.79,0,0,1-.42-1,.78.78,0,0,1,1-.42,3.66,3.66,0,0,1,2,2.51c.11.36.23.74.34,1.15a.8.8,0,0,1-.56,1Zm-17.86-.26a.78.78,0,0,1-.79-.75.8.8,0,0,1,.75-.83,19.29,19.29,0,0,0,3.6-.5.79.79,0,0,1,.37,1.54,21.59,21.59,0,0,1-3.89.54Zm-4.41-.14h-.09a32.15,32.15,0,0,1-3.82-.66.79.79,0,0,1,.36-1.54,29,29,0,0,0,3.63.63.79.79,0,0,1-.08,1.57Zm12.41-1.56a.79.79,0,0,1-.21-1.55c1.19-.33,2.55-.7,3.7-1a.79.79,0,0,1,.35,1.54c-1.11.26-2.46.62-3.63.95A.76.76,0,0,1,38.89,39.36ZM18.52,39a.69.69,0,0,1-.28,0,30.79,30.79,0,0,1-3.54-1.61.79.79,0,0,1,.75-1.39,30,30,0,0,0,3.35,1.53A.78.78,0,0,1,18.52,39ZM71.9,36.56a.79.79,0,0,1-.78-.66c-.21-1.28-.43-2.53-.66-3.72A.79.79,0,1,1,72,31.89c.23,1.2.45,2.45.67,3.75a.8.8,0,0,1-.65.91ZM11.38,35a.75.75,0,0,1-.49-.17,18.5,18.5,0,0,1-2.82-2.76.79.79,0,0,1,1.22-1,17.22,17.22,0,0,0,2.58,2.53A.78.78,0,0,1,12,34.7.79.79,0,0,1,11.38,35ZM6.5,28.54a.8.8,0,0,1-.74-.5,27.64,27.64,0,0,1-1.15-3.73.8.8,0,0,1,.6-.95.79.79,0,0,1,.94.59,24.48,24.48,0,0,0,1.08,3.51.8.8,0,0,1-.73,1.08Zm63.86-.05a.79.79,0,0,1-.77-.62c-.29-1.32-.59-2.55-.88-3.66a.79.79,0,0,1,1.53-.4c.3,1.12.59,2.38.89,3.72a.79.79,0,0,1-.6.94Zm-2.19-7.92a.78.78,0,0,1-.74-.51,6.92,6.92,0,0,0-1.61-2.9A11.73,11.73,0,0,0,64,16a.79.79,0,0,1,.76-1.39,14.81,14.81,0,0,1,2,1.35,8.41,8.41,0,0,1,2.11,3.59.79.79,0,0,1-.46,1A.72.72,0,0,1,68.17,20.57Zm-63.46,0a.79.79,0,0,1-.79-.73c-.07-.87-.11-1.75-.11-2.6,0-.43,0-.86,0-1.28a.79.79,0,0,1,.82-.75.78.78,0,0,1,.76.82c0,.4,0,.8,0,1.21,0,.81,0,1.64.1,2.47a.79.79,0,0,1-.72.86ZM40.6,19.27a.79.79,0,0,1,0-1.58,25,25,0,0,0,3.65-.3.79.79,0,1,1,.25,1.55,25.51,25.51,0,0,1-3.88.33Zm-4.4-.33h-.13c-.49-.08-1-.17-1.51-.28-.76-.16-1.52-.33-2.26-.53a.78.78,0,1,1,.39-1.52c.72.18,1.46.35,2.2.51.48.1,1,.19,1.43.26a.79.79,0,0,1-.12,1.57Zm12.46-1a.77.77,0,0,1-.75-.55.79.79,0,0,1,.52-1c1.2-.36,2.32-.76,3.55-1.2a.79.79,0,0,1,.54,1.48c-1.26.45-2.4.86-3.63,1.23A.85.85,0,0,1,48.66,17.94ZM28.28,16.85A.86.86,0,0,1,28,16.8c-1.22-.44-2.41-.94-3.56-1.48a.78.78,0,0,1-.38-1.05.79.79,0,0,1,1.05-.38c1.1.52,2.26,1,3.43,1.43a.78.78,0,0,1,.47,1A.79.79,0,0,1,28.28,16.85Zm28.16-1.5a.78.78,0,0,1-.76-.59.79.79,0,0,1,.57-1,13.88,13.88,0,0,1,3.57-.51,2.47,2.47,0,0,1,.39,0,.79.79,0,1,1-.05,1.57c-.11,0-.24,0-.33,0a12.26,12.26,0,0,0-3.19.46Zm-35.55-2a.77.77,0,0,1-.41-.11c-1.28-.76-2.39-1.51-3.22-2.08a.79.79,0,0,1,.9-1.3c.8.55,1.89,1.28,3.14,2a.79.79,0,0,1,.27,1.08A.78.78,0,0,1,20.89,13.31ZM5.23,12.4l-.19,0a.79.79,0,0,1-.57-1A10.65,10.65,0,0,1,6.11,7.69a.78.78,0,0,1,1.1-.16.8.8,0,0,1,.17,1.11A9,9,0,0,0,6,11.81.78.78,0,0,1,5.23,12.4Zm8.82-3.61a.78.78,0,0,1-.41-.12,8.4,8.4,0,0,0-3.16-1.33.79.79,0,1,1,.22-1.56,9.67,9.67,0,0,1,3.77,1.55.78.78,0,0,1,.25,1.08A.79.79,0,0,1,14.05,8.79Z"/><path class="cls-4" d="M65.32,19.4c6.21,4.91,9.86,70.14,6.76,87.37-2.81,15.64-7.24,17.9-10.37,8.21-3-9.38-4.78-63.66-10.53-76.4-1.94-4.29-3.83-5.76-12.46-2.4S15.6,37.24,10.11,27.55s-3.34-16.47.78-17.7c4.34-1.3,7.84,8.66,23,10.34C52.09,22.21,58.47,14,65.32,19.4Z"/><path class="cls-5" d="M61.54,22.46c-1.74.59-15.31,12.23-1.89,32.46,8.85,13.35,9.14-10.43,7.51-19.81S64.26,21.55,61.54,22.46Z"/></g></g></svg>