<svg xmlns="http://www.w3.org/2000/svg" viewBox="0 0 103.11 124.3"><defs><style>.cls-1{opacity:0.15;}.cls-2{fill:#ff2114;}.cls-3{fill:#96130b;}.cls-4{fill:#fc3a35;}.cls-5{fill:#fc5151;}</style></defs><title>num-8Asset 42</title><g id="Layer_2" data-name="Layer 2"><g id="Layer_1-2" data-name="Layer 1"><path class="cls-1" d="M79.9,119.62c4.87,3.87,22.38-4.93,22.1-14S66.09,18.48,59.88,11.42s-20.12-5-23.55-.87S2.6,97,1.2,106.16s13.57,20.9,22,17.55S43.08,74,46.63,59.33c.38-1.53,2.33-10.09,7,2.08C60,78,69.09,111,79.9,119.62Z"/><path class="cls-2" d="M79.9,113.94c4.87,3.87,22.38-4.93,22.1-14S66.09,12.79,59.88,5.74s-20.12-5-23.55-.88S2.6,91.34,1.2,100.48s13.57,20.9,22,17.55,19.85-49.69,23.4-64.38c.38-1.54,2.33-10.1,7,2.07C60,72.35,69.09,105.33,79.9,113.94Z"/><path class="cls-3" d="M20,119.72c-5.12,0-11.46-3.37-15.76-8.38-3.17-3.7-4.63-7.61-4.11-11C1.52,91.07,31.94,8.4,35.48,4.15,37.52,1.71,42.59,0,47.8,0,51,0,56.87.65,60.71,5c6,6.81,42.09,84.87,42.4,94.85.08,2.8-1.29,5.75-4,8.51-4.21,4.34-11,7.61-15.9,7.61h0a6.31,6.31,0,0,1-4-1.18C70.53,107.88,63.1,86.32,57.14,69c-1.63-4.75-3.18-9.23-4.57-12.87-2.12-5.57-3.32-5.72-3.33-5.72s-.73.17-1.52,3.44v.07c-10,41.4-17.9,62.71-24.07,65.15A10.11,10.11,0,0,1,20,119.72ZM47.8,2.21c-5.13,0-9.23,1.69-10.62,3.36C33.92,9.47,3.6,92.1,2.29,100.65c-.43,2.76.85,6,3.6,9.25,3.84,4.48,9.63,7.61,14.08,7.61a7.67,7.67,0,0,0,2.86-.51c3-1.2,10-11,22.73-63.61l0-.07c.34-1.4,1.23-5.13,3.66-5.13,1.85,0,3.51,2.2,5.4,7.14,1.4,3.67,3,8.17,4.59,12.94,5.87,17.06,13.18,38.29,21.36,44.8a4.26,4.26,0,0,0,2.65.7h0c4.26,0,10.54-3,14.31-6.93,1.57-1.63,3.43-4.14,3.35-6.91-.29-9.29-36.24-87.08-41.85-93.46C55.79,2.76,50.6,2.21,47.8,2.21Z"/><path class="cls-3" d="M19.05,115.62c-.3,0-.61,0-.91-.05a.78.78,0,0,1-.72-.85.79.79,0,0,1,.86-.72,8.09,8.09,0,0,0,3.4-.4.78.78,0,0,1,1,.48.79.79,0,0,1-.48,1A9.47,9.47,0,0,1,19.05,115.62ZM14,114.34a.85.85,0,0,1-.35-.08,16.79,16.79,0,0,1-3.31-2.19.79.79,0,0,1,1-1.21,15.1,15.1,0,0,0,3,2,.79.79,0,0,1-.35,1.5Zm70.61-1.73A5.83,5.83,0,0,1,81,111.52c-.23-.18-.47-.38-.71-.59a.79.79,0,0,1-.06-1.11.78.78,0,0,1,1.11-.07c.21.19.42.36.62.52A4.58,4.58,0,0,0,85,111a.79.79,0,0,1,.09,1.58Zm-59.5-.42a.74.74,0,0,1-.44-.14.78.78,0,0,1-.21-1.09,30,30,0,0,0,1.83-3.2.78.78,0,0,1,1.06-.35.77.77,0,0,1,.35,1,29.83,29.83,0,0,1-1.93,3.38A.8.8,0,0,1,25.1,112.19Zm64.21-.73A.79.79,0,0,1,89,110a16.38,16.38,0,0,0,3.1-1.85.79.79,0,1,1,1,1.26,18.11,18.11,0,0,1-3.39,2A1,1,0,0,1,89.31,111.46ZM7.84,109a.79.79,0,0,1-.64-.33,17,17,0,0,1-1.94-3.46.79.79,0,1,1,1.46-.6,15.09,15.09,0,0,0,1.76,3.14A.79.79,0,0,1,7.84,109Zm70.08-1.23a.76.76,0,0,1-.64-.33c-.69-1-1.39-2-2.09-3.25a.79.79,0,0,1,1.36-.8c.68,1.17,1.36,2.22,2,3.13a.79.79,0,0,1-.64,1.25Zm17.78-1.37a.78.78,0,0,1-.62-1.27,11.38,11.38,0,0,0,1.71-3.08.79.79,0,1,1,1.49.53,13.18,13.18,0,0,1-2,3.51A.81.81,0,0,1,95.7,106.43Zm-66.89-1.56a.8.8,0,0,1-.3-.06.78.78,0,0,1-.43-1c.44-1.08.91-2.26,1.38-3.51a.78.78,0,1,1,1.47.55c-.47,1.27-.94,2.47-1.39,3.56A.8.8,0,0,1,28.81,104.87ZM5,101.44a.79.79,0,0,1-.79-.77v-.27a10.71,10.71,0,0,1,.12-1.61c.08-.48.24-1.17.49-2.08a.8.8,0,0,1,1-.56.79.79,0,0,1,.55,1C6.15,98,6,98.62,5.93,99a8.71,8.71,0,0,0-.1,1.36v.23a.79.79,0,0,1-.77.81Zm68.73-.72a.79.79,0,0,1-.7-.44c-.54-1.07-1.09-2.23-1.64-3.45a.79.79,0,1,1,1.43-.65c.55,1.2,1.09,2.34,1.62,3.4a.78.78,0,0,1-.35,1A.8.8,0,0,1,73.77,100.72Zm24.17-1.93a.79.79,0,0,1-.77-.64,31.23,31.23,0,0,0-1-3.58.79.79,0,0,1,.51-1,.78.78,0,0,1,1,.51,34.55,34.55,0,0,1,1,3.76.79.79,0,0,1-.63.92ZM31.68,97.16a.78.78,0,0,1-.75-1c.4-1.17.79-2.37,1.18-3.59a.79.79,0,0,1,1.51.48c-.4,1.23-.8,2.44-1.2,3.62A.77.77,0,0,1,31.68,97.16ZM6.89,93.45a.67.67,0,0,1-.24,0,.79.79,0,0,1-.51-1c.34-1.1.74-2.31,1.17-3.63a.79.79,0,1,1,1.5.5C8.38,90.59,8,91.8,7.64,92.9A.78.78,0,0,1,6.89,93.45Zm63.49-.21a.79.79,0,0,1-.73-.49c-.48-1.15-1-2.33-1.43-3.53a.79.79,0,0,1,1.47-.58c.47,1.19.94,2.36,1.42,3.5a.79.79,0,0,1-.73,1.1ZM95.5,90.93a.78.78,0,0,1-.74-.52c-.41-1.11-.85-2.3-1.33-3.55a.79.79,0,0,1,1.47-.57c.49,1.27.93,2.46,1.34,3.58a.79.79,0,0,1-.47,1A.86.86,0,0,1,95.5,90.93Zm-61.32-1.6a.91.91,0,0,1-.23,0,.8.8,0,0,1-.53-1q.54-1.8,1.08-3.63a.79.79,0,1,1,1.51.44c-.35,1.23-.71,2.44-1.08,3.65A.78.78,0,0,1,34.18,89.33ZM9.47,85.63a1.09,1.09,0,0,1-.25,0,.8.8,0,0,1-.5-1c.39-1.15.81-2.35,1.24-3.59a.78.78,0,0,1,1-.49.79.79,0,0,1,.49,1c-.43,1.24-.84,2.44-1.23,3.59A.79.79,0,0,1,9.47,85.63Zm57.89,0a.77.77,0,0,1-.73-.51c-.45-1.18-.88-2.37-1.32-3.57a.8.8,0,0,1,.48-1,.79.79,0,0,1,1,.48c.43,1.19.87,2.37,1.3,3.55a.77.77,0,0,1-.46,1A.66.66,0,0,1,67.36,85.59Zm25.19-2.35a.79.79,0,0,1-.73-.5c-.45-1.13-.93-2.31-1.42-3.52a.79.79,0,0,1,1.46-.59c.5,1.21,1,2.39,1.43,3.53a.79.79,0,0,1-.45,1A.72.72,0,0,1,92.55,83.24ZM36.46,81.43a.76.76,0,0,1-.21,0,.78.78,0,0,1-.55-1c.34-1.22.67-2.44,1-3.65a.79.79,0,1,1,1.52.41c-.33,1.22-.66,2.44-1,3.66A.8.8,0,0,1,36.46,81.43Zm28.12-3.57a.79.79,0,0,1-.75-.52l-1.24-3.59a.8.8,0,0,1,.49-1,.79.79,0,0,1,1,.49c.41,1.19.82,2.39,1.24,3.59a.78.78,0,0,1-.48,1A.82.82,0,0,1,64.58,77.86Zm-52.42,0a.78.78,0,0,1-.74-1c.41-1.17.83-2.37,1.26-3.58a.79.79,0,0,1,1.49.52c-.43,1.22-.86,2.41-1.26,3.58A.79.79,0,0,1,12.16,77.85Zm77.28-2.23a.77.77,0,0,1-.72-.48c-.48-1.15-1-2.31-1.48-3.5A.79.79,0,0,1,88.7,71l1.47,3.51a.79.79,0,0,1-.42,1A.85.85,0,0,1,89.44,75.62ZM38.59,73.49l-.2,0a.79.79,0,0,1-.56-1c.32-1.24.64-2.46,1-3.67a.79.79,0,0,1,1.53.39l-1,3.68A.8.8,0,0,1,38.59,73.49ZM14.91,70.1a.75.75,0,0,1-.26,0,.79.79,0,0,1-.48-1q.63-1.77,1.29-3.57a.8.8,0,0,1,1-.48.79.79,0,0,1,.47,1c-.44,1.21-.86,2.4-1.28,3.57A.79.79,0,0,1,14.91,70.1Zm47,0a.79.79,0,0,1-.75-.54L60,66a.78.78,0,0,1,.5-1,.79.79,0,0,1,1,.49l1.2,3.6a.79.79,0,0,1-.49,1A.77.77,0,0,1,61.92,70.09Zm24.31-2a.78.78,0,0,1-.72-.48L84,64.09a.79.79,0,0,1,1.45-.63L87,67a.79.79,0,0,1-.42,1A.67.67,0,0,1,86.23,68.05ZM40.62,65.52a.65.65,0,0,1-.19,0,.78.78,0,0,1-.57-1c.31-1.26.62-2.49.91-3.68a.79.79,0,1,1,1.53.38c-.29,1.18-.59,2.42-.91,3.69A.79.79,0,0,1,40.62,65.52ZM17.71,62.36a.65.65,0,0,1-.27,0,.79.79,0,0,1-.47-1c.43-1.18.86-2.37,1.3-3.56a.79.79,0,0,1,1.48.54c-.44,1.19-.87,2.38-1.3,3.56A.79.79,0,0,1,17.71,62.36ZM59.3,62.3a.79.79,0,0,1-.75-.54c-.41-1.23-.82-2.43-1.21-3.59a.79.79,0,0,1,1.49-.51c.4,1.16.8,2.36,1.22,3.6a.79.79,0,0,1-.5,1A.73.73,0,0,1,59.3,62.3ZM83,60.51a.79.79,0,0,1-.72-.47l-1.54-3.46a.79.79,0,0,1,.4-1,.78.78,0,0,1,1,.4l1.54,3.46a.8.8,0,0,1-.4,1A.77.77,0,0,1,83,60.51Zm-40.36-3-.19,0a.8.8,0,0,1-.58-1l.9-3.69a.79.79,0,0,1,1-.58.8.8,0,0,1,.58,1l-.9,3.69A.78.78,0,0,1,42.59,57.54Zm-22.05-2.9a.65.65,0,0,1-.27,0,.79.79,0,0,1-.47-1L21.12,50a.8.8,0,0,1,1-.46.78.78,0,0,1,.46,1l-1.32,3.57A.79.79,0,0,1,20.54,54.64Zm36.09-.11a.79.79,0,0,1-.75-.53c-.48-1.34-.91-2.5-1.31-3.53a.8.8,0,0,1,.45-1,.78.78,0,0,1,1,.45c.41,1,.84,2.21,1.33,3.57a.79.79,0,0,1-.48,1A.85.85,0,0,1,56.63,54.53ZM79.6,53a.79.79,0,0,1-.72-.46l-1.56-3.46a.79.79,0,1,1,1.43-.65c.53,1.15,1,2.3,1.57,3.46A.78.78,0,0,1,79.6,53ZM44.67,49.58a1,1,0,0,1-.33-.06A.8.8,0,0,1,44,48.47a13.63,13.63,0,0,1,2.17-3.38.79.79,0,0,1,1.17,1,12.13,12.13,0,0,0-1.9,3A.8.8,0,0,1,44.67,49.58ZM53.39,47a.77.77,0,0,1-.65-.35,4.25,4.25,0,0,0-2.37-2,.79.79,0,0,1,.34-1.54,5.68,5.68,0,0,1,3.34,2.67.8.8,0,0,1-.22,1.1A.78.78,0,0,1,53.39,47Zm-30-.06a.92.92,0,0,1-.28,0,.79.79,0,0,1-.46-1c.45-1.19.89-2.38,1.33-3.55a.79.79,0,1,1,1.48.56c-.44,1.17-.89,2.36-1.33,3.55A.8.8,0,0,1,23.41,46.94Zm52.78-1.42a.78.78,0,0,1-.71-.46l-1.6-3.44a.79.79,0,0,1,.39-1,.8.8,0,0,1,1,.38c.52,1.14,1.06,2.29,1.59,3.45a.79.79,0,0,1-.39,1.05A.72.72,0,0,1,76.19,45.52ZM26.31,39.24a.69.69,0,0,1-.28-.05.79.79,0,0,1-.46-1c.46-1.19.91-2.38,1.36-3.54a.79.79,0,1,1,1.47.56c-.44,1.16-.9,2.35-1.35,3.55A.79.79,0,0,1,26.31,39.24Zm46.41-1.18a.77.77,0,0,1-.71-.45l-1.63-3.43a.79.79,0,0,1,.38-1,.78.78,0,0,1,1,.38c.54,1.12,1.08,2.27,1.63,3.43a.78.78,0,0,1-.72,1.12Zm-43.46-6.5a.74.74,0,0,1-.29,0,.79.79,0,0,1-.45-1L29.9,27a.79.79,0,0,1,1.47.57L30,31.06A.79.79,0,0,1,29.26,31.56Zm39.92-.92a.77.77,0,0,1-.71-.44L66.8,26.79a.79.79,0,1,1,1.42-.7l1.67,3.42a.79.79,0,0,1-.37,1A.71.71,0,0,1,69.18,30.64ZM32.26,23.9a.93.93,0,0,1-.29,0,.79.79,0,0,1-.44-1l1.41-3.53a.79.79,0,0,1,1.47.59C34,21,33.48,22.18,33,23.4A.79.79,0,0,1,32.26,23.9Zm33.27-.63a.77.77,0,0,1-.7-.44c-.6-1.18-1.18-2.31-1.73-3.37a.79.79,0,1,1,1.39-.73c.56,1.06,1.14,2.2,1.74,3.39a.79.79,0,0,1-.7,1.15Zm-30.17-7a.8.8,0,0,1-.3-.06.78.78,0,0,1-.43-1q.82-2,1.5-3.51a.79.79,0,1,1,1.45.63c-.45,1-.95,2.19-1.49,3.49A.79.79,0,0,1,35.36,16.27ZM61.7,16a.8.8,0,0,1-.69-.4c-.71-1.29-1.34-2.39-1.88-3.26a.79.79,0,1,1,1.34-.83c.55.9,1.2,2,1.92,3.32a.79.79,0,0,1-.31,1.08A.85.85,0,0,1,61.7,16ZM57,9.24a.8.8,0,0,1-.52-.19,13.91,13.91,0,0,0-3-2,.79.79,0,1,1,.71-1.41,16.21,16.21,0,0,1,3.3,2.23A.81.81,0,0,1,57.63,9,.83.83,0,0,1,57,9.24ZM38.77,8.77a.8.8,0,0,1-.68-1.19,6,6,0,0,1,.46-.68,7.84,7.84,0,0,1,2.81-2,.78.78,0,0,1,1,.4.79.79,0,0,1-.4,1,6.48,6.48,0,0,0-2.25,1.57,3.74,3.74,0,0,0-.29.44A.79.79,0,0,1,38.77,8.77Zm11-3.06h-.15A15.49,15.49,0,0,0,46,5.46a.79.79,0,0,1-.09-1.58,16.54,16.54,0,0,1,4,.27.79.79,0,0,1-.14,1.56Z"/><path class="cls-4" d="M83.73,107.65c5.13.6,11-5.54,10-12.89-1.14-9-31.71-75.79-36.95-81.52s-13.22-4.73-16.11-1.4S10.11,89.75,8.9,97.16c-1.48,9,6.32,15.11,12,13.89,9.55-2,16-51.19,20.88-64.73C45,37.44,52.25,37,56.32,45.91,62.38,59.12,72.31,106.32,83.73,107.65Z"/><path class="cls-5" d="M90.58,99.41c-8.69,11-19.15-5.1-20.78-23-1.45-15.95,14.13.81,18.16,9.44S92.35,97.15,90.58,99.41Z"/></g></g></svg>