<svg xmlns="http://www.w3.org/2000/svg" viewBox="0 0 300.87 146.12"><defs><style>.cls-1{opacity:0.15;}.cls-2{fill:#ff9f31;}.cls-3{fill:#ff7817;}.cls-4{fill:#fca95e;}.cls-5{fill:#fcb783;}.cls-6{fill:#49d800;}.cls-7{fill:#36a300;}.cls-8{fill:#89ea49;}.cls-9{fill:#acea83;}.cls-10{fill:#ff2114;}.cls-11{fill:#96130b;}.cls-12{fill:#fc3a35;}.cls-13{fill:#fc5151;}</style></defs><title>arabic-numbersAsset 73</title><g id="Layer_2" data-name="Layer 2"><g id="Layer_1-2" data-name="Layer 1"><path class="cls-1" d="M26,11.93c-6.46-6.06-26.76,7-24.66,20.54C4.15,50.3,9.06,126.79,14,138.38S31.34,148,36.59,126.06,34.15,19.57,26,11.93Z"/><path class="cls-2" d="M26,5.64C19.57-.43-.73,12.61,1.37,26.17,4.15,44,9.06,120.49,14,132.08s17.36,9.65,22.61-12.31S34.15,13.27,26,5.64Z"/><path class="cls-3" d="M22.33,140.3h0c-3.93,0-7.39-2.82-9.48-7.74-3.26-7.69-6.34-41.34-9.06-71C2.36,46,1.13,32.6.17,26.36c-.74-4.75,1-9.88,4.93-14.46,4.55-5.31,11.34-9,16.51-9a7.51,7.51,0,0,1,5.25,1.86c4.73,4.44,8.62,30,10.68,52.48,2,21.27,3.19,50.49.24,62.83C34.75,132.73,29,140.3,22.33,140.3Zm-.72-135C17.17,5.33,11,8.76,7,13.49,3.51,17.52,2,22,2.58,26c1,6.32,2.22,19.76,3.64,35.32,2.57,28.06,5.77,63,8.88,70.3,1.69,4,4.33,6.25,7.23,6.25,4.2,0,9.83-4.82,13.07-18.37C40.5,98.18,32.86,13.73,25.19,6.53A5,5,0,0,0,21.61,5.33Z"/><path class="cls-3" d="M23,134.67a4.65,4.65,0,0,1-3.44-1.73.87.87,0,1,1,1.29-1.18,2.66,2.66,0,0,0,2.83,1.06.87.87,0,1,1,.5,1.67A4,4,0,0,1,23,134.67Zm4.58-3.27a.89.89,0,0,1-.51-.17.87.87,0,0,1-.2-1.21,24,24,0,0,0,2-3.51.88.88,0,0,1,1.58.77A26.81,26.81,0,0,1,28.24,131,.87.87,0,0,1,27.53,131.4ZM17.76,129a.88.88,0,0,1-.82-.56q-.21-.55-.42-1.17a30.11,30.11,0,0,1-.78-3,.86.86,0,0,1,.66-1,.87.87,0,0,1,1,.67c.26,1.17.51,2.11.74,2.8.13.39.26.75.39,1.11a.87.87,0,0,1-.5,1.13A.84.84,0,0,1,17.76,129Zm13.77-5.72a1,1,0,0,1-.3-.05.88.88,0,0,1-.52-1.13c.45-1.21.9-2.53,1.33-3.93a.86.86,0,0,1,1.09-.57.87.87,0,0,1,.58,1.09c-.44,1.42-.9,2.78-1.36,4A.87.87,0,0,1,31.53,123.26Zm-15.85-3.14a.87.87,0,0,1-.86-.73c-.21-1.29-.43-2.68-.65-4.17A.87.87,0,0,1,15.9,115c.22,1.48.43,2.87.65,4.15a.88.88,0,0,1-.72,1Zm18.46-5.56-.17,0a.87.87,0,0,1-.69-1c.24-1.19.45-2.57.62-4.07a.88.88,0,1,1,1.74.2c-.18,1.55-.4,3-.65,4.22A.87.87,0,0,1,34.14,114.56Zm-19.78-3.45a.88.88,0,0,1-.87-.76c-.18-1.35-.36-2.74-.53-4.18a.87.87,0,1,1,1.73-.22q.27,2.16.54,4.17a.89.89,0,0,1-.76,1Zm20.82-5.58h0a.87.87,0,0,1-.82-.92c.07-1.31.13-2.71.17-4.17a.91.91,0,0,1,.9-.85.89.89,0,0,1,.85.9c0,1.47-.1,2.89-.18,4.22A.86.86,0,0,1,35.18,105.53Zm-21.95-3.47a.87.87,0,0,1-.87-.77c-.16-1.36-.32-2.76-.48-4.18a.87.87,0,1,1,1.73-.2c.16,1.42.33,2.81.49,4.18a.88.88,0,0,1-.77,1Zm22.19-5.61a.88.88,0,0,1-.88-.88c0-1.36,0-2.76,0-4.18a.88.88,0,0,1,1.75,0c0,1.44,0,2.85,0,4.22a.89.89,0,0,1-.87.88ZM12.2,93a.88.88,0,0,1-.87-.78c-.15-1.38-.31-2.77-.46-4.18a.87.87,0,1,1,1.74-.18c.15,1.4.3,2.79.46,4.17a.89.89,0,0,1-.78,1Zm23-5.67a.88.88,0,0,1-.87-.84c0-1.38-.11-2.77-.18-4.19A.87.87,0,0,1,35,81.4a.88.88,0,0,1,.92.83c.07,1.42.13,2.82.18,4.21a.86.86,0,0,1-.84.9ZM11.22,84a.88.88,0,0,1-.87-.79L9.91,79a.87.87,0,1,1,1.74-.18L12.09,83a.88.88,0,0,1-.78,1Zm23.56-5.71a.88.88,0,0,1-.88-.82c-.08-1.38-.18-2.78-.28-4.18a.87.87,0,1,1,1.74-.13c.1,1.41.2,2.81.29,4.2a.88.88,0,0,1-.82.93ZM10.27,74.89a.88.88,0,0,1-.87-.78L9,69.92a.87.87,0,0,1,1.74-.17l.43,4.18a.88.88,0,0,1-.78,1ZM34.1,69.18a.88.88,0,0,1-.87-.8c-.12-1.39-.24-2.79-.37-4.18A.87.87,0,1,1,34.6,64c.13,1.4.26,2.79.37,4.19a.87.87,0,0,1-.79,1ZM9.34,65.83a.88.88,0,0,1-.87-.78L8,60.86a.87.87,0,1,1,1.74-.18l.43,4.19a.88.88,0,0,1-.78,1Zm23.91-5.72a.86.86,0,0,1-.87-.78l-.45-4.17a.87.87,0,1,1,1.73-.2c.16,1.39.31,2.78.46,4.19a.88.88,0,0,1-.78,1ZM8.41,56.77A.88.88,0,0,1,7.54,56c-.15-1.43-.3-2.82-.44-4.18a.87.87,0,0,1,1.74-.18c.14,1.36.29,2.75.44,4.18a.88.88,0,0,1-.78,1Zm23.81-5.71a.87.87,0,0,1-.87-.76c-.17-1.41-.35-2.79-.53-4.16a.87.87,0,0,1,1.73-.23c.19,1.37.36,2.76.54,4.17a.88.88,0,0,1-.76,1ZM7.44,47.71a.87.87,0,0,1-.86-.78c-.16-1.47-.32-2.86-.47-4.18a.88.88,0,1,1,1.74-.2c.15,1.32.3,2.72.46,4.19a.86.86,0,0,1-.77,1ZM31,42a.87.87,0,0,1-.86-.75c-.2-1.41-.41-2.79-.62-4.14a.87.87,0,1,1,1.72-.27c.22,1.35.42,2.74.63,4.16a.87.87,0,0,1-.74,1ZM6.39,38.65a.86.86,0,0,1-.86-.76c-.21-1.64-.4-3-.57-4.15a.87.87,0,1,1,1.72-.26c.18,1.14.37,2.51.58,4.19a.88.88,0,0,1-.76,1Zm23.21-5.6a.87.87,0,0,1-.86-.73c-.25-1.43-.49-2.8-.74-4.12a.87.87,0,0,1,.69-1,.88.88,0,0,1,1,.69c.25,1.33.49,2.72.74,4.15a.87.87,0,0,1-.71,1ZM5.51,29.6h0a.86.86,0,0,1-.84-.9,25.08,25.08,0,0,1,.5-4.31.87.87,0,1,1,1.71.35,25.79,25.79,0,0,0-.47,4A.86.86,0,0,1,5.51,29.6Zm22.38-5.5a.87.87,0,0,1-.86-.68c-.32-1.49-.64-2.85-1-4.06a.88.88,0,0,1,.63-1.07.87.87,0,0,1,1.06.63c.32,1.24.65,2.62,1,4.13a.87.87,0,0,1-.67,1A.55.55,0,0,1,27.89,24.1ZM7.43,20.77a.83.83,0,0,1-.34-.07.87.87,0,0,1-.46-1.14,23.87,23.87,0,0,1,2-3.85.87.87,0,0,1,1.46,1,22.3,22.3,0,0,0-1.88,3.56A.88.88,0,0,1,7.43,20.77Zm18.09-5.45a.87.87,0,0,1-.82-.57,8.81,8.81,0,0,0-1.16-2.37,5.71,5.71,0,0,0-3-2A.88.88,0,0,1,21,8.71a7.4,7.4,0,0,1,3.9,2.56,9.94,9.94,0,0,1,1.46,2.87.87.87,0,0,1-.52,1.12A.8.8,0,0,1,25.52,15.32Zm-13-2a.87.87,0,0,1-.59-1.52,14,14,0,0,1,3.7-2.48.88.88,0,0,1,1.16.44.89.89,0,0,1-.45,1.16,12.54,12.54,0,0,0-3.23,2.17A.85.85,0,0,1,12.53,13.32Z"/><path class="cls-4" d="M21.72,14.3C16.11,6.47,7.44,19.19,9.77,34.38s6,75.43,9.35,85.82c3.46,10.74,8.37,8.23,11.48-9.1C34,92,26.82,21.43,21.72,14.3Z"/><path class="cls-5" d="M18.92,17.7c-1.92.65-17,13.54-2.09,36C26.64,68.45,27,42.1,25.15,31.71S21.94,16.68,18.92,17.7Z"/><path class="cls-1" d="M111.14,124.39c-2.53,22.24-16.16,24.38-21,12.9S80.36,50,77.62,32.32c-2.09-13.45,17-25,24.43-20.36,3.29,2.06,6.32,20.58,22,24.72S142,15,147.38,14s14.34,16.62,7.31,31.75-24.16,27.92-39,17.5C108,58,116,81.69,111.14,124.39Z"/><path class="cls-6" d="M111.14,118.15c-2.53,22.24-16.16,24.38-21,12.9s-9.75-87.31-12.49-105c-2.09-13.44,17-25,24.43-20.35,3.29,2.06,6.32,20.58,22,24.71s18-21.7,23.32-22.64,14.34,16.63,7.31,31.76-24.16,27.92-39,17.49C108,51.71,116,75.45,111.14,118.15Z"/><path class="cls-7" d="M98.52,139.1c-4,0-7.51-2.84-9.53-7.58-3.23-7.61-6.29-41-9-70.4-1.4-15.39-2.62-28.68-3.58-34.86-.73-4.69.9-9.64,4.6-14,4.46-5.21,11.4-8.84,16.88-8.84a8.89,8.89,0,0,1,4.79,1.23c1.27.79,2.19,2.76,3.59,5.75,3,6.38,7.52,16,18.09,18.82a11.7,11.7,0,0,0,3,.41c7.21,0,10.87-8.16,13.81-14.72,2.06-4.6,3.55-7.92,6-8.35,2.21-.39,4.72,1.33,6.9,4.74a31.47,31.47,0,0,1,1.72,28.72c-4.92,10.59-16,22-28.59,22A21.06,21.06,0,0,1,115,58a2.65,2.65,0,0,0-1-.52c-.83.91-.58,7-.34,13a295.22,295.22,0,0,1-1.27,47.81C110.6,133.65,103.81,139.1,98.52,139.1ZM97.9,5.88c-4.74,0-11.07,3.36-15,8-2.28,2.66-4.84,6.91-4,12,1,6.25,2.2,19.58,3.61,35,2.55,27.8,5.72,62.41,8.8,69.67,1.63,3.82,4.35,6.1,7.3,6.1,4.63,0,10-5.77,11.41-18.66a291.17,291.17,0,0,0,1.25-47.43c-.38-9.34-.47-13.19,1-14.78a2.27,2.27,0,0,1,1.68-.71,4.3,4.3,0,0,1,2.44,1,18.65,18.65,0,0,0,10.85,3.57C138.76,59.62,149,49,153.59,39A28.93,28.93,0,0,0,152,12.64C150.29,9.94,148.71,9,147.79,9l-.2,0c-1.22.21-2.82,3.79-4.23,7-3.06,6.82-7.24,16.16-16,16.16a14.26,14.26,0,0,1-3.58-.49c-11.66-3.08-16.67-13.76-19.67-20.14-1-2.12-2-4.31-2.67-4.72A6.5,6.5,0,0,0,97.9,5.88Z"/><path class="cls-7" d="M99.18,133.74h0a5,5,0,0,1-3.81-2.13.87.87,0,0,1,1.34-1.1,3.36,3.36,0,0,0,2.48,1.5l.28,0a.87.87,0,0,1,.24,1.72Zm4.09-2.94a.84.84,0,0,1-.48-.14.87.87,0,0,1-.24-1.21,19.21,19.21,0,0,0,1.82-3.53.87.87,0,0,1,1.61.66,21.66,21.66,0,0,1-2,3.84A.86.86,0,0,1,103.27,130.8Zm-9.53-3.13a.86.86,0,0,1-.81-.56c-.11-.28-.21-.56-.3-.85a30.16,30.16,0,0,1-.85-3.29.87.87,0,0,1,.67-1,.88.88,0,0,1,1,.67,28.24,28.24,0,0,0,.79,3.1c.09.27.19.54.28.8a.86.86,0,0,1-.51,1.11A.79.79,0,0,1,93.74,127.67Zm13-5.15a.85.85,0,0,1-.23,0,.87.87,0,0,1-.61-1.07c.34-1.23.67-2.58,1-4a.87.87,0,0,1,1-.67.88.88,0,0,1,.67,1c-.31,1.44-.64,2.82-1,4.09A.85.85,0,0,1,106.72,122.52Zm-15-3.65a.87.87,0,0,1-.85-.72c-.21-1.28-.42-2.66-.64-4.14a.87.87,0,0,1,1.72-.25c.21,1.46.42,2.84.63,4.11a.85.85,0,0,1-.71,1Zm16.79-5.17h-.12a.86.86,0,0,1-.74-1c.17-1.25.32-2.63.45-4.09a.86.86,0,1,1,1.72.15c-.12,1.49-.28,2.9-.45,4.18A.88.88,0,0,1,108.53,113.7Zm-18.09-3.77a.86.86,0,0,1-.86-.75c-.17-1.33-.35-2.71-.53-4.14a.87.87,0,0,1,.76-1,.86.86,0,0,1,1,.76c.18,1.42.36,2.79.53,4.12a.87.87,0,0,1-.74,1Zm18.86-5.21h0a.87.87,0,0,1-.83-.91c.06-1.31.11-2.7.15-4.13a.86.86,0,0,1,.88-.85.87.87,0,0,1,.85.89c0,1.44-.08,2.85-.15,4.18A.86.86,0,0,1,109.3,104.72Zm-20-3.75a.86.86,0,0,1-.86-.76c-.16-1.36-.32-2.74-.48-4.15a.86.86,0,0,1,.76-1,.88.88,0,0,1,1,.77c.16,1.4.32,2.78.48,4.13a.88.88,0,0,1-.76,1Zm20.17-5.26h0a.87.87,0,0,1-.87-.87v-.32c0-1.25,0-2.52,0-3.82a.86.86,0,0,1,.85-.88.89.89,0,0,1,.88.85c0,1.31,0,2.59,0,3.85v.33A.87.87,0,0,1,109.5,95.71ZM88.31,92a.86.86,0,0,1-.86-.77c-.16-1.37-.31-2.75-.46-4.15a.87.87,0,0,1,1.73-.18q.23,2.09.45,4.14a.88.88,0,0,1-.77,1Zm21.06-5.3a.86.86,0,0,1-.87-.84c0-1.36-.09-2.74-.14-4.15a.87.87,0,1,1,1.73-.07c.06,1.41.1,2.8.14,4.17a.86.86,0,0,1-.84.89ZM87.34,83a.86.86,0,0,1-.86-.77c-.15-1.38-.29-2.76-.44-4.15a.87.87,0,0,1,1.73-.18c.14,1.39.29,2.77.43,4.15a.86.86,0,0,1-.77,1ZM109,77.7a.86.86,0,0,1-.86-.83c-.07-1.36-.15-2.75-.23-4.14a.86.86,0,0,1,.81-.92.88.88,0,0,1,.92.81c.08,1.41.16,2.79.23,4.16a.86.86,0,0,1-.82.91ZM86.4,74a.87.87,0,0,1-.86-.77l-.43-4.15a.87.87,0,0,1,1.73-.18l.43,4.15a.88.88,0,0,1-.78,1Zm22.06-5.34a.88.88,0,0,1-.87-.81q-.14-2.06-.3-4.14a.87.87,0,1,1,1.73-.13c.11,1.39.21,2.78.3,4.15a.86.86,0,0,1-.8.93Zm-23-3.64a.86.86,0,0,1-.86-.78l-.42-4.09.85-.14.87-.09.42,4.15a.87.87,0,0,1-.77,1Zm22.28-5.35a.87.87,0,0,1-.86-.79l-.36-4.14c-.06-.63-.11-1.2-.14-1.71a.87.87,0,0,1,1.73-.11c0,.5.08,1,.13,1.66.13,1.39.25,2.77.37,4.15a.87.87,0,0,1-.79.94Zm20.59-2.51h0a19.07,19.07,0,0,1-2.81-.2.87.87,0,0,1-.73-1,.85.85,0,0,1,1-.73,15.11,15.11,0,0,0,2.59.18c.45,0,.91,0,1.37,0a.86.86,0,1,1,.13,1.72Q129.1,57.2,128.35,57.2Zm6.16-1.07a.87.87,0,0,1-.29-1.69,19.21,19.21,0,0,0,3.58-1.71.87.87,0,0,1,.91,1.48,21.86,21.86,0,0,1-3.91,1.87A.93.93,0,0,1,134.51,56.13Zm-50-.05a.87.87,0,0,1-.86-.78c-.15-1.42-.29-2.8-.43-4.14A.86.86,0,0,1,85,51c.14,1.34.29,2.72.44,4.14a.86.86,0,0,1-.78,1ZM121,55.76a.89.89,0,0,1-.32,0c-.76-.3-1.53-.65-2.3-1l-1.53-.78a.87.87,0,0,1-.38-1.17.86.86,0,0,1,1.16-.38l1.54.78c.71.36,1.43.68,2.14,1a.87.87,0,0,1,.5,1.12A.89.89,0,0,1,121,55.76Zm-8.09-4a.85.85,0,0,1-.38-.09,17.58,17.58,0,0,0-3.62-1.45.87.87,0,0,1,.29-1.71,17,17,0,0,1,4.09,1.61.87.87,0,0,1,.4,1.16A.88.88,0,0,1,112.87,51.8Zm29.23-.41a.87.87,0,0,1-.59-1.5,26.72,26.72,0,0,0,2.71-3,.85.85,0,0,1,1.21-.15.87.87,0,0,1,.15,1.22,28.23,28.23,0,0,1-2.89,3.16A.84.84,0,0,1,142.1,51.39ZM83.6,47.1a.86.86,0,0,1-.86-.77c-.16-1.46-.32-2.84-.47-4.14A.87.87,0,0,1,84,42c.15,1.3.31,2.69.47,4.15a.86.86,0,0,1-.77,1Zm64-2.82a.91.91,0,0,1-.42-.11.87.87,0,0,1-.34-1.18,32.37,32.37,0,0,0,1.77-3.65.87.87,0,1,1,1.6.66,36.76,36.76,0,0,1-1.85,3.84A.88.88,0,0,1,147.58,44.28Zm-65-6.16a.87.87,0,0,1-.86-.75c-.2-1.56-.38-2.89-.55-3.95l0-.17A.86.86,0,1,1,82.83,33l0,.15c.17,1.08.36,2.42.56,4a.87.87,0,0,1-.75,1ZM123.46,37a12,12,0,0,1-3.29-.47.87.87,0,0,1,.47-1.67,10.14,10.14,0,0,0,3.79.36.86.86,0,1,1,.17,1.72A11,11,0,0,1,123.46,37Zm27.49-1a.91.91,0,0,1-.23,0,.87.87,0,0,1-.61-1.06,39.61,39.61,0,0,0,.86-4,.85.85,0,0,1,1-.72.87.87,0,0,1,.72,1,38,38,0,0,1-.9,4.15A.85.85,0,0,1,151,35.94Zm-21.82-.43a.84.84,0,0,1-.77-.48.86.86,0,0,1,.38-1.16,19.63,19.63,0,0,0,3.33-2.17.87.87,0,0,1,1.08,1.36,21.73,21.73,0,0,1-3.63,2.36A.92.92,0,0,1,129.13,35.51Zm-13.06-1.12a.82.82,0,0,1-.49-.16,24,24,0,0,1-3.28-2.8.87.87,0,0,1,0-1.22.86.86,0,0,1,1.22,0,23.17,23.17,0,0,0,3,2.6.86.86,0,0,1,.21,1.21A.85.85,0,0,1,116.07,34.39Zm20.08-4.45a.84.84,0,0,1-.59-.24.87.87,0,0,1-.05-1.22c.88-.94,1.76-2,2.65-3.11a.85.85,0,0,1,1.21-.15.86.86,0,0,1,.15,1.22c-.91,1.16-1.83,2.25-2.74,3.22A.87.87,0,0,1,136.15,29.94Zm-54.38-.79h-.06a.87.87,0,0,1-.81-.92A25.65,25.65,0,0,1,81.53,24a.87.87,0,1,1,1.69.4,23.23,23.23,0,0,0-.59,4A.86.86,0,0,1,81.77,29.15Zm28-1.13a.88.88,0,0,1-.69-.34c-.79-1-1.62-2.19-2.45-3.43a.87.87,0,0,1,.24-1.2.86.86,0,0,1,1.2.24c.81,1.21,1.61,2.33,2.39,3.34a.86.86,0,0,1-.16,1.21A.87.87,0,0,1,109.74,28Zm42.53-1h0a.87.87,0,0,1-.84-.89v-.73a26.49,26.49,0,0,0-.19-3.29.87.87,0,0,1,.75-1,.88.88,0,0,1,1,.75,28,28,0,0,1,.21,3.51c0,.26,0,.51,0,.77A.87.87,0,0,1,152.27,27.05Zm-10.59-4.21a.87.87,0,0,1-.72-1.35c.74-1.08,1.48-2.25,2.23-3.47a.86.86,0,0,1,1.19-.29.87.87,0,0,1,.29,1.19c-.76,1.24-1.52,2.43-2.27,3.54A.86.86,0,0,1,141.68,22.84Zm-36.94-2.32a.88.88,0,0,1-.75-.42c-.72-1.21-1.43-2.42-2.1-3.61a.86.86,0,0,1,1.5-.86c.67,1.18,1.37,2.38,2.09,3.58a.86.86,0,0,1-.3,1.19A.88.88,0,0,1,104.74,20.52Zm-20.81-.07a.86.86,0,0,1-.79-1.22,27.36,27.36,0,0,1,2.08-3.76.87.87,0,0,1,1.45,1,24.42,24.42,0,0,0-2,3.51A.86.86,0,0,1,83.93,20.45Zm66.84-2.2a.85.85,0,0,1-.77-.46c-.4-.74-1.06-1.63-1.94-1.63a1.53,1.53,0,0,0-.36,0,.87.87,0,0,1-.38-1.69,3.74,3.74,0,0,1,.74-.09c1,0,2.35.45,3.47,2.56a.87.87,0,0,1-.36,1.17A.85.85,0,0,1,150.77,18.25ZM89.06,13.11a.87.87,0,0,1-.59-1.5,14.8,14.8,0,0,1,3.6-2.53.87.87,0,0,1,1.16.4.85.85,0,0,1-.4,1.15,13.6,13.6,0,0,0-3.18,2.25A.86.86,0,0,1,89.06,13.11Zm11.18-.4a.87.87,0,0,1-.75-.44,4.5,4.5,0,0,0-2.59-2.22.87.87,0,1,1,.49-1.66,6.14,6.14,0,0,1,3.6,3,.86.86,0,0,1-.32,1.18A.82.82,0,0,1,100.24,12.71Z"/><path class="cls-8" d="M105.2,110.26c-1.14,17.41-6.57,19.66-10,9-3.32-10.3-7-70-9.26-85.07s1.93-24,11.15-20.83c2,.41,10.79,24.67,28.82,24.67S141.16,24,145.55,23.73s6,29.81-19,28.88c-14.44-.54-16.17-9.7-21-7.39C101.79,47,106.73,86.81,105.2,110.26Z"/><path class="cls-9" d="M95,17.67c-1.91.65-16.82,13.42-2.08,35.65,9.72,14.66,10-11.46,8.25-21.76S98,16.66,95,17.67Z"/><path class="cls-1" d="M260.43,51.18c-4.93,12.35-20.78,21.8-36.23,11-7.91-5.54,1.06,19.12-4,63.48-2.62,23.1-17.5,25.32-22.57,13.39s-10.12-90.68-13-109c-2.17-14,17.65-26,25.38-21.14,3.42,2.14,5.79,21.61,22.14,25.67C245.06,37.7,249.92,11.42,256.43,11c5.91-.39,7.89,18.07,20.31,16.63C287.12,26.42,283.22,11,287.9,9s13.59,9.37,11.35,27.61C296,62.84,273.82,62,265.58,50.66,262.25,46.08,261.53,48.41,260.43,51.18Z"/><path class="cls-10" d="M260.43,44.7c-4.93,12.35-20.78,21.8-36.23,11-7.91-5.55,1.06,19.12-4,63.47-2.62,23.1-17.5,25.33-22.57,13.4s-10.12-90.69-13-109c-2.17-14,17.65-26,25.38-21.14C213.49,4.49,215.86,24,232.21,28c12.85,3.2,17.71-23.09,24.22-23.51,5.91-.39,7.89,18.06,20.31,16.62,10.38-1.2,6.48-16.67,11.16-18.59s13.59,9.37,11.35,27.6c-3.22,26.22-25.43,25.4-33.67,14C262.25,39.59,261.53,41.93,260.43,44.7Z"/><path class="cls-11" d="M206.65,140.9c-4.26,0-8.05-2.94-10.15-7.87-3.36-7.91-6.53-42.56-9.33-73.13-1.47-16-2.73-29.79-3.73-36.21-.76-4.87.94-10,4.78-14.5C192.86,3.78,200.07,0,205.76,0a9.27,9.27,0,0,1,5,1.28c1.33.84,2.23,2.92,3.59,6.08,2.88,6.66,7.22,16.72,18.19,19.44a7.76,7.76,0,0,0,1.82.23c5.8,0,9.85-7.38,13.43-13.89,3-5.41,5.31-9.68,8.58-9.89s5.11,3.05,7.36,6.83c2.76,4.63,5.89,9.87,11.67,9.87a9.93,9.93,0,0,0,1.21-.07c5-.57,6.09-4.78,7.13-10.65.62-3.52,1.21-6.83,3.7-7.86,2.12-.87,4.84.19,7.2,2.86,3.86,4.36,7.43,13.5,5.88,26.07C298.45,47,288.78,53,280.42,53a19.89,19.89,0,0,1-15.86-8,7,7,0,0,0-1.9-2,9.26,9.26,0,0,0-.93,2l-.13.33c-3.88,9.71-13.49,16.5-23.36,16.5a25.45,25.45,0,0,1-14.76-5,3,3,0,0,0-1-.53c-.74,1-.42,6.6-.08,12.51a281.3,281.3,0,0,1-.92,50.6C219.67,135.24,212.36,140.9,206.65,140.9ZM205.76,2.52c-4.93,0-11.5,3.49-15.62,8.31-2.37,2.77-5,7.18-4.21,12.47,1,6.5,2.28,20.34,3.75,36.37,2.65,28.88,5.94,64.83,9.14,72.38,1.69,4,4.61,6.33,7.83,6.33,5,0,10.81-6,12.33-19.38a280,280,0,0,0,.9-50.18c-.52-9.12-.67-12.88.82-14.45a2.29,2.29,0,0,1,1.7-.74,4.48,4.48,0,0,1,2.52,1,23,23,0,0,0,13.32,4.52c8.87,0,17.51-6.13,21-14.92l.12-.32c.7-1.76,1.42-3.59,3.21-3.59,1.22,0,2.42.93,4,3.12a17.32,17.32,0,0,0,13.82,7c9.43,0,16-7.65,17.58-20.45,1.44-11.75-1.94-20.32-5.27-24.09-1.57-1.78-3.25-2.65-4.35-2.2s-1.7,3.28-2.18,6c-.89,5-2.11,11.88-9.31,12.72a13,13,0,0,1-1.51.09c-7.21,0-10.88-6.16-13.83-11.11-1.73-2.88-3.35-5.61-4.94-5.61h-.1c-1.89.13-4.25,4.43-6.53,8.59-3.72,6.77-8.35,15.2-15.64,15.2a10.23,10.23,0,0,1-2.43-.3c-12.18-3-17-14.21-19.89-20.89-1-2.22-2-4.52-2.62-4.94A6.75,6.75,0,0,0,205.76,2.52Z"/><path class="cls-11" d="M207.07,135.34a3.85,3.85,0,0,1-1.1-.16.9.9,0,1,1,.5-1.73,3,3,0,0,0,3-1.14.91.91,0,0,1,1.28,0,.9.9,0,0,1,0,1.27A5.15,5.15,0,0,1,207.07,135.34Zm-4.38-3.54a.92.92,0,0,1-.79-.46,22.46,22.46,0,0,1-1.62-3.78l-.12-.38a.9.9,0,0,1,1.72-.52c0,.11.07.23.11.33a20,20,0,0,0,1.48,3.47.9.9,0,0,1-.78,1.34Zm10.11-2.17a.89.89,0,0,1-.81-1.27,37.45,37.45,0,0,0,1.5-3.93.9.9,0,1,1,1.71.55,36.22,36.22,0,0,1-1.58,4.13A.9.9,0,0,1,212.8,129.63Zm-12.91-6.74a.91.91,0,0,1-.89-.73c-.23-1.26-.48-2.7-.73-4.3a.9.9,0,1,1,1.78-.28c.25,1.58.49,3,.72,4.24a.91.91,0,0,1-.72,1.06Zm15.76-2.15-.2,0a.9.9,0,0,1-.67-1.08c.28-1.25.55-2.59.79-4l0-.21a.91.91,0,0,1,1-.74.9.9,0,0,1,.73,1l0,.22c-.25,1.42-.52,2.79-.81,4.07A.9.9,0,0,1,215.65,120.74Zm-17.23-7.12a.9.9,0,0,1-.89-.78c-.19-1.37-.38-2.8-.58-4.3a.9.9,0,0,1,1.79-.23q.28,2.23.57,4.29a.89.89,0,0,1-.76,1Zm18.73-2.12h-.09a.91.91,0,0,1-.81-1c.14-1.32.25-2.76.34-4.27a.9.9,0,0,1,1.8.11c-.1,1.53-.21,3-.34,4.34A.9.9,0,0,1,217.15,111.5Zm-19.94-7.18a.91.91,0,0,1-.89-.8c-.17-1.4-.34-2.83-.51-4.3A.9.9,0,0,1,197.6,99c.17,1.46.34,2.9.51,4.3a.9.9,0,0,1-.79,1Zm20.5-2.16h0a.91.91,0,0,1-.88-.93c.05-1.39.07-2.82.09-4.3a.89.89,0,0,1,.9-.89h0a.9.9,0,0,1,.89.91c0,1.49,0,2.94-.09,4.34A.9.9,0,0,1,217.71,102.16ZM196.13,95a.91.91,0,0,1-.9-.8c-.15-1.42-.31-2.86-.47-4.31a.89.89,0,0,1,.79-1,.9.9,0,0,1,1,.8c.16,1.45.31,2.88.47,4.3a.89.89,0,0,1-.79,1Zm21.66-2.2a.91.91,0,0,1-.9-.89c0-1.41,0-2.85-.07-4.31a.9.9,0,0,1,.88-.92h0a.9.9,0,0,1,.9.88c0,1.47.06,2.92.07,4.33a.9.9,0,0,1-.89.91Zm-22.68-7.13a.9.9,0,0,1-.9-.8l-.45-4.3a.9.9,0,1,1,1.79-.19l.45,4.3a.89.89,0,0,1-.8,1Zm22.46-2.23a.9.9,0,0,1-.9-.87c0-1.41-.11-2.85-.18-4.31a.91.91,0,0,1,.86-.94.9.9,0,0,1,.94.86c.07,1.46.13,2.9.18,4.33a.9.9,0,0,1-.87.93Zm-23.44-7.09a.9.9,0,0,1-.9-.81l-.44-4.3a.9.9,0,1,1,1.79-.19l.44,4.31a.9.9,0,0,1-.8,1Zm23-2.26a.9.9,0,0,1-.9-.85c-.08-1.42-.17-2.86-.27-4.31a.9.9,0,0,1,1.8-.11q.13,2.18.27,4.32a.92.92,0,0,1-.85,1Zm-24-7.07a.9.9,0,0,1-.9-.81l-.44-4.3a.9.9,0,1,1,1.79-.19l.44,4.31a.91.91,0,0,1-.8,1Zm23.34-2.27a.9.9,0,0,1-.9-.84c-.11-1.42-.22-2.86-.34-4.3a.9.9,0,0,1,.83-1,.91.91,0,0,1,1,.82c.12,1.45.23,2.89.34,4.32a.9.9,0,0,1-.84,1Zm-24.3-7.06a.9.9,0,0,1-.9-.81l-.44-4.3a.89.89,0,0,1,.8-1,.91.91,0,0,1,1,.8l.44,4.31a.89.89,0,0,1-.8,1Zm46-1.57a20.92,20.92,0,0,1-2.49-.15.9.9,0,1,1,.22-1.79,18.16,18.16,0,0,0,4.1,0,.9.9,0,0,1,1,.81.9.9,0,0,1-.8,1C239.53,56.08,238.85,56.12,238.18,56.12Zm-22.44-.71a.91.91,0,0,1-.9-.82l-.11-1.28c-.1-1.09-.19-2.21-.19-3.11a.89.89,0,0,1,.89-.9h0a.91.91,0,0,1,.9.9c0,.82.09,1.9.18,2.95l.12,1.28a.91.91,0,0,1-.82,1Zm29.24-.6a.9.9,0,0,1-.33-1.73,19.27,19.27,0,0,0,3.62-1.95.9.9,0,0,1,1,1.48,21,21,0,0,1-4,2.14A1,1,0,0,1,245,54.81Zm-14.08,0a.93.93,0,0,1-.29-.05A30.17,30.17,0,0,1,227,53.21l-.46-.23a.9.9,0,0,1,.82-1.61l.45.23a27.28,27.28,0,0,0,3.39,1.46.9.9,0,0,1-.3,1.75Zm-8.44-4a1,1,0,0,1-.41-.09,39.4,39.4,0,0,0-3.83-1.77.9.9,0,0,1,.63-1.69,43.1,43.1,0,0,1,4,1.85.9.9,0,0,1-.4,1.7Zm30.12-1.31a.91.91,0,0,1-.66-1.52,27.72,27.72,0,0,0,2.63-3.26.89.89,0,0,1,1.25-.22.9.9,0,0,1,.23,1.25,30.32,30.32,0,0,1-2.79,3.46A.91.91,0,0,1,252.58,49.48Zm-61.35-1.12a.9.9,0,0,1-.9-.8c-.16-1.5-.31-2.93-.47-4.31a.91.91,0,0,1,.8-1,.88.88,0,0,1,1,.8c.16,1.37.31,2.81.47,4.3a.9.9,0,0,1-.8,1ZM278.15,48H278a14.93,14.93,0,0,1-4.41-1.26.9.9,0,0,1,.76-1.63,13,13,0,0,0,3.87,1.1.91.91,0,0,1,.78,1A.9.9,0,0,1,278.15,48Zm5-.36a.9.9,0,0,1-.24-1.77,10.59,10.59,0,0,0,3.53-1.78.9.9,0,0,1,1.26.16.92.92,0,0,1-.16,1.27,12.32,12.32,0,0,1-4.14,2.08A1,1,0,0,1,283.14,47.68ZM269.92,44a.94.94,0,0,1-.65-.28c-.28-.3-.55-.61-.8-.92-.71-.91-1.39-1.73-2-2.44a.9.9,0,1,1,1.36-1.17q.95,1.1,2,2.49a10.4,10.4,0,0,0,.7.79.91.91,0,0,1-.66,1.53Zm20.31-2a.91.91,0,0,1-.78-1.35,15.3,15.3,0,0,0,1.27-2.9c.1-.3.19-.6.28-.9a.9.9,0,0,1,1.73.52l-.3.94A17.34,17.34,0,0,1,291,41.49.89.89,0,0,1,290.23,41.94Zm-32.39-.16a.85.85,0,0,1-.4-.1.91.91,0,0,1-.4-1.21,41.39,41.39,0,0,0,1.69-3.87.93.93,0,0,1,.28-.39.9.9,0,0,1,.13-.47,2.58,2.58,0,0,1,2.27-1.43h0a4.73,4.73,0,0,1,2.73,1.15.9.9,0,0,1-1.08,1.44,3.1,3.1,0,0,0-1.65-.79h0c-.13,0-.4,0-.72.55a.84.84,0,0,1-.22.24.8.8,0,0,1-.05.34c-.54,1.4-1.13,2.76-1.77,4A.92.92,0,0,1,257.84,41.78ZM190.18,39a.9.9,0,0,1-.89-.79c-.19-1.57-.37-3-.54-4.29a.9.9,0,0,1,1.79-.23c.17,1.28.35,2.72.54,4.31a.91.91,0,0,1-.79,1Zm40.21-4.56h-.11a13.09,13.09,0,0,1-4.39-1.38.9.9,0,0,1,.82-1.6,11.52,11.52,0,0,0,3.79,1.2.89.89,0,0,1,.78,1A.9.9,0,0,1,230.39,34.47Zm5-.53a.9.9,0,0,1-.28-1.75,15.87,15.87,0,0,0,3.65-1.81.89.89,0,0,1,1.24.27.88.88,0,0,1-.26,1.24,17.46,17.46,0,0,1-4.07,2A.9.9,0,0,1,235.36,33.94ZM293,33.05h-.16a.89.89,0,0,1-.72-1.05c.25-1.37.46-2.78.61-4.21a.89.89,0,0,1,1-.8.9.9,0,0,1,.8,1c-.16,1.48-.37,2.94-.63,4.35A.91.91,0,0,1,293,33.05Zm-70.83-2.79a.93.93,0,0,1-.61-.23,33.16,33.16,0,0,1-3-3.23.89.89,0,0,1,.11-1.26.9.9,0,0,1,1.27.11,31.8,31.8,0,0,0,2.89,3.05.9.9,0,0,1,.05,1.27A.91.91,0,0,1,222.21,30.26ZM189,29.73a.91.91,0,0,1-.9-.84c0-.53,0-1.06,0-1.59a25.15,25.15,0,0,1,.17-2.88.89.89,0,0,1,1-.8.91.91,0,0,1,.8,1,24.07,24.07,0,0,0-.15,2.68c0,.49,0,1,0,1.47a.9.9,0,0,1-.84,1Zm54.13-.86a.9.9,0,0,1-.62-1.55c.94-.91,1.91-1.95,2.88-3.09a.91.91,0,0,1,1.27-.1.9.9,0,0,1,.1,1.27,41.35,41.35,0,0,1-3,3.22A.86.86,0,0,1,243.13,28.87ZM277,27.11a16.92,16.92,0,0,1-3.67-.41.9.9,0,0,1,.39-1.75,15.56,15.56,0,0,0,4.05.34.9.9,0,0,1,.1,1.8Zm5.64-1.33a.9.9,0,0,1-.47-1.66l.2-.13a5.8,5.8,0,0,0,1.84-2.89.9.9,0,1,1,1.69.61,7.34,7.34,0,0,1-2.52,3.77l-.27.17A.88.88,0,0,1,282.63,25.78Zm-13.78-.89a.84.84,0,0,1-.46-.13,16.47,16.47,0,0,1-3.56-2.84.9.9,0,0,1,0-1.27.91.91,0,0,1,1.28,0,14.58,14.58,0,0,0,3.17,2.53.91.91,0,0,1,.31,1.24A.9.9,0,0,1,268.85,24.89ZM294,23.75h0a.9.9,0,0,1-.88-.92c0-.39,0-.77,0-1.15,0-1.07,0-2.11-.1-3.09a.9.9,0,0,1,.84-1,.89.89,0,0,1,.95.84c.07,1,.11,2.1.11,3.21,0,.39,0,.79,0,1.19A.9.9,0,0,1,294,23.75Zm-77.78-.66a.88.88,0,0,1-.74-.39c-.77-1.12-1.54-2.32-2.37-3.67a.9.9,0,0,1,.3-1.24.92.92,0,0,1,1.24.3c.81,1.32,1.57,2.5,2.32,3.6a.9.9,0,0,1-.24,1.25A.92.92,0,0,1,216.21,23.09Zm32.95-1.36a.89.89,0,0,1-.73-1.42c.79-1.1,1.59-2.29,2.4-3.54a.9.9,0,0,1,1.51,1c-.82,1.28-1.64,2.49-2.44,3.62A.93.93,0,0,1,249.16,21.73Zm-59-1.24a.89.89,0,0,1-.86-1.17A28.42,28.42,0,0,1,191,15.19a.9.9,0,0,1,1.61.82A25.47,25.47,0,0,0,191,19.87.89.89,0,0,1,190.17,20.49Zm72.44-2.41a.9.9,0,0,1-.8-.49l-.1-.2a34.91,34.91,0,0,0-1.94-3.5.9.9,0,0,1,1.52-1,37.68,37.68,0,0,1,2,3.69l.08.18A.9.9,0,0,1,263,18,1,1,0,0,1,262.61,18.08Zm23.73-.65a.71.71,0,0,1-.2,0,.89.89,0,0,1-.67-1.08A28,28,0,0,1,286.72,12a.9.9,0,1,1,1.66.69,27.2,27.2,0,0,0-1.16,4A.91.91,0,0,1,286.34,17.43Zm-75-2.31a.9.9,0,0,1-.78-.46c-.52-.9-1-1.79-1.51-2.66l-.62-1.11A.9.9,0,1,1,210,10l.63,1.11,1.5,2.65a.89.89,0,0,1-.34,1.23A.88.88,0,0,1,211.31,15.12Zm81.88-.68a.9.9,0,0,1-.87-.68c-.59-2.38-1.3-3-1.57-3.16A.9.9,0,0,1,291.66,9c1,.61,1.85,2.05,2.41,4.29a.9.9,0,0,1-.66,1.09A.82.82,0,0,1,293.19,14.44Zm-39.32-.75a.85.85,0,0,1-.4-.1.89.89,0,0,1-.4-1.2c.41-.83,1.72-3.43,3.94-3.19a.9.9,0,0,1-.19,1.79c-.83-.09-1.62,1.15-2.14,2.2A.92.92,0,0,1,253.87,13.69Zm-59.35-1.43a.89.89,0,0,1-.7-1.46A20.48,20.48,0,0,1,197,7.59a.9.9,0,0,1,1.27.14A.89.89,0,0,1,198.11,9a18.76,18.76,0,0,0-2.89,2.94A.87.87,0,0,1,194.52,12.26Zm11.62-4.85a.92.92,0,0,1-.47-.14,4.49,4.49,0,0,0-3.49-.43.9.9,0,0,1-.41-1.75,6.25,6.25,0,0,1,4.84.65.9.9,0,0,1-.47,1.67Z"/><path class="cls-12" d="M235.57,51.06c-15-.28-16.8-10.08-21.84-7.68-3.93,1.87,1.2,43.21-.39,67.56-1.18,18.09-6.82,20.43-10.39,9.37-3.45-10.7-7.22-72.71-9.62-88.36s2-24.9,11.58-21.64c2.1.42,11.22,25.63,29.94,25.63s17.67-16.71,22.2-18.84c5.47-.11,4,8.9,14.65,11.6s14.76-3.06,16.2-7.39,5,2.41.36,13.27-14.58,9.66-20.7,2.52-9.9-7.86-12.24-.66S246.8,51.28,235.57,51.06Z"/><path class="cls-13" d="M202.75,14.77c-2,.67-17.46,13.94-2.15,37C210.7,67,211,39.9,209.17,29.19S205.86,13.72,202.75,14.77Z"/></g></g></svg>