<svg xmlns="http://www.w3.org/2000/svg" viewBox="0 0 340.23 180.4"><defs><style>.cls-1{opacity:0.15;}.cls-2{fill:#ff4f8c;}.cls-3{fill:#d11d5b;}.cls-4{fill:#f970a5;}.cls-5{fill:#fc83b5;}.cls-6{fill:#2eddff;}.cls-7{fill:#00aade;}.cls-8{fill:#6bebfc;}.cls-9{fill:#95f2f9;}.cls-10{fill:#fff737;}.cls-11{fill:#f7c00a;}.cls-12{fill:#fff069;}.cls-13{fill:#fff18f;}</style></defs><title>arabicAsset 71</title><g id="Layer_2" data-name="Layer 2"><g id="Layer_1-2" data-name="Layer 1"><path class="cls-1" d="M328.34,58.39c-7.39-6-19.2,8.19-17.16,21.34s5.67,63.89,9.3,72.44,13.84,6.08,17.71-10.12S334.74,63.55,328.34,58.39Z"/><path class="cls-1" d="M335.17,25.24c2.45.87,2.93,4.63,1.34,8.25-2.59,5.89-22.47,17.1-28,18-3.22.52-5.55-5.39-3-9.24,1.4-2.13,7.3-5.74,8.09-6.37,2.64-2.11-5.49,1.06-8.1-4.93-1.7-3.9-.35-16.55,13.56-22.53s17.82,8,15.31,12.67c-2.06,3.88-4.44,1.47-7.59.15s-6.92,4.78-1.88,5.31S332.57,24.32,335.17,25.24Z"/><path class="cls-2" d="M328.34,52.38c-7.39-6-19.2,8.2-17.16,21.35s5.67,63.89,9.3,72.43,13.84,6.09,17.71-10.11S334.74,57.55,328.34,52.38Z"/><path class="cls-3" d="M326.58,152h0c-3,0-5.52-2-7-5.41-2.45-5.78-4.86-30-6.8-49.43-1-10.09-1.87-18.8-2.56-23.24a24.64,24.64,0,0,1,5.56-19c2.7-3.14,5.78-4.88,8.68-4.88a7,7,0,0,1,4.46,1.62c3.76,3,7.18,21.79,9.13,38.33,1.84,15.68,3.23,37.21,1.05,46.3C336.36,147.84,330.64,152,326.58,152Zm-2.1-100c-2.3,0-4.94,1.54-7.23,4.21a22.62,22.62,0,0,0-5.12,17.44c.7,4.49,1.57,13.23,2.57,23.34,1.93,19.32,4.32,43.36,6.66,48.87,1.15,2.7,3.05,4.25,5.22,4.25h0c3.63,0,8.34-4.4,10.69-14.21,2-8.28.87-28.89-1.1-45.64-2.32-19.69-5.79-34.93-8.43-37.06A5.06,5.06,0,0,0,324.48,51.93Z"/><path class="cls-3" d="M327.1,148.11a3.73,3.73,0,0,1-2.93-1.72.67.67,0,0,1,.13-.95.69.69,0,0,1,1,.12q1,1.35,2.1,1.17a.68.68,0,0,1,.78.56.67.67,0,0,1-.56.78A2.59,2.59,0,0,1,327.1,148.11Zm3.31-2.32a.66.66,0,0,1-.4-.13.67.67,0,0,1-.15-.95,17.83,17.83,0,0,0,1.58-2.72.67.67,0,0,1,.91-.31.68.68,0,0,1,.32.91,19.62,19.62,0,0,1-1.71,2.92A.66.66,0,0,1,330.41,145.79ZM323,143.25a.69.69,0,0,1-.65-.46l-.06-.18a28.32,28.32,0,0,1-.77-3.08.68.68,0,1,1,1.33-.27,29.06,29.06,0,0,0,.73,2.92l.06.17a.69.69,0,0,1-.42.87A.83.83,0,0,1,323,143.25Zm10.49-3.8a.59.59,0,0,1-.23,0,.68.68,0,0,1-.41-.88c.34-.94.69-2,1-3.07a.68.68,0,0,1,1.31.4c-.34,1.11-.69,2.17-1,3.14A.68.68,0,0,1,333.52,139.45Zm-12-3.14a.7.7,0,0,1-.68-.57c-.16-1-.33-2.1-.49-3.25a.68.68,0,1,1,1.34-.2c.17,1.14.34,2.22.5,3.23a.68.68,0,0,1-.56.78Zm13.93-3.67h-.12a.69.69,0,0,1-.56-.79c.16-.94.3-2,.41-3.19a.7.7,0,0,1,.74-.62.68.68,0,0,1,.61.75c-.1,1.2-.25,2.31-.41,3.29A.68.68,0,0,1,335.47,132.64Zm-15-3.36a.67.67,0,0,1-.67-.59c-.14-1-.28-2.14-.43-3.26a.69.69,0,0,1,.6-.76.68.68,0,0,1,.76.59c.14,1.11.28,2.2.42,3.25a.68.68,0,0,1-.59.76Zm15.6-3.7h0a.68.68,0,0,1-.66-.7c0-1,.06-2.11.07-3.25a.67.67,0,0,1,.68-.68h0a.68.68,0,0,1,.68.69c0,1.15,0,2.25-.07,3.29A.67.67,0,0,1,336.11,125.58Zm-16.49-3.35a.67.67,0,0,1-.67-.6c-.13-1.07-.26-2.16-.39-3.26a.68.68,0,0,1,1.36-.16c.13,1.1.25,2.19.38,3.26a.68.68,0,0,1-.59.76Zm16.53-3.74a.69.69,0,0,1-.69-.67c0-1.06,0-2.15-.1-3.26a.69.69,0,1,1,1.37,0c0,1.12.07,2.21.1,3.29a.68.68,0,0,1-.67.69Zm-17.35-3.32a.67.67,0,0,1-.67-.6c-.12-1.08-.25-2.17-.37-3.26a.68.68,0,0,1,.61-.75.68.68,0,0,1,.75.6l.36,3.26a.68.68,0,0,1-.6.75Zm17.06-3.77a.68.68,0,0,1-.68-.65c-.06-1.07-.13-2.16-.2-3.26a.67.67,0,0,1,.63-.72.68.68,0,0,1,.73.63c.07,1.1.14,2.2.2,3.28a.68.68,0,0,1-.64.72ZM318,108.11a.68.68,0,0,1-.67-.61l-.36-3.25a.68.68,0,0,1,1.36-.15l.35,3.26a.68.68,0,0,1-.6.75Zm17.34-3.79a.67.67,0,0,1-.67-.63c-.09-1.08-.19-2.17-.29-3.26a.68.68,0,0,1,.61-.74.7.7,0,0,1,.75.62c.1,1.09.19,2.18.28,3.27a.67.67,0,0,1-.62.73Zm-18.1-3.27a.67.67,0,0,1-.67-.61l-.35-3.26a.68.68,0,1,1,1.35-.14l.35,3.26a.68.68,0,0,1-.6.75Zm17.44-3.8a.69.69,0,0,1-.68-.61c-.11-1.09-.23-2.17-.35-3.26a.68.68,0,1,1,1.35-.15q.19,1.63.36,3.27a.68.68,0,0,1-.61.75ZM316.51,94a.68.68,0,0,1-.68-.61l-.36-3.26a.68.68,0,0,1,.61-.75.68.68,0,0,1,.75.6l.35,3.27a.68.68,0,0,1-.6.75Zm17.38-3.8a.67.67,0,0,1-.67-.59c-.14-1.09-.28-2.18-.42-3.25a.68.68,0,0,1,1.35-.18c.14,1.08.28,2.16.42,3.26a.68.68,0,0,1-.59.76Zm-18.16-3.26a.69.69,0,0,1-.68-.61c-.12-1.14-.25-2.23-.37-3.25a.68.68,0,1,1,1.35-.16c.12,1,.25,2.12.38,3.26a.68.68,0,0,1-.6.75ZM333,83.16a.69.69,0,0,1-.68-.59c-.16-1.09-.32-2.17-.48-3.23a.69.69,0,0,1,.57-.78.69.69,0,0,1,.78.57c.16,1.06.32,2.15.48,3.25a.67.67,0,0,1-.58.77Zm-18.06-3.29a.67.67,0,0,1-.67-.59c-.17-1.26-.32-2.33-.45-3.18a.72.72,0,0,1,.57-.81.66.66,0,0,1,.77.54v.07c.13.85.28,1.93.45,3.2a.69.69,0,0,1-.59.77Zm17-3.73a.68.68,0,0,1-.67-.57c-.19-1.1-.37-2.18-.56-3.22a.68.68,0,0,1,.55-.79.69.69,0,0,1,.79.55c.19,1,.38,2.13.56,3.24a.67.67,0,0,1-.55.78Zm-17.64-3.32h0a.7.7,0,0,1-.66-.71,23.9,23.9,0,0,1,.33-3.34.67.67,0,0,1,.78-.56.66.66,0,0,1,.56.78,24.66,24.66,0,0,0-.31,3.16A.69.69,0,0,1,314.21,72.82Zm16.36-3.66a.68.68,0,0,1-.67-.55c-.23-1.13-.45-2.2-.68-3.19a.68.68,0,0,1,.52-.81.66.66,0,0,1,.81.51c.23,1,.46,2.08.69,3.22a.7.7,0,0,1-.53.81Zm-15.14-3.3a.86.86,0,0,1-.21,0,.68.68,0,0,1-.43-.86A25,25,0,0,1,316,61.84a.68.68,0,1,1,1.23.58,25.66,25.66,0,0,0-1.17,3A.68.68,0,0,1,315.43,65.86ZM329,62.24a.67.67,0,0,1-.65-.5c-.34-1.23-.66-2.26-1-3.07a.68.68,0,1,1,1.28-.48c.31.85.65,1.92,1,3.19a.68.68,0,0,1-.48.84Zm-10.41-2.72a.65.65,0,0,1-.39-.13.68.68,0,0,1-.16-1,14.09,14.09,0,0,1,2.32-2.54A.68.68,0,1,1,321.2,57a13,13,0,0,0-2.08,2.29A.7.7,0,0,1,318.56,59.52ZM327,57.11a.69.69,0,0,1-.53-.24,3,3,0,0,0-2.28-1.23.68.68,0,0,1,0-1.36h0A4.33,4.33,0,0,1,327.52,56a.68.68,0,0,1-.09,1A.7.7,0,0,1,327,57.11Z"/><path class="cls-4" d="M326.19,59.29c-4.13-5.77-10.53,6.19-8.81,17.39s4.42,53.06,6.89,60.72c2.56,7.93,6.18,6.08,8.47-6.71C335.27,116.61,330,64.55,326.19,59.29Z"/><path class="cls-2" d="M335.17,19.24c2.45.87,2.93,4.63,1.34,8.24-2.59,5.9-22.47,17.11-28,18-3.22.52-5.55-5.39-3-9.24,1.4-2.13,7.3-5.74,8.09-6.37,2.64-2.11-5.49,1.06-8.1-4.93-1.7-3.9-.35-16.55,13.56-22.54s17.82,8,15.31,12.68c-2.06,3.87-4.44,1.47-7.59.15s-6.92,4.78-1.88,5.31S332.57,18.32,335.17,19.24Z"/><path class="cls-3" d="M308.08,46.48a4.34,4.34,0,0,1-3.7-2.59,8.17,8.17,0,0,1,.28-8.15c1.1-1.67,4.26-3.88,7.15-5.81l.08-.06c-2.2-.17-5.69-.8-7.32-4.53-.92-2.12-1.05-6.27.74-10.77,1.58-4,5.18-9.52,13.32-13A17,17,0,0,1,325.31,0a10,10,0,0,1,8.82,5c2,3.33,2.45,7.87,1,10.54-.93,1.76-2.08,2.61-3.53,2.61A8.35,8.35,0,0,1,328,16.94c-.54-.28-1.1-.57-1.68-.81a1.51,1.51,0,0,0-.56-.11,2.86,2.86,0,0,0-2.45,2.4c0,.25-.06,1,1.6,1.19a11.66,11.66,0,0,0,1.18.06,15,15,0,0,0,4.75-.91,10.85,10.85,0,0,1,3.15-.67,4.19,4.19,0,0,1,1.46.25,4.08,4.08,0,0,1,2.38,2.32,9.37,9.37,0,0,1-.49,7.21c-2.77,6.31-23,17.63-28.75,18.57A3.31,3.31,0,0,1,308.08,46.48ZM325.31,1.91a15.28,15.28,0,0,0-5.93,1.39c-7.53,3.24-10.85,8.3-12.3,12s-1.52,7.56-.76,9.31c1.38,3.15,4.57,3.33,6.48,3.44,1.07.06,1.91.11,2.17.93s-.47,1.4-.83,1.68c-.2.17-.63.45-1.27.88-1.83,1.23-5.64,3.79-6.62,5.27a6.35,6.35,0,0,0-.19,6.21c.6,1.12,1.43,1.71,2.27,1.56,5.7-.92,25-12.12,27.31-17.45a7.58,7.58,0,0,0,.48-5.68,2.19,2.19,0,0,0-1.27-1.28c-.89-.32-2,0-3.4.44a16.68,16.68,0,0,1-5.32,1h0c-.46,0-.92,0-1.38-.07-2.55-.27-3.38-1.82-3.31-3.18a4.71,4.71,0,0,1,4.36-4.22,3.39,3.39,0,0,1,1.3.26c.64.27,1.24.57,1.81.87a7.3,7.3,0,0,0,2.72,1c.3,0,1,0,1.85-1.6.95-1.79.85-5.62-1-8.66A8,8,0,0,0,325.31,1.91Z"/><path class="cls-3" d="M311.77,42.17a.68.68,0,0,1-.21-1.33,24.83,24.83,0,0,0,2.95-1.2.69.69,0,0,1,.91.33.68.68,0,0,1-.33.9A27.77,27.77,0,0,1,312,42.14Zm-3.44-.56a.68.68,0,0,1-.6-.36,3.18,3.18,0,0,1-.34-1.49,5.9,5.9,0,0,1,.51-2.26.68.68,0,0,1,.89-.37.69.69,0,0,1,.37.89,4.75,4.75,0,0,0-.4,1.74,1.78,1.78,0,0,0,.18.85.69.69,0,0,1-.29.92A.61.61,0,0,1,308.33,41.61Zm9.87-2.42a.7.7,0,0,1-.6-.35.69.69,0,0,1,.27-.93c.92-.51,1.87-1.06,2.81-1.64a.68.68,0,0,1,.71,1.17c-1,.58-1.92,1.14-2.86,1.66A.66.66,0,0,1,318.2,39.19Zm-7.27-3.61a.69.69,0,0,1-.56-.3.69.69,0,0,1,.18-1c.72-.49,1.57-1,2.47-1.54l.34-.21a.68.68,0,0,1,.94.23.69.69,0,0,1-.23.94l-.34.2c-.89.54-1.73,1-2.41,1.51A.71.71,0,0,1,310.93,35.58Zm13.32-.11a.71.71,0,0,1-.57-.3.69.69,0,0,1,.18-1c.94-.63,1.82-1.27,2.64-1.89a.68.68,0,0,1,.82,1.09c-.83.63-1.74,1.28-2.69,1.93A.68.68,0,0,1,324.25,35.47Zm-7.33-3.71a.68.68,0,0,1-.4-1.22c1.35-1,1.49-1.49,1.5-1.6v-.16a1.09,1.09,0,0,0,0-.18.68.68,0,0,1,1.36-.15c0,.11,0,.22,0,.33s0,.17,0,.25c-.06.78-.69,1.58-2.05,2.6A.67.67,0,0,1,316.92,31.76Zm12.94-.64a.68.68,0,0,1-.46-1.18,17.3,17.3,0,0,0,2.15-2.3.67.67,0,0,1,.95-.13.68.68,0,0,1,.14.95,19.47,19.47,0,0,1-2.32,2.48A.69.69,0,0,1,329.86,31.12Zm-14.23-3.55h-.06l-.5,0a17.18,17.18,0,0,1-2.85-.38.68.68,0,1,1,.33-1.32,15.27,15.27,0,0,0,2.62.34l.52,0a.68.68,0,0,1-.06,1.36Zm18.13-2.25a.85.85,0,0,1-.22,0,.69.69,0,0,1-.43-.87,2.65,2.65,0,0,0,.2-.86c0-.2,0-.44-.95-.78l-.1,0-.09,0-.31,0h0a3.84,3.84,0,0,0-1.66.63l-.61.33a.68.68,0,1,1-.62-1.22l.58-.3a4.72,4.72,0,0,1,2.31-.8h0a3.15,3.15,0,0,1,.61.06l.17.07a.51.51,0,0,1,.17,0c.87.31,1.86.82,1.86,2.07a4,4,0,0,1-.27,1.31A.68.68,0,0,1,333.76,25.32Zm-24.44-.23a.67.67,0,0,1-.58-.33,5.49,5.49,0,0,1-.33-.64,8.89,8.89,0,0,1-.64-2.78.68.68,0,1,1,1.36-.11,7.77,7.77,0,0,0,.53,2.35c.07.17.16.33.24.48a.67.67,0,0,1-.23.93A.64.64,0,0,1,309.32,25.09Zm16.29-.52h0l-.53,0a8.34,8.34,0,0,1-2.91-.78.68.68,0,0,1,.61-1.22,6.81,6.81,0,0,0,2.43.64,3.4,3.4,0,0,0,.45,0,.69.69,0,0,1,0,1.37ZM320.07,21a.69.69,0,0,1-.66-.5,5.94,5.94,0,0,1-.2-1.53,6.84,6.84,0,0,1,.33-2.08.68.68,0,0,1,1.3.4,5.87,5.87,0,0,0-.26,1.68,4.47,4.47,0,0,0,.15,1.17.69.69,0,0,1-.48.84Zm-11.35-2.82-.15,0a.68.68,0,0,1-.52-.81,14.6,14.6,0,0,1,1.11-3.24.68.68,0,0,1,.91-.32.69.69,0,0,1,.32.91,13.45,13.45,0,0,0-1,2.94A.68.68,0,0,1,308.72,18.17Zm13.51-3.58a.68.68,0,0,1-.44-1.2A5.2,5.2,0,0,1,324,12.25a6.42,6.42,0,0,1,1.23-.19.68.68,0,1,1,.07,1.36,5.29,5.29,0,0,0-1,.15,4,4,0,0,0-1.61.86A.66.66,0,0,1,322.23,14.59Zm8.19-.05a5.44,5.44,0,0,1-1.71-.39.67.67,0,0,1-.42-.87.68.68,0,0,1,.86-.42,4.79,4.79,0,0,0,1.27.32c.19,0,.34,0,.5-.35l.12-.26a.68.68,0,0,1,1.25.53l-.15.34A1.82,1.82,0,0,1,330.42,14.54Zm-18.58-2.66a.66.66,0,0,1-.44-.16.67.67,0,0,1-.08-1,18.2,18.2,0,0,1,2.43-2.37.68.68,0,1,1,.85,1.06,16,16,0,0,0-2.24,2.19A.69.69,0,0,1,311.84,11.88ZM332,9.77a.68.68,0,0,1-.67-.55,5.2,5.2,0,0,0-1.26-2.56.69.69,0,0,1,0-1,.7.7,0,0,1,1,0A6.63,6.63,0,0,1,332.68,9a.68.68,0,0,1-.54.8ZM317.36,7.51a.67.67,0,0,1-.6-.36.69.69,0,0,1,.27-.93c.64-.34,1.32-.67,2-1l1-.42a.68.68,0,1,1,.48,1.27l-1,.4c-.66.29-1.3.6-1.91.92A.62.62,0,0,1,317.36,7.51ZM324,5.14a.68.68,0,0,1-.67-.58.69.69,0,0,1,.57-.78,10.67,10.67,0,0,1,3.48,0,.68.68,0,0,1-.24,1.34,9.33,9.33,0,0,0-3,0Z"/><path class="cls-4" d="M322.36,6.69c5.67-1.31,9.2,3.83,2.88,4.1s-8.69,5-7.37,9.5,5.55,5.55,8.85,5.35,3.81,2.44-1.47,6.54S313.62,40,312.78,37.82s6.15-4.72,6.81-8.82c.61-3.79-4.23-2.83-7.13-5.89C310.35,20.88,307.57,10.13,322.36,6.69Z"/><path class="cls-5" d="M323.61,61.79c-5.15,1.74-8.26,15.62-1,26.53s7.47-8.52,6.14-16.19S325.83,61,323.61,61.79Z"/><path class="cls-5" d="M317.09,8.54c-6.58,5.06-3.43,12.57-1.46,11.54s3.11-5.8,6.54-8.33S321.2,5.39,317.09,8.54Z"/><path class="cls-1" d="M226.89,152.2c-11.22,3.31-12.2,19.24-5.29,24.08,10.86,7.62,23.25,4.43,25.1-7.57C248,160.13,237.81,149,226.89,152.2Z"/><path class="cls-1" d="M164.6,82.43c4.61-4.62,14.42-3.18,11.25,4.32s-10.39,15.68,9.22,22,59.78,2.68,73.31-4.36,10.05-17.67,7.74-21.13-.29-14.3,9.23-9.46,18.17,28.78.86,44.65c-23.2,21.27-89.53,28.15-113.44,6.73C148.8,112.68,157.68,89.35,164.6,82.43Z"/><path class="cls-6" d="M226.89,146.2c-11.22,3.3-12.2,19.23-5.29,24.07,10.86,7.62,23.25,4.43,25.1-7.57C248,154.12,237.81,143,226.89,146.2Z"/><path class="cls-7" d="M233.51,175.35h0a21.88,21.88,0,0,1-12.46-4.3c-3.63-2.54-5.45-8-4.53-13.67,1-6,4.76-10.53,10.1-12.1a14.86,14.86,0,0,1,4.17-.6A17.13,17.13,0,0,1,243.62,151c3.11,3.62,4.61,8.06,4,11.88C246.46,170.56,241,175.35,233.51,175.35Zm-2.72-28.76a12.86,12.86,0,0,0-3.63.53c-4.62,1.35-7.89,5.31-8.75,10.57-.81,4.93.69,9.67,3.73,11.8a20.07,20.07,0,0,0,11.37,3.95c6.52,0,11.21-4.17,12.25-10.88.5-3.27-.84-7.14-3.59-10.35A15.25,15.25,0,0,0,230.79,146.59Z"/><path class="cls-8" d="M229.43,152.71c-7.71.66-8.89,15.61,3.95,13.78C243.12,165.11,243,151.55,229.43,152.71Z"/><path class="cls-7" d="M231.72,171.89l-.63,0a.68.68,0,0,1-.64-.72.7.7,0,0,1,.73-.64,9.82,9.82,0,0,0,2.45-.17l.58-.13a.68.68,0,1,1,.33,1.32l-.64.14A11,11,0,0,1,231.72,171.89Zm-4.22-1.07a.76.76,0,0,1-.33-.08,10.45,10.45,0,0,1-2.73-2.18.68.68,0,0,1,.05-1,.69.69,0,0,1,1,.05,9,9,0,0,0,2.36,1.89.68.68,0,0,1-.32,1.28Zm10.39-.74a.67.67,0,0,1-.58-.32.69.69,0,0,1,.21-.94,9.14,9.14,0,0,0,2.28-2,.68.68,0,0,1,1.06.86,10.66,10.66,0,0,1-2.61,2.3A.68.68,0,0,1,237.89,170.08Zm-15-4.49a.68.68,0,0,1-.62-.4,14.48,14.48,0,0,1-1-3.27.67.67,0,0,1,.53-.8.68.68,0,0,1,.8.54,13.7,13.7,0,0,0,.94,3,.68.68,0,0,1-.34.9A.71.71,0,0,1,222.89,165.59Zm19.23-1-.21,0a.68.68,0,0,1-.44-.85,10.85,10.85,0,0,0,.48-3,.69.69,0,0,1,.69-.67.67.67,0,0,1,.67.69,11.82,11.82,0,0,1-.54,3.42A.67.67,0,0,1,242.12,164.58Zm-20.43-5.91h-.06a.68.68,0,0,1-.62-.74,11.85,11.85,0,0,1,.77-3.37.67.67,0,0,1,.88-.38.69.69,0,0,1,.39.88,10.62,10.62,0,0,0-.68,3A.68.68,0,0,1,221.69,158.67Zm20.41-1.07a.67.67,0,0,1-.65-.49,11.27,11.27,0,0,0-1.29-2.79.68.68,0,0,1,1.15-.74,12.8,12.8,0,0,1,1.44,3.14.68.68,0,0,1-.45.85Zm-17.58-5.25a.66.66,0,0,1-.5-.22.67.67,0,0,1,0-1,8.36,8.36,0,0,1,3-1.8.67.67,0,0,1,.57,0,.69.69,0,0,1,.43-.37,14.7,14.7,0,0,1,3.38-.55.68.68,0,1,1,.05,1.36,13.65,13.65,0,0,0-3.06.5.65.65,0,0,1-.53-.06.64.64,0,0,1-.4.35,7.4,7.4,0,0,0-2.55,1.52A.67.67,0,0,1,224.52,152.35Zm13.63-.51a.66.66,0,0,1-.4-.13,9.23,9.23,0,0,0-2.7-1.39.69.69,0,0,1-.44-.86.68.68,0,0,1,.86-.44,10.45,10.45,0,0,1,3.09,1.6.67.67,0,0,1,.14.95A.67.67,0,0,1,238.15,151.84Z"/><path class="cls-6" d="M164.6,76.42c4.61-4.61,14.42-3.17,11.25,4.33s-10.39,15.67,9.22,22,59.78,2.68,73.31-4.36,10.05-17.66,7.74-21.12-.29-14.31,9.23-9.46,18.17,28.78.86,44.64c-23.2,21.28-89.53,28.16-113.44,6.73C148.8,106.68,157.68,83.34,164.6,76.42Z"/><path class="cls-7" d="M209.31,133.2c-20.86,0-37.61-4.72-47.17-13.28-4.84-4.34-7.51-10.45-7.7-17.65-.29-10.38,4.6-21.64,9.48-26.52a10.37,10.37,0,0,1,7.21-2.92,6.39,6.39,0,0,1,5.51,2.49c.71,1.07,1.3,2.94.09,5.8-.41,1-.89,1.94-1.35,2.89-1.74,3.59-3.38,7-2,10.1s5.21,5.55,12,7.75c6.52,2.12,15.74,3.23,26.67,3.23,18.22,0,37.53-3.16,45.91-7.52,5-2.6,8-5.91,9-9.85a12.88,12.88,0,0,0-1.65-9.9c-1.41-2.11-1.37-6,.08-8.74A6.12,6.12,0,0,1,271,65.65,10.65,10.65,0,0,1,275.78,67c5.33,2.71,9.86,10.52,11,19a30.53,30.53,0,0,1-9.94,27.22C263.79,125.16,236.65,133.2,209.31,133.2ZM171.13,74.74a8.43,8.43,0,0,0-5.86,2.36c-4.5,4.5-9.19,15.38-8.93,25.11.19,6.77,2.57,12.25,7.07,16.28,9.21,8.26,25.51,12.8,45.9,12.8,26.89,0,53.52-7.84,66.26-19.52a28.64,28.64,0,0,0,9.33-25.55c-1.07-7.88-5.18-15.1-10-17.54-3.63-1.85-6.38-1.4-7.83,1.3-1.23,2.3-1.08,5.42-.18,6.78a14.86,14.86,0,0,1,1.92,11.44c-1.15,4.48-4.52,8.2-10,11.06C250.2,103.75,230.52,107,212,107c-11.13,0-20.55-1.15-27.26-3.32-7.36-2.38-11.68-5.27-13.19-8.82-1.68-3.93.24-7.87,2.09-11.68.47-1,.91-1.89,1.3-2.8.69-1.65.72-3,.08-4A4.63,4.63,0,0,0,171.13,74.74Z"/><path class="cls-7" d="M210.21,128.68h-1.36a.68.68,0,0,1,0-1.36h3.26a.68.68,0,1,1,0,1.36Zm-5.17-.11h0c-1.09,0-2.2-.1-3.29-.18a.68.68,0,0,1-.63-.73.7.7,0,0,1,.73-.63c1.07.07,2.17.13,3.25.18a.68.68,0,0,1,.65.71A.69.69,0,0,1,205,128.57Zm10.91,0a.68.68,0,0,1-.68-.65.69.69,0,0,1,.65-.71l3.26-.18a.68.68,0,0,1,.73.63.69.69,0,0,1-.64.73c-1.1.07-2.2.14-3.28.18Zm-18-.48h-.08c-1.09-.12-2.2-.25-3.27-.4a.69.69,0,0,1-.58-.77.68.68,0,0,1,.77-.58c1.06.14,2.14.28,3.23.39a.68.68,0,0,1-.07,1.36ZM223,128a.68.68,0,0,1-.68-.61.69.69,0,0,1,.62-.75c1.07-.1,2.16-.22,3.24-.35a.68.68,0,0,1,.75.6.68.68,0,0,1-.59.76c-1.09.13-2.19.25-3.27.35Zm7-.86a.68.68,0,0,1-.1-1.35c1.08-.16,2.17-.34,3.22-.52a.68.68,0,0,1,.78.56.67.67,0,0,1-.55.78c-1.06.19-2.15.36-3.25.53Zm-39.13-.12h-.12c-1.09-.2-2.18-.41-3.23-.65a.68.68,0,0,1,.29-1.33c1,.23,2.11.45,3.18.64a.68.68,0,0,1-.12,1.35Zm46.12-1.1a.68.68,0,0,1-.14-1.35c1.07-.22,2.14-.45,3.18-.69a.68.68,0,1,1,.31,1.33c-1.06.24-2.14.47-3.22.69Zm-53-.46a.57.57,0,0,1-.18,0c-1.08-.3-2.15-.62-3.17-1a.68.68,0,0,1,.43-1.3c1,.33,2,.65,3.1,1a.68.68,0,0,1-.18,1.34ZM244,124.35a.68.68,0,0,1-.18-1.34c1.05-.28,2.11-.57,3.14-.88a.68.68,0,0,1,.38,1.31c-1,.31-2.1.61-3.17.89Zm-66.66-1.13a.74.74,0,0,1-.25,0c-1.05-.43-2.07-.89-3-1.36a.68.68,0,0,1,.6-1.23c.94.46,1.93.91,2.94,1.33a.69.69,0,0,1,.38.89A.7.7,0,0,1,177.31,123.22Zm73.45-.9a.68.68,0,0,1-.21-1.32c1-.35,2.06-.72,3.06-1.09a.68.68,0,1,1,.48,1.28c-1,.38-2.06.75-3.11,1.1A.78.78,0,0,1,250.76,122.32ZM171,120a.64.64,0,0,1-.35-.1c-1-.6-1.9-1.23-2.76-1.88a.68.68,0,0,1-.14-1,.7.7,0,0,1,1-.14c.83.63,1.72,1.23,2.65,1.81a.68.68,0,0,1,.23.93A.7.7,0,0,1,171,120Zm86.42-.22a.69.69,0,0,1-.63-.41.7.7,0,0,1,.36-.9c1-.43,2-.87,3-1.33a.68.68,0,1,1,.59,1.23c-1,.47-2,.92-3,1.36A.86.86,0,0,1,257.4,119.82Zm6.39-3.08a.68.68,0,0,1-.33-1.28c1-.53,1.9-1.08,2.79-1.63A.68.68,0,1,1,267,115c-.9.57-1.87,1.14-2.85,1.68A.8.8,0,0,1,263.79,116.74Zm-98.4-1a.69.69,0,0,1-.48-.2,22.06,22.06,0,0,1-2.18-2.58.67.67,0,0,1,.15-1,.68.68,0,0,1,1,.15,20.35,20.35,0,0,0,2,2.42.69.69,0,0,1-.49,1.16Zm104.37-2.78a.67.67,0,0,1-.54-.27.68.68,0,0,1,.14-1q1.26-.95,2.37-1.92l.11-.11a.69.69,0,0,1,1,.06.68.68,0,0,1-.06,1l-.12.11c-.76.67-1.59,1.34-2.46,2A.67.67,0,0,1,269.76,112.93Zm-56.4-1.16-2.23,0a.69.69,0,0,1,0-1.37h0l2.29,0h1a.68.68,0,0,1,.68.68.7.7,0,0,1-.68.69Zm4.88-.09a.69.69,0,0,1,0-1.37c1.07,0,2.17-.09,3.25-.16a.68.68,0,1,1,.09,1.36c-1.1.07-2.2.12-3.29.17Zm-10.92-.07h0c-1.1-.06-2.21-.13-3.29-.22a.69.69,0,0,1-.62-.74.67.67,0,0,1,.73-.62c1.07.09,2.16.16,3.25.22a.68.68,0,0,1,0,1.36Zm18-.4a.67.67,0,0,1-.67-.62.68.68,0,0,1,.61-.74c1.07-.1,2.16-.21,3.24-.33a.68.68,0,0,1,.76.59.69.69,0,0,1-.6.76c-1.09.13-2.19.24-3.27.34ZM200.26,111h-.08c-1.1-.13-2.2-.29-3.27-.46a.68.68,0,0,1-.57-.78.67.67,0,0,1,.78-.56c1.06.16,2.14.32,3.22.45a.68.68,0,0,1,.6.76A.7.7,0,0,1,200.26,111Zm32.1-.62a.68.68,0,0,1-.1-1.35c1.07-.16,2.15-.33,3.22-.51a.68.68,0,0,1,.23,1.35c-1.08.18-2.17.35-3.25.51Zm-71-.45a.71.71,0,0,1-.62-.39,22.58,22.58,0,0,1-1.19-3.16.68.68,0,0,1,.46-.85.7.7,0,0,1,.85.47,20.26,20.26,0,0,0,1.12,3,.68.68,0,0,1-.33.9A.59.59,0,0,1,161.34,109.93Zm31.92-.07h-.14c-1.08-.22-2.16-.47-3.22-.73a.68.68,0,0,1,.33-1.32c1,.26,2.1.49,3.17.71a.69.69,0,0,1,.53.81A.68.68,0,0,1,193.26,109.86Zm46.09-.67a.69.69,0,0,1-.67-.55.68.68,0,0,1,.54-.8c1.06-.21,2.13-.44,3.19-.67a.67.67,0,0,1,.81.51.69.69,0,0,1-.51.82c-1.07.24-2.16.47-3.23.68Zm35.64-1a.7.7,0,0,1-.45-.17.68.68,0,0,1-.07-1,27.48,27.48,0,0,0,2-2.51.68.68,0,0,1,1.12.78,30.12,30.12,0,0,1-2.06,2.63A.67.67,0,0,1,275,108.16Zm-88.6,0a.64.64,0,0,1-.2,0c-1.07-.32-2.13-.67-3.14-1a.69.69,0,0,1-.41-.88.68.68,0,0,1,.87-.41c1,.36,2,.7,3.07,1a.68.68,0,0,1,.46.85A.68.68,0,0,1,186.39,108.13Zm59.88-.52a.68.68,0,0,1-.17-1.34c1.07-.28,2.12-.57,3.13-.86a.68.68,0,0,1,.85.46.67.67,0,0,1-.46.84c-1,.31-2.09.6-3.18.88A.5.5,0,0,1,246.27,107.61Zm-66.54-1.9a.86.86,0,0,1-.27,0c-1.06-.46-2.08-.92-3-1.39a.68.68,0,1,1,.61-1.22c.91.45,1.9.91,2.93,1.35a.68.68,0,0,1,.36.9A.67.67,0,0,1,179.73,105.71Zm73.34-.13a.68.68,0,0,1-.23-1.32c1.08-.37,2.1-.75,3-1.13a.68.68,0,0,1,.89.37.69.69,0,0,1-.38.89c-1,.39-2,.78-3.1,1.16Zm-93.66-2.45a.69.69,0,0,1-.68-.59,29.13,29.13,0,0,1-.19-3.26v-.1a.69.69,0,0,1,.68-.68h0a.69.69,0,0,1,.67.69v.09a26,26,0,0,0,.19,3.09.69.69,0,0,1-.59.76Zm100.2-.29a.68.68,0,0,1-.32-1.28c1-.51,1.89-1,2.79-1.61a.68.68,0,0,1,.94.21.69.69,0,0,1-.21.94c-.93.59-1.9,1.15-2.89,1.66A.6.6,0,0,1,259.61,102.84Zm-86.19-.36a.69.69,0,0,1-.36-.11,23.11,23.11,0,0,1-2.72-2,.68.68,0,0,1,.89-1,21.23,21.23,0,0,0,2.56,1.87.68.68,0,0,1-.37,1.26ZM279,102.31a.71.71,0,0,1-.31-.08.68.68,0,0,1-.29-.91,26.93,26.93,0,0,0,1.26-2.93.69.69,0,1,1,1.29.47,26.91,26.91,0,0,1-1.34,3.07A.68.68,0,0,1,279,102.31ZM265.56,99a.7.7,0,0,1-.54-.26.68.68,0,0,1,.12-1,31.35,31.35,0,0,0,2.41-2.11.68.68,0,0,1,1,0,.67.67,0,0,1,0,1,32.27,32.27,0,0,1-2.52,2.2A.66.66,0,0,1,265.56,99Zm-97.28-1.32a.68.68,0,0,1-.58-.33A8.07,8.07,0,0,1,166.53,94a.68.68,0,1,1,1.35-.15,6.69,6.69,0,0,0,1,2.78.67.67,0,0,1-.23.94A.64.64,0,0,1,168.28,97.69Zm-8.79-1.63h-.09a.68.68,0,0,1-.59-.76c.15-1.09.36-2.2.62-3.29a.68.68,0,0,1,1.33.32,29.57,29.57,0,0,0-.6,3.15A.68.68,0,0,1,159.49,96.06Zm121.82-.42-.14,0a.68.68,0,0,1-.52-.81,27.47,27.47,0,0,0,.46-3.15.69.69,0,0,1,.74-.62.67.67,0,0,1,.62.74A28.57,28.57,0,0,1,282,95.1.68.68,0,0,1,281.31,95.64ZM270.56,94a.64.64,0,0,1-.41-.14.68.68,0,0,1-.14-1,16.62,16.62,0,0,0,1.66-2.67.68.68,0,0,1,1.22.6,18.15,18.15,0,0,1-1.79,2.89A.65.65,0,0,1,270.56,94ZM167.69,90.87l-.22,0a.69.69,0,0,1-.42-.87,19,19,0,0,1,1.4-3.08.68.68,0,1,1,1.2.66,17.65,17.65,0,0,0-1.31,2.86A.67.67,0,0,1,167.69,90.87Zm-6.49-1.68a.67.67,0,0,1-.24,0,.69.69,0,0,1-.4-.88,31.06,31.06,0,0,1,1.3-3.07.68.68,0,1,1,1.23.59c-.46.95-.88,1.94-1.25,2.95A.68.68,0,0,1,161.2,89.19Zm120.67-.6a.69.69,0,0,1-.68-.65,28.34,28.34,0,0,0-.34-3.18.68.68,0,0,1,.56-.78.69.69,0,0,1,.79.56,28.7,28.7,0,0,1,.35,3.33.68.68,0,0,1-.65.72Zm-8.47-1h-.08a.68.68,0,0,1-.6-.76c0-.31,0-.62,0-.92a7.36,7.36,0,0,0-.29-2,.67.67,0,0,1,.46-.84.68.68,0,0,1,.85.45,8.62,8.62,0,0,1,.35,2.44,8,8,0,0,1-.07,1.08A.68.68,0,0,1,273.4,87.59Zm-102.47-3a.66.66,0,0,1-.27-.06.68.68,0,0,1-.35-.89,6.83,6.83,0,0,0,.56-2.63,2.26,2.26,0,0,0,0-.26.68.68,0,1,1,1.36-.06c0,.1,0,.21,0,.32a8.09,8.09,0,0,1-.67,3.17A.67.67,0,0,1,170.93,84.58Zm-6.56-1.72a.66.66,0,0,1-.38-.12.67.67,0,0,1-.19-.94,19.3,19.3,0,0,1,2.11-2.66.54.54,0,0,1,.22-.15.73.73,0,0,1,.16-.23,4.6,4.6,0,0,1,3.37-1.63.68.68,0,0,1,.62.74.67.67,0,0,1-.73.62,3.46,3.46,0,0,0-2.31,1.25.64.64,0,0,0-.35.35,18.69,18.69,0,0,0-2,2.47A.68.68,0,0,1,164.37,82.86Zm116.27-1.24a.68.68,0,0,1-.65-.48,24.28,24.28,0,0,0-1.16-3,.69.69,0,0,1,.33-.91.68.68,0,0,1,.9.33,25.45,25.45,0,0,1,1.23,3.13.69.69,0,0,1-.45.86Zm-9-.79a.69.69,0,0,1-.64-.43A29.6,29.6,0,0,1,270,77.22a.67.67,0,0,1,.48-.83.68.68,0,0,1,.84.48,26.87,26.87,0,0,0,1,3,.67.67,0,0,1-.38.88A.56.56,0,0,1,271.66,80.83Zm5.84-5.54A.67.67,0,0,1,277,75a11.78,11.78,0,0,0-2.13-2.24.66.66,0,0,1-.11-1,.67.67,0,0,1,.95-.12,12.92,12.92,0,0,1,2.38,2.49.69.69,0,0,1-.14,1A.67.67,0,0,1,277.5,75.29ZM270.1,74h0a.69.69,0,0,1-.65-.72c.13-2.51,1.5-3,2.31-3.08a.69.69,0,0,1,.74.62.68.68,0,0,1-.62.74c-.24,0-1,.09-1.06,1.79A.68.68,0,0,1,270.1,74Z"/><path class="cls-8" d="M164.28,84c1.43-2.83,5.11-2.29,3.52,1.76s-9.51,15.5,15.5,23.07,56.36,4.58,72.21-1.93,22.72-16.58,19.55-24.76,3.48-7.44,5.11,0c2.21,10.13,2.11,28.51-40,38.87C204,129.89,143,126.09,164.28,84Z"/><path class="cls-9" d="M175,106.58c-8.25-3.84-9.76,4,2,10.41s28.08,4.54,28.31-.35S192.56,114.73,175,106.58Z"/><path class="cls-1" d="M47.87,51c-11.74,3.46-12.76,20.12-5.54,25.19,11.37,8,24.33,4.63,26.26-7.92C70,59.26,59.3,47.61,47.87,51Z"/><path class="cls-1" d="M79.82,46.26c-11.74,3.45-12.76,20.12-5.54,25.18,11.37,8,24.33,4.64,26.26-7.91C101.92,54.54,91.25,42.9,79.82,46.26Z"/><path class="cls-1" d="M10.64,86.6c4.83-4.83,15.08-3.32,11.77,4.53s-10.87,16.4,9.64,23,62.52,2.81,76.67-4.56,10.52-18.48,8.1-22.1-.3-15,9.65-9.9,19,30.12.91,46.71c-24.27,22.26-93.65,29.46-118.65,7.05C-5.89,118.26,3.4,93.84,10.64,86.6Z"/><path class="cls-10" d="M47.87,44.69c-11.74,3.45-12.76,20.12-5.54,25.19,11.37,8,24.33,4.63,26.26-7.92C70,53,59.3,41.33,47.87,44.69Z"/><path class="cls-11" d="M54.79,75.19h0a22.91,22.91,0,0,1-13-4.5C38,68,36.06,62.28,37,56.39c1-6.28,5-11,10.56-12.66A15.43,15.43,0,0,1,52,43.1a17.93,17.93,0,0,1,13.42,6.58c3.25,3.79,4.82,8.44,4.2,12.43C68.33,70.18,62.67,75.19,54.79,75.19ZM52,45.1a13.33,13.33,0,0,0-3.8.55C43.32,47.07,39.9,51.21,39,56.71c-.85,5.15.72,10.12,3.91,12.35a20.93,20.93,0,0,0,11.88,4.13c6.82,0,11.73-4.36,12.81-11.38.53-3.43-.87-7.48-3.75-10.83A15.91,15.91,0,0,0,52,45.1Z"/><path class="cls-12" d="M51,49.65c-8.05.69-9.73,18.18,3.7,16.27C64.85,64.47,65.13,48.44,51,49.65Z"/><path class="cls-11" d="M52.93,71.56c-.23,0-.45,0-.67,0a.71.71,0,0,1,.09-1.42,9.88,9.88,0,0,0,2.57-.19l.61-.13a.71.71,0,0,1,.34,1.38c-.22.06-.44.11-.67.15A11.14,11.14,0,0,1,52.93,71.56ZM48.5,70.45a.72.72,0,0,1-.34-.09,10.92,10.92,0,0,1-2.85-2.27.72.72,0,0,1,1.06-1,9.29,9.29,0,0,0,2.48,2,.71.71,0,0,1-.35,1.34Zm10.87-.77A.72.72,0,0,1,59,68.36a9.63,9.63,0,0,0,2.39-2.1.71.71,0,0,1,1.1.9,11.08,11.08,0,0,1-2.73,2.41A.76.76,0,0,1,59.37,69.68ZM43.69,65a.73.73,0,0,1-.66-.42A15.82,15.82,0,0,1,42,61.14a.71.71,0,0,1,.56-.84.72.72,0,0,1,.84.57,13.65,13.65,0,0,0,1,3.1.73.73,0,0,1-.36,1A.79.79,0,0,1,43.69,65ZM63.8,63.92l-.22,0a.71.71,0,0,1-.46-.89,11.54,11.54,0,0,0,.5-3.17.73.73,0,0,1,.73-.7.71.71,0,0,1,.7.72,12.4,12.4,0,0,1-.57,3.57A.71.71,0,0,1,63.8,63.92ZM42.43,57.74h-.06a.72.72,0,0,1-.65-.77,12.82,12.82,0,0,1,.8-3.53.71.71,0,0,1,1.33.52,11.55,11.55,0,0,0-.71,3.13A.71.71,0,0,1,42.43,57.74Zm21.35-1.13a.72.72,0,0,1-.69-.5,11.63,11.63,0,0,0-1.34-2.93.71.71,0,0,1,1.2-.77,13.59,13.59,0,0,1,1.51,3.28.72.72,0,0,1-.47.89ZM45.39,51.12a.7.7,0,0,1-.52-.22.71.71,0,0,1,0-1A8.92,8.92,0,0,1,48.08,48a.71.71,0,0,1,.59.06.75.75,0,0,1,.46-.39,15.48,15.48,0,0,1,3.53-.58.72.72,0,0,1,.06,1.43,13.88,13.88,0,0,0-3.21.53A.74.74,0,0,1,49,49a.71.71,0,0,1-.41.37,7.39,7.39,0,0,0-2.67,1.58A.72.72,0,0,1,45.39,51.12Zm14.26-.53a.66.66,0,0,1-.42-.14A9.56,9.56,0,0,0,56.41,49a.71.71,0,1,1,.44-1.36,11,11,0,0,1,3.23,1.67.71.71,0,0,1-.43,1.28Z"/><path class="cls-10" d="M79.82,40c-11.74,3.46-12.76,20.12-5.54,25.19,11.37,8,24.33,4.63,26.26-7.92C101.92,48.26,91.25,36.61,79.82,40Z"/><path class="cls-11" d="M86.74,70.47h0a22.9,22.9,0,0,1-13-4.49c-3.8-2.67-5.7-8.41-4.73-14.3,1-6.29,5-11,10.56-12.67a15.43,15.43,0,0,1,4.36-.63A17.93,17.93,0,0,1,97.32,45c3.25,3.79,4.82,8.44,4.2,12.43C100.28,65.46,94.62,70.47,86.74,70.47ZM83.9,40.38a13.7,13.7,0,0,0-3.8.55C75.27,42.35,71.85,46.49,71,52c-.85,5.15.72,10.11,3.9,12.34a21,21,0,0,0,11.89,4.13c6.82,0,11.73-4.36,12.81-11.38.53-3.43-.87-7.47-3.75-10.83A15.91,15.91,0,0,0,83.9,40.38Z"/><path class="cls-12" d="M82.52,45.19c-9,1.2-9.34,17.92,4.09,16C96.8,59.76,97.54,43.2,82.52,45.19Z"/><path class="cls-11" d="M84.88,66.85l-.67,0a.72.72,0,0,1,.09-1.43,10.31,10.31,0,0,0,2.57-.18l.61-.14a.71.71,0,0,1,.86.52.72.72,0,0,1-.52.87l-.67.15A11.89,11.89,0,0,1,84.88,66.85Zm-4.43-1.12a.84.84,0,0,1-.34-.08,11,11,0,0,1-2.85-2.28.72.72,0,0,1,0-1,.71.71,0,0,1,1,.06,9.36,9.36,0,0,0,2.47,2,.71.71,0,0,1-.34,1.34ZM91.32,65a.71.71,0,0,1-.38-1.31,9.81,9.81,0,0,0,2.38-2.1.72.72,0,0,1,1-.11.72.72,0,0,1,.1,1,11,11,0,0,1-2.73,2.4A.67.67,0,0,1,91.32,65Zm-15.69-4.7a.72.72,0,0,1-.65-.42,15.82,15.82,0,0,1-1.07-3.42.71.71,0,0,1,1.39-.27,14.45,14.45,0,0,0,1,3.11.71.71,0,0,1-.36.94A.8.8,0,0,1,75.63,60.26Zm20.12-1a.76.76,0,0,1-.21,0,.72.72,0,0,1-.47-.9,11.48,11.48,0,0,0,.5-3.17.74.74,0,0,1,.73-.7.72.72,0,0,1,.7.72,12.53,12.53,0,0,1-.57,3.58A.73.73,0,0,1,95.75,59.21ZM74.38,53h-.06a.72.72,0,0,1-.65-.77,12.91,12.91,0,0,1,.8-3.53.72.72,0,0,1,1.33.53,10.7,10.7,0,0,0-.71,3.12A.71.71,0,0,1,74.38,53ZM95.73,51.9a.73.73,0,0,1-.69-.51,11.57,11.57,0,0,0-1.34-2.92.71.71,0,1,1,1.2-.77A13.42,13.42,0,0,1,96.41,51a.72.72,0,0,1-.48.89A.69.69,0,0,1,95.73,51.9ZM77.34,46.41a.72.72,0,0,1-.48-1.24A8.92,8.92,0,0,1,80,43.28a.71.71,0,0,1,.59.06.7.7,0,0,1,.46-.38,15,15,0,0,1,3.53-.58.71.71,0,0,1,.06,1.42,13.88,13.88,0,0,0-3.21.53.74.74,0,0,1-.55-.07.68.68,0,0,1-.41.37,7.54,7.54,0,0,0-2.68,1.59A.73.73,0,0,1,77.34,46.41Zm14.26-.53a.71.71,0,0,1-.42-.14,9.83,9.83,0,0,0-2.82-1.46.71.71,0,0,1-.46-.9.72.72,0,0,1,.9-.46A11.27,11.27,0,0,1,92,44.59a.72.72,0,0,1-.43,1.29Z"/><path class="cls-10" d="M10.64,80.32c4.83-4.83,15.08-3.32,11.77,4.53s-10.87,16.39,9.64,23,62.52,2.81,76.67-4.56,10.52-18.48,8.1-22.11-.3-15,9.65-9.89,19,30.11.91,46.71c-24.27,22.26-93.65,29.46-118.65,7C-5.89,112,3.4,87.56,10.64,80.32Z"/><path class="cls-11" d="M57.4,139.73c-21.81,0-39.33-4.94-49.33-13.9C3,121.29.22,114.9,0,107.36-.29,96.5,4.82,84.73,9.94,79.61a10.83,10.83,0,0,1,7.53-3c2.57,0,4.67,1,5.76,2.61.74,1.12,1.36,3.08.1,6.06-.43,1-.93,2-1.41,3C20.1,92,18.38,95.55,19.78,98.83s5.46,5.8,12.58,8.11c6.82,2.21,16.46,3.38,27.89,3.38,19.06,0,39.25-3.31,48-7.87,5.22-2.72,8.4-6.19,9.46-10.31A13.49,13.49,0,0,0,116,81.78c-1.47-2.21-1.43-6.31.09-9.14a6.4,6.4,0,0,1,5.82-3.59,11.21,11.21,0,0,1,5,1.39c5.57,2.84,10.31,11,11.52,19.86a31.93,31.93,0,0,1-10.4,28.48C114.39,131.31,86,139.73,57.4,139.73ZM17.47,78.56A8.77,8.77,0,0,0,11.35,81C6.64,85.74,1.73,97.12,2,107.31c.19,7.08,2.68,12.81,7.39,17,9.63,8.64,26.68,13.39,48,13.39,28.13,0,56-8.21,69.3-20.43a30,30,0,0,0,9.77-26.73c-1.13-8.24-5.42-15.79-10.45-18.35-3.79-1.93-6.67-1.46-8.18,1.36-1.29,2.41-1.13,5.67-.19,7.09a15.6,15.6,0,0,1,2,12c-1.21,4.69-4.73,8.59-10.48,11.58-9,4.69-29.59,8.1-48.93,8.1-11.64,0-21.49-1.21-28.51-3.48-7.7-2.5-12.22-5.51-13.8-9.23-1.75-4.11.25-8.23,2.18-12.22.5-1,1-2,1.37-2.93.73-1.72.75-3.17.08-4.19A4.82,4.82,0,0,0,17.47,78.56Z"/><path class="cls-11" d="M58.57,135.63H57.09a.72.72,0,0,1,0-1.43h0c1.13,0,2.27,0,3.41,0h0a.72.72,0,0,1,0,1.43Zm-5.46-.13h0c-1.15-.05-2.31-.12-3.44-.2a.71.71,0,0,1-.65-.77.7.7,0,0,1,.76-.65c1.11.08,2.26.15,3.4.2a.71.71,0,0,1,0,1.42Zm11.41,0a.72.72,0,0,1,0-1.43c1.12-.05,2.27-.12,3.4-.2a.74.74,0,0,1,.77.66.73.73,0,0,1-.67.77c-1.14.08-2.3.15-3.43.2Zm7.4-.54a.72.72,0,0,1-.07-1.43c1.12-.11,2.26-.24,3.39-.38a.7.7,0,0,1,.79.62.71.71,0,0,1-.61.8c-1.15.14-2.3.27-3.42.38Zm-26.21,0h-.08c-1.15-.13-2.3-.28-3.42-.44a.71.71,0,0,1-.6-.81.7.7,0,0,1,.81-.6c1.1.16,2.24.31,3.37.44a.71.71,0,0,1-.08,1.42ZM79.28,134a.71.71,0,0,1-.11-1.42c1.12-.17,2.25-.36,3.36-.56a.71.71,0,1,1,.25,1.4c-1.12.21-2.26.4-3.39.57Zm-40.9-.19-.14,0c-1.14-.22-2.28-.46-3.37-.72a.7.7,0,0,1-.53-.86.72.72,0,0,1,.85-.53c1.08.26,2.2.5,3.32.71a.72.72,0,0,1-.13,1.42Zm48.2-1.14a.72.72,0,0,1-.7-.57.7.7,0,0,1,.55-.84c1.11-.24,2.23-.49,3.32-.75a.71.71,0,1,1,.33,1.39c-1.1.26-2.23.51-3.36.75Zm-55.41-.6a.64.64,0,0,1-.2,0c-1.12-.32-2.23-.68-3.3-1.05a.71.71,0,1,1,.47-1.35c1.05.36,2.13.71,3.23,1a.72.72,0,0,1,.48.89A.7.7,0,0,1,31.17,132.08Zm62.62-1.14a.72.72,0,0,1-.69-.53.71.71,0,0,1,.5-.87c1.1-.3,2.2-.62,3.27-.95a.71.71,0,0,1,.89.48.7.7,0,0,1-.47.89c-1.09.33-2.2.65-3.31.95A.63.63,0,0,1,93.79,130.94ZM24.18,129.6a.71.71,0,0,1-.28-.06c-1.08-.46-2.14-1-3.14-1.47a.71.71,0,1,1,.64-1.27c1,.5,2,1,3.06,1.43a.71.71,0,0,1,.38.93A.73.73,0,0,1,24.18,129.6Zm76.7-.84a.7.7,0,0,1-.67-.48.72.72,0,0,1,.44-.91c1.09-.37,2.16-.76,3.2-1.15a.71.71,0,1,1,.51,1.33c-1,.4-2.14.79-3.24,1.17A.67.67,0,0,1,100.88,128.76ZM17.6,126.19a.67.67,0,0,1-.38-.11c-1-.62-2-1.28-2.87-2a.72.72,0,0,1-.15-1,.71.71,0,0,1,1-.14c.88.65,1.81,1.29,2.78,1.89a.71.71,0,0,1-.38,1.32Zm90.21-.1a.72.72,0,0,1-.66-.43.7.7,0,0,1,.37-.93c1.06-.46,2.1-.93,3.09-1.41a.73.73,0,0,1,1,.33.71.71,0,0,1-.34.95c-1,.49-2.07,1-3.14,1.44A.69.69,0,0,1,107.81,126.09Zm6.66-3.24a.71.71,0,0,1-.34-1.34c1-.56,2-1.13,2.92-1.71a.71.71,0,0,1,1,.22.72.72,0,0,1-.22,1c-1,.59-2,1.18-3,1.75A.73.73,0,0,1,114.47,122.85ZM11.73,121.68a.74.74,0,0,1-.5-.2,23.35,23.35,0,0,1-2.33-2.66.72.72,0,0,1,1.15-.85,21.24,21.24,0,0,0,2.18,2.49.71.71,0,0,1-.5,1.22Zm109-2.8a.72.72,0,0,1-.43-1.29q1.41-1,2.64-2.1a.7.7,0,0,1,1,.07.71.71,0,0,1-.07,1c-.84.73-1.76,1.46-2.72,2.17A.75.75,0,0,1,120.74,118.88Zm-61.32-2.26a.71.71,0,1,1,0-1.42c1.12,0,2.26,0,3.41,0h0a.72.72,0,0,1,0,1.43c-1.15,0-2.31,0-3.44,0Zm-4-.05h0c-1.15,0-2.31-.08-3.44-.15a.72.72,0,1,1,.09-1.43c1.11.07,2.25.12,3.4.16a.72.72,0,0,1,0,1.43Zm11.41-.15a.71.71,0,0,1,0-1.42c1.13-.06,2.27-.13,3.4-.22a.72.72,0,0,1,.77.66.71.71,0,0,1-.66.76c-1.14.09-2.3.16-3.44.22ZM48,116.1H48c-1.16-.11-2.31-.24-3.42-.39a.71.71,0,0,1,.19-1.41c1.09.14,2.23.27,3.37.38A.72.72,0,0,1,48,116.1Zm26.21-.24a.72.72,0,0,1-.07-1.43c1.14-.11,2.28-.24,3.39-.37a.73.73,0,0,1,.8.62.7.7,0,0,1-.62.79c-1.13.14-2.27.27-3.42.38Zm-66.84-.15a.73.73,0,0,1-.64-.4A24.64,24.64,0,0,1,5.44,112a.72.72,0,0,1,1.37-.43A21.69,21.69,0,0,0,8,114.68a.7.7,0,0,1-.32.95A.72.72,0,0,1,7.39,115.71Zm33.29-.62h-.13c-1.15-.2-2.29-.43-3.38-.68a.71.71,0,0,1,.31-1.39c1.08.24,2.19.47,3.32.67a.71.71,0,0,1-.12,1.41ZM81.6,115a.71.71,0,0,1-.1-1.42c1.14-.17,2.26-.34,3.37-.53a.71.71,0,1,1,.23,1.41c-1.11.19-2.25.36-3.4.53Zm44.67-1a.7.7,0,0,1-.48-.19.71.71,0,0,1,0-1,32.12,32.12,0,0,0,2.1-2.59.71.71,0,0,1,1-.17.72.72,0,0,1,.16,1,29.73,29.73,0,0,1-2.2,2.72A.69.69,0,0,1,126.27,114Zm-37.35-.25a.71.71,0,0,1-.14-1.41c1.13-.22,2.26-.45,3.34-.68a.71.71,0,1,1,.3,1.39c-1.09.24-2.23.47-3.37.69Zm-55.47-.27a.63.63,0,0,1-.19,0c-1.13-.32-2.24-.67-3.31-1a.71.71,0,1,1,.47-1.35c1,.36,2.13.7,3.23,1a.71.71,0,0,1,.49.88A.73.73,0,0,1,33.45,113.44Zm62.71-1.31a.72.72,0,0,1-.69-.55.71.71,0,0,1,.52-.86c1.13-.28,2.24-.57,3.3-.86a.71.71,0,0,1,.88.49.72.72,0,0,1-.5.88c-1.07.3-2.19.59-3.33.87A.57.57,0,0,1,96.16,112.13ZM26.46,111a.69.69,0,0,1-.28,0c-1.12-.48-2.18-1-3.14-1.45a.71.71,0,0,1,.63-1.28c.95.47,2,.95,3.07,1.41a.71.71,0,0,1-.28,1.37Zm76.85-.85a.73.73,0,0,1-.68-.5.71.71,0,0,1,.46-.9c1.15-.37,2.22-.75,3.19-1.13a.71.71,0,1,1,.51,1.33c-1,.39-2.08.78-3.26,1.16A.85.85,0,0,1,103.31,110.11Zm-98-1.48a.71.71,0,0,1-.7-.62,26.68,26.68,0,0,1-.26-3.5.72.72,0,0,1,.71-.72H5a.71.71,0,0,1,.71.71A25.81,25.81,0,0,0,6,107.82a.71.71,0,0,1-.61.8Zm125.26-.73a.8.8,0,0,1-.33-.08.7.7,0,0,1-.3-1,28.63,28.63,0,0,0,1.36-3,.71.71,0,1,1,1.33.5,29.62,29.62,0,0,1-1.43,3.21A.71.71,0,0,1,130.52,107.9Zm-110.65-.32a.67.67,0,0,1-.38-.11,24.32,24.32,0,0,1-2.84-2.08.71.71,0,1,1,.93-1.08,23.42,23.42,0,0,0,2.67,2,.7.7,0,0,1,.22,1A.68.68,0,0,1,19.87,107.58Zm90.3-.27a.72.72,0,0,1-.33-1.35c1-.53,2-1.09,2.92-1.68a.73.73,0,0,1,1,.23.72.72,0,0,1-.23,1c-1,.61-2,1.19-3,1.74A.73.73,0,0,1,110.17,107.31Zm6.25-4a.71.71,0,0,1-.56-.27.71.71,0,0,1,.12-1,31.2,31.2,0,0,0,2.55-2.18.72.72,0,0,1,1,0,.71.71,0,0,1,0,1c-.81.77-1.7,1.54-2.65,2.28A.72.72,0,0,1,116.42,103.32Zm-101.93-.75a.72.72,0,0,1-.61-.34,8.4,8.4,0,0,1-1.22-3.49.71.71,0,0,1,1.42-.16,7.06,7.06,0,0,0,1,2.91.7.7,0,0,1-.24,1A.69.69,0,0,1,14.49,102.57Zm-9.24-1.34H5.16a.7.7,0,0,1-.62-.79c.14-1.14.35-2.3.61-3.45a.71.71,0,0,1,1.39.32A32.15,32.15,0,0,0,6,100.6.73.73,0,0,1,5.25,101.23ZM133,100.94h-.16a.72.72,0,0,1-.54-.85,27.94,27.94,0,0,0,.5-3.3.71.71,0,0,1,1.42.13,28.76,28.76,0,0,1-.53,3.47A.71.71,0,0,1,133,100.94Zm-11.35-2.81a.7.7,0,0,1-.43-.15.7.7,0,0,1-.14-1,16.25,16.25,0,0,0,1.7-2.8.71.71,0,0,1,1.29.6,17.14,17.14,0,0,1-1.85,3A.72.72,0,0,1,121.69,98.13ZM13.88,95.44a.59.59,0,0,1-.23,0,.72.72,0,0,1-.45-.9,20.81,20.81,0,0,1,1.47-3.23.72.72,0,0,1,1-.28.71.71,0,0,1,.28,1,18.86,18.86,0,0,0-1.37,3A.71.71,0,0,1,13.88,95.44ZM7,94a.67.67,0,0,1-.24,0,.71.71,0,0,1-.43-.91,34.17,34.17,0,0,1,1.33-3.23.71.71,0,0,1,1-.34.71.71,0,0,1,.34,1c-.47,1-.9,2-1.28,3.1A.71.71,0,0,1,7,94Zm126.67-.45a.71.71,0,0,1-.71-.68,28.3,28.3,0,0,0-.35-3.32.71.71,0,0,1,.58-.82.7.7,0,0,1,.82.58,29.32,29.32,0,0,1,.38,3.49.72.72,0,0,1-.68.75Zm-9.15-2.2h0a.71.71,0,0,1-.67-.75c0-.14,0-.28,0-.42a7.4,7.4,0,0,0-.49-2.64.7.7,0,0,1,.4-.92.72.72,0,0,1,.93.4,8.77,8.77,0,0,1,.59,3.16c0,.17,0,.33,0,.5A.71.71,0,0,1,124.48,91.37ZM17.27,88.86A.75.75,0,0,1,17,88.8a.72.72,0,0,1-.37-.94,6.91,6.91,0,0,0,.59-2.75,2.44,2.44,0,0,0,0-.27.72.72,0,0,1,.68-.75.71.71,0,0,1,.74.68c0,.11,0,.22,0,.34a8.41,8.41,0,0,1-.7,3.31A.71.71,0,0,1,17.27,88.86Zm-7.07-1.5a.77.77,0,0,1-.39-.11.71.71,0,0,1-.21-1,21.11,21.11,0,0,1,2.15-2.81.68.68,0,0,1,.44-.23.72.72,0,0,1,.22-.45,4.78,4.78,0,0,1,3.52-1.71.71.71,0,0,1-.12,1.42,3.68,3.68,0,0,0-2.41,1.31A.72.72,0,0,1,13,84a.69.69,0,0,1-.18.42,19.87,19.87,0,0,0-2,2.63A.72.72,0,0,1,10.2,87.36Zm122.15-1.08a.71.71,0,0,1-.68-.5,25.06,25.06,0,0,0-1.2-3.11.72.72,0,0,1,1.3-.6A28.55,28.55,0,0,1,133,85.35a.72.72,0,0,1-.47.9A.76.76,0,0,1,132.35,86.28Zm-10-1.94a.71.71,0,0,1-.66-.46,26.37,26.37,0,0,1-1-3.36.71.71,0,0,1,1.39-.33,26.4,26.4,0,0,0,1,3.19.7.7,0,0,1-.42.91A.7.7,0,0,1,122.38,84.34Zm6.75-4.72a.7.7,0,0,1-.58-.3,13.63,13.63,0,0,0-2.15-2.43.72.72,0,0,1,.94-1.08,15.75,15.75,0,0,1,2.38,2.68.73.73,0,0,1-.17,1A.72.72,0,0,1,129.13,79.62Zm-8.08-2.51h-.12a.71.71,0,0,1-.59-.82,2.63,2.63,0,0,1,3.15-2.48.72.72,0,0,1-.22,1.42l-.32,0c-.3,0-1,0-1.2,1.32A.72.72,0,0,1,121.05,77.11Z"/><path class="cls-12" d="M10.31,88.21c1.49-3,5.34-2.4,3.68,1.84S4.05,106.27,30.2,114.19s59,4.22,75.52-2.6,23.2-17.34,19.88-25.9,3.07-7.79,4.77,0c2.31,10.59,3.92,32.12-40.1,43C52.4,138-11.93,132.29,10.31,88.21Z"/><path class="cls-13" d="M20.7,112.11c-8.63-4-10.21,4.16,2,10.89s29.37,4.75,29.61-.36S39.05,120.65,20.7,112.11Z"/><path class="cls-13" d="M87.82,46.76c-5.64-1.09-10.62,6.06-2.59,8.2S93.45,47.85,87.82,46.76Z"/><path class="cls-13" d="M55.52,51.08c-5.63-1.09-10.61,6.06-2.59,8.2S61.16,52.17,55.52,51.08Z"/></g></g></svg>