<svg xmlns="http://www.w3.org/2000/svg" viewBox="0 0 366.82 146.37"><defs><style>.cls-1{fill:#0d45db;}.cls-2{fill:#fff;}.cls-3{fill:#a426de;}.cls-4{fill:#d069ff;}.cls-5{fill:#f7c00a;}.cls-6{fill:#fff737;}.cls-7{fill:#00aade;}.cls-8{fill:#2eddff;}</style></defs><title>engAsset 70</title><g id="Layer_2" data-name="Layer 2"><g id="Layer_1-2" data-name="Layer 1"><path class="cls-1" d="M227,65.15a33.46,33.46,0,0,0,6-18.82c.21-18.34-14.34-39-34.11-39.23l-38.14-.42c-4.4,0-15,1.74-18.72,19.41l-.14.64-1,91.57c-.11,10.24,9.45,17.23,18.45,17.33l45.26.46.63-.12c22-4.08,36.36-19.5,36.58-39.28C241.93,85.85,236.9,72.89,227,65.15ZM197.74,94.43l0,2.12a21.3,21.3,0,0,1-3.34.17l-9.9-.11.05-4.91,12.25.14A5.51,5.51,0,0,1,197.74,94.43ZM185,51.15l0-2.38,4.77,0a6.83,6.83,0,0,1,.37,2.33v.06Z"/><path class="cls-2" d="M159.27,142.3c-12.23-.13-25.21-9.84-25.05-24.07l1-92.23.27-1.28C140.34,1.58,156.12,0,160.85,0L199,.43c24.29.27,40.95,24.44,40.71,46a40.14,40.14,0,0,1-4.2,17.48,48.12,48.12,0,0,1,13,32.89c-.25,23.11-16.75,41.07-42,45.77l-1.27.24ZM148.58,27.45l-1,90.92c-.07,6.16,6.19,10.52,11.85,10.58l44.59.46c18.73-3.48,30.94-16.35,31.12-32.79.09-8.21-3.66-19.49-12.24-26.21l-5-3.89,3.61-5.18a26.89,26.89,0,0,0,4.82-15.09c.16-14.87-11.82-32.3-27.51-32.47l-38.14-.43c-5.9-.06-10.21,4.94-12.12,14.1Zm45.72,76-16.58-.18.2-18.27,22.35.25,2,2.81a12.16,12.16,0,0,1,2.19,6.5l-.09,7.79-5.61.85A27.54,27.54,0,0,1,194.3,103.4Zm-4.24-45.51-11.83-.14L178.4,42l16.09.18,1.57,4.37a13.29,13.29,0,0,1,.75,4.66l-.07,6.68Z"/><path class="cls-3" d="M227,65.15a33.46,33.46,0,0,0,6-18.82c.21-18.34-14.34-39-34.11-39.23l-38.14-.42c-4.4,0-15,1.74-18.72,19.41l-.14.64-1,91.57c-.11,10.24,9.45,17.23,18.45,17.33l45.26.46.63-.12c22-4.08,36.36-19.5,36.58-39.28C241.93,85.85,236.9,72.89,227,65.15ZM197.74,94.43l0,2.12a21.3,21.3,0,0,1-3.34.17l-9.9-.11.05-4.91,12.25.14A5.51,5.51,0,0,1,197.74,94.43ZM185,51.15l0-2.38,4.77,0a6.83,6.83,0,0,1,.37,2.33v.06Z"/><path class="cls-4" d="M213.87,64.06a27,27,0,0,0,9.84-20.51c.16-14.87-11.82-32.3-27.52-32.47l-38.13-.43c-3.42,0-9.53,1.69-12.12,14.1l-1,90.92c-.07,6.16,6.18,10.52,11.84,10.58l44.6.46c18.72-3.48,30.94-16.35,31.12-32.79C232.62,82.12,225.77,68.7,213.87,64.06ZM175.24,85.88a3.63,3.63,0,0,1,3.67-3.59l16.49.19c3.27,0,6.42,5.37,6.37,9.33l0,2.27c0,3.81-.81,6.72-10.09,6.62l-13-.14a3.63,3.63,0,0,1-3.58-3.67Zm14.4-30.67-10.43-.12a3.61,3.61,0,0,1-3.58-3.66l.09-8.49a3.62,3.62,0,0,1,3.67-3.58l9.16.1c3.59,0,5.67,4.64,5.62,9.07C194.15,50.55,193.66,55.26,189.64,55.21Z"/><path class="cls-3" d="M120.12,107.27l-30-80.67c-4-11-15.53-19.71-26.17-19.82-10.4-.12-19,6.16-25.57,18.66l-.21.4L10.5,101.94a42.19,42.19,0,0,0-3.82,16c-.14,12.26,7.82,21.25,18.91,21.37,10.82.12,20.73-8.3,23.16-19.62l.78-2.85,28.66.32,1.67,5c3.36,10,12.3,17.41,21.25,17.51,11.06.12,20.51-9.93,20.65-22A33.29,33.29,0,0,0,120.12,107.27ZM67.65,78l-6.4.12,3.12-9.62Z"/><path class="cls-2" d="M25.52,146C10.8,145.88-.17,133.79,0,117.92A49,49,0,0,1,4.28,99.48L32,23.13l.42-.8C42.19,3.78,55,0,64,.1,77.43.25,91.34,10.65,96.36,24.3l30.12,80.93a39.49,39.49,0,0,1,2,12.58c-.17,15.64-12.72,28.71-27.4,28.55-11.89-.13-23.2-9.2-27.5-22.07l-.15-.46-18.74-.2C50.7,136.71,38.59,146.18,25.52,146ZM44.27,28.54l-27.64,76a35.67,35.67,0,0,0-3.27,13.5c-.1,8.52,5,14.53,12.3,14.61,7.67.09,14.79-6.08,16.56-14.34l.09-.37,2.15-7.81,38.55.42,3.18,9.47c2.45,7.33,8.89,12.89,15,13,7.31.08,13.81-7.09,13.9-15.34a26.35,26.35,0,0,0-1.27-8.22l-30-80.52c-3.11-8.46-12.07-15.39-20-15.48S49.64,18.3,44.27,28.54ZM52,84.94,64.19,47.43,77,84.51Z"/><path class="cls-5" d="M120.12,107.27l-30-80.67c-4-11-15.53-19.71-26.17-19.82-10.4-.12-19,6.16-25.57,18.66l-.21.4L10.5,101.94a42.19,42.19,0,0,0-3.82,16c-.14,12.26,7.82,21.25,18.91,21.37,10.82.12,20.73-8.3,23.16-19.62l.78-2.85,28.66.32,1.67,5c3.36,10,12.3,17.41,21.25,17.51,11.06.12,20.51-9.93,20.65-22A33.29,33.29,0,0,0,120.12,107.27ZM67.65,78l-6.4.12,3.12-9.62Z"/><path class="cls-6" d="M81.19,26.22c-3-8.3-12.2-15.38-20-15.47S47,15.66,41.62,25.84L14.06,101.7a36,36,0,0,0-3.34,13.67C10.62,124,15.56,129.9,23,130c7.75.09,14.9-6.21,16.6-14.52l2.2-8,38.55.42,3.18,9.48c2.45,7.32,8.89,12.88,15,13,7.31.08,13.81-7.09,13.9-15.34a25.93,25.93,0,0,0-1.32-8.35ZM70,81.89l-16.31.28a3.11,3.11,0,0,1-3-4.07l8-24.53a3.1,3.1,0,0,1,5.89,0l8.35,24.25A3.12,3.12,0,0,1,70,81.89Z"/><path class="cls-7" d="M339.38,89.54c-4.29-.24-8.79.82-13.58,1.94-3.35.79-7.16,1.69-9.21,1.58-4.23-.24-17.07-1-15.55-27.86.58-10.24,8.53-17.84,18.1-17.29A39.66,39.66,0,0,1,329,50.08l8,2.48.62.15L339,53a19.15,19.15,0,0,0,3.12.51,17.73,17.73,0,0,0,18.22-17.18l.08-1.44C361.17,22.06,349,8.35,320,6.72c-33-1.87-60.46,24.43-62.47,59.87-1,17.91,3.59,33.73,13.32,45.76s23.95,19.33,40.84,20.71l10.3.82.66,0c7.82.45,19.71-2.56,27.32-9.17,4.85-4.21,7.58-9.47,7.91-15.23C358.51,98.94,350.37,90.16,339.38,89.54Z"/><path class="cls-2" d="M322.32,140.26c-.27,0-.54,0-.8-.06l-10.3-.82c-18.67-1.52-34.32-9.49-45.28-23-10.73-13.27-15.82-30.6-14.71-50.11,2.2-39,32.58-67.92,69.15-65.85,33.31,1.89,47.3,18.88,46.4,34.89l-.08,1.44A23.33,23.33,0,0,1,337.6,59.2l-1.22-.27-1.23-.31-8-2.48a34.45,34.45,0,0,0-8.33-1.9c-6-.34-11,4.63-11.41,11.32-1.16,20.55,6.36,21,9.57,21.16a50.34,50.34,0,0,0,7.4-1.41c5-1.18,10.19-2.4,15.4-2.11,14.54.83,25.3,12.54,24.5,26.68-.42,7.5-3.91,14.3-10.08,19.66C344.86,137.62,331.14,140.76,322.32,140.26ZM319.67,13.05c-29.47-1.67-54,22-55.77,53.9-.93,16.31,3.19,30.63,11.91,41.41s21.31,17.14,36.43,18.38l10.8.85c6.38.36,16.54-2.19,22.8-7.63,3.57-3.1,5.5-6.74,5.73-10.8.4-7-5.11-12.87-12.55-13.29-3.37-.19-7.44.77-11.76,1.79-4.72,1.11-8.27,1.89-11,1.73-15.31-.87-22.75-12.81-21.52-34.55.78-13.79,11.67-24,24.79-23.27A45.75,45.75,0,0,1,330.86,44l8.19,2.51,1.32.29a14.39,14.39,0,0,0,2.12.38A11.41,11.41,0,0,0,354,36l.08-1.44C354.66,24.85,344.22,14.44,319.67,13.05Z"/><path class="cls-7" d="M339.38,89.54c-4.29-.24-8.79.82-13.58,1.94-3.35.79-7.16,1.69-9.21,1.58-4.23-.24-17.07-1-15.55-27.86.58-10.24,8.53-17.84,18.1-17.29A39.66,39.66,0,0,1,329,50.08l8,2.48.62.15L339,53a19.15,19.15,0,0,0,3.12.51,17.73,17.73,0,0,0,18.22-17.18l.08-1.44C361.17,22.06,349,8.35,320,6.72c-33-1.87-60.46,24.43-62.47,59.87-1,17.91,3.59,33.73,13.32,45.76s23.95,19.33,40.84,20.71l10.3.82.66,0c7.82.45,19.71-2.56,27.32-9.17,4.85-4.21,7.58-9.47,7.91-15.23C358.51,98.94,350.37,90.16,339.38,89.54Z"/><path class="cls-8" d="M336.63,93.2c-3.37-.2-7.45.77-11.76,1.78-4,.94-8.06,1.9-11,1.73-19.34-1.09-22.38-19.39-21.52-34.54.78-13.79,11.67-24,24.79-23.27a45.33,45.33,0,0,1,11.35,2.44l8,2.48c.62.12,1.13.24,1.56.34a13.28,13.28,0,0,0,2.05.36c5.23.3,11.12-3.91,11.54-11.21l.08-1.43c.55-9.71-9.89-20.12-34.44-21.51-29.47-1.66-54,22-55.78,53.9-1.88,33.25,17.55,57.27,48.34,59.79l10.28.82.53,0c6.56.37,16.68-2.31,22.8-7.62a15.45,15.45,0,0,0,5.73-10.8C349.59,99.34,344.19,93.62,336.63,93.2Z"/></g></g></svg>