<svg xmlns="http://www.w3.org/2000/svg" viewBox="0 0 297.48 124.99"><defs><style>.cls-1{fill:#6592eb;}.cls-2{fill:#fff;}.cls-3{fill:#96130b;}.cls-4{fill:#ff2114;}.cls-5{fill:#d11d5b;}.cls-6{fill:#ff4f8c;}.cls-7{fill:#00aade;}.cls-8{fill:#2eddff;}</style></defs><title>numbersAsset 72</title><g id="Layer_2" data-name="Layer 2"><g id="Layer_1-2" data-name="Layer 1"><path class="cls-1" d="M67.3,30.68v-.12c0-.29,0-.58-.06-.85s-.08-.64-.13-.88l0-.18c0-.34-.11-.68-.18-1s-.1-.44-.15-.61c-.12-.49-.25-1-.43-1.54l-.07-.2c-.19-.57-.41-1.13-.65-1.69l-.11-.24c-.22-.49-.46-1-.71-1.43l-.12-.23-.28-.47c-.26-.43-.53-.85-.77-1.2l-.43-.58c-.27-.36-.54-.72-.8-1s-.36-.42-.63-.71-.5-.54-.78-.8-.41-.39-.73-.67l-.83-.7c-.24-.19-.49-.37-.68-.51s-.61-.44-1-.69L57.17,14l-.09-.06c-.36-.21-.72-.41-1.15-.63-.16-.09-.33-.17-.56-.28-.43-.2-.85-.39-1.25-.54l-.57-.22c-.45-.16-.92-.32-1.34-.44l-.63-.17c-.45-.11-.91-.22-1.35-.3l-.42-.07,0-.47L46,11h0c-.34,0-.67,0-1,.05h0l-.55,0-4.34.3,0,.58L40,12c-.18,0-.36.12-.56.19-.49.17-1,.35-1.3.5l-.6.27c-.41.19-.8.39-1.18.59L16,24.49a21,21,0,0,0,9.4,39.24v37.72a21,21,0,0,0,41.95,0V31.54C67.34,31.25,67.32,31,67.3,30.68Z"/><path class="cls-1" d="M294.41,45.12c0-21-18.75-38-41.81-38-21.72,0-40,15.42-41.68,35.11a19.16,19.16,0,0,0,4.55,14.09,19.9,19.9,0,0,0,13.73,6.95,20.42,20.42,0,0,0,3.5,0v.45a20,20,0,0,0,.1,2.06,20.44,20.44,0,0,0-5.11-.65,19.73,19.73,0,0,0-19.9,19.51c0,22.28,20.11,40.42,44.84,40.42s44.85-18.14,44.85-40.42A37.83,37.83,0,0,0,290,62.19,35.23,35.23,0,0,0,294.41,45.12ZM257.33,84.57a7.48,7.48,0,0,1-4.7,1.41c-2.91,0-4.61-1.2-5-1.75,0-.58,0-1.16-.11-1.72a20.46,20.46,0,0,0,5.14.65A7.42,7.42,0,0,1,257.33,84.57Z"/><path class="cls-1" d="M161.84,81.19h-3.63L166.88,72a38.19,38.19,0,0,0,10.06-31.42,37.36,37.36,0,0,0-17.65-27,43.06,43.06,0,0,0-65.4,36.81,19.46,19.46,0,0,0,22,19.25L99.16,87.3A19.41,19.41,0,0,0,113.3,120h48.54a19.41,19.41,0,0,0,0-38.82ZM132.71,50.32A4.24,4.24,0,0,1,137,46.08a3.88,3.88,0,0,1,.9.1l-5.19,5.51C132.69,51.24,132.71,50.78,132.71,50.32Z"/><path class="cls-2" d="M57.06,24.59c0-.22,0-.45,0-.67v-.18c0-.2,0-.39-.05-.58s0-.43-.09-.65l0-.21c0-.24-.08-.48-.13-.72s-.07-.3-.1-.4A11.91,11.91,0,0,0,56.3,20l-.07-.22c-.15-.45-.31-.88-.47-1.24l-.11-.24c-.17-.38-.36-.75-.54-1.09L55,17l-.17-.28c-.2-.34-.41-.67-.63-1l-.32-.43c-.2-.27-.4-.54-.61-.78L52.8,14c-.2-.21-.39-.41-.6-.61s-.32-.3-.55-.51-.4-.35-.63-.53L50.48,12c-.23-.17-.47-.33-.74-.51l-.42-.26-.09,0c-.28-.17-.55-.32-.86-.48l-.44-.22c-.32-.15-.65-.29-1-.42l-.42-.15a10.33,10.33,0,0,0-1-.34L45,9.4c-.34-.09-.69-.17-1-.23l-.51-.08-.13,0C43.08,9,42.78,9,42.51,9l-.72,0h-.14l-.58,0h-.28c-.26,0-.52,0-.78,0l.3,5h0l-.41-5-.56,0-.75.11-.18,0-.65.11-.52.13-.13,0-.9.24-.37.14c-.39.13-.76.27-1.08.41l-.38.17-1,.48L13.13,21.75A16,16,0,0,0,25.07,51.17v43.2a16,16,0,0,0,32,0V24.59Z"/><path class="cls-2" d="M41.07,115.35a21,21,0,0,1-21-21V56.65a21,21,0,0,1-9.4-39.23l20.37-11c.38-.21.78-.4,1.18-.59q.3-.15.6-.27c.34-.15.82-.34,1.31-.51l.55-.19.07,0,0-.58L39.08,4l.54,0h.06l1-.05h0l3.74-.19,0,.47.41.08q.67.12,1.35.3l.63.17c.42.12.89.27,1.35.44l.56.21c.4.16.83.35,1.25.55l.56.27c.43.22.79.43,1.15.64l.1.06c.19.11.38.22.57.35.37.24.68.46,1,.68l.67.51c.33.26.58.48.84.71l.73.66c.27.27.52.54.78.81l.63.7c.25.3.52.65.79,1s.31.41.43.59c.25.35.51.77.77,1.2.1.15.19.31.28.47l.12.22c.25.45.49.94.72,1.43l.11.25c.24.55.45,1.12.65,1.69l.06.19c.19.57.32,1.06.43,1.54.05.18.1.4.15.62s.13.69.18,1l0,.18c0,.24.09.55.12.87s0,.57.07.86v.12c0,.28,0,.56,0,.85V94.37A21,21,0,0,1,41.07,115.35Zm-11-70.65V94.37a11,11,0,0,0,22,0V24.72l0-.47v-.2c0-.16,0-.25,0-.35s0-.24-.05-.35l0-.29c0-.18,0-.32-.08-.46l-.07-.27a7.27,7.27,0,0,0-.22-.8l0-.13q-.17-.49-.33-.87l-.08-.18c-.12-.25-.24-.51-.37-.74l-.2-.34c-.13-.23-.27-.45-.41-.65l-.21-.28c-.16-.22-.3-.4-.44-.56s-.2-.23-.33-.36a4.42,4.42,0,0,0-.42-.44,5.13,5.13,0,0,0-.39-.36c-.12-.11-.26-.23-.43-.36L47.57,16,47,15.62l-.24-.14-.11-.06c-.19-.12-.38-.23-.59-.34l-.29-.14-.67-.29-.27-.1-.71-.24-.33-.08a6.25,6.25,0,0,0-.72-.17L42.79,14h-.1a5.92,5.92,0,0,0-.6-.08l-.48,0h-.25L39.2,14l-.39.06-.26.06-.2.06a6,6,0,0,0-.64.17l-.25.09c-.25.09-.5.18-.71.27l-.29.13-.67.34L15.49,26.13a11,11,0,0,0,8.3,20.23Z"/><path class="cls-3" d="M57.06,24.59c0-.22,0-.45,0-.67v-.18c0-.2,0-.39-.05-.58s0-.43-.09-.65l0-.21c0-.24-.08-.48-.13-.72s-.07-.3-.1-.4A11.91,11.91,0,0,0,56.3,20l-.07-.22c-.15-.45-.31-.88-.47-1.24l-.11-.24c-.17-.38-.36-.75-.54-1.09L55,17l-.17-.28c-.2-.34-.41-.67-.63-1l-.32-.43c-.2-.27-.4-.54-.61-.78L52.8,14c-.2-.21-.39-.41-.6-.61s-.32-.3-.55-.51-.4-.35-.63-.53L50.48,12c-.23-.17-.47-.33-.74-.51l-.42-.26-.09,0c-.28-.17-.55-.32-.86-.48l-.44-.22c-.32-.15-.65-.29-1-.42l-.42-.15a10.33,10.33,0,0,0-1-.34L45,9.4c-.34-.09-.69-.17-1-.23l-.51-.08-.13,0C43.08,9,42.78,9,42.51,9l-.72,0h-.14l-.58,0h-.28c-.26,0-.52,0-.78,0l.3,5h0l-.41-5-.56,0-.75.11-.18,0-.65.11-.52.13-.13,0-.9.24-.37.14c-.39.13-.76.27-1.08.41l-.38.17-1,.48L13.13,21.75A16,16,0,0,0,25.07,51.17v43.2a16,16,0,0,0,32,0V24.59Z"/><path class="cls-4" d="M50.1,22.81c0-.22,0-.43,0-.65s0-.3,0-.45a4.34,4.34,0,0,0-.08-.52c0-.19-.05-.39-.09-.58s0-.18-.07-.27c-.06-.27-.13-.54-.21-.8l0-.09a9.56,9.56,0,0,0-.35-.94l0-.06a10.12,10.12,0,0,0-.47-.93v0h0a.91.91,0,0,1-.08-.13c-.15-.26-.31-.51-.48-.76l-.22-.29c-.14-.18-.28-.37-.43-.55s-.21-.23-.32-.35l-.4-.42c-.12-.12-.25-.23-.38-.34l-.43-.37c-.12-.1-.25-.19-.39-.29l-.49-.34-.36-.22c-.19-.11-.38-.23-.58-.33L43.8,13c-.22-.1-.44-.21-.66-.29l-.29-.11-.72-.24-.31-.08c-.24-.06-.47-.12-.72-.16s-.27,0-.41-.06-.41-.07-.63-.09l-.57,0c-.14,0-.27,0-.41,0H39l-.67,0c-.14,0-.29,0-.43,0l-.58.09-.51.08-.38.1-.69.18-.21.08-.82.31-.18.09-.8.4,0,0L13.58,24.1A11,11,0,1,0,24.41,43.3l3.65-2v51a11,11,0,0,0,11,11h0a11,11,0,0,0,11-11V22.81Z"/><path d="M269.89,53.89a26.09,26.09,0,0,0,7.27-17.84C277.16,20.56,262.87,8,245.31,8c-16.59,0-30.54,11.42-31.77,26a9.26,9.26,0,0,0,2.21,6.81,10,10,0,0,0,6.92,3.48,9.86,9.86,0,0,0,10.72-8.76c.39-4.72,5.63-8.41,11.92-8.41,6.58,0,11.94,4,11.94,9s-5.36,9-11.94,9a9.56,9.56,0,1,0,0,19.1c8.27,0,15,5.1,15,11.36s-6.72,11.36-15,11.36-15-5.09-15-11.36a10,10,0,0,0-19.91,0c0,16.8,15.66,30.47,34.89,30.47s34.9-13.67,34.9-30.47A28.75,28.75,0,0,0,269.89,53.89Z"/><path class="cls-2" d="M284.65,55.12A35.16,35.16,0,0,0,289.1,38c0-21-18.75-38-41.8-38-21.72,0-40,15.42-41.69,35.11a19.14,19.14,0,0,0,4.56,14.1,19.88,19.88,0,0,0,13.72,6.94,19.44,19.44,0,0,0,3.5,0v.46a20.15,20.15,0,0,0,.11,2.06,20,20,0,0,0-5.11-.65,19.73,19.73,0,0,0-19.91,19.5c0,22.29,20.12,40.42,44.85,40.42s44.84-18.13,44.84-40.42A37.82,37.82,0,0,0,284.65,55.12ZM252,77.49a7.38,7.38,0,0,1-4.69,1.41c-2.92,0-4.62-1.19-5-1.75,0-.58,0-1.15-.1-1.72a20.4,20.4,0,0,0,5.14.65A7.45,7.45,0,0,1,252,77.49Z"/><path class="cls-5" d="M278.57,55.5A30.65,30.65,0,0,0,284.13,38C284.13,19.81,267.61,5,247.3,5,228.14,5,212,18.4,210.57,35.53A14.2,14.2,0,0,0,214,46a15.05,15.05,0,0,0,26.38-8.09c.15-1.82,3.16-3.86,7-3.86s7,2.16,7,4-3.05,4-7,4a14.75,14.75,0,0,0-14.93,14.53,14.21,14.21,0,0,0,4.45,10.34,15.11,15.11,0,0,0,10.5,4.19h0c5.89,0,10,3.36,10,6.38s-4.11,6.39-10,6.39-10-3.37-10-6.39a14.94,14.94,0,0,0-29.86,0c0,19.54,17.88,35.44,39.87,35.44S287.19,97,287.19,77.49A33.23,33.23,0,0,0,278.57,55.5Z"/><path class="cls-6" d="M269.89,53.89a26.09,26.09,0,0,0,7.27-17.84C277.16,20.56,262.87,8,245.31,8c-16.59,0-30.54,11.42-31.77,26a9.26,9.26,0,0,0,2.21,6.81,10,10,0,0,0,6.92,3.48,9.86,9.86,0,0,0,10.72-8.76c.39-4.72,5.63-8.41,11.92-8.41,6.58,0,11.94,4,11.94,9s-5.36,9-11.94,9a9.56,9.56,0,1,0,0,19.1c8.27,0,15,5.1,15,11.36s-6.72,11.36-15,11.36-15-5.09-15-11.36a10,10,0,0,0-19.91,0c0,16.8,15.66,30.47,34.89,30.47s34.9-13.67,34.9-30.47A28.75,28.75,0,0,0,269.89,53.89Z"/><path d="M154.55,82.08H127.88l24.45-26a28.29,28.29,0,0,0,7.45-23.27,27.43,27.43,0,0,0-13-19.87,33.11,33.11,0,0,0-50.28,28.3,9.46,9.46,0,1,0,18.92,0A14.19,14.19,0,0,1,137,29.11a8.53,8.53,0,0,1,4,6.26,9.42,9.42,0,0,1-2.47,7.76L99.11,85.05A9.46,9.46,0,0,0,106,101h48.55a9.46,9.46,0,0,0,0-18.91Z"/><path class="cls-2" d="M156.54,74.11H152.9l8.67-9.21a38.18,38.18,0,0,0,10.06-31.43A37.39,37.39,0,0,0,154,6.43,43.07,43.07,0,0,0,88.58,43.25a19.4,19.4,0,0,0,22,19.24L93.85,80.22A19.41,19.41,0,0,0,108,112.93h48.55a19.41,19.41,0,0,0,0-38.82ZM127.4,43.25A4.24,4.24,0,0,1,131.64,39a4.43,4.43,0,0,1,.9.09l-5.19,5.52C127.39,44.16,127.4,43.71,127.4,43.25Z"/><path class="cls-7" d="M156.54,79.09H141.39L158,61.49a33.24,33.24,0,0,0,8.75-27.35,32.37,32.37,0,0,0-15.3-23.45A38.08,38.08,0,0,0,93.56,43.25a14.43,14.43,0,0,0,28.86,0,9.23,9.23,0,0,1,14-7.9A3.52,3.52,0,0,1,138.09,38a4.45,4.45,0,0,1-1.17,3.68L97.48,83.63A14.44,14.44,0,0,0,108,108h48.55a14.44,14.44,0,0,0,0-28.87Z"/><path class="cls-8" d="M154.55,82.08H127.88l24.45-26a28.29,28.29,0,0,0,7.45-23.27,27.43,27.43,0,0,0-13-19.87,33.11,33.11,0,0,0-50.28,28.3,9.46,9.46,0,1,0,18.92,0A14.19,14.19,0,0,1,137,29.11a8.53,8.53,0,0,1,4,6.26,9.42,9.42,0,0,1-2.47,7.76L99.11,85.05A9.46,9.46,0,0,0,106,101h48.55a9.46,9.46,0,0,0,0-18.91Z"/></g></g></svg>